<?xml version="1.0" standalone="no"?>
<!DOCTYPE svg PUBLIC "-//W3C//DTD SVG 20010904//EN"
 "http://www.w3.org/TR/2001/REC-SVG-20010904/DTD/svg10.dtd">
<svg version="1.0" xmlns="http://www.w3.org/2000/svg"
 width="7730.000000pt" height="7730.000000pt" viewBox="0 0 7730.000000 7730.000000"
 preserveAspectRatio="xMidYMid meet">

<g transform="translate(0.000000,7730.000000) scale(0.100000,-0.100000)"
fill="#000000" stroke="none">
<path d="M29307 64090 c-7 -10 -78 -188 -157 -393 l-145 -375 -80 -16 c-283
-59 -623 -185 -898 -331 l-87 -47 -359 191 c-204 109 -370 191 -385 191 -21 0
-103 -71 -384 -332 -196 -182 -363 -338 -369 -346 -7 -9 -13 -25 -13 -37 0
-12 74 -189 165 -393 l164 -371 -61 -98 c-138 -218 -274 -510 -353 -754 -26
-79 -50 -153 -55 -164 -6 -17 -78 -42 -400 -140 -301 -92 -396 -124 -405 -140
-9 -14 -18 -163 -30 -524 -18 -501 -18 -505 2 -520 11 -9 189 -82 396 -161
l376 -145 11 -55 c54 -266 158 -563 298 -843 46 -92 82 -173 79 -180 -3 -7
-88 -169 -191 -362 -102 -192 -186 -359 -186 -371 0 -16 86 -115 276 -321 382
-412 413 -443 444 -443 14 0 191 74 393 164 l368 164 102 -64 c230 -144 585
-306 824 -375 l110 -32 88 -291 c149 -494 153 -506 178 -516 12 -5 216 -16
452 -25 487 -17 565 -18 583 -7 7 5 79 181 161 392 129 336 151 385 172 391
13 4 76 19 139 34 244 57 568 179 800 302 l105 56 359 -191 c198 -106 370
-192 382 -192 23 0 61 30 204 164 65 61 158 148 280 262 36 33 101 93 145 134
119 108 135 127 135 159 0 15 -72 190 -160 388 -88 198 -160 365 -160 371 0 6
28 55 62 109 135 213 296 569 372 818 15 50 29 95 31 100 1 6 179 64 394 130
219 66 398 126 406 135 12 13 18 106 33 516 10 274 17 506 14 515 -6 24 -30
35 -426 187 l-359 138 -47 190 c-70 278 -156 504 -290 762 l-60 116 190 357
c112 210 190 368 190 384 0 31 21 8 -384 443 -255 274 -304 322 -328 322 -15
0 -194 -74 -397 -163 l-369 -164 -100 63 c-230 145 -479 261 -761 354 l-175
58 -118 388 c-69 227 -125 395 -135 405 -16 16 -67 19 -438 33 -564 21 -600
21 -618 -4z m708 -1784 c297 -46 544 -126 795 -257 592 -310 1038 -858 1224
-1504 49 -171 52 -203 27 -252 -45 -89 -169 -97 -226 -16 -8 11 -25 65 -39
120 -162 636 -584 1157 -1171 1444 -306 149 -614 219 -964 219 -833 0 -1594
-474 -1961 -1223 -365 -743 -286 -1616 206 -2278 90 -121 265 -304 379 -396
319 -257 697 -418 1115 -474 139 -19 431 -16 570 5 590 89 1099 390 1455 861
70 93 86 106 138 112 82 10 147 -49 147 -133 0 -47 -35 -102 -154 -244 -413
-495 -1000 -805 -1650 -871 -148 -15 -471 -7 -611 15 -509 81 -972 311 -1339
666 -382 370 -623 824 -716 1351 -28 154 -38 510 -21 682 36 343 161 714 343
1016 127 210 358 475 550 629 392 316 847 499 1358 546 93 8 449 -4 545 -18z
m-188 -1462 c191 -20 409 -129 559 -278 375 -376 388 -975 30 -1373 -108 -120
-298 -235 -471 -285 -70 -20 -102 -23 -255 -23 -140 0 -189 4 -245 19 -283 76
-515 264 -644 522 -67 133 -92 237 -98 399 -4 115 -1 157 15 235 39 188 119
343 249 480 172 181 381 286 616 310 80 7 126 6 244 -6z"/>
<path d="M29545 60574 c-145 -32 -261 -94 -359 -190 -120 -118 -194 -267 -216
-435 -40 -300 134 -610 416 -739 274 -127 591 -70 809 145 85 84 136 167 177
290 131 391 -101 813 -507 920 -89 24 -236 28 -320 9z"/>
<path d="M18061 64063 c-26 -23 -67 -123 -246 -588 -119 -308 -219 -563 -223
-566 -4 -4 -63 -19 -132 -34 -270 -59 -604 -164 -875 -277 -131 -54 -424 -196
-521 -251 l-61 -35 -514 275 c-283 151 -529 282 -548 290 -53 23 -88 10 -161
-60 -36 -34 -120 -112 -185 -173 -419 -387 -822 -763 -835 -779 -32 -39 -17
-81 230 -635 134 -300 243 -549 243 -555 0 -5 -26 -50 -57 -99 -189 -292 -373
-660 -501 -1005 -42 -114 -128 -381 -136 -424 -3 -16 -108 -50 -574 -192 -313
-96 -584 -181 -602 -189 -24 -11 -35 -25 -42 -53 -5 -21 -19 -319 -31 -663
-11 -344 -23 -673 -27 -731 l-6 -106 29 -30 c24 -25 132 -70 594 -248 l566
-217 23 -110 c92 -445 296 -992 524 -1403 l44 -80 -215 -401 -214 -402 -436
-6 c-812 -12 -1397 -26 -1482 -36 -350 -41 -649 -127 -955 -275 -571 -276
-1032 -733 -1319 -1305 -139 -279 -228 -556 -278 -871 l-23 -144 0 -13400 c0
-12910 1 -13405 18 -13540 25 -192 60 -378 101 -536 427 -1650 1859 -2845
3556 -2968 80 -6 519 -20 975 -31 4584 -110 10672 -231 18724 -370 618 -10
1125 -21 1127 -22 1 -2 -15 -125 -36 -273 -22 -149 -84 -583 -140 -965 -55
-382 -134 -929 -175 -1215 -246 -1707 -524 -3618 -529 -3622 -3 -3 -789 -29
-1748 -59 -1196 -36 -1778 -58 -1855 -68 -234 -31 -410 -114 -564 -266 -149
-147 -148 -146 -330 -865 l-151 -600 4 -110 c4 -88 10 -122 30 -173 105 -256
335 -432 658 -504 l105 -23 10965 0 10965 0 104 23 c325 72 578 267 662 509
30 87 42 190 30 263 -6 34 -128 474 -271 978 -194 678 -271 934 -296 982 -122
233 -396 401 -719 442 -76 10 -340 4 -1541 -34 -797 -25 -1452 -43 -1456 -39
-4 3 -180 800 -393 1771 -212 971 -401 1835 -420 1920 -19 85 -50 227 -69 315
-19 88 -96 439 -170 780 -75 341 -136 626 -136 634 0 12 78 13 528 7 1710 -22
2827 -35 4247 -51 264 -3 653 -7 865 -10 952 -12 1272 -16 2310 -25 1961 -18
3572 -29 5078 -36 l1474 -7 -6 -141 c-4 -78 -11 -280 -16 -451 -109 -3378
-393 -6300 -771 -7930 -44 -192 -47 -226 -20 -275 22 -43 70 -71 186 -109 191
-64 388 -103 605 -122 159 -14 207 -9 278 32 85 48 97 76 211 477 760 2686
1389 5850 1653 8310 l23 212 77 0 77 0 5 -32 c16 -97 92 -1074 125 -1608 94
-1517 145 -3139 171 -5405 6 -522 14 -1143 19 -1380 7 -399 9 -433 28 -475 38
-86 120 -130 292 -155 179 -27 478 -14 566 24 45 20 98 69 119 110 37 71 165
769 270 1466 289 1925 508 4305 586 6385 11 284 30 946 30 1036 l0 51 118 7
c822 49 1582 442 2103 1089 354 439 572 972 628 1537 30 291 115 4052 151
6640 43 3075 43 6854 0 9375 -86 5054 -312 8806 -686 11410 -66 458 -102 627
-183 852 -374 1038 -1259 1780 -2341 1962 -213 36 -252 38 -2230 96 -465 14
-1272 36 -1795 49 -522 14 -1035 28 -1140 31 -104 2 -284 7 -400 10 -279 7
-551 14 -765 20 -96 3 -283 7 -415 10 -244 5 -487 11 -810 20 -171 5 -315 8
-840 20 -126 3 -315 8 -420 11 -508 14 -5374 126 -7775 179 -6987 154 -14199
290 -19630 370 -564 8 -1315 20 -1670 25 -355 6 -1027 15 -1495 20 -1893 23
-2328 29 -2336 37 -4 4 -58 122 -119 260 l-111 253 89 142 c256 409 485 924
596 1338 l18 65 556 169 c306 93 576 177 599 187 23 9 46 26 52 38 10 18 61
1218 61 1443 0 76 -3 90 -22 112 -17 18 -174 83 -588 242 -311 119 -566 217
-567 218 -1 1 -15 64 -33 141 -96 432 -233 811 -446 1233 l-112 223 284 533
c238 447 284 540 284 574 0 40 -8 50 -272 333 -150 161 -378 405 -506 543
-129 138 -240 255 -249 260 -39 21 -96 0 -632 -238 l-554 -245 -41 28 c-385
262 -976 532 -1435 658 -44 12 -66 23 -72 37 -5 12 -86 275 -180 586 -132 436
-176 571 -195 590 l-24 24 -612 22 c-337 12 -677 25 -755 28 l-142 7 -30 -28z
m844 -2774 c804 -66 1576 -421 2167 -997 470 -459 796 -1019 963 -1652 19 -74
35 -152 35 -173 0 -50 -35 -87 -83 -87 -60 0 -74 21 -113 175 -158 629 -465
1162 -930 1615 -546 532 -1211 846 -1994 942 -135 17 -612 17 -740 0 -338 -44
-593 -108 -875 -219 -435 -172 -810 -418 -1146 -753 -292 -291 -487 -566 -663
-932 -399 -828 -444 -1786 -126 -2646 64 -171 206 -461 300 -611 217 -349 512
-669 846 -921 179 -136 327 -226 539 -330 454 -222 901 -333 1410 -347 697
-20 1368 172 1955 558 325 214 613 486 863 817 81 107 106 123 156 106 15 -5
34 -24 44 -46 23 -48 13 -72 -83 -198 -212 -277 -481 -539 -767 -748 -265
-194 -644 -387 -968 -494 l-90 -29 -775 0 c-426 1 -896 4 -1045 7 l-270 7
-120 42 c-512 182 -950 458 -1335 845 -561 561 -900 1249 -1016 2055 -24 171
-30 632 -10 822 89 843 438 1576 1031 2168 627 626 1467 997 2340 1034 186 7
319 5 500 -10z m-14 -2128 c446 -89 820 -374 1024 -780 52 -104 111 -288 131
-409 21 -129 15 -415 -11 -532 -130 -591 -588 -1032 -1180 -1135 -122 -22
-352 -22 -480 0 -295 49 -572 192 -786 405 -206 205 -337 447 -401 741 -32
149 -32 417 1 569 89 416 332 757 691 971 152 90 376 166 557 188 110 14 340
4 454 -18z m19634 -6375 c14306 -289 26071 -529 26145 -535 164 -13 248 -30
405 -82 543 -180 946 -639 1076 -1225 20 -89 22 -134 26 -464 5 -370 -42
-15087 -51 -16003 l-5 -498 111 -122 c991 -1091 1472 -2202 1387 -3204 -65
-779 -455 -1532 -1019 -1970 -104 -80 -205 -143 -355 -219 l-140 -70 -6 -1320
c-5 -1294 -6 -1322 -27 -1455 -65 -403 -220 -757 -472 -1074 -119 -149 -330
-344 -492 -454 l-47 -31 -5 32 c-3 18 -10 96 -16 173 -17 216 -55 579 -96 914
l-37 303 -31 -5 c-17 -3 -80 -17 -141 -31 -1032 -239 -2411 -148 -3745 248
-102 30 -221 67 -265 83 l-80 28 -22 105 -22 105 5 -115 c3 -63 21 -348 40
-632 31 -478 34 -556 34 -1019 l0 -501 -382 6 c-211 4 -10951 137 -23868 296
-14191 175 -23528 294 -23594 300 -700 68 -1322 445 -1708 1035 -220 335 -340
698 -368 1115 -14 208 -14 25062 0 25201 23 222 74 407 165 597 100 208 211
359 390 530 301 287 738 472 1140 481 33 1 11765 -235 26070 -523z m-15785
-29212 c6295 -106 17387 -295 24650 -419 7262 -124 13224 -225 13247 -225 l43
0 0 -70 0 -70 -72 0 c-40 0 -5876 99 -12968 220 -7092 121 -18200 310 -24685
420 -6484 110 -11890 202 -12013 206 -209 6 -225 8 -243 27 -26 29 -24 63 7
94 l25 25 282 -6 c155 -4 5432 -95 11727 -202z m43184 -734 c524 -10 573 -12
596 -29 34 -24 38 -69 9 -100 l-22 -24 -336 6 c-185 4 -495 10 -688 13 l-353
7 0 68 0 69 112 0 c61 0 368 -5 682 -10z m-26626 -26 c329 -66 557 -386 512
-716 -74 -535 -717 -757 -1100 -379 -84 83 -146 192 -175 306 -19 77 -19 234
0 310 88 341 418 549 763 479z m2327 -8349 c14 -13 25 -36 25 -50 0 -14 -11
-37 -25 -50 -23 -24 -29 -25 -168 -25 -79 0 -292 -3 -474 -7 -329 -6 -330 -6
-351 15 -27 27 -28 72 -3 103 l19 24 364 5 c199 3 414 7 476 8 108 2 114 1
137 -23z m-2278 -15 c29 -10 53 -45 53 -75 0 -8 -10 -25 -22 -40 l-23 -25
-4785 -70 c-3865 -56 -4800 -72 -4860 -83 -255 -48 -469 -226 -562 -464 -23
-59 -44 -167 -99 -516 -72 -450 -81 -487 -123 -495 -30 -6 -65 8 -81 32 -14
21 -10 58 55 462 75 470 84 510 135 620 114 249 324 421 603 496 95 25 -444
15 5137 98 2497 37 4540 68 4541 69 1 0 15 -4 31 -9z"/>
<path d="M18510 58839 c-387 -33 -742 -286 -906 -645 -78 -172 -114 -385 -94
-563 30 -272 145 -509 336 -691 621 -593 1638 -294 1844 541 30 118 37 307 16
430 -95 577 -612 978 -1196 928z"/>
<path d="M22432 49808 c-453 -509 -708 -1050 -814 -1728 -19 -127 -22 -183
-22 -455 0 -335 11 -448 70 -715 242 -1087 1046 -1986 2103 -2351 992 -343
2095 -184 2943 422 743 532 1209 1311 1340 2239 21 150 18 692 -5 845 -56 373
-147 665 -312 1000 -137 278 -308 528 -520 760 l-77 85 -2307 0 -2307 0 -92
-102z m2534 -338 c620 -50 1161 -391 1468 -924 332 -576 329 -1289 -8 -1860
-146 -246 -332 -443 -571 -602 -850 -565 -1992 -338 -2560 511 -447 667 -415
1537 80 2170 312 400 796 662 1297 704 149 12 153 12 294 1z"/>
<path d="M13731 48228 c-72 -385 -72 -827 0 -1208 152 -803 592 -1505 1256
-2002 1278 -956 3095 -822 4223 311 455 457 762 1024 885 1636 50 245 59 352
60 655 0 293 -11 419 -53 630 l-17 85 -729 3 c-691 2 -728 1 -721 -15 93 -233
142 -518 132 -768 -36 -859 -639 -1568 -1484 -1745 -384 -81 -800 -29 -1161
145 -461 221 -805 613 -962 1095 -70 216 -85 314 -85 575 0 267 16 369 89 588
l43 127 -727 0 -728 0 -21 -112z"/>
<path d="M29812 46233 c158 -336 379 -643 665 -924 268 -263 489 -421 823
-588 335 -167 654 -264 1045 -317 158 -21 596 -25 750 -6 862 106 1595 500
2143 1152 136 163 298 407 395 598 l78 152 -836 0 -836 0 -70 -62 c-229 -205
-549 -365 -856 -427 -471 -96 -968 -2 -1372 259 -96 63 -217 157 -260 204
l-24 26 -838 0 -838 0 31 -67z"/>
<path d="M43420 35510 l0 -9290 670 0 670 0 -2 9288 -3 9287 -667 3 -668 2 0
-9290z"/>
<path d="M47888 37088 c-1 -2873 -2 -6492 -3 -8043 l0 -2820 668 -3 667 -2 0
8045 0 8045 -665 0 -665 0 -2 -5222z"/>
<path d="M60281 41575 c-96 -22 -254 -104 -340 -177 -229 -194 -403 -570 -389
-839 3 -68 10 -98 36 -152 89 -190 330 -334 684 -408 76 -16 161 -23 328 -29
195 -7 233 -11 289 -30 128 -45 288 -179 402 -335 78 -108 93 -141 93 -210 -1
-53 -30 -140 -247 -735 -136 -371 -258 -691 -272 -711 -40 -61 -132 -145 -198
-181 -57 -30 -69 -33 -147 -33 -110 0 -154 23 -286 146 -158 147 -313 277
-399 335 -218 145 -347 161 -455 56 -55 -54 -58 -63 -140 -388 -70 -278 -136
-598 -166 -807 -29 -201 -26 -233 28 -308 45 -62 102 -83 343 -123 419 -69
703 -96 1047 -99 320 -3 311 -10 489 368 68 143 219 452 336 687 117 234 213
432 213 439 0 26 74 227 110 299 85 169 179 256 292 270 162 19 314 -32 409
-139 l48 -54 48 18 c59 23 131 89 194 179 147 209 128 425 -55 640 -57 66 -76
111 -76 176 0 70 18 106 99 201 194 224 210 435 50 670 -54 80 -151 174 -223
218 -169 102 -398 124 -602 59 -138 -44 -217 -24 -311 76 -40 42 -61 56 -90
61 -102 15 -145 29 -183 56 -55 40 -90 114 -90 191 0 78 -23 193 -53 258 -71
161 -225 280 -437 340 -99 28 -289 36 -379 15z"/>
<path d="M50120 32875 l0 -6655 668 2 667 3 3 6653 2 6652 -670 0 -670 0 0
-6655z"/>
<path d="M38958 35288 c-2 -1800 -3 -4576 -3 -6168 l0 -2895 668 -3 667 -2 0
6170 0 6170 -665 0 -665 0 -2 -3272z"/>
<path d="M52350 31360 l0 -5140 670 0 670 0 0 4646 0 4646 -83 97 c-214 248
-495 622 -632 843 l-30 48 -297 0 -298 0 0 -5140z"/>
<path d="M57172 34453 c-7 -3 -19 -18 -28 -35 -15 -28 -13 -36 32 -171 25 -78
50 -146 54 -150 4 -4 97 -17 206 -28 109 -11 208 -24 219 -29 16 -7 13 -9 -15
-8 -38 0 -67 -4 -144 -22 -49 -11 -93 -17 -173 -25 -23 -2 -59 -8 -80 -14 -64
-16 -306 -56 -400 -66 -23 -2 -59 -8 -79 -14 -21 -6 -41 -8 -45 -5 -4 2 -10 0
-14 -6 -13 -21 -33 -8 -42 28 l-9 37 -149 8 c-185 10 -1025 1 -1119 -12 -106
-14 -159 -64 -160 -150 -1 -43 12 -76 107 -267 206 -415 797 -1572 1022 -1999
297 -564 636 -1192 767 -1420 22 -38 117 -205 211 -370 372 -654 614 -1041
937 -1498 67 -95 35 -89 466 -87 208 0 1003 7 1765 14 1534 15 1427 10 1469
79 41 66 41 65 -118 619 -82 288 -163 575 -181 638 l-32 115 -112 -3 c-136 -4
-232 14 -334 62 -112 54 -155 87 -329 258 -153 150 -204 188 -253 188 -11 0
-51 -16 -88 -35 -77 -40 -148 -52 -210 -36 -47 13 -114 61 -150 107 l-23 31
110 121 c60 66 110 123 110 125 0 3 -25 -3 -55 -14 -60 -21 -139 -25 -182 -8
-40 15 -82 57 -104 104 -32 68 -28 75 77 156 53 41 106 82 118 92 21 18 21 18
-19 12 -65 -11 -172 -6 -209 9 -77 32 -149 130 -171 233 -6 30 -4 33 31 48 60
25 415 133 610 185 213 57 441 105 574 121 52 6 96 12 97 13 7 6 -623 2176
-638 2197 -10 15 -33 34 -51 42 -33 16 -447 65 -1103 130 l-319 32 -8 40 c-10
46 -40 82 -77 89 -14 3 -118 15 -231 26 -113 11 -223 22 -246 25 l-41 6 -33
140 c-25 111 -37 143 -54 154 -18 11 -1092 196 -1128 194 -7 0 -19 -3 -26 -6z"/>
<path d="M41190 30270 l0 -4050 668 2 667 3 1 2675 c0 1471 -1 3293 -4 4048
l-3 1372 -665 0 -664 0 0 -4050z"/>
<path d="M31957 34070 c-62 -16 -118 -49 -172 -104 -187 -188 -135 -501 103
-618 62 -31 73 -33 172 -33 92 0 112 3 160 26 244 116 302 442 112 627 -74 72
-148 104 -252 108 -47 2 -102 -1 -123 -6z"/>
<path d="M45652 28458 l3 -2233 668 -3 667 -2 0 2235 0 2235 -670 0 -670 0 2
-2232z"/>
<path d="M39048 22674 c-160 -38 -296 -158 -359 -316 -26 -65 -36 -211 -20
-288 58 -272 349 -453 616 -385 342 88 498 484 304 774 -119 178 -337 265
-541 215z"/>
<path d="M60645 11106 c-4 -47 -12 -92 -19 -100 -14 -18 -136 -58 -246 -82
-114 -24 -311 -24 -400 -1 -74 20 -173 65 -209 94 l-24 20 15 62 c11 44 13 61
5 58 -31 -12 -2637 -1211 -2678 -1233 -27 -13 -64 -38 -83 -54 -44 -39 -86
-123 -86 -170 0 -46 33 -97 80 -124 34 -21 47 -21 575 -20 632 2 1462 24 2540
68 284 12 337 17 382 34 80 30 134 65 185 120 90 97 124 202 114 354 -16 223
-121 1034 -136 1052 -5 4 -11 -31 -15 -78z"/>
<path d="M64050 10979 c-15 -94 -25 -108 -101 -137 -125 -46 -318 -54 -476
-17 -69 16 -72 17 -68 43 10 67 14 152 7 152 -13 0 -111 -125 -180 -229 -161
-244 -285 -580 -337 -917 -26 -166 -9 -242 73 -316 76 -68 97 -72 415 -65 257
6 496 20 760 47 122 12 185 38 237 98 41 46 70 120 70 176 0 40 -80 396 -131
581 -90 330 -213 665 -244 665 -8 0 -17 -30 -25 -81z"/>
</g>
</svg>
