<?xml version="1.0" standalone="no"?>
<!DOCTYPE svg PUBLIC "-//W3C//DTD SVG 20010904//EN"
 "http://www.w3.org/TR/2001/REC-SVG-20010904/DTD/svg10.dtd">
<svg version="1.0" xmlns="http://www.w3.org/2000/svg"
 width="7730.000000pt" height="7730.000000pt" viewBox="0 0 7730.000000 7730.000000"
 preserveAspectRatio="xMidYMid meet">

<g transform="translate(0.000000,7730.000000) scale(0.100000,-0.100000)"
fill="rgb(0, 98, 255)" stroke="none">
<path d="M37075 67810 c-212 -19 -501 -79 -646 -133 -317 -119 -576 -348 -726
-642 -64 -127 -97 -219 -123 -346 -43 -208 -43 -196 99 -1743 72 -781 129
-1422 126 -1424 -3 -3 -827 23 -1832 58 -1006 34 -1875 60 -1933 57 -431 -22
-793 -338 -885 -770 -12 -55 -15 -178 -15 -637 l0 -570 -1802 -2 -1803 -3 -96
-27 c-244 -67 -448 -209 -588 -408 l-52 -75 -867 -5 -867 -5 235 -27 c129 -15
498 -58 820 -94 322 -37 586 -67 587 -68 1 0 -7 -37 -18 -81 -14 -58 -24 -159
-34 -360 -8 -154 -19 -361 -24 -460 -13 -238 -8 -404 14 -485 63 -241 239
-442 465 -534 146 -59 -21 -56 2741 -56 l2532 0 -7 -52 c-28 -208 -36 -283
-47 -433 -10 -140 -9 -334 2 -585 1 -37 11 -70 20 -64 5 3 9 -1 9 -10 0 -8 13
-17 29 -21 16 -3 35 -13 42 -21 6 -8 20 -14 30 -14 16 0 19 8 19 44 0 25 -4
47 -8 50 -5 3 -7 153 -6 333 2 406 22 597 99 943 242 1084 902 2046 1820 2654
198 131 286 183 485 282 429 213 918 357 1430 421 206 25 753 25 960 0 901
-112 1706 -469 2369 -1051 148 -129 394 -386 514 -535 511 -639 815 -1363 924
-2206 23 -176 26 -796 5 -965 -70 -564 -213 -1034 -460 -1514 -318 -617 -796
-1168 -1342 -1551 -47 -32 -88 -64 -92 -70 -4 -5 -12 -11 -18 -11 -21 -3 -22
-4 -9 -20 7 -9 24 -20 37 -25 14 -5 20 -14 16 -21 -4 -7 -3 -8 4 -4 9 5 9 13
0 29 -10 20 -10 21 6 8 11 -10 15 -22 12 -37 -4 -13 -1 -26 6 -30 8 -5 9 -2 4
11 -5 14 -4 15 7 7 10 -8 21 -6 45 8 18 11 32 25 32 30 0 6 4 9 8 6 17 -11
312 222 491 387 545 504 969 1168 1202 1887 74 228 150 554 174 750 4 30 9 63
11 72 26 140 38 634 21 882 -54 810 -332 1582 -816 2266 -179 253 -484 589
-704 775 l-95 80 2229 3 c2114 2 2229 3 2229 20 0 9 -11 193 -25 407 -25 410
-34 469 -89 604 -62 152 -197 318 -335 411 -90 60 -214 116 -312 140 -89 22
-267 29 -2832 116 -455 16 -826 31 -824 34 309 605 459 1039 534 1545 25 171
25 596 0 749 -36 226 -91 403 -183 594 -197 412 -489 713 -987 1018 -441 271
-895 438 -1353 499 -145 19 -453 27 -589 15z m880 -475 c167 -22 215 -34 242
-61 42 -42 27 -104 -34 -138 -6 -3 -64 3 -128 14 -430 73 -954 19 -1261 -130
-384 -186 -624 -569 -624 -994 0 -55 9 -193 20 -304 22 -228 19 -248 -39 -271
-35 -15 -60 -9 -90 23 -20 22 -25 45 -41 223 -34 356 -23 535 44 736 79 236
245 465 450 619 264 199 721 315 1188 302 87 -2 209 -11 273 -19z m-95 -1029
c432 -77 741 -461 717 -891 -33 -584 -618 -965 -1166 -759 -193 72 -365 230
-461 421 -144 289 -113 631 82 895 187 254 521 389 828 334z m-1655 -1201 c14
-13 25 -30 25 -37 0 -7 11 -132 25 -277 21 -232 23 -267 10 -291 -25 -48 -96
-56 -134 -17 -20 22 -24 48 -46 288 -14 145 -25 272 -25 281 0 9 12 30 26 47
33 40 83 43 119 6z m-1861 -1926 c32 -38 33 -70 2 -106 l-24 -28 -954 -5 -953
-5 -70 -24 c-211 -70 -367 -203 -455 -386 -67 -140 -70 -165 -70 -588 l0 -377
-91 0 -91 0 5 388 c4 356 6 394 26 471 24 94 82 225 131 296 88 127 245 258
385 320 54 24 170 57 235 68 14 2 446 5 962 6 l936 1 26 -31z m941 6 c17 -16
25 -35 25 -60 0 -25 -8 -44 -25 -60 l-24 -25 -266 0 -267 0 -29 29 c-36 36
-37 70 -3 110 l26 31 269 0 270 0 24 -25z m-1370 -1549 c-16 -13 -34 -22 -39
-19 -5 4 -6 1 -3 -4 4 -6 -8 -22 -26 -36 -35 -28 -90 -76 -122 -107 -23 -22
-35 -25 -35 -9 0 5 4 8 9 4 14 -8 21 9 11 25 -6 10 -3 22 8 35 16 19 16 20 -3
2 -11 -10 -20 -25 -20 -35 0 -26 -40 -27 -64 -1 -18 19 -24 21 -61 11 -41 -10
-80 -6 -80 8 0 5 -12 13 -27 18 -27 10 -26 10 14 11 25 1 43 -4 46 -11 3 -10
7 -10 17 -2 9 9 5 13 -18 19 -33 7 -82 47 -82 66 0 8 -24 10 -80 7 -44 -2 -80
0 -80 4 0 5 18 8 40 8 53 0 51 18 -2 23 -24 2 108 4 292 5 l335 2 -30 -24z
m-555 -46 c0 -5 -4 -10 -10 -10 -5 0 -10 5 -10 10 0 6 5 10 10 10 6 0 10 -4
10 -10z m240 -125 c0 -8 -4 -15 -9 -15 -13 0 -22 16 -14 24 11 11 23 6 23 -9z
m79 -19 c8 -9 8 -16 2 -20 -5 -4 -13 -2 -16 4 -4 6 -15 8 -26 5 -10 -4 -19 -2
-19 4 0 8 14 15 41 20 4 0 12 -5 18 -13z m5579 -6851 c-3 -3 -9 2 -12 12 -6
14 -5 15 5 6 7 -7 10 -15 7 -18z"/>
<path d="M33749 61538 c0 -2 -2 -11 -4 -21 -3 -15 -1 -16 11 -6 7 6 11 15 8
20 -5 9 -13 12 -15 7z"/>
<path d="M47660 62535 l0 -455 268 2 267 3 0 450 0 450 -122 3 -123 3 0 -101
0 -100 -100 0 -99 0 -3 98 -3 97 -42 3 -43 3 0 -456z"/>
<path d="M48855 62978 c-3 -7 -4 -211 -3 -453 l3 -440 265 0 265 0 3 453 2
453 -57 -3 -58 -3 3 -65 c1 -36 0 -80 -3 -97 l-6 -33 -99 0 -99 0 -3 98 -3 97
-103 3 c-76 2 -104 -1 -107 -10z"/>
<path d="M49910 62535 l0 -455 265 0 265 0 0 455 0 455 -35 0 -35 0 0 -105 0
-106 -102 3 -103 3 -3 103 -3 102 -124 0 -125 0 0 -455z"/>
<path d="M51100 62535 l0 -455 265 0 265 0 0 455 0 455 -60 0 -59 0 -3 -102
-3 -103 -105 0 -105 0 -3 103 -3 102 -94 0 -95 0 0 -455z"/>
<path d="M52152 62538 l3 -453 265 0 265 0 0 145 c0 80 -1 283 -2 453 l-3 307
-65 0 -65 0 0 -105 0 -106 -102 3 -103 3 -3 103 -3 102 -94 0 -95 0 2 -452z"/>
<path d="M53350 62540 l0 -450 265 0 265 0 0 450 0 450 -100 0 -100 0 0 -105
0 -105 -105 0 -105 0 0 105 0 105 -60 0 -60 0 0 -450z"/>
<path d="M54400 62540 l0 -450 265 0 265 0 0 450 0 450 -75 0 -75 0 0 -105 0
-105 -105 0 -105 0 0 105 0 105 -85 0 -85 0 0 -450z"/>
<path d="M55590 62540 l0 -450 265 0 265 0 0 450 0 450 -55 0 -54 0 -3 -102
-3 -103 -102 -3 -102 -3 -3 103 -3 103 -102 3 -103 3 0 -451z"/>
<path d="M56647 62983 c-4 -3 -7 -206 -7 -450 l0 -443 265 0 265 0 0 450 0
450 -50 0 -49 0 -3 -97 -3 -98 -107 -3 -108 -3 0 101 0 100 -98 0 c-54 0 -102
-3 -105 -7z"/>
<path d="M57840 62540 l0 -450 265 0 265 0 -2 448 -3 447 -97 3 -97 3 -3 -98
-3 -98 -107 -3 -108 -3 0 101 0 100 -55 0 -55 0 0 -450z"/>
<path d="M58890 62540 l0 -450 265 0 265 0 0 450 c0 393 -2 450 -15 450 -12 0
-15 -18 -15 -100 l0 -100 -105 0 -105 0 0 100 0 100 -145 0 -145 0 0 -450z"/>
<path d="M60080 62540 l0 -450 265 0 265 0 0 450 0 450 -135 0 -135 0 0 -110
0 -110 -105 0 -105 0 0 110 0 110 -25 0 -25 0 0 -450z"/>
<path d="M21070 60976 c-449 -141 -866 -369 -1240 -679 -129 -107 -363 -347
-475 -487 -428 -534 -668 -1097 -772 -1810 -16 -107 -18 -554 -23 -6130 l-5
-6015 -26 80 c-509 1550 -1041 3469 -1438 5189 -56 241 -110 455 -120 475 -37
72 -106 122 -188 136 -96 16 -214 -51 -255 -143 -47 -105 -399 -1784 -602
-2867 -337 -1801 -635 -3823 -776 -5260 -6 -60 -13 -126 -15 -145 -6 -46 -51
-509 -65 -670 -11 -123 -15 -171 -44 -520 -8 -96 -18 -213 -21 -260 -3 -47 -8
-110 -10 -140 -2 -30 -7 -93 -10 -140 -3 -47 -8 -110 -10 -140 -2 -30 -7 -102
-10 -160 -3 -58 -8 -125 -10 -150 -2 -25 -7 -94 -10 -155 -3 -60 -8 -144 -10
-185 -5 -67 -12 -230 -30 -625 -22 -482 -44 -1409 -48 -2033 l-2 -294 -107
284 c-711 1877 -1349 3942 -1893 6130 -68 273 -130 509 -138 525 -22 40 -76
89 -119 107 -46 20 -138 21 -182 2 -51 -21 -102 -72 -124 -124 -31 -71 -225
-986 -386 -1817 -572 -2952 -922 -5749 -1041 -8335 -36 -786 -40 -992 -40
-2040 0 -1055 4 -1264 41 -1980 229 -4543 1250 -8393 3062 -11550 1166 -2032
2691 -3774 4461 -5095 l171 -127 0 -400 c0 -421 6 -519 45 -715 50 -250 173
-548 312 -758 308 -465 765 -793 1294 -929 225 -58 337 -70 639 -68 194 1
7522 131 8678 154 139 3 143 2 137 -17 -14 -53 -66 -357 -82 -486 -24 -200
-24 -631 0 -774 30 -174 93 -258 214 -283 344 -74 969 -84 1653 -26 353 30
575 60 620 85 50 29 86 80 100 144 12 59 -5 138 -65 300 -124 331 -327 623
-661 950 l-144 141 1023 17 c562 10 1108 20 1214 24 l192 6 -20 -69 c-97 -333
-150 -700 -164 -1134 -10 -287 5 -355 80 -385 23 -9 422 -9 1810 0 1974 13
1820 7 1864 78 32 52 37 107 14 158 -61 135 -473 576 -732 782 -252 201 -546
387 -834 528 l-138 67 93 6 c51 3 4366 82 9588 176 5222 93 9590 174 9706 178
l210 7 -23 129 c-13 71 -22 130 -21 131 2 2 37 -3 78 -10 285 -50 654 -45 871
11 87 22 83 27 77 -90 l-6 -104 92 25 c123 33 295 101 424 168 744 381 1230
1141 1259 1970 3 96 -1 280 -11 460 -52 962 -416 8174 -414 8195 2 16 64 -102
197 -375 1187 -2443 2441 -5255 3995 -8960 l214 -510 133 2 c305 6 750 80
1017 169 89 29 238 103 280 139 l31 26 -20 72 c-99 359 -546 1885 -821 2802
-931 3104 -1867 5973 -2681 8220 -879 2424 -1618 4141 -2244 5213 -47 81 -87
149 -89 151 -2 2 -32 -15 -66 -39 l-63 -43 30 34 c16 19 46 52 66 74 20 22 43
61 52 87 l16 47 -102 -85 c-234 -197 -466 -315 -727 -371 -118 -25 -389 -25
-514 0 -324 65 -653 243 -980 531 l-78 69 -232 -67 c-127 -36 -244 -66 -261
-66 -37 0 -104 30 -128 57 -10 12 -35 66 -57 122 -21 55 -102 224 -180 373
-79 150 -246 471 -373 713 -126 242 -255 490 -287 550 -32 61 -333 637 -669
1282 -552 1059 -611 1177 -611 1219 0 56 23 108 60 134 15 11 113 42 216 70
104 28 196 53 205 56 15 4 13 16 -17 103 -30 87 -33 105 -25 142 11 47 34 83
72 111 13 10 130 43 264 75 132 31 241 57 242 58 1 0 -5 28 -13 60 -30 115 5
220 89 269 45 26 -47 11 2002 322 380 57 702 107 718 110 27 6 29 2 78 -102
250 -534 464 -1123 614 -1694 49 -182 58 -208 85 -232 21 -19 41 -28 64 -28
l34 0 -15 56 c-8 31 -13 57 -11 59 9 7 228 57 328 75 652 113 1213 -13 1622
-365 91 -78 81 -91 103 135 119 1232 -67 2453 -567 3705 -71 177 -193 455
-253 575 -23 47 -73 177 -110 290 -125 380 -291 759 -467 1070 -268 474 -641
929 -995 1217 -40 32 -74 67 -77 78 -4 17 -517 10064 -516 10117 0 17 150 18
2903 20 l2902 3 63 34 c70 38 120 90 154 160 l23 46 3 809 2 810 -30 -61 c-36
-73 -92 -125 -169 -162 l-56 -26 -7430 0 -7430 0 -55 26 c-97 45 -160 113
-194 210 -14 40 -15 -22 -13 -776 l2 -820 28 -56 c32 -67 109 -142 175 -172
l47 -22 3478 -3 c3299 -2 3477 -3 3477 -20 1 -9 115 -2150 254 -4757 139
-2607 251 -4742 249 -4744 -1 -2 -92 3 -200 13 -221 19 -456 35 -461 31 -2 -2
9 -22 24 -45 39 -58 39 -131 2 -187 -60 -91 -378 -236 -661 -303 -243 -56
-455 -74 -815 -67 -277 5 -403 15 -637 53 -191 31 -269 94 -348 281 -41 97
-48 108 -69 105 -70 -9 -321 -59 -518 -104 -186 -42 -599 -151 -605 -160 -46
-78 -628 -738 -915 -1039 -500 -524 -1039 -1044 -1509 -1456 -827 -727 -1759
-1408 -2532 -1852 l-127 -72 18 -82 c74 -336 188 -720 312 -1057 55 -149 192
-473 213 -506 l14 -22 108 19 c1718 304 3194 960 4368 1943 74 62 91 72 97 58
3 -9 34 -105 68 -212 98 -309 192 -571 507 -1420 1003 -2702 1316 -3593 1617
-4591 112 -373 191 -658 285 -1030 58 -228 181 -749 181 -765 0 -2 -7 -4 -15
-4 -8 0 -15 -3 -15 -6 0 -4 40 -167 90 -363 873 -3475 1537 -8273 1775 -12816
8 -159 18 -344 21 -410 l6 -120 -58 -51 c-167 -144 -356 -234 -554 -263 -146
-21 -3475 -206 -5975 -331 -4014 -200 -8232 -369 -11360 -455 -104 -3 -262 -7
-350 -10 -88 -3 -252 -7 -365 -10 -113 -3 -374 -10 -580 -15 -206 -5 -445 -10
-530 -12 l-155 -3 -13 140 c-70 766 -270 2813 -297 3055 -3 25 -8 65 -10 90
-19 182 -48 458 -60 575 -8 77 -24 228 -35 335 -11 107 -22 211 -25 230 -2 19
-7 64 -10 100 -3 36 -10 99 -15 140 -10 85 -19 163 -55 505 -26 241 -73 670
-81 735 -2 19 -13 118 -24 220 -49 433 -60 537 -65 570 -2 19 -11 98 -20 175
-9 77 -18 158 -20 180 -4 34 -23 195 -76 655 -11 94 -72 617 -119 1010 -17
140 -71 579 -120 975 -49 396 -103 833 -120 970 -109 892 -474 3632 -485 3643
-2 2 -91 -26 -198 -62 -576 -194 -1110 -306 -1702 -358 -221 -19 -804 -16
-1030 6 -436 41 -859 120 -1265 237 -150 43 -410 129 -443 146 -16 8 -30 13
-32 11 -3 -3 -65 -490 -105 -823 -43 -357 -43 -370 -36 -1150 4 -412 9 -815
11 -895 18 -555 27 -818 40 -1120 17 -379 49 -995 65 -1245 6 -88 24 -367 41
-620 148 -2289 452 -5292 819 -8093 27 -211 50 -389 50 -395 0 -24 -2651 12
-3825 53 -1421 50 -2943 155 -3173 220 -244 68 -455 261 -552 503 -63 157 -58
-70 -80 3807 -11 1950 -23 3822 -26 4160 -4 506 -91 15176 -96 16250 -1 179
-3 317 -5 307 -4 -14 -8 -16 -19 -6 -12 10 -14 2 -14 -49 0 -35 -5 -64 -12
-68 -8 -5 -9 15 -5 80 l7 87 -29 10 c-16 6 -32 17 -35 25 -9 23 -26 16 -26
-11 0 -22 -4 -25 -40 -25 l-40 0 0 40 c0 22 5 40 11 40 5 0 7 5 4 10 -9 14
-72 12 -78 -2 -2 -8 -8 -9 -13 -4 -5 5 -4 11 4 13 6 3 12 17 12 33 0 23 -6 30
-34 40 -19 6 -37 17 -40 25 -9 24 -26 17 -26 -10 0 -22 -4 -25 -40 -25 l-40 0
0 40 c0 29 4 40 15 40 22 0 18 18 -4 25 -15 4 -21 19 -26 58 -10 84 -133
21366 -123 21448 11 101 50 233 95 327 21 42 40 80 41 85 6 12 -19 7 -128 -27z
m-4112 -13339 c6 -7 22 -102 36 -212 14 -110 42 -308 62 -440 19 -132 40 -267
44 -300 5 -33 23 -145 40 -250 16 -104 50 -320 75 -480 53 -340 112 -683 226
-1325 96 -540 231 -1264 363 -1945 189 -971 453 -2221 653 -3085 l98 -425 3
-570 c1 -313 0 -567 -2 -564 -12 11 -255 1098 -386 1724 -510 2430 -945 4957
-1185 6880 -19 154 -37 299 -40 322 -8 62 -52 485 -60 576 -5 55 -4 81 5 92
15 18 54 20 68 2z m-4221 -6559 c6 -7 22 -101 38 -208 179 -1274 666 -3820
1110 -5800 566 -2524 1273 -5191 1941 -7330 228 -729 655 -2019 884 -2675 508
-1452 1117 -2997 1701 -4313 l139 -312 -1 -258 -1 -257 -49 100 c-88 179 -349
743 -451 974 -1081 2440 -2046 5136 -2868 8011 -692 2421 -1184 4454 -1685
6955 -337 1681 -628 3415 -785 4675 -40 323 -47 415 -30 435 15 18 44 20 57 3z
m8483 -2273 c-12 -15 -30 -12 -30 6 0 5 10 9 21 9 18 0 19 -2 9 -15z m73 -66
c5 -4 5 -9 -2 -13 -6 -4 -11 -2 -11 3 0 6 -7 11 -16 11 -14 0 -14 2 -3 16 11
13 14 13 18 3 2 -8 8 -17 14 -20z m82 -87 c-6 -7 -34 11 -29 19 3 5 11 3 19
-4 7 -6 12 -13 10 -15z m260 -29 c0 -15 -7 -27 -16 -28 -20 -3 -18 33 2 46 8
5 14 9 15 9 0 0 0 -12 -1 -27z m-195 7 c0 -5 -4 -10 -10 -10 -5 0 -10 5 -10
10 0 6 5 10 10 10 6 0 10 -4 10 -10z m160 -96 c0 -14 -3 -14 -15 -4 -8 7 -15
14 -15 16 0 2 7 4 15 4 8 0 15 -7 15 -16z m9440 -15015 c226 -864 855 -3546
1415 -6034 364 -1619 865 -3915 865 -3969 0 -11 -37 -14 -207 -15 -115 0 -338
-3 -498 -7 -461 -9 -2019 -22 -2027 -17 -11 6 -10 1279 2 1913 38 2088 143
4461 320 7255 61 969 69 1079 76 1072 2 -2 27 -91 54 -198z m3688 -11505 c12
-192 21 -390 20 -441 -3 -84 -6 -95 -33 -135 -40 -56 -90 -83 -194 -103 -93
-18 -396 -32 -455 -21 -45 9 -101 57 -115 99 -6 18 -42 203 -81 412 -39 209
-73 392 -76 408 l-6 27 94 0 c174 0 522 43 723 89 44 10 85 18 90 16 6 -1 19
-145 33 -351z m-4997 220 c62 -22 388 -36 570 -24 89 6 163 9 165 7 2 -2 31
-170 64 -372 53 -322 59 -376 50 -418 -14 -67 -33 -99 -80 -140 -63 -53 -108
-62 -325 -62 -162 0 -195 3 -222 18 -38 20 -69 52 -89 89 -8 15 -52 213 -100
440 -47 227 -89 430 -94 451 -7 34 -6 38 8 31 10 -4 33 -13 53 -20z"/>
<path d="M46240 60334 c-605 -41 -1148 -212 -1628 -513 -361 -226 -702 -547
-937 -881 -349 -498 -543 -1007 -617 -1620 -17 -146 -17 -562 0 -583 8 -10 9
-17 3 -21 -15 -10 -1 -38 16 -32 8 3 11 1 8 -4 -3 -6 1 -10 10 -10 10 0 13 5
9 12 -4 7 -3 8 4 4 6 -4 9 -13 5 -21 -3 -8 -1 -15 5 -15 6 0 17 -3 26 -6 12
-4 16 0 16 16 0 13 -4 19 -12 14 -7 -5 -8 -3 -3 6 4 7 7 119 6 249 -1 130 3
288 9 351 115 1164 850 2189 1910 2660 590 263 1234 347 1860 244 678 -112
1325 -451 1807 -946 243 -251 420 -500 575 -809 449 -899 460 -1953 28 -2855
-167 -350 -360 -623 -635 -900 -147 -148 -353 -324 -448 -383 -28 -17 -37 -29
-34 -42 3 -10 -1 -23 -9 -30 -8 -6 -14 -17 -13 -23 0 -8 2 -7 5 1 3 6 16 9 30
7 22 -4 24 -2 14 15 -7 14 -7 22 0 26 6 4 10 3 9 -2 -4 -22 2 -34 14 -27 9 6
9 4 -1 -8 -30 -37 10 -23 84 29 505 361 906 862 1143 1428 23 55 48 114 56
130 7 17 33 93 58 171 259 809 190 1724 -189 2476 -196 390 -376 641 -670 930
-548 538 -1238 865 -2004 947 -105 12 -424 21 -510 15z"/>
<path d="M32358 57788 c6 -6 8 -18 5 -27 -4 -14 -3 -14 5 -1 18 27 17 33 -2
36 -13 2 -15 -1 -8 -8z"/>
<path d="M32383 57745 c0 -8 4 -12 9 -9 5 3 6 10 3 15 -9 13 -12 11 -12 -6z"/>
<path d="M52263 57692 l-533 -2 0 -800 0 -800 800 0 800 0 0 805 0 806 -267
-3 c-148 -2 -508 -4 -800 -6z"/>
<path d="M43060 56660 c0 -5 5 -10 10 -10 6 0 10 5 10 10 0 6 -4 10 -10 10 -5
0 -10 -4 -10 -10z"/>
<path d="M43110 56636 c0 -2 7 -7 16 -10 8 -3 12 -2 9 4 -6 10 -25 14 -25 6z"/>
<path d="M43069 56603 c-13 -16 -12 -17 4 -4 16 13 21 21 13 21 -2 0 -10 -8
-17 -17z"/>
<path d="M30227 55905 c-1030 -130 -1866 -843 -2152 -1835 -68 -234 -88 -382
-91 -667 -3 -180 0 -254 8 -259 7 -5 8 -3 3 6 -5 9 -4 11 4 6 9 -6 9 -11 1
-21 -8 -9 -6 -14 5 -19 10 -4 14 -2 9 5 -4 7 1 9 12 7 11 -2 18 -11 18 -20 -1
-9 4 -19 11 -22 10 -3 12 2 8 22 -4 15 -6 126 -6 247 0 254 20 412 78 634 170
640 581 1182 1150 1516 275 162 609 276 940 320 160 22 461 22 620 0 445 -60
829 -217 1185 -484 821 -616 1174 -1688 884 -2683 -147 -504 -488 -989 -914
-1302 -36 -27 -65 -52 -65 -56 0 -5 -4 -12 -9 -17 -5 -5 -6 -2 -1 6 5 9 3 12
-6 9 -8 -3 -15 -10 -15 -16 -3 -25 -5 -27 -15 -12 -9 13 -10 13 -6 0 2 -8 10
-14 16 -13 6 2 11 -2 11 -8 0 -5 5 -7 11 -3 8 4 7 9 -2 16 -11 7 -11 8 1 6 8
-1 26 4 39 11 13 7 21 8 17 3 -3 -6 0 -13 6 -16 7 -3 3 -3 -8 -1 -21 5 -42
-19 -26 -29 21 -13 317 229 437 355 385 409 618 897 691 1449 22 168 22 474 0
640 -77 575 -328 1091 -726 1490 -378 381 -859 628 -1404 721 -157 27 -555 35
-719 14z"/>
<path d="M48194 54243 c-4 -13 -11 -23 -16 -23 -5 0 -6 5 -2 12 4 7 3 8 -4 4
-16 -9 -15 -23 1 -28 19 -8 48 25 36 42 -7 12 -10 11 -15 -7z"/>
<path d="M48226 54191 c-3 -5 1 -12 10 -15 22 -8 25 -4 9 11 -8 7 -16 9 -19 4z"/>
<path d="M42269 53986 c-2 -2 -71 -6 -154 -10 -450 -19 -919 -117 -1376 -287
-1413 -528 -2482 -1734 -2839 -3204 -92 -376 -123 -646 -124 -1055 -1 -293 4
-367 24 -355 5 3 11 1 15 -4 3 -6 -3 -8 -15 -6 -23 4 -27 -14 -7 -34 10 -11 9
-12 -1 -7 -10 6 -11 1 -6 -21 8 -35 25 -55 18 -22 -2 13 -1 18 2 11 5 -10 9
-10 20 -1 17 14 19 -2 2 -20 -11 -11 -9 -11 9 0 19 11 25 11 41 -4 10 -9 26
-17 35 -17 11 0 15 -7 12 -20 -2 -11 0 -18 5 -15 5 3 7 15 4 28 -23 112 -23
653 0 880 95 924 462 1778 1069 2483 128 148 406 418 552 536 687 552 1474
877 2365 975 214 23 667 23 878 0 993 -111 1858 -503 2588 -1174 622 -573
1081 -1357 1285 -2199 244 -1007 131 -2063 -321 -2989 -204 -417 -481 -816
-793 -1141 -184 -191 -441 -414 -630 -545 -42 -29 -76 -58 -73 -64 2 -6 -6
-11 -17 -11 -12 1 -22 -4 -22 -11 0 -6 -4 -15 -9 -20 -5 -5 -6 -3 -2 5 9 15
-10 16 -20 1 -3 -6 0 -15 7 -20 8 -5 9 -9 4 -9 -6 0 -16 5 -21 10 -7 7 -11 6
-11 -4 0 -8 4 -13 9 -10 4 3 8 0 8 -6 0 -6 4 -9 9 -6 5 3 14 -1 21 -9 7 -8 17
-12 22 -9 5 3 19 -3 31 -15 l22 -20 107 72 c374 253 762 630 1057 1027 550
741 877 1688 895 2595 16 775 -150 1518 -490 2196 -568 1136 -1602 1992 -2829
2344 -246 71 -554 133 -745 150 -41 4 -77 8 -80 10 -13 7 -524 27 -531 21z
m2594 -8357 c-14 -13 -46 -14 -50 -2 -3 7 7 11 27 11 17 -1 27 -5 23 -9z m12
-19 c-9 -14 19 -12 33 2 9 9 12 9 12 1 0 -14 -36 -27 -50 -18 -10 6 -5 25 6
25 3 0 2 -4 -1 -10z"/>
<path d="M63313 49309 c-445 -57 -865 -415 -1176 -999 -288 -542 -458 -1260
-418 -1763 33 -402 150 -697 360 -908 199 -199 435 -290 719 -276 560 26 1072
524 1405 1367 276 697 349 1385 198 1848 -42 128 -118 271 -196 369 -204 259
-565 405 -892 362z m182 -704 c255 -76 346 -397 259 -907 -58 -335 -212 -807
-357 -1093 -194 -381 -403 -568 -616 -553 -82 6 -146 34 -205 88 -120 111
-168 262 -167 535 0 230 40 456 133 764 191 634 474 1075 745 1161 71 23 144
25 208 5z"/>
<path d="M66243 48236 c-1749 -2086 -4591 -5491 -4587 -5495 3 -4 114 -40 247
-82 223 -71 243 -75 258 -60 9 9 925 1103 2035 2431 1110 1328 2173 2599 2361
2825 189 225 339 412 335 416 -5 5 -349 116 -463 149 -24 7 -37 -5 -186 -184z"/>
<path d="M59370 46620 l0 -580 -395 0 -395 0 0 -325 0 -325 395 0 395 0 0
-575 0 -575 310 0 310 0 0 575 0 575 395 0 395 0 0 325 0 325 -395 0 -395 0 0
580 0 580 -310 0 -310 0 0 -580z"/>
<path d="M34930 46320 c-10 -10 -28 -37 -39 -58 -31 -62 -85 -64 -113 -4 -10
21 -21 28 -50 30 -33 3 -39 -1 -69 -44 -168 -244 -557 -431 -1109 -534 -1032
-191 -1627 -630 -1676 -1236 -10 -123 -34 -145 -114 -104 -77 39 -194 23 -285
-40 -144 -99 -203 -231 -192 -430 7 -134 33 -224 106 -375 86 -175 162 -277
343 -457 107 -107 158 -165 158 -179 0 -14 -22 -42 -59 -75 -174 -158 -88
-311 272 -485 242 -116 465 -173 682 -172 146 1 181 10 191 49 9 37 -32 226
-52 239 -8 6 -43 28 -77 49 -156 100 -350 336 -419 511 -27 69 -32 93 -32 175
-1 107 13 149 71 206 106 106 250 109 362 8 84 -76 191 -254 247 -411 10 -29
25 -53 32 -53 28 0 92 42 107 70 24 46 19 69 -39 191 -107 226 -163 432 -153
562 7 77 42 152 88 186 45 33 107 55 559 191 626 189 894 287 1170 425 336
168 512 326 596 535 54 133 67 205 67 365 0 187 -25 295 -107 460 -92 184
-212 317 -355 393 -69 37 -84 39 -111 12z"/>
<path d="M51758 46169 c-79 -11 -201 -54 -275 -95 -234 -130 -452 -405 -533
-672 -18 -59 -22 -90 -18 -162 4 -77 9 -98 42 -165 124 -251 493 -466 936
-545 130 -24 188 -47 277 -113 107 -80 221 -238 292 -407 38 -88 47 -142 33
-193 -6 -20 -177 -315 -382 -656 -408 -681 -411 -686 -549 -755 -89 -45 -167
-61 -232 -47 -109 24 -142 54 -323 295 -207 276 -329 400 -461 471 -88 46
-200 28 -273 -44 -70 -70 -363 -725 -496 -1109 -65 -189 -61 -260 22 -345 28
-29 66 -49 162 -86 425 -166 817 -283 1159 -346 157 -29 182 -30 243 -10 60
21 87 51 288 325 210 285 458 611 594 780 61 77 122 166 157 232 79 148 149
246 229 321 111 105 188 131 317 104 138 -30 248 -103 305 -204 29 -51 32 -53
72 -53 56 0 125 36 213 109 121 102 184 223 185 355 1 103 -19 177 -80 296
-62 120 -70 172 -35 250 20 45 44 70 147 149 133 101 206 239 206 391 0 89
-21 168 -75 275 -56 113 -127 201 -208 258 -153 109 -233 131 -487 132 -184 0
-186 1 -232 28 -49 28 -91 75 -102 114 -11 34 -62 71 -121 88 -72 21 -128 64
-154 118 -21 43 -22 54 -15 204 7 178 -2 236 -55 342 -90 178 -328 332 -571
371 -74 11 -120 11 -202 -1z"/>
<path d="M65668 45675 c-555 -93 -1067 -666 -1361 -1521 -140 -406 -200 -734
-201 -1089 0 -294 36 -493 128 -710 211 -500 701 -742 1191 -588 209 66 373
170 561 357 235 235 405 500 564 874 222 526 338 1102 310 1532 -39 583 -290
960 -736 1109 -151 50 -301 62 -456 36z m237 -716 c110 -41 201 -154 241 -299
29 -102 26 -412 -5 -585 -65 -368 -219 -836 -372 -1136 -200 -390 -442 -578
-665 -515 -150 43 -243 158 -290 361 -28 117 -25 393 5 570 69 410 248 912
432 1207 210 339 439 478 654 397z"/>
<path d="M43320 28129 c-221 -27 -418 -109 -618 -257 -88 -65 -250 -233 -334
-346 -323 -433 -628 -1233 -817 -2146 -98 -477 -183 -1094 -266 -1930 -13
-140 -27 -271 -29 -290 -3 -19 -8 -75 -11 -125 -3 -49 -8 -106 -10 -125 -2
-19 -6 -71 -10 -115 -3 -44 -8 -102 -10 -130 -7 -76 -33 -475 -40 -605 -3 -63
-8 -137 -10 -165 -2 -27 -9 -165 -15 -305 -5 -140 -13 -302 -16 -360 -3 -58
-7 -534 -9 -1058 l-4 -953 -113 -127 c-272 -305 -846 -929 -1233 -1340 l-78
-83 74 -75 c40 -41 76 -73 79 -72 16 7 793 845 1109 1196 96 106 175 191 176
190 2 -2 8 -86 14 -188 46 -720 132 -1229 286 -1694 173 -522 406 -921 735
-1259 279 -288 514 -417 758 -417 208 0 390 89 583 284 101 102 190 217 361
471 525 776 961 1594 1304 2443 83 206 93 220 94 122 0 -64 40 -313 70 -437
183 -761 705 -1140 1269 -923 163 63 371 220 527 397 135 154 249 317 684 979
l425 647 6 -144 c15 -338 99 -559 271 -713 155 -138 384 -196 597 -151 157 33
283 88 591 260 290 162 448 229 571 242 l57 6 -6 -199 c-7 -293 18 -445 105
-624 125 -260 390 -389 658 -320 165 42 274 114 550 365 235 213 359 302 473
335 23 7 42 17 42 22 0 19 -43 184 -50 192 -12 12 -103 -20 -190 -66 -130 -69
-228 -146 -477 -376 -124 -115 -224 -188 -313 -231 -71 -34 -81 -36 -175 -36
-107 0 -143 12 -222 73 -74 56 -143 199 -175 362 -20 108 -15 432 10 575 12
65 20 120 19 121 -1 1 -47 8 -102 14 -150 18 -308 -4 -467 -63 -81 -31 -276
-129 -423 -212 -418 -237 -599 -284 -805 -206 -240 90 -360 399 -321 821 16
175 41 305 121 650 39 166 70 306 70 313 0 6 -49 -62 -108 -153 -60 -91 -171
-259 -247 -375 -76 -115 -176 -268 -223 -340 -47 -71 -175 -267 -285 -435
-437 -666 -649 -980 -730 -1080 -179 -222 -387 -394 -547 -454 -273 -101 -541
-16 -727 232 -212 281 -324 719 -325 1268 0 269 12 364 72 554 102 325 245
848 234 859 -10 10 -188 69 -195 65 -11 -7 -94 -210 -138 -337 -51 -149 -114
-401 -145 -582 -68 -398 -536 -1515 -957 -2283 -245 -446 -609 -1027 -823
-1312 -232 -311 -443 -438 -664 -400 -349 59 -834 597 -1100 1220 -231 540
-358 1219 -402 2139 -8 169 -8 217 2 230 7 9 79 92 159 186 1330 1553 2147
2893 2621 4295 225 668 355 1294 409 1970 16 200 16 742 1 935 -41 496 -102
788 -216 1027 -118 248 -311 432 -536 510 -132 46 -325 65 -470 47z m333 -228
c343 -89 550 -409 631 -976 49 -338 69 -857 47 -1210 -53 -857 -259 -1719
-616 -2575 -471 -1132 -1141 -2186 -2184 -3438 l-186 -224 -6 44 c-3 24 -6
228 -7 453 -3 589 19 1417 53 2025 10 165 45 696 50 740 3 25 9 104 15 175 6
72 13 153 15 180 3 28 9 104 15 170 18 215 90 879 105 963 2 15 11 83 20 152
137 1072 362 1930 680 2585 283 583 617 886 1051 955 83 13 225 4 317 -19z"/>
<path d="M63352 12163 c22 -79 -15 -196 -84 -265 -103 -103 -419 -206 -603
-196 -140 8 -213 66 -260 207 -14 44 -30 83 -34 86 -12 7 -67 -121 -80 -183
-27 -129 -12 -246 75 -593 144 -578 348 -1065 590 -1416 79 -114 156 -183 259
-234 126 -61 176 -71 384 -77 211 -5 322 6 489 48 283 72 432 207 440 400 3
66 -3 98 -47 260 -300 1081 -676 1774 -1073 1976 -64 32 -68 31 -56 -13z"/>
<path d="M54920 11071 c-492 -165 -789 -283 -1155 -460 -528 -256 -899 -520
-1090 -776 -90 -120 -104 -169 -65 -232 42 -69 35 -68 570 -93 361 -18 1843
-24 2292 -11 582 18 952 38 990 54 46 20 84 61 104 113 15 38 16 68 11 212
-10 259 -49 467 -133 714 -66 192 -171 414 -259 546 l-22 32 -6 -55 c-7 -65
-49 -148 -92 -181 -60 -45 -104 -57 -235 -62 -195 -7 -364 32 -446 102 -45 38
-89 113 -99 169 -5 25 -13 37 -24 37 -9 0 -162 -49 -341 -109z"/>
</g>
</svg>
