<?xml version="1.0" standalone="no"?>
<!DOCTYPE svg PUBLIC "-//W3C//DTD SVG 20010904//EN"
 "http://www.w3.org/TR/2001/REC-SVG-20010904/DTD/svg10.dtd">
<svg version="1.0" xmlns="http://www.w3.org/2000/svg"
 width="5392.000000pt" height="5000.000000pt" viewBox="0 0 5392.000000 5000.000000"
 preserveAspectRatio="xMidYMid meet">

<g transform="translate(0.000000,5000.000000) scale(0.100000,-0.100000)"
fill="#000000" stroke="none">
<path d="M17347 36315 c-294 -37 -588 -132 -770 -248 l-56 -36 -30 42 c-38 55
-113 131 -167 168 -97 66 -195 77 -285 32 -84 -43 -91 -97 -22 -174 40 -44 99
-88 177 -131 46 -24 48 -27 25 -32 -13 -3 -58 -12 -99 -21 -174 -36 -311 -140
-298 -227 5 -39 60 -60 151 -56 42 2 77 2 77 1 0 -1 -15 -10 -32 -19 -135 -68
-255 -223 -328 -422 -109 -299 -89 -808 57 -1415 l35 -148 41 5 c66 8 192 -19
273 -58 114 -54 214 -129 317 -235 l93 -97 1 140 c2 228 58 505 175 866 52
160 160 455 184 502 l14 26 193 -83 c338 -145 661 -259 842 -296 33 -7 95 -12
137 -13 68 -1 79 2 103 24 22 20 26 31 22 60 -3 19 -8 42 -12 51 -5 13 14 9
92 -18 335 -117 680 -195 926 -209 l117 -7 25 -81 c29 -97 51 -214 61 -319 4
-42 10 -77 14 -77 8 0 19 177 21 335 2 156 5 165 58 183 56 19 126 88 140 138
20 70 14 124 -25 260 -5 19 0 22 48 27 71 9 167 58 196 100 28 42 30 126 3
196 -29 76 -116 194 -233 317 l-108 111 43 7 c23 4 61 16 85 27 121 59 78 172
-116 312 -320 231 -811 403 -1377 483 -155 22 -644 28 -788 9z"/>
<path d="M43525 35699 c-3 -4 2 -6 10 -5 21 3 28 13 10 13 -9 0 -18 -4 -20 -8z"/>
<path d="M42676 35608 c3 -5 10 -6 15 -3 13 9 11 12 -6 12 -8 0 -12 -4 -9 -9z"/>
<path d="M42455 35581 c-3 -5 -2 -12 3 -15 5 -3 9 1 9 9 0 17 -3 19 -12 6z"/>
<path d="M43985 35530 c-3 -6 1 -7 9 -4 18 7 21 14 7 14 -6 0 -13 -4 -16 -10z"/>
<path d="M40276 35492 c-3 -5 1 -9 9 -9 8 0 12 4 9 9 -3 4 -7 8 -9 8 -2 0 -6
-4 -9 -8z"/>
<path d="M40690 35436 c0 -2 8 -10 18 -17 15 -13 16 -12 3 4 -13 16 -21 21
-21 13z"/>
<path d="M42109 35398 c-7 -23 -4 -35 7 -35 9 0 11 4 4 12 -5 7 -7 15 -3 18 3
4 3 7 0 7 -4 0 -7 -1 -8 -2z"/>
<path d="M40640 35370 c0 -5 5 -10 11 -10 5 0 7 5 4 10 -3 6 -8 10 -11 10 -2
0 -4 -4 -4 -10z"/>
<path d="M41856 35272 c-3 -5 1 -9 9 -9 8 0 12 4 9 9 -3 4 -7 8 -9 8 -2 0 -6
-4 -9 -8z"/>
<path d="M41145 35249 c-3 -4 2 -6 10 -5 21 3 28 13 10 13 -9 0 -18 -4 -20 -8z"/>
<path d="M38919 35138 c-8 -26 -4 -34 17 -34 23 0 24 11 1 11 -7 1 -11 6 -9
13 2 10 -6 18 -9 10z"/>
<path d="M44696 35128 c3 -5 10 -6 15 -3 13 9 11 12 -6 12 -8 0 -12 -4 -9 -9z"/>
<path d="M38890 35066 c0 -2 8 -10 18 -17 15 -13 16 -12 3 4 -13 16 -21 21
-21 13z"/>
<path d="M44811 35046 c-9 -11 -9 -16 1 -22 7 -4 10 -4 6 1 -4 4 -3 14 3 22 6
7 9 13 6 13 -2 0 -10 -6 -16 -14z"/>
<path d="M41490 35036 c0 -2 8 -10 18 -17 15 -13 16 -12 3 4 -13 16 -21 21
-21 13z"/>
<path d="M41539 35013 c-13 -16 -12 -17 4 -4 16 13 21 21 13 21 -2 0 -10 -8
-17 -17z"/>
<path d="M41440 34970 c0 -5 5 -10 11 -10 5 0 7 5 4 10 -3 6 -8 10 -11 10 -2
0 -4 -4 -4 -10z"/>
<path d="M38695 34911 c-3 -5 -2 -12 3 -15 5 -3 9 1 9 9 0 17 -3 19 -12 6z"/>
<path d="M38586 34808 c3 -5 10 -6 15 -3 13 9 11 12 -6 12 -8 0 -12 -4 -9 -9z"/>
<path d="M45224 34683 c2 -9 11 -17 20 -19 17 -2 17 -2 0 17 -21 23 -23 23
-20 2z"/>
<path d="M45306 34587 c3 -10 9 -15 12 -12 3 3 0 11 -7 18 -10 9 -11 8 -5 -6z"/>
<path d="M45386 34507 c3 -10 9 -15 12 -12 3 3 0 11 -7 18 -10 9 -11 8 -5 -6z"/>
<path d="M45526 34357 c3 -10 9 -15 12 -12 3 3 0 11 -7 18 -10 9 -11 8 -5 -6z"/>
<path d="M39536 34282 c-3 -5 1 -9 9 -9 8 0 12 4 9 9 -3 4 -7 8 -9 8 -2 0 -6
-4 -9 -8z"/>
<path d="M38603 34123 c4 -3 1 -13 -6 -22 -11 -14 -10 -14 5 -2 16 12 16 31 1
31 -4 0 -3 -3 0 -7z"/>
<path d="M18551 34084 c-30 -8 -80 -28 -113 -46 -57 -30 -156 -113 -147 -122
3 -3 54 11 114 31 106 36 115 37 255 37 132 0 152 -2 223 -27 43 -15 105 -41
137 -57 99 -50 101 -36 11 55 -121 123 -313 174 -480 129z"/>
<path d="M38575 34069 c-4 -6 -5 -12 -2 -15 2 -3 7 2 10 11 7 17 1 20 -8 4z"/>
<path d="M42238 34043 c7 -3 16 -2 19 1 4 3 -2 6 -13 5 -11 0 -14 -3 -6 -6z"/>
<path d="M17184 34021 c-110 -31 -207 -102 -270 -195 -18 -28 -32 -52 -30 -54
2 -1 48 22 102 52 114 63 198 92 305 105 111 13 204 2 384 -45 38 -10 -67 76
-129 105 -113 53 -246 65 -362 32z"/>
<path d="M45866 34022 c-3 -5 1 -9 9 -9 8 0 12 4 9 9 -3 4 -7 8 -9 8 -2 0 -6
-4 -9 -8z"/>
<path d="M42523 33985 c0 -8 4 -12 9 -9 5 3 6 10 3 15 -9 13 -12 11 -12 -6z"/>
<path d="M42559 33963 c-13 -16 -12 -17 4 -4 16 13 21 21 13 21 -2 0 -10 -8
-17 -17z"/>
<path d="M39896 33957 c3 -10 9 -15 12 -12 3 3 0 11 -7 18 -10 9 -11 8 -5 -6z"/>
<path d="M38439 33903 c-13 -16 -12 -17 4 -4 16 13 21 21 13 21 -2 0 -10 -8
-17 -17z"/>
<path d="M42761 33907 c-8 -10 -7 -14 2 -14 8 0 14 6 14 14 0 7 -1 13 -2 13
-2 0 -8 -6 -14 -13z"/>
<path d="M40454 33896 c1 -8 5 -18 8 -22 4 -3 5 1 4 10 -1 8 -5 18 -8 22 -4 3
-5 -1 -4 -10z"/>
<path d="M40216 33888 c3 -4 11 -5 19 -1 21 7 19 12 -4 10 -11 0 -18 -5 -15
-9z"/>
<path d="M40530 33896 c0 -2 8 -10 18 -17 15 -13 16 -12 3 4 -13 16 -21 21
-21 13z"/>
<path d="M42860 33832 c0 -5 7 -9 15 -9 8 0 12 4 9 9 -3 4 -9 8 -15 8 -5 0 -9
-4 -9 -8z"/>
<path d="M42025 33821 c-3 -5 -2 -12 3 -15 5 -3 9 1 9 9 0 17 -3 19 -12 6z"/>
<path d="M43023 33785 c0 -8 4 -12 9 -9 5 3 6 10 3 15 -9 13 -12 11 -12 -6z"/>
<path d="M41065 33751 c-3 -5 -2 -12 3 -15 5 -3 9 1 9 9 0 17 -3 19 -12 6z"/>
<path d="M18615 33735 c-157 -56 -117 -285 50 -285 76 0 135 54 143 128 11
114 -88 195 -193 157z"/>
<path d="M17347 33696 c-68 -25 -97 -66 -97 -138 0 -107 116 -182 208 -134 54
28 75 62 79 124 5 72 -19 115 -80 142 -50 23 -60 23 -110 6z"/>
<path d="M46196 33702 c-3 -5 1 -9 9 -9 8 0 12 4 9 9 -3 4 -7 8 -9 8 -2 0 -6
-4 -9 -8z"/>
<path d="M41145 33671 c-3 -5 -2 -12 3 -15 5 -3 9 1 9 9 0 17 -3 19 -12 6z"/>
<path d="M41185 33640 c-4 -6 -12 -7 -18 -4 -7 4 -8 3 -4 -1 13 -15 34 -14 34
1 0 17 -4 18 -12 4z"/>
<path d="M38169 33583 c-13 -16 -12 -17 4 -4 16 13 21 21 13 21 -2 0 -10 -8
-17 -17z"/>
<path d="M43390 33575 c0 -2 6 -8 13 -14 10 -8 14 -7 14 2 0 8 -6 14 -14 14
-7 0 -13 -1 -13 -2z"/>
<path d="M38225 33530 c-3 -5 -1 -10 4 -10 6 0 11 5 11 10 0 6 -2 10 -4 10 -3
0 -8 -4 -11 -10z"/>
<path d="M46376 33528 c3 -5 10 -6 15 -3 13 9 11 12 -6 12 -8 0 -12 -4 -9 -9z"/>
<path d="M43556 33511 c-3 -5 2 -15 12 -22 15 -12 16 -12 5 2 -7 9 -10 19 -6
22 3 4 4 7 0 7 -3 0 -8 -4 -11 -9z"/>
<path d="M42040 33506 c0 -2 7 -7 16 -10 8 -3 12 -2 9 4 -6 10 -25 14 -25 6z"/>
<path d="M41224 33478 c-4 -7 -3 -10 1 -5 5 4 16 0 26 -9 11 -10 19 -12 24 -5
3 6 4 12 1 12 -3 1 -9 2 -13 3 -5 1 -13 5 -20 9 -6 4 -15 2 -19 -5z"/>
<path d="M42035 33289 c-4 -6 -5 -12 -2 -15 2 -3 7 2 10 11 7 17 1 20 -8 4z"/>
<path d="M47046 33222 c-3 -5 1 -9 9 -9 8 0 12 4 9 9 -3 4 -7 8 -9 8 -2 0 -6
-4 -9 -8z"/>
<path d="M41365 33171 c-6 -11 13 -26 22 -17 4 3 1 6 -6 6 -7 0 -9 5 -6 10 3
6 4 10 1 10 -3 0 -7 -4 -11 -9z"/>
<path d="M40506 33152 c-3 -5 1 -9 9 -9 8 0 12 4 9 9 -3 4 -7 8 -9 8 -2 0 -6
-4 -9 -8z"/>
<path d="M40406 33137 c3 -10 9 -15 12 -12 3 3 0 11 -7 18 -10 9 -11 8 -5 -6z"/>
<path d="M41703 32985 c0 -8 4 -12 9 -9 5 3 6 10 3 15 -9 13 -12 11 -12 -6z"/>
<path d="M44204 32969 c-3 -6 -2 -15 3 -20 5 -5 9 -1 9 11 0 23 -2 24 -12 9z"/>
<path d="M41613 32945 c0 -8 4 -12 9 -9 5 3 6 10 3 15 -9 13 -12 11 -12 -6z"/>
<path d="M38855 32876 c-114 -52 -127 -213 -23 -288 45 -31 143 -33 184 -2 54
40 69 70 69 139 0 68 -15 99 -68 139 -33 25 -121 32 -162 12z"/>
<path d="M40195 32867 c-116 -65 -104 -245 19 -292 130 -50 259 62 224 193
-28 104 -148 153 -243 99z"/>
<path d="M46669 32776 c0 -1 -2 -9 -4 -19 -3 -18 -3 -18 16 -1 10 9 19 18 19
19 0 2 -29 3 -31 1z"/>
<path d="M46595 32701 c-3 -5 -2 -12 3 -15 5 -3 9 1 9 9 0 17 -3 19 -12 6z"/>
<path d="M44534 32648 c-4 -7 -4 -10 1 -6 4 4 15 2 24 -5 14 -11 14 -10 2 6
-16 20 -18 21 -27 5z"/>
<path d="M44606 32622 c-3 -5 1 -9 9 -9 8 0 12 4 9 9 -3 4 -7 8 -9 8 -2 0 -6
-4 -9 -8z"/>
<path d="M44855 32460 c10 -11 20 -20 23 -20 3 0 -3 9 -13 20 -10 11 -20 20
-23 20 -3 0 3 -9 13 -20z"/>
<path d="M45496 32205 c4 -8 11 -15 16 -15 6 0 5 6 -2 15 -7 8 -14 15 -16 15
-2 0 -1 -7 2 -15z"/>
<path d="M17137 31309 c7 -7 15 -10 18 -7 3 3 -2 9 -12 12 -14 6 -15 5 -6 -5z"/>
<path d="M17329 31238 c-5 -18 -6 -38 -1 -34 7 8 12 36 6 36 -2 0 -4 -1 -5 -2z"/>
<path d="M16906 31208 c3 -5 10 -6 15 -3 13 9 11 12 -6 12 -8 0 -12 -4 -9 -9z"/>
<path d="M16854 31186 c1 -8 5 -18 8 -22 4 -3 5 1 4 10 -1 8 -5 18 -8 22 -4 3
-5 -1 -4 -10z"/>
<path d="M18480 31145 c0 -7 30 -13 34 -7 3 4 -4 9 -15 9 -10 1 -19 0 -19 -2z"/>
<path d="M16766 31083 c-6 -14 -5 -15 5 -6 7 7 10 15 7 18 -3 3 -9 -2 -12 -12z"/>
<path d="M17614 31092 c4 -3 14 -7 22 -8 9 -1 13 0 10 4 -4 3 -14 7 -22 8 -9
1 -13 0 -10 -4z"/>
<path d="M16555 31059 c-3 -4 2 -6 10 -5 21 3 28 13 10 13 -9 0 -18 -4 -20 -8z"/>
<path d="M16850 30990 c6 -11 13 -20 16 -20 2 0 0 9 -6 20 -6 11 -13 20 -16
20 -2 0 0 -9 6 -20z"/>
<path d="M18805 31001 c-3 -5 -2 -12 3 -15 5 -3 9 1 9 9 0 17 -3 19 -12 6z"/>
<path d="M17956 30951 c-4 -5 -2 -12 3 -15 5 -4 12 -2 15 3 4 5 2 12 -3 15 -5
4 -12 2 -15 -3z"/>
<path d="M16025 30929 c-3 -4 2 -6 10 -5 21 3 28 13 10 13 -9 0 -18 -4 -20 -8z"/>
<path d="M18085 30931 c-3 -5 -2 -12 3 -15 5 -3 9 1 9 9 0 17 -3 19 -12 6z"/>
<path d="M16987 30916 c-4 -10 -1 -13 8 -9 8 3 12 9 9 14 -7 12 -11 11 -17 -5z"/>
<path d="M16830 30899 c-22 -18 -22 -19 -3 -10 12 6 25 16 28 21 9 15 3 12
-25 -11z"/>
<path d="M18116 30888 c3 -5 10 -6 15 -3 13 9 11 12 -6 12 -8 0 -12 -4 -9 -9z"/>
<path d="M18896 30892 c-3 -5 1 -9 9 -9 8 0 12 4 9 9 -3 4 -7 8 -9 8 -2 0 -6
-4 -9 -8z"/>
<path d="M16925 30830 c-3 -6 1 -7 9 -4 18 7 21 14 7 14 -6 0 -13 -4 -16 -10z"/>
<path d="M18033 30825 c0 -8 4 -12 9 -9 5 3 6 10 3 15 -9 13 -12 11 -12 -6z"/>
<path d="M19243 30825 c0 -8 4 -12 9 -9 5 3 6 10 3 15 -9 13 -12 11 -12 -6z"/>
<path d="M17085 30821 c-3 -5 -2 -12 3 -15 5 -3 9 1 9 9 0 17 -3 19 -12 6z"/>
<path d="M18849 30783 c-13 -16 -12 -17 4 -4 16 13 21 21 13 21 -2 0 -10 -8
-17 -17z"/>
<path d="M16963 30775 c0 -8 4 -12 9 -9 5 3 6 10 3 15 -9 13 -12 11 -12 -6z"/>
<path d="M19365 30781 c-3 -5 -2 -12 3 -15 5 -3 9 1 9 9 0 17 -3 19 -12 6z"/>
<path d="M17170 30750 c-9 -6 -10 -10 -3 -10 6 0 15 5 18 10 8 12 4 12 -15 0z"/>
<path d="M17066 30712 c-3 -5 1 -9 9 -9 8 0 12 4 9 9 -3 4 -7 8 -9 8 -2 0 -6
-4 -9 -8z"/>
<path d="M17743 30685 c0 -8 4 -12 9 -9 5 3 6 10 3 15 -9 13 -12 11 -12 -6z"/>
<path d="M18040 30685 c-7 -8 -9 -15 -5 -15 4 0 1 -8 -6 -17 -13 -16 -12 -17
4 -4 9 8 15 16 12 19 -3 3 0 11 6 19 6 7 9 13 6 13 -2 0 -10 -7 -17 -15z"/>
<path d="M17103 30675 c0 -8 4 -12 9 -9 5 3 6 10 3 15 -9 13 -12 11 -12 -6z"/>
<path d="M17706 30648 c3 -5 10 -6 15 -3 13 9 11 12 -6 12 -8 0 -12 -4 -9 -9z"/>
<path d="M18140 30625 c-7 -9 -11 -17 -9 -20 3 -2 10 5 17 15 14 24 10 26 -8
5z"/>
<path d="M18367 30616 c-10 -8 -14 -16 -10 -19 5 -3 14 3 21 14 14 22 13 23
-11 5z"/>
<path d="M17663 30605 c0 -8 4 -12 9 -9 5 3 6 10 3 15 -9 13 -12 11 -12 -6z"/>
<path d="M15413 30585 c0 -8 4 -12 9 -9 5 3 6 10 3 15 -9 13 -12 11 -12 -6z"/>
<path d="M17626 30568 c3 -5 10 -6 15 -3 13 9 11 12 -6 12 -8 0 -12 -4 -9 -9z"/>
<path d="M17495 30551 c-3 -5 -2 -12 3 -15 5 -3 9 1 9 9 0 17 -3 19 -12 6z"/>
<path d="M18145 30531 c-3 -5 -2 -12 3 -15 5 -3 9 1 9 9 0 17 -3 19 -12 6z"/>
<path d="M17303 30514 c0 -9 4 -11 12 -4 7 5 14 9 16 7 2 -1 3 0 1 2 -7 11
-29 7 -29 -5z"/>
<path d="M17579 30493 c-13 -16 -12 -17 4 -4 9 7 17 15 17 17 0 8 -8 3 -21
-13z"/>
<path d="M18270 30500 c0 -5 5 -10 11 -10 5 0 7 5 4 10 -3 6 -8 10 -11 10 -2
0 -4 -4 -4 -10z"/>
<path d="M18127 30477 c-3 -7 3 -13 14 -13 13 0 15 3 7 13 -6 7 -12 13 -13 13
-2 0 -5 -6 -8 -13z"/>
<path d="M20090 30446 c0 -2 8 -10 18 -17 15 -13 16 -12 3 4 -13 16 -21 21
-21 13z"/>
<path d="M14973 30293 c0 -9 4 -10 14 -2 7 6 13 12 13 14 0 1 -6 2 -13 2 -8 0
-14 -6 -14 -14z"/>
<path d="M15010 30306 c0 -2 7 -7 16 -10 8 -3 12 -2 9 4 -6 10 -25 14 -25 6z"/>
<path d="M18135 30300 c3 -5 8 -10 11 -10 2 0 4 5 4 10 0 6 -5 10 -11 10 -5 0
-7 -4 -4 -10z"/>
<path d="M20333 30273 c4 -3 1 -13 -6 -22 -11 -14 -10 -14 5 -2 16 12 16 31 1
31 -4 0 -3 -3 0 -7z"/>
<path d="M14970 30261 c0 -6 4 -13 10 -16 6 -3 7 1 4 9 -7 18 -14 21 -14 7z"/>
<path d="M20366 30221 c-4 -7 -1 -9 8 -5 10 4 23 -10 41 -46 25 -49 26 -77 2
-63 -7 3 -3 -3 7 -15 17 -20 20 -45 26 -205 4 -102 4 -183 -1 -185 -5 -2 -9
-8 -9 -13 0 -6 5 -7 10 -4 6 3 10 0 10 -9 0 -8 -6 -17 -12 -19 -10 -4 -10 -6
0 -6 8 -1 12 -25 12 -86 0 -61 -3 -85 -12 -85 -10 0 -9 -3 1 -9 8 -5 10 -14 6
-21 -5 -8 -4 -11 3 -6 8 4 11 -18 10 -73 0 -57 -4 -79 -12 -74 -7 4 -7 1 1 -8
7 -8 11 -42 11 -75 -1 -33 1 -65 4 -70 6 -9 17 -413 24 -894 2 -135 6 -291 10
-347 l6 -103 96 -29 c489 -149 1307 -355 2132 -536 559 -122 782 -167 790
-158 26 29 187 454 280 738 179 551 280 1000 277 1230 l-2 99 -400 132 c-1237
409 -2367 742 -3022 893 -273 63 -289 65 -297 52z"/>
<path d="M20366 30168 c3 -5 10 -6 15 -3 13 9 11 12 -6 12 -8 0 -12 -4 -9 -9z"/>
<path d="M18110 30140 c-8 -26 -7 -41 2 -32 6 6 8 16 5 24 -3 7 -6 11 -7 8z"/>
<path d="M14589 29968 c-5 -18 -6 -39 -2 -34 4 3 13 0 22 -6 12 -10 12 -7 -2
8 -9 11 -14 24 -10 27 3 4 3 7 0 7 -4 0 -7 -1 -8 -2z"/>
<path d="M18160 29946 c0 -2 8 -10 18 -17 15 -13 16 -12 3 4 -13 16 -21 21
-21 13z"/>
<path d="M18193 29787 c0 -8 6 -14 14 -14 9 0 10 4 2 14 -6 7 -12 13 -14 13
-1 0 -2 -6 -2 -13z"/>
<path d="M14296 29638 c3 -5 10 -6 15 -3 13 9 11 12 -6 12 -8 0 -12 -4 -9 -9z"/>
<path d="M18223 29635 c0 -8 4 -12 9 -9 5 3 6 10 3 15 -9 13 -12 11 -12 -6z"/>
<path d="M14273 29615 c0 -8 4 -12 9 -9 5 3 6 10 3 15 -9 13 -12 11 -12 -6z"/>
<path d="M14169 29588 c-5 -18 -6 -38 -1 -34 7 8 12 36 6 36 -2 0 -4 -1 -5 -2z"/>
<path d="M14119 29523 c-13 -16 -12 -17 4 -4 9 7 17 15 17 17 0 8 -8 3 -21
-13z"/>
<path d="M18130 29516 c0 -2 8 -10 18 -17 15 -13 16 -12 3 4 -13 16 -21 21
-21 13z"/>
<path d="M14136 29478 c3 -5 10 -6 15 -3 13 9 11 12 -6 12 -8 0 -12 -4 -9 -9z"/>
<path d="M18225 29470 c3 -5 8 -10 11 -10 2 0 4 5 4 10 0 6 -5 10 -11 10 -5 0
-7 -4 -4 -10z"/>
<path d="M14113 29455 c0 -8 4 -12 9 -9 5 3 6 10 3 15 -9 13 -12 11 -12 -6z"/>
<path d="M14056 29398 c3 -5 10 -6 15 -3 13 9 11 12 -6 12 -8 0 -12 -4 -9 -9z"/>
<path d="M14033 29375 c0 -8 4 -12 9 -9 5 3 6 10 3 15 -9 13 -12 11 -12 -6z"/>
<path d="M13723 29085 c0 -8 4 -12 9 -9 5 3 6 10 3 15 -9 13 -12 11 -12 -6z"/>
<path d="M16344 29086 c1 -8 5 -18 8 -22 4 -3 5 1 4 10 -1 8 -5 18 -8 22 -4 3
-5 -1 -4 -10z"/>
<path d="M13680 29076 c0 -2 8 -10 18 -17 15 -13 16 -12 3 4 -13 16 -21 21
-21 13z"/>
<path d="M16169 28933 c-13 -16 -12 -17 4 -4 16 13 21 21 13 21 -2 0 -10 -8
-17 -17z"/>
<path d="M16269 28903 c-13 -16 -12 -17 4 -4 9 7 17 15 17 17 0 8 -8 3 -21
-13z"/>
<path d="M16309 28918 c-5 -18 -6 -38 -1 -34 7 8 12 36 6 36 -2 0 -4 -1 -5 -2z"/>
<path d="M18280 28865 c-7 -8 -9 -15 -5 -15 4 0 1 -8 -6 -17 -13 -16 -12 -17
4 -4 9 8 15 16 12 19 -3 3 0 11 6 19 6 7 9 13 6 13 -2 0 -10 -7 -17 -15z"/>
<path d="M18256 28788 c3 -5 10 -6 15 -3 13 9 11 12 -6 12 -8 0 -12 -4 -9 -9z"/>
<path d="M16189 28743 c-13 -16 -12 -17 4 -4 9 7 17 15 17 17 0 8 -8 3 -21
-13z"/>
<path d="M16229 28758 c-5 -18 -6 -38 -1 -34 7 8 12 36 6 36 -2 0 -4 -1 -5 -2z"/>
<path d="M18185 28701 c-3 -5 -2 -12 3 -15 5 -3 9 1 9 9 0 17 -3 19 -12 6z"/>
<path d="M18250 28706 c0 -3 9 -10 19 -16 15 -7 22 -7 27 2 4 7 4 10 -1 6 -4
-4 -16 -3 -26 3 -11 5 -19 7 -19 5z"/>
<path d="M16006 28631 c-4 -5 -2 -12 3 -15 5 -4 12 -2 15 3 4 5 2 12 -3 15 -5
4 -12 2 -15 -3z"/>
<path d="M16120 28636 c0 -2 7 -7 16 -10 8 -3 12 -2 9 4 -6 10 -25 14 -25 6z"/>
<path d="M18273 28535 c0 -8 4 -12 9 -9 5 3 6 10 3 15 -9 13 -12 11 -12 -6z"/>
<path d="M15935 28531 c-3 -5 -2 -12 3 -15 5 -3 9 1 9 9 0 17 -3 19 -12 6z"/>
<path d="M13240 28509 c0 -5 5 -7 10 -4 6 3 10 8 10 11 0 2 -4 4 -10 4 -5 0
-10 -5 -10 -11z"/>
<path d="M15899 28413 c-13 -16 -12 -17 4 -4 9 7 17 15 17 17 0 8 -8 3 -21
-13z"/>
<path d="M13102 28381 c-11 -7 -11 -9 0 -14 9 -3 15 1 15 9 0 8 -1 14 -1 14
-1 0 -7 -4 -14 -9z"/>
<path d="M15970 28381 c0 -6 4 -13 10 -16 6 -3 7 1 4 9 -7 18 -14 21 -14 7z"/>
<path d="M15774 28298 l-19 -23 23 19 c21 18 27 26 19 26 -2 0 -12 -10 -23
-22z"/>
<path d="M18283 28287 c0 -8 6 -14 14 -14 9 0 10 4 2 14 -6 7 -12 13 -14 13
-1 0 -2 -6 -2 -13z"/>
<path d="M18290 28230 c-9 -6 -10 -10 -3 -10 6 0 15 5 18 10 8 12 4 12 -15 0z"/>
<path d="M18185 28200 c-8 -13 9 -20 24 -11 10 6 9 10 -3 14 -8 3 -18 2 -21
-3z"/>
<path d="M15849 28143 c-13 -16 -12 -17 4 -4 9 7 17 15 17 17 0 8 -8 3 -21
-13z"/>
<path d="M15740 27951 c0 -6 4 -13 10 -16 6 -3 7 1 4 9 -7 18 -14 21 -14 7z"/>
<path d="M15713 27893 c0 -9 4 -10 14 -2 7 6 13 12 13 14 0 1 -6 2 -13 2 -8 0
-14 -6 -14 -14z"/>
<path d="M18299 27843 c-13 -16 -12 -17 4 -4 9 7 17 15 17 17 0 8 -8 3 -21
-13z"/>
<path d="M15416 27592 c-3 -5 1 -9 9 -9 8 0 12 4 9 9 -3 4 -7 8 -9 8 -2 0 -6
-4 -9 -8z"/>
<path d="M12335 27509 c-3 -4 2 -6 10 -5 21 3 28 13 10 13 -9 0 -18 -4 -20 -8z"/>
<path d="M15446 27463 c-6 -14 -5 -15 5 -6 7 7 10 15 7 18 -3 3 -9 -2 -12 -12z"/>
<path d="M15387 27325 c3 -8 9 -12 14 -9 12 7 11 11 -5 17 -10 4 -13 1 -9 -8z"/>
<path d="M12170 27305 c0 -2 6 -8 13 -14 10 -8 14 -7 14 2 0 8 -6 14 -14 14
-7 0 -13 -1 -13 -2z"/>
<path d="M15229 27308 c-5 -18 -6 -38 -1 -34 7 8 12 36 6 36 -2 0 -4 -1 -5 -2z"/>
<path d="M15160 27181 c0 -6 4 -13 10 -16 6 -3 7 1 4 9 -7 18 -14 21 -14 7z"/>
<path d="M15135 27159 c-4 -6 -5 -12 -2 -15 2 -3 7 2 10 11 7 17 1 20 -8 4z"/>
<path d="M15109 27108 c-5 -18 -6 -38 -1 -34 7 8 12 36 6 36 -2 0 -4 -1 -5 -2z"/>
<path d="M12016 27083 c-6 -14 -5 -15 5 -6 7 7 10 15 7 18 -3 3 -9 -2 -12 -12z"/>
<path d="M15056 27072 c-3 -5 1 -9 9 -9 8 0 12 4 9 9 -3 4 -7 8 -9 8 -2 0 -6
-4 -9 -8z"/>
<path d="M15185 27069 c-4 -6 -5 -12 -2 -15 2 -3 7 2 10 11 7 17 1 20 -8 4z"/>
<path d="M15146 27021 c-4 -5 -2 -12 3 -15 5 -4 12 -2 15 3 4 5 2 12 -3 15 -5
4 -12 2 -15 -3z"/>
<path d="M14977 26929 c7 -7 15 -10 18 -7 3 3 -2 9 -12 12 -14 6 -15 5 -6 -5z"/>
<path d="M14939 26813 c-13 -16 -12 -17 4 -4 16 13 21 21 13 21 -2 0 -10 -8
-17 -17z"/>
<path d="M11797 26803 c3 -7 6 -13 8 -13 2 0 5 6 8 13 3 8 -1 14 -8 14 -7 0
-11 -6 -8 -14z"/>
<path d="M14840 26521 c0 -6 4 -13 10 -16 6 -3 7 1 4 9 -7 18 -14 21 -14 7z"/>
<path d="M14580 26454 c8 -10 15 -20 16 -22 1 -2 4 1 7 5 3 5 -4 15 -16 23
-21 12 -21 12 -7 -6z"/>
<path d="M14859 26458 c-5 -18 -6 -38 -1 -34 7 8 12 36 6 36 -2 0 -4 -1 -5 -2z"/>
<path d="M11526 26438 c3 -5 10 -6 15 -3 13 9 11 12 -6 12 -8 0 -12 -4 -9 -9z"/>
<path d="M14839 26303 c-13 -16 -12 -17 4 -4 16 13 21 21 13 21 -2 0 -10 -8
-17 -17z"/>
<path d="M11820 26236 c0 -8 4 -17 9 -20 5 -4 7 3 4 14 -6 23 -13 26 -13 6z"/>
<path d="M14386 26222 c-3 -5 1 -9 9 -9 8 0 12 4 9 9 -3 4 -7 8 -9 8 -2 0 -6
-4 -9 -8z"/>
<path d="M14363 26195 c0 -8 4 -15 9 -15 4 0 8 4 8 9 0 6 -4 12 -8 15 -5 3 -9
-1 -9 -9z"/>
<path d="M14276 26108 c3 -5 10 -6 15 -3 13 9 11 12 -6 12 -8 0 -12 -4 -9 -9z"/>
<path d="M12086 26068 c3 -5 10 -6 15 -3 13 9 11 12 -6 12 -8 0 -12 -4 -9 -9z"/>
<path d="M14006 25882 c-2 -4 -1 -14 4 -22 7 -11 9 -9 7 8 -1 24 -3 26 -11 14z"/>
<path d="M12449 25823 c-13 -16 -12 -17 4 -4 9 7 17 15 17 17 0 8 -8 3 -21
-13z"/>
<path d="M13864 25742 c4 -3 14 -7 22 -8 9 -1 13 0 10 4 -4 3 -14 7 -22 8 -9
1 -13 0 -10 -4z"/>
<path d="M12500 25721 c0 -6 4 -13 10 -16 6 -3 7 1 4 9 -7 18 -14 21 -14 7z"/>
<path d="M12725 25581 c-3 -5 -1 -12 5 -16 6 -4 8 -10 6 -14 -3 -4 6 -7 19 -7
13 0 21 4 18 9 -3 4 -8 6 -11 3 -8 -9 -33 15 -26 25 3 5 3 9 0 9 -3 0 -7 -4
-11 -9z"/>
<path d="M12828 25492 c4 -10 7 -12 10 -4 2 7 9 9 15 5 7 -3 8 -2 4 2 -14 16
-36 14 -29 -3z"/>
<path d="M12897 25403 c3 -7 6 -13 8 -13 2 0 5 6 8 13 3 8 -1 14 -8 14 -7 0
-11 -6 -8 -14z"/>
<path d="M13166 25188 c3 -5 10 -6 15 -3 13 9 11 12 -6 12 -8 0 -12 -4 -9 -9z"/>
<path d="M13286 25172 c-3 -5 1 -9 9 -9 8 0 12 4 9 9 -3 4 -7 8 -9 8 -2 0 -6
-4 -9 -8z"/>
<path d="M20454 24752 c3 -5 0 -13 -6 -15 -9 -4 -10 -6 -1 -6 17 -1 25 16 12
25 -7 4 -9 3 -5 -4z"/>
<path d="M18164 24273 c2 -9 8 -18 15 -19 6 -1 7 0 1 3 -5 2 -8 9 -5 13 3 5 1
11 -4 14 -5 4 -8 -2 -7 -11z"/>
<path d="M15185 24201 c-3 -5 -2 -12 3 -15 5 -3 9 1 9 9 0 17 -3 19 -12 6z"/>
<path d="M15232 24035 c12 -15 14 -25 6 -38 -5 -10 -8 -20 -6 -23 3 -2 10 7
16 20 9 20 7 27 -11 43 -22 18 -22 18 -5 -2z"/>
<path d="M18174 23978 c-4 -5 -3 -12 0 -15 3 -4 6 -1 6 6 0 7 4 10 9 6 5 -3
12 -2 15 3 3 5 -2 9 -10 9 -8 0 -17 -4 -20 -9z"/>
<path d="M18166 23848 c3 -5 10 -6 15 -3 13 9 11 12 -6 12 -8 0 -12 -4 -9 -9z"/>
<path d="M15312 23796 c7 -8 15 -12 17 -11 5 6 -10 25 -20 25 -5 0 -4 -6 3
-14z"/>
<path d="M20346 23673 c-6 -14 -5 -15 5 -6 7 7 10 15 7 18 -3 3 -9 -2 -12 -12z"/>
<path d="M20365 23661 c-3 -5 -2 -12 3 -15 5 -3 9 1 9 9 0 17 -3 19 -12 6z"/>
<path d="M18176 23607 c3 -10 9 -15 12 -12 3 3 0 11 -7 18 -10 9 -11 8 -5 -6z"/>
<path d="M15495 23241 c-3 -5 -2 -12 3 -15 5 -3 9 1 9 9 0 17 -3 19 -12 6z"/>
<path d="M15539 23183 c-13 -16 -12 -17 4 -4 9 7 17 15 17 17 0 8 -8 3 -21
-13z"/>
<path d="M15579 23143 c-13 -16 -12 -17 4 -4 9 7 17 15 17 17 0 8 -8 3 -21
-13z"/>
<path d="M20180 23094 c8 -10 15 -20 16 -22 1 -2 4 1 7 5 3 5 -4 15 -16 23
-21 12 -21 12 -7 -6z"/>
<path d="M18206 23001 c-4 -5 -2 -12 3 -15 5 -4 12 -2 15 3 4 5 2 12 -3 15 -5
4 -12 2 -15 -3z"/>
<path d="M15720 22946 c-30 -6 -75 -26 -100 -43 -70 -48 -263 -255 -249 -267
2 -2 137 -79 299 -171 655 -372 1083 -630 1158 -698 27 -25 29 -63 3 -77 -28
-15 -262 -12 -426 5 -190 20 -193 19 -206 -8 -9 -20 -2 -41 46 -138 272 -540
459 -989 428 -1020 -29 -29 -81 33 -278 326 -164 244 -221 315 -252 315 -30 0
-5 -80 107 -349 93 -224 120 -304 120 -358 0 -36 -3 -43 -20 -43 -34 0 -98 77
-228 275 -211 322 -206 315 -219 301 -8 -8 19 -108 81 -308 30 -95 64 -207 75
-248 22 -78 27 -150 12 -150 -15 0 -54 51 -142 189 -249 390 -276 427 -296
407 -10 -9 -7 -124 7 -317 14 -182 10 -219 -19 -219 -47 0 -135 152 -405 695
-106 215 -215 440 -241 500 -27 61 -51 114 -55 118 -19 22 -147 -529 -204
-873 -91 -548 -128 -1010 -148 -1815 -12 -519 -1 -2539 22 -4060 22 -1454 46
-2808 75 -4255 14 -708 24 -1141 75 -3505 11 -517 23 -976 26 -1021 l6 -81
276 -27 c596 -58 1239 -98 1251 -78 4 7 13 76 20 154 11 132 120 1247 446
4563 121 1227 144 1461 220 2225 310 3153 575 5850 575 5863 0 9 10 26 23 36
12 10 55 47 95 81 40 34 75 60 76 59 2 -2 42 -440 90 -974 81 -904 350 -3917
451 -5050 296 -3309 553 -6192 601 -6750 9 -104 18 -192 20 -194 12 -13 1380
101 1491 124 27 6 28 10 53 350 148 2002 253 5614 330 11450 20 1482 23 2380
11 2580 -59 934 -244 1727 -543 2332 l-81 163 -33 -3 c-19 -1 -34 -5 -34 -9 0
-8 -65 -23 -92 -21 -10 0 -15 -3 -13 -8 7 -10 -52 -22 -66 -13 -7 4 -9 3 -6
-3 8 -12 -57 -28 -73 -18 -6 3 -10 2 -10 -3 0 -12 -156 -35 -182 -26 -12 4
-18 2 -14 -4 3 -6 -25 -13 -72 -17 -115 -11 -131 -13 -201 -21 -53 -6 -63 -5
-56 7 7 12 6 12 -7 1 -19 -15 -76 -21 -283 -27 -82 -3 -158 -8 -169 -11 -10
-4 -16 -2 -13 3 4 5 0 10 -8 10 -8 0 -12 -4 -10 -8 3 -4 -151 -8 -341 -8 -190
0 -350 -3 -355 -6 -5 -4 -9 -3 -9 2 0 4 -87 8 -192 8 -341 0 -700 15 -730 30
-19 9 -30 10 -34 3 -4 -7 -39 -8 -98 -4 -50 3 -136 9 -191 12 -93 6 -122 8
-168 12 -12 1 -16 7 -11 15 4 6 4 9 -1 5 -4 -4 -15 -2 -24 5 -14 11 -15 10 -1
-7 15 -19 13 -19 -60 -11 -41 4 -97 9 -125 11 -27 3 -70 7 -95 9 -25 3 -74 7
-110 10 -36 2 -85 7 -110 11 -25 4 -49 6 -54 5 -5 -1 -18 6 -29 16 -11 10 -17
12 -13 6 9 -16 -20 -18 -29 -3 -4 7 -12 7 -18 2 -13 -9 -163 9 -153 18 3 3
-10 4 -29 2 -19 -2 -35 0 -35 6 0 5 -12 7 -26 4 -19 -3 -25 -1 -20 7 4 6 6 11
4 10 -2 0 -28 -6 -58 -13z m3567 -692 c-3 -3 -12 -4 -19 -1 -8 3 -5 6 6 6 11
1 17 -2 13 -5z m-74 -11 c-7 -2 -19 -2 -25 0 -7 3 -2 5 12 5 14 0 19 -2 13 -5z
m-75 -10 c-10 -2 -26 -2 -35 0 -10 3 -2 5 17 5 19 0 27 -2 18 -5z m-2395 -10
c-7 -2 -19 -2 -25 0 -7 3 -2 5 12 5 14 0 19 -2 13 -5z m2315 0 c-10 -2 -28 -2
-40 0 -13 2 -5 4 17 4 22 1 32 -1 23 -4z m-2245 -10 c-7 -2 -19 -2 -25 0 -7 3
-2 5 12 5 14 0 19 -2 13 -5z m2166 3 c-14 -15 -660 -61 -994 -71 -196 -6 -667
8 -815 25 -51 5 -29 6 70 2 80 -4 348 -7 595 -7 433 0 640 9 945 40 138 13
206 17 199 11z m-2086 -13 c-7 -2 -21 -2 -30 0 -10 3 -4 5 12 5 17 0 24 -2 18
-5z m85 -10 c-10 -2 -28 -2 -40 0 -13 2 -5 4 17 4 22 1 32 -1 23 -4z m95 -10
c-13 -2 -33 -2 -45 0 -13 2 -3 4 22 4 25 0 35 -2 23 -4z"/>
<path d="M15933 22943 c0 -9 4 -10 14 -2 7 6 13 12 13 14 0 1 -6 2 -13 2 -8 0
-14 -6 -14 -14z"/>
<path d="M15973 22935 c0 -8 4 -12 9 -9 5 3 6 10 3 15 -9 13 -12 11 -12 -6z"/>
<path d="M16756 22868 c3 -5 10 -6 15 -3 13 9 11 12 -6 12 -8 0 -12 -4 -9 -9z"/>
<path d="M16916 22852 c-3 -5 1 -9 9 -9 8 0 12 4 9 9 -3 4 -7 8 -9 8 -2 0 -6
-4 -9 -8z"/>
<path d="M45365 17850 c-115 -15 -211 -29 -212 -29 -1 -1 7 -27 18 -58 11 -32
19 -72 17 -90 -4 -29 -2 -31 22 -27 14 2 116 15 228 29 224 27 257 24 326 -29
55 -41 74 -95 96 -267 11 -85 20 -156 20 -159 0 -8 167 13 175 21 10 11 -35
328 -54 378 -57 151 -192 248 -356 256 -42 2 -155 -8 -280 -25z"/>
<path d="M44135 17695 c-38 -7 -124 -18 -190 -25 -242 -24 -298 -41 -388 -121
-57 -49 -115 -161 -124 -237 -8 -73 26 -382 44 -389 12 -5 161 12 168 19 2 2
-6 76 -17 166 -23 183 -20 208 31 279 38 53 103 83 199 94 190 22 417 50 419
53 6 6 -54 170 -63 172 -5 1 -40 -4 -79 -11z"/>
<path d="M47675 17350 c-27 -4 -117 -18 -200 -30 -82 -11 -312 -45 -510 -75
-1048 -157 -2458 -346 -3160 -424 -654 -74 -1233 -143 -1480 -177 -527 -74
-732 -145 -803 -278 -28 -54 -28 -200 2 -371 14 -82 42 -271 61 -420 41 -317
77 -499 112 -573 29 -62 84 -107 143 -117 25 -4 40 -12 40 -21 0 -8 13 -119
30 -247 16 -127 54 -455 85 -727 103 -912 144 -1133 251 -1359 98 -208 219
-307 443 -364 78 -20 111 -22 356 -22 364 0 563 24 1691 200 1144 179 1799
272 2634 374 447 55 506 68 665 149 117 59 225 165 273 265 64 134 77 212 76
487 0 324 -6 372 -195 1629 -56 373 -70 486 -60 489 27 9 83 67 104 106 29 55
35 221 13 361 -8 55 -27 172 -40 260 -14 88 -33 232 -41 320 -34 349 -86 492
-200 553 -34 18 -207 26 -290 12z m-1431 -1873 c31 -230 31 -237 9 -237 -10
-1 -520 -70 -1133 -154 -613 -84 -1118 -150 -1122 -147 -8 8 -61 385 -56 408
3 16 122 34 1108 169 608 84 1119 152 1136 153 l31 1 27 -193z"/>
<path d="M39166 5071 c-4 -5 -2 -12 3 -15 5 -4 12 -2 15 3 4 5 2 12 -3 15 -5
4 -12 2 -15 -3z"/>
<path d="M39720 5006 c0 -2 8 -10 18 -17 15 -13 16 -12 3 4 -13 16 -21 21 -21
13z"/>
<path d="M38970 4986 c0 -2 8 -10 18 -17 15 -13 16 -12 3 4 -13 16 -21 21 -21
13z"/>
<path d="M38841 4904 c6 -7 16 -11 21 -8 11 7 3 17 -18 20 -12 2 -13 -1 -3
-12z"/>
<path d="M39579 4893 c-13 -16 -12 -17 4 -4 16 13 21 21 13 21 -2 0 -10 -8
-17 -17z"/>
<path d="M38696 4862 c-3 -5 1 -9 9 -9 8 0 12 4 9 9 -3 4 -7 8 -9 8 -2 0 -6
-4 -9 -8z"/>
<path d="M41565 4841 c-3 -5 -2 -12 3 -15 5 -3 9 1 9 9 0 17 -3 19 -12 6z"/>
<path d="M38340 4773 c0 -7 0 -15 0 -18 0 -3 3 -6 8 -7 4 0 12 -7 17 -15 9
-12 11 -11 11 6 0 11 -4 18 -8 15 -4 -2 -11 4 -17 13 -6 10 -11 12 -11 6z"/>
<path d="M38201 4756 c-9 -11 -9 -16 1 -22 7 -4 10 -4 6 1 -4 4 -3 14 3 22 6
7 9 13 6 13 -2 0 -10 -6 -16 -14z"/>
<path d="M38140 4751 c0 -6 4 -13 10 -16 6 -3 7 1 4 9 -7 18 -14 21 -14 7z"/>
<path d="M39426 4728 c3 -5 10 -6 15 -3 13 9 11 12 -6 12 -8 0 -12 -4 -9 -9z"/>
<path d="M39460 4719 c0 -5 5 -7 10 -4 6 3 10 8 10 11 0 2 -4 4 -10 4 -5 0
-10 -5 -10 -11z"/>
<path d="M40766 4652 c-3 -5 1 -9 9 -9 8 0 12 4 9 9 -3 4 -7 8 -9 8 -2 0 -6
-4 -9 -8z"/>
<path d="M39256 4615 c-9 -26 -7 -32 5 -12 6 10 9 21 6 23 -2 3 -7 -2 -11 -11z"/>
<path d="M14611 4455 c-44 -57 -36 -137 20 -191 l30 -29 302 -6 c166 -4 786
-7 1377 -8 1050 -1 1076 0 1107 19 59 36 82 125 48 190 -18 34 -27 37 -46 14
-7 -8 -31 -25 -53 -36 l-41 -21 -1323 6 c-905 5 -1330 10 -1343 18 -11 5 -28
24 -38 40 l-19 30 -21 -26z"/>
<path d="M18793 4454 c-23 -36 -22 -112 3 -154 11 -19 35 -43 53 -54 33 -19
64 -20 1406 -24 l1372 -5 39 36 c38 35 39 37 39 105 0 55 -4 75 -19 91 l-19
21 -38 -35 c-22 -19 -54 -37 -76 -41 -21 -4 -624 -4 -1341 -1 -1412 8 -1341 4
-1372 61 -17 33 -25 33 -47 0z"/>
<path d="M38271 4444 c0 -11 3 -14 6 -6 3 7 2 16 -1 19 -3 4 -6 -2 -5 -13z"/>
<path d="M37717 4417 c-3 -8 1 -14 8 -14 7 0 11 6 8 14 -3 7 -6 13 -8 13 -2 0
-5 -6 -8 -13z"/>
<path d="M41615 4391 c-3 -5 -2 -12 3 -15 5 -3 9 1 9 9 0 17 -3 19 -12 6z"/>
<path d="M38031 4364 c0 -11 3 -14 6 -6 3 7 2 16 -1 19 -3 4 -6 -2 -5 -13z"/>
<path d="M10420 3710 c-783 -5 -816 -6 -847 -24 -130 -79 -119 -266 19 -337
37 -19 388 -19 19480 -19 18968 0 19444 1 19484 19 62 28 97 80 102 152 2 32
2 70 -2 83 -9 36 -64 96 -106 115 -32 15 -1605 16 -18675 16 -10252 0 -19007
-2 -19455 -5z"/>
</g>
</svg>
