<?xml version="1.0" encoding="utf-8"?>
<!-- Generator: Adobe Illustrator 27.5.0, SVG Export Plug-In . SVG Version: 6.00 Build 0)  -->
<svg version="1.1" xmlns="http://www.w3.org/2000/svg" xmlns:xlink="http://www.w3.org/1999/xlink" x="0px" y="0px"
	 viewBox="0 0 3710 3710" style="enable-background:new 0 0 3710 3710;" xml:space="preserve">
<g id="Background">
	<g>
		<g>
			<rect style="fill:none;" width="3710" height="3710"/>
		</g>
	</g>
</g>
<g id="Illustration">
	<g>
		<path style="fill:#F4F7FA;" d="M1896.878,457.991C1168.406,436.479,537.396,965.056,442.061,1658.614
			c-104.234,758.312,469.46,1440.61,1175.368,1549.89c878.031,135.927,1729.67-650.423,1653.201-1503.496
			C3213.018,1062.293,2637.384,479.857,1896.878,457.991z"/>
		<g>
			<defs>
				<rect id="SVGID_1_" x="437.224" y="500.452" width="1495.251" height="1935.031"/>
			</defs>
			<clipPath id="SVGID_00000095315102970868640070000007949247928250264719_">
				<use xlink:href="#SVGID_1_"  style="overflow:visible;"/>
			</clipPath>
			<g style="clip-path:url(#SVGID_00000095315102970868640070000007949247928250264719_);">
				<g>
					<g>
						<g>
							<defs>
								<path id="SVGID_00000095301869411943637950000005274918111687981496_" d="M1891.808,2612.5
									c22.641,1.297,73.04-15.839,84.336-25.724c75.175-65.777,223.922-179.786,237.291-284.532
									c2.283-17.889-73.703-49.177-81.731-67.499c-43.605-31.707-60.698-40.002-87.344-90.509
									c-78.666-149.11,202.143-348.555-55.208-485.583c-188.506-100.37-370.649-63.166-290.66-370.057
									c79.989-306.892-60.083-919.845-429.184-764.658c-211.829,89.063-70.241,389.434-203.855,566.247
									c-126.967,168.018-77.078,335.364,98.905,483.597c175.982,148.232,54.734,213.971-35.59,379.342
									c-108.499,198.646,209.906,297.304,360.791,330.312C1611.062,2310.014,1902.52,2459.671,1891.808,2612.5z"/>
							</defs>
							
								<linearGradient id="SVGID_00000146499013425580556540000014970418827210042526_" gradientUnits="userSpaceOnUse" x1="1407.4669" y1="556.0694" x2="2046.908" y2="4643.936">
								<stop  offset="0.0036" style="stop-color:#E38DDD"/>
								<stop  offset="1" style="stop-color:#9571F6"/>
							</linearGradient>
							
								<use xlink:href="#SVGID_00000095301869411943637950000005274918111687981496_"  style="overflow:visible;fill:url(#SVGID_00000146499013425580556540000014970418827210042526_);"/>
							<clipPath id="SVGID_00000101071317134133864290000001808531142464112018_">
								<use xlink:href="#SVGID_00000095301869411943637950000005274918111687981496_"  style="overflow:visible;"/>
							</clipPath>
							<g style="clip-path:url(#SVGID_00000101071317134133864290000001808531142464112018_);">
								<g>
									<path style="fill:#FCFDFE;" d="M2090.349,2452.917l2.875-3.87C1497.097,2005.9,1228.489,1257.09,1374.697,445.983
										l-4.747-0.858c-69.291,384.408-44.009,769.474,73.115,1113.57C1566.197,1920.448,1790.025,2229.664,2090.349,2452.917z"/>
									<path style="fill:#FCFDFE;" d="M1074.199,2030.515c201.42-26.588,519.066,31.358,708.084,129.174l2.215-4.283
										c-189.761-98.199-508.682-156.368-710.929-129.673L1074.199,2030.515z"/>
									<path style="fill:#FCFDFE;" d="M1974.323,2364.586l3.836-2.924c-67.015-88.019-86.957-206.537-59.272-352.258
										c20.299-106.85,65.257-225.566,133.629-352.859l-4.25-2.281c-68.602,127.724-113.727,246.906-134.116,354.237
										C1886.197,2155.625,1906.442,2275.429,1974.323,2364.586z"/>
									<path style="fill:#FCFDFE;" d="M1428.338,1509.209l3.983-2.721c-117.786-172.408-322.76-251.131-473.972-286.814
										l-1.107,4.697C1107.624,1259.856,1311.427,1338.077,1428.338,1509.209z"/>
									<path style="fill:#FCFDFE;" d="M1337.407,1039.96l4.793,0.545c26.622-233.715,197.482-411.963,296.958-497.412l-3.142-3.66
										C1536.003,625.345,1364.216,804.608,1337.407,1039.96z"/>
								</g>
							</g>
						</g>
					</g>
				</g>
				<g>
					<g>
						<g>
							<defs>
								<path id="SVGID_00000010302295045241112870000015246337800807203750_" d="M1881.795,2742.547
									c21.516-7.165,62.009-41.721,68.849-55.082c45.528-88.909,141.584-249.836,115.279-352.103
									c-4.493-17.466-86.662-18.442-100.896-32.499c-52.237-13.338-71.186-14.726-114.618-51.802
									c-128.222-109.46,58.95-398.594-230.828-430.763c-212.259-23.563-367.739,78.348-406.883-236.372
									c-39.145-314.719-395.914-832.453-681.485-551.797c-163.891,161.07,78.719,387.809,19.944,601.494
									c-55.85,203.055,52.375,340.099,270.694,412.763c218.317,72.664,129.966,178.573,107.183,365.621
									c-27.367,224.685,304.952,198.63,457.349,173.513C1509.105,2565.293,1835.243,2596.587,1881.795,2742.547z"/>
							</defs>
							<use xlink:href="#SVGID_00000010302295045241112870000015246337800807203750_"  style="overflow:visible;fill:#FE8794;"/>
							<clipPath id="SVGID_00000043424021180808558370000018019948406152712072_">
								<use xlink:href="#SVGID_00000010302295045241112870000015246337800807203750_"  style="overflow:visible;"/>
							</clipPath>
							<g style="clip-path:url(#SVGID_00000043424021180808558370000018019948406152712072_);">
								<g>
									<path style="fill:#FCFDFE;" d="M2007.265,2520.867l1.241-4.659C1290.778,2324.863,764.349,1728.423,600.313,920.733
										l-4.729,0.958c77.743,382.788,243.602,731.221,479.648,1007.632C1323.387,2219.919,1645.679,2424.469,2007.265,2520.867z"
										/>
									<path style="fill:#FCFDFE;" d="M906.946,2504.089c177.318-99.173,493.88-162.775,705.669-141.774l0.474-4.799
										c-212.622-21.081-530.45,42.783-708.497,142.363L906.946,2504.089z"/>
									<path style="fill:#FCFDFE;" d="M1866.803,2481.692l2.483-4.135c-94.808-57.006-157.156-159.752-185.31-305.384
										c-20.645-106.784-22.765-233.71-6.3-377.261l-4.792-0.547c-16.518,144.036-14.381,271.458,6.357,378.722
										C1707.663,2320.121,1770.768,2423.95,1866.803,2481.692z"/>
									<path style="fill:#FCFDFE;" d="M1043.252,1888.788l2.695-4.001c-173.183-116.644-392.739-114.005-546.429-91.252
										l0.707,4.773C653.072,1775.679,871.353,1773.007,1043.252,1888.788z"/>
									<path style="fill:#FCFDFE;" d="M785.272,1486.409l4.654-1.266c-61.674-226.997,31.177-455.785,92.012-571.958l-4.273-2.239
										C816.503,1027.748,723.166,1257.822,785.272,1486.409z"/>
								</g>
							</g>
						</g>
					</g>
				</g>
			</g>
		</g>
		<g>
			<g>
				<polygon style="fill:#97A6B7;" points="2713.525,1540.234 2713.525,2417.569 2541.131,2405.24 2541.131,1624.142 
					2693.605,1547.667 2709.087,1541.141 				"/>
				<polygon style="fill:#FFFFFF;" points="3142.75,1541.489 3142.75,2379.167 2713.525,2417.569 2713.525,1539.369 				"/>
				<polygon style="fill:#CED3DB;" points="2850.736,2348.167 2797.962,2352.818 2797.962,1635.874 2850.736,1635.543 				"/>
				<polygon style="fill:#CED3DB;" points="2966.838,2338.493 2910.546,2343.203 2910.546,1635.228 2966.838,1634.935 				"/>
				<polygon style="fill:#CED3DB;" points="3079.421,2329.235 3023.129,2333.845 3023.129,1634.663 3079.421,1634.324 				"/>
				<polygon style="opacity:0.5;fill:#97A6B7;" points="2850.736,2348.167 2833.145,2349.711 2833.145,1635.652 2850.736,1635.543 
									"/>
				<polygon style="opacity:0.5;fill:#97A6B7;" points="2966.838,2338.493 2949.247,2339.994 2949.247,1635.03 2966.838,1634.935 
									"/>
				<polygon style="opacity:0.5;fill:#97A6B7;" points="3082.94,2329.056 3061.83,2330.517 3061.83,1634.406 3082.94,1634.324 				
					"/>
				<path style="opacity:0.1;fill:#97A6B7;" d="M2425.029,2621.667c0,0.027,0,0.027,0,0.027
					C2425.029,2621.667,2425.029,2621.667,2425.029,2621.667z"/>
				<path style="opacity:0.1;fill:#97A6B7;" d="M3142.75,2379.117v0.05l-433.861,38.391l-167.758-12.319v-90.85
					c77.401-106.284,53.59-146.451,70.252-221.987c16.214-73.48-17.343-455.891,82.939-544.728c3.58-3.214,7.684-6.001,11.617-8.369
					c0.552,0.606,1.282,1.214,1.833,1.819c0.623,0.685,1.336,1.37,1.959,2.055c51.184,56.265,74.49,82.915,85.511,111.208
					c10.715,27.502,9.939,56.677,11.676,115.935c2.158,72.842,1.724,136.275,25.844,178.981
					c5.037,8.981,11.169,17.003,18.635,24.002c14.456,13.596,33.877,23.271,60.033,28.232c2.889,0.561,5.847,1.068,8.892,1.493
					c10.131,1.432,20.125,3.94,29.939,7.396c6.136,2.139,12.198,4.661,18.159,7.567c19.959,9.608,38.932,23.153,56.282,39.837
					c14.609,14.033,28.081,30.28,40.094,48.249c5.474,8.204,10.654,16.766,15.496,25.667c0.751,1.365,1.48,2.729,2.209,4.12
					c26.955,51.152,43.367,112.587,41.967,176.331C3123.857,2339.959,3131.113,2361.679,3142.75,2379.117z"/>
			</g>
			<path style="opacity:0.1;fill:#97A6B7;" d="M1513.805,2551.269c0,0.03,0,0.03,0,0.03
				C1513.805,2551.269,1513.805,2551.269,1513.805,2551.269z"/>
			<path style="opacity:0.1;fill:#97A6B7;" d="M644.8,2601.085c0,0.032,0,0.032,0,0.032
				C644.8,2601.111,644.8,2601.111,644.8,2601.085z"/>
			<g>
				
					<linearGradient id="SVGID_00000180330201504676298920000008938364715124858001_" gradientUnits="userSpaceOnUse" x1="1855.0745" y1="1785.4919" x2="2615.0139" y2="1785.4919">
					<stop  offset="0.494" style="stop-color:#EBEFF2"/>
					<stop  offset="1" style="stop-color:#FFFFFF"/>
				</linearGradient>
				<polygon style="fill:url(#SVGID_00000180330201504676298920000008938364715124858001_);" points="2615.014,1115.295 
					2615.014,2425.734 1855.074,2493.829 1855.074,1077.155 				"/>
				<polygon style="fill:#CED3DB;" points="2565.759,1320.304 1914.885,1302.097 1914.885,1213.916 2565.759,1237.768 				"/>
				<polygon style="fill:#CED3DB;" points="2565.759,1466.738 1914.885,1458.547 1914.885,1370.366 2565.759,1384.202 				"/>
				<polygon style="fill:#CED3DB;" points="2565.759,1613.173 1914.885,1614.997 1914.885,1526.816 2565.759,1530.637 				"/>
				<polygon style="fill:#CED3DB;" points="2565.759,1759.607 1914.885,1771.448 1914.885,1683.266 2565.759,1677.072 				"/>
				<polygon style="fill:#CED3DB;" points="2565.759,1906.042 1914.885,1927.898 1914.885,1839.717 2565.759,1823.506 				"/>
				<polygon style="fill:#CED3DB;" points="2565.759,2052.476 1914.885,2084.348 1914.885,1996.167 2565.759,1969.941 				"/>
				<polygon style="fill:#CED3DB;" points="2565.759,2198.911 1914.885,2240.799 1914.885,2152.617 2565.759,2116.375 				"/>
				<polygon style="fill:#97A6B7;" points="1855.074,1077.155 1855.074,2493.829 1626.389,2470.178 1626.389,1203.275 
					1846.52,1080.681 1853.112,1077.63 				"/>
				<polygon style="opacity:0.5;fill:#97A6B7;" points="2565.759,1253.743 1914.885,1230.983 1914.885,1213.916 2565.759,1237.768 
									"/>
				<polygon style="opacity:0.5;fill:#97A6B7;" points="2565.759,1400.177 1914.885,1387.433 1914.885,1370.366 2565.759,1384.202 
									"/>
				<polygon style="opacity:0.5;fill:#97A6B7;" points="2565.759,1546.612 1914.885,1543.884 1914.885,1526.816 2565.759,1530.637 
									"/>
				<polygon style="opacity:0.5;fill:#97A6B7;" points="2565.759,1693.046 1914.885,1700.334 1914.885,1683.266 2565.759,1677.072 
									"/>
				<polygon style="opacity:0.5;fill:#97A6B7;" points="2565.759,1839.481 1914.885,1856.784 1914.885,1839.717 2565.759,1823.506 
									"/>
				<polygon style="opacity:0.5;fill:#97A6B7;" points="2565.759,1985.915 1914.885,2013.234 1914.885,1996.167 2565.759,1969.941 
									"/>
				<polygon style="opacity:0.5;fill:#97A6B7;" points="2565.759,2132.35 1914.885,2169.685 1914.885,2152.617 2565.759,2116.375 
									"/>
				<path style="opacity:0.1;fill:#97A6B7;" d="M2594.292,2427.83l-741.314,65.994l-226.589-23.647v-280.562
					c7.036-18.02,17.827-35.149,28.283-50.979c96.641-146.42,64.82-202.798,84.943-306.985
					c19.783-102.45-23.744-651.186,106.066-750.972c1.687-1.291,3.233-2.496,4.976-3.64c0.143,0.179,0.215,0.386,0.358,0.565
					c0.315,0.416,0.593,0.804,0.879,1.19c50.268,65.836,78.42,103.498,94.507,136.295c2.886,5.86,5.371,11.59,7.498,17.276
					c8.222,21.606,11.709,42.947,13.524,71.215c1.173,18.848,1.645,40.786,2.231,67.96c0.112,5.434,0.25,11.095,0.39,16.982
					c0.083,3.396,0.166,6.877,0.25,10.415c0.53,20.716,0.921,40.862,1.478,60.33c0.669,23.709,1.589,46.427,3.234,67.902
					c0.446,5.742,0.948,11.4,1.505,16.972c2.591,25.703,6.544,49.385,12.857,70.641c7.859,26.667,19.39,49.402,36.526,67.415
					c5.791,6.13,12.236,11.684,19.415,16.661c16.052,11.173,35.658,19.38,59.642,24.253c30.109,6.098,59.286,21.187,86.316,43.277
					c21.492,17.526,41.621,39.494,59.821,64.911c3.742,5.24,7.43,10.669,11.009,16.207c13.399,20.711,25.557,43.322,36.198,67.458
					c9.079,20.557,17.049,42.239,23.759,64.727c1.611,5.34,3.117,10.737,4.571,16.189c5.838,21.873,10.478,44.484,13.741,67.55
					c3.054,21.345,4.969,43.091,5.563,65.093c0.155,5.411,0.232,10.854,0.232,16.328c0,3.35-0.025,6.701-0.104,10.083
					c-0.413,21.651,2.043,40.698,6.771,57.575C2390.102,2345.829,2565.697,2342.473,2594.292,2427.83z"/>
			</g>
			<g>
				<polygon style="fill:#97A6B7;" points="989.588,1254.483 989.588,2561.328 718.683,2544.389 718.683,1373.514 				"/>
				<polygon style="fill:#FFFFFF;" points="1749.527,1280.211 1749.527,2494.129 989.588,2561.328 989.588,1257.587 				"/>
				<g>
					<polygon style="fill:#CED3DB;" points="1288.638,1417.441 1288.638,1616.763 1133.836,1617.207 1133.836,1415.022 					"/>
					<polygon style="fill:#CED3DB;" points="1499.732,1420.778 1499.732,1616.224 1348.448,1616.635 1348.448,1418.373 					"/>
					<polygon style="fill:#CED3DB;" points="1693.235,1423.821 1693.235,1615.614 1556.024,1616.057 1556.024,1421.62 					"/>
					<polygon style="fill:#CED3DB;" points="1288.638,1680.183 1288.638,1879.505 1133.836,1883.723 1133.836,1681.538 					"/>
					<polygon style="fill:#CED3DB;" points="1499.732,1678.412 1499.732,1873.859 1348.448,1877.98 1348.448,1679.718 					"/>
					<polygon style="fill:#CED3DB;" points="1693.235,1676.639 1693.235,1868.432 1556.024,1872.359 1556.024,1677.923 					"/>
					<polygon style="fill:#CED3DB;" points="1288.638,1942.926 1288.638,2142.247 1133.836,2150.239 1133.836,1948.054 					"/>
					<polygon style="fill:#CED3DB;" points="1499.732,1936.046 1499.732,2131.493 1348.448,2139.325 1348.448,1941.063 					"/>
					<polygon style="fill:#CED3DB;" points="1693.235,1929.457 1693.235,2121.25 1556.024,2128.661 1556.024,1934.225 					"/>
					<polygon style="fill:#CED3DB;" points="1288.638,2205.668 1288.638,2404.99 1133.836,2416.755 1133.836,2214.571 					"/>
					<polygon style="fill:#CED3DB;" points="1499.732,2193.68 1499.732,2389.127 1348.448,2400.67 1348.448,2202.409 					"/>
					<polygon style="fill:#CED3DB;" points="1693.235,2182.275 1693.235,2374.068 1556.024,2384.963 1556.024,2190.527 					"/>
				</g>
				<path style="opacity:0.1;fill:#97A6B7;" d="M1753.046,2473.983v20.145l-762.828,67.199l-268.016-16.938v-198.14
					c17.591-43.42,40.77-85.814,66.883-121.16c98.978-134.063,67.085-184.996,87.698-279.919
					c20.537-94.574-25.112-604.79,114.359-687.629c127.287,145.943,118.589,139.653,122.96,291.193
					c2.332,81.003,2.188,152.638,22.969,205.508c17.964,45.782,51.555,77.168,115.473,87.942
					c13.34,2.257,26.491,6.024,39.352,11.178c40.86,16.286,79.002,46.426,111.114,85.894
					c41.94,51.455,73.886,118.921,88.699,192.686c4.071,20.145,6.857,40.819,8.202,61.772c0.458,6.962,0.765,13.993,0.887,21.035
					c0.122,6.122,0.123,12.253,0,18.39c-0.061,2.166-0.061,4.298,0,6.396c0.581,53.089,23.155,88.133,54.749,113.869
					c13.327,10.856,27.552,20.036,43.118,28.226C1660.381,2414.095,1735.454,2430.682,1753.046,2473.983z"/>
				<g>
					<polygon style="opacity:0.5;fill:#97A6B7;" points="1133.836,1415.022 1288.638,1417.441 1288.638,1438.582 1133.836,1436.466 
											"/>
					<polygon style="opacity:0.5;fill:#97A6B7;" points="1133.836,1681.538 1288.638,1680.183 1288.638,1701.324 1133.836,1702.982 
											"/>
					<polygon style="opacity:0.5;fill:#97A6B7;" points="1133.836,1948.054 1288.638,1942.926 1288.638,1964.066 1133.836,1969.498 
											"/>
					<polygon style="opacity:0.5;fill:#97A6B7;" points="1133.836,2214.571 1288.638,2205.668 1288.638,2226.808 1133.836,2236.014 
											"/>
					<polygon style="opacity:0.5;fill:#97A6B7;" points="1348.448,1418.373 1499.732,1420.778 1499.732,1441.507 1348.448,1439.401 
											"/>
					<polygon style="opacity:0.5;fill:#97A6B7;" points="1348.448,1679.718 1499.732,1678.412 1499.732,1699.141 1348.448,1700.746 
											"/>
					<polygon style="opacity:0.5;fill:#97A6B7;" points="1348.448,1941.063 1499.732,1936.046 1499.732,1956.775 1348.448,1962.091 
											"/>
					<polygon style="opacity:0.5;fill:#97A6B7;" points="1348.448,2202.409 1499.732,2193.68 1499.732,2214.409 1348.448,2223.436 
											"/>
					<polygon style="opacity:0.5;fill:#97A6B7;" points="1693.235,1423.821 1693.235,1444.162 1556.024,1442.242 1556.024,1421.62 
											"/>
					<polygon style="opacity:0.5;fill:#97A6B7;" points="1693.235,1676.639 1693.235,1696.98 1556.024,1698.545 1556.024,1677.923 
											"/>
					<polygon style="opacity:0.5;fill:#97A6B7;" points="1693.235,1929.457 1693.235,1949.798 1556.024,1954.847 1556.024,1934.225 
											"/>
					<polygon style="opacity:0.5;fill:#97A6B7;" points="1693.235,2182.275 1693.235,2202.616 1556.024,2211.149 1556.024,2190.527 
											"/>
				</g>
			</g>
		</g>
		<g>
			<g>
				
					<linearGradient id="SVGID_00000127736737693101622380000017764816752962711463_" gradientUnits="userSpaceOnUse" x1="354.0938" y1="2920.7954" x2="-330.412" y2="2286.072" gradientTransform="matrix(-0.9977 0.0671 0.0671 0.9977 1275.7217 -71.3376)">
					<stop  offset="0" style="stop-color:#AA80F9"/>
					<stop  offset="0.9964" style="stop-color:#6165D7"/>
				</linearGradient>
				<path style="fill:url(#SVGID_00000127736737693101622380000017764816752962711463_);" d="M1431.613,1938.939
					c72.294,21.853,164.782,106.92,213.15,153.557c111.554,107.561,320.98,470.472,198.962,600.072
					c-83.013,88.171-228.904,51.121-293.224-37.778c-47.309-65.386-18.657-124.896-8.701-242.612
					C1552.513,2285.509,1507.119,2064.093,1431.613,1938.939z"/>
				
					<linearGradient id="SVGID_00000109734170572315979220000017474906311698118561_" gradientUnits="userSpaceOnUse" x1="360.9493" y1="3487.8906" x2="-98.9444" y2="2084.2129" gradientTransform="matrix(-0.9977 0.0671 0.0671 0.9977 1275.7217 -71.3376)">
					<stop  offset="0" style="stop-color:#AA80F9"/>
					<stop  offset="0.9964" style="stop-color:#6165D7"/>
				</linearGradient>
				<path style="fill:url(#SVGID_00000109734170572315979220000017474906311698118561_);" d="M1492.525,1973.828
					c49.837,59.19,67.328,54.248,106.168,135.735c58.517,122.765,15.42,263.089,9.276,414.296
					c-6.74,165.869-0.111,474.603,83.257,634.145c1.453,2.778,2.165,3.36,2.102,7.519c-2.555,169.155-801.776,50.654-800.509-11.123
					c6.291-306.772,206.107-978.589,156.612-1200.79c22.468-0.406,66.92-23.868,85.01-28.928
					c77.617-21.711,147.703-25.371,221.098-15.381c26.849,3.655,40.362,9.832,59.957,17.362
					C1447.326,1938.896,1467.856,1957.061,1492.525,1973.828z"/>
				<g>
					
						<linearGradient id="SVGID_00000149370375234663240940000015986236030199832996_" gradientUnits="userSpaceOnUse" x1="1185.2416" y1="1845.9215" x2="1317.5487" y2="1845.9215">
						<stop  offset="0" style="stop-color:#FCB148"/>
						<stop  offset="0.0521" style="stop-color:#FDBA46"/>
						<stop  offset="0.1424" style="stop-color:#FFC244"/>
						<stop  offset="0.3183" style="stop-color:#FFC444"/>
						<stop  offset="0.4849" style="stop-color:#FDB946"/>
						<stop  offset="0.7754" style="stop-color:#F99C4D"/>
						<stop  offset="0.8658" style="stop-color:#F8924F"/>
						<stop  offset="1" style="stop-color:#F8924F"/>
					</linearGradient>
					<path style="fill:url(#SVGID_00000149370375234663240940000015986236030199832996_);" d="M1208.085,1740.045
						c1.051,51.494-15.847,125.704-22.508,171.884c-6.661,46.18,87.728,48.127,118.577,26.712
						c28.329-19.665,7.003-72.99-20.328-100.977C1256.493,1809.677,1235.995,1768.692,1208.085,1740.045z"/>
					<g>
						
							<linearGradient id="SVGID_00000179644154180438679740000000445802703245616545_" gradientUnits="userSpaceOnUse" x1="-184.9617" y1="1513.0547" x2="20.6746" y2="2114.3848" gradientTransform="matrix(-1 0 0 1 1124.7478 0)">
							<stop  offset="0" style="stop-color:#444B8C"/>
							<stop  offset="0.9964" style="stop-color:#26264F"/>
						</linearGradient>
						<path style="fill:url(#SVGID_00000179644154180438679740000000445802703245616545_);" d="M1350.063,1723.931
							c43.507-38.404,51.487-174.647,7.397-201.323c-21.381-12.936-58.664,54.255-82.921,67.219
							c-32.574,17.411-120.977,36.776-138.494,71.69c-13.211,26.329,13.325,80.908,23.981,100.424
							c12.055,22.078,13.478,14.531,27.95,30.199c20.07,21.727,46.809,47.161,67.193,71.53c4.414-18.524,3.248-18.514,11.035-42.448
							c2.994-9.205,27.014-48.104,38.69-63.113C1312.313,1748.573,1344.734,1728.634,1350.063,1723.931z"/>
						
							<linearGradient id="SVGID_00000008869045984330770490000004915016308105376148_" gradientUnits="userSpaceOnUse" x1="1264.741" y1="1690.8994" x2="1284.0911" y2="2188.7302">
							<stop  offset="0" style="stop-color:#FCB148"/>
							<stop  offset="0.0521" style="stop-color:#FDBA46"/>
							<stop  offset="0.1424" style="stop-color:#FFC244"/>
							<stop  offset="0.3183" style="stop-color:#FFC444"/>
							<stop  offset="0.4849" style="stop-color:#FDB946"/>
							<stop  offset="0.7754" style="stop-color:#F99C4D"/>
							<stop  offset="0.8658" style="stop-color:#F8924F"/>
							<stop  offset="1" style="stop-color:#F8924F"/>
						</linearGradient>
						<path style="fill:url(#SVGID_00000008869045984330770490000004915016308105376148_);" d="M1210.559,1829.88
							c33.466,30.954,49.821,68.61,110.518,57.326c54.343-10.103,63.454-145.786,14.031-185.814
							c-16.487-13.353-40.565-13.206-61.049-7.112c-12.097,3.599-24.736,11.659-36.828,16.289
							c-11.152,4.271-20.568-0.918-30.805,10.391c-12.809,14.15-4.116,50.243,3.225,67.688c-5.612-4.923-11.936-11.86-19.291-14.148
							c-5.186-1.613-14.196-10.221-19.087-2.764c-7.986,12.175,9.334,35.387,19.5,44.938
							C1195.425,1821.044,1204.871,1826.409,1210.559,1829.88z"/>
						
							<linearGradient id="SVGID_00000038412595123163314030000009611219324832011944_" gradientUnits="userSpaceOnUse" x1="-236.5575" y1="1530.6982" x2="-30.9216" y2="2132.0276" gradientTransform="matrix(-1 0 0 1 1124.7478 0)">
							<stop  offset="0" style="stop-color:#444B8C"/>
							<stop  offset="0.9964" style="stop-color:#26264F"/>
						</linearGradient>
						<path style="fill:url(#SVGID_00000038412595123163314030000009611219324832011944_);" d="M1202.508,1712.281
							c7.445,4.3-5.802,18.039-3.814,31.636c3.856,26.4,12.285,74.062,50.815,78.678c22.778,2.729,46.646-17.608,70.526-20.047
							c14.785-1.51,31.1-0.712,45.806,3.252c9.513,28.426,9.904,73.161-14.747,90.772c-26.549,18.966-43.951,9.102-72.144,0.972
							c-18.864-5.44-39.683-21.728-51.545-40.231c-12.359-19.28-21.429-39.529-33.688-59.817
							c-6.769-11.203-14.965-25.23-22.938-36.982c-2.165-3.192-5.47-8.301-7.036-12.532
							C1170.142,1741.829,1191.735,1706.057,1202.508,1712.281z"/>
						<path style="fill:#FFFFFF;" d="M1335.843,1825.252c-11.212,6.26-24.362,6.211-36.56,6.383
							c-0.593,0.008-3.225-1.03-2.213,1.189c3.806,8.342,20.311,11.218,28.69,8.803c5.95-1.714,16.009-8.972,14.933-15.48
							C1340.24,1823.401,1336.964,1825.83,1335.843,1825.252z"/>
					</g>
				</g>
				
					<linearGradient id="SVGID_00000000923219648020742000000010706168922956220314_" gradientUnits="userSpaceOnUse" x1="122.1474" y1="3488.7583" x2="-332.9833" y2="2099.6182" gradientTransform="matrix(-0.9992 0.0409 0.0409 0.9992 1177.709 -39.9982)">
					<stop  offset="0" style="stop-color:#AA80F9"/>
					<stop  offset="0.9964" style="stop-color:#6165D7"/>
				</linearGradient>
				<path style="opacity:0.3;fill:url(#SVGID_00000000923219648020742000000010706168922956220314_);" d="M1422.373,2951.935
					c21.457-24.228,55.571-62.749,57.594-116.533c5.204-138.282-208.692-192.129-200.274-304.656
					c6.543-87.469,137.481-77.613,211.99-232.867c12.793-26.656,59.598-127.968,25.653-242.7
					c-13.557-45.821-35.831-79.711-52.471-101.004c9.195,6.479,18.119,13.17,27.661,19.654
					c49.836,59.19,67.327,54.247,106.167,135.734c58.516,122.765,15.419,263.089,9.276,414.296
					c-6.74,165.869-0.111,474.603,83.256,634.145c1.454,2.778,2.428,4.581,2.102,7.519
					c-18.644,168.144-801.776,50.654-800.509-11.123c0.759-36.986,4.35-79.319,9.96-125.49
					C930.541,3036.562,1268.773,3125.377,1422.373,2951.935z"/>
				
					<linearGradient id="SVGID_00000150787188809863287360000006440666273096272573_" gradientUnits="userSpaceOnUse" x1="282.9335" y1="2933.9092" x2="-350.1268" y2="2346.8901" gradientTransform="matrix(-0.9977 0.0671 0.0671 0.9977 1275.7217 -71.3376)">
					<stop  offset="0" style="stop-color:#AA80F9"/>
					<stop  offset="0.9964" style="stop-color:#6165D7"/>
				</linearGradient>
				<path style="fill:url(#SVGID_00000150787188809863287360000006440666273096272573_);" d="M1646.885,2420.776
					c43.724-2.19,13.523-28.628,26.763-24.782c8.292,2.409,211.156,201.859,147.228,307.086
					c-60.968,100.354-314.238,32.302-403.479,0.481c-49.6-17.686-196.896-72.465-286.36-214.941
					c-8.04-12.804-14.062-23.845-18.056-31.532c195.512-25.647,289.146-31.795,338.189-32.065
					C1482.632,2424.848,1514.369,2427.412,1646.885,2420.776z"/>
				
					<linearGradient id="SVGID_00000077318793324105347290000007983482559133501355_" gradientUnits="userSpaceOnUse" x1="286.5892" y1="3525.4846" x2="338.5583" y2="1918.4385" gradientTransform="matrix(-0.9977 0.0671 0.0671 0.9977 1275.7217 -71.3376)">
					<stop  offset="0" style="stop-color:#AA80F9"/>
					<stop  offset="0.9964" style="stop-color:#6165D7"/>
				</linearGradient>
				<path style="fill:url(#SVGID_00000077318793324105347290000007983482559133501355_);" d="M1572.993,2400.522
					c-5.515,44.045-28.265,180.005-143.082,291.418c-22.829,22.152-177.682,167.368-394.791,130.772
					c-169.654-28.597-320.734-158.555-355.656-320.875c-68.176-316.881,336.723-596.438,429.708-548.498
					c62.419,32.182,80.234,261.415-13.187,377.259c-20.304,25.177-58.054,60.117-52.205,103.988
					c5.616,42.124,48.263,68.718,72.418,83.332c113.94,68.939,363.555-108.991,429.591-123.594
					C1550.55,2394.176,1554.137,2389.662,1572.993,2400.522z"/>
				
					<linearGradient id="SVGID_00000040549720794248312050000015478876082680215469_" gradientUnits="userSpaceOnUse" x1="25.0621" y1="2925.1565" x2="47.1887" y2="2240.9307" gradientTransform="matrix(-0.9992 0.0409 0.0409 0.9992 1177.709 -39.9982)">
					<stop  offset="0" style="stop-color:#AA80F9"/>
					<stop  offset="0.9964" style="stop-color:#6165D7"/>
				</linearGradient>
				<path style="opacity:0.3;fill:url(#SVGID_00000040549720794248312050000015478876082680215469_);" d="M967.251,2329.11
					c39.344-39.853,84.922-60.84,136.179-76.596c12.796-3.464,25.6-6.676,38.266-9.983c-10.475,32.57-25.48,62.98-45.712,88.067
					c-20.305,25.177-58.056,60.117-52.205,103.988c5.616,42.124,48.262,68.718,72.418,83.332
					c113.94,68.939,363.554-108.991,429.591-123.594c4.762-0.148,8.35-4.662,27.205,6.198c-1.382,11.043-3.851,27.867-8.58,48.631
					c-93.691-30.001-195.326,63.993-276.342,109.941c-104.124,58.895-233.683,96.977-335.207,19.183
					C876.778,2521.296,904.368,2394.511,967.251,2329.11z"/>
				
					<linearGradient id="SVGID_00000075845742062225744180000010958073339878061193_" gradientUnits="userSpaceOnUse" x1="439.8398" y1="3246.7727" x2="480.5893" y2="1986.6715" gradientTransform="matrix(-0.9992 0.0409 0.0409 0.9992 1177.709 -39.9982)">
					<stop  offset="0" style="stop-color:#AA80F9"/>
					<stop  offset="0.9964" style="stop-color:#6165D7"/>
				</linearGradient>
				<path style="opacity:0.3;fill:url(#SVGID_00000075845742062225744180000010958073339878061193_);" d="M917.476,2020.04
					c17.763,59.721,19.907,120.208-15.69,177.899c-51.305,81.317-108.621,149.223-129.482,240.221
					c-18.691,77.251-7.385,153.274,14.83,228.851c6.448,20.125,16.424,37.559,28.67,53.218
					c-67.941-57.336-118.061-133.424-136.341-218.391C636.527,2302.27,781.224,2117.517,917.476,2020.04z"/>
				
					<linearGradient id="SVGID_00000054985987336748334500000008088939938763301255_" gradientUnits="userSpaceOnUse" x1="993.7782" y1="2476.9558" x2="1131.0375" y2="2476.9558">
					<stop  offset="0" style="stop-color:#FCB148"/>
					<stop  offset="0.0521" style="stop-color:#FDBA46"/>
					<stop  offset="0.1424" style="stop-color:#FFC244"/>
					<stop  offset="0.3183" style="stop-color:#FFC444"/>
					<stop  offset="0.4849" style="stop-color:#FDB946"/>
					<stop  offset="0.7754" style="stop-color:#F99C4D"/>
					<stop  offset="0.8658" style="stop-color:#F8924F"/>
					<stop  offset="1" style="stop-color:#F8924F"/>
				</linearGradient>
				<path style="fill:url(#SVGID_00000054985987336748334500000008088939938763301255_);" d="M1131.037,2488.619
					c-5.417,12.949-32.18,26.234-45.169,24.729c-21.778-2.523-37.15-17.36-50.804-23.827c-12.197-5.777-39.429-13.616-41.063-23.303
					c-3.093-18.344,26.659-23.512,44.111-25.281c24.467-2.48,50.566,4.657,74.869,16.149
					C1119.023,2467.698,1125.802,2478.106,1131.037,2488.619z"/>
				
					<linearGradient id="SVGID_00000080186644345886132300000003426771687712009901_" gradientUnits="userSpaceOnUse" x1="1504.3079" y1="2408.668" x2="1612.1455" y2="2408.668">
					<stop  offset="0" style="stop-color:#FCB148"/>
					<stop  offset="0.0521" style="stop-color:#FDBA46"/>
					<stop  offset="0.1424" style="stop-color:#FFC244"/>
					<stop  offset="0.3183" style="stop-color:#FFC444"/>
					<stop  offset="0.4849" style="stop-color:#FDB946"/>
					<stop  offset="0.7754" style="stop-color:#F99C4D"/>
					<stop  offset="0.8658" style="stop-color:#F8924F"/>
					<stop  offset="1" style="stop-color:#F8924F"/>
				</linearGradient>
				<path style="fill:url(#SVGID_00000080186644345886132300000003426771687712009901_);" d="M1612.146,2422.412
					c-85.446,12.001-105.199,6.106-107.569-1.425c-3.025-9.612,20.003-29.053,44.595-32.397
					C1574.122,2385.197,1599.436,2398.546,1612.146,2422.412z"/>
			</g>
			<g>
				
					<linearGradient id="SVGID_00000111191116143579024760000015318800176258265219_" gradientUnits="userSpaceOnUse" x1="2452.8838" y1="2008.4244" x2="2464.396" y2="2177.0757" gradientTransform="matrix(-0.9999 0.013 0.013 0.9999 3689.9065 -191.3752)">
					<stop  offset="0" style="stop-color:#444B8C"/>
					<stop  offset="0.9964" style="stop-color:#26264F"/>
				</linearGradient>
				<path style="fill:url(#SVGID_00000111191116143579024760000015318800176258265219_);" d="M1282.625,1947.996
					c-3.037,6.862-6.449,13.963-10.288,21.24c-1.674,3.173-3.365,6.255-5.063,9.248c-6.965,0.961-13.933,1.923-20.898,2.884
					c-4.456-10.153-8.911-20.307-13.367-30.46c6.914,0.909,15.442,1.472,25.153,0.886
					C1267.694,1951.22,1275.952,1949.685,1282.625,1947.996z"/>
				
					<linearGradient id="SVGID_00000030445188180358228290000013977141182641963920_" gradientUnits="userSpaceOnUse" x1="2419.7705" y1="2362.3047" x2="2419.7705" y2="1949.887" gradientTransform="matrix(-0.9999 0.013 0.013 0.9999 3689.9065 -191.3752)">
					<stop  offset="0" style="stop-color:#444B8C"/>
					<stop  offset="0.9964" style="stop-color:#26264F"/>
				</linearGradient>
				<path style="fill:url(#SVGID_00000030445188180358228290000013977141182641963920_);" d="M1267.066,1976.542
					c0,0,23.964,234.548,97.76,271.19c-1.782,7.543,0.891,68.609,0.891,68.609s-68.604-19.689-72.482-18.279
					s-84.442-128.291-46.86-316.694L1267.066,1976.542z"/>
			</g>
		</g>
		<g>
			
				<linearGradient id="SVGID_00000018954820865891669970000012880884865313477030_" gradientUnits="userSpaceOnUse" x1="2372.6082" y1="1081.3202" x2="1961.7501" y2="1213.1769">
				<stop  offset="0" style="stop-color:#FCB148"/>
				<stop  offset="0.0521" style="stop-color:#FDBA46"/>
				<stop  offset="0.1424" style="stop-color:#FFC244"/>
				<stop  offset="0.3183" style="stop-color:#FFC444"/>
				<stop  offset="0.4849" style="stop-color:#FDB946"/>
				<stop  offset="0.7754" style="stop-color:#F99C4D"/>
				<stop  offset="0.8658" style="stop-color:#F8924F"/>
				<stop  offset="1" style="stop-color:#F8924F"/>
			</linearGradient>
			<path style="fill:url(#SVGID_00000018954820865891669970000012880884865313477030_);" d="M2845.593,1066.412
				c0,190.602-149.039,340.539-339.528,334.689c-198.242-6.087-364.971-177.299-364.971-382.184
				c0-204.885,166.729-353.616,364.971-332.974C2696.554,705.778,2845.593,875.81,2845.593,1066.412z"/>
			
				<linearGradient id="SVGID_00000013879564188290056440000005890331782423583918_" gradientUnits="userSpaceOnUse" x1="2704.9685" y1="672.3525" x2="2338.1797" y2="1481.5568">
				<stop  offset="0" style="stop-color:#FFDB44"/>
				<stop  offset="1" style="stop-color:#FEEF06"/>
			</linearGradient>
			<path style="fill:url(#SVGID_00000013879564188290056440000005890331782423583918_);" d="M2897.067,1049.978
				c0,190.602-149.039,340.539-339.528,334.689c-198.243-6.088-364.971-177.3-364.971-382.184
				c0-204.885,166.729-353.617,364.971-332.974C2748.028,689.343,2897.067,859.376,2897.067,1049.978z"/>
			
				<linearGradient id="SVGID_00000089538900454663529230000014406347555059949190_" gradientUnits="userSpaceOnUse" x1="2637.4976" y1="1526.7831" x2="2566.7249" y2="1140.1548">
				<stop  offset="0" style="stop-color:#FCB148"/>
				<stop  offset="0.0521" style="stop-color:#FDBA46"/>
				<stop  offset="0.1424" style="stop-color:#FFC244"/>
				<stop  offset="0.3183" style="stop-color:#FFC444"/>
				<stop  offset="0.4849" style="stop-color:#FDB946"/>
				<stop  offset="0.7754" style="stop-color:#F99C4D"/>
				<stop  offset="0.8658" style="stop-color:#F8924F"/>
				<stop  offset="1" style="stop-color:#F8924F"/>
			</linearGradient>
			<path style="fill:url(#SVGID_00000089538900454663529230000014406347555059949190_);" d="M2882.115,1048.969
				c0,182.209-142.603,325.301-324.577,319.408c-189.037-6.121-347.752-169.516-347.752-364.734
				c0-195.219,158.715-337.213,347.752-317.846C2739.512,704.441,2882.115,866.761,2882.115,1048.969z"/>
			
				<linearGradient id="SVGID_00000075852721788181952360000012189106351944772254_" gradientUnits="userSpaceOnUse" x1="2487.4458" y1="900.9826" x2="2779.1091" y2="1520.1283">
				<stop  offset="0" style="stop-color:#FCB148"/>
				<stop  offset="0.0521" style="stop-color:#FDBA46"/>
				<stop  offset="0.1424" style="stop-color:#FFC244"/>
				<stop  offset="0.3183" style="stop-color:#FFC444"/>
				<stop  offset="0.4849" style="stop-color:#FDB946"/>
				<stop  offset="0.7754" style="stop-color:#F99C4D"/>
				<stop  offset="0.8658" style="stop-color:#F8924F"/>
				<stop  offset="1" style="stop-color:#F8924F"/>
			</linearGradient>
			<path style="fill:url(#SVGID_00000075852721788181952360000012189106351944772254_);" d="M2871.407,1048.248
				c0,176.197-137.986,314.4-313.868,308.495c-182.471-6.126-335.489-163.939-335.489-352.273s153.017-325.515,335.489-307.037
				C2733.421,715.242,2871.407,872.05,2871.407,1048.248z"/>
			<g>
				
					<linearGradient id="SVGID_00000068660998919945711730000009288014194714214564_" gradientUnits="userSpaceOnUse" x1="2475.8259" y1="767.7504" x2="2622.4844" y2="1317.4004">
					<stop  offset="0" style="stop-color:#FFDB44"/>
					<stop  offset="1" style="stop-color:#FEEF06"/>
				</linearGradient>
				<path style="fill:url(#SVGID_00000068660998919945711730000009288014194714214564_);" d="M2555.738,757.374L2555.738,757.374
					c9.36,0.89,16.935,9.316,16.935,18.821v32.441c18.714,2.09,37.456,5.343,56.224,9.753c13.838,3.252,27.584,7.124,41.236,11.612
					c8.181,2.689,13.755,10.949,12.92,19.468l-3.984,40.68c-1.057,10.793-11.726,17.131-21.77,12.652
					c-8.993-4.01-18.213-7.445-27.663-10.305c-16.489-4.99-33.879-8.243-52.178-9.751l-4.785-0.394v92.906
					c48.825,13.66,84.681,32.037,107.854,55.151c23.061,23.003,34.55,51.671,34.55,86.089c0,37.219-12.703,67.022-38.209,89.498
					c-25.643,22.597-61.594,35.306-108.086,38.057v35.806c0,9.509-7.581,16.916-16.948,16.544l-0.301-0.012
					c-9.386-0.373-17.009-8.412-17.009-17.954v-35.321l-7.545-0.34c-21.795-0.984-42.671-3.207-62.617-6.677
					c-14.772-2.569-29.197-5.885-43.272-9.952c-8.512-2.459-14.355-10.568-13.574-19.279l4.688-52.292
					c1.013-11.305,12.369-17.883,23.118-13.642c12.53,4.943,25.216,9.106,38.056,12.492c20.011,5.277,40.294,8.661,60.844,10.165
					l0.302-103.346c-46.866-11.596-81.954-28.773-105.007-51.524c-23.16-22.858-34.781-52.112-34.781-87.68
					c0-36.808,12.601-65.221,37.708-85.162c24.979-19.839,60.489-29.709,106.301-29.685v-33.165
					C2538.743,763.491,2546.36,756.483,2555.738,757.374z M2538.743,881.39c-14.484,1.054-25.779,5.032-33.863,11.939
					c-8.097,6.919-12.151,16.217-12.151,27.888c0,11.056,3.75,20.297,11.241,27.716c7.479,7.407,19.081,13.321,34.774,17.74V881.39z
					 M2568.781,1068.527v94.772c15.746,0.031,27.819-3.728,36.248-11.267c8.414-7.526,12.615-18.157,12.615-31.902
					c0-12.532-3.905-22.926-11.723-31.191C2598.089,1080.659,2585.72,1073.857,2568.781,1068.527z"/>
			</g>
			
				<linearGradient id="SVGID_00000141457581208583079850000001211593621069484973_" gradientUnits="userSpaceOnUse" x1="2401.6394" y1="941.0507" x2="2692.7146" y2="1558.9478">
				<stop  offset="0" style="stop-color:#FCB148"/>
				<stop  offset="0.0521" style="stop-color:#FDBA46"/>
				<stop  offset="0.1424" style="stop-color:#FFC244"/>
				<stop  offset="0.3183" style="stop-color:#FFC444"/>
				<stop  offset="0.4849" style="stop-color:#FDB946"/>
				<stop  offset="0.7754" style="stop-color:#F99C4D"/>
				<stop  offset="0.8658" style="stop-color:#F8924F"/>
				<stop  offset="1" style="stop-color:#F8924F"/>
			</linearGradient>
			<path style="opacity:0.3;fill:url(#SVGID_00000141457581208583079850000001211593621069484973_);" d="M2500.74,1091.395
				c10.605-104.737,106.862-149.075,94.301-245.417c-7.742-59.379-52.749-109.421-102.954-148.493
				c-152.281,15.97-270.037,142.064-270.037,306.985c0,188.335,153.017,346.147,335.489,352.273
				c17.717,0.594,35.02-0.327,51.845-2.532C2536.916,1282.101,2491.63,1181.377,2500.74,1091.395z"/>
		</g>
		<g>
			
				<linearGradient id="SVGID_00000010289432060432248380000010955456352277789828_" gradientUnits="userSpaceOnUse" x1="2833.3674" y1="1634.6058" x2="2537.9292" y2="1729.4209">
				<stop  offset="0" style="stop-color:#FCB148"/>
				<stop  offset="0.0521" style="stop-color:#FDBA46"/>
				<stop  offset="0.1424" style="stop-color:#FFC244"/>
				<stop  offset="0.3183" style="stop-color:#FFC444"/>
				<stop  offset="0.4849" style="stop-color:#FDB946"/>
				<stop  offset="0.7754" style="stop-color:#F99C4D"/>
				<stop  offset="0.8658" style="stop-color:#F8924F"/>
				<stop  offset="1" style="stop-color:#F8924F"/>
			</linearGradient>
			<path style="fill:url(#SVGID_00000010289432060432248380000010955456352277789828_);" d="M3173.479,1623.886
				c0,137.057-107.171,244.874-244.147,240.667c-142.552-4.377-262.442-127.492-262.442-274.82
				c0-147.328,119.891-254.277,262.442-239.434C3066.309,1364.562,3173.479,1486.828,3173.479,1623.886z"/>
			
				<linearGradient id="SVGID_00000143590307639228575010000011400247721731771555_" gradientUnits="userSpaceOnUse" x1="3072.3596" y1="1340.5269" x2="2808.6106" y2="1922.4065">
				<stop  offset="0" style="stop-color:#FFDB44"/>
				<stop  offset="1" style="stop-color:#FEEF06"/>
			</linearGradient>
			<path style="fill:url(#SVGID_00000143590307639228575010000011400247721731771555_);" d="M3210.493,1612.068
				c0,137.057-107.17,244.873-244.147,240.667c-142.551-4.378-262.442-127.492-262.442-274.82
				c0-147.328,119.891-254.277,262.442-239.434C3103.323,1352.745,3210.493,1475.011,3210.493,1612.068z"/>
			
				<linearGradient id="SVGID_00000006669135081255392650000006330409891718249146_" gradientUnits="userSpaceOnUse" x1="3023.843" y1="1954.9276" x2="2972.9519" y2="1676.9124">
				<stop  offset="0" style="stop-color:#FCB148"/>
				<stop  offset="0.0521" style="stop-color:#FDBA46"/>
				<stop  offset="0.1424" style="stop-color:#FFC244"/>
				<stop  offset="0.3183" style="stop-color:#FFC444"/>
				<stop  offset="0.4849" style="stop-color:#FDB946"/>
				<stop  offset="0.7754" style="stop-color:#F99C4D"/>
				<stop  offset="0.8658" style="stop-color:#F8924F"/>
				<stop  offset="1" style="stop-color:#F8924F"/>
			</linearGradient>
			<path style="fill:url(#SVGID_00000006669135081255392650000006330409891718249146_);" d="M3199.742,1611.343
				c0,131.022-102.542,233.916-233.396,229.679c-135.932-4.401-250.06-121.895-250.06-262.272
				c0-140.377,114.128-242.482,250.06-228.555C3097.199,1363.601,3199.742,1480.321,3199.742,1611.343z"/>
			
				<linearGradient id="SVGID_00000082331163626419673390000012133568398945434536_" gradientUnits="userSpaceOnUse" x1="2915.9443" y1="1504.9294" x2="3125.6726" y2="1950.1423">
				<stop  offset="0" style="stop-color:#FCB148"/>
				<stop  offset="0.0521" style="stop-color:#FDBA46"/>
				<stop  offset="0.1424" style="stop-color:#FFC244"/>
				<stop  offset="0.3183" style="stop-color:#FFC444"/>
				<stop  offset="0.4849" style="stop-color:#FDB946"/>
				<stop  offset="0.7754" style="stop-color:#F99C4D"/>
				<stop  offset="0.8658" style="stop-color:#F8924F"/>
				<stop  offset="1" style="stop-color:#F8924F"/>
			</linearGradient>
			<path style="fill:url(#SVGID_00000082331163626419673390000012133568398945434536_);" d="M3192.042,1610.824
				c0,126.699-99.223,226.078-225.695,221.831c-131.211-4.405-241.242-117.884-241.242-253.311s110.031-234.07,241.242-220.783
				C3092.819,1371.368,3192.042,1484.125,3192.042,1610.824z"/>
			<g>
				
					<linearGradient id="SVGID_00000154395678834581794200000014456567204505421194_" gradientUnits="userSpaceOnUse" x1="2907.5886" y1="1409.1252" x2="3013.0474" y2="1804.3656">
					<stop  offset="0" style="stop-color:#FFDB44"/>
					<stop  offset="1" style="stop-color:#FEEF06"/>
				</linearGradient>
				<path style="fill:url(#SVGID_00000154395678834581794200000014456567204505421194_);" d="M2965.052,1401.664L2965.052,1401.664
					c6.73,0.64,12.177,6.699,12.177,13.534v23.328c13.457,1.503,26.934,3.842,40.43,7.014c9.951,2.338,19.835,5.122,29.652,8.35
					c5.882,1.934,9.891,7.873,9.291,13.999l-2.865,29.252c-0.76,7.761-8.432,12.318-15.654,9.098
					c-6.467-2.883-13.097-5.354-19.892-7.41c-11.857-3.588-24.362-5.927-37.52-7.011l-3.441-0.284v66.807
					c35.109,9.822,60.892,23.037,77.555,39.658c16.583,16.541,24.844,37.156,24.844,61.904c0,26.763-9.134,48.194-27.476,64.356
					c-18.439,16.249-44.291,25.388-77.722,27.366v25.747c0,6.838-5.451,12.164-12.187,11.896l-0.216-0.008
					c-6.749-0.268-12.23-6.049-12.23-12.911v-25.398l-5.426-0.245c-15.672-0.707-30.684-2.306-45.026-4.801
					c-10.622-1.847-20.995-4.232-31.116-7.156c-6.121-1.768-10.322-7.599-9.761-13.863l3.371-37.602
					c0.728-8.129,8.894-12.859,16.624-9.81c9.01,3.554,18.132,6.548,27.365,8.983c14.39,3.795,28.974,6.228,43.752,7.31
					l0.217-74.314c-33.7-8.339-58.931-20.69-75.508-37.05c-16.654-16.437-25.01-37.472-25.01-63.048
					c0-26.468,9.061-46.899,27.115-61.238c17.962-14.266,43.496-21.363,76.438-21.346v-23.848
					C2952.831,1406.062,2958.308,1401.023,2965.052,1401.664z M2952.831,1490.841c-10.415,0.758-18.537,3.618-24.35,8.585
					c-5.823,4.975-8.738,11.661-8.738,20.054c0,7.95,2.696,14.595,8.083,19.93c5.378,5.326,13.72,9.579,25.005,12.756V1490.841z
					 M2974.431,1625.407v68.148c11.323,0.022,20.004-2.681,26.065-8.102c6.05-5.412,9.071-13.056,9.071-22.94
					c0-9.012-2.808-16.485-8.43-22.429C2995.505,1634.131,2986.611,1629.239,2974.431,1625.407z"/>
			</g>
			
				<linearGradient id="SVGID_00000149352724484658310790000001424823673767637136_" gradientUnits="userSpaceOnUse" x1="2854.2429" y1="1533.7415" x2="3063.5481" y2="1978.0564">
				<stop  offset="0" style="stop-color:#FCB148"/>
				<stop  offset="0.0521" style="stop-color:#FDBA46"/>
				<stop  offset="0.1424" style="stop-color:#FFC244"/>
				<stop  offset="0.3183" style="stop-color:#FFC444"/>
				<stop  offset="0.4849" style="stop-color:#FDB946"/>
				<stop  offset="0.7754" style="stop-color:#F99C4D"/>
				<stop  offset="0.8658" style="stop-color:#F8924F"/>
				<stop  offset="1" style="stop-color:#F8924F"/>
			</linearGradient>
			<path style="opacity:0.3;fill:url(#SVGID_00000149352724484658310790000001424823673767637136_);" d="M2925.504,1641.851
				c7.625-75.314,76.842-107.197,67.809-176.473c-5.567-42.698-37.93-78.682-74.032-106.778
				c-109.502,11.483-194.177,102.155-194.177,220.746c0,135.427,110.031,248.906,241.242,253.311
				c12.74,0.427,25.182-0.235,37.281-1.82C2951.517,1778.983,2918.953,1706.555,2925.504,1641.851z"/>
		</g>
		<g>
			
				<linearGradient id="SVGID_00000012472627077633781660000000098487891441634194_" gradientUnits="userSpaceOnUse" x1="2332.0393" y1="1886.9407" x2="2106.8018" y2="1959.2262">
				<stop  offset="0" style="stop-color:#FCB148"/>
				<stop  offset="0.0521" style="stop-color:#FDBA46"/>
				<stop  offset="0.1424" style="stop-color:#FFC244"/>
				<stop  offset="0.3183" style="stop-color:#FFC444"/>
				<stop  offset="0.4849" style="stop-color:#FDB946"/>
				<stop  offset="0.7754" style="stop-color:#F99C4D"/>
				<stop  offset="0.8658" style="stop-color:#F8924F"/>
				<stop  offset="1" style="stop-color:#F8924F"/>
			</linearGradient>
			<path style="fill:url(#SVGID_00000012472627077633781660000000098487891441634194_);" d="M2591.336,1878.768
				c0,104.49-81.705,186.688-186.134,183.481c-108.679-3.337-200.082-97.198-200.082-209.518
				c0-112.321,91.403-193.857,200.082-182.541C2509.631,1681.063,2591.336,1774.277,2591.336,1878.768z"/>
			
				<linearGradient id="SVGID_00000091009657430142767130000015167945644616755604_" gradientUnits="userSpaceOnUse" x1="2514.2434" y1="1662.7394" x2="2313.1653" y2="2106.3555">
				<stop  offset="0" style="stop-color:#FFDB44"/>
				<stop  offset="1" style="stop-color:#FEEF06"/>
			</linearGradient>
			<path style="fill:url(#SVGID_00000091009657430142767130000015167945644616755604_);" d="M2619.554,1869.758
				c0,104.49-81.705,186.688-186.134,183.481c-108.679-3.337-200.082-97.198-200.082-209.518
				c0-112.321,91.403-193.857,200.082-182.541C2537.849,1672.054,2619.554,1765.268,2619.554,1869.758z"/>
			
				<linearGradient id="SVGID_00000047041788620684379840000014591930312079895941_" gradientUnits="userSpaceOnUse" x1="2477.2551" y1="2131.1492" x2="2438.4565" y2="1919.1945">
				<stop  offset="0" style="stop-color:#FCB148"/>
				<stop  offset="0.0521" style="stop-color:#FDBA46"/>
				<stop  offset="0.1424" style="stop-color:#FFC244"/>
				<stop  offset="0.3183" style="stop-color:#FFC444"/>
				<stop  offset="0.4849" style="stop-color:#FDB946"/>
				<stop  offset="0.7754" style="stop-color:#F99C4D"/>
				<stop  offset="0.8658" style="stop-color:#F8924F"/>
				<stop  offset="1" style="stop-color:#F8924F"/>
			</linearGradient>
			<path style="fill:url(#SVGID_00000047041788620684379840000014591930312079895941_);" d="M2611.358,1869.206
				c0,99.889-78.177,178.334-177.938,175.104c-103.632-3.355-190.642-92.931-190.642-199.952
				c0-107.021,87.01-184.865,190.642-174.247C2533.181,1680.331,2611.358,1769.317,2611.358,1869.206z"/>
			
				<linearGradient id="SVGID_00000138574528605561908360000001201741227488341385_" gradientUnits="userSpaceOnUse" x1="2394.9949" y1="1788.0773" x2="2554.8884" y2="2127.5007">
				<stop  offset="0" style="stop-color:#FCB148"/>
				<stop  offset="0.0521" style="stop-color:#FDBA46"/>
				<stop  offset="0.1424" style="stop-color:#FFC244"/>
				<stop  offset="0.3183" style="stop-color:#FFC444"/>
				<stop  offset="0.4849" style="stop-color:#FDB946"/>
				<stop  offset="0.7754" style="stop-color:#F99C4D"/>
				<stop  offset="0.8658" style="stop-color:#F8924F"/>
				<stop  offset="1" style="stop-color:#F8924F"/>
			</linearGradient>
			<path style="fill:url(#SVGID_00000138574528605561908360000001201741227488341385_);" d="M2605.487,1868.81
				c0,96.593-75.646,172.358-172.067,169.121c-100.033-3.359-183.919-89.873-183.919-193.12
				c0-103.247,83.886-178.451,183.919-168.322C2529.841,1686.252,2605.487,1772.216,2605.487,1868.81z"/>
			<g>
				
					<linearGradient id="SVGID_00000157989959791082446790000001719597799594833585_" gradientUnits="userSpaceOnUse" x1="2388.6245" y1="1715.0377" x2="2469.0247" y2="2016.3629">
					<stop  offset="0" style="stop-color:#FFDB44"/>
					<stop  offset="1" style="stop-color:#FEEF06"/>
				</linearGradient>
				<path style="fill:url(#SVGID_00000157989959791082446790000001719597799594833585_);" d="M2432.433,1709.349L2432.433,1709.349
					c5.131,0.488,9.284,5.107,9.284,10.318v17.784c10.26,1.146,20.534,2.929,30.823,5.347c7.586,1.783,15.122,3.905,22.606,6.366
					c4.485,1.474,7.541,6.003,7.083,10.672l-2.184,22.301c-0.58,5.917-6.428,9.391-11.935,6.936
					c-4.93-2.198-9.985-4.081-15.165-5.649c-9.04-2.735-18.573-4.519-28.605-5.345l-2.623-0.216v50.932
					c26.766,7.488,46.423,17.563,59.127,30.234c12.642,12.61,18.941,28.327,18.941,47.195c0,20.404-6.964,36.742-20.947,49.064
					c-14.057,12.388-33.767,19.355-59.254,20.864v19.629c0,5.213-4.156,9.274-9.292,9.07l-0.165-0.006
					c-5.146-0.205-9.324-4.612-9.324-9.843v-19.363l-4.136-0.187c-11.948-0.539-23.393-1.758-34.327-3.66
					c-8.098-1.408-16.006-3.226-23.722-5.455c-4.667-1.348-7.87-5.793-7.442-10.569l2.57-28.667
					c0.555-6.197,6.781-9.804,12.674-7.479c6.869,2.71,13.824,4.992,20.863,6.848c10.97,2.893,22.09,4.748,33.356,5.573
					l0.165-56.656c-25.693-6.357-44.928-15.774-57.566-28.246c-12.697-12.531-19.068-28.568-19.068-48.067
					c0-20.179,6.908-35.755,20.672-46.687c13.694-10.876,33.161-16.287,58.275-16.274v-18.182
					C2423.117,1712.703,2427.292,1708.861,2432.433,1709.349z M2423.117,1777.336c-7.94,0.578-14.132,2.759-18.564,6.545
					c-4.439,3.793-6.662,8.891-6.662,15.288c0,6.061,2.056,11.127,6.162,15.194c4.1,4.061,10.46,7.303,19.063,9.725V1777.336z
					 M2439.584,1879.927v51.955c8.632,0.017,15.251-2.044,19.871-6.177c4.613-4.126,6.916-9.954,6.916-17.489
					c0-6.87-2.141-12.568-6.427-17.099C2455.651,1886.578,2448.87,1882.849,2439.584,1879.927z"/>
			</g>
			
				<linearGradient id="SVGID_00000166641063606783255790000010306347665402109855_" gradientUnits="userSpaceOnUse" x1="2347.9546" y1="1810.0431" x2="2507.5256" y2="2148.7822">
				<stop  offset="0" style="stop-color:#FCB148"/>
				<stop  offset="0.0521" style="stop-color:#FDBA46"/>
				<stop  offset="0.1424" style="stop-color:#FFC244"/>
				<stop  offset="0.3183" style="stop-color:#FFC444"/>
				<stop  offset="0.4849" style="stop-color:#FDB946"/>
				<stop  offset="0.7754" style="stop-color:#F99C4D"/>
				<stop  offset="0.8658" style="stop-color:#F8924F"/>
				<stop  offset="1" style="stop-color:#F8924F"/>
			</linearGradient>
			<path style="opacity:0.3;fill:url(#SVGID_00000166641063606783255790000010306347665402109855_);" d="M2402.283,1892.464
				c5.814-57.418,58.583-81.725,51.697-134.541c-4.244-32.552-28.917-59.986-56.441-81.406
				c-83.483,8.755-148.038,77.881-148.038,168.293c0,103.247,83.886,189.762,183.919,193.121c9.713,0.326,19.198-0.179,28.422-1.388
				C2422.115,1997.011,2397.289,1941.793,2402.283,1892.464z"/>
		</g>
		<g>
			
				<linearGradient id="SVGID_00000085238873428549576510000013588696837576327100_" gradientUnits="userSpaceOnUse" x1="2729.9607" y1="2447.2058" x2="2755.6458" y2="2064.7913">
				<stop  offset="0" style="stop-color:#444B8C"/>
				<stop  offset="0.9964" style="stop-color:#26264F"/>
			</linearGradient>
			<path style="fill:url(#SVGID_00000085238873428549576510000013588696837576327100_);" d="M2717.849,2096.649
				c0,0,59.186,19.965,65.477,123.163c-9.678-0.807-32.243,0-32.243,0s4.179-75.049-37.922-89.629
				C2716.549,2121.435,2717.849,2096.649,2717.849,2096.649z"/>
			
				<linearGradient id="SVGID_00000164500422781587400810000003554883003197734530_" gradientUnits="userSpaceOnUse" x1="2601.3728" y1="2312.9045" x2="2619.2905" y2="2046.1311">
				<stop  offset="0.1" style="stop-color:#311944"/>
				<stop  offset="0.267" style="stop-color:#371B47"/>
				<stop  offset="0.4803" style="stop-color:#462150"/>
				<stop  offset="0.7186" style="stop-color:#612A5F"/>
				<stop  offset="0.9736" style="stop-color:#853774"/>
				<stop  offset="1" style="stop-color:#893976"/>
			</linearGradient>
			<path style="fill:url(#SVGID_00000164500422781587400810000003554883003197734530_);" d="M2500.691,2090.453
				c1.476,18.789,2.951,37.578,4.427,56.367c29.249-8.438,61.235-18.228,95.621-20.026c44.709-2.339,85.687,2.869,122.183,11.924
				c1.623-2.372,5.062-8.076,6.648-17.366c2.555-14.969-1.724-27.393-2.517-29.606c-18.591-6.899-38.751-12.682-60.353-16.621
				C2604.757,2063.831,2548.783,2075.033,2500.691,2090.453z"/>
			
				<linearGradient id="SVGID_00000035519889947211602180000007381863702885422762_" gradientUnits="userSpaceOnUse" x1="2509.1555" y1="2121.7966" x2="2707.3057" y2="2228.0308">
				<stop  offset="0.1" style="stop-color:#311944"/>
				<stop  offset="0.267" style="stop-color:#371B47"/>
				<stop  offset="0.4803" style="stop-color:#462150"/>
				<stop  offset="0.7186" style="stop-color:#612A5F"/>
				<stop  offset="0.9736" style="stop-color:#853774"/>
				<stop  offset="1" style="stop-color:#893976"/>
			</linearGradient>
			<path style="fill:url(#SVGID_00000035519889947211602180000007381863702885422762_);" d="M2497.935,2106.733
				c0.087-6.796,0.576-15.282,2.756-16.28c2.053-0.94,4.814,5.205,6.001,8.62c0.495,1.421,1.584,4.865,2.265,15.831
				c0.879,14.137-0.146,21.067-1.083,25.347c-0.564,2.573-1.444,6.472-2.756,6.57c-1.053,0.079-1.969-2.383-3.332-7.148
				C2499.949,2133.252,2497.733,2122.543,2497.935,2106.733z"/>
			
				<linearGradient id="SVGID_00000075121634106979972270000016730559853964361089_" gradientUnits="userSpaceOnUse" x1="2453.0994" y1="2492.3777" x2="2482.2217" y2="2058.7842">
				<stop  offset="0" style="stop-color:#444B8C"/>
				<stop  offset="0.9964" style="stop-color:#26264F"/>
			</linearGradient>
			<path style="fill:url(#SVGID_00000075121634106979972270000016730559853964361089_);" d="M2444.028,2225.46
				c12.263,2.43,42.079,9.701,42.079,9.701s-19.44-66.005,17.214-96.472c0.949-4.987,1.913-12.902,0.755-22.417
				c-0.896-7.36-2.766-13.24-4.379-17.314C2484.135,2108.26,2450.26,2139.553,2444.028,2225.46z"/>
			
				<linearGradient id="SVGID_00000139269221550919968970000005460951504693807023_" gradientUnits="userSpaceOnUse" x1="2244.4797" y1="2455.689" x2="2132.1643" y2="1429.0184">
				<stop  offset="0.1" style="stop-color:#311944"/>
				<stop  offset="0.6853" style="stop-color:#6D2F66"/>
				<stop  offset="1" style="stop-color:#893976"/>
			</linearGradient>
			<path style="fill:url(#SVGID_00000139269221550919968970000005460951504693807023_);" d="M2190.406,2242.849
				c0,0,1.5-34.662,52.639-34.662c8.053,6.318,8.456,34.662,8.456,34.662H2190.406z"/>
			
				<linearGradient id="SVGID_00000128455291556162673460000005862260941797610113_" gradientUnits="userSpaceOnUse" x1="2730.9365" y1="2886.5999" x2="1988.7722" y2="2473.3484">
				<stop  offset="0" style="stop-color:#311944"/>
				<stop  offset="1" style="stop-color:#893976"/>
			</linearGradient>
			<path style="fill:url(#SVGID_00000128455291556162673460000005862260941797610113_);" d="M2144.998,2924.268l139.952,91.357
				l84.796-335.506l-139.721-449.794l-39.619,12.525l-60.115,645.985C2128.931,2903.457,2134.807,2917.615,2144.998,2924.268z"/>
			
				<linearGradient id="SVGID_00000007389370770823095860000015714538952538807481_" gradientUnits="userSpaceOnUse" x1="2060.8396" y1="2308.1208" x2="2286.5029" y2="2686.5408">
				<stop  offset="0" style="stop-color:#311944"/>
				<stop  offset="1" style="stop-color:#893976"/>
			</linearGradient>
			<path style="opacity:0.3;fill:url(#SVGID_00000007389370770823095860000015714538952538807481_);" d="M2369.746,2680.118
				l-139.721-449.794l-39.619,12.525c9.755,39.697,14.433,104.344,16.634,140.33c9.367,153.141,40.474,195.757,25.404,302.59
				c-12.53,88.831-39.893,100.888-37.501,160.653c2.606,65.091,37.816,119.598,79.679,162.462l10.327,6.74L2369.746,2680.118z"/>
			
				<linearGradient id="SVGID_00000047034784889236100270000008209265825166763659_" gradientUnits="userSpaceOnUse" x1="2618.3662" y1="1854.2939" x2="2701.0991" y2="2964.6621">
				<stop  offset="0.1" style="stop-color:#311944"/>
				<stop  offset="0.6853" style="stop-color:#6D2F66"/>
				<stop  offset="1" style="stop-color:#893976"/>
			</linearGradient>
			<polygon style="fill:url(#SVGID_00000047034784889236100270000008209265825166763659_);" points="2230.025,2230.324 
				2998.473,2230.325 3119.454,2943.293 2284.95,3015.624 			"/>
			<g style="opacity:0.2;">
				
					<linearGradient id="SVGID_00000129893834275264604480000017870210599893616313_" gradientUnits="userSpaceOnUse" x1="2479.6245" y1="2484.405" x2="3080.2996" y2="2947.2209">
					<stop  offset="0" style="stop-color:#311944"/>
					<stop  offset="1" style="stop-color:#893976"/>
				</linearGradient>
				<path style="fill:url(#SVGID_00000129893834275264604480000017870210599893616313_);" d="M2998.473,2230.324h-258.874
					c-4.767,14.608-12.055,34.821-22.694,57.69c-115.771,248.869-380.799,280.229-376.011,321.127
					c7.157,61.133,597.331-25.639,612.4,58.362c7.274,40.551-117.353,132.728-247.582,167.63
					c-155.927,41.789-270.513-10.878-346.722,83.016c-25.804,31.792-37.195,69.035-42.744,94.222l803.208-69.078L2998.473,2230.324z
					"/>
			</g>
			
				<linearGradient id="SVGID_00000124852623542520658390000016219383761732638341_" gradientUnits="userSpaceOnUse" x1="2330.5637" y1="2417.729" x2="2576.6052" y2="2408.1741">
				<stop  offset="0.1" style="stop-color:#311944"/>
				<stop  offset="0.6853" style="stop-color:#6D2F66"/>
				<stop  offset="1" style="stop-color:#893976"/>
			</linearGradient>
			<path style="fill:url(#SVGID_00000124852623542520658390000016219383761732638341_);" d="M2243.046,2208.187
				c-8.657,0-20.761-1.163-33.925,7.169c-2.81,1.779-5.292,3.736-7.469,5.724l6.06-2.322c9.749-3.082,23.192,1.02,28.212,11.566
				c6.17,12.962,8.391,42.954,9.74,57.811c3.837,42.261,27.421,305.212,27.421,305.212c1.767,22.171,17.378,38.961,35.829,38.533
				l714.811-40.09c5.428-0.126,10.793-1.951,15.272-5.654c9.345-7.725,13.567-21.126,11.4-33.858l-36.213-313.173
				c-3.063-18-16.189-30.919-31.414-30.919H2243.046z"/>
			
				<linearGradient id="SVGID_00000032607292652458681970000008343863638089889960_" gradientUnits="userSpaceOnUse" x1="2716.8835" y1="3279.6963" x2="2627.8052" y2="2278.6348">
				<stop  offset="0.1" style="stop-color:#311944"/>
				<stop  offset="0.267" style="stop-color:#371B47"/>
				<stop  offset="0.4803" style="stop-color:#462150"/>
				<stop  offset="0.7186" style="stop-color:#612A5F"/>
				<stop  offset="0.9736" style="stop-color:#853774"/>
				<stop  offset="1" style="stop-color:#893976"/>
			</linearGradient>
			<path style="fill:url(#SVGID_00000032607292652458681970000008343863638089889960_);" d="M2250.696,2208.187
				c-8.657,0-18.925-1.276-30.37,2.037c-3.086,0.893-8.024,2.531-10.201,4.519c0,0,24.263-6.252,33.448,15.581
				c5.608,13.328,8.391,42.954,9.74,57.811c3.837,42.261,27.421,305.212,27.421,305.212c1.767,22.171,17.379,38.961,35.829,38.533
				l722.864-16.762c5.428-0.126,10.793-1.951,15.272-5.654c9.345-7.725,13.567-21.126,11.4-33.857l-44.267-336.501
				c-3.063-18-16.189-30.919-31.414-30.919H2250.696z"/>
			
				<linearGradient id="SVGID_00000126306400750730236090000016336792198567060116_" gradientUnits="userSpaceOnUse" x1="2760.1433" y1="3510.3328" x2="2609.2766" y2="2131.2666">
				<stop  offset="0" style="stop-color:#311944"/>
				<stop  offset="1" style="stop-color:#893976"/>
			</linearGradient>
			<path style="opacity:0.1;fill:url(#SVGID_00000126306400750730236090000016336792198567060116_);" d="M3066.1,2575.607
				l-44.266-336.501c-3.063-18-16.19-30.919-31.414-30.919h-739.723c-8.657,0-18.925-1.276-30.37,2.037
				c-3.086,0.893-8.024,2.531-10.201,4.519c0,0,24.263-6.252,33.449,15.581c0.884,2.101,1.69,4.639,2.438,7.427
				c70.25,2.998,140.5,0.84,210.749,5.732c138.87,9.417,279.301,9.417,410.37,69.681c41.925,19.277,70.667,88.533,59.293,120.529
				c-8.201,23.069-36.188,21.242-45.955,51.517c-10.271,31.839,14.357,53.473,4.027,75.817
				c-10.827,23.418-43.71,12.262-96.942,28.978c-29.329,9.21-51.825,22.796-65.875,32.482l317.749-7.368
				c5.428-0.126,10.793-1.951,15.272-5.654C3064.045,2601.74,3068.267,2588.338,3066.1,2575.607z"/>
			<g>
				
					<linearGradient id="SVGID_00000140733448573033603750000012659483237534270363_" gradientUnits="userSpaceOnUse" x1="2789.2153" y1="2692.5818" x2="2342.396" y2="2459.0171">
					<stop  offset="0" style="stop-color:#444B8C"/>
					<stop  offset="0.9964" style="stop-color:#26264F"/>
				</linearGradient>
				<path style="fill:url(#SVGID_00000140733448573033603750000012659483237534270363_);" d="M2720.162,2677.765l-90.518,23.398
					l-9.56,0.841c-9.632,0.846-17.922-8.093-18.342-19.873l-3.972-111.363c-0.42-11.78,7.202-21.546,16.859-21.702l9.609-0.155
					l90.992,12.431c8.693-0.14,16.014-5.11,16.409,5.937l3.725,104.441C2735.757,2682.768,2728.832,2677.003,2720.162,2677.765z"/>
				
					<linearGradient id="SVGID_00000098201065011815364410000001777300961003471762_" gradientUnits="userSpaceOnUse" x1="3840.481" y1="2202.5894" x2="2336.9448" y2="2741.9014">
					<stop  offset="0" style="stop-color:#444B8C"/>
					<stop  offset="0.9964" style="stop-color:#26264F"/>
				</linearGradient>
				<path style="fill:url(#SVGID_00000098201065011815364410000001777300961003471762_);" d="M2727.044,2693.188l-100.286,8.816
					c-9.632,0.846-17.922-8.093-18.342-19.873l-3.973-111.363c-0.42-11.78,7.202-21.546,16.859-21.702l100.543-1.62
					c8.693-0.14,16.072,8.785,16.466,19.833l3.726,104.441C2742.431,2682.768,2735.715,2692.425,2727.044,2693.188z"/>
			</g>
		</g>
	</g>
</g>
</svg>
