<?xml version="1.0" encoding="utf-8"?>
<!-- Generator: Adobe Illustrator 27.5.0, SVG Export Plug-In . SVG Version: 6.00 Build 0)  -->
<svg version="1.1" xmlns="http://www.w3.org/2000/svg" xmlns:xlink="http://www.w3.org/1999/xlink" x="0px" y="0px"
	 viewBox="0 0 750 500" style="enable-background:new 0 0 750 500;" xml:space="preserve">
<g id="BACKGROUND">
	<rect y="1.23" style="fill:none;" width="750" height="500"/>
</g>
<g id="OBJECTS">
	<g>
		<linearGradient id="SVGID_1_" gradientUnits="userSpaceOnUse" x1="377.9085" y1="192.0064" x2="377.9085" y2="514.5092">
			<stop  offset="0" style="stop-color:#DFDEEE"/>
			<stop  offset="1" style="stop-color:#C1BED7"/>
		</linearGradient>
		<path style="fill:none;" d="M673.004,296.908c-13.64-27.892-43.913-41.798-65.228-63.899
			c-24.471-25.384-36.284-60.593-51.057-93.063c-14.773-32.458-35.822-65.459-68.499-76.845
			c-28.979-10.103-60.523-0.902-90.889-3.895c-47.45-4.658-89.063-32.285-133.947-5.179
			c-55.368,33.441-101.339,82.497-135.496,138.617C113.6,216.11,96.18,246.152,85.095,277.512
			c-11.813,33.429-16.425,68.349-2.37,98.403c22.517,48.121,67.251,55.333,112.517,45.508
			c51.958-11.282,105.731-14.946,158.58-6.693c40.34,6.303,80.079,18.836,120.013,25.361c-17.303,1.872-27.971,4.422-27.971,7.234
			c0,5.744,44.443,10.401,99.266,10.401c54.823,0,99.266-4.657,99.266-10.401c0-4.742-30.301-8.741-71.714-9.992
			c4.601-1.297,9.213-2.79,13.837-4.513c11.629-4.335,23.881-10.068,35.579-17.073c2.693-1.618,5.352-3.294,7.964-5.04
			c0-0.012,0-0.012,0.012-0.012c0.139-0.081,0.277-0.173,0.405-0.266c0.786-0.52,1.56-1.052,2.335-1.595
			c2.358-1.63,4.682-3.318,6.947-5.063c1.479-1.133,2.924-2.289,4.358-3.479c0.809-0.659,1.607-1.329,2.404-2.023
			c1.399-1.191,2.763-2.416,4.104-3.664c0.774-0.705,1.526-1.433,2.277-2.161c2.428-2.346,4.739-4.774,6.924-7.282
			c0.948-1.075,1.873-2.162,2.763-3.26c6.381-7.86,11.513-16.391,14.865-25.546C683.904,338.717,683.708,318.778,673.004,296.908z"
			/>
		
			<linearGradient id="SVGID_00000079471170547838525300000000782220402638261126_" gradientUnits="userSpaceOnUse" x1="219.3783" y1="192.0057" x2="219.3783" y2="514.5096">
			<stop  offset="0" style="stop-color:#DFDEEE"/>
			<stop  offset="1" style="stop-color:#C1BED7"/>
		</linearGradient>
		
			<ellipse style="fill:url(#SVGID_00000079471170547838525300000000782220402638261126_);" cx="219.378" cy="436.777" rx="42.471" ry="6.238"/>
		
			<linearGradient id="SVGID_00000103960498520508497480000018025037814622090398_" gradientUnits="userSpaceOnUse" x1="346.3268" y1="192.0055" x2="346.3268" y2="514.5083">
			<stop  offset="0" style="stop-color:#DFDEEE"/>
			<stop  offset="1" style="stop-color:#C1BED7"/>
		</linearGradient>
		
			<ellipse style="fill:url(#SVGID_00000103960498520508497480000018025037814622090398_);" cx="346.327" cy="431.869" rx="60.622" ry="9.418"/>
	</g>
	<g>
		<g>
			<g>
				<rect x="252.268" y="76.215" style="fill:#C1BED7;" width="32.803" height="15.356"/>
			</g>
			<rect x="271.835" y="97.114" style="fill:#C1BED7;" width="32.803" height="15.356"/>
		</g>
	</g>
	<path style="fill:#FFFFFF;" d="M235.484,112.954c-14.537,0-26.364,11.827-26.364,26.364c0,14.537,11.827,26.364,26.364,26.364
		c14.539,0,26.366-11.827,26.366-26.364C261.85,124.781,250.022,112.954,235.484,112.954z M237.539,117.491
		c2.852,1.167,5.345,4.69,6.948,9.504c-2.191,0.431-4.545,0.698-6.948,0.793V117.491z M233.429,127.788
		c-2.397-0.096-4.75-0.363-6.946-0.795c1.602-4.813,4.095-8.335,6.946-9.502V127.788z M233.429,131.902v5.36h-8.776
		c0.104-2.194,0.372-4.305,0.777-6.284C227.952,131.493,230.633,131.8,233.429,131.902z M233.429,141.373v5.371
		c-2.766,0.102-5.482,0.408-7.997,0.923c-0.406-1.982-0.675-4.096-0.779-6.294H233.429z M233.429,150.853v10.291
		c-2.85-1.167-5.341-4.685-6.944-9.494C228.679,151.217,231.03,150.949,233.429,150.853z M237.539,150.853
		c2.394,0.096,4.744,0.364,6.945,0.796c-1.603,4.809-4.095,8.328-6.945,9.494V150.853z M237.539,146.744v-5.371h8.778
		c-0.104,2.197-0.372,4.311-0.779,6.293C243.015,147.151,240.299,146.846,237.539,146.744z M237.539,137.262v-5.36
		c2.802-0.102,5.487-0.409,8.001-0.923c0.405,1.979,0.673,4.089,0.777,6.283H237.539z M220.547,137.262h-7.212
		c0.311-3.379,1.392-6.53,3.048-9.304c1.5,0.778,3.201,1.455,5.06,2.02C220.963,132.266,220.655,134.705,220.547,137.262z
		 M220.547,141.373c0.108,2.561,0.417,5.003,0.897,7.293c-1.86,0.565-3.561,1.241-5.059,2.016c-1.658-2.775-2.74-5.928-3.051-9.309
		H220.547z M250.423,141.373h7.212c-0.311,3.38-1.393,6.532-3.05,9.306c-1.5-0.777-3.201-1.452-5.059-2.016
		C250.006,146.374,250.315,143.933,250.423,141.373z M250.423,137.262c-0.108-2.557-0.416-4.996-0.895-7.282
		c1.861-0.566,3.562-1.242,5.061-2.019c1.655,2.773,2.736,5.923,3.047,9.301H250.423z M252.136,124.605
		c-1.095,0.526-2.333,0.988-3.663,1.399c-0.814-2.489-1.851-4.705-3.069-6.577C247.972,120.712,250.252,122.475,252.136,124.605z
		 M225.565,119.426c-1.218,1.872-2.255,4.088-3.069,6.577c-1.328-0.41-2.566-0.873-3.662-1.4
		C220.718,122.473,222.998,120.711,225.565,119.426z M218.838,154.036c1.094-0.525,2.332-0.986,3.661-1.396
		c0.813,2.486,1.849,4.699,3.066,6.569C223,157.925,220.722,156.164,218.838,154.036z M245.405,159.208
		c1.217-1.87,2.253-4.084,3.067-6.571c1.328,0.409,2.566,0.871,3.661,1.396C250.249,156.163,247.97,157.924,245.405,159.208z"/>
	<g>
		<g>
			
				<rect x="145.708" y="358.279" transform="matrix(-1 -1.224647e-16 1.224647e-16 -1 324.2197 731.9136)" style="fill:#DFDEEE;" width="32.803" height="15.356"/>
			
				<rect x="106.576" y="358.279" transform="matrix(-1 -1.224647e-16 1.224647e-16 -1 245.9553 731.9136)" style="fill:#DFDEEE;" width="32.803" height="15.356"/>
		</g>
		
			<rect x="126.142" y="379.178" transform="matrix(-1 -1.224647e-16 1.224647e-16 -1 285.0875 773.7124)" style="fill:#DFDEEE;" width="32.803" height="15.356"/>
	</g>
	<g>
		<g>
			<g>
				<g>
					<path style="fill:#0797A7;" d="M542.706,359.119l-15.135,0.936l11.178,3.212c-3.968,3.946-7.166,6.955-11.916,11.062
						l-22.045-1.873l16.808,6.397c-5.476,4.486-8.333,6.902-14.34,10.637c-9.673-2.621-20.115-4.859-20.115-4.859l12.916,9.29
						c-7.316,4.146-14.811,7.341-22.184,8.848c-1.189,0.238-0.049,0.038-1.189,0.238l-13.514-4.468l5.746,5.774
						c-31.121,4.205-39.671-7.274-39.671-7.274s0.052-0.592,0.31-1.73c0.204-0.854,0.521-2.041,1.053-3.497
						c2.024-5.715,7.059-15.74,19.432-28.357l0.822,10.626l4.202-13.708c1.134-0.84,2.298-1.693,3.527-2.533
						c3.921-2.736,3.155-2.812,7.932-4.747l0.997,14.819l5.85-17.707c2.833-1.091,5.776-2.056,8.785-2.911l-2.285,14.168
						l9.294-15.774c5.703-1.462,7.775-1.818,13.645-2.648l-2.533,14.718l10.317-15.492c8.84-1.062,8.482-0.926,16.111-1.076
						l-3.742,12.271l9.824-12.815c12.751-0.022,25.642,0.932,25.642,0.932S553.209,348.405,542.706,359.119z"/>
				</g>
			</g>
			<g>
				<g>
					<path style="fill:#0CC3BE;" d="M509.348,297.532l-9.69,7.844l9.018-3.179c-0.775,4.535-1.482,8.075-2.705,13.091l-15.658,9.259
						l14.307-3.731c-1.528,5.616-2.289,8.597-4.532,13.962c-7.728,2.857-15.788,6.338-15.788,6.338l13.08,0.063
						c-2.923,6.265-6.419,11.979-10.637,16.505c-0.683,0.727-0.015,0.048-0.683,0.727l-11.181,3.452l6.601,1.127
						c-18.837,17.657-30.037,14.047-30.037,14.047s-0.248-0.421-0.617-1.306c-0.271-0.669-0.624-1.615-0.962-2.844
						c-1.37-4.793-2.779-13.908-0.509-28.258l5.618,6.725l-3.723-11.184c0.359-1.103,0.731-2.23,1.154-3.378
						c1.321-3.702,0.772-3.388,3.049-6.962l7.734,9.449l-4.526-14.649c1.377-2.082,2.888-4.132,4.495-6.139l5.226,10.578
						l-1.298-14.997c3.123-3.699,4.34-4.926,7.875-8.28l5.322,11.065l-0.478-15.296c5.414-4.927,5.239-4.665,10.277-8.403
						l3.346,10.003l0.468-13.267c8.529-6.095,17.617-11.604,17.617-11.604S511.273,285.347,509.348,297.532z"/>
				</g>
			</g>
		</g>
		<g>
			<g>
				<g>
					<path style="fill:#0797A7;" d="M75.703,289.767l13.525,6.856l-11.536-1.48c2.079,5.196,3.823,9.225,6.557,14.878l20.983,7.015
						l-17.967-0.787c3.25,6.289,4.916,9.64,8.952,15.449c9.92,1.426,20.393,3.509,20.393,3.509l-15.54,3.412
						c5.074,6.705,10.69,12.608,16.862,16.914c0.998,0.69,0.03,0.054,0.998,0.69l14.178,1.252l-7.563,3.025
						c26.907,16.192,39.306,9.041,39.306,9.041s0.187-0.564,0.401-1.711c0.151-0.865,0.33-2.08,0.418-3.628
						c0.406-6.049-0.244-17.249-6.605-33.735l-4.965,9.431l1.574-14.251c-0.708-1.22-1.439-2.465-2.235-3.723
						c-2.515-4.066-1.783-3.832-5.402-7.501l-6.787,13.211l1.645-18.576c-2.169-2.125-4.489-4.177-6.912-6.154l-3.516,13.914
						l-2.283-18.166c-4.657-3.602-6.418-4.75-11.479-7.838l-3.506,14.517l-3.334-18.312c-7.696-4.477-7.421-4.211-14.366-7.371
						l-1.427,12.749l-3.942-15.658c-11.698-5.073-23.912-9.304-23.912-9.304S70.305,275.768,75.703,289.767z"/>
				</g>
			</g>
			<path style="fill:#0CC3BE;" d="M92.965,196.351c4.054,5.458,5.95,12.898,5.059,19.572c0.371,1.154,0.795,2.475,1.273,3.959
				c2.514-6.143,6.921-11.424,12.202-15.378c-1.564,6.669-6.08,12.964-11.814,16.578c0.792,2.444,1.71,5.246,2.765,8.369
				c0.489,1.437,1.002,2.942,1.536,4.51c0.259,0.741,0.532,1.494,0.809,2.258c4.369-8.653,11.686-15.546,20.146-20.161
				c-3.325,9.17-11.008,17.116-19.949,20.707c0.243,0.67,0.489,1.343,0.737,2.034c1.175,3.361,2.56,6.859,3.967,10.57
				c0.657,1.661,1.339,3.357,2.04,5.073c4.338-10.757,12.291-19.747,21.888-26.221c-2.741,11.567-10.889,22.143-21.253,27.765
				c1.649,4,3.412,8.121,5.285,12.302c0.055,0.036,0.113,0.068,0.167,0.105c-0.037,0.007-0.075,0.012-0.112,0.02
				c0.644,1.435,1.295,2.875,1.964,4.32c0.067,0.142,0.133,0.28,0.2,0.422c4.351-12.415,14.193-23.258,26.054-28.474
				c-4.869,12.52-14.086,22.85-25.237,30.201c3.423,7.193,6.844,13.818,10.064,19.733c0.273,0.482,0.539,0.957,0.807,1.435
				c2.655-15.914,12.576-31.038,26.067-39.482c-3.669,15.962-13.102,30.002-25.392,40.682c1.256,2.243,2.466,4.402,3.658,6.36
				c0.82,1.375,1.602,2.733,2.369,3.996c0.775,1.244,1.519,2.438,2.229,3.578c0.02,0.032,0.039,0.061,0.059,0.093
				c4.357-14.731,15.395-27.897,29.059-34.433c-5.173,14.671-15.518,26.941-28.204,35.787c5.177,8.18,8.497,12.815,8.39,13.33
				c-0.062,0.34-2.713-2.504-6.969-8.338c-11.468,5.571-24.61,6.801-37.123,4.649c10.515-6.803,24.421-8.914,36.405-5.641
				c-0.673-0.936-1.382-1.942-2.124-3.016c-0.031,0.021-0.062,0.044-0.093,0.065c0.011-0.048,0.027-0.095,0.039-0.142
				c-0.042-0.06-0.081-0.116-0.123-0.177c-0.745-1.1-1.526-2.253-2.339-3.453c-0.805-1.228-1.625-2.558-2.483-3.912
				c-0.309-0.478-0.621-0.982-0.932-1.484c-15.38,4.705-32.001,3.775-47.236-1.208c14.19-6.481,31.625-6.738,45.972-0.867
				c-1.03-1.724-2.081-3.532-3.172-5.39c-1.373-2.428-2.779-4.99-4.202-7.673c-16.161,1.894-32.517-2.129-46.706-9.96
				c15.278-3.744,32.62-0.662,45.654,7.952c-2.062-3.954-4.15-8.15-6.22-12.572c-0.926-2.001-1.824-3.997-2.697-5.982
				c-13.106,2.039-26.584-0.573-38.515-6.292c12.187-3.738,26.282-2.221,37.443,3.821c-2.017-4.682-3.879-9.279-5.582-13.693
				c-11.754-0.645-23.522-6.497-30.867-15.477c11.008,1.1,21.293,5.865,29.846,12.783c-1.3-3.562-2.559-6.948-3.618-10.199
				c-0.578-1.731-1.151-3.393-1.669-5.007c-0.21-0.681-0.415-1.344-0.618-2.002c-7.575,0.845-15.246-2.321-20.089-8.386
				c7.196-0.365,13.956,2.251,19.581,6.738c-0.104-0.337-0.211-0.684-0.313-1.014c-0.943-3.117-1.743-5.921-2.411-8.377
				c-0.011,0.006-0.022,0.014-0.034,0.02c0.007-0.021,0.015-0.041,0.022-0.061c-0.105-0.386-0.208-0.767-0.306-1.135
				c-6.618-1.735-12.803-6.272-16.241-11.997c6.077,1.828,11.469,5.5,15.751,10.132c-0.214-0.828-0.402-1.585-0.576-2.295
				C93.871,210.311,92.559,203.227,92.965,196.351z"/>
			<path style="fill:#0CC3BE;" d="M146.536,128.135c4.948,4.662,12.118,7.412,18.85,7.305c1.103,0.503,2.366,1.077,3.783,1.725
				c-6.394,1.781-12.153,5.543-16.694,10.327c6.805-0.777,13.583-4.528,17.841-9.802c2.335,1.071,5.011,2.309,7.99,3.721
				c1.37,0.653,2.805,1.338,4.301,2.051c0.706,0.344,1.422,0.702,2.148,1.066c-9.103,3.332-16.801,9.796-22.37,17.66
				c9.495-2.234,18.281-8.939,22.89-17.4c0.637,0.32,1.277,0.642,1.935,0.968c3.201,1.558,6.514,3.342,10.036,5.172
				c1.573,0.846,3.178,1.721,4.801,2.617c-11.189,3.055-21.044,9.907-28.592,18.684c11.807-1.375,23.26-8.236,30.052-17.874
				c3.78,2.103,7.669,4.335,11.603,6.682c0.029,0.059,0.054,0.12,0.084,0.178c0.012-0.036,0.021-0.073,0.033-0.109
				c1.351,0.806,2.704,1.621,4.062,2.454c0.133,0.083,0.263,0.165,0.396,0.248c-12.838,2.876-24.753,11.387-31.315,22.56
				c13.002-3.377,24.335-11.328,32.935-21.547c6.745,4.237,12.927,8.407,18.426,12.294c0.447,0.327,0.888,0.646,1.331,0.968
				c-16.115,0.783-32.292,8.875-42.249,21.29c16.281-1.785,31.324-9.518,43.363-20.48c2.081,1.509,4.085,2.962,5.891,4.374
				c1.27,0.974,2.528,1.909,3.693,2.819c1.145,0.915,2.244,1.792,3.294,2.63c0.029,0.024,0.056,0.046,0.086,0.069
				c-15.139,2.611-29.501,12.041-37.583,24.85c15.174-3.429,28.565-12.274,38.829-23.844c7.521,6.095,11.738,9.932,12.262,9.886
				c0.345-0.022-2.171-2.987-7.469-7.893c6.869-10.741,9.621-23.65,8.941-36.329c-7.982,9.651-11.698,23.216-9.844,35.5
				c-0.852-0.778-1.768-1.599-2.748-2.461c0.025-0.029,0.05-0.056,0.075-0.085c-0.049,0.006-0.097,0.016-0.146,0.022
				c-0.055-0.049-0.106-0.094-0.161-0.143c-1.006-0.868-2.06-1.778-3.157-2.726c-1.126-0.942-2.351-1.912-3.596-2.921
				c-0.438-0.363-0.903-0.731-1.366-1.099c6.465-14.727,7.477-31.344,4.302-47.055c-8.09,13.338-10.376,30.625-6.216,45.558
				c-1.592-1.224-3.265-2.478-4.984-3.779c-2.251-1.646-4.632-3.341-7.132-5.067c3.764-15.83,1.673-32.544-4.451-47.549
				c-5.498,14.738-4.457,32.321,2.579,46.269c-3.687-2.508-7.611-5.071-11.762-7.642c-1.879-1.153-3.757-2.277-5.627-3.375
				c3.552-12.779,2.528-26.47-1.762-38.986c-5.132,11.668-5.267,25.844-0.566,37.633c-4.416-2.548-8.763-4.934-12.95-7.139
				c0.729-11.749-3.713-24.119-11.776-32.46c-0.189,11.062,3.345,21.831,9.219,31.132c-3.387-1.707-6.602-3.351-9.708-4.782
				c-1.651-0.776-3.236-1.538-4.778-2.24c-0.652-0.288-1.287-0.568-1.916-0.846c1.721-7.425-0.529-15.413-5.988-20.929
				c-1.201,7.104,0.609,14.124,4.411,20.233c-0.323-0.143-0.655-0.289-0.971-0.429c-2.986-1.3-5.678-2.421-8.039-3.371
				c0.008-0.01,0.016-0.02,0.023-0.031c-0.021,0.005-0.042,0.01-0.063,0.015c-0.371-0.149-0.737-0.296-1.091-0.436
				c-0.952-6.775-4.737-13.447-10.023-17.528c1.108,6.249,4.127,12.031,8.228,16.824c-0.798-0.308-1.527-0.584-2.212-0.839
				C160.295,130.661,153.412,128.533,146.536,128.135z"/>
		</g>
		<g>
			<path style="fill:#FD7658;" d="M469.994,197.512v196.024c0,0.994-0.117,1.956-0.352,2.875c-1.283,5.119-5.92,8.912-11.434,8.912
				H145.514c-6.508,0-11.776-5.279-11.776-11.787V197.512c0-6.508,5.268-11.776,11.776-11.776h312.694
				C464.716,185.736,469.994,191.004,469.994,197.512z"/>
			<path style="fill:#F88859;" d="M469.994,197.512v165.216c-20.848-2.511-41.462-9.382-57.416-22.889
				c-17.653-14.939-28.585-38.972-23.862-61.605c-11.947,31.844-50.695,48.461-84.003,41.558
				c-33.308-6.903-60.258-33.03-75.486-63.454c-8.057-16.093-20.143-45.116-21.853-70.602h250.833
				C464.716,185.736,469.994,191.004,469.994,197.512z"/>
			<path style="fill:#DE624C;" d="M469.642,396.41c-1.283,5.119-5.92,8.912-11.434,8.912H145.514
				c-6.508,0-11.776-5.279-11.776-11.787v-24.503c2.073,3.067,4.531,5.877,7.288,8.292c12.342,10.836,29.418,14.886,45.843,14.8
				c16.414-0.086,32.55-3.89,48.664-6.999c51.603-9.949,104.552-12.876,156.924-8.688
				C418.937,378.565,447.052,383.534,469.642,396.41z"/>
			<g>
				<g>
					<path style="fill:#FDA859;" d="M206.139,264.587h-39.128c-3.064,0-5.548-2.484-5.548-5.548v-39.128
						c0-3.064,2.484-5.548,5.548-5.548h39.128c3.064,0,5.548,2.484,5.548,5.548v39.128
						C211.687,262.103,209.203,264.587,206.139,264.587z"/>
				</g>
				<g>
					<g>
						<path style="fill:#FCC700;" d="M205.075,262.45h-37c-2.471,0-4.475-2.003-4.475-4.475v-37c0-2.471,2.003-4.475,4.475-4.475h37
							c2.471,0,4.475,2.003,4.475,4.475v37C209.55,260.447,207.546,262.45,205.075,262.45z"/>
					</g>
					<g>
						<path style="fill:#FDA859;" d="M194.803,255.504h-16.456c-2.681,0-4.862-2.181-4.862-4.862v-22.334
							c0-2.681,2.181-4.862,4.862-4.862h16.456c2.681,0,4.862,2.181,4.862,4.862v22.334
							C199.665,253.323,197.484,255.504,194.803,255.504z M178.347,227.721c-0.324,0-0.588,0.264-0.588,0.587v22.334
							c0,0.324,0.264,0.588,0.588,0.588h16.456c0.324,0,0.588-0.264,0.588-0.588v-22.334c0-0.324-0.264-0.587-0.588-0.587H178.347z"
							/>
					</g>
					<g>
						<g>
							<rect x="163.6" y="229.323" style="fill:#FDA859;" width="12.022" height="4.274"/>
						</g>
						<g>
							<rect x="163.6" y="237.338" style="fill:#FDA859;" width="12.022" height="4.274"/>
						</g>
						<g>
							<rect x="163.6" y="245.352" style="fill:#FDA859;" width="12.022" height="4.274"/>
						</g>
					</g>
					<g>
						<g>
							<rect x="197.528" y="229.323" style="fill:#FDA859;" width="12.022" height="4.274"/>
						</g>
						<g>
							<rect x="197.528" y="237.338" style="fill:#FDA859;" width="12.022" height="4.274"/>
						</g>
						<g>
							<rect x="197.528" y="245.352" style="fill:#FDA859;" width="12.022" height="4.274"/>
						</g>
					</g>
				</g>
			</g>
			<g>
				<path style="fill:#FFFFFF;" d="M167.799,288.017v13.968h-3.646v-10.979h-2.69v-2.989H167.799z"/>
				<path style="fill:#FFFFFF;" d="M183.298,297.581c0,2.69-2.212,4.563-5.679,4.563c-2.032,0-4.144-0.677-5.499-1.714l1.475-2.81
					c1.096,1.137,2.411,1.734,3.746,1.734c1.534,0,2.391-0.638,2.391-1.734c0-1.115-0.857-1.694-2.411-1.694h-2.351v-1.952
					l3.267-3.128h-5.38l-0.02-2.81h9.764v2.112l-3.766,3.507l0.698,0.099C181.743,294.095,183.298,295.449,183.298,297.581z"/>
				<path style="fill:#FFFFFF;" d="M195.827,294.991c0,4.563-1.952,7.093-5.459,7.093c-3.547,0-5.48-2.53-5.48-7.093
					c0-4.563,1.933-7.073,5.48-7.073C193.875,287.918,195.827,290.429,195.827,294.991z M188.375,294.991
					c0,3.188,0.578,4.523,1.993,4.523c1.395,0,1.972-1.335,1.972-4.523c0-3.208-0.578-4.523-1.972-4.523
					C188.953,290.468,188.375,291.783,188.375,294.991z"/>
				<path style="fill:#FFFFFF;" d="M208.377,287.997v2.531l-5.261,11.457h-3.846l5.101-11.039h-3.906v1.953h-3.228v-4.902H208.377z"
					/>
				<path style="fill:#FFFFFF;" d="M236.7,299.375c2.172,0,3.228-1.395,3.188-3.687c-0.657,0.937-1.733,1.514-3.248,1.514
					c-2.71,0-4.423-1.813-4.423-4.543c0-2.949,2.032-4.801,5.121-4.801c3.686,0,5.918,2.63,5.918,6.914
					c0,4.463-2.471,7.373-6.336,7.373c-1.534,0-3.268-0.458-4.444-1.156l1.355-2.511C234.628,299.056,235.644,299.375,236.7,299.375
					z M235.485,292.68c0,1.196,0.697,1.913,1.933,1.913c1.355,0,2.092-0.837,2.072-1.972c0.02-1.016-0.617-1.913-2.012-1.913
					C236.242,290.707,235.485,291.424,235.485,292.68z"/>
				<path style="fill:#FFFFFF;" d="M252.159,288.017v13.968h-3.646v-10.979h-2.69v-2.989H252.159z"/>
				<path style="fill:#FFFFFF;" d="M264.449,288.017v13.968h-3.646v-10.979h-2.69v-2.989H264.449z"/>
				<path style="fill:#FFFFFF;" d="M279.948,297.581c0,2.69-2.212,4.563-5.678,4.563c-2.032,0-4.145-0.677-5.5-1.714l1.475-2.81
					c1.096,1.137,2.411,1.734,3.746,1.734c1.534,0,2.391-0.638,2.391-1.734c0-1.115-0.857-1.694-2.411-1.694h-2.351v-1.952
					l3.267-3.128h-5.379l-0.02-2.81h9.763v2.112l-3.766,3.507l0.698,0.099C278.393,294.095,279.948,295.449,279.948,297.581z"/>
				<path style="fill:#FFFFFF;" d="M315.384,294.991c0,4.563-1.952,7.093-5.459,7.093c-3.547,0-5.48-2.53-5.48-7.093
					c0-4.563,1.933-7.073,5.48-7.073C313.432,287.918,315.384,290.429,315.384,294.991z M307.932,294.991
					c0,3.188,0.578,4.523,1.993,4.523c1.395,0,1.972-1.335,1.972-4.523c0-3.208-0.578-4.523-1.972-4.523
					C308.51,290.468,307.932,291.783,307.932,294.991z"/>
				<path style="fill:#FFFFFF;" d="M322.215,293.058c3.288,0,5.42,1.733,5.42,4.224c0,2.949-2.252,4.862-5.699,4.862
					c-1.873,0-4.025-0.698-5.539-1.753l1.455-2.83c1.096,1.156,2.371,1.753,3.646,1.753c1.415,0,2.212-0.638,2.212-1.773
					c0-1.056-0.797-1.654-2.192-1.654c-0.737,0-3.028,0.02-3.905,0.08v-7.971h9.385v2.949h-6.037v2.132
					C321.259,293.058,321.936,293.058,322.215,293.058z"/>
				<path style="fill:#FFFFFF;" d="M333.35,299.375c2.172,0,3.228-1.395,3.188-3.687c-0.657,0.937-1.733,1.514-3.248,1.514
					c-2.71,0-4.423-1.813-4.423-4.543c0-2.949,2.032-4.801,5.121-4.801c3.686,0,5.918,2.63,5.918,6.914
					c0,4.463-2.471,7.373-6.337,7.373c-1.534,0-3.268-0.458-4.443-1.156l1.355-2.511
					C331.278,299.056,332.294,299.375,333.35,299.375z M332.135,292.68c0,1.196,0.697,1.913,1.933,1.913
					c1.355,0,2.092-0.837,2.072-1.972c0.02-1.016-0.617-1.913-2.013-1.913C332.892,290.707,332.135,291.424,332.135,292.68z"/>
				<path style="fill:#FFFFFF;" d="M347.972,292.062c0-0.757-0.578-1.195-1.594-1.195c-1.136,0-2.57,0.677-3.865,1.773l-1.375-2.69
					c1.793-1.315,3.746-2.112,5.778-2.112c2.83,0,4.882,1.475,4.882,3.687c0,1.514-1.156,3.088-2.71,4.663l-2.869,2.869h5.978v2.929
					h-10.64l-0.02-2.411l5.081-5.221C347.394,293.556,347.972,292.66,347.972,292.062z"/>
				<path style="fill:#FFFFFF;" d="M383.17,292.062c0-0.757-0.578-1.195-1.594-1.195c-1.136,0-2.57,0.677-3.865,1.773l-1.375-2.69
					c1.793-1.315,3.746-2.112,5.778-2.112c2.83,0,4.882,1.475,4.882,3.687c0,1.514-1.156,3.088-2.71,4.663l-2.869,2.869h5.978v2.929
					h-10.64l-0.02-2.411l5.081-5.221C382.592,293.556,383.17,292.66,383.17,292.062z"/>
				<path style="fill:#FFFFFF;" d="M400.003,287.997v2.531l-5.26,11.457h-3.846l5.101-11.039h-3.906v1.953h-3.228v-4.902H400.003z"
					/>
				<path style="fill:#FFFFFF;" d="M408.587,288.017v13.968h-3.646v-10.979h-2.69v-2.989H408.587z"/>
				<path style="fill:#FFFFFF;" d="M420.878,288.017v13.968h-3.646v-10.979h-2.69v-2.989H420.878z"/>
			</g>
			<g>
				<g>
					<path style="fill:#FFFFFF;" d="M165.538,327.388v8.984h-2.345v-7.062h-1.73v-1.922H165.538z"/>
					<path style="fill:#FFFFFF;" d="M173.45,327.388v8.984h-2.345v-7.062h-1.73v-1.922H173.45z"/>
					<path style="fill:#FFFFFF;" d="M181.695,325.991l-4.152,11.791h-1.922l4.152-11.791H181.695z"/>
					<path style="fill:#FFFFFF;" d="M185.376,329.99c0-0.487-0.372-0.769-1.025-0.769c-0.73,0-1.654,0.436-2.486,1.141l-0.884-1.73
						c1.154-0.845,2.41-1.359,3.717-1.359c1.82,0,3.14,0.949,3.14,2.371c0,0.975-0.743,1.987-1.743,2.999l-1.846,1.846h3.845v1.884
						h-6.844l-0.013-1.551l3.268-3.358C185.004,330.951,185.376,330.374,185.376,329.99z"/>
					<path style="fill:#FFFFFF;" d="M195.889,333.54c0,1.73-1.422,2.935-3.652,2.935c-1.307,0-2.666-0.435-3.537-1.102l0.948-1.807
						c0.705,0.73,1.551,1.116,2.41,1.116c0.987,0,1.538-0.41,1.538-1.116c0-0.717-0.551-1.089-1.551-1.089h-1.512v-1.255
						l2.102-2.012h-3.46l-0.012-1.807h6.28v1.359l-2.423,2.255l0.449,0.065C194.889,331.297,195.889,332.169,195.889,333.54z"/>
				</g>
				<g>
					<path style="fill:#FFFFFF;" d="M162.517,319.005l0.936,2.712l0.941-2.712h1.005l-1.465,3.75h-1.017l-1.455-3.75H162.517z"/>
					<path style="fill:#FFFFFF;" d="M167.953,322.092h-1.621l-0.262,0.663h-1.005l1.61-3.75h1.005l1.572,3.75h-1.043
						L167.953,322.092z M167.664,321.343l-0.513-1.337l-0.524,1.337H167.664z"/>
					<path style="fill:#FFFFFF;" d="M170.564,319.005v2.916h1.588v0.834h-2.567v-3.75H170.564z"/>
					<path style="fill:#FFFFFF;" d="M173.572,319.005v3.75h-0.979v-3.75H173.572z"/>
					<path style="fill:#FFFFFF;" d="M177.907,320.878c0,1.118-0.818,1.877-2.032,1.877h-1.578v-3.75h1.615
						C177.1,319.005,177.907,319.765,177.907,320.878z M176.907,320.888c0-0.647-0.423-1.085-1.016-1.085h-0.615v2.16h0.663
						C176.506,321.963,176.907,321.53,176.907,320.888z"/>
					<path style="fill:#FFFFFF;" d="M182.421,319.005l-0.005,0.782h-1.818v0.834h1.679v0.781h-1.679v1.354h-0.979v-3.75H182.421z"/>
					<path style="fill:#FFFFFF;" d="M185.113,322.755l-0.545-1.037h-0.021h-0.706v1.037h-0.979v-3.75h1.685
						c0.995,0,1.562,0.482,1.562,1.316c0,0.567-0.235,0.984-0.669,1.208l0.781,1.225H185.113z M183.841,320.936h0.711
						c0.396,0,0.626-0.203,0.626-0.582c0-0.37-0.23-0.567-0.626-0.567h-0.711V320.936z"/>
					<path style="fill:#FFFFFF;" d="M190.544,320.878c0,1.097-0.866,1.92-2.027,1.92c-1.161,0-2.027-0.823-2.027-1.92
						c0-1.091,0.866-1.898,2.027-1.898C189.677,318.979,190.544,319.792,190.544,320.878z M187.495,320.883
						c0,0.611,0.476,1.08,1.032,1.08c0.561,0,1.011-0.47,1.011-1.08c0-0.609-0.449-1.07-1.011-1.07
						C187.966,319.813,187.495,320.273,187.495,320.883z"/>
					<path style="fill:#FFFFFF;" d="M192.095,319.005l0.995,2.187l0.995-2.187h1.07v3.75h-0.867l-0.005-2.374l-0.871,1.999h-0.642
						l-0.872-1.999v2.374h-0.872v-3.75H192.095z"/>
				</g>
			</g>
			<rect x="161.463" y="360.19" style="fill:#FFFFFF;" width="158.065" height="9.851"/>
		</g>
	</g>
	<g>
		<g>
			<path style="fill:#FDA859;" d="M369.682,412.225h-63.435h-3.806v7.087c0,8.692,15.904,15.738,35.531,15.738
				c19.613,0,35.517-7.045,35.517-15.738v-7.087H369.682z"/>
			<g>
				<path style="fill:#FCC700;" d="M373.5,412.217c0,0.097,0,0.18-0.014,0.277c-0.318,8.568-16.111,15.461-35.517,15.461
					c-19.627,0-35.531-7.045-35.531-15.737c0-0.955,0.194-1.896,0.581-2.81c2.976-7.35,17.495-12.928,34.949-12.928
					c17.44,0,31.973,5.578,34.949,12.928c0.346,0.817,0.54,1.675,0.568,2.533C373.5,412.038,373.5,412.121,373.5,412.217z"/>
				<g>
					<ellipse style="fill:#FDA859;" cx="337.969" cy="412.219" rx="28.893" ry="12.8"/>
				</g>
				<g>
					<g>
						<path style="fill:#FCC700;" d="M341.24,416.982v2.687h-5.274v-2.705c-3.726-0.229-7.334-0.914-9.991-1.88l2.815-2.512
							c2.856,1.089,7.176,1.862,10.071,1.862c2.141,0,3.489-0.352,3.489-1.001c0-2.09-14.63-0.826-14.63-5.181
							c0-1.95,3.171-3.302,8.245-3.671V402h5.274v2.564c3.251,0.158,6.343,0.65,8.681,1.318l-2.735,2.547
							c-2.934-0.738-6.66-1.317-8.961-1.317c-1.744,0-2.893,0.281-2.893,0.843c0,2.037,14.63,0.878,14.63,5.304
							C349.962,415.418,346.235,416.683,341.24,416.982z"/>
					</g>
				</g>
			</g>
		</g>
		<g>
			<path style="fill:#FDA859;" d="M382.146,404.197h-63.435h-3.806v7.087c0,8.692,15.904,15.738,35.531,15.738
				c19.613,0,35.517-7.045,35.517-15.738v-7.087H382.146z"/>
			<g>
				<path style="fill:#FCC700;" d="M385.963,404.19c0,0.097,0,0.18-0.014,0.277c-0.318,8.568-16.111,15.461-35.517,15.461
					c-19.627,0-35.531-7.045-35.531-15.738c0-0.955,0.194-1.896,0.581-2.81c2.976-7.35,17.495-12.928,34.949-12.928
					c17.44,0,31.973,5.578,34.949,12.928c0.346,0.817,0.54,1.675,0.567,2.533C385.963,404.01,385.963,404.093,385.963,404.19z"/>
				<g>
					<ellipse style="fill:#FDA859;" cx="350.432" cy="404.192" rx="28.893" ry="12.8"/>
				</g>
				<g>
					<g>
						<path style="fill:#FCC700;" d="M353.704,408.954v2.687h-5.274v-2.705c-3.726-0.229-7.334-0.914-9.991-1.88l2.815-2.512
							c2.856,1.089,7.176,1.862,10.071,1.862c2.141,0,3.489-0.352,3.489-1.001c0-2.09-14.63-0.826-14.63-5.181
							c0-1.95,3.171-3.302,8.245-3.671v-2.582h5.274v2.564c3.251,0.158,6.343,0.65,8.681,1.318l-2.735,2.546
							c-2.934-0.737-6.66-1.317-8.961-1.317c-1.744,0-2.893,0.281-2.893,0.843c0,2.037,14.63,0.878,14.63,5.304
							C362.426,407.391,358.698,408.656,353.704,408.954z"/>
					</g>
				</g>
			</g>
		</g>
		<g>
			<path style="fill:#FDA859;" d="M364.509,387.852h-63.435h-3.806v7.087c0,8.692,15.904,15.738,35.531,15.738
				c19.613,0,35.517-7.045,35.517-15.738v-7.087H364.509z"/>
			<g>
				<path style="fill:#FCC700;" d="M368.327,387.844c0,0.097,0,0.18-0.014,0.277c-0.318,8.568-16.111,15.461-35.517,15.461
					c-19.627,0-35.53-7.045-35.53-15.738c0-0.955,0.194-1.896,0.581-2.81c2.976-7.35,17.495-12.928,34.949-12.928
					c17.44,0,31.973,5.578,34.949,12.928c0.346,0.817,0.54,1.675,0.567,2.533C368.327,387.664,368.327,387.747,368.327,387.844z"/>
				<g>
					<ellipse style="fill:#FDA859;" cx="332.796" cy="387.846" rx="28.893" ry="12.8"/>
				</g>
				<g>
					<g>
						<path style="fill:#FCC700;" d="M336.067,392.608v2.687h-5.274v-2.705c-3.726-0.229-7.334-0.914-9.991-1.88l2.815-2.512
							c2.856,1.089,7.176,1.862,10.071,1.862c2.141,0,3.489-0.352,3.489-1.001c0-2.09-14.63-0.826-14.63-5.181
							c0-1.95,3.171-3.302,8.245-3.671v-2.582h5.274v2.564c3.251,0.158,6.343,0.65,8.681,1.318l-2.735,2.547
							c-2.934-0.737-6.66-1.317-8.961-1.317c-1.744,0-2.893,0.281-2.893,0.843c0,2.037,14.63,0.878,14.63,5.304
							C344.789,391.045,341.062,392.31,336.067,392.608z"/>
					</g>
				</g>
			</g>
		</g>
		<g>
			<path style="fill:#FDA859;" d="M388.782,372.471h-63.435h-3.806v7.086c0,8.692,15.904,15.738,35.531,15.738
				c19.613,0,35.517-7.045,35.517-15.738v-7.086H388.782z"/>
			<g>
				<path style="fill:#FCC700;" d="M392.6,372.464c0,0.097,0,0.18-0.014,0.277c-0.318,8.568-16.111,15.461-35.517,15.461
					c-19.627,0-35.531-7.045-35.531-15.738c0-0.955,0.194-1.896,0.581-2.81c2.976-7.35,17.495-12.928,34.949-12.928
					c17.44,0,31.973,5.578,34.949,12.928c0.346,0.817,0.54,1.675,0.567,2.533C392.6,372.284,392.6,372.367,392.6,372.464z"/>
				<g>
					<ellipse style="fill:#FDA859;" cx="357.069" cy="372.466" rx="28.893" ry="12.8"/>
				</g>
				<g>
					<g>
						<path style="fill:#FCC700;" d="M360.34,377.228v2.687h-5.274v-2.705c-3.726-0.229-7.334-0.914-9.991-1.88l2.815-2.512
							c2.856,1.089,7.176,1.862,10.071,1.862c2.14,0,3.489-0.352,3.489-1.001c0-2.09-14.63-0.826-14.63-5.181
							c0-1.95,3.171-3.302,8.245-3.671v-2.582h5.274v2.564c3.251,0.158,6.343,0.65,8.681,1.318l-2.735,2.546
							c-2.934-0.737-6.66-1.317-8.961-1.317c-1.744,0-2.893,0.281-2.893,0.843c0,2.037,14.63,0.878,14.63,5.304
							C369.063,375.665,365.335,376.93,360.34,377.228z"/>
					</g>
				</g>
			</g>
		</g>
	</g>
	<g>
		
			<ellipse transform="matrix(0.8474 -0.531 0.531 0.8474 -178.0582 177.4126)" style="fill:#FCC700;" cx="219.608" cy="398.467" rx="35.576" ry="35.576"/>
		<g>
			
				<ellipse transform="matrix(0.986 -0.1667 0.1667 0.986 -63.3671 42.1966)" style="fill:#FDA859;" cx="219.608" cy="398.466" rx="28.934" ry="28.934"/>
		</g>
		<g>
			<g>
				<path style="fill:#FCC700;" d="M228.552,409.594l2.617,5.481l-4.766,2.276l-2.634-5.517c-3.59,1.141-7.518,1.301-10.859,0.477
					l0.098-6.337c3.641,0.989,8.298,0.702,10.914-0.548c1.934-0.924,2.811-2.223,2.178-3.548
					c-2.036-4.263-14.025,4.628-18.267-4.256c-1.899-3.977-0.351-8.104,3.876-11.046l-2.515-5.267l4.766-2.276l2.498,5.231
					c3.092-1.08,6.365-1.411,9.128-1.058l0.009,6.374c-3.37-0.238-7.301,0.187-9.38,1.18c-1.576,0.753-2.341,1.822-1.793,2.968
					c1.984,4.156,14.076-4.521,18.387,4.507C234.911,402.642,232.775,406.831,228.552,409.594z"/>
			</g>
		</g>
	</g>
	<g>
		<g>
			<path style="fill:#C1BED7;" d="M410.596,115.324c-21.137-21.137-55.53-21.137-76.666,0c-1.209,1.209-1.209,3.17,0,4.379
				c1.209,1.209,3.169,1.209,4.379,0c18.723-18.723,49.186-18.723,67.909,0c1.209,1.209,3.17,1.209,4.379,0
				C411.806,118.493,411.805,116.533,410.596,115.324z"/>
			<path style="fill:#C1BED7;" d="M343.666,125.06c-1.209,1.209-1.209,3.17,0,4.379c1.209,1.209,3.17,1.209,4.379,0
				c13.354-13.354,35.082-13.354,48.436,0c1.209,1.209,3.169,1.209,4.379,0c1.209-1.209,1.209-3.17,0-4.379
				C385.092,109.292,359.435,109.292,343.666,125.06z"/>
			<path style="fill:#C1BED7;" d="M353.461,134.855c-1.209,1.209-1.209,3.17,0,4.379c1.209,1.209,3.169,1.209,4.379,0
				c7.953-7.953,20.893-7.953,28.847,0c1.209,1.209,3.169,1.209,4.379,0c1.209-1.209,1.209-3.17,0-4.379
				C380.698,124.487,363.829,124.487,353.461,134.855z"/>
			<path style="fill:#C1BED7;" d="M367.479,141.828c-3.345,3.345-3.345,8.769,0,12.115c3.345,3.345,8.769,3.345,12.115,0
				c3.345-3.345,3.345-8.769,0-12.115C376.248,138.483,370.824,138.483,367.479,141.828z"/>
		</g>
	</g>
	<g>
		<g>
			<path style="fill:#FCC700;" d="M582.887,120.166l-1.317-3.899l-1.317,3.899c-1.696,5.02-5.218,9.218-9.867,11.761l0,0l0,0
				c4.649,2.542,8.171,6.741,9.867,11.761l1.317,3.899l1.317-3.899c1.696-5.02,5.218-9.219,9.867-11.761l0,0l0,0
				C588.105,129.384,584.583,125.186,582.887,120.166z"/>
			<path style="fill:#FCC700;" d="M599.389,153.533l-0.914-2.704l-0.914,2.704c-1.176,3.482-3.619,6.394-6.844,8.158l0,0l0,0
				c3.224,1.764,5.667,4.676,6.844,8.158l0.914,2.704l0.914-2.704c1.176-3.482,3.619-6.394,6.844-8.158l0,0l0,0
				C603.008,159.927,600.565,157.015,599.389,153.533z"/>
		</g>
	</g>
	<g>
		<path style="fill:#343C4B;" d="M589.17,213.846c-1.375,4.693-3.687,9.039-6.022,13.339c-0.173-1.514-0.659-2.924-1.352-4.242
			c-1.769-3.329-4.913-6.034-8.161-8.103c-4.104-2.635-8.519-4.728-12.068-8.138c-4.439-4.265-6.612-10.114-7.144-16.16
			c-0.439-5.098-0.15-10.6,2.462-14.969c0.381-0.67,0.832-1.306,1.341-1.907c0.52-0.624,1.098-1.214,1.745-1.769
			c-0.243,0.208-0.092,0.728,0.289,1.399c1.075,1.919,3.942,5.04,4.416,5.502c2.971,2.855,6.693,4.265,10.265,5.965
			c6.184,2.947,12.195,7.999,14.426,14.645C590.927,204.044,590.546,209.153,589.17,213.846z"/>
		<path style="fill:#343C4B;" d="M565.127,158.709c-0.035,3.433-0.104,6.993-1.514,10.114c-0.775,1.722-1.942,3.225-3.352,4.473
			c-0.624,0.555-1.306,1.052-2.011,1.503c-0.439,0.289-0.89,0.543-1.364,0.775c-1.179,0.601-2.439,1.063-3.722,1.387
			c-4.439,1.098-9.143,0.566-13.536-0.694c-3.942-1.133-7.826-2.936-10.646-5.93c-2.404-2.578-3.907-5.895-4.797-9.317
			c-1.11-4.196-1.318-8.681-0.485-12.923c0.347-1.85,0.902-3.641,1.664-5.352c0.15-0.335,0.312-0.67,0.474-1.006
			c0.243-0.474,0.497-0.936,0.763-1.387c0.532-0.89,1.11-1.711,1.757-2.497c3.468-4.265,8.415-6.808,13.952-7.583
			c1.953-0.277,3.872-0.196,5.71,0.185c3.919,0.786,7.513,2.936,10.484,5.93c2.485,2.508,4.404,5.595,5.421,8.993
			C565.22,149.669,565.185,154.235,565.127,158.709z"/>
		<g>
			<g>
				<path style="fill:#FF7D6F;" d="M475.639,202.824c-0.685-0.37-1.551-0.254-2.242,0.104c-0.692,0.358-1.246,0.928-1.788,1.487
					c-1.402,1.449-2.805,2.899-4.207,4.348c-0.21,0.217-0.427,0.444-0.53,0.728c-0.277,0.763,0.419,1.598,1.21,1.78
					c0.791,0.182,1.608-0.091,2.373-0.361c-0.699,0.76-1.518,1.522-2.217,2.282c-0.139,0.151-0.287,0.327-0.271,0.531
					c0.017,0.218,0.212,0.374,0.4,0.486c1.085,0.647,2.487,0.73,3.64,0.215c-0.557,0.544-0.991,1.144-1.548,1.688
					c-0.191,0.187-0.399,0.425-0.34,0.685c0.046,0.204,0.242,0.335,0.426,0.434c1.308,0.7,2.903,0.842,4.314,0.383
					c0.218,2.197,1.025,4.448,3.121,5.141l10.541-8.116l-4.702-9.096L475.639,202.824z"/>
				<path style="fill:#FFA07F;" d="M475.489,203.781c0,0,4.693,4.381,6.589,4.496c0,0-2.393,8.415-0.243,11.501l4.635-3.572
					l2.046-1.572c0,0-1.214-8.75-2.589-10.068c-1.364-1.318-13.663-6.196-13.882-6.057c-0.035,0.012-0.081,0.104-0.139,0.231v0.012
					C471.582,199.62,471.224,202.498,475.489,203.781z"/>
				<polygon style="fill:#343C4B;" points="467.912,197.199 482.875,208.721 481.754,211.322 466.319,198.837 				"/>
				<path style="fill:#FFA07F;" d="M483.587,218.438c0,0-2.952-9.81-3.424-10.121c-0.472-0.311-2.506-4.148-3.49-4.464
					c-0.984-0.317-2.875,0.226-2.996,1.143c-0.121,0.917,1.563,3.97,1.563,3.97s1.897,7.795,2.067,8.612
					c0.171,0.816,0.672,5.179,0.672,5.179L483.587,218.438z"/>
				<path style="fill:#FFA07F;" d="M477.974,222.762c0,0,0.416,1.399,2.081,2.705c1.653,1.306,4.127,2.994,4.127,2.994l5.976-4.936
					l1.445-1.191l-1.965-2.555l-1.121-5.144l-2.046,1.572l-4.635,3.572L477.974,222.762z"/>
			</g>
			<path style="fill:#FFBF90;" d="M471.906,198.742v0.012c3.491,1.907,12.53,6.855,12.888,6.993
				c0.289,0.115,1.121,6.138,1.676,10.461c0.312,2.427,0.543,4.323,0.543,4.323l3.144,2.994l1.445-1.191l-1.965-2.555l-1.121-5.144
				c0,0-1.214-8.75-2.589-10.068c-1.364-1.318-13.663-6.196-13.882-6.057C472.01,198.522,471.963,198.614,471.906,198.742z"/>
		</g>
		<g>
			<g>
				<g>
					<g>
						<g>
							<g>
								<g>
									<g>
										<path style="fill:#FFA07F;" d="M529.066,427.01h12.355c0,0,5.331-52.674,4.384-57.558
											c-0.469-2.425-1.335-5.642-2.247-8.758l-18.995,0.877C526.381,379.288,529.066,427.01,529.066,427.01z"/>
										<path style="fill:#FFA07F;" d="M584.818,421.021c0,0-2.358-43.99-2.655-47.905c-0.307-4.075-3.289-11.413-5.959-17.286
											l-17.605,4.695c3.794,11.564,13.712,61.926,13.712,61.926L584.818,421.021z"/>
									</g>
								</g>
							</g>
						</g>
					</g>
				</g>
				<g>
					<g>
						<path style="fill:#456997;" d="M503.49,441.888c0.121-0.748,0.476-1.62,1.429-2.044c2.781-1.239,12.987-5.076,15.755-7.269
							c2.149-1.703,4.047-5.415,4.788-6.989l18.963,0.994c1.085,4.937,1.776,14.445,1.913,16.435L503.49,441.888z"/>
						<polygon style="fill:#FFFFFF;" points="503.362,446.199 546.21,447.326 546.339,443.015 503.49,441.888 						"/>
						<g>
							<path style="fill:#FFFFFF;" d="M524.247,433.877c0.029,0.05,0.056,0.101,0.083,0.152c0.198,0.383,0.316,0.967-0.188,1.181
								c-0.257,0.109-0.551,0.067-0.823,0.007c-0.937-0.208-1.794-0.637-2.61-1.13c-0.878-0.531-1.813-1.105-2.37-1.997
								c-0.576-0.923,0.275-1.748,1.289-1.51C521.38,430.991,523.34,432.275,524.247,433.877z"/>
							<path style="fill:#FFFFFF;" d="M520.96,436.102c0.029,0.05,0.056,0.101,0.082,0.152c0.198,0.383,0.316,0.967-0.188,1.181
								c-0.257,0.109-0.551,0.067-0.823,0.007c-0.937-0.208-1.794-0.637-2.61-1.13c-0.878-0.531-1.813-1.105-2.37-1.997
								c-0.576-0.923,0.275-1.748,1.289-1.51C518.093,433.216,520.053,434.5,520.96,436.102z"/>
							<path style="fill:#FFFFFF;" d="M516.949,437.52c0.029,0.05,0.056,0.101,0.082,0.152c0.198,0.383,0.316,0.967-0.188,1.181
								c-0.257,0.109-0.551,0.067-0.823,0.007c-0.937-0.208-1.794-0.637-2.61-1.13c-0.878-0.531-1.813-1.105-2.37-1.997
								c-0.576-0.923,0.275-1.748,1.289-1.51C514.081,434.634,516.042,435.918,516.949,437.52z"/>
						</g>
					</g>
				</g>
				<g>
					<g>
						<g>
							<path style="fill:#456997;" d="M566.182,447.098c0,1.728,13.305,5.183,15.849,4.964c2.535-0.211,11.832-6.903,11.832-6.903
								s-0.369-1.368-0.947-3.491c-1.622-5.92-4.955-17.673-6.902-21.918l-14.97,2.037c-0.796,2.493-3.414,15.198-4.168,19.987
								C566.471,444.352,566.182,446.492,566.182,447.098z"/>
							<path style="fill:#FFFFFF;" d="M593.861,445.161c0,0-9.299,6.689-11.835,6.905c-2.536,0.213-15.846-3.238-15.846-4.965
								c0-0.605,0.287-2.746,0.693-5.328c4.332,1.734,13.609,5.167,16.669,4.044c2.076-0.763,6.027-2.574,9.374-4.151
								C593.498,443.79,593.861,445.161,593.861,445.161z"/>
						</g>
						<path style="fill:#FFFFFF;" d="M581.999,432.047c0.052,0.023,0.104,0.046,0.155,0.071c0.384,0.184,0.823,0.578,0.547,1.058
							c-0.141,0.245-0.4,0.392-0.653,0.511c-0.871,0.41-1.808,0.594-2.751,0.702c-1.014,0.116-2.099,0.233-3.07-0.137
							c-1.004-0.382-0.811-1.565,0.138-1.997C578.007,431.506,580.33,431.326,581.999,432.047z"/>
						<path style="fill:#FFFFFF;" d="M581.999,435.786c0.052,0.023,0.104,0.046,0.155,0.071c0.384,0.184,0.823,0.578,0.547,1.058
							c-0.141,0.245-0.4,0.392-0.653,0.511c-0.871,0.41-1.808,0.594-2.751,0.702c-1.014,0.116-2.099,0.233-3.07-0.137
							c-1.004-0.383-0.811-1.565,0.138-1.997C578.007,435.246,580.33,435.065,581.999,435.786z"/>
						<path style="fill:#FFFFFF;" d="M582.357,439.21c0.052,0.023,0.104,0.046,0.156,0.071c0.384,0.184,0.823,0.578,0.547,1.058
							c-0.141,0.245-0.4,0.392-0.653,0.511c-0.871,0.41-1.808,0.594-2.751,0.702c-1.014,0.116-2.099,0.233-3.07-0.137
							c-1.004-0.383-0.811-1.565,0.138-1.997C578.366,438.669,580.688,438.489,582.357,439.21z"/>
					</g>
				</g>
			</g>
			<path style="fill:#414C5B;" d="M589.413,402.294l-71.262,4.242c0,0-0.301-2.913-0.763-7.513
				c-1.364-13.559-4.092-41.821-4.427-53.345c-0.486-16.241,1.965-64.558,1.965-64.558l48.907-0.52l5.93-0.058l1.953,6.404
				l1.919,32.897c0,0,11.536,36.989,11.178,40.85C584.466,364.565,589.413,402.294,589.413,402.294z"/>
			<path style="fill:#343C4B;" d="M589.413,402.294l-71.262,4.242c0,0-0.301-2.913-0.763-7.513l62.639-5.167
				c0,0-1.017-23.546-4.115-33.163c-3.086-9.617-11.478-39.694-11.478-39.694l-0.601-40.399l5.93-0.058l1.953,6.404l1.919,32.897
				c0,0,11.536,36.989,11.178,40.85C584.466,364.565,589.413,402.294,589.413,402.294z"/>
		</g>
		<g>
			<path style="fill:#FFA07F;" d="M609.606,188.476c0,0-1.586-3.757-3.609-3.901c-2.023-0.145,0.867,9.538,0.867,9.538
				L609.606,188.476z"/>
			<polygon style="fill:#FFA07F;" points="611.497,211.121 619.796,203.069 610.242,195.484 607.443,204.023 604.974,206.777 			"/>
			<path style="fill:#456997;" d="M630.13,184.77c-0.712-4.002-9.789-10.138-11.057-9.98c-1.267,0.158-15.556,18.85-15.714,20.91
				c-0.158,2.059,8.528,9.764,10.93,9.754C615.518,205.169,630.763,188.334,630.13,184.77z"/>
			<path style="fill:#FFA07F;" d="M619.796,203.069c0,0,2.794-1.252,1.686-3.323c-1.108-2.071-3.5-4.286-4.351-3.709
				c-0.851,0.578,0,6.979,0,6.979L619.796,203.069z"/>
			<path style="fill:#FFA07F;" d="M621.742,201.143c0,0,3.342-1.926,2.235-3.997c-1.108-2.071-3.5-4.286-4.351-3.709
				c-0.851,0.578,0,6.979,0,6.979L621.742,201.143z"/>
			<path style="fill:#FFA07F;" d="M624.005,198.012c0,0,3.342-1.926,2.235-3.997c-1.108-2.071-3.5-4.286-4.351-3.709
				c-0.851,0.578,0,6.979,0,6.979L624.005,198.012z"/>
			<path style="fill:#FFA07F;" d="M626.24,194.014c0,0,3.474-3.22,3.11-4.744c-0.364-1.524-2.835-3.468-3.485-2.962
				c-0.65,0.506,0.6,5.616,0.6,5.616l-1.042,1.419L626.24,194.014z"/>
			<path style="fill:#DFDEEE;" d="M605.677,191.221c-0.323,0.728,6.288,6.358,7.41,6.496c1.029,0.139,10.669-10.785,12.449-12.819
				l0.023-0.023c0.173-0.197,0.266-0.301,0.266-0.301s-8.519-7.802-9.097-7.652c-0.116,0.023-0.624,0.601-1.364,1.514
				C612.439,181.985,605.931,190.655,605.677,191.221z"/>
			<path style="fill:#C1BED7;" d="M615.363,178.437l8.843,7.652l1.329-1.191l0.023-0.023c0.173-0.197,0.266-0.301,0.266-0.301
				s-8.519-7.802-9.097-7.652C616.612,176.945,616.103,177.523,615.363,178.437z"/>
			<path style="fill:#C1BED7;" d="M605.677,191.221c-0.323,0.728,6.288,6.358,7.41,6.496c0.578,0.081,3.826-3.294,6.901-6.635
				l-8.357-7.906c-0.22,0.277-0.439,0.566-0.659,0.855c-0.335,0.439-0.659,0.855-0.994,1.295v0.011
				c-0.127,0.162-0.243,0.324-0.37,0.486c-0.335,0.451-0.671,0.89-0.983,1.306c-0.127,0.173-0.254,0.335-0.37,0.497
				c-0.358,0.474-0.682,0.925-0.971,1.318c-0.127,0.173-0.254,0.335-0.37,0.497c-0.404,0.555-0.728,1.017-0.948,1.329
				C605.804,191.001,605.7,191.163,605.677,191.221z"/>
			<polygon style="fill:#698BB1;" points="624.564,180.384 620.172,176.917 619.579,177.603 623.988,180.962 			"/>
			<g>
				<g>
					
						<rect x="615.223" y="189.635" transform="matrix(-0.7309 -0.6825 0.6825 -0.7309 937.3434 750.5207)" style="fill:#DFDEEE;" width="2.854" height="1.625"/>
					
						<rect x="612.609" y="187.194" transform="matrix(-0.7309 -0.6825 0.6825 -0.7309 934.5022 744.5026)" style="fill:#DFDEEE;" width="2.854" height="1.626"/>
					<path style="fill:#DFDEEE;" d="M609.977,185.326v0.011l1.931,1.792l1.11-1.179l-2.046-1.919
						C610.635,184.47,610.312,184.887,609.977,185.326z"/>
				</g>
				<g>
					
						<rect x="613.694" y="191.271" transform="matrix(-0.7309 -0.6825 0.6825 -0.7309 933.5839 752.3086)" style="fill:#DFDEEE;" width="2.854" height="1.625"/>
					
						<rect x="611.08" y="188.831" transform="matrix(-0.7309 -0.6825 0.6825 -0.7309 930.7243 746.301)" style="fill:#DFDEEE;" width="2.854" height="1.625"/>
					<path style="fill:#DFDEEE;" d="M608.624,187.129l1.757,1.641l1.11-1.191l-1.884-1.757
						C609.271,186.274,608.936,186.713,608.624,187.129z"/>
				</g>
				<g>
					
						<rect x="612.165" y="192.908" transform="matrix(-0.7309 -0.6825 0.6825 -0.7309 929.8192 754.0993)" style="fill:#DFDEEE;" width="2.854" height="1.625"/>
					
						<rect x="609.552" y="190.467" transform="matrix(-0.7309 -0.6825 0.6825 -0.7309 926.9613 748.0908)" style="fill:#DFDEEE;" width="2.854" height="1.625"/>
					<path style="fill:#DFDEEE;" d="M607.283,188.944l1.572,1.468l1.11-1.191l-1.711-1.595
						C607.896,188.1,607.572,188.551,607.283,188.944z"/>
				</g>
				<g>
					
						<rect x="610.637" y="194.545" transform="matrix(-0.7309 -0.6825 0.6825 -0.7309 926.0563 755.889)" style="fill:#FCC700;" width="2.854" height="1.626"/>
					
						<rect x="608.023" y="192.104" transform="matrix(-0.7309 -0.6825 0.6825 -0.7309 923.1984 749.8805)" style="fill:#DFDEEE;" width="2.854" height="1.625"/>
					<path style="fill:#FD7658;" d="M605.966,190.77l1.364,1.271l1.11-1.191l-1.526-1.41
						C606.509,189.996,606.185,190.458,605.966,190.77z"/>
				</g>
			</g>
			<polygon style="fill:#FD7658;" points="612.693,199.999 610.585,198.156 609.45,199.507 611.497,201.299 			"/>
			<polygon style="fill:#FCC700;" points="609.803,197.514 607.695,195.672 606.56,197.022 608.607,198.814 			"/>
			<polygon style="fill:#0CC3BE;" points="607.286,195.186 605.178,193.343 604.043,194.693 606.089,196.486 			"/>
			<path style="fill:#254F79;" d="M629.079,184.573c0,0-2.58,0.11-3.259,0.724c-0.679,0.614-10.829,12.534-10.973,12.859
				c-0.145,0.325-0.431,5.873-0.812,6.007c-0.381,0.134-0.753-6.499-0.753-6.499s11.483-13.378,12.538-13.487
				C626.876,184.069,629.838,184.138,629.079,184.573z"/>
			<g>
				<path style="fill:#343C4B;" d="M615.838,186.178l-0.352,0.384l-0.334-0.307l0.355-0.386c-0.206-0.249-0.344-0.557-0.386-0.849
					l0.508-0.195c0.037,0.322,0.21,0.683,0.393,0.851c0.135,0.125,0.267,0.153,0.352,0.06c0.274-0.299-0.817-0.968-0.245-1.59
					c0.256-0.278,0.634-0.287,1.003-0.045l0.339-0.369l0.334,0.307l-0.337,0.366c0.185,0.211,0.316,0.461,0.377,0.693l-0.507,0.205
					c-0.089-0.276-0.249-0.575-0.394-0.709c-0.11-0.101-0.22-0.128-0.294-0.048c-0.267,0.291,0.81,0.976,0.229,1.608
					C616.594,186.462,616.193,186.426,615.838,186.178z"/>
				<path style="fill:#343C4B;" d="M618.527,186.337c0.088-0.095,0.065-0.217-0.063-0.335c-0.143-0.131-0.402-0.212-0.691-0.224
					l0.138-0.497c0.378,0.042,0.716,0.167,0.971,0.402c0.356,0.327,0.444,0.75,0.188,1.029c-0.175,0.191-0.503,0.255-0.88,0.273
					l-0.693,0.029l0.752,0.691l-0.339,0.369l-1.339-1.231l0.276-0.306l1.243-0.07C618.282,186.458,618.458,186.412,618.527,186.337z
					"/>
				<path style="fill:#343C4B;" d="M619.811,187.748c0.414,0.38,0.482,0.845,0.194,1.159c-0.341,0.371-0.846,0.351-1.28-0.047
					c-0.236-0.217-0.426-0.553-0.494-0.861l0.51-0.188c0.004,0.272,0.096,0.495,0.256,0.642c0.178,0.163,0.352,0.176,0.484,0.033
					c0.122-0.133,0.091-0.3-0.085-0.462c-0.093-0.085-0.384-0.348-0.501-0.441l0.922-1.003l1.181,1.085l-0.341,0.371l-0.76-0.698
					l-0.247,0.268C619.691,187.637,619.776,187.716,619.811,187.748z"/>
			</g>
			<polygon style="fill:#DFDEEE;" points="624.564,184.412 620.284,180.619 619.778,181.161 624.04,184.99 			"/>
		</g>
		<path style="fill:#343C4B;" d="M508.137,226.775c-1.316-3.763-3.588-10.357-8.589-9.939c-4.899,0.409-8.644,6.553-10.451,10.518
			c-3.117,6.842-3.399,14.489-3.662,21.876c-0.044,1.24,1.882,1.182,1.926-0.053c0.195-5.468,0.38-11.006,1.818-16.316
			c1.355-5.002,5.004-13.808,10.951-13.546c2.81,0.123,2.759,0.925,4.032,3.178c0.736,1.302,1.324,2.708,1.856,4.104
			c0.846,2.222,1.437,4.546,1.862,6.884c0.945,5.196,0.948,10.506,0.708,15.763c-0.056,1.239,1.87,1.181,1.926-0.053
			C510.857,241.684,510.644,233.944,508.137,226.775z"/>
		<path style="fill:#0CC3BE;" d="M571.711,286.946c-6.885-5.098-54.328,0.476-54.328,0.476s-0.932-2.175-2.457-6.302
			c-0.146-0.398-0.214-0.922-0.214-1.534c0-5.758,5.855-19.828,5.855-19.828c-0.505-9.759-2.389-19.197-2.69-21.003
			c-0.641-3.884-4.748-24.916-2.049-30.422c1.36-2.748,4.477-7.438,7.263-11.438c2.787-3.991,5.234-7.302,5.234-7.302l10.603-5.777
			l11.672,0.427l7.273,3.709c0,0,0.009,0.01,0.039,0.019l8.166,4.175c0,0,0.301,4.282,0.699,11.089
			c0.592,10.031,1.398,25.548,1.758,40.938c0.136,5.283,0.204,10.555,0.204,15.585c0,0.01,4.03,10.196,4.758,13.837
			C574.226,277.226,571.711,286.946,571.711,286.946z"/>
		<g>
			<g>
				<g>
					<g>
						<path style="fill:#FFA07F;" d="M552.881,185.416c0,0-10.713,2.166-12.308,1.481c-1.596-0.676-3.784-1.793-3.784-1.793
							c0.359-0.399,2.834-4.145,2.779-5.417c-0.13-2.932-0.995-7.053-0.995-7.053l9.958-2.883c0,0,0.265,2.821,0.683,5.814
							C549.634,178.597,552.283,184.926,552.881,185.416z"/>
						<path style="fill:#FFFFFF;" d="M538.161,183.019l-8.748,5.98c0,0,2.195,8.842,5.425,7.686c3.23-1.156,6.818-5.346,6.818-5.346
							s3.448,7.803,7.082,7.369s9.136-10.758,9.136-10.758l-5.891-4.137C551.983,183.814,540.422,190.592,538.161,183.019z"/>
						<path style="fill:#FF7D6F;" d="M549.212,175.561c-2.791,1.874-6.215,4.087-7.314,4.401c-0.897,0.254-1.711,0.034-2.327-0.275
							c-0.135-2.935-1-7.051-1-7.051l9.958-2.883C548.529,169.753,548.798,172.578,549.212,175.561z"/>
						<g>
							<path style="fill:#FFBF90;" d="M555.295,142.572c-5.064-6.414-13.973-8.709-21.245-4.98
								c-1.672,0.857-3.023,1.858-3.666,3.001c-2.569,4.575-6.758,21.67-3.595,30.145c3.164,8.475,8.852,7.619,10.887,7.135
								c2.035-0.484,11.656-3.943,13.989-6.909c2.332-2.965,7.796-18.596,6.961-22.782
								C558.347,146.786,556.985,144.713,555.295,142.572z"/>
							<path style="fill:#FFA07F;" d="M556,141.36c-5.064-6.414-13.973-8.708-21.245-4.98c-1.672,0.857-3.023,1.858-3.666,3.001
								c-2.569,4.575-6.759,21.67-3.595,30.145c3.164,8.475,8.852,7.619,10.887,7.135s11.656-3.944,13.989-6.909
								c2.332-2.965,7.796-18.596,6.961-22.782C559.052,145.574,557.69,143.501,556,141.36z"/>
							<path style="fill:#343C4B;" d="M561.902,160.986c-0.139,0.358-0.289,0.717-0.451,1.075c-2.323-1.803-6.022-1.503-8.022,0.671
								c-0.936-3.583-0.219-7.56,1.919-10.577c-3.317-1.896-5.964-4.947-7.375-8.507c-3.086,2.531-7.167,3.803-11.143,3.503
								c1.306-1.757,2.162-3.838,2.462-5.999c-4.45,3.664-9.906,6.08-15.593,6.947c-1.387,0.22-2.797,0.347-4.208,0.37
								c0.543-2.069,1.306-4.196,2.277-6.265c3.052-6.427,8.219-12.195,15.397-13.085c3.595-0.439,7.375,0.069,10.854,1.341
								c3.26,1.191,6.277,3.063,8.646,5.456C563,142.329,565.104,152.571,561.902,160.986z"/>
							<g>
								<path style="fill:#414C5B;" d="M589.24,213.58c-0.023,0.093-0.046,0.173-0.069,0.266c-1.375,4.693-3.687,9.039-6.022,13.339
									c-0.173-1.514-0.659-2.924-1.352-4.242c2.219-5.19,3.121-10.947,2.346-16.553c-1.179,1.618-2.358,3.225-3.526,4.843
									c0.231-6.08-2.404-11.952-6.022-16.842c-3.607-4.89-8.172-8.97-12.461-13.27c-1.78-1.792-3.618-3.907-3.884-6.323
									c-0.058-0.37-0.069-0.751-0.023-1.133v-0.035c0.335-3.375,3.872-5.745,4.277-9.108c0.15-1.225-0.139-2.393-0.601-3.537
									c-0.566-1.41-1.41-2.774-2.046-4.15c-1.167-2.497-1.364-6.103,1.063-7.398c-5.976-1.376-10.889-6.566-11.918-12.6
									c-2.786,1.075-5.583,2.161-8.369,3.236c0.509-1.953,1.006-3.907,1.514-5.872c-4.647,3.895-10.345,6.496-16.31,7.536
									c-1.341,0.243-2.705,0.393-4.069,0.462c1.503-3.179,3.537-6.184,6.057-8.542c2.589-2.393,5.71-4.092,9.34-4.543
									c2.624-0.324,5.341-0.139,7.964,0.474c0.289,0.069,0.567,0.139,0.844,0.22c0.693,0.185,1.375,0.404,2.046,0.647
									c1.491,0.301,2.924,0.786,4.3,1.457c0.277,0.127,0.555,0.277,0.832,0.428c1.93,1.04,3.734,2.416,5.352,4.046
									c2.485,2.508,4.404,5.595,5.421,8.993c0.046,0.139,0.081,0.289,0.115,0.428c0.312,1.075,0.532,2.161,0.682,3.26
									c0.474,3.167,0.451,6.427,0.404,9.64c-0.035,3.433-0.104,6.993-1.514,10.114c-0.439,0.982-1.006,1.884-1.676,2.716
									c-0.509,0.636-1.063,1.214-1.676,1.757c1.075,1.919,3.942,5.04,4.416,5.502c0.497,0.474,1.017,0.913,1.549,1.318
									c2.659,2.011,5.745,3.236,8.716,4.647c6.184,2.947,12.195,7.999,14.426,14.645
									C590.892,203.951,590.557,208.956,589.24,213.58z"/>
								<path style="fill:#495969;" d="M545.13,129.591c-5.063,3.294-11.305,4.739-17.304,4.069c2.589-2.393,5.71-4.092,9.34-4.543
									C539.789,128.794,542.506,128.979,545.13,129.591z"/>
								<path style="fill:#495969;" d="M548.02,130.458c1.491,0.301,2.924,0.786,4.3,1.457c-2.682,1.607-5.78,2.508-8.901,2.566
									c0.855-1.561,1.699-3.109,2.555-4.67C546.667,129.996,547.349,130.215,548.02,130.458z"/>
								<path style="fill:#495969;" d="M564.04,145.809c-3.017-0.636-5.93-1.745-8.184-3.826c-2.589-2.416-3.907-6.439-2.705-9.64
									c1.93,1.04,3.734,2.416,5.352,4.046c2.485,2.508,4.404,5.595,5.421,8.993C563.971,145.52,564.006,145.67,564.04,145.809z"/>
								<path style="fill:#495969;" d="M564.723,149.068c0.474,3.167,0.451,6.427,0.404,9.64c-0.035,3.433-0.104,6.993-1.514,10.114
									c-0.439,0.982-1.006,1.884-1.676,2.716c-0.127-0.844-0.162-1.699-0.092-2.566c0.22-2.578,1.329-4.993,1.688-7.56
									c0.393-2.693-0.069-5.444,0.115-8.172C563.74,151.819,564.075,150.328,564.723,149.068z"/>
								<path style="fill:#495969;" d="M589.24,213.58c0.3-5.791-0.347-11.64-2.023-13.709c-0.913,0.798-1.838,1.595-2.763,2.393
									c-0.162-4.647-3.075-8.762-6.473-11.941c-3.398-3.167-7.375-5.699-10.646-9.005c-0.382-0.381-0.751-0.786-1.11-1.202
									c2.659,2.011,5.745,3.236,8.716,4.647c6.184,2.947,12.195,7.999,14.426,14.645
									C590.892,203.951,590.557,208.956,589.24,213.58z"/>
							</g>
							<g>
								<path style="fill:#FF7D6F;" d="M536.862,162.103c0.435-0.047,0.887-0.166,1.299-0.019c-0.658,0.86-1.667,1.444-2.74,1.587
									c-0.083,0.011-0.168,0.02-0.249-0.003c-0.098-0.028-0.178-0.099-0.251-0.171c-0.463-0.451-0.836-0.995-1.091-1.59
									c-0.051-0.121-0.099-0.247-0.097-0.378c0.005-0.434,0.264-0.275,0.484-0.118c0.255,0.181,0.534,0.329,0.825,0.443
									C535.618,162.079,536.247,162.169,536.862,162.103z"/>
								<path style="fill:#FC5B68;" d="M535.391,163.414c-0.195-0.285-0.429-0.544-0.631-0.825c-0.25-0.347-0.472-0.714-0.65-1.103
									c1.559-0.589,1.889-1.984,2.215-3.578c0.147-0.719,0.122-1.47-0.071-2.178c-0.101-0.372-0.247-0.731-0.435-1.068
									c-0.095-0.171-0.202-0.336-0.317-0.494c-0.113-0.154-0.244-0.257-0.398-0.37c0.059,0.114,0.088,0.237,0.138,0.352
									c0.132,0.3,0.276,0.585,0.376,0.899c0.1,0.314,0.172,0.637,0.217,0.963c0.09,0.652,0.073,1.322-0.063,1.967
									c-0.133,0.633-0.382,1.243-0.756,1.772c-0.427,0.603-1.055,1.152-1.759,1.391c-0.006,0.002,0.649,1.286,0.717,1.395
									c0.177,0.28,0.379,0.544,0.608,0.783c0.224,0.234,0.481,0.51,0.81,0.577c0.103,0.021,0.213,0.024,0.311-0.014
									c-0.047-0.051-0.089-0.106-0.125-0.165c-0.016-0.026-0.031-0.052-0.046-0.078
									C535.488,163.562,535.441,163.487,535.391,163.414z"/>
							</g>
							<path style="fill:#FFA07F;" d="M553.009,162.428c0.515-0.214,3.227-3.403,4.899-1.286c1.672,2.118,1.97,5.484,0.189,7.268
								c-1.626,1.628-3.861,3.359-6.431,2.555L553.009,162.428z"/>
							<path style="fill:#FF7D6F;" d="M557.715,163.691c0.079,0.452-0.018,0.91-0.184,1.341c-0.703,1.829-2.546,3.142-4.307,4.358
								c0.563-0.873,0.814-1.883,0.774-2.885c-0.014-0.349-0.062-0.697-0.043-1.045
								C554.031,164.059,557.248,161.021,557.715,163.691z"/>
							<g>
								<path style="fill:#CF4A57;" d="M552.348,169.867c0,0,0.034-0.018,0.099-0.051c0.063-0.035,0.165-0.081,0.281-0.154
									c0.235-0.145,0.562-0.382,0.878-0.743c0.315-0.36,0.611-0.848,0.775-1.439c0.151-0.589,0.172-1.285-0.087-1.974
									c-0.027-0.087-0.066-0.17-0.107-0.253l-0.03-0.062c-0.007-0.016-0.003-0.006-0.004-0.007l0,0.002l-0.002-0.001l0,0
									c0,0-0.002,0.003,0.005-0.009l0.031-0.052l0.063-0.103c0.043-0.067,0.086-0.135,0.13-0.2
									c0.176-0.263,0.363-0.509,0.554-0.737c0.191-0.227,0.388-0.436,0.581-0.625c0.195-0.188,0.381-0.364,0.564-0.491
									c0.182-0.129,0.379-0.207,0.559-0.221c0.18-0.01,0.347,0.044,0.457,0.111c0.112,0.069,0.17,0.151,0.193,0.211
									c0.025,0.06,0.021,0.096,0.024,0.096c-0.003,0,0.011-0.033,0.001-0.1c-0.008-0.066-0.048-0.167-0.157-0.265
									c-0.109-0.095-0.282-0.19-0.518-0.211c-0.237-0.017-0.497,0.051-0.733,0.173c-0.239,0.123-0.456,0.282-0.685,0.457
									c-0.228,0.177-0.46,0.377-0.685,0.603c-0.225,0.226-0.444,0.475-0.646,0.749c-0.051,0.068-0.099,0.138-0.148,0.209
									l-0.072,0.108l-0.095,0.153l-0.066,0.107c0.013,0.038,0.034,0.076,0.051,0.114l0.075,0.164
									c0.034,0.072,0.069,0.144,0.091,0.219c0.225,0.597,0.245,1.209,0.161,1.751c-0.096,0.542-0.299,1.016-0.533,1.387
									c-0.235,0.372-0.495,0.643-0.688,0.82c-0.096,0.09-0.181,0.15-0.234,0.196C552.377,169.844,552.348,169.867,552.348,169.867
									z"/>
							</g>
							<path style="fill:#343C4B;" d="M528.442,149.087c0,0,2.585-1.784,4.129-1.554c1.544,0.23,1.936,1.679,1.31,1.929
								C533.255,149.713,528.442,149.087,528.442,149.087z"/>
							<path style="fill:#343C4B;" d="M550.255,152.664c0,0-3.413-3.337-5.798-3.923c-2.385-0.585-3.361,0.775-2.485,1.386
								C542.848,150.739,550.255,152.664,550.255,152.664z"/>
							<g>
								<path style="fill:#FF7D6F;" d="M543.358,163.331c0.059,0.743,1.698,1.22,3.661,1.065c1.963-0.155,3.507-0.883,3.449-1.627
									c-0.059-0.743-1.698-1.22-3.661-1.065C544.844,161.86,543.3,162.588,543.358,163.331z"/>
								<path style="fill:#FF7D6F;" d="M524.555,158.545c-0.267,0.497,0.731,1.554,2.23,2.36c1.499,0.806,2.931,1.055,3.198,0.558
									c0.267-0.498-0.731-1.554-2.23-2.36C526.254,158.298,524.823,158.048,524.555,158.545z"/>
							</g>
							<g>
								<path style="fill:#343C4B;" d="M548.612,154.724c-0.382,0.555-1.291,0.844-1.913,0.983c-0.208-0.395-0.51-0.672-0.888-0.762
									c-0.963-0.228-2.04,0.84-2.407,2.386c-0.367,1.546,0.117,2.984,1.079,3.213c0.963,0.228,2.04-0.84,2.407-2.386
									c0.113-0.479,0.145-0.947,0.107-1.372C547.886,156.314,548.612,154.724,548.612,154.724z"/>
								<path style="fill:#FFFFFF;" d="M532.897,167.086l11.652-0.607c0,0-1.192,5.92-6.388,5.887
									C531.781,172.326,532.897,167.086,532.897,167.086z"/>
								<g>
									<path style="fill:#343C4B;" d="M529.193,151.892c0.092,0.534,0.66,1.053,1.067,1.363c0.285-0.219,0.6-0.32,0.906-0.258
										c0.781,0.158,1.209,1.302,0.956,2.556c-0.253,1.254-1.091,2.143-1.872,1.985c-0.781-0.158-1.209-1.302-0.956-2.556
										c0.078-0.388,0.213-0.741,0.384-1.039C529.189,153.299,529.193,151.892,529.193,151.892z"/>
									<path style="fill:#FFFFFF;" d="M530.645,155.422c0,0-0.846,0.108-1.526-0.327c-0.68-0.435-0.937-1.248-0.937-1.248
										s0.846-0.108,1.526,0.326C530.388,154.608,530.645,155.422,530.645,155.422z"/>
								</g>
								<path style="fill:#FFFFFF;" d="M545.141,157.951c0,0,0.898,0.562,1.891,0.425c0.993-0.137,1.706-0.921,1.706-0.921
									s-0.898-0.562-1.891-0.425C545.853,157.167,545.141,157.951,545.141,157.951z"/>
							</g>
						</g>
					</g>
				</g>
			</g>
		</g>
		<path style="fill:#0CC3BE;" d="M492.418,218.489l-10.317,10.438l3.421,4.248c0,0,2.163,7.525,5.44,13.109
			c3.277,5.583,15.9,5.572,20.148,4.844l10.438,10.328l9.589-66.757l-2.811-5.104c0,0-8.477,5.104-8.842,6.56
			c-0.364,1.456-9.467,29.98-9.103,30.708c0.364,0.728-6.554-6.074-9.103-6.8c-2.549-0.725-6.797,0-6.797,0L492.418,218.489z"/>
		<path style="fill:#0797A7;" d="M521.703,203.218c0.285-0.686-0.833-0.986-1.115-0.307c-4.533,10.903-9.344,24.575-0.754,34.814
			c-0.178,4.916-0.108,9.822,0.216,14.731c0.049,0.738,1.205,0.744,1.156,0c-0.331-5.009-0.401-10.014-0.209-15.031
			c0.011-0.281-0.148-0.455-0.35-0.523C512.38,227.024,517.364,213.652,521.703,203.218z"/>
		<path style="fill:#0797A7;" d="M495.305,222.417c-0.039-0.209-0.357-0.297-0.495-0.13c-0.431,0.523-0.749,1.129-1.037,1.76
			c-0.047-0.026-0.095-0.052-0.142-0.079c-0.514-0.299-1.031-0.567-1.568-0.822c-0.44-0.21-0.751,0.354-0.375,0.642
			c0.473,0.363,0.949,0.702,1.45,1.024c0.078,0.05,0.155,0.102,0.232,0.154c-0.163,0.381-0.329,0.761-0.514,1.131
			c-0.174-0.1-0.348-0.195-0.499-0.285c-0.566-0.34-1.149-0.623-1.754-0.885c-0.43-0.186-0.79,0.379-0.375,0.642
			c0.552,0.351,1.099,0.713,1.643,1.076c0.158,0.105,0.314,0.226,0.471,0.345c-0.049,0.074-0.092,0.151-0.144,0.223
			c-0.25,0.346-0.524,0.673-0.808,0.992c-0.236-0.212-0.575-0.356-0.819-0.501c-0.501-0.297-0.967-0.639-1.405-1.023
			c-0.437-0.383-1.072,0.236-0.644,0.644c0.458,0.437,0.951,0.837,1.479,1.186c0.199,0.132,0.443,0.306,0.698,0.418
			c-0.504,0.488-1.042,0.943-1.607,1.362c-0.133-0.247-0.415-0.377-0.675-0.559c-0.444-0.311-0.889-0.622-1.333-0.934
			c-0.389-0.272-0.735,0.353-0.368,0.629c0.41,0.308,0.819,0.615,1.229,0.922c0.182,0.137,0.351,0.296,0.537,0.396
			c-0.508,0.341-1.031,0.656-1.569,0.935c-0.203,0.105-0.063,0.452,0.158,0.374c2.308-0.811,4.215-2.092,5.785-3.984
			c0.694-0.836,1.259-1.766,1.829-2.688C495.171,224.596,495.482,223.365,495.305,222.417z"/>
		<path style="fill:#0797A7;" d="M511.974,229.831c-0.271-0.559-0.61-1.27-1.329-1.273c-0.794-0.005-1.105,0.861-1.404,1.453
			c-0.561,1.112-1.103,2.235-1.654,3.352c-0.257,0.522,0.512,0.982,0.786,0.459c0.347-0.661,0.693-1.322,1.04-1.984
			c0.223-0.426,0.797-2.003,1.24-2.02c0.375-0.015,0.387,0.336,0.533,0.668c0.137,0.312,0.268,0.626,0.413,0.935
			c0.252,0.539,0.443,1.034,0.945,1.362c0.188,0.122,0.376-0.046,0.399-0.229C513.06,231.66,512.356,230.618,511.974,229.831z"/>
		<g>
			<path style="fill:#FCC700;" d="M520.828,248.857l3.298,45.269l0.598,8.308c-8.436,1.898-17.027,2.827-25.611,2.757
				c-8.592-0.059-17.164-1.101-25.577-3.122l0.209-2.423l4.455-51.1l37.39,0.273L520.828,248.857z"/>
			<path style="fill:#FDA859;" d="M520.828,248.857l3.298,45.269l0.598,8.308c-8.436,1.898-17.027,2.827-25.611,2.757
				c-8.592-0.059-17.164-1.101-25.577-3.122l0.209-2.423c12.263,2.146,25.724-1.028,33.775-10.376
				c5.204-6.036,7.724-14.01,8.482-21.945c0.585-6.152,0.195-12.335-0.411-18.507L520.828,248.857z"/>
		</g>
		<path style="fill:#343C4B;" d="M508.133,226.778c-0.262-0.757-0.563-1.622-0.922-2.525c-1.408-3.602-3.661-7.749-7.661-7.418
			c-2.039,0.165-3.884,1.34-5.467,2.923l0.398,0.311c0,0,1.437-0.243,3.137-0.311c0.786-0.32,1.622-0.486,2.515-0.447
			c2.253,0.097,2.67,0.641,3.399,2.02c0.185,0.34,0.379,0.718,0.631,1.165c0.738,1.301,1.33,2.709,1.855,4.098
			c0.845,2.224,1.437,4.544,1.865,6.885c0.942,5.195,0.952,10.506,0.709,15.769c-0.058,1.233,1.874,1.175,1.923-0.058
			C510.861,241.683,510.648,233.944,508.133,226.778z"/>
		<g>
			<polygon style="fill:#FFFFFF;" points="487.628,169.867 498.823,175.09 485.629,193.716 			"/>
			<polygon style="fill:#FFFFFF;" points="503.93,185.4 505.873,192.321 492.648,193.566 			"/>
			<polygon style="fill:#FFFFFF;" points="473.339,175.516 480.059,172.96 482.484,186.02 			"/>
		</g>
		<path style="fill:#FFFFFF;" d="M541.276,200.637c-0.036,1.019-0.891,1.815-1.909,1.779c-1.019-0.036-1.815-0.891-1.78-1.909
			c0.036-1.019,0.891-1.815,1.909-1.78C540.515,198.763,541.311,199.618,541.276,200.637z"/>
		<path style="fill:#FFFFFF;" d="M540.987,208.842c-0.036,1.019-0.891,1.815-1.909,1.779c-1.019-0.036-1.815-0.891-1.779-1.909
			c0.036-1.019,0.891-1.815,1.909-1.78C540.226,206.968,541.023,207.823,540.987,208.842z"/>
		<path style="fill:#FFFFFF;" d="M541.276,217.111c-0.036,1.019-0.891,1.815-1.909,1.78c-1.019-0.036-1.815-0.891-1.78-1.909
			c0.036-1.019,0.891-1.815,1.909-1.78C540.515,215.237,541.311,216.092,541.276,217.111z"/>
		<path style="fill:#0797A7;" d="M565.048,276.913c-3.595-0.738-7.256-1.237-10.907-1.588c-7.949-0.763-15.941-0.631-23.87,0.286
			c-0.73,0.084-0.739,1.241,0,1.156c6.306-0.729,12.649-0.972,18.991-0.645c3.386,0.175,6.766,0.501,10.121,0.99
			c1.614,0.235,3.222,0.507,4.824,0.814c0.506,0.097,1.738,0.121,2.116,0.5c0.734,0.086,0.709,0.341-0.073,0.764
			c-0.381,0.669-0.948,0.834-1.698,0.497c-3.047,0.253-6.383-0.371-9.452-0.427c-3.154-0.056-6.309-0.027-9.461,0.087
			c-6.36,0.231-12.694,0.837-18.992,1.739c-0.734,0.105-0.421,1.219,0.307,1.115c8.402-1.204,16.875-1.83,25.363-1.814
			c4.087,0.008,8.157,0.21,12.235,0.455c1.256,0.075,3.692,0.415,3.951-1.411C568.761,277.608,566.296,277.169,565.048,276.913z"/>
		<path style="fill:#0CC3BE;" d="M566.079,192.146c0,0,5.414,3.234,6.57,5.26c1.156,2.026,4.816,17.116,4.816,17.116l7.513,9.955
			c0,0,5.587-14.522,9.44-16.797c3.853-2.275,8.669-3.09,8.669-3.09l3.66-2.422l8.681,6.315l-1.36,5.036
			c0,0-3.612,18.545-5.924,22.757c-1.146,2.087-14.593,20.239-23.552,20.229c-2.945-0.004-16.192-17.43-16.192-17.43l-6.926-35.954
			L566.079,192.146z"/>
		<path style="fill:#0797A7;" d="M567.397,194.943c-1.82,1.447-3.086,3.403-3.691,5.646c-0.194,0.719,0.921,1.026,1.115,0.307
			c0.558-2.067,1.72-3.805,3.394-5.136C568.797,195.298,567.974,194.485,567.397,194.943z"/>
		<path style="fill:#0797A7;" d="M563.613,208.953c-0.093-0.728-1.25-0.737-1.156,0c1.162,9.114,2.325,18.229,3.487,27.343
			c0.093,0.728,1.25,0.737,1.156,0C565.938,227.182,564.776,218.067,563.613,208.953z"/>
		<path style="fill:#0797A7;" d="M588.277,231.95c-0.697-2.089-1.395-4.177-2.092-6.266c-0.167-0.5-0.762-0.538-1.056-0.138
			c-1.287,1.752-2.27,3.656-2.979,5.71c-0.243,0.705,0.873,1.007,1.115,0.307c0.545-1.581,1.281-3.05,2.185-4.438
			c0.571,1.711,1.143,3.421,1.714,5.132C587.396,232.959,588.513,232.658,588.277,231.95z"/>
		<path style="fill:#0797A7;" d="M612.477,211.857c-0.642-0.579-1.304-1.131-1.981-1.66c0.606-0.561,1.213-1.121,1.819-1.682
			c0.547-0.506-0.271-1.322-0.817-0.817c-0.626,0.578-1.251,1.157-1.877,1.735c-0.028,0.026-0.038,0.055-0.059,0.082
			c-0.407-0.299-0.807-0.607-1.224-0.89c0.16,0.03,0.332,0,0.485-0.137c0.483-0.432,0.967-0.863,1.45-1.295
			c0.556-0.497-0.264-1.312-0.817-0.817c-0.483,0.432-0.967,0.863-1.45,1.295c-0.229,0.205-0.218,0.46-0.095,0.658
			c-0.545-0.359-1.099-0.704-1.663-1.035c0.674-0.555,1.349-1.111,2.023-1.666c0.575-0.473-0.247-1.287-0.817-0.817
			c-0.764,0.629-1.527,1.257-2.291,1.886c-0.311-0.169-0.614-0.352-0.93-0.512c-0.662-0.336-1.248,0.661-0.584,0.998
			c2.911,1.479,5.585,3.305,8.011,5.492C612.211,213.171,613.031,212.356,612.477,211.857z"/>
		<path style="fill:#FFFFFF;" d="M563.741,176.169c-1.679,0.69-3.395,1.228-5.145,1.641c1.604-1.171,2.924-2.692,3.879-4.521
			c0.26-0.5-0.274-1.095-0.791-0.791c-2.186,1.286-4.481,2.24-6.935,2.881c-0.719,0.188-0.414,1.303,0.307,1.115
			c1.828-0.478,3.572-1.132,5.251-1.953c-1.366,1.788-3.178,3.136-5.363,3.936c-0.562,0.206-0.54,1.221,0.154,1.135
			c0.052-0.006,0.102-0.017,0.153-0.024c0,0.001,0,0.002,0,0.003c0.005-0.002,0.009-0.004,0.013-0.005
			c3.037-0.39,5.947-1.137,8.784-2.303C564.727,177.005,564.429,175.886,563.741,176.169z"/>
	</g>
	<g>
		<g>
			<path style="fill:#FFFFFF;" d="M494.392,137.432h-63.906c-2.754,0-4.986-2.232-4.986-4.986V88.788
				c0-2.754,2.233-4.986,4.986-4.986h63.906c2.754,0,4.986,2.232,4.986,4.986v43.658
				C499.378,135.199,497.146,137.432,494.392,137.432z"/>
			<g>
				<path style="fill:#0CC3BE;" d="M442.111,112.287v3.555h-3.09v-3.579c-2.184-0.302-4.298-1.208-5.855-2.485l1.65-3.322
					c1.673,1.44,4.205,2.462,5.901,2.462c1.255,0,2.044-0.465,2.044-1.324c0-2.765-8.573-1.092-8.573-6.854
					c0-2.578,1.859-4.368,4.832-4.855v-3.416h3.09v3.393c1.905,0.209,3.717,0.859,5.088,1.742l-1.603,3.369
					c-1.719-0.977-3.903-1.743-5.25-1.743c-1.022,0-1.696,0.372-1.696,1.115c0,2.695,8.573,1.162,8.573,7.016
					C447.222,110.219,445.038,111.892,442.111,112.287z"/>
				<rect x="452.34" y="92.469" style="fill:#C1BED7;" width="39.372" height="3.746"/>
				<rect x="452.34" y="99.038" style="fill:#C1BED7;" width="39.372" height="3.746"/>
				<rect x="452.34" y="105.607" style="fill:#C1BED7;" width="39.372" height="3.746"/>
				<rect x="452.34" y="112.176" style="fill:#C1BED7;" width="20.614" height="3.746"/>
				<path style="fill:#FD7658;" d="M439.977,125.358c0,1.881-1.525,3.405-3.405,3.405s-3.405-1.525-3.405-3.405
					c0-1.881,1.525-3.405,3.405-3.405S439.977,123.477,439.977,125.358z"/>
				<path style="fill:#FD7658;" d="M451.543,125.358c0,1.881-1.525,3.405-3.405,3.405c-1.881,0-3.405-1.525-3.405-3.405
					c0-1.881,1.525-3.405,3.405-3.405C450.019,121.953,451.543,123.477,451.543,125.358z"/>
				<path style="fill:#FD7658;" d="M463.11,125.358c0,1.881-1.525,3.405-3.405,3.405c-1.881,0-3.405-1.525-3.405-3.405
					c0-1.881,1.525-3.405,3.405-3.405C461.585,121.953,463.11,123.477,463.11,125.358z"/>
			</g>
			<polygon style="fill:#FFFFFF;" points="499.378,125.358 506.407,148.842 480.609,137.202 			"/>
		</g>
	</g>
	<g>
		<circle style="fill:#C1BED7;" cx="607.283" cy="288.215" r="25.74"/>
		<g>
			<g>
				<g>
					<path style="fill:#FFFFFF;" d="M600.002,287.639c-3.696,0-6.703-3.007-6.703-6.703c0-3.696,3.007-6.704,6.703-6.704
						c3.696,0,6.703,3.008,6.703,6.704C606.706,284.632,603.699,287.639,600.002,287.639z M600.002,277.883
						c-1.682,0-3.051,1.37-3.051,3.052s1.368,3.051,3.051,3.051c1.682,0,3.051-1.368,3.051-3.051S601.685,277.883,600.002,277.883z"
						/>
				</g>
				<g>
					<path style="fill:#FFFFFF;" d="M596.842,300.483c-0.467,0-0.935-0.178-1.291-0.535c-0.713-0.713-0.713-1.869,0-2.582
						l20.883-20.883c0.713-0.713,1.869-0.713,2.582,0c0.713,0.713,0.713,1.869,0,2.582l-20.883,20.883
						C597.777,300.305,597.309,300.483,596.842,300.483z"/>
				</g>
				<g>
					<path style="fill:#FFFFFF;" d="M614.563,302.2c-3.696,0-6.703-3.007-6.703-6.703c0-3.696,3.007-6.704,6.703-6.704
						c3.696,0,6.704,3.008,6.704,6.704C621.268,299.193,618.26,302.2,614.563,302.2z M614.563,292.444
						c-1.682,0-3.051,1.37-3.051,3.052c0,1.682,1.368,3.051,3.051,3.051c1.682,0,3.052-1.368,3.052-3.051
						C617.615,293.814,616.246,292.444,614.563,292.444z"/>
				</g>
			</g>
		</g>
	</g>
	<g>
		<path style="fill:#0CC3BE;" d="M677.454,356.357c-3.352,9.155-8.484,17.685-14.865,25.546c-0.89,1.098-1.815,2.185-2.763,3.26
			c-2.185,2.508-4.496,4.936-6.924,7.282c-0.751,0.728-1.503,1.456-2.277,2.161c-1.341,1.249-2.705,2.474-4.104,3.664
			c-0.797,0.694-1.595,1.364-2.404,2.023c-1.434,1.19-2.878,2.346-4.358,3.479c-2.266,1.746-4.589,3.433-6.947,5.063
			c-0.555,0.485-1.098,0.959-1.653,1.422c-0.231,0.012-0.463,0.07-0.682,0.173c-0.127,0.093-0.266,0.185-0.405,0.266
			c-0.011,0-0.011,0-0.011,0.011c-2.612,1.745-5.271,3.422-7.964,5.04c-3.722-0.254-7.432-0.682-11.12-1.272
			c-3.456-0.555-7.028-1.306-9.848-3.364c-2.844-2.046-4.763-5.745-3.745-9.097c0.913-2.959,3.757-4.855,6.519-6.277
			c7.502-3.849,15.871-5.999,24.297-6.253c-13.016-5.525-24.529-14.542-33.048-25.846c-2.67-3.56-5.109-7.444-6.126-11.779
			c-1.029-4.346-0.474-9.236,2.335-12.703c5.283-6.543,15.651-5.444,23.269-1.919c11.316,5.248,20.714,14.541,26.077,25.8
			c-4.716-14.195-6.67-29.302-5.722-44.237c0.3-4.681,0.994-9.617,3.988-13.224c4.971-6.011,14.819-5.872,21.246-1.468
			c6.45,4.369,10.068,11.848,12.518,19.258C676.218,333.967,677.801,345.191,677.454,356.357z"/>
		<path style="fill:#0797A7;" d="M627.38,402.674c4.126,0.358,8.253,0.728,12.38,1.098c-2.266,1.746-4.589,3.433-6.947,5.063
			c0.902-0.763,1.803-1.538,2.705-2.312l-16.853-1.503c-2.011-0.162-1.329-3.225,0.659-3.052c1.283,0.104,2.566,0.208,3.849,0.335
			c-1.006-1.352-2.023-2.693-3.029-4.046c-1.225-1.618,1.399-3.329,2.624-1.734C624.294,398.582,625.843,400.617,627.38,402.674z"/>
		<path style="fill:#0797A7;" d="M643.586,395.323c0.971,0.983,1.953,1.965,2.936,2.948c-0.797,0.694-1.595,1.364-2.404,2.023
			c-0.867-0.878-1.734-1.745-2.601-2.624C640.084,396.247,642.176,393.889,643.586,395.323z"/>
		<path style="fill:#0797A7;" d="M650.337,389.855c0.855,0.867,1.711,1.722,2.566,2.589c-0.751,0.728-1.503,1.456-2.277,2.161
			c-4.82-4.866-9.64-9.721-14.461-14.588c-4.219,0.439-8.427,0.878-12.634,1.329c-2.011,0.22-2.162-2.924-0.15-3.133l9.952-1.052
			c-6.288-6.358-12.576-12.704-18.876-19.05c-4.08,0.174-8.149,0.335-12.23,0.497c-2.011,0.104-2.173-3.052-0.15-3.121
			c3.132-0.139,6.254-0.266,9.375-0.393c-0.358-0.37-0.717-0.728-1.075-1.098c-1.422-1.41,0.659-3.78,2.092-2.346
			c3.468,3.514,6.947,7.016,10.426,10.519c-0.381-2.659-0.763-5.329-1.144-7.999c-0.277-1.988,2.855-2.138,3.144-0.15
			c0.543,3.803,1.075,7.606,1.607,11.397c0.035,0.15,0.012,0.266-0.023,0.393c6.889,6.936,13.778,13.883,20.668,20.829
			l-0.543-12.761c-0.093-2.023,3.04-2.185,3.133-0.15c0.231,5.225,0.439,10.461,0.67,15.686
			C650.418,389.601,650.383,389.728,650.337,389.855z"/>
		<path style="fill:#0797A7;" d="M669.074,371.511c-2,3.017-4,6.057-5.999,9.074c-0.162,0.254-0.37,0.416-0.578,0.543l0.093,0.774
			c-0.89,1.098-1.815,2.185-2.763,3.26c-0.879-7.248-1.757-14.495-2.635-21.743c-0.185-0.046-0.382-0.127-0.555-0.254l-11.212-7.675
			c-1.664-1.133,0.439-3.479,2.081-2.346c3.075,2.092,6.138,4.196,9.201,6.3l-3.202-26.401c-3.479-1.607-6.982-3.213-10.484-4.809
			c-1.838-0.844-0.416-3.641,1.434-2.809c2.855,1.329,5.733,2.647,8.612,3.965l-0.624-5.178c-0.243-2.011,2.901-2.162,3.144-0.162
			c0.89,7.409,1.803,14.819,2.693,22.205l7.883-10.299c1.237-1.618,3.572,0.474,2.347,2.069c-3.214,4.207-6.427,8.415-9.652,12.623
			c-0.012,0.011-0.035,0.035-0.046,0.058c1.052,8.646,2.092,17.292,3.144,25.939c1.445-2.173,2.878-4.369,4.323-6.554
			C667.375,368.413,670.184,369.823,669.074,371.511z"/>
	</g>
	<path style="fill:#FFFFFF;" d="M339.905,67.806c-8.181,0-8.195,12.715,0,12.715C348.087,80.521,348.101,67.806,339.905,67.806z"/>
	<path style="fill:#FFFFFF;" d="M435.938,155.656c-8.181,0-8.195,12.715,0,12.715C444.12,168.37,444.133,155.656,435.938,155.656z"
		/>
	<path style="fill:#FFFFFF;" d="M280.756,155.077c-8.181,0-8.195,12.715,0,12.715C288.938,167.793,288.952,155.077,280.756,155.077z
		"/>
	<path style="fill:#FFFFFF;" d="M314.278,143.229c-2.975,0-2.98,4.624,0,4.624C317.253,147.853,317.258,143.229,314.278,143.229z"/>
	<path style="fill:#FFFFFF;" d="M403.635,81.071c-2.975,0-2.98,4.624,0,4.624C406.61,85.694,406.615,81.071,403.635,81.071z"/>
	<path style="fill:#FFFFFF;" d="M468.014,154.788c-2.975,0-2.98,4.624,0,4.624C470.989,159.412,470.994,154.788,468.014,154.788z"/>
	<path style="fill:#FFFFFF;" d="M515.407,103.928c-2.975,0-2.98,4.624,0,4.624C518.382,108.552,518.387,103.928,515.407,103.928z"/>
	<g>
		<g>
			
				<linearGradient id="SVGID_00000066487506424496418240000017469950764392947103_" gradientUnits="userSpaceOnUse" x1="355.5449" y1="199.7775" x2="355.5449" y2="271.9185">
				<stop  offset="0" style="stop-color:#E1E0F0;stop-opacity:0"/>
				<stop  offset="1" style="stop-color:#C3C0D9"/>
			</linearGradient>
			<path style="fill:url(#SVGID_00000066487506424496418240000017469950764392947103_);" d="M406.949,210.673L376.09,270.46
				c-2.569,4.977-8.659,6.921-13.607,4.367l-52.885-27.297c-4.948-2.554-6.892-8.644-4.323-13.621l40.309-78.096
				c2.554-4.948,8.644-6.892,13.592-4.338l34.547,17.832L406.949,210.673z"/>
			<path style="fill:#FFFFFF;" d="M413.578,208.463l-30.859,59.787c-2.569,4.977-8.659,6.921-13.607,4.367l-52.885-27.297
				c-4.948-2.554-6.892-8.644-4.323-13.621l40.309-78.096c2.554-4.948,8.644-6.892,13.592-4.338l34.547,17.831L413.578,208.463z"/>
			<polygon style="fill:#DFDEEE;" points="413.578,208.463 386.275,194.371 400.353,167.097 			"/>
			
				<rect x="345.818" y="182.947" transform="matrix(0.8886 0.4587 -0.4587 0.8886 127.9354 -143.7748)" style="fill:#456997;" width="28.32" height="17.129"/>
		</g>
		
			<rect x="335.976" y="211.389" transform="matrix(0.8886 0.4587 -0.4587 0.8886 139.0513 -143.8527)" style="fill:#DFDEEE;" width="59.439" height="5.937"/>
		
			<rect x="330.811" y="221.395" transform="matrix(0.8886 0.4587 -0.4587 0.8886 143.0647 -140.3691)" style="fill:#DFDEEE;" width="59.439" height="5.937"/>
		
			<rect x="325.647" y="231.401" transform="matrix(0.8886 0.4587 -0.4587 0.8886 147.0792 -136.8862)" style="fill:#DFDEEE;" width="59.439" height="5.937"/>
		
			<rect x="320.482" y="241.406" transform="matrix(0.8886 0.4587 -0.4587 0.8886 151.0926 -133.4027)" style="fill:#DFDEEE;" width="59.439" height="5.937"/>
	</g>
</g>
</svg>
