<?xml version="1.0" encoding="utf-8"?>
<!-- Generator: Adobe Illustrator 27.5.0, SVG Export Plug-In . SVG Version: 6.00 Build 0)  -->
<svg version="1.1" xmlns="http://www.w3.org/2000/svg" xmlns:xlink="http://www.w3.org/1999/xlink" x="0px" y="0px"
	 viewBox="0 0 500 500" style="enable-background:new 0 0 500 500;" xml:space="preserve">
<g id="BACKGROUND">
	<rect style="fill:none;" width="500" height="500"/>
</g>
<g id="OBJECTS">
	<ellipse style="fill-rule:evenodd;clip-rule:evenodd;fill:#E6E6E6;" cx="252.353" cy="437.7" rx="160.366" ry="6.787"/>
	<g>
		<path style="fill-rule:evenodd;clip-rule:evenodd;fill:#28282B;" d="M155.144,306.402l71.693,1.645
			c2.801,0.064,5.04,2.408,4.976,5.21l-1.133,49.362c-0.064,2.801-2.409,5.04-5.21,4.975l-71.692-1.646
			c-2.801-0.064-5.04-2.409-4.976-5.209l1.133-49.362C149.998,308.576,152.343,306.337,155.144,306.402z"/>
		<path style="fill-rule:evenodd;clip-rule:evenodd;fill:#242424;" d="M155.144,306.402l34.626,0.795l-2.823,18.509l-3.501-0.059
			l-2.595,35.539c0,0-0.123,2.518-0.329,5.377l-26.745-0.614c-2.801-0.064-5.04-2.409-4.976-5.21l1.133-49.362
			C149.998,308.576,152.343,306.337,155.144,306.402z"/>
		<path style="fill-rule:evenodd;clip-rule:evenodd;fill:#FAD9C7;" d="M198.09,285.395c0.252,0.63,3.517,7.628,3.433,11.127
			c-0.084,3.5-8.048,5.492-11.555,5.179c-3.507-0.313-5.024-2.449-5.107-3.849c-0.084-1.4,0.653-13.395,0.653-13.395L198.09,285.395
			z"/>
		<path style="fill-rule:evenodd;clip-rule:evenodd;fill:#1B1B1B;" d="M151.42,306.135l23.46,0.719l0.22-9.592
			c0.028-1.206,0.952-2.171,2.054-2.146l28.212,0.647c1.102,0.025,1.981,1.032,1.953,2.237l-0.22,9.593l23.909,0.556
			c2.79,0.076,2.479,2.236,2.432,5.022c-0.333,5.114-0.608,10.743-0.807,13.299l-83.908-1.407
			C148.613,324.987,147.191,306.006,151.42,306.135L151.42,306.135z M178.916,306.947L178.916,306.947l24.147,0.555l0.139-6.047
			c0.019-0.804-0.567-1.474-1.302-1.492l-21.477-0.493c-0.734-0.017-1.35,0.627-1.368,1.43L178.916,306.947z"/>
		<path style="fill-rule:evenodd;clip-rule:evenodd;fill:#FAD9C7;" d="M199.997,285.614c0.315-1.015,1.185-3.979-1.017-4.999
			c-2.202-1.02-10.495-0.53-11.09,1.5c-0.595,2.029,1.12,4.234,3.394,4.759C193.558,287.399,199.997,285.614,199.997,285.614z"/>
		<path style="fill-rule:evenodd;clip-rule:evenodd;fill:#FAD9C7;" d="M197.839,286.129c0.126,0.28,2.224,3.506,1.34,5.774
			c-0.883,2.268-3.935,7.453-5.902,5.984c-1.968-1.47,1.59-6.404,1.256-6.859c-0.335-0.455-4.356-2.598-3.6-3.534
			C191.688,286.559,197.839,286.129,197.839,286.129z"/>
		<path style="fill-rule:evenodd;clip-rule:evenodd;fill:#353333;" d="M179.246,183.543c2.033-2.257,9.6-13.987,15.158-9.653
			c5.558,4.334,6.786,112.255,6.786,112.255s-17.726,2.768-16.519,0.042C185.878,283.462,179.246,183.543,179.246,183.543z"/>
		<path style="fill-rule:evenodd;clip-rule:evenodd;fill:#772E1E;" d="M187.486,102.245c0.63,0.21,4.689,5.738,5.109,12.387
			c0.42,6.648-3.359,17.356-3.289,16.586c0.07-0.77-5.809-25.194-5.809-25.194L187.486,102.245z"/>
		<polygon style="fill-rule:evenodd;clip-rule:evenodd;fill:#88898B;" points="145.767,166.745 144.995,159.024 173.198,163.153 
			174.987,173.649 		"/>
		<path style="fill-rule:evenodd;clip-rule:evenodd;fill:#C8C9CA;" d="M154.58,163.935c-1.972,0.717-9.726,1.945-12.298,2.515
			c-7.998,1.772-20.866,5.62-20.734,5.463c0.171-0.204,6.814,69.676,10.222,104.514c17.842,5.711,50.538,7.824,54.571,1.497
			s8.969-99.992,8.969-99.992l-22.867-10.794L154.58,163.935z"/>
		<path style="fill-rule:evenodd;clip-rule:evenodd;fill:#F8CAB2;" d="M148.141,148.679c0.28,1.959,0.28,18.336,0.28,18.336
			s5.598,4.759,14.416,6.579c8.818,1.819,11.198-0.28,11.198-0.28l-4.48-17.356L148.141,148.679z"/>
		<path style="fill-rule:evenodd;clip-rule:evenodd;fill:#2C2B2B;" d="M166.281,424.565c0.279,0.837,2.79,4.324,4.813,5.789
			c2.023,1.465,17.697,6.266,16.024,7.172c-1.674,0.907-18.395,0.012-19.441,0.151s-3.488-1.116-3.572-1.076c0,0,0,1.295-0.49,1.33
			c-0.49,0.035-7.209,0.14-7.454-0.49c-0.245-0.63-0.07-5.074,0.07-6.509c0.14-1.435,1.4-4.829,1.4-4.829L166.281,424.565z"/>
		<path style="fill-rule:evenodd;clip-rule:evenodd;fill:#2C2B2B;" d="M143.466,424.215c0.279,0.837,2.79,4.324,4.813,5.789
			c2.022,1.465,17.697,6.266,16.023,7.172c-1.674,0.907-18.395,0.012-19.441,0.152c-1.046,0.139-3.487-1.116-3.572-1.076
			c0,0,0,1.295-0.49,1.33c-0.49,0.035-7.208,0.14-7.454-0.49c-0.245-0.63-0.07-5.074,0.07-6.509c0.14-1.435,1.399-4.829,1.399-4.829
			L143.466,424.215z"/>
		<path style="fill-rule:evenodd;clip-rule:evenodd;fill:#302E2E;" d="M131.343,272.072c0.149,0.004-1.9,12.308-3.495,17.442
			l6.151,138.925l12.377-0.2c0,0,9.745-126.026,11.425-116.788c1.68,9.238-0.7,116.173-0.7,116.173l11.897,0.7l17.356-141.787
			l-2.443-11.773C157.793,284.49,130.539,272.051,131.343,272.072z"/>
		<path style="fill-rule:evenodd;clip-rule:evenodd;fill:#3D3E3D;" d="M137.999,279.649c23.221,6.862,44.233,2.851,44.301,1.398
			l0.304-6.51c-9.366,3.439-26.915,2.066-43.695-1.958L137.999,279.649z"/>
		<polygon style="fill-rule:evenodd;clip-rule:evenodd;fill:#888888;" points="159.241,275.621 158.732,284.305 173.937,284.474 
			173.87,275.901 		"/>
		<path style="fill-rule:evenodd;clip-rule:evenodd;fill:#E7373E;" d="M172.079,171.513c-0.77-0.242-7.348,0.07-7.348,0.07
			s-3.15,7.978-1.96,9.308c1.189,1.33,4.339,4.129,4.759,4.129s6.018,0.98,6.998-0.49
			C177.023,180.788,177.347,173.171,172.079,171.513z"/>
		<path style="fill-rule:evenodd;clip-rule:evenodd;fill:#B4B5B5;" d="M171.309,171.271c0.28,0.42,4.829,12.667,4.969,12.177
			c0.14-0.49,3.709-13.157,3.709-13.157l-6.788-7.139L171.309,171.271z"/>
		<path style="fill-rule:evenodd;clip-rule:evenodd;fill:#E7373E;" d="M167.11,183.34c0,0.49-8.818,82.37-8.818,82.37
			s9.377,15.116,9.377,14.137s10.623-13.235,10.623-13.235l-3.259-82.949L167.11,183.34z"/>
		<path style="fill-rule:evenodd;clip-rule:evenodd;fill:#FAD9C7;" d="M182.511,101.888c4.181,6.025,10.383,8.29,8.706,23.555
			c5.486,16.498-1.108,36.156-20.813,36.967c-16.674,0.686-25.962-4.915-31.906-20.203c-4.772-12.275-6.301-25.945-2.148-33.42
			C141.948,98.709,182.511,101.888,182.511,101.888z"/>
		<path style="fill-rule:evenodd;clip-rule:evenodd;fill:#F5B390;" d="M192.552,142.677c-1.928,10.548-9.214,19.201-22.148,19.733
			c-14.922,0.614-23.928-3.808-29.917-15.702c0.184-0.807-1.329-3.583-1.112-5.524c0.217-1.941,2.561-5.346,2.561-5.346l1.36-1.957
			c0.42,0,2.326,2.411,2.326,2.411s3.623,9.906,6.982,12.776c3.359,2.869,4.409-3.849,8.258-4.549
			c3.849-0.7,19.176-2.309,21.275-0.49c2.099,1.82,1.955,3.408,6.019,1.82C190.547,144.913,191.869,143.6,192.552,142.677z"/>
		<path style="fill-rule:evenodd;clip-rule:evenodd;fill:#772E1E;" d="M141.946,135.102c-0.634,2.281,3.966,3.033,3.676,1.19
			c-0.317-7.703-1.581-18.216,2.198-22.275c3.36-2.309,31.248,4.516,40.626-6.261c9.378-10.778,0.986-18.983,0.986-18.983
			c-10.739,11.762-38.286-2.887-49.828,6.159c-5.179,4.059-5.459,8.118-5.459,8.118c-18.053,2.289-8.715,42.946,7.871,46.426
			C139.078,143.91,139.216,137.895,141.946,135.102z"/>
		<path style="fill-rule:evenodd;clip-rule:evenodd;fill:#3E3A39;" d="M142.248,166.419c0,0,8.626,7.611,9.466,29.446
			c0.84,21.835,1.182,56.839-4.868,77.128c-6.049,20.289-5.77,21.409-5.77,21.409l-29.953-12.597c0,0,6.159-3.639,9.238-34.712
			c1.913-19.3-1.678-55.152-4.104-76.016c-0.23-1.979,3.605-2.093,11.106-2.766C131.322,167.956,136.303,167.444,142.248,166.419z"
			/>
		<path style="fill-rule:evenodd;clip-rule:evenodd;fill:#3E3A39;" d="M179.987,170.291c1.445,1.09,2.448,31.019,1.4,69.243
			c-1.048,38.224-6.469,48.478-0.84,47.309c5.629-1.169,11.757,2.52,11.757,0.84c0-1.68,2.519-43.39,5.319-75.023
			c2.799-31.633-3.219-38.771-3.219-38.771L179.987,170.291z"/>
		<path style="fill-rule:evenodd;clip-rule:evenodd;fill:#444443;" d="M151.713,195.865c-0.437-11.364-2.983-18.875-5.325-23.466
			c-0.872-1.71-1.716-3.015-2.411-3.963c-1.025-1.397-1.729-2.018-1.729-2.018c-5.945,1.025-10.926,1.536-14.886,1.892
			c0.224,0.567,0.985,1.506,2.047,2.645c4.145,4.445,12.868,11.918,12.088,12.03c-0.979,0.14-10.078,5.319-9.238,6.719
			s19.471,48.276,19.471,48.276C152.47,223.02,152.163,207.555,151.713,195.865z"/>
		<path style="fill-rule:evenodd;clip-rule:evenodd;fill:#B4B5B5;" d="M169,171.621c-0.35,0.42-7.418,13.856-7.488,13.087
			c-0.07-0.769-19.264-18.289-19.264-18.289l2.747-7.395L169,171.621z"/>
		<path style="fill-rule:evenodd;clip-rule:evenodd;fill:#444443;" d="M180.251,170.824c1.272,4.225,2.087,31.746,1.192,66.6
			c0,0,9.323-30.924,9.463-33.863c0.14-2.939-5.179-6.019-5.179-6.019s4.053-13.597,6.126-21.242
			c0.394-1.452,0.715-2.689,0.925-3.578l-12.791-2.431C180.077,170.359,180.165,170.538,180.251,170.824z"/>
		<path style="fill-rule:evenodd;clip-rule:evenodd;fill:#FAD9C7;" d="M142.058,126.673c-2.099-0.84-10.078-5.319-11.477,1.54
			c-1.4,6.858,2.1,12.317,6.859,13.017c4.759,0.7,4.479-4.059,4.479-4.059L142.058,126.673z"/>
		<path style="fill-rule:evenodd;clip-rule:evenodd;fill:#FAD9C7;" d="M188.945,217.21c3.872-1.429,7.283-4.341,7.283-4.341
			s10.929-9.067,12.328-6.827c1.399,2.24-5.259,7.439-5.259,7.439s3.727-2.18,9.536-4.296c5.809-2.116,6.928-2.642,8.048-1.522
			c1.12,1.12-0.945,3.569-0.945,3.569s5.319-2.065,5.809-0.14c0.49,1.925-5.622,4.363-5.622,4.363s4.469-0.936,4.832,0.848
			c0.331,1.628-3.78,3.192-4.984,3.678c0,0,2.988-0.152,2.03,1.89c-0.959,2.041-10.302,4.354-10.078,4.269
			c0.224-0.085-3.639,1.645-7.628,2.904c-3.989,1.26-12.495,2.315-12.947,0.105C190.895,226.938,188.945,217.21,188.945,217.21z"/>
		<path style="fill-rule:evenodd;clip-rule:evenodd;fill:#424040;" d="M128.868,186.478c1.399-8.258-9.573-16.623-11.952-16.623
			c-11.393,2.52-12.852,57.561,21.47,77.368c9.658,6.718,57.732-16.361,57.732-16.361c0.195-6.423-5.366-15.367-5.366-15.367
			c-9.95,4.232-42.349,16.693-46.226,13.411C139.446,220.518,131.807,206.848,128.868,186.478z"/>
		<path style="fill-rule:evenodd;clip-rule:evenodd;fill:#FAD9C7;" d="M260.707,208.654c-2.278-6.328-5.46-6.16-10.224-9.982
			c0,0-3.404-1.215-7.939-4.948c-4.536-3.732-5.372-4.557-6.73-3.908c-1.357,0.65-0.282,3.497-0.282,3.497s-4.112-3.532-5.16-1.962
			c-1.047,1.57,3.657,5.686,3.657,5.686s-3.708-2.251-4.597-0.768c-0.811,1.354,2.378,4.055,3.303,4.87c0,0-2.63-1.08-2.416,1.052
			c0.214,2.132,7.853,7.158,7.68,7.01c-0.174-0.147,2.74,2.624,5.916,5.014c3.176,2.39,10.463,6.025,11.566,4.187
			C256.586,216.565,260.707,208.654,260.707,208.654z"/>
		<polygon style="fill-rule:evenodd;clip-rule:evenodd;fill:#ABA6A4;" points="231.056,176.482 231.664,176.217 231.932,176.32 
			232.3,177.155 232.196,177.425 231.591,177.691 231.323,177.588 230.951,176.753 		"/>
		<path style="fill-rule:evenodd;clip-rule:evenodd;fill:#3F392C;" d="M241.542,193.673c3.08,6.987,5.419,13.309,6.447,17.19
			l-2.38,1.049c-2.171-3.382-5.255-9.372-8.333-16.359c-3.154-7.155-5.533-13.617-6.523-17.468c0.027-0.014-0.157-0.463,0.962-0.934
			c1.073-0.455,1.315-0.07,1.337-0.079C235.227,180.404,238.389,186.518,241.542,193.673z"/>
		<path style="fill-rule:evenodd;clip-rule:evenodd;fill:#85827F;" d="M231.119,179.415l-0.008-0.031
			c-0.243,0.095-0.536,0.238-0.613,0.403c-0.136,0.289,2.926,8.203,3.751,9.926c1.303,2.725,2.235,2.875,1.651,6.023
			c0,0-6.275-15.959-6.26-16.146c0.055-0.648,0.696-0.854,1.23-1.057l2.435-1.069c0.152,0.245,0.313,0.503,0.481,0.775l-2.334,1.029
			L231.119,179.415z"/>
		<path style="fill-rule:evenodd;clip-rule:evenodd;fill:#ABA6A4;" d="M242.151,195.07c0.121,0.278,0.24,0.553,0.357,0.829
			l-4.243,1.868c-0.125-0.271-0.246-0.546-0.37-0.82L242.151,195.07z"/>
		<path style="fill-rule:evenodd;clip-rule:evenodd;fill:#ABA6A4;" d="M247.989,210.863c0.436,1.633,0.638,2.834,0.567,3.471
			l-0.767,0.336c-0.517-0.374-1.268-1.336-2.18-2.759L247.989,210.863z"/>
		<path style="fill-rule:evenodd;clip-rule:evenodd;fill:#FAD9C7;" d="M256.67,204.017c-0.104-1.265-0.587-5.955-2.338-6.988
			c-2.238-1.32-15.625-5.929-15.299-2.898c0.237,2.209,0.843,2.544,3.673,3.916c2.83,1.371,5.952,2.064,5.952,2.064
			s-0.864,1.272-0.071,4.418c0.793,3.146,3.373,5.036,5.325,3.581S256.67,204.017,256.67,204.017z"/>
		<path style="fill-rule:evenodd;clip-rule:evenodd;fill:#DADDDC;" d="M316.988,180.492c0.604-2.813,19.452-8.451,18.607-8.239
			c-2.359,0.591-10.879,62.046-40.548,60.936c-30.16-1.189-44.108-12.493-44.108-12.493c2.255-4.172,3.489-6.128,7.38-12.737
			c12.566,2.749,38.506,8.094,39.585,7.916C302.444,213.461,308.225,196.977,316.988,180.492z"/>
		<polygon style="fill-rule:evenodd;clip-rule:evenodd;fill:#88898B;" points="366.494,168.61 367.266,160.889 339.062,165.017 
			337.274,175.514 		"/>
		<path style="fill-rule:evenodd;clip-rule:evenodd;fill:#302E2E;" d="M380.917,273.936c-0.088,0.002,0.382,3.582,1.608,9.462
			c0.84,4.026,2.359,10.372,3.007,12.459l-7.271,134.446l-12.377-0.2c0,0-9.745-126.026-11.425-116.789
			c-1.68,9.238,0.7,116.173,0.7,116.173l-11.897,0.7L325.066,294l3.283-17.372C354.468,286.354,381.722,273.915,380.917,273.936z"/>
		<path style="fill-rule:evenodd;clip-rule:evenodd;fill:#3D3E3D;" d="M382.525,283.398c-19.269,3.742-36.427,6.562-56.024,2.134
			l0.504-6.059c0,0,24.244,0.807,35.557-1.005c11.313-1.812,19.469-3.762,19.469-3.762L382.525,283.398z"/>
		<polygon style="fill-rule:evenodd;clip-rule:evenodd;fill:#888888;" points="356.637,280.667 357.146,289.351 341.941,289.52 
			342.008,280.947 		"/>
		<path style="fill-rule:evenodd;clip-rule:evenodd;fill:#E7E8EA;" d="M357.681,165.799c1.972,0.717,9.726,1.945,12.298,2.515
			c7.999,1.772,20.866,5.62,20.734,5.463c-0.166-0.199-3.685,65.885-7.076,101.512c-0.826,8.681-54.857,11.426-58.872,5.128
			c-4.033-6.327-7.814-100.622-7.814-100.622l22.868-10.794L357.681,165.799z"/>
		<path style="fill-rule:evenodd;clip-rule:evenodd;fill:#F8CAB2;" d="M364.119,150.543c-0.28,1.959-0.28,18.336-0.28,18.336
			s-5.599,4.759-14.417,6.578c-8.818,1.82-11.198-0.28-11.198-0.28l4.479-17.356L364.119,150.543z"/>
		<path style="fill-rule:evenodd;clip-rule:evenodd;fill:#2C2B2B;" d="M345.98,426.429c-0.279,0.837-2.79,4.324-4.813,5.789
			c-2.023,1.464-17.697,6.266-16.024,7.172c1.674,0.907,18.395,0.012,19.441,0.152s3.487-1.116,3.572-1.076c0,0,0,1.295,0.49,1.33
			c0.49,0.035,7.208,0.14,7.453-0.49c0.245-0.63,0.07-5.074-0.07-6.509c-0.14-1.435-1.399-4.829-1.399-4.829L345.98,426.429z"/>
		<path style="fill-rule:evenodd;clip-rule:evenodd;fill:#2C2B2B;" d="M368.795,426.079c-0.279,0.837-2.79,4.324-4.813,5.789
			c-2.023,1.465-17.698,6.266-16.023,7.172c1.674,0.907,18.395,0.012,19.441,0.151c1.046,0.139,3.487-1.116,3.572-1.076
			c0,0,0,1.295,0.49,1.33c0.49,0.035,7.208,0.14,7.454-0.49c0.245-0.63,0.07-5.074-0.07-6.509c-0.14-1.435-1.4-4.829-1.4-4.829
			L368.795,426.079z"/>
		<path style="fill-rule:evenodd;clip-rule:evenodd;fill:#203450;" d="M340.182,173.378c0.77-0.242,7.348,0.07,7.348,0.07
			s3.15,7.978,1.96,9.308c-1.19,1.33-4.339,4.129-4.759,4.129c-0.42,0-6.018,0.98-6.998-0.49
			C335.237,182.653,334.914,175.035,340.182,173.378z"/>
		<path style="fill-rule:evenodd;clip-rule:evenodd;fill:#DADDDC;" d="M340.952,173.136c-0.28,0.42-4.829,12.667-4.969,12.177
			c-0.14-0.49-3.709-13.157-3.709-13.157l6.788-7.139L340.952,173.136z"/>
		<path style="fill-rule:evenodd;clip-rule:evenodd;fill:#203450;" d="M345.151,185.204c0,0.49,6.298,79.571,6.298,79.571
			s-9.518,18.196-9.518,17.216c0-0.98-8.943-18.834-8.943-18.834l4.239-77.63L345.151,185.204z"/>
		<path style="fill-rule:evenodd;clip-rule:evenodd;fill:#DADDDC;" d="M343.261,173.486c0.35,0.42,7.418,13.856,7.488,13.087
			c0.07-0.77,19.264-18.289,19.264-18.289l-2.748-7.395L343.261,173.486z"/>
		<path style="fill-rule:evenodd;clip-rule:evenodd;fill:#F0F1F1;" d="M375.835,189.042c-1.4-8.258,12.499-15.265,14.878-15.265
			c3.275,0,10.045,58.868-6.641,67.059c-30.513,13.716-58.13,13.984-58.13,13.984c-0.195-6.423,2.845-16.184,2.845-16.184
			c16.948,0.733,39.689-7.102,45.945-11.923C377.909,224.116,377.655,209.133,375.835,189.042z"/>
		<path style="fill-rule:evenodd;clip-rule:evenodd;fill:#3E3A39;" d="M184.661,132.88c1.6,0,2.904-1.635,2.904-3.639
			c0-2.004-1.305-3.639-2.904-3.639c-1.6,0-2.904,1.635-2.904,3.639C181.757,131.245,183.061,132.88,184.661,132.88z"/>
		<path style="fill-rule:evenodd;clip-rule:evenodd;fill:#3E3A39;" d="M160.867,134.839c1.6,0,2.904-1.635,2.904-3.639
			c0-2.004-1.304-3.639-2.904-3.639c-1.6,0-2.904,1.635-2.904,3.639C157.963,133.204,159.268,134.839,160.867,134.839z"/>
		<path style="fill-rule:evenodd;clip-rule:evenodd;fill:#EAAA85;" d="M170.392,138.652c0.708,1.141,2.772,2.031,3.81,2.148
			c0.983,0.111,4.743-2.377,4.672-2.555l0.001,0c0,0-2.837-7.88-3.401-8.743c-0.564-0.864,1.877,6.753,1.626,7.884
			c-0.105,0.473-0.534,0.826-0.997,1.077C172.826,138.471,169.838,137.758,170.392,138.652z"/>
		<path style="fill-rule:evenodd;clip-rule:evenodd;fill:#EEEEEF;" d="M162.076,131.864c0.685,0,1.243-0.7,1.243-1.558
			c0-0.858-0.558-1.558-1.243-1.558s-1.243,0.7-1.243,1.558C160.832,131.164,161.391,131.864,162.076,131.864z"/>
		<path style="fill-rule:evenodd;clip-rule:evenodd;fill:#EEEEEF;" d="M185.311,129.695c0.685,0,1.243-0.7,1.243-1.558
			c0-0.858-0.558-1.558-1.243-1.558s-1.243,0.7-1.243,1.558C184.067,128.995,184.626,129.695,185.311,129.695z"/>
		<path style="fill-rule:evenodd;clip-rule:evenodd;fill:#772E1E;" d="M153.49,123.097l12.674-0.819
			c0.852-0.055,1.584,0.597,1.629,1.45v0c0.044,0.852-0.616,1.594-1.468,1.649l-12.674,0.819c-0.852,0.055-1.584-0.597-1.629-1.449
			v0C151.978,123.895,152.638,123.152,153.49,123.097z"/>
		<path style="fill-rule:evenodd;clip-rule:evenodd;fill:#772E1E;" d="M177.531,121.293l11.204-1.029
			c0.85-0.078,1.629,0.596,1.629,1.45c0,0.847-0.613,1.571-1.468,1.65l-11.204,1.029c-0.85,0.078-1.629-0.596-1.629-1.449
			C176.064,122.096,176.676,121.372,177.531,121.293z"/>
		<path style="fill-rule:evenodd;clip-rule:evenodd;fill:#CF6743;" d="M178.947,145.566c-1.031,2.239-0.276,9.063-7.399,9.448
			c-7.123,0.384-6.766-8.608-6.766-8.608L178.947,145.566z"/>
		<path style="fill-rule:evenodd;clip-rule:evenodd;fill:#F3A780;" d="M133.145,127.792c-1.365,1.994,0.21,8.188,1.47,9.343
			c1.26,1.155,3.915,2.188,4.409,0.77c0.494-1.418,0.77-2.799,0.42-2.974c-0.35-0.175-1.89-0.665-1.75-1.854
			c0.14-1.19,0.175-1.54,1.329-1.96c1.155-0.42,1.12-1.75,0.735-2.275C138.489,127.11,134.52,125.783,133.145,127.792z"/>
		<path style="fill-rule:evenodd;clip-rule:evenodd;fill:#FFFFFF;" d="M176.257,148.508c0.643-0.414,0.517-1.824,0.354-2.803
			l-11.829,0.701c0,0-0.05,1.267,0.263,2.829C169.022,149.231,175.577,148.945,176.257,148.508z"/>
		<path style="fill-rule:evenodd;clip-rule:evenodd;fill:#231916;" d="M327.277,104.522c-0.63,0.21-4.689,5.739-5.109,12.387
			c-0.42,6.648,3.359,17.356,3.289,16.586c-0.069-0.77,5.809-25.194,5.809-25.194L327.277,104.522z"/>
		<path style="fill-rule:evenodd;clip-rule:evenodd;fill:#FAD9C7;" d="M332.252,104.165c-4.181,6.025-10.383,8.29-8.706,23.554
			c-7.433,19.389,4.703,36.305,20.813,36.967c16.674,0.686,25.962-4.914,31.906-20.203c4.773-12.275,6.301-25.945,2.148-33.42
			C372.815,100.986,332.252,104.165,332.252,104.165z"/>
		<path style="fill-rule:evenodd;clip-rule:evenodd;fill:#231916;" d="M375.72,138.778l-6.578-0.21c0,0,1.371-24.444,0.111-24.584
			c-5.356,1.631-39.151,17.533-55.929-9.037c15.456-5.969,14.244-10.43,27.895-14.076c10.436-2.421,38.331-1.001,39.399,14.455
			c11.194,8.448,12.074,31.189-7.871,46.426C375.685,146.186,375.195,145.036,375.72,138.778z"/>
		<path style="fill-rule:evenodd;clip-rule:evenodd;fill:#FAD9C7;" d="M372.705,128.949c2.099-0.84,10.078-5.319,11.477,1.54
			c1.4,6.858-2.1,12.317-6.859,13.017c-4.759,0.7-4.479-4.059-4.479-4.059L372.705,128.949z"/>
		<path style="fill-rule:evenodd;clip-rule:evenodd;fill:#3E3A39;" d="M330.102,135.156c1.6,0,2.904-1.635,2.904-3.639
			c0-2.004-1.304-3.639-2.904-3.639c-1.6,0-2.904,1.635-2.904,3.639C327.198,133.522,328.502,135.156,330.102,135.156z"/>
		<path style="fill-rule:evenodd;clip-rule:evenodd;fill:#3E3A39;" d="M353.896,137.116c1.6,0,2.904-1.635,2.904-3.639
			c0-2.004-1.304-3.639-2.904-3.639s-2.904,1.635-2.904,3.639C350.992,135.481,352.297,137.116,353.896,137.116z"/>
		<path style="fill-rule:evenodd;clip-rule:evenodd;fill:#EAAA85;" d="M345.025,143.068c-0.961,0.886-3.199,1.169-4.248,1
			c-0.993-0.16-4.12-3.519-4.009-3.667l-0.001-0.001c0,0,4.614-6.669,5.369-7.332c0.755-0.663-3.409,5.865-3.423,6.999
			c-0.006,0.474,0.335,0.923,0.732,1.284C342.671,142.243,345.777,142.375,345.025,143.068z"/>
		<path style="fill-rule:evenodd;clip-rule:evenodd;fill:#EEEEEF;" d="M352.688,134.141c0.685,0,1.243-0.7,1.243-1.558
			c0-0.858-0.558-1.558-1.243-1.558c-0.685,0-1.243,0.699-1.243,1.558C351.445,133.441,352.003,134.141,352.688,134.141z"/>
		<path style="fill-rule:evenodd;clip-rule:evenodd;fill:#EEEEEF;" d="M329.453,131.971c0.685,0,1.243-0.7,1.243-1.558
			c0-0.858-0.558-1.558-1.243-1.558c-0.685,0-1.243,0.699-1.243,1.558C328.21,131.272,328.768,131.971,329.453,131.971z"/>
		<path style="fill-rule:evenodd;clip-rule:evenodd;fill:#231916;" d="M361.273,125.374l-12.674-0.819
			c-0.852-0.055-1.584,0.597-1.629,1.45v0c-0.044,0.852,0.616,1.594,1.468,1.649l12.674,0.819c0.852,0.055,1.585-0.597,1.629-1.449
			v0C362.785,126.171,362.125,125.429,361.273,125.374z"/>
		<path style="fill-rule:evenodd;clip-rule:evenodd;fill:#231916;" d="M337.232,123.57l-11.204-1.029
			c-0.85-0.078-1.629,0.596-1.629,1.45c0,0.847,0.613,1.572,1.468,1.65l11.204,1.029c0.849,0.078,1.628-0.596,1.628-1.449
			C338.699,124.372,338.088,123.649,337.232,123.57z"/>
		<path style="fill-rule:evenodd;clip-rule:evenodd;fill:#F3A780;" d="M381.618,130.068c1.365,1.994-0.21,8.188-1.47,9.343
			c-1.26,1.155-3.915,2.188-4.409,0.77c-0.494-1.418-0.77-2.799-0.42-2.974c0.35-0.175,1.89-0.665,1.75-1.854
			c-0.14-1.19-0.175-1.54-1.33-1.96c-1.155-0.42-1.12-1.75-0.735-2.275C376.274,129.387,380.243,128.059,381.618,130.068z"/>
		<path style="fill-rule:evenodd;clip-rule:evenodd;fill:#CF6743;" d="M335.962,151.173c-0.13-0.221-0.055-0.507,0.166-0.636
			c0.221-0.13,0.507-0.055,0.636,0.166c0.083,0.142,0.225,0.285,0.415,0.423c1.066,0.78,3.377,1.283,5.959,1.292
			c2.604,0.009,5.452-0.492,7.547-1.726c0.811-0.478,1.508-1.067,2.03-1.779c0.152-0.207,0.443-0.252,0.65-0.1
			c0.207,0.152,0.252,0.443,0.1,0.65c-0.598,0.818-1.391,1.489-2.31,2.031c-2.25,1.325-5.271,1.863-8.017,1.854
			c-2.769-0.009-5.294-0.582-6.509-1.471C336.34,151.665,336.113,151.429,335.962,151.173z"/>
		<path style="fill-rule:evenodd;clip-rule:evenodd;fill:#F9CFA0;" d="M265.586,217.915c-1.619-0.971-22.593-20.485-22.593-20.485
			l17.828-23.572l21.925,34.021l-8.418,16.189L265.586,217.915z"/>
		<path style="fill-rule:evenodd;clip-rule:evenodd;fill:#F5AC5F;" d="M283.031,246.207c1.943-0.324,45.378-10.816,45.378-10.816
			s-41.493-51.671-42.788-51.671c-1.295,0-42.629,13.71-42.629,13.71L283.031,246.207z"/>
		<path style="fill-rule:evenodd;clip-rule:evenodd;fill:#FAD9C7;" d="M331.014,240.63c-3.872-1.429-6.801-4.13-6.801-4.13
			c-0.211-0.146-5.751,1.35-6.21,1.496c0,0-5.068-3.276-10.876-5.392c-5.809-2.116-6.928-2.642-8.048-1.522
			c-1.12,1.12,0.944,3.569,0.944,3.569s-5.319-2.065-5.809-0.14c-0.49,1.925,5.621,4.363,5.621,4.363s-4.468-0.936-4.832,0.848
			c-0.331,1.628,3.78,3.192,4.984,3.678c0,0-2.988-0.152-2.029,1.89c0.958,2.041,10.301,4.354,10.078,4.269
			c-0.196-0.074,15.613,7.66,18.176,0.705C327.153,247.713,331.014,240.63,331.014,240.63z"/>
		<path style="fill-rule:evenodd;clip-rule:evenodd;fill:#CED0D0;" d="M332.23,237.853c-0.98-0.14-5.669-0.07-5.669-0.07
			l-2.099,18.266l7.768,1.33l1.749-19.595L332.23,237.853z"/>
		<path style="fill-rule:evenodd;clip-rule:evenodd;fill:#3A3B3B;" d="M112.264,174.857c-4.653,10.722-3.851,36.224,8.608,55.453
			c2.097,3.236,4.523,6.294,7.309,9.074c2.978,2.972,6.368,5.626,10.204,7.84c2.361,1.642,7.018,1.504,12.707,0.357
			c3.442-0.694,7.261-1.756,11.179-3.017c5.309-1.709,10.798-3.78,15.771-5.79c1.165-0.471,2.302-0.939,3.401-1.397
			c0.005-0.002,0.01-0.004,0.015-0.006c0.581-0.242,1.151-0.482,1.71-0.719c3.417-1.447,6.394-2.77,8.63-3.785
			c2.702-1.227,4.32-2.004,4.32-2.004c0.005-0.148,0.006-0.298,0.005-0.448c-0.011-1.143-0.191-2.355-0.478-3.575
			c-0.894,0.345-2.079,0.799-3.497,1.336c-0.299,0.113-0.608,0.23-0.927,0.351c-6.594,2.488-45.962,17.455-50.807,14.101
			C124.455,231.579,112.432,193.515,112.264,174.857z"/>
		<path style="fill-rule:evenodd;clip-rule:evenodd;fill:#2A2727;" d="M143.461,300.71l4.899-11.477c0,0,13.857,2.24,25.194,1.54
			c3.589-0.222,7.815-1.526,10.094-4.144c-1.023-0.049-2.071,0.002-3.101,0.216c-2.102,0.436-2.663-0.72-2.487-4.33
			c-1.169,0.217-2.557,0.421-4.133,0.587l0.011,1.373l-15.205-0.17l0.058-0.982c-4.456-0.296-9.318-0.922-14.378-2.029
			c-3.534,12.317-3.337,13.109-3.337,13.109l-13.048-5.488c-0.06,0.209-0.12,0.409-0.179,0.599l6.141,138.684l0.01,0.241
			l4.576-0.074l0.566-3.381l-7.157-129.314L143.461,300.71z"/>
		<path style="fill-rule:evenodd;clip-rule:evenodd;fill:#2A2727;" d="M158.172,366.05c-0.37,29.991-1.06,61.1-1.071,61.569
			c0,0.003,0,0.005,0,0.005l5.949,0.35l0.037-2.841l0.776-58.953l0.538-40.852l0.246-18.708l0.001-0.079l0.018-1.356l-1.603,1.307
			l-0.109,0.089l-5.391,4.393c0.091-0.046,0.171,0.108,0.238,0.476c0.31,1.702,0.481,6.721,0.555,13.776
			C158.467,335.729,158.361,350.744,158.172,366.05z"/>
		<path style="fill-rule:evenodd;clip-rule:evenodd;fill:#823A2C;" d="M127.698,114.843c-0.14,0.7,1.049,6.578,1.19,5.319
			c0.14-1.26,2.519-9.658,4.548-12.177c2.03-2.519,2.519-3.149,2.31-2.589c-0.21,0.56,0.605,3.391,0.605,3.391
			s2.397-6.098,10.103-11.509c7.706-5.412,15.747-2.169,15.747-2.169s4.689,2.869,9.938-0.7c0.429-0.292,0.824-0.573,1.189-0.845
			c-12.003-0.394-26.233-4.502-33.723,1.369c-5.179,4.059-5.459,8.118-5.459,8.118c-10.949,1.389-11.823,16.892-7.114,29.653
			c0,0-1.223-7.852-0.593-12.401C127.068,115.753,127.838,114.144,127.698,114.843z"/>
		<path style="fill-rule:evenodd;clip-rule:evenodd;fill:#6C281A;" d="M150.442,105.255c-5.809,4.829-6.648,9.798-6.578,10.288
			c0.07,0.49-0.77-3.009-0.77-3.009s-0.7,2.1-0.77,7.908c-0.047,3.872,0.457,10.02,0.798,13.689c0.171,1.835,0.3,3.05,0.3,3.05
			c1.098,0.344,2.355,0.103,2.199-0.889c-0.317-7.703-1.581-18.216,2.198-22.275c2.981-2.049,25.275,3.094,36.812-3.25
			c1.205-0.663,2.293-1.451,3.229-2.385c0.202-0.202,0.397-0.41,0.585-0.626c0.582-0.669,1.095-1.327,1.547-1.975
			c6.822-9.789-0.561-17.008-0.561-17.008s1.811,6.615-1.338,10.744c-1.55,2.032-3.168,3.149-4.494,3.817
			c-1.369,0.69-2.428,0.903-2.784,1.152c-0.429,0.301,0.169-1.348,0.695-2.667c0.332-0.832,0.635-1.532,0.635-1.532l-2.767,1.408
			l-9.061,4.611c0,0,0.42-0.63,1.4-2.519c0.377-0.727,0.775-1.569,1.122-2.329c0.554-1.214,0.978-2.22,0.978-2.22l-5.939,2.178
			l-10.857,3.98c0,0,0.962-2.058,1.846-3.696c0.546-1.013,1.063-1.866,1.303-1.972c0.45-0.2-1.748,0.244-5.162,2.279
			C153.649,102.817,152.097,103.88,150.442,105.255z"/>
		<path style="fill-rule:evenodd;clip-rule:evenodd;fill:#E1DFDE;" d="M332.957,249.227l-0.463,5.187
			c0.316-0.029,0.641-0.06,0.977-0.094c4.249-0.422,10.081-1.2,16.937-2.632c9.7-2.026,21.45-5.361,33.664-10.852
			c0.488-0.24,0.956-0.523,1.405-0.846c11.362-8.195,10.283-42.445,7.721-58.209c-0.126,3.263-0.41,7.807-1.032,13.265
			c-0.815,7.152-2.52,19.978-5.454,29.568c-1.769,5.783-3.986,10.388-6.724,11.863c-4.076,2.195-18.333,5.929-30.092,8.79
			c-7.474,1.819-13.939,3.285-16.138,3.78C333.239,249.165,332.957,249.227,332.957,249.227z"/>
		<polygon style="fill-rule:evenodd;clip-rule:evenodd;fill:#C6C5C6;" points="332.494,254.414 332.957,249.227 326.596,249.329 
			326.341,249.333 325.231,249.351 324.92,252.06 324.461,256.048 332.23,257.378 		"/>
		<path style="fill-rule:evenodd;clip-rule:evenodd;fill:#312424;" d="M323.999,109.664c-5.208-2.116-10.675-4.717-10.675-4.717
			c2.672,4.232,5.776,7.386,9.128,9.693c0.591,0.407,1.189,0.787,1.794,1.142c1.53,0.898,3.103,1.635,4.703,2.233
			c16.715,6.24,36.331-2.82,40.304-4.03c1.26,0.14-0.111,24.584-0.111,24.584l3.635-30.41c0,0-3.149-0.7-11.197-0.35
			c-8.048,0.35-12.527-1.749-12.527-1.749s8.188,5.879,5.109,5.669c-2.797-0.191-20.481-3.909-24.035-4.885
			c-0.311-0.085-0.514-0.15-0.589-0.189c0.071,0.056,0.224,0.18,0.442,0.357c1.684,1.368,7.192,5.873,7.596,6.046
			c0.49,0.21-1.19-0.14-5.669-0.77c-0.425-0.06-0.937-0.174-1.515-0.332c-1.02-0.28-2.247-0.695-3.569-1.188
			C325.914,110.429,324.961,110.054,323.999,109.664z"/>
	</g>
</g>

</svg>
