<?xml version="1.0" encoding="utf-8"?>
<!-- Generator: Adobe Illustrator 27.5.0, SVG Export Plug-In . SVG Version: 6.00 Build 0)  -->
<svg version="1.1" xmlns="http://www.w3.org/2000/svg" xmlns:xlink="http://www.w3.org/1999/xlink" x="0px" y="0px"
	 viewBox="0 0 750 500" style="enable-background:new 0 0 750 500;" xml:space="preserve">
<g id="BACKGROUND">
	<rect style="fill:none;" width="750" height="500"/>
</g>
<g id="OBJECTS_1_">
	<ellipse style="opacity:0.4;fill:#FEC200;" cx="384.577" cy="405.197" rx="255.719" ry="5.454"/>
	<g>
		<polygon style="fill:#E8935D;" points="184.912,231.402 180.213,229.54 179.949,222.293 181.671,221.823 188.518,228.045 		"/>
		<path style="fill:#C0C0C0;" d="M185.322,243.084c3.006,1.565,13.484,7.528,13.484,7.528l-15.654-17.994l5.934-5.738
			c0,0,22.193,22.099,16.242,29.544c-6.667,8.341-25.288-4.252-25.288-4.252L185.322,243.084z"/>
		<path style="fill:#C0C0C0;" d="M170.238,239.742c-4.477,0.255-13.599,4.307-15.166,6.185l3.398,15.832
			c0,0,0.693,17.344,0.84,24.876c0.05,2.577,0.072,3.971,0.072,3.971h30.493c0,0-0.063-2.327-0.222-4.254
			c-0.681-8.223-2.043-30.993-2.043-30.993l0.318-10.655C187.93,244.704,180.794,239.14,170.238,239.742z"/>
		<g>
			<path style="fill:#FEE526;" d="M169.202,237.943c-0.187-0.006-2.871,0.837-2.742,2.78c0.128,1.944,4.993,8.728,6.388,8.23
				c1.396-0.498,2.185-4.606,2.185-4.606s3.007,3.797,4.563,2.427c1.556-1.369-1.244-8.029-4.201-8.651
				S169.202,237.943,169.202,237.943z"/>
			<path style="fill:#001A2D;" d="M181.442,217.938c2.384,3.498-0.399,7.319-0.399,7.319l-3.023-6.988L181.442,217.938z"/>
			<g>
				<path style="fill:#E8935D;" d="M168.862,239.933l-2.672-8.993c0,0-3.944,1.868-4.641-1.447
					c-0.621-2.953,2.603-3.544,4.321-2.315c0,0-3.973-10.111,4.956-11.948c8.93-1.836,10.397,10.511,10.765,13.497
					c0.649,5.26-2.848,8.21-5.551,8.777l0.571,3.206c0,0,0.532,2.802-2.111,3.205C170.977,244.453,168.862,239.933,168.862,239.933z
					"/>
			</g>
			<path style="fill:#001A2D;" d="M182.407,207.595c-2.089,1.213-4.078,2.316-6.167,3.528c0.849-1.544,0.436-5.147-1.816-6.204
				l-4.567,7.051c0,0-7.189,3.947-7.824,7.168c-0.634,3.221,1.797,3.605,1.797,3.605l3.806-2.176
				c3.455,1.271,7.81,0.802,11.19-0.717C182.174,218.346,186.35,214.276,182.407,207.595z"/>
			<g>
				<path style="fill:#001A2D;" d="M177.15,224.327c-0.016,0.538,0.407,0.988,0.946,1.004c0.538,0.016,0.988-0.408,1.004-0.946
					c0.016-0.538-0.407-0.988-0.946-1.004C177.615,223.365,177.166,223.788,177.15,224.327z"/>
			</g>
			<g>
				<path style="fill:#001A2D;" d="M172.708,224.904c-0.016,0.539,0.407,0.988,0.946,1.004c0.538,0.016,0.988-0.408,1.004-0.946
					c0.016-0.538-0.408-0.988-0.946-1.004C173.173,223.942,172.724,224.365,172.708,224.904z"/>
			</g>
			
				<path style="fill:none;stroke:#001A2D;stroke-width:0.4981;stroke-linecap:round;stroke-linejoin:round;stroke-miterlimit:10;" d="
				M172.972,229.632c0.765-0.273,1.631-0.253,2.383,0.055c0.752,0.308,1.383,0.901,1.738,1.632"/>
			
				<path style="fill:none;stroke:#001A2D;stroke-width:0.4981;stroke-linecap:round;stroke-linejoin:round;stroke-miterlimit:10;" d="
				M181.184,226.096c0.174,0.824,0.266,1.665,0.274,2.508"/>
			
				<path style="fill:none;stroke:#001A2D;stroke-width:0.4981;stroke-linecap:round;stroke-linejoin:round;stroke-miterlimit:10;" d="
				M162.879,228.274c0.454-0.27,1.041-0.304,1.523-0.088c0.483,0.215,0.849,0.674,0.952,1.193"/>
			
				<path style="fill:none;stroke:#001A2D;stroke-width:0.4981;stroke-linecap:round;stroke-linejoin:round;stroke-miterlimit:10;" d="
				M164.59,228.378c-0.165,0.274-0.329,0.549-0.494,0.823"/>
			
				<path style="fill:none;stroke:#001A2D;stroke-width:0.4981;stroke-linecap:round;stroke-linejoin:round;stroke-miterlimit:10;" d="
				M170.079,222.628c0.849-0.679,2.068-0.861,3.079-0.46"/>
			
				<path style="fill:none;stroke:#001A2D;stroke-width:0.4981;stroke-linecap:round;stroke-linejoin:round;stroke-miterlimit:10;" d="
				M175.904,222.185c0.689-0.831,2.046-0.998,2.916-0.359"/>
			<path style="fill:#001A2D;" d="M176.041,237.505c-1.761,0.498-5.434-0.758-5.434-0.758s2.436,2.328,5.725,2.394L176.041,237.505z
				"/>
			<path style="fill:#E87555;" d="M171.76,229.417c-0.145,0.762-0.88,1.262-1.641,1.117c-0.762-0.145-1.262-0.88-1.118-1.641
				c0.145-0.762,0.88-1.262,1.641-1.117C171.405,227.921,171.905,228.655,171.76,229.417z"/>
			<path style="fill:#E87555;" d="M180.803,228.013c-0.145,0.762-0.88,1.262-1.641,1.118c-0.762-0.145-1.262-0.88-1.118-1.641
				c0.145-0.762,0.88-1.262,1.641-1.118C180.448,226.516,180.948,227.251,180.803,228.013z"/>
		</g>
		<path style="fill:#C0C0C0;" d="M162.383,399.133l0.251,5.982c0,0,7.9,0,9.563,0c1.663,0-4.662-2.476-4.662-2.476l-0.328-3.251
			L162.383,399.133z"/>
		<path style="fill:#C0C0C0;" d="M186.914,399.133l0.295,5.982c0,0,7.9,0,9.563,0c1.663,0-4.662-2.476-4.662-2.476l-0.372-3.251
			L186.914,399.133z"/>
		<polygon style="fill:#001A2D;" points="171.053,400.111 174.615,300.604 183.607,399.842 195.063,399.842 189.876,290.606 
			159.384,290.606 159.596,400.111 		"/>
		<path style="fill:#E8935D;" d="M156.454,287.042l2.889,1.287l0.04,2.277c0,0,3.014,2.228,2.841,2.838
			c-0.173,0.61-2.037,0.229-2.037,0.229s1.533,1.753,1.048,2.286c-0.484,0.534-1.407-0.457-1.407-0.457s1.63,2.058,1.132,2.439
			c-0.498,0.381-1.698-0.229-1.698-0.229s0.922,1.741,0.23,1.677c-0.691-0.064-2.828-1.753-3.328-3.048
			c-0.5-1.296-2.146-5.944-2.146-5.944L156.454,287.042z"/>
		<polygon style="fill:#001A2D;" points="158.471,261.759 161.359,258.764 158.832,271.262 		"/>
		<path style="fill:#C0C0C0;" d="M155.072,245.928c-3.926,4.889-17.891,24.058-18.079,27.747
			c-0.188,3.69,15.188,20.243,15.188,20.243l4.736-7.622l-9.336-12.547l13.778-14.985L155.072,245.928z"/>
		
			<polyline style="fill:none;stroke:#001A2D;stroke-width:0.4981;stroke-linecap:round;stroke-linejoin:round;stroke-miterlimit:10;" points="
			175.27,224.577 175.904,227.176 176.966,228.378 176.118,228.712 		"/>
		<path style="fill:#001A2D;" d="M162.261,225.245l0.991,1.4c0,0,1.861-0.192,2.838,1.107s1.382,2.629,1.382,2.629l0.64-0.939
			l-0.438-2.885c0,0,1.988-1.955,0.842-5.358c-0.849-2.521-4.305,0.301-6.04,1.934C161.887,223.686,161.794,224.584,162.261,225.245
			z"/>
	</g>
	<path style="fill:#6343FF;" d="M437.718,169.61h-74.486c-3.134,0-5.674-2.54-5.674-5.674v-62.479c0-3.134,2.54-5.674,5.674-5.674
		h74.486c3.134,0,5.674,2.54,5.674,5.674v62.479C443.392,167.069,440.851,169.61,437.718,169.61z"/>
	<g>
		<path style="fill:#001A2D;" d="M158.159,234.594l-9.744-5.281c0.193-1.13,0.316-2.285,0.316-3.471
			c0-11.313-9.171-20.485-20.485-20.485s-20.485,9.171-20.485,20.485s9.171,20.485,20.485,20.485c8.698,0,16.111-5.43,19.083-13.078
			L158.159,234.594z"/>
		<g>
			<path style="fill:#C0C0C0;" d="M138.87,225.278c0-5.867-4.756-10.623-10.623-10.623c-5.867,0-10.623,4.756-10.623,10.623
				c0,3.989,2.202,5.739,5.453,6.452v3.967c0,0.737,0.597,1.334,1.334,1.334s1.334-0.597,1.334-1.334v-1.334h1.065v1.334
				c0,0.737,0.597,1.334,1.334,1.334c0.737,0,1.334-0.597,1.334-1.334v-1.334h1.065v1.334c0,0.737,0.597,1.334,1.334,1.334
				c0.737,0,1.334-0.597,1.334-1.334v-3.923C136.575,231.09,138.87,229.351,138.87,225.278z"/>
			<path style="fill:#001A2D;" d="M127.288,226.701c0,1.982-1.607,3.589-3.588,3.589c-1.982,0-3.588-1.607-3.588-3.589
				s1.607-3.589,3.588-3.589C125.681,223.113,127.288,224.719,127.288,226.701z"/>
			<path style="fill:#001A2D;" d="M129.205,226.701c0,1.982,1.607,3.589,3.589,3.589c1.982,0,3.588-1.607,3.588-3.589
				s-1.607-3.589-3.588-3.589C130.811,223.113,129.205,224.719,129.205,226.701z"/>
			<polyline style="fill:none;stroke:#001A2D;stroke-linecap:round;stroke-linejoin:round;stroke-miterlimit:10;" points="
				127.506,231.263 128.144,230.625 128.782,231.263 			"/>
		</g>
	</g>
	<g>
		<path d="M443.392,105.605h-7.55c-1.254,0-2.27,1.016-2.27,2.27v22.154c0,1.254,1.016,2.27,2.27,2.27h7.55V105.605z"/>
		<path style="fill:#C0C0C0;" d="M437.35,130.699h39.551c1.253,0,2.27-1.016,2.27-2.27v-22.154c0-1.254-1.016-2.27-2.27-2.27H437.35
			c-1.254,0-2.27,1.016-2.27,2.27v22.154C435.081,129.682,436.097,130.699,437.35,130.699z"/>
		<g>
			<path style="fill:#FEE526;" d="M457.126,122.689l-14.609-8.978c-0.801-0.493-1.052-1.54-0.56-2.342
				c0.493-0.801,1.54-1.051,2.342-0.56l12.827,7.883l12.825-7.883c0.8-0.491,1.85-0.242,2.342,0.56
				c0.492,0.8,0.242,1.849-0.56,2.342L457.126,122.689z"/>
		</g>
		<path d="M476.901,104.005h-2.958c-0.118,0.445-0.201,0.903-0.201,1.385c0,2.998,2.43,5.428,5.428,5.428v-4.544
			C479.171,105.021,478.154,104.005,476.901,104.005z"/>
		<circle style="fill:#FF504C;" cx="479.422" cy="104.284" r="5.428"/>
	</g>
	<g>
		<path d="M419.032,118.209c-0.126-0.298-0.28-0.581-0.459-0.846c-0.358-0.53-0.816-0.988-1.346-1.346
			c-0.265-0.179-0.548-0.333-0.846-0.459c-0.596-0.252-1.251-0.392-1.939-0.392h-4.308v-2.34c0-0.985-0.799-1.784-1.784-1.784
			c-0.985,0-1.784,0.799-1.784,1.784v2.34h-6.041v-2.34c0-0.985-0.799-1.784-1.784-1.784c-0.985,0-1.784,0.799-1.784,1.784v2.34
			h-6.041v-2.34c0-0.985-0.799-1.784-1.784-1.784c-0.985,0-1.784,0.799-1.784,1.784v2.34h-4.308c-1.032,0-1.991,0.314-2.786,0.851
			c-0.53,0.358-0.988,0.816-1.346,1.346c-0.179,0.265-0.333,0.548-0.459,0.846c-0.252,0.596-0.392,1.252-0.392,1.939v31.403
			c0,2.752,2.231,4.983,4.983,4.983h31.403c2.752,0,4.983-2.231,4.983-4.983v-31.403
			C419.423,119.461,419.284,118.805,419.032,118.209z"/>
		<path style="fill:#C0C0C0;" d="M415.771,155.204h-31.403c-2.752,0-4.983-2.231-4.983-4.983v-31.403
			c0-2.752,2.231-4.983,4.983-4.983h31.403c2.752,0,4.983,2.231,4.983,4.983v31.403
			C420.753,152.974,418.523,155.204,415.771,155.204z"/>
		<path style="fill:#FF504C;" d="M415.771,113.836h-31.403c-2.752,0-4.983,2.231-4.983,4.983v6.973h41.368v-6.973
			C420.753,116.067,418.523,113.836,415.771,113.836z"/>
		<g>
			<path style="fill:#FEE526;" d="M390.46,117.156L390.46,117.156c-0.985,0-1.784-0.799-1.784-1.784v-3.876
				c0-0.985,0.799-1.784,1.784-1.784l0,0c0.985,0,1.784,0.799,1.784,1.784v3.876C392.244,116.357,391.445,117.156,390.46,117.156z"
				/>
			<path style="fill:#FEE526;" d="M400.069,117.156L400.069,117.156c-0.985,0-1.784-0.799-1.784-1.784v-3.876
				c0-0.985,0.799-1.784,1.784-1.784l0,0c0.985,0,1.784,0.799,1.784,1.784v3.876C401.853,116.357,401.055,117.156,400.069,117.156z"
				/>
			<path style="fill:#FEE526;" d="M409.678,117.156L409.678,117.156c-0.985,0-1.784-0.799-1.784-1.784v-3.876
				c0-0.985,0.799-1.784,1.784-1.784l0,0c0.985,0,1.784,0.799,1.784,1.784v3.876C411.463,116.357,410.664,117.156,409.678,117.156z"
				/>
		</g>
		<path style="fill:#000;" d="M391.053,138.518h-5.629c-0.688,0-1.246-0.558-1.246-1.246v-5.629c0-0.688,0.558-1.246,1.246-1.246
			h5.629c0.688,0,1.246,0.558,1.246,1.246v5.629C392.298,137.96,391.74,138.518,391.053,138.518z"/>
		<path style="fill:#000;" d="M402.884,138.518h-5.629c-0.688,0-1.246-0.558-1.246-1.246v-5.629c0-0.688,0.558-1.246,1.246-1.246
			h5.629c0.688,0,1.246,0.558,1.246,1.246v5.629C404.129,137.96,403.572,138.518,402.884,138.518z"/>
		<path style="fill:#000;" d="M414.715,138.518h-5.629c-0.688,0-1.246-0.558-1.246-1.246v-5.629c0-0.688,0.558-1.246,1.246-1.246
			h5.629c0.688,0,1.246,0.558,1.246,1.246v5.629C415.96,137.96,415.403,138.518,414.715,138.518z"/>
		<path style="fill:#000;" d="M391.053,149.805h-5.629c-0.688,0-1.246-0.558-1.246-1.246v-5.629c0-0.688,0.558-1.246,1.246-1.246
			h5.629c0.688,0,1.246,0.558,1.246,1.246v5.629C392.298,149.248,391.74,149.805,391.053,149.805z"/>
		<path style="fill:#000;" d="M402.884,149.805h-5.629c-0.688,0-1.246-0.558-1.246-1.246v-5.629c0-0.688,0.558-1.246,1.246-1.246
			h5.629c0.688,0,1.246,0.558,1.246,1.246v5.629C404.129,149.248,403.572,149.805,402.884,149.805z"/>
		<path style="fill:#000;" d="M414.715,149.805h-5.629c-0.688,0-1.246-0.558-1.246-1.246v-5.629c0-0.688,0.558-1.246,1.246-1.246
			h5.629c0.688,0,1.246,0.558,1.246,1.246v5.629C415.96,149.248,415.403,149.805,414.715,149.805z"/>
	</g>
	<g>
		<path d="M420.753,143.599v-20.361c-0.144-0.006-0.286-0.022-0.432-0.022c-5.634,0-10.202,4.568-10.202,10.202
			c0,5.635,4.568,10.202,10.202,10.202C420.467,143.621,420.609,143.605,420.753,143.599z"/>
		
			<ellipse transform="matrix(0.7779 -0.6284 0.6284 0.7779 10.255 293.9826)" style="fill:#FEE526;" cx="420.998" cy="132.485" rx="10.202" ry="10.202"/>
		<g>
			<path style="fill:#FFB902;" d="M420.987,141.746c-2.302,0-4.492-0.843-6.21-2.4c-1.832-1.661-2.909-3.937-3.029-6.408
				c-0.121-2.471,0.727-4.841,2.389-6.673c1.661-1.833,3.937-2.909,6.408-3.03c2.468-0.122,4.841,0.727,6.673,2.389
				c1.833,1.662,2.909,3.937,3.029,6.408l0,0c0.121,2.471-0.727,4.841-2.389,6.673c-1.662,1.833-3.937,2.908-6.408,3.029
				C421.296,141.742,421.141,141.746,420.987,141.746z"/>
		</g>
		<path style="fill:#C0C0C0;" d="M421.771,138.195v1.388h-1.104v-1.372c-1.783-0.126-3.108-1.041-3.675-2.556l2.177-1.262
			c0.331,0.757,0.789,1.199,1.499,1.325v-2.177c-0.063-0.032-0.142-0.047-0.205-0.079c-1.372-0.552-3.013-1.325-3.013-3.439
			c0-2.051,1.546-3.108,3.218-3.265v-1.372h1.104v1.404c1.357,0.173,2.493,0.899,3.108,2.287l-2.13,1.246
			c-0.205-0.552-0.521-0.868-0.978-1.025v2.13c1.372,0.583,3.234,1.104,3.234,3.407
			C425.005,136.807,423.648,137.974,421.771,138.195z M420.667,130.907v-1.656c-0.457,0.11-0.694,0.41-0.694,0.788
			C419.973,130.339,420.115,130.592,420.667,130.907z M422.481,134.867c0-0.395-0.237-0.631-0.71-0.868v1.688
			C422.307,135.545,422.481,135.198,422.481,134.867z"/>
	</g>
	<g>
		
			<ellipse transform="matrix(0.1611 -0.9869 0.9869 0.1611 84.5688 726.62)" style="fill:#FF504C;" cx="469.704" cy="313.564" rx="18.175" ry="18.175"/>
		<path style="fill:#001A2D;" d="M487.839,312.769c-0.358-8.258-6.211-15.076-14.005-16.89
			C476.262,303.09,481.304,309.095,487.839,312.769z"/>
		<path style="fill:#C0C0C0;" d="M472.49,307.433c0.416-0.789,1.695-3.327,1.167-3.743c-0.626-0.493-1.931,1.156-1.931,1.156
			s-0.981-2.009-1.858-2.009c-0.878,0-1.858,2.009-1.858,2.009s-1.305-1.65-1.931-1.156c-0.527,0.416,0.752,2.954,1.167,3.743
			c-3.546,1.94-6.12,7.436-6.12,11.35c0,4.827,3.914,5.419,8.741,5.419c4.828,0,8.741-0.591,8.741-5.419
			C478.61,314.868,476.037,309.373,472.49,307.433z"/>
		<g>
			<path style="fill:#FEC200;" d="M470.456,319.51v1.095h-0.872v-1.083c-1.407-0.099-2.452-0.822-2.901-2.017l1.718-0.996
				c0.261,0.598,0.622,0.946,1.182,1.046v-1.718c-0.049-0.025-0.112-0.037-0.162-0.062c-1.083-0.436-2.378-1.046-2.378-2.714
				c0-1.619,1.22-2.453,2.54-2.577v-1.083h0.872v1.108c1.071,0.137,1.967,0.71,2.453,1.805l-1.681,0.984
				c-0.162-0.436-0.411-0.685-0.772-0.809v1.681c1.083,0.461,2.552,0.871,2.552,2.689
				C473.008,318.414,471.938,319.336,470.456,319.51z M469.584,313.758v-1.307c-0.361,0.087-0.548,0.324-0.548,0.622
				C469.037,313.31,469.149,313.509,469.584,313.758z M471.016,316.883c0-0.312-0.187-0.498-0.56-0.685v1.332
				C470.879,317.418,471.016,317.145,471.016,316.883z"/>
		</g>
		<polygon style="fill:#FF504C;" points="479.726,322.436 458.988,309.435 460.011,307.262 480.75,320.263 		"/>
	</g>
	<g>
		<path style="fill:#04467A;" d="M522.669,265.054H410.427c-2.761,0-5-2.239-5-5v-74.111c0-2.761,2.239-5,5-5h112.243
			c2.761,0,5,2.239,5,5v74.111C527.669,262.815,525.431,265.054,522.669,265.054z"/>
		<path style="fill:#2A628F;" d="M505.409,212.973h-77.721c-0.829,0-1.5-0.672-1.5-1.5s0.671-1.5,1.5-1.5h77.721
			c0.829,0,1.5,0.672,1.5,1.5S506.237,212.973,505.409,212.973z M506.909,222.998c0-0.828-0.671-1.5-1.5-1.5h-77.721
			c-0.829,0-1.5,0.672-1.5,1.5c0,0.828,0.671,1.5,1.5,1.5h77.721C506.237,224.498,506.909,223.826,506.909,222.998z
			 M506.909,234.524c0-0.828-0.671-1.5-1.5-1.5h-77.721c-0.829,0-1.5,0.672-1.5,1.5c0,0.828,0.671,1.5,1.5,1.5h77.721
			C506.237,236.024,506.909,235.352,506.909,234.524z"/>
		<path style="fill:#FF504C;" d="M501.448,240.616c-0.164,0-0.32,0.032-0.48,0.048l-19.31-26.572c0.259-0.578,0.41-1.215,0.41-1.89
			c0-2.561-2.076-4.637-4.637-4.637s-4.637,2.076-4.637,4.637c0,0.047,0.012,0.09,0.014,0.137l-15.472,4.689
			c-0.82-1.308-2.264-2.184-3.921-2.184c-0.753,0-1.455,0.197-2.084,0.516l-17.372-12.741c0.04-0.246,0.076-0.494,0.076-0.751
			c0-2.561-2.076-4.637-4.637-4.637s-4.637,2.076-4.637,4.637c0,2.561,2.076,4.637,4.637,4.637c1.205,0,2.292-0.471,3.117-1.225
			l16.705,12.252c-0.277,0.594-0.443,1.25-0.443,1.949c0,2.561,2.076,4.637,4.637,4.637c2.397,0,4.345-1.825,4.589-4.157
			l15.875-4.812c0.851,1.024,2.117,1.69,3.553,1.69c0.77,0,1.485-0.206,2.125-0.538l18.64,25.651
			c-0.853,0.841-1.384,2.008-1.384,3.301c0,2.561,2.076,4.637,4.637,4.637s4.637-2.076,4.637-4.637
			C506.085,242.692,504.009,240.616,501.448,240.616z"/>
		<g>
			<path style="fill:#C0C0C0;" d="M452.279,251.115c0-0.828-0.671-1.5-1.5-1.5h-23.091c-0.829,0-1.5,0.672-1.5,1.5
				c0,0.828,0.671,1.5,1.5,1.5h23.091C451.607,252.615,452.279,251.943,452.279,251.115z"/>
		</g>
		<g>
			<path style="fill:#2A628F;" d="M505.582,199.185c0-0.828-0.671-1.5-1.5-1.5h-23.091c-0.829,0-1.5,0.672-1.5,1.5
				c0,0.828,0.671,1.5,1.5,1.5h23.091C504.911,200.685,505.582,200.013,505.582,199.185z"/>
		</g>
	</g>
	<g>
		<path style="fill:#001A2D;" d="M522.669,265.054c0.027,0,0.052-0.007,0.078-0.008c-5.603-6.839-14.113-11.204-23.643-11.204
			c-9.534,0-18.047,4.369-23.65,11.212H522.669z"/>
		<path style="fill:#FEE526;" d="M538.611,307.903l-9.724-9.182c2.553-4.464,4.019-9.629,4.019-15.14
			c0-16.874-13.679-30.553-30.553-30.553c-16.874,0-30.553,13.679-30.553,30.553c0,16.874,13.679,30.553,30.553,30.553
			c9.042,0,17.163-3.931,22.757-10.173L538.611,307.903z"/>
		<g>
			<path style="fill:#FF504C;" d="M500.766,264.052L485.9,280.294c-1.263,1.38-0.284,3.604,1.587,3.604h2.241v14.123
				c0,1.188,0.963,2.151,2.151,2.151h20.947c1.188,0,2.151-0.963,2.151-2.151v-14.123h2.241c1.871,0,2.85-2.224,1.587-3.604
				l-14.866-16.242C503.087,263.12,501.619,263.12,500.766,264.052z"/>
			<g>
				<path style="fill:#C0C0C0;" d="M494.542,281.32c0-2.086,1.642-3.772,3.861-3.772c2.198,0,3.84,1.62,3.84,3.772
					c0,2.086-1.642,3.773-3.84,3.773C496.184,285.093,494.542,283.406,494.542,281.32z M506.415,279.856l1.465,0.843l-10.031,11.119
					l-1.465-0.866L506.415,279.856z M499.579,281.32c0-0.688-0.488-1.22-1.198-1.22c-0.688,0-1.176,0.533-1.176,1.22
					c0,0.688,0.488,1.221,1.176,1.221C499.091,282.541,499.579,281.964,499.579,281.32z M502.465,289.887
					c0-2.086,1.642-3.772,3.861-3.772c2.198,0,3.84,1.687,3.84,3.772c0,2.086-1.642,3.773-3.84,3.773
					C504.107,293.659,502.465,291.973,502.465,289.887z M507.502,289.887c0-0.688-0.488-1.22-1.199-1.22
					c-0.688,0-1.176,0.533-1.176,1.22c0,0.688,0.488,1.221,1.176,1.221C507.014,291.107,507.502,290.53,507.502,289.887z"/>
			</g>
		</g>
	</g>
	<g>
		<path style="fill:#FF504C;" d="M635.42,233.195l-11.497-6.903l5.554-12.199l-13.468,0.278l-0.839-13.427l-12.16,5.841
			l-5.758-12.189l-9.427,9.656l-9.429-9.655l-5.758,12.189l-12.159-5.842l-0.838,13.427l-13.468-0.278l5.553,12.2l-11.498,6.903
			l11.497,6.903l-5.554,12.199l13.468-0.278l0.839,13.427l8.369-4.02c-0.533,5.226-1.128,14.563-1.128,14.563l7.251-11.449
			l3.427,7.253l9.427-9.656l9.429,9.655l5.758-12.189l12.159,5.841l0.838-13.427l13.468,0.278l-5.553-12.2L635.42,233.195z"/>
		<path d="M567.719,244.77c0-2.298,1.9-4.197,4.198-4.197c2.298,0,4.198,1.899,4.198,4.197s-1.9,4.198-4.198,4.198
			C569.62,248.968,567.719,247.068,567.719,244.77z M567.941,226.257v-8.836h7.953v8.836l-1.326,11.047h-5.301L567.941,226.257z
			 M583.626,244.77c0-2.298,1.9-4.197,4.198-4.197c2.298,0,4.198,1.899,4.198,4.197s-1.9,4.198-4.198,4.198
			C585.526,248.968,583.626,247.068,583.626,244.77z M583.847,226.257v-8.836h7.953v8.836l-1.326,11.047h-5.301L583.847,226.257z
			 M599.532,244.77c0-2.298,1.901-4.197,4.198-4.197c2.298,0,4.198,1.899,4.198,4.197s-1.9,4.198-4.198,4.198
			C601.433,248.968,599.532,247.068,599.532,244.77z M599.754,226.257v-8.836h7.953v8.836l-1.326,11.047h-5.301L599.754,226.257z"/>
	</g>
	<g>
		<path d="M527.669,194.826v-8.883c0-2.761-2.239-5-5-5H516c-2.219,4.197-1.103,9.579,2.816,12.476
			C521.436,195.356,524.753,195.764,527.669,194.826z"/>
		<path style="fill:#C0C0C0;" d="M496.995,150.728c0-1.361-0.895-2.256-2.878-2.256c-2.14,0-3.423,1.439-4.201,3.267l-5.367-3.072
			c1.711-4.006,5.484-6.262,9.802-6.262c4.434,0,8.867,2.723,8.867,7.778c0,5.796-6.223,7.585-6.223,10.269h-6.224
			C490.771,155.901,496.995,154.151,496.995,150.728z M490.188,167.025c0-2.022,1.673-3.695,3.695-3.695
			c2.022,0,3.694,1.673,3.694,3.695c0,2.023-1.672,3.695-3.694,3.695C491.861,170.72,490.188,169.047,490.188,167.025z
			 M520.838,141.626c0.443-2.256-0.746-4.028-4.033-4.675c-3.544-0.697-6.14,1.268-8.023,4.043l-7.892-6.84
			c4.142-6.08,11.127-8.588,18.28-7.181c7.346,1.444,13.804,7.401,12.156,15.778c-1.89,9.602-12.783,10.537-13.657,14.983
			l-10.311-2.028C508.842,148.168,519.722,147.296,520.838,141.626z M504.25,166.408c0.659-3.351,3.976-5.577,7.326-4.918
			c3.352,0.659,5.576,3.976,4.917,7.326c-0.659,3.351-3.975,5.576-7.326,4.917C505.817,173.074,503.591,169.759,504.25,166.408z
			 M517.707,178.124c3.188-4.314,9.393-5.244,13.707-2.056c4.314,3.189,5.244,9.394,2.057,13.707
			c-3.189,4.313-9.394,5.244-13.708,2.056C515.449,188.643,514.517,182.439,517.707,178.124z M557.918,154.094
			c2.146-2.903,1.648-6.222-2.582-9.349c-4.564-3.373-9.57-2.328-14.111,0.346l-6.604-15.017c9.966-5.847,21.57-4.71,30.778,2.097
			c9.459,6.99,14.623,19.787,6.652,30.572c-9.137,12.361-25.232,6.367-29.463,12.092l-13.273-9.811
			C536.488,155.318,552.521,161.395,557.918,154.094z"/>
	</g>
	<g>
		<g>
			<path d="M615.693,209.312c-0.93,0.05-1.868,0.055-2.811,0.01c-0.139-0.007-0.277-0.021-0.416-0.03l-3.775-5.236l2.618-1.258
				l3.123,0.302l0.183-1.89l0.555-0.267L615.693,209.312z M609.413,209.57c0.313-0.04,0.627-0.092,0.94-0.143l-4.526-3.996
				l-2.817,1.353l-4.786-10.13c-0.542-0.454-1.04-0.963-1.493-1.525l-8.161,8.358c0.577,0.477,1.17,0.938,1.791,1.372
				C595.963,208.774,602.68,210.426,609.413,209.57z"/>
			<path style="fill:#FEE526;" d="M627.29,171.974l-6.603,3.052c-0.445-1.678-1.281-2.694-2.579-3.286l-0.605,6.249
				c3.861,2.102,9.176,4.159,8.522,10.917c-0.56,5.786-4.873,8.826-10.444,8.942l-0.394,4.073l-3.24-0.314l0.39-4.027
				c-0.174-0.029-0.343-0.068-0.514-0.102l-3.547,3.774l4.946,6.861c0.139,0.009,0.277,0.023,0.416,0.03
				c7.284,0.347,14.268-2.164,19.664-7.069c5.396-4.905,8.559-11.619,8.906-18.904c0.347-7.285-2.164-14.268-7.069-19.664
				c-1.652-1.817-3.514-3.375-5.53-4.664l-9.083,7.059C623.644,166.062,626.091,168.363,627.29,171.974z"/>
			<path style="fill:#FEE526;" d="M612.621,173.404c-0.085,0.88,0.259,1.661,1.79,2.743l0.47-4.859
				C613.508,171.482,612.728,172.294,612.621,173.404z"/>
			<path style="fill:#C0C0C0;" d="M611.946,201.607l3.24,0.314l0.394-4.073c5.571-0.116,9.884-3.156,10.444-8.942
				c0.654-6.758-4.66-8.815-8.522-10.917l0.605-6.249c1.298,0.593,2.134,1.608,2.579,3.286l6.603-3.052
				c-1.199-3.611-3.646-5.913-6.766-7.075l-11.946,9.284l14.571,11.244l-11.328,12.05c0.171,0.034,0.339,0.073,0.514,0.102
				L611.946,201.607z M614.411,176.147c-1.531-1.082-1.875-1.863-1.79-2.743c0.107-1.11,0.887-1.923,2.26-2.117L614.411,176.147z"/>
		</g>
		<g>
			<path style="fill:#FEE526;" d="M609.582,185.443l0.627,4.936c1.516-0.615,1.894-1.694,1.771-2.662
				C611.834,186.563,611.054,185.959,609.582,185.443z"/>
			<path style="fill:#FEE526;" d="M601.996,154.417c-7.181,1.272-13.437,5.264-17.615,11.242
				c-4.178,5.977-5.778,13.224-4.506,20.405c1.272,7.181,5.265,13.437,11.242,17.615c5.602,3.916,12.32,5.568,19.053,4.712
				c0.313-0.04,0.627-0.092,0.94-0.143l-6.34-5.598l2.625-4.465c-5.015,0.124-9.027-2.046-11.175-6.122l5.898-4.5
				c1.25,2.091,2.752,3.213,4.875,3.319l-0.809-6.367c-0.196-0.069-0.433-0.086-0.629-0.155c-4.219-1.105-9.304-2.755-10.09-8.938
				c-0.762-5.998,3.366-9.664,8.198-10.746l-0.51-4.013l3.23-0.411l0.522,4.106c0.604,0,1.195,0.052,1.776,0.13l7.298-8.892
				C611.543,153.999,606.752,153.571,601.996,154.417z"/>
			<path style="fill:#C0C0C0;" d="M599.081,176.185l9.598-11.695c-0.582-0.078-1.172-0.13-1.776-0.13l-0.522-4.106l-3.23,0.411
				l0.51,4.013c-4.832,1.083-8.96,4.748-8.198,10.746c0.786,6.182,5.871,7.833,10.09,8.938c0.197,0.069,0.433,0.086,0.629,0.155
				l0.809,6.367c-2.123-0.106-3.625-1.228-4.875-3.319l-5.898,4.5c2.149,4.076,6.161,6.246,11.175,6.122l8.383-14.256
				L599.081,176.185z M610.209,190.379l-0.627-4.936c1.472,0.515,2.252,1.12,2.398,2.273
				C612.103,188.685,611.725,189.764,610.209,190.379z"/>
		</g>
	</g>
	<g>
		<path style="fill:#6343FF;" d="M612.595,288.86c-9.572,0-17.445,7.258-18.425,16.57l-6.829,1.641l6.838,2.335
			c1.005,9.285,8.864,16.515,18.416,16.515c10.234,0,18.53-8.296,18.53-18.53C631.125,297.156,622.829,288.86,612.595,288.86z"/>
		<g>
			<path style="fill:#FEE526;" d="M614.788,302.568c0-1.125-0.74-1.864-2.38-1.864c-1.768,0-2.829,1.189-3.472,2.7l-4.437-2.54
				c1.414-3.311,4.533-5.176,8.102-5.176c3.665,0,7.33,2.25,7.33,6.43c0,4.791-5.144,6.27-5.144,8.488h-5.145
				C609.643,306.844,614.788,305.397,614.788,302.568z M609.161,316.038c0-1.672,1.383-3.054,3.055-3.054
				c1.672,0,3.054,1.382,3.054,3.054c0,1.672-1.382,3.055-3.054,3.055C610.544,319.093,609.161,317.71,609.161,316.038z"/>
		</g>
	</g>
	<g>
		<g>
			<path style="fill:#001A2D;" d="M257.964,133.419c-54.882-7.118,9.352,8.686,9.352,27.169v38.041h-112.07v-38.041
				c0-18.482,14.983-33.466,33.466-33.466L257.964,133.419z"/>
		</g>
		<path style="fill:#C0C0C0;" d="M300.782,127.122L300.782,127.122c18.483,0,33.466,14.983,33.466,33.466v215.665
			c0,15.941,12.923,28.863,28.863,28.863l0,0h-112.07h0c-15.941,0-28.863-12.922-28.863-28.863V160.587
			c0-18.482-14.983-33.466-33.465-33.466l0,0H300.782z"/>
		<path style="fill:#C0C0C0;" d="M344.745,398.519c-6.411-5.294-10.498-13.303-10.498-22.267v-85.305h-112.07v85.305
			c0,15.941,12.923,28.863,28.863,28.863h93.704V398.519z"/>
		<g>
			<g>
				<path style="fill:#000;" d="M294.462,175.723h-34.498c-1.104,0-2-0.895-2-2c0-1.104,0.896-2,2-2h34.498c1.104,0,2,0.896,2,2
					C296.462,174.827,295.567,175.723,294.462,175.723z"/>
			</g>
			<g>
				<path style="fill:#000;" d="M316.948,191.131h-79.471c-1.105,0-2-0.895-2-2c0-1.104,0.895-2,2-2h79.471c1.105,0,2,0.896,2,2
					C318.948,190.236,318.053,191.131,316.948,191.131z"/>
			</g>
			<g>
				<path style="fill:#000;" d="M316.948,202.62h-79.471c-1.105,0-2-0.896-2-2c0-1.105,0.895-2,2-2h79.471c1.105,0,2,0.895,2,2
					C318.948,201.725,318.053,202.62,316.948,202.62z"/>
			</g>
			<g>
				<path style="fill:#000;" d="M316.948,214.11h-79.471c-1.105,0-2-0.896-2-2c0-1.105,0.895-2,2-2h79.471c1.105,0,2,0.895,2,2
					C318.948,213.214,318.053,214.11,316.948,214.11z"/>
			</g>
			<g>
				<path style="fill:#000;" d="M316.948,225.598h-79.471c-1.105,0-2-0.895-2-2c0-1.104,0.895-2,2-2h79.471c1.105,0,2,0.896,2,2
					C318.948,224.702,318.053,225.598,316.948,225.598z"/>
			</g>
			<g>
				<path style="fill:#000;" d="M259.339,237.087h-21.861c-1.105,0-2-0.895-2-2c0-1.104,0.895-2,2-2h21.861c1.105,0,2,0.896,2,2
					C261.339,236.192,260.444,237.087,259.339,237.087z"/>
			</g>
			<g>
				<path style="fill:#000;" d="M294.462,260.065h-34.498c-1.104,0-2-0.896-2-2s0.896-2,2-2h34.498c1.104,0,2,0.896,2,2
					S295.567,260.065,294.462,260.065z"/>
			</g>
			<g>
				<path style="fill:#000;" d="M316.948,271.554h-79.471c-1.105,0-2-0.896-2-2s0.895-2,2-2h79.471c1.105,0,2,0.896,2,2
					S318.053,271.554,316.948,271.554z"/>
			</g>
			<g>
				<path style="fill:#000;" d="M316.948,283.042h-79.471c-1.105,0-2-0.896-2-2s0.895-2,2-2h79.471c1.105,0,2,0.896,2,2
					S318.053,283.042,316.948,283.042z"/>
			</g>
			<g>
				<path style="fill:#000;" d="M316.948,294.531h-79.471c-1.105,0-2-0.896-2-2s0.895-2,2-2h79.471c1.105,0,2,0.896,2,2
					S318.053,294.531,316.948,294.531z"/>
			</g>
			<g>
				<path style="fill:#000;" d="M316.948,306.02h-79.471c-1.105,0-2-0.896-2-2c0-1.105,0.895-2,2-2h79.471c1.105,0,2,0.895,2,2
					C318.948,305.124,318.053,306.02,316.948,306.02z"/>
			</g>
			<g>
				<path style="fill:#000;" d="M316.948,317.509h-79.471c-1.105,0-2-0.896-2-2s0.895-2,2-2h79.471c1.105,0,2,0.896,2,2
					S318.053,317.509,316.948,317.509z"/>
			</g>
			<g>
				<path style="fill:#000;" d="M316.948,328.998h-79.471c-1.105,0-2-0.896-2-2s0.895-2,2-2h79.471c1.105,0,2,0.896,2,2
					S318.053,328.998,316.948,328.998z"/>
			</g>
			<g>
				<path style="fill:#000;" d="M316.948,340.487h-79.471c-1.105,0-2-0.896-2-2c0-1.105,0.895-2,2-2h79.471c1.105,0,2,0.895,2,2
					C318.948,339.591,318.053,340.487,316.948,340.487z"/>
			</g>
			<g>
				<path style="fill:#000;" d="M316.948,363.464h-79.471c-1.105,0-2-0.895-2-2c0-1.104,0.895-2,2-2h79.471c1.105,0,2,0.896,2,2
					C318.948,362.569,318.053,363.464,316.948,363.464z"/>
			</g>
			<g>
				<path style="fill:#000;" d="M316.948,374.953h-79.471c-1.105,0-2-0.896-2-2c0-1.105,0.895-2,2-2h79.471c1.105,0,2,0.895,2,2
					C318.948,374.058,318.053,374.953,316.948,374.953z"/>
			</g>
			<g>
				<path style="fill:#000;" d="M250.835,386.442h-13.357c-1.105,0-2-0.895-2-2c0-1.104,0.895-2,2-2h13.357c1.105,0,2,0.896,2,2
					C252.835,385.546,251.94,386.442,250.835,386.442z"/>
			</g>
		</g>
		<g>
			<path style="fill:#001A2D;" d="M363.111,405.115c15.941,0,28.863-12.922,28.863-28.863v-52.188
				c0-13.485-4.375-21.581,9.11-21.581l-96.763-2.836c-13.485,0-24.416,10.931-24.416,24.416v52.188
				c0,15.941-12.923,28.863-28.863,28.863H363.111z"/>
		</g>
		<path style="fill:#C0C0C0;" d="M464.081,405.115L464.081,405.115c-12.855,0-23.275-10.421-23.275-23.275v-57.776
			c0-13.485-10.931-24.416-24.416-24.416h0H304.32l0,0c13.485,0,24.416,10.931,24.416,24.416v57.776
			c0,12.855,10.421,23.275,23.275,23.275l0,0H464.081z"/>
		<path style="fill:#C0C0C0;" d="M328.736,339.99v41.85c0,12.855,10.421,23.275,23.275,23.275h112.07
			c-12.855,0-23.275-10.421-23.275-23.275v-41.85H328.736z"/>
		<g>
			<g>
				<path style="fill:#000;" d="M400.101,331.449h-34.497c-1.104,0-2-0.896-2-2s0.896-2,2-2h34.497c1.104,0,2,0.896,2,2
					S401.206,331.449,400.101,331.449z"/>
			</g>
			<g>
				<path style="fill:#000;" d="M422.588,346.859h-79.471c-1.105,0-2-0.896-2-2c0-1.105,0.895-2,2-2h79.471c1.105,0,2,0.895,2,2
					C424.588,345.963,423.692,346.859,422.588,346.859z"/>
			</g>
			<g>
				<path style="fill:#000;" d="M422.588,358.347h-79.471c-1.105,0-2-0.896-2-2s0.895-2,2-2h79.471c1.105,0,2,0.896,2,2
					S423.692,358.347,422.588,358.347z"/>
			</g>
			<g>
				<path style="fill:#000;" d="M422.588,381.324h-79.471c-1.105,0-2-0.896-2-2s0.895-2,2-2h79.471c1.105,0,2,0.896,2,2
					S423.692,381.324,422.588,381.324z"/>
			</g>
			<g>
				<path style="fill:#000;" d="M364.978,392.814h-21.861c-1.105,0-2-0.896-2-2c0-1.104,0.895-2,2-2h21.861c1.104,0,2,0.896,2,2
					C366.978,391.918,366.083,392.814,364.978,392.814z"/>
			</g>
		</g>
		<g>
			<path style="fill:#04467A;" d="M352.012,405.115c12.854,0,23.275-10.421,23.275-23.275v-18.787c0-9.472,7.687-17.15,17.15-17.15
				c18.469,0,30.613,14.49,30.613,14.49l70.657-12.895c0,0-6.351,6.084-6.351,15.556v18.787c0,12.855-10.421,23.275-23.275,23.275
				H352.012z"/>
		</g>
		<g>
			<path style="fill:#C0C0C0;" d="M521.657,387.63v-24.577c0-9.472-7.678-17.15-17.15-17.15h0c0,0-112.07,0-112.07,0h0
				c9.472,0,17.15,7.678,17.15,17.15v24.577H521.657z"/>
		</g>
		
			<text transform="matrix(1 0 0 1 235.097 162.7203)" style="fill:#000; font-family:'Gilroy-ExtraBold'; font-size:32.1502px; letter-spacing:2;">DEBT</text>
		
			<text transform="matrix(1 0 0 1 340.929 317.7023)" style="fill:#000; font-family:'Gilroy-ExtraBold'; font-size:13.2711px; letter-spacing:1;">BANKCRUPT</text>
		<g>
			<g>
				<path style="fill:#000;" d="M506.283,364.092h-79.47c-1.104,0-2-0.896-2-2c0-1.105,0.896-2,2-2h79.47c1.104,0,2,0.895,2,2
					C508.283,363.197,507.387,364.092,506.283,364.092z"/>
			</g>
			<g>
				<path style="fill:#000;" d="M457.551,375.58h-30.738c-1.104,0-2-0.895-2-2c0-1.104,0.896-2,2-2h30.738c1.105,0,2,0.896,2,2
					C459.551,374.685,458.656,375.58,457.551,375.58z"/>
			</g>
		</g>
	</g>
	<g>
		<path style="fill:#001A2D;" d="M327.861,231.809c-2.761,0-5,2.239-5,5v27.554c0,2.762,2.239,5,5,5h6.386v-37.554H327.861z"/>
		<path style="fill:#6343FF;" d="M375.671,267.615h-46.061c-2.761,0-5-2.238-5-5V235.06c0-2.761,2.239-5,5-5h46.061
			c2.762,0,5,2.239,5,5v27.554C380.671,265.376,378.432,267.615,375.671,267.615z"/>
		<g>
			<path style="fill:#C0C0C0;" d="M330.956,241.041l14.228,14.228l2.343,2.343l0.146,0.147l0.073,0.071l0.073-0.073l0.293-0.293
				l0.586-0.586l1.171-1.171l4.282-4.282l2.857-2.857l1.014-1.014l0.507-0.507c0.042-0.077,0.085-0.012,0.127,0.031l0.127,0.127
				l0.253,0.253l9.899,9.899l-2.332,2.332l7.72,0v-7.72l-2.332,2.332l-12.354-12.354l-0.586-0.586l-0.293-0.293
				c-0.098-0.099-0.195-0.251-0.293-0.072l-1.171,1.171l-2.343,2.343l-3.857,3.857l-2.431,2.431l-0.507,0.507l-0.253,0.253
				c-0.084,0.084-0.169,0.219-0.253,0.064l-1.014-1.014l-12.625-12.625L330.956,241.041z"/>
		</g>
	</g>
	<g>
		<path style="fill:#6343FF;" d="M166.87,188.361h-41.666c-2.953,0-5.346-2.394-5.346-5.346v-27.18c0-2.953,2.394-5.346,5.346-5.346
			h41.666c2.953,0,5.346,2.394,5.346,5.346v27.18C172.217,185.968,169.823,188.361,166.87,188.361z"/>
		<path style="fill:#C0C0C0;" d="M149.712,182.505c-2.123,0-4.115-0.823-5.61-2.32l-8.831-8.83c-1.497-1.496-2.321-3.49-2.321-5.613
			c0-2.124,0.824-4.118,2.321-5.614c0.531-0.531,1.237-0.823,1.989-0.823s1.458,0.292,1.989,0.823l2.911,2.911
			c0.531,0.53,0.824,1.236,0.824,1.988c0,0.751-0.293,1.457-0.824,1.989l-0.922,0.919l6.282,6.283l0.921-0.921
			c0.502-0.501,1.228-0.788,1.991-0.788s1.487,0.287,1.987,0.788l2.911,2.91c0.53,0.53,0.822,1.236,0.822,1.989
			c0,0.753-0.292,1.458-0.822,1.988c-1.497,1.497-3.491,2.321-5.614,2.321H149.712z M158.436,169.098
			c-0.38,0-0.688-0.309-0.688-0.689c0-5.894-4.795-10.689-10.688-10.689c-0.38,0-0.689-0.308-0.689-0.688s0.309-0.688,0.689-0.688
			c6.653,0,12.066,5.412,12.066,12.065C159.125,168.789,158.816,169.098,158.436,169.098z M152.059,169.098
			c-0.38,0-0.689-0.309-0.689-0.689c0-2.378-1.934-4.312-4.311-4.312c-0.38,0-0.689-0.309-0.689-0.689
			c0-0.38,0.309-0.688,0.689-0.688c3.136,0,5.688,2.551,5.688,5.689C152.748,168.789,152.439,169.098,152.059,169.098z"/>
		<circle style="fill:#FF504C;" cx="171.419" cy="151.241" r="5.804"/>
	</g>
	<g>
		<g>
			<path style="fill:#C0C0C0;" d="M545.09,315.343l15.215-10.37l-3.481-7.686c0,0-22.948,11.576-21.661,21.4
				c1.286,9.825,29.036,4.53,29.036,4.53l2.416-10.767L545.09,315.343z"/>
			<path style="fill:#001A2D;" d="M561.75,311.337c-1.691-2.679-3.322-4.48-4.254-7.507c-1.1-3.572-1.632-7.427-0.706-11.047
				c0.926-3.621,3.515-6.958,7.088-8.052c2.702-0.827,5.642-0.324,8.319,0.581c2.677,0.905,5.216,2.199,7.925,3.004
				s5.711,1.086,8.305-0.036c-0.585,6.765-3.597,13.297-8.773,17.692S568.521,311.857,561.75,311.337z"/>
			<g>
				<path style="fill:#001A2D;" d="M558.068,317.763c-2.362,1.931-4.396,4.284-6.094,6.821c6.421-0.262,12.225-1.366,12.225-1.366
					l1.462-8.637C563.021,315.475,560.43,316.473,558.068,317.763z"/>
				<path style="fill:#C0C0C0;" d="M570.353,311.342c0,0,8.319,0.235,11.882,2.296l-1.592,30.642l-21.343,2.358l-1.602-14.082
					c0,0-5.124-3.287-2.98-9.363C557.144,316.321,562.094,312.99,570.353,311.342z"/>
				<g>
					<path style="fill:#E8935D;" d="M573.267,311.995l0.967-10.664c0,0,4.241,1.056,4.271-2.336c0.026-3.022-3.255-2.965-4.699-1.42
						c0,0,1.905-10.711-7.225-10.752c-9.129-0.04-8.132,12.371-7.904,15.376c0.401,5.292,4.417,7.498,7.183,7.521l0.072,3.26
						c0,0,0.031,2.856,2.706,2.73C572.203,315.542,573.267,311.995,573.267,311.995z"/>
				</g>
				<g>
					<path style="fill:#E8935D;" d="M559.256,298.998c0,0-3.995-2.145-4.355,1.453c-0.397,3.956,4.841,2.335,4.841,2.335
						L559.256,298.998z"/>
				</g>
				<g>
					<path style="fill:#001A2D;" d="M567.566,298.044c0.122,0.525-0.205,1.05-0.731,1.172c-0.526,0.122-1.05-0.205-1.173-0.731
						c-0.122-0.525,0.205-1.05,0.731-1.172C566.919,297.191,567.444,297.518,567.566,298.044z"/>
				</g>
				<g>
					<path style="fill:#001A2D;" d="M562.774,298.408c0.122,0.526-0.205,1.05-0.731,1.173c-0.525,0.122-1.05-0.205-1.172-0.731
						c-0.122-0.525,0.205-1.05,0.731-1.172C562.127,297.556,562.652,297.883,562.774,298.408z"/>
				</g>
				<g>
					<path style="fill:#001A2D;" d="M564.8,301.498c-0.011,0-0.022-0.001-0.033-0.003c-0.477-0.06-0.999-0.186-1.269-0.66
						c-0.29-0.509-0.198-1.27,0.29-2.397c0.057-0.134,0.211-0.194,0.345-0.136c0.133,0.058,0.193,0.212,0.136,0.345
						c-0.399,0.923-0.509,1.59-0.315,1.93c0.124,0.217,0.387,0.336,0.88,0.399c0.144,0.018,0.245,0.149,0.227,0.293
						C565.043,301.401,564.931,301.498,564.8,301.498z"/>
				</g>
				<g>
					<path style="fill:#001A2D;" d="M564.688,303.409c-0.036,0-0.073-0.008-0.108-0.023c-0.132-0.061-0.19-0.216-0.131-0.348
						c0.173-0.38,0.526-0.691,0.972-0.854c0.417-0.15,1.097-0.245,1.976,0.172c0.131,0.063,0.186,0.219,0.125,0.35
						c-0.063,0.132-0.223,0.184-0.35,0.125c-0.715-0.339-1.249-0.272-1.57-0.154c-0.315,0.115-0.56,0.326-0.674,0.579
						C564.883,303.352,564.787,303.409,564.688,303.409z"/>
				</g>
				<g>
					<path style="fill:#001A2D;" d="M558.783,302.314c-0.124,0-0.233-0.088-0.258-0.214c-0.161-0.846-0.239-1.71-0.231-2.568
						c0.002-0.144,0.119-0.26,0.263-0.26c0.001,0,0.002,0,0.003,0c0.145,0.002,0.261,0.12,0.26,0.266
						c-0.009,0.823,0.065,1.652,0.221,2.465c0.027,0.142-0.066,0.279-0.209,0.307C558.815,302.311,558.799,302.314,558.783,302.314z
						"/>
				</g>
				<g>
					<path style="fill:#001A2D;" d="M558.462,300.92c-0.005,0-0.011-0.001-0.017-0.001l-1.306-0.08
						c-0.145-0.009-0.255-0.133-0.246-0.277c0.009-0.145,0.133-0.249,0.277-0.246l1.308,0.08c0.144,0.009,0.254,0.134,0.245,0.278
						C558.715,300.813,558.6,300.92,558.462,300.92z"/>
				</g>
				<g>
					<path style="fill:#001A2D;" d="M574.747,299.896c-0.145,0-0.262-0.117-0.263-0.262c-0.002-0.614,0.309-1.218,0.81-1.574
						c0.5-0.355,1.171-0.451,1.752-0.247c0.137,0.047,0.208,0.197,0.16,0.334c-0.047,0.136-0.192,0.212-0.334,0.16
						c-0.42-0.146-0.91-0.079-1.273,0.181c-0.365,0.259-0.591,0.697-0.589,1.145C575.01,299.776,574.893,299.895,574.747,299.896
						L574.747,299.896z"/>
				</g>
				<g>
					<path style="fill:#001A2D;" d="M575.946,299.474c-0.071,0-0.143-0.029-0.194-0.086l-0.646-0.711
						c-0.098-0.106-0.091-0.272,0.017-0.37c0.107-0.098,0.273-0.091,0.37,0.017l0.647,0.711c0.097,0.107,0.089,0.273-0.018,0.371
						C576.072,299.45,576.01,299.474,575.946,299.474z"/>
				</g>
				<g>
					<path style="fill:#001A2D;" d="M566.453,296.071c-0.655,0-1.31-0.186-1.861-0.55c-0.142-0.094-0.181-0.285-0.087-0.427
						c0.095-0.141,0.285-0.178,0.427-0.087c0.795,0.526,1.901,0.592,2.754,0.16c0.15-0.077,0.337-0.017,0.413,0.136
						c0.077,0.151,0.016,0.337-0.136,0.413C567.494,295.954,566.974,296.071,566.453,296.071z"/>
				</g>
				<g>
					<path style="fill:#001A2D;" d="M560.456,297.257c-0.176,0-0.353-0.021-0.526-0.063c-0.165-0.039-0.267-0.206-0.227-0.371
						c0.039-0.164,0.204-0.267,0.371-0.227c0.878,0.208,1.883-0.362,2.147-1.23c0.05-0.162,0.222-0.259,0.383-0.205
						c0.163,0.049,0.255,0.221,0.205,0.383C562.502,296.558,561.493,297.257,560.456,297.257z"/>
				</g>
				<path style="fill:#001A2D;" d="M565.859,309.72c1.827,0.141,5.154-1.466,5.154-1.466s-1.901,2.423-5.117,3.137l-0.48-0.743
					L565.859,309.72z"/>
				<path style="fill:#E87555;" d="M567.748,300.936c0.292,0.719,1.113,1.066,1.832,0.773c0.719-0.292,1.066-1.113,0.773-1.832
					s-1.113-1.066-1.832-0.773C567.802,299.396,567.456,300.216,567.748,300.936z"/>
				<path style="fill:#E87555;" d="M559.408,302.075c0.292,0.719,1.113,1.066,1.832,0.773c0.719-0.292,1.066-1.113,0.773-1.832
					c-0.292-0.719-1.113-1.066-1.832-0.773C559.462,300.536,559.116,301.356,559.408,302.075z"/>
				<path style="fill:#001A2D;" d="M558.488,298.668c0,0,1.791-5.349,2.405-7.867c0,0,6.161,5.4,10.282,7.249
					c0,0-0.158,3.678,0.457,3.641c0.616-0.038,1.292-2.128,2.173-4.117c0.881-1.989,2.214-3.817,2.214-3.817l-5.158-7.348
					l-2.912-0.756l-3.436,0.108l-2.943,1.55l-2.295,1.764l-1.623,3.772l-0.261,2.97L558.488,298.668z"/>
			</g>
		</g>
		<path style="fill:#C0C0C0;" d="M582.235,313.638c4.443,1.515,10.979,26.092,5.287,29.738c-5.692,3.646-22.834-15.21-22.834-15.21
			L582.235,313.638z"/>
		
			<line style="fill:none;stroke:#001A2D;stroke-width:0.5245;stroke-linecap:round;stroke-linejoin:round;stroke-miterlimit:10;" x1="572.89" y1="326.348" x2="583.023" y2="332.325"/>
		<path style="fill:#E8935D;" d="M571.662,325.808l-3.776-2.697c0,0-1.697-7.008-2.46-7.107c-0.763-0.099,0.247,3.812,0.247,3.812
			s-2.016-5.721-2.464-5.683c-0.448,0.038,0.709,4.712,0.709,4.712s-1.94-4.076-2.453-3.881c-0.514,0.195,0.963,4.168,0.963,4.168
			s-2.301-2.993-2.808-2.723c-0.507,0.271,2.86,6.497,2.86,6.497s-3.065-0.041-3.082,0.642c-0.017,0.683,5.914,3.108,5.914,3.108
			l3.555,2.881L571.662,325.808z"/>
		
			<path style="fill:none;stroke:#001A2D;stroke-width:0.5245;stroke-linecap:round;stroke-linejoin:round;stroke-miterlimit:10;" d="
			M568.598,331.347c0,0,5.167,5.665,11.012,9.963"/>
		<path style="fill:#001A2D;" d="M618.492,396.757l6.26,0.813c0,0,8.512,5.999,5.784,5.999c-2.728,0-6.735-2.091-6.735-2.091
			l-5.679-0.217L618.492,396.757z"/>
		<path style="fill:#001A2D;" d="M580.643,344.281c0,0,2.778,2.367,3.917,9.823c1.139,7.455-2.66,12.343-2.66,12.343l2.507,23.628
			l37.444,5.52l-0.817,7.975c0,0-49.633,0-57.496,0c-7.864,0-13.174-2.795-12.868-11.986c0.306-9.191,8.631-44.944,8.631-44.944
			L580.643,344.281z"/>
	</g>
	<g>
		<circle style="fill:#6343FF;" cx="129.49" cy="386.677" r="18.438"/>
		<path style="fill:#001A2D;" d="M143.397,396.724c-7.2,7.201-18.874,7.201-26.075,0c-4.515-4.515-6.196-10.789-5.049-16.616
			c-2.506,6.581-1.123,14.305,4.179,19.607c7.2,7.2,18.874,7.2,26.075,0c2.685-2.685,4.366-5.993,5.049-9.459
			C146.679,392.612,145.296,394.826,143.397,396.724z"/>
		<path style="fill:#C0C0C0;" d="M130.722,395.776v2.211h-1.759V395.8c-2.84-0.201-4.951-1.659-5.856-4.072l3.468-2.01
			c0.528,1.206,1.257,1.91,2.387,2.112v-3.468c-0.1-0.051-0.226-0.075-0.327-0.126c-2.186-0.88-4.8-2.111-4.8-5.479
			c0-3.267,2.463-4.951,5.127-5.203v-2.186h1.759v2.237c2.161,0.276,3.971,1.433,4.951,3.644l-3.393,1.986
			c-0.327-0.88-0.829-1.382-1.558-1.633v3.393c2.186,0.93,5.152,1.759,5.152,5.428C135.874,393.564,133.712,395.423,130.722,395.776
			z M128.962,384.164v-2.638c-0.729,0.176-1.106,0.653-1.106,1.256C127.857,383.259,128.083,383.661,128.962,384.164z
			 M131.852,390.473c0-0.629-0.377-1.006-1.131-1.382v2.689C131.576,391.553,131.852,391,131.852,390.473z"/>
		<g>
			<path style="fill:#6343FF;" d="M157.259,379.06c-2.106-2.713-4.053-4.437-6.125-5.423c-2.489-1.186-5.239-1.199-7.178-0.033
				l-1.546-2.57c2.792-1.678,6.629-1.717,10.014-0.105c2.511,1.196,4.8,3.195,7.205,6.292L157.259,379.06z"/>
		</g>
		<g>
			<path style="fill:#001A2D;" d="M144.683,370.081c-0.808,0.214-1.574,0.532-2.273,0.952l1.546,2.57
				c0.624-0.375,1.338-0.615,2.094-0.746C145.584,371.937,145.117,371.018,144.683,370.081z"/>
			<path style="fill:#001A2D;" d="M154.896,376.369c0.775,0.762,1.557,1.653,2.363,2.691l2.37-1.84
				c-0.437-0.562-0.869-1.077-1.3-1.568C157.178,375.848,156.037,376.108,154.896,376.369z"/>
		</g>
		<rect x="156.446" y="376.253" style="fill:#6343FF;" width="17.917" height="6.592"/>
		
			<rect x="137.753" y="371.116" transform="matrix(0.7071 0.7071 -0.7071 0.7071 306.0399 8.6168)" style="fill:#6343FF;" width="9.731" height="5.231"/>
	</g>
	<g>
		<path style="fill:#C0C0C0;" d="M297.569,102.995c-0.124-0.667-0.643-1.023-1.614-0.843c-1.047,0.195-1.545,1.016-1.76,1.981
			l-2.907-1.016c0.473-2.117,2.115-3.564,4.229-3.957c2.171-0.403,4.589,0.527,5.048,3.002c0.527,2.837-2.357,4.279-2.112,5.593
			l-3.047,0.566C294.993,106.093,297.881,104.671,297.569,102.995z M295.719,111.592c-0.184-0.99,0.483-1.961,1.473-2.145
			c0.99-0.184,1.961,0.483,2.145,1.473c0.184,0.99-0.482,1.961-1.473,2.145C296.874,113.249,295.903,112.582,295.719,111.592z
			 M308.414,96.371c0.012-1.145-0.732-1.904-2.4-1.922c-1.798-0.019-2.89,1.179-3.56,2.709l-4.485-2.631
			c1.475-3.353,4.666-5.216,8.296-5.178c3.727,0.039,7.431,2.368,7.386,6.619c-0.052,4.872-5.3,6.321-5.323,8.577l-5.232-0.055
			C303.136,100.665,308.384,99.248,308.414,96.371z M302.547,110.012c0.018-1.7,1.439-3.092,3.139-3.074
			c1.701,0.018,3.091,1.439,3.073,3.139c-0.018,1.7-1.439,3.091-3.139,3.073C303.921,113.133,302.529,111.712,302.547,110.012z"/>
	</g>
	<g>
		<g>
			<path style="fill:#FE9400;" d="M357.466,214.9c-0.153-0.403,0.05-0.853,0.453-1.005l6.395-2.426l-2.425-6.395
				c-0.153-0.403,0.049-0.853,0.453-1.006l6.394-2.425l-2.425-6.395c-0.153-0.403,0.05-0.853,0.452-1.005l6.395-2.426l-2.425-6.395
				c-0.153-0.403,0.05-0.853,0.453-1.006c0.403-0.153,0.853,0.049,1.005,0.452l2.702,7.124c0.153,0.403-0.05,0.853-0.453,1.005
				l-6.395,2.426l2.425,6.395c0.153,0.403-0.049,0.853-0.452,1.005l-6.394,2.425l2.425,6.395c0.153,0.403-0.05,0.853-0.452,1.005
				l-7.124,2.702C358.069,215.505,357.619,215.303,357.466,214.9z"/>
		</g>
		<g>
			<path style="fill:#FEE526;" d="M452.414,278.19c-0.19,0.387-0.657,0.546-1.043,0.356l-6.139-3.016l-3.015,6.139
				c-0.19,0.387-0.657,0.546-1.044,0.356l-6.138-3.015l-3.015,6.139c-0.19,0.387-0.657,0.546-1.043,0.356l-6.139-3.016l-3.015,6.139
				c-0.19,0.387-0.657,0.546-1.043,0.356c-0.387-0.19-0.546-0.657-0.356-1.043l3.359-6.839c0.19-0.387,0.657-0.546,1.043-0.356
				l6.139,3.016l3.015-6.139c0.19-0.387,0.657-0.546,1.043-0.356l6.138,3.015l3.015-6.139c0.19-0.387,0.657-0.546,1.044-0.356
				l6.839,3.359C452.445,277.336,452.604,277.803,452.414,278.19z"/>
		</g>
		<g>
			<path style="fill:#FE9400;" d="M625.257,379.973c-0.429,0.045-0.812-0.265-0.857-0.693l-0.719-6.802l-6.801,0.719
				c-0.429,0.045-0.812-0.265-0.857-0.694l-0.719-6.801l-6.801,0.719c-0.429,0.045-0.812-0.265-0.857-0.693l-0.719-6.802
				l-6.802,0.718c-0.429,0.045-0.812-0.265-0.857-0.693s0.265-0.812,0.693-0.857l7.577-0.801c0.429-0.045,0.812,0.265,0.857,0.694
				l0.719,6.802l6.801-0.719c0.429-0.045,0.812,0.265,0.857,0.693l0.719,6.801l6.801-0.718c0.429-0.045,0.812,0.265,0.857,0.693
				l0.801,7.577C625.995,379.544,625.685,379.927,625.257,379.973z"/>
		</g>
		<g>
			<path style="fill:#FEE526;" d="M211.241,352.283l-8.938-1.193c-0.427-0.057-0.727-0.449-0.67-0.876l1.193-8.937
				c0.057-0.427,0.449-0.727,0.876-0.67l8.938,1.193c0.427,0.057,0.727,0.449,0.67,0.876l-1.193,8.937
				C212.06,352.04,211.668,352.34,211.241,352.283z M203.283,349.648l7.392,0.987l0.987-7.391l-7.392-0.987L203.283,349.648z"/>
		</g>
		<g>
			<path style="fill:#FEE526;" d="M240.78,106.315c-0.133,0.023-0.272,0.011-0.402-0.038c-0.261-0.096-0.451-0.325-0.497-0.6
				l-1.599-9.431c-0.047-0.275,0.057-0.553,0.272-0.73c0.214-0.178,0.508-0.228,0.769-0.13l8.966,3.331
				c0.261,0.096,0.451,0.325,0.497,0.6c0.046,0.275-0.057,0.553-0.272,0.73l-7.367,6.1
				C241.04,106.236,240.913,106.293,240.78,106.315z M240.045,97.317l1.148,6.768l5.286-4.378L240.045,97.317z"/>
		</g>
		<g>
			<path style="fill:#FE9400;" d="M137.249,118.688c-0.133,0.023-0.272,0.011-0.402-0.038c-0.261-0.096-0.451-0.325-0.497-0.6
				l-1.599-9.431c-0.047-0.275,0.057-0.553,0.272-0.73c0.214-0.178,0.508-0.228,0.769-0.13l8.966,3.331
				c0.261,0.096,0.451,0.325,0.497,0.6c0.047,0.275-0.057,0.553-0.272,0.73l-7.367,6.1
				C137.509,118.608,137.382,118.665,137.249,118.688z M136.514,109.689l1.148,6.768l5.286-4.378L136.514,109.689z"/>
		</g>
		<g>
			<path style="fill:#FE9400;" d="M610.631,136.569c-0.056,0.122-0.144,0.23-0.258,0.31c-0.227,0.162-0.522,0.189-0.776,0.073
				l-8.694-3.989c-0.253-0.116-0.425-0.358-0.451-0.636c-0.027-0.277,0.097-0.548,0.325-0.709l7.801-5.534
				c0.226-0.162,0.522-0.189,0.776-0.073c0.253,0.116,0.425,0.358,0.45,0.636l0.893,9.523
				C610.711,136.309,610.687,136.447,610.631,136.569z M602.78,132.11l6.239,2.863l-0.641-6.834L602.78,132.11z"/>
		</g>
		<path style="fill:#FE9400;" d="M544.88,358.709c-0.123-0.413-0.556-0.648-0.97-0.525l-3.158,0.939l-0.938-3.157
			c-0.123-0.413-0.556-0.648-0.969-0.525c-0.413,0.123-0.648,0.556-0.525,0.97l0.938,3.157l-3.157,0.938
			c-0.413,0.123-0.648,0.556-0.525,0.969c0.123,0.413,0.556,0.648,0.969,0.525l3.157-0.938l0.938,3.157
			c0.123,0.413,0.556,0.648,0.969,0.525c0.413-0.123,0.648-0.556,0.525-0.969l-0.938-3.157l3.158-0.938
			C544.768,359.556,545.003,359.122,544.88,358.709z"/>
		<path style="fill:#FEE526;" d="M468.052,160.655l-2.919-1.527l1.527-2.918c0.2-0.382,0.052-0.852-0.329-1.052
			c-0.382-0.2-0.852-0.052-1.052,0.329l-1.527,2.918l-2.918-1.527c-0.382-0.2-0.852-0.052-1.052,0.329
			c-0.2,0.382-0.053,0.852,0.329,1.052l2.918,1.527l-1.527,2.918c-0.2,0.382-0.053,0.853,0.329,1.052
			c0.382,0.2,0.852,0.052,1.052-0.329l1.527-2.918l2.919,1.527c0.382,0.2,0.852,0.053,1.052-0.329
			C468.581,161.326,468.434,160.855,468.052,160.655z"/>
		<path style="fill:#FEE526;" d="M211.442,286.291l-2.919-1.527l1.527-2.918c0.2-0.382,0.053-0.853-0.329-1.052
			c-0.382-0.2-0.852-0.052-1.052,0.329l-1.527,2.918l-2.918-1.527c-0.382-0.2-0.852-0.052-1.052,0.329
			c-0.2,0.382-0.053,0.852,0.329,1.052l2.918,1.527l-1.527,2.918c-0.2,0.382-0.052,0.853,0.329,1.052
			c0.382,0.2,0.853,0.052,1.052-0.33l1.527-2.918l2.919,1.527c0.382,0.2,0.852,0.053,1.052-0.329
			C211.972,286.961,211.824,286.491,211.442,286.291z"/>
		<path style="fill:#FEE526;" d="M141.434,317.779l-2.986,1.39l-1.39-2.986c-0.182-0.391-0.645-0.56-1.036-0.378
			c-0.391,0.182-0.559,0.645-0.378,1.036l1.39,2.986l-2.986,1.39c-0.391,0.182-0.56,0.645-0.378,1.036
			c0.182,0.391,0.645,0.56,1.036,0.378l2.986-1.39l1.39,2.986c0.182,0.391,0.645,0.56,1.036,0.378
			c0.391-0.182,0.56-0.645,0.378-1.036l-1.39-2.986l2.987-1.39c0.391-0.182,0.56-0.645,0.378-1.036
			C142.288,317.766,141.825,317.597,141.434,317.779z"/>
	</g>
</g>
</svg>
