<?xml version="1.0" encoding="utf-8"?>
<!-- Generator: Adobe Illustrator 27.5.0, SVG Export Plug-In . SVG Version: 6.00 Build 0)  -->
<svg version="1.1" id="Layer_1" xmlns="http://www.w3.org/2000/svg" xmlns:xlink="http://www.w3.org/1999/xlink" x="0px" y="0px"
	 viewBox="0 0 5000 5000" style="enable-background:new 0 0 5000 5000;" xml:space="preserve">
<g>
	
		<rect x="1420.125" y="1600.829" transform="matrix(0.2278 -0.9737 0.9737 0.2278 -371.8662 4888.2739)" style="fill:#D6D6D8;" width="2951.929" height="2155.534"/>
	<g>
		
			<rect x="2245.937" y="2701.583" transform="matrix(0.2278 -0.9737 0.9737 0.2278 -1322.5111 4661.7891)" style="fill:#8A8387;" width="64.063" height="926.29"/>
		
			<rect x="2223.303" y="2798.34" transform="matrix(0.2278 -0.9737 0.9737 0.2278 -1434.2051 4714.4595)" style="fill:#8A8387;" width="64.052" height="926.29"/>
		
			<rect x="2200.639" y="2895.113" transform="matrix(0.2278 -0.9737 0.9737 0.2278 -1545.9142 4767.1455)" style="fill:#8A8387;" width="64.095" height="926.29"/>
		
			<rect x="2178.007" y="2991.895" transform="matrix(0.2278 -0.9737 0.9737 0.2278 -1657.6406 4819.8174)" style="fill:#8A8387;" width="64.069" height="926.29"/>
		
			<rect x="2155.364" y="3088.631" transform="matrix(0.2278 -0.9737 0.9737 0.2278 -1769.3094 4872.48)" style="fill:#8A8387;" width="64.088" height="926.29"/>
		
			<rect x="2132.733" y="3185.406" transform="matrix(0.2278 -0.9737 0.9737 0.2278 -1881.0238 4925.1597)" style="fill:#8A8387;" width="64.063" height="926.29"/>
		
			<rect x="2110.081" y="3282.196" transform="matrix(0.2278 -0.9737 0.9737 0.2278 -1992.7568 4977.8428)" style="fill:#8A8387;" width="64.074" height="926.29"/>
		
			<rect x="2087.453" y="3378.955" transform="matrix(0.2278 -0.9737 0.9737 0.2278 -2104.4504 5030.522)" style="fill:#8A8387;" width="64.05" height="926.29"/>
	</g>
	<g>
		
			<rect x="3245.967" y="2935.563" transform="matrix(0.2278 -0.9737 0.9737 0.2278 -778.1413 5816.1992)" style="fill:#8A8387;" width="64.063" height="926.296"/>
		
			<rect x="3223.333" y="3032.323" transform="matrix(0.2278 -0.9737 0.9737 0.2278 -889.8395 5868.8652)" style="fill:#8A8387;" width="64.053" height="926.295"/>
		
			<rect x="3200.669" y="3129.096" transform="matrix(0.2278 -0.9737 0.9737 0.2278 -1001.5469 5921.5518)" style="fill:#8A8387;" width="64.096" height="926.295"/>
		
			<rect x="3178.037" y="3225.877" transform="matrix(0.2278 -0.9737 0.9737 0.2278 -1113.271 5974.2305)" style="fill:#8A8387;" width="64.069" height="926.295"/>
		
			<rect x="3155.394" y="3322.613" transform="matrix(0.2278 -0.9737 0.9737 0.2278 -1224.938 6026.895)" style="fill:#8A8387;" width="64.088" height="926.296"/>
		
			<rect x="3132.763" y="3419.388" transform="matrix(0.2278 -0.9737 0.9737 0.2278 -1336.6563 6079.5684)" style="fill:#8A8387;" width="64.061" height="926.295"/>
		
			<rect x="3110.111" y="3516.177" transform="matrix(0.2278 -0.9737 0.9737 0.2278 -1448.3872 6132.2563)" style="fill:#8A8387;" width="64.074" height="926.296"/>
		
			<rect x="3087.485" y="3612.937" transform="matrix(0.2278 -0.9737 0.9737 0.2278 -1560.0854 6184.9209)" style="fill:#8A8387;" width="64.048" height="926.295"/>
	</g>
	
		<rect x="1922.31" y="2627.915" transform="matrix(0.2278 -0.9737 0.9737 0.2278 -1100.9287 4038.0981)" style="fill:#EBA8A0;" width="146.447" height="170.527"/>
	
		<rect x="1873.75" y="2835.403" transform="matrix(0.2278 -0.9737 0.9737 0.2278 -1340.4473 4151.0425)" style="fill:#83CFEE;" width="146.472" height="170.527"/>
	
		<rect x="2893.768" y="2855.226" transform="matrix(0.2278 -0.9737 0.9737 0.2278 -572.1251 5159.5088)" style="fill:#C8DB57;" width="146.447" height="170.503"/>
	
		<rect x="2845.221" y="3062.703" transform="matrix(0.2278 -0.9737 0.9737 0.2278 -811.6328 5272.4434)" style="fill:#F3BC5A;" width="146.451" height="170.502"/>
	
		<rect x="2235.61" y="2678.439" transform="matrix(0.2278 -0.9737 0.9737 0.2278 -956.3609 4351.377)" style="fill:#C0C0C0;" width="59.481" height="200.465"/>
	
		<rect x="2188.361" y="2890.11" transform="matrix(0.2278 -0.9737 0.9737 0.2278 -1200.6858 4466.6499)" style="fill:#C0C0C0;" width="54.928" height="200.464"/>
	
		<rect x="3187.11" y="2901.065" transform="matrix(0.2278 -0.9737 0.9737 0.2278 -438.3881 5449.8047)" style="fill:#C0C0C0;" width="59.481" height="200.474"/>
	
		<rect x="3139.847" y="3112.746" transform="matrix(0.2278 -0.9737 0.9737 0.2278 -682.7509 5565.0303)" style="fill:#C0C0C0;" width="54.95" height="200.473"/>
	<g>
		<g>
			<path style="fill:#8A8387;" d="M2194.521,1384.826l-241.912,1033.908l238.179,55.729l1617.827,378.534l68.95,16.133
				l241.912-1033.908L2194.521,1384.826z M3371.083,1710.529l299.801,70.146l-45.5,194.46l-299.8-70.146L3371.083,1710.529z
				 M2634.104,1538.092l299.656,70.113l-45.5,194.46l-299.656-70.113L2634.104,1538.092z M2345.397,2459.635l-0.53-0.124
				l-84.522-19.776l-80.401-18.812l-126.035-29.489l-24.831-5.81l9.934-42.456l16.62-71.034l9.798-41.877l6.124-26.171l0.192-0.822
				l214.399,50.164c-0.513,0.16-0.976,0.331-1.5,0.517l101.05,23.643c0.48-0.195,0.947-0.366,1.434-0.532l0.938,0.219
				L2345.397,2459.635z M2403.772,2210.148c-2.892,1.086-5.824,2.183-8.766,3.302l-3.29,14.055l-21.169-4.953l-278.476-65.158
				l-9.095-2.128l48.606-208.299l9.218,2.157l0.126-0.533l299.646,70.11l-0.124,0.534l7.577,1.772L2403.772,2210.148z
				 M2459.532,1972.804l-316.534-74.062l48.774-208.458l316.535,74.062L2459.532,1972.804z M2519.528,1716.391l-316.536-74.063
				l45.5-194.46l316.534,74.062L2519.528,1716.391z M2714.347,2545.961l-299.656-70.113l42.667-182.36l299.657,70.113
				L2714.347,2545.961z M2768.966,2315.773l-0.832-0.194l-296.902-69.469l-1.905-0.446l15.296-65.374
				c-0.296,0.093-0.567,0.205-0.851,0.309l33.548-143.377l0.737,0.172l0.125-0.534l299.64,70.109L2768.966,2315.773z
				 M2829.058,2058.943l-12.099-2.831c-0.18,0.082-0.37,0.095-0.525,0.199l-287.824-67.344l48.729-208.261l299.546,70.086
				l-3.16,13.51l0.831,0.194L2829.058,2058.943z M3082.957,2632.208l-299.771-70.141l42.668-182.359l299.771,70.139
				L3082.957,2632.208z M3136.854,2401.851l-299.769-70.139l47.984-205.083l0.085,0.02l0.87-3.721l299.646,70.11l-20.111,85.957
				l0.038,0.009L3136.854,2401.851z M3196.876,2145.326l-298.094-69.747l-1.617-0.645l48.717-208.206l299.769,70.14
				L3196.876,2145.326z M3256.87,1888.912l-299.77-70.14l45.5-194.459l299.769,70.139L3256.87,1888.912z M3451.47,2718.432
				l-299.801-70.147l42.668-182.36l299.801,70.146L3451.47,2718.432z M3510.242,2474.579l-1.628-0.381l-3.247,13.876
				l-299.799-70.146l24.331-103.993l1.69,0.917l12.068-51.575l-1.69-0.923l12.33-52.697l1.807,0.423l0.01-0.04l299.623,70.104
				L3510.242,2474.579z M3565.389,2231.55l-52.404-12.262l-247.396-57.885l48.774-208.458l299.8,70.146l-2.569,10.984
				L3565.389,2231.55z M3819.928,2804.642l-299.528-70.083l42.668-182.36l299.529,70.083L3819.928,2804.642z M3873.826,2574.286
				l-299.528-70.084l48.73-208.271l299.529,70.084L3873.826,2574.286z M3941.767,2305.65l-3.051,13.489l-4.867-1.379
				l-299.529-70.083l48.774-208.458l58.052,13.582l-0.86,0.645l80.774,18.9l0.847-0.647l160.716,37.603l-0.188,0.802l4.822,1.129
				L3941.767,2305.65z M3998.664,2062.475l-4.821-1.128l-0.037,0.157l-119.052-27.855l0.153-0.13l-81.161-18.99l-94.729-22.164
				l-4.704-1.1l45.499-194.461l4.704,1.101l262.54,61.428l37.106,8.682L3998.664,2062.475z"/>
		</g>
	</g>
	<polygon style="fill:#EBA8A0;" points="2029.432,2372.973 2012.002,2334.864 2450.162,2137.712 2634.485,2286.913 
		3053.985,2115.199 3196.542,2313.133 3559.602,1957.463 3933.062,2502.377 3898.292,2525.848 3553.295,2022.448 3191.132,2377.312 
		3039.257,2166.52 2627.479,2335.094 2443.899,2186.507 	"/>
	<polygon style="fill:#83CFEE;" points="3381.764,2344.565 3045.169,1981.054 2758.503,2031.379 2608.88,1976.918 
		2306.376,2038.206 2086.477,2037.414 2086.523,1995.563 2302.089,1996.38 2612.026,1933.563 2762.221,1988.25 3060.448,1935.877 
		3395.561,2297.769 4007.662,2140.569 4018.29,2181.088 	"/>
	<polygon style="fill:#C8DB57;" points="2579.919,2418.12 2271.246,2131.45 2040.906,2186.522 2030.961,2145.874 2283.321,2085.489 
		2592.112,2372.284 3008.919,2275.07 3273.055,2500.77 3721.212,2362.069 3962.155,2353.848 3963.712,2395.626 3728.418,2403.692 
		3263.423,2547.582 2997.792,2320.622 	"/>
	<polygon style="fill:#F3BC5A;" points="2034.547,2257.659 2025.375,2216.804 2632.415,2084.68 2739.521,2155.97 3387.012,1842.954 
		3534.235,2098.697 4062.239,1898.362 4077.356,1937.396 3515.663,2150.578 3370.07,1897.724 2736.306,2204.11 2623.993,2129.353 	
		"/>
	
		<rect x="1628.474" y="1897.648" transform="matrix(0.2278 -0.9737 0.9737 0.2278 -257.9333 3536.9602)" style="fill:#8A8387;" width="945.181" height="66.916"/>
	
		<rect x="3432.5" y="2307.911" transform="matrix(0.2278 -0.9737 0.9737 0.2278 778.1544 5669.1611)" style="fill:#8A8387;" width="1061.832" height="72.105"/>
</g>
<g>
	<g>
		
			<rect x="2118.396" y="953.202" transform="matrix(0.5291 -0.8486 0.8486 0.5291 225.3364 2828.657)" style="fill:#B8D98F;" width="1085.699" height="516.204"/>
		<g>
			<path style="fill:none;" d="M2485.668,1671.956c30.168-48.385,93.843-63.154,142.23-32.985c1.16,0.727,2.21,1.56,3.34,2.322
				l402.376-645.34c-1.11-0.635-2.247-1.178-3.347-1.865c-48.387-30.169-63.16-93.842-32.988-142.229
				c0.414-0.665,0.902-1.246,1.324-1.898l-162.779-101.493c-0.395,0.663-0.713,1.354-1.127,2.017
				c-30.166,48.388-93.841,63.151-142.221,32.985c-0.633-0.392-1.178-0.843-1.789-1.244l-402.279,645.179
				c0.551,0.338,1.145,0.603,1.688,0.94c48.384,30.166,63.146,93.848,32.977,142.232c-0.238,0.386-0.516,0.719-0.75,1.1
				l162.696,101.438C2485.244,1672.736,2485.428,1672.34,2485.668,1671.956z"/>
			<path style="fill:#86B277;" d="M2657.674,1667.078l410.695-658.668l70.699-113.39l-115.145-71.793l-175.24-109.263
				l-113.739-70.92l-71.022,113.903l-409.963,657.502l-70.543,113.137l113.852,70.986l174.627,108.887l115.647,72.107
				L2657.674,1667.078z M2322.322,1571.676c0.234-0.38,0.512-0.714,0.75-1.1c30.17-48.384,15.407-112.066-32.977-142.232
				c-0.543-0.337-1.137-0.602-1.688-0.94l402.279-645.179c0.611,0.401,1.156,0.852,1.789,1.244
				c48.38,30.166,112.055,15.403,142.221-32.985c0.414-0.664,0.732-1.354,1.127-2.017l162.779,101.493
				c-0.422,0.652-0.91,1.234-1.324,1.898c-30.172,48.387-15.398,112.06,32.988,142.229c1.1,0.687,2.236,1.229,3.347,1.865
				l-402.376,645.34c-1.13-0.763-2.18-1.596-3.34-2.322c-48.388-30.169-112.063-15.399-142.23,32.985
				c-0.24,0.385-0.424,0.78-0.649,1.159L2322.322,1571.676z"/>
		</g>
		<g>
			<path style="fill:#86B277;" d="M2572.808,1353.151c-78.336-48.842-102.254-151.949-53.409-230.29
				c48.848-78.338,151.955-102.245,230.296-53.403c78.335,48.847,102.233,151.943,53.392,230.284
				C2754.237,1378.085,2651.143,1401.999,2572.808,1353.151z"/>
			<g>
				<g>
					<path style="fill:#FFFFFF;" d="M2558.832,1127.347l25.952,16.182c12.228-17.783,28.214-32.475,40.694-39.108l26.846,28.114
						c-13.447,7.549-29.227,20.097-40.294,37.844c-9.702,15.567-10.331,29.967,0.603,36.784
						c10.369,6.464,22.367,1.817,41.805-14.132c28.05-23.099,54.141-34.522,80.639-18.004c24.031,14.981,32.307,43.673,19.83,76.475
						l25.951,16.178l-16.688,26.765l-24.043-14.992c-12.227,17.797-23.717,27.694-33.704,33.985l-25.929-27.16
						c7.43-5.232,21.553-13.879,33.813-33.541c11.069-17.754,6.995-28.259-0.648-33.026c-9.008-5.616-20.713,0.371-43.926,18.127
						c-31.731,25.351-54.927,29.098-79.512,13.768c-24.307-15.157-34.334-45.305-20.215-80.121l-27.859-17.369L2558.832,1127.347z"
						/>
				</g>
			</g>
		</g>
	</g>
</g>
<g>
	<g>
		
			<rect x="3468.659" y="2388.628" transform="matrix(0.9853 -0.171 0.171 0.9853 -390.1108 715.8738)" style="fill:#B8D98F;" width="983.589" height="467.654"/>
		<g>
			<path style="fill:none;" d="M3543.297,2781.966c50.896-8.834,99.314,25.26,108.148,76.158c0.21,1.221,0.281,2.434,0.448,3.657
				l678.833-117.816c-0.242-1.134-0.561-2.229-0.762-3.388c-8.834-50.896,25.256-99.316,76.154-108.15
				c0.699-0.12,1.387-0.142,2.082-0.251l-29.719-171.226c-0.686,0.134-1.344,0.336-2.043,0.456
				c-50.896,8.837-99.311-25.261-108.143-76.151c-0.117-0.664-0.141-1.304-0.24-1.959l-678.665,117.785
				c0.104,0.576,0.284,1.137,0.384,1.707c8.835,50.895-25.268,99.312-76.163,108.146c-0.405,0.07-0.798,0.085-1.196,0.155
				l29.705,171.138C3542.513,2782.151,3542.892,2782.036,3543.297,2781.966z"/>
			<path style="fill:#86B277;" d="M3650.436,2895.206l692.857-120.245l119.275-20.701l-21.021-121.12l-31.994-184.334
				l-20.763-119.645l-119.815,20.793l-691.628,120.034l-119.01,20.654l20.786,119.761L3511,2794.096l21.114,121.649
				L3650.436,2895.206z M3512.416,2611.089c0.398-0.07,0.791-0.085,1.196-0.155c50.896-8.834,84.998-57.251,76.163-108.146
				c-0.1-0.57-0.279-1.131-0.384-1.707l678.665-117.785c0.1,0.655,0.123,1.295,0.24,1.959
				c8.832,50.891,57.246,84.988,108.143,76.151c0.699-0.12,1.357-0.322,2.043-0.456l29.719,171.226
				c-0.695,0.109-1.383,0.131-2.082,0.251c-50.898,8.834-84.988,57.254-76.154,108.15c0.201,1.158,0.52,2.254,0.762,3.388
				l-678.833,117.816c-0.167-1.224-0.238-2.437-0.448-3.657c-8.834-50.898-57.253-84.992-108.148-76.158
				c-0.405,0.07-0.784,0.186-1.176,0.261L3512.416,2611.089z"/>
		</g>
		<g>
			<path style="fill:#86B277;" d="M3811.247,2648.354c-14.302-82.4,40.903-160.805,123.31-175.107
				c82.405-14.301,160.803,40.912,175.107,123.316c14.299,82.403-40.911,160.788-123.314,175.093
				C3903.939,2785.958,3825.545,2730.758,3811.247,2648.354z"/>
			<g>
				<g>
					<path style="fill:#FFFFFF;" d="M3955.335,2502.592l4.737,27.298c19.394-2.476,38.969-0.549,50.984,3.877l-2.783,35.107
						c-13.217-4.527-31.22-7.609-49.889-4.371c-16.372,2.844-26.479,11.114-24.482,22.614c1.895,10.907,12.276,16.206,34.784,19.705
						c32.538,5.003,56.007,15.729,60.846,43.601c4.388,25.276-9.996,48.188-39.685,59.564l4.739,27.297l-28.153,4.886l-4.389-25.291
						c-19.403,2.485-33.024,0.699-43.303-2.247l2.691-33.912c8.02,1.859,22.387,6.179,43.068,2.59
						c18.676-3.242,23.311-12.335,21.916-20.377c-1.645-9.476-12.754-13.767-38.764-18.728
						c-36.279-6.128-52.814-19.534-57.302-45.394c-4.437-25.57,9.873-50.545,41.914-62.027l-5.088-29.304L3955.335,2502.592z"/>
				</g>
			</g>
		</g>
	</g>
</g>
<rect x="1227.952" y="1676.99" transform="matrix(0.1337 -0.991 0.991 0.1337 -397.2968 5009.3242)" style="fill:#F1573F;" width="2877.365" height="2109.844"/>
<g>
	<g>
		<path style="fill:#184B59;" d="M1530.351,1506.266h-330.045v655.674v478.797l-0.749,1160.063l422.322,0.123
			c24.234,0,44.615-19.868,44.615-44.105l44.954-1174.874c75.529-55.673,124.714-145.691,124.714-247.288v-522.519
			C1836.162,1643.093,1699.392,1506.266,1530.351,1506.266z"/>
		<path style="fill:#2E6876;" d="M876.656,1506.266c-169.044,0-306.055,136.827-306.055,305.87v522.519
			c0,101.597,49.181,191.615,125.59,247.288l49.043,1174.874c0,24.237,19.742,44.105,43.982,44.105h411.091V2640.736v-478.797
			v-655.674H876.656z"/>
	</g>
	<path style="fill:#A1A1A2;" d="M1657.874,1652.494c0,22.07-17.888,39.96-39.959,39.96H755.47c-22.067,0-39.958-17.89-39.958-39.96
		l0,0c0-22.068,17.891-39.96,39.958-39.96h862.444C1639.985,1612.534,1657.874,1630.426,1657.874,1652.494L1657.874,1652.494z"/>
	<path style="fill:#BCC2C0;" d="M1013.238,2745.04c0,28.374-23.002,51.378-51.376,51.378H853.834
		c-28.376,0-51.376-23.004-51.376-51.378v-75.532c0-28.373,23-51.377,51.376-51.377h108.028c28.374,0,51.376,23.004,51.376,51.377
		V2745.04z"/>
	<path style="fill:#BCC2C0;" d="M1304.819,2745.04c0,28.374-23.002,51.378-51.377,51.378h-108.027
		c-28.374,0-51.376-23.004-51.376-51.378v-75.532c0-28.373,23.002-51.377,51.376-51.377h108.027
		c28.375,0,51.377,23.004,51.377,51.377V2745.04z"/>
	<path style="fill:#BCC2C0;" d="M1628.013,2745.04c0,28.374-23,51.378-51.376,51.378h-143.154
		c-28.375,0-51.378-23.004-51.378-51.378v-75.532c0-28.373,23.004-51.377,51.378-51.377h143.154
		c28.376,0,51.376,23.004,51.376,51.377V2745.04z"/>
	<path style="fill:#BCC2C0;" d="M1013.238,3082.287c0,28.375-23.002,51.381-51.376,51.381H853.834
		c-28.376,0-51.376-23.006-51.376-51.381v-75.529c0-28.377,23-51.377,51.376-51.377h108.028c28.374,0,51.376,23,51.376,51.377
		V3082.287z"/>
	<path style="fill:#BCC2C0;" d="M1304.819,3082.287c0,28.375-23.002,51.381-51.377,51.381h-108.027
		c-28.374,0-51.376-23.006-51.376-51.381v-75.529c0-28.377,23.002-51.377,51.376-51.377h108.027c28.375,0,51.377,23,51.377,51.377
		V3082.287z"/>
	<path style="fill:#BCC2C0;" d="M1013.238,3417.781c0,28.373-23.002,51.377-51.376,51.377H853.834
		c-28.376,0-51.376-23.004-51.376-51.377v-75.533c0-28.372,23-51.377,51.376-51.377h108.028c28.374,0,51.376,23.005,51.376,51.377
		V3417.781z"/>
	<path style="fill:#BCC2C0;" d="M1304.819,3417.781c0,28.373-23.002,51.377-51.377,51.377h-108.027
		c-28.374,0-51.376-23.004-51.376-51.377v-75.533c0-28.372,23.002-51.377,51.376-51.377h108.027
		c28.375,0,51.377,23.005,51.377,51.377V3417.781z"/>
	<path style="fill:#CA2027;" d="M1617.476,3418.657c0,28.377-23.002,51.381-51.376,51.381h-75.533
		c-28.373,0-51.377-23.004-51.377-51.381v-341.641c0-28.372,23.004-51.376,51.377-51.376h75.533
		c28.374,0,51.376,23.004,51.376,51.376V3418.657z"/>
	<g>
		<path style="fill:#9BD8E1;" d="M1635.654,1779.402H770.982c-48.295,0-87.088,31.737-87.088,70.61v536.688
			c0,21.724,11.983,41.142,31.301,54.053l977.352-644.324C1677.336,1785.816,1657.373,1779.402,1635.654,1779.402z"/>
		<path style="fill:#78CEE2;" d="M1692.427,1796.399l-977.564,644.076c15.251,10.195,34.814,16.058,56.12,16.058h864.671
			c48.297,0,87.21-30.959,87.21-69.832v-536.688C1722.864,1828.62,1711.04,1809.386,1692.427,1796.399z"/>
	</g>
	<g>
		<path style="fill:#FFFFFF;" d="M884.75,2157.516l-6.914,24.926h-22.768l29.682-97.107h28.814l30.112,97.107h-23.628l-7.492-24.926
			H884.75z M909.39,2141.091l-6.053-20.603c-1.731-5.764-3.458-12.965-4.899-18.729h-0.29c-1.439,5.764-2.882,13.11-4.466,18.729
			l-5.763,20.603H909.39z"/>
		<path style="fill:#FFFFFF;" d="M956.647,2086.631c6.767-1.154,16.277-2.016,29.678-2.016c13.542,0,23.195,2.593,29.679,7.78
			c6.195,4.898,10.374,12.967,10.374,22.475c0,9.511-3.171,17.577-8.932,23.053c-7.494,7.061-18.587,10.229-31.553,10.229
			c-2.884,0-5.476-0.145-7.492-0.433v34.723h-21.753V2086.631z M978.4,2130.718c1.872,0.431,4.177,0.576,7.345,0.576
			c11.674,0,18.877-5.906,18.877-15.848c0-8.932-6.195-14.263-17.146-14.263c-4.468,0-7.493,0.433-9.077,0.863V2130.718z"/>
		<path style="fill:#FFFFFF;" d="M1040.354,2086.631c6.771-1.154,16.28-2.016,29.678-2.016c13.542,0,23.195,2.593,29.68,7.78
			c6.197,4.898,10.374,12.967,10.374,22.475c0,9.511-3.168,17.577-8.932,23.053c-7.492,7.061-18.587,10.229-31.549,10.229
			c-2.884,0-5.479-0.145-7.495-0.433v34.723h-21.755V2086.631z M1062.11,2130.718c1.874,0.431,4.177,0.576,7.348,0.576
			c11.67,0,18.874-5.906,18.874-15.848c0-8.932-6.197-14.263-17.147-14.263c-4.464,0-7.49,0.433-9.075,0.863V2130.718z"/>
		<path style="fill:#FFFFFF;" d="M1124.064,2086.631c7.058-1.154,17.574-2.016,29.243-2.016c14.41,0,24.495,2.161,31.412,7.634
			c5.763,4.612,8.932,11.382,8.932,20.315c0,12.39-8.788,20.89-17.144,23.916v0.433c6.769,2.736,10.517,9.221,12.964,18.152
			c3.026,10.95,6.053,23.629,7.926,27.376h-22.475c-1.588-2.738-3.893-10.663-6.773-22.621
			c-2.594-12.102-6.769-15.415-15.706-15.561h-6.627v38.182h-21.753V2086.631z M1145.817,2128.413h8.646
			c10.95,0,17.432-5.476,17.432-13.976c0-8.933-6.05-13.397-16.134-13.542c-5.332,0-8.358,0.432-9.943,0.72V2128.413z"/>
		<path style="fill:#FFFFFF;" d="M1297.817,2132.879c0,31.842-19.304,51.148-47.688,51.148c-28.814,0-45.672-21.756-45.672-49.418
			c0-29.104,18.585-50.858,47.258-50.858C1281.54,2083.75,1297.817,2106.081,1297.817,2132.879z M1227.656,2134.176
			c0,19.018,8.93,32.417,23.627,32.417c14.838,0,23.338-14.119,23.338-32.992c0-17.435-8.358-32.418-23.485-32.418
			C1236.299,2101.183,1227.656,2115.302,1227.656,2134.176z"/>
		<path style="fill:#FFFFFF;" d="M1334.13,2182.441l-31.124-97.107h24.063l11.814,41.062c3.315,11.526,6.339,22.619,8.644,34.721
			h0.432c2.452-11.67,5.475-23.195,8.79-34.288l12.39-41.495h23.34l-32.704,97.107H1334.13z"/>
		<path style="fill:#FFFFFF;" d="M1460.628,2141.38h-35.73v23.052h39.909v18.01h-61.952v-97.107h59.934v18.008h-37.891v20.172h35.73
			V2141.38z"/>
		<path style="fill:#FFFFFF;" d="M1479.792,2086.631c8.068-1.296,18.586-2.016,29.678-2.016c18.443,0,30.401,3.312,39.764,10.373
			c10.085,7.491,16.427,19.45,16.427,36.596c0,18.585-6.774,31.407-16.138,39.332c-10.227,8.5-25.79,12.535-44.807,12.535
			c-11.379,0-19.448-0.722-24.924-1.442V2086.631z M1501.836,2165.871c1.874,0.435,4.897,0.435,7.633,0.435
			c19.884,0.143,32.851-10.807,32.851-34.003c0.144-20.171-11.671-30.832-30.545-30.832c-4.896,0-8.064,0.432-9.938,0.865V2165.871z
			"/>
	</g>
	<path style="fill:#9C2821;" d="M928.519,3674.02c0,16.973-13.754,30.727-30.726,30.727h-64.607
		c-16.97,0-30.727-13.754-30.727-30.727v-45.173c0-16.972,13.757-30.727,30.727-30.727h64.607c16.972,0,30.726,13.755,30.726,30.727
		V3674.02z"/>
	<path style="fill:#E3BE5D;" d="M1257.608,3674.02c0,16.973-13.756,30.727-30.727,30.727h-64.609
		c-16.97,0-30.727-13.754-30.727-30.727v-45.173c0-16.972,13.757-30.727,30.727-30.727h64.609c16.971,0,30.727,13.755,30.727,30.727
		V3674.02z"/>
	<path style="fill:#098844;" d="M1617.476,3674.02c0,16.973-13.758,30.727-30.727,30.727h-85.62
		c-16.971,0-30.727-13.754-30.727-30.727v-45.173c0-16.972,13.756-30.727,30.727-30.727h85.62c16.968,0,30.727,13.755,30.727,30.727
		V3674.02z"/>
	<path style="fill:#FFFFFF;" d="M1514.754,2351.725H905.979c-31.885,0-61.433-12.415-83.979-34.962
		c-22.548-22.546-34.537-52.521-34.537-84.405v-196.939c0-31.886,11.988-62.32,34.537-84.865
		c22.545-22.546,52.093-35.421,83.979-35.421h608.775c31.885,0,61.797,12.875,84.341,35.421
		c22.546,22.544,34.897,52.979,34.897,84.865v196.939c0,31.885-12.352,61.859-34.897,84.405
		C1576.551,2339.311,1546.639,2351.725,1514.754,2351.725z M1619.549,2034.848c0-58.018-46.931-105.274-104.951-105.274H906.266
		c-58.018,0-105.472,47.256-105.472,105.274v196.743c0,58.019,47.454,104.583,105.472,104.583h608.333
		c58.02,0,104.951-46.564,104.951-104.583V2034.848z"/>
	<g>
		<path style="fill:#D6D6D8;" d="M542.075,570.748h-0.037c-53.296,0-96.742,42.999-96.742,96.294v641.608
			c0,52.341,41.844,95.188,93.825,96.704c0.947,0.027,1.963,0.041,2.917,0.041h0.037c53.296,0,96.71-43.45,96.71-96.745V871.542
			v-204.5C638.786,613.747,595.371,570.748,542.075,570.748z"/>
		<rect x="445.296" y="544.308" style="fill:#D6D6D8;" width="705.454" height="653.777"/>
		<rect x="472.938" y="626.03" style="fill:#ADABB0;" width="653.777" height="20.43"/>
		<rect x="472.938" y="701.142" style="fill:#ADABB0;" width="653.777" height="19.83"/>
		<rect x="472.938" y="775.653" style="fill:#ADABB0;" width="653.777" height="19.83"/>
		<rect x="472.938" y="850.165" style="fill:#ADABB0;" width="653.777" height="19.83"/>
		<rect x="472.938" y="924.676" style="fill:#ADABB0;" width="653.777" height="19.829"/>
		<rect x="472.938" y="999.188" style="fill:#ADABB0;" width="576.261" height="19.829"/>
		<rect x="472.938" y="1073.699" style="fill:#ADABB0;" width="627.337" height="19.83"/>
		<rect x="472.938" y="1148.21" style="fill:#ADABB0;" width="653.777" height="19.83"/>
		<rect x="472.938" y="1222.721" style="fill:#ADABB0;" width="653.777" height="19.83"/>
		<path style="fill:#D6D6D8;" d="M1440.987,772.048h-0.037h-713.92l105.245,383.78v494.732h705.454v-245.158V868.579
			C1537.729,815.284,1494.282,772.048,1440.987,772.048z"/>
		<path style="fill:#ADABB0;" d="M539.179,1405.395h2.859c-0.954,0-1.904-0.018-2.851-0.045L539.179,1405.395z"/>
		<path style="fill:#828083;" d="M735.882,772.048h-0.037c-53.296,0-96.558,43.22-96.558,96.516l-0.502,2.977v437.108
			c0,53.295-43.414,96.745-96.71,96.745h290.199V868.579C832.274,815.284,789.179,772.048,735.882,772.048z"/>
		<rect x="856.31" y="941.502" style="fill:#ADABB0;" width="653.777" height="19.83"/>
		<rect x="856.31" y="1026.228" style="fill:#ADABB0;" width="653.777" height="19.83"/>
		<rect x="856.31" y="1109.753" style="fill:#ADABB0;" width="653.777" height="19.83"/>
		<rect x="856.31" y="1194.479" style="fill:#ADABB0;" width="653.777" height="19.83"/>
		<rect x="856.31" y="1278.605" style="fill:#ADABB0;" width="576.261" height="19.83"/>
		<rect x="856.31" y="857.376" style="fill:#ADABB0;" width="576.261" height="20.43"/>
		<rect x="856.31" y="1362.13" style="fill:#ADABB0;" width="576.261" height="19.83"/>
		<rect x="856.31" y="1446.856" style="fill:#ADABB0;" width="653.777" height="19.829"/>
		<rect x="856.31" y="1530.982" style="fill:#ADABB0;" width="653.777" height="19.83"/>
	</g>
</g>
<g>
	<path style="fill:#FAC947;" d="M4132.694,1912.695c0,93.492-75.79,169.276-169.281,169.276
		c-93.484,0-169.275-75.785-169.275-169.276c0-93.487,75.791-169.275,169.275-169.275
		C4056.904,1743.42,4132.694,1819.208,4132.694,1912.695z"/>
	<path style="fill:#DDB250;" d="M3963.419,2061.315c-81.954,0-148.617-66.664-148.617-148.62
		c0-81.942,66.663-148.619,148.617-148.619c81.947,0,148.619,66.677,148.619,148.619
		C4112.038,1994.651,4045.366,2061.315,3963.419,2061.315z M3963.419,1792.072c-66.514,0-120.631,54.115-120.631,120.623
		c0,66.517,54.117,120.63,120.631,120.63c66.519,0,120.623-54.113,120.623-120.63
		C4084.042,1846.188,4029.938,1792.072,3963.419,1792.072z"/>
	<g>
		<path style="fill:#DDB250;" d="M3949.824,2017.328v-24.364c-17.18-0.766-33.852-5.38-43.597-11.021l7.69-30
			c10.775,5.895,25.911,11.278,42.573,11.278c14.617,0,24.617-5.64,24.617-15.905c0-9.741-8.205-15.896-27.176-22.308
			c-27.443-9.229-46.166-22.051-46.166-46.934c0-22.56,15.903-40.256,43.344-45.64v-24.364h25.127v22.565
			c17.185,0.77,28.721,4.359,37.185,8.46l-7.435,28.981c-6.666-2.82-18.471-8.718-36.93-8.718c-16.67,0-22.051,7.18-22.051,14.365
			c0,8.459,8.977,13.843,30.773,22.055c30.512,10.768,42.821,24.868,42.821,47.948c0,22.824-16.152,42.32-45.647,47.452v26.149
			H3949.824z"/>
	</g>
</g>
<g>
	<path style="fill:#FAC947;" d="M4232.664,3301.433c0,80.057-64.898,144.95-144.955,144.95c-80.05,0-144.949-64.894-144.949-144.95
		c0-80.052,64.899-144.949,144.949-144.949C4167.766,3156.483,4232.664,3221.381,4232.664,3301.433z"/>
	<path style="fill:#DDB250;" d="M4087.715,3428.694c-70.178,0-127.261-57.084-127.261-127.262
		c0-70.167,57.083-127.262,127.261-127.262c70.17,0,127.262,57.095,127.262,127.262
		C4214.977,3371.61,4157.885,3428.694,4087.715,3428.694z M4087.715,3198.144c-56.956,0-103.296,46.339-103.296,103.289
		c0,56.958,46.34,103.295,103.296,103.295c56.959,0,103.289-46.337,103.289-103.295
		C4191.004,3244.482,4144.674,3198.144,4087.715,3198.144z"/>
	<g>
		<path style="fill:#DDB250;" d="M4076.073,3391.029v-20.863c-14.711-0.656-28.987-4.606-37.331-9.437l6.585-25.688
			c9.227,5.047,22.188,9.656,36.455,9.656c12.517,0,21.079-4.829,21.079-13.619c0-8.341-7.025-13.611-23.27-19.103
			c-23.5-7.902-39.532-18.882-39.532-40.188c0-19.318,13.618-34.471,37.115-39.081v-20.863h21.516v19.323
			c14.716,0.658,24.594,3.732,31.841,7.244l-6.365,24.815c-5.709-2.414-15.816-7.465-31.623-7.465
			c-14.274,0-18.883,6.147-18.883,12.301c0,7.243,7.688,11.854,26.352,18.886c26.127,9.22,36.668,21.294,36.668,41.058
			c0,19.544-13.832,36.238-39.088,40.633v22.392H4076.073z"/>
	</g>
</g>
<g>
	<g>
		<g>
			<path style="fill:#933F37;" d="M2288.15,2271.808c0.002,17.659,7.709,33.511,19.935,44.398
				c10.582,16.406,29.006,27.279,49.981,27.276l210.941-0.012l547.569-0.041c32.829-0.001,59.438-26.618,59.435-59.451
				l-0.016-291.511l-0.006-111.135l-0.01-52.664c0-10.682-2.819-20.703-7.75-29.367c-10.23-17.963-29.549-30.073-51.695-30.072
				l-26.036,0.437l-742.94,0.049c-32.825,0.002-59.44,26.617-59.438,59.449v39.993l10.467-0.001l0,0l-10.467,0.001l0.014,111.136
				L2288.15,2271.808z"/>
		</g>
		<g>
			<path style="fill:#933F37;" d="M3502.892,2936.525V2620.35c0-29.388-23.824-53.211-53.213-53.211H2559.5
				c-29.388,0-53.212,23.823-53.212,53.211v316.313h0.107v933.595c0,29.387,23.717,53.326,53.104,53.326h890.179
				c29.389,0,53.26-23.939,53.26-53.326v-933.732H3502.892z"/>
		</g>
		<g>
			<path style="fill:#933F37;" d="M2179.76,2572.096c-112.038,0-202.871,90.83-202.871,202.871
				c0,112.047,90.833,202.872,202.871,202.872c112.047,0,202.879-90.825,202.879-202.872
				C2382.639,2662.926,2291.807,2572.096,2179.76,2572.096z"/>
		</g>
		<g>
			<path style="fill:#933F37;" d="M2082.29,3785.651l-7.055-38.646c2.171-0.62,3.541-2.959,3.086-5.451
				c-0.455-2.491-2.564-4.201-4.813-4.012l-0.61-3.344c2.17-0.625,3.541-2.959,3.086-5.452c-0.455-2.491-2.564-4.2-4.814-4.013
				l-140.246-768.325c1.748-0.907,3.145-2.386,4.03-4.21l16.036-2.927l33.14,181.551c-11.256,2.235-18.254,15.491-15.645,29.788
				c2.608,14.291,13.839,24.225,25.159,22.335l0.003,0.018l12.314-2.248l-45.131-247.247l-29.345,5.356
				c-1.217-0.835-2.602-1.341-4.047-1.514l-4.656-25.506c-0.144-1.879-0.387-3.771-0.731-5.657
				c-5.778-31.654-37.484-52.376-70.808-46.293c-0.382,0.069-0.76,0.156-1.139,0.235c-32.695,6.57-54.46,36.802-48.749,68.089
				c0.345,1.891,0.795,3.744,1.322,5.567l4.65,25.477c-3.617,1.859-5.754,6.187-4.917,10.772c0.836,4.582,4.366,7.879,8.405,8.338
				l140.246,768.324c-2.171,0.619-3.549,2.965-3.094,5.457s2.57,4.189,4.821,4.008l0.61,3.344c-2.171,0.617-3.549,2.964-3.094,5.456
				c0.455,2.491,2.571,4.194,4.821,4.007l7.054,38.646c0.14,0.897,0.279,1.784,0.442,2.677c7.621,41.749,38.536,88.37,68.792,93.1
				l13.627,24.686l0.599,1.081l5.529-29.299c26.763-14.96,39.292-69.656,31.653-111.508
				C2082.66,3787.419,2082.471,3786.541,2082.29,3785.651z"/>
		</g>
	</g>
</g>
<g>
	<g>
		<path style="fill:#7E8080;" d="M3160.996,1980.467l0.016,291.511c0.004,32.833-26.605,59.449-59.435,59.451l-547.569,0.041
			l-210.941,0.012c-32.832,0.003-59.448-26.612-59.448-59.44l-0.019-291.517l791.407-0.054L3160.996,1980.467z"/>
		<path style="fill:#7E8080;" d="M2343.023,1769.947l758.512-12.719c22.146-0.001,41.465,12.109,51.695,30.072
			c4.931,8.664,7.75,18.686,7.75,29.367l0.01,52.664l0.006,111.135l-877.396,0.058l-0.011-111.135l-0.002-39.992
			C2283.583,1796.564,2310.195,1769.949,2343.023,1769.947z"/>
	</g>
	<g>
		<path style="fill:#1F9BA5;" d="M3064.539,1968.239l85.988-0.004l0.019,291.512c0.005,32.828-26.605,59.449-59.433,59.449
			l-547.574,0.038C2833.398,2242.768,2985.449,2093.343,3064.539,1968.239z"/>
		<path style="fill:#25A2B5;" d="M2273.15,2259.808l-0.016-291.515l791.404-0.053c-79.09,125.104-231.141,274.528-521,350.995
			l-210.938,0.015C2299.767,2319.253,2273.154,2292.64,2273.15,2259.808z"/>
		<path style="fill:#1F9BA5;" d="M3150.519,1817.103l0.002,39.996l-29.67,0.001c11.106-28.58,17.892-52.483,21.913-69.367
			C3147.693,1796.396,3150.519,1806.421,3150.519,1817.103z"/>
		<path style="fill:#25A2B5;" d="M2273.121,1817.163c-0.003-32.832,26.613-59.446,59.438-59.449l758.512-0.05
			c22.147-0.005,41.467,12.107,51.693,30.068c-4.021,16.884-10.807,40.787-21.913,69.367l-847.729,0.057V1817.163z"/>
	</g>
	<g>
		<rect x="2273.128" y="1857.127" style="fill:#252C25;" width="877.396" height="111.136"/>
		<rect x="2665.042" y="2015.048" style="fill:#EFF8F8;" width="462.098" height="64.343"/>
		<rect x="2303.098" y="2015.079" style="fill:#EFF8F8;" width="298.326" height="64.342"/>
		<rect x="2563.897" y="2187.056" style="fill:#7E8080;" width="158.523" height="52.839"/>
		<rect x="2411.981" y="2187.067" style="fill:#7E8080;" width="85.869" height="52.842"/>
	</g>
</g>
<g>
	<g>
		<path style="fill:#CAD7E0;" d="M2491.396,2924.525v933.732c0,29.387,23.717,53.326,53.104,53.326h890.179
			c29.389,0,53.26-23.939,53.26-53.326v-933.732H2491.396z"/>
		<path style="fill:#6D7A8A;" d="M3487.892,2608.35c0-29.388-23.824-53.211-53.213-53.211H2544.5
			c-29.388,0-53.212,23.823-53.212,53.211v316.313h996.604V2608.35z"/>
	</g>
	<path style="fill:#EAECD6;" d="M3427.762,2831.165c0,23.8-19.292,43.092-43.092,43.092h-791.236
		c-23.799,0-43.092-19.292-43.092-43.092v-165.43c0-23.799,19.293-43.092,43.092-43.092h791.236c23.8,0,43.092,19.293,43.092,43.092
		V2831.165z"/>
	<g>
		<g>
			<path style="fill:#DCDDCA;" d="M2649.13,2731.539l-21.662,13.477v-66.84l10.747-11.589l10.915,11.589V2731.539z
				 M2649.13,2817.783l-10.915,11.589l-10.747-11.589v-66.839l21.662,11.589V2817.783z M2725.717,2747.954l-20.063,10.734
				l-52.941,0.08l-20.215-10.814l20.756-12.911h51.709L2725.717,2747.954z M2716.641,2663.084l-11.083,11.319h-52.732
				l-11.084-11.319l11.084-11.859h52.732L2716.641,2663.084z M2716.641,2833.146l-11.083,11.858h-52.732l-11.084-11.858
				l11.084-11.319h52.732L2716.641,2833.146z M2730.747,2745.016l-21.663-13.477v-53.363l10.747-11.589l10.916,11.589V2745.016z
				 M2730.747,2817.783l-10.916,11.589l-10.747-11.589v-55.25l21.663-11.589V2817.783z"/>
			<path style="fill:#DCDDCA;" d="M2773.906,2731.539l-21.664,13.477v-66.84l10.747-11.589l10.917,11.589V2731.539z
				 M2773.906,2817.783l-10.917,11.589l-10.747-11.589v-66.839l21.664,11.589V2817.783z M2850.492,2747.954l-20.063,10.734
				l-52.942,0.08l-20.215-10.814l20.756-12.911h51.708L2850.492,2747.954z M2841.416,2663.084l-11.085,11.319h-52.73l-11.084-11.319
				l11.084-11.859h52.73L2841.416,2663.084z M2841.416,2833.146l-11.085,11.858h-52.73l-11.084-11.858l11.084-11.319h52.73
				L2841.416,2833.146z M2855.522,2745.016l-21.664-13.477v-53.363l10.748-11.589l10.916,11.589V2745.016z M2855.522,2817.783
				l-10.916,11.589l-10.748-11.589v-55.25l21.664-11.589V2817.783z"/>
			<path style="fill:#DCDDCA;" d="M2898.681,2731.539l-21.663,13.477v-66.84l10.748-11.589l10.915,11.589V2731.539z
				 M2898.681,2817.783l-10.915,11.589l-10.748-11.589v-66.839l21.663,11.589V2817.783z M2975.267,2747.954l-20.063,10.734
				l-52.941,0.08l-20.215-10.814l20.756-12.911h51.708L2975.267,2747.954z M2966.191,2663.084l-11.084,11.319h-52.731
				l-11.084-11.319l11.084-11.859h52.731L2966.191,2663.084z M2966.191,2833.146l-11.084,11.858h-52.731l-11.084-11.858
				l11.084-11.319h52.731L2966.191,2833.146z M2980.298,2745.016l-21.664-13.477v-53.363l10.748-11.589l10.916,11.589V2745.016z
				 M2980.298,2817.783l-10.916,11.589l-10.748-11.589v-55.25l21.664-11.589V2817.783z"/>
			<path style="fill:#DCDDCA;" d="M3023.456,2731.539l-21.664,13.477v-66.84l10.748-11.589l10.916,11.589V2731.539z
				 M3023.456,2817.783l-10.916,11.589l-10.748-11.589v-66.839l21.664,11.589V2817.783z M3100.043,2747.954l-20.063,10.734
				l-52.941,0.08l-20.215-10.814l20.755-12.911h51.708L3100.043,2747.954z M3090.966,2663.084l-11.084,11.319h-52.73l-11.084-11.319
				l11.084-11.859h52.73L3090.966,2663.084z M3090.966,2833.146l-11.084,11.858h-52.73l-11.084-11.858l11.084-11.319h52.73
				L3090.966,2833.146z M3105.072,2745.016l-21.663-13.477v-53.363l10.748-11.589l10.915,11.589V2745.016z M3105.072,2817.783
				l-10.915,11.589l-10.748-11.589v-55.25l21.663-11.589V2817.783z"/>
			<path style="fill:#DCDDCA;" d="M3148.231,2731.539l-21.663,13.477v-66.84l10.747-11.589l10.916,11.589V2731.539z
				 M3148.231,2817.783l-10.916,11.589l-10.747-11.589v-66.839l21.663,11.589V2817.783z M3224.817,2747.954l-20.063,10.734
				l-52.941,0.08l-20.216-10.814l20.757-12.911h51.707L3224.817,2747.954z M3215.741,2663.084l-11.083,11.319h-52.732
				l-11.084-11.319l11.084-11.859h52.732L3215.741,2663.084z M3215.741,2833.146l-11.083,11.858h-52.732l-11.084-11.858
				l11.084-11.319h52.732L3215.741,2833.146z M3229.848,2745.016l-21.664-13.477v-53.363l10.748-11.589l10.916,11.589V2745.016z
				 M3229.848,2817.783l-10.916,11.589l-10.748-11.589v-55.25l21.664-11.589V2817.783z"/>
			<path style="fill:#DCDDCA;" d="M3273.007,2731.539l-21.664,13.477v-66.84l10.748-11.589l10.916,11.589V2731.539z
				 M3273.007,2817.783l-10.916,11.589l-10.748-11.589v-66.839l21.664,11.589V2817.783z M3349.593,2747.954l-20.063,10.734
				l-52.942,0.08l-20.215-10.814l20.756-12.911h51.708L3349.593,2747.954z M3340.517,2663.084l-11.084,11.319h-52.731
				l-11.083-11.319l11.083-11.859h52.731L3340.517,2663.084z M3340.517,2833.146l-11.084,11.858h-52.731l-11.083-11.858
				l11.083-11.319h52.731L3340.517,2833.146z M3354.622,2745.016l-21.662-13.477v-53.363l10.747-11.589l10.915,11.589V2745.016z
				 M3354.622,2817.783l-10.915,11.589l-10.747-11.589v-55.25l21.662-11.589V2817.783z"/>
		</g>
	</g>
	<path style="fill:#7B888E;" d="M2674.875,3121.575c0,4.151-3.084,7.36-7.237,7.36H2530.95c-4.152,0-7.503-3.209-7.503-7.36v-136.69
		c0-4.151,3.351-7.703,7.503-7.703h136.688c4.153,0,7.237,3.552,7.237,7.703V3121.575z"/>
	<path style="fill:#7B888E;" d="M2861.951,3121.575c0,4.151-3.298,7.36-7.451,7.36h-136.688c-4.152,0-7.941-3.209-7.941-7.36
		v-136.69c0-4.151,3.789-7.703,7.941-7.703H2854.5c4.153,0,7.451,3.552,7.451,7.703V3121.575z"/>
	<path style="fill:#7B888E;" d="M3048.701,3121.736c0,4.151-3.112,7.199-7.265,7.199h-136.833c-4.152,0-7.657-3.048-7.657-7.199
		v-136.834c0-4.151,3.505-7.721,7.657-7.721h136.833c4.152,0,7.265,3.569,7.265,7.721V3121.736z"/>
	<path style="fill:#7B888E;" d="M3235.778,3121.575c0,4.151-3.403,7.36-7.556,7.36h-136.688c-4.152,0-7.511-3.209-7.511-7.36
		v-136.69c0-4.151,3.358-7.703,7.511-7.703h136.688c4.152,0,7.556,3.552,7.556,7.703V3121.575z"/>
	<path style="fill:#7B888E;" d="M3422.854,3121.736c0,4.151-3.38,7.199-7.532,7.199h-136.833c-4.151,0-7.717-3.048-7.717-7.199
		v-136.834c0-4.151,3.565-7.721,7.717-7.721h136.833c4.152,0,7.532,3.569,7.532,7.721V3121.736z"/>
	<path style="fill:#7B888E;" d="M2674.875,3306.84c0,4.151-3.084,7.537-7.237,7.537H2530.95c-4.152,0-7.503-3.386-7.503-7.537
		v-136.69c0-4.151,3.351-7.854,7.503-7.854h136.688c4.153,0,7.237,3.702,7.237,7.854V3306.84z"/>
	<path style="fill:#7B888E;" d="M2861.951,3306.84c0,4.151-3.298,7.537-7.451,7.537h-136.688c-4.152,0-7.941-3.386-7.941-7.537
		v-136.69c0-4.151,3.789-7.854,7.941-7.854H2854.5c4.153,0,7.451,3.702,7.451,7.854V3306.84z"/>
	<path style="fill:#7B888E;" d="M3048.701,3306.872c0,4.151-3.112,7.505-7.265,7.505h-136.834c-4.151,0-7.656-3.354-7.656-7.505
		v-136.834c0-4.151,3.505-7.742,7.656-7.742h136.834c4.152,0,7.265,3.591,7.265,7.742V3306.872z"/>
	<path style="fill:#7B888E;" d="M3235.778,3306.872c0,4.151-3.247,7.505-7.398,7.505h-136.833c-4.152,0-7.523-3.354-7.523-7.505
		v-136.834c0-4.151,3.371-7.742,7.523-7.742h136.833c4.151,0,7.398,3.591,7.398,7.742V3306.872z"/>
	<path style="fill:#7B888E;" d="M3422.854,3306.872c0,4.151-3.38,7.505-7.532,7.505h-136.833c-4.151,0-7.717-3.354-7.717-7.505
		v-136.834c0-4.151,3.565-7.742,7.717-7.742h136.833c4.152,0,7.532,3.591,7.532,7.742V3306.872z"/>
	<path style="fill:#7B888E;" d="M2674.875,3491.305c0,4.152-3.084,7.206-7.237,7.206H2530.95c-4.152,0-7.503-3.054-7.503-7.206
		v-136.689c0-4.151,3.351-7.859,7.503-7.859h136.688c4.153,0,7.237,3.708,7.237,7.859V3491.305z"/>
	<path style="fill:#7B888E;" d="M2861.951,3491.305c0,4.152-3.298,7.206-7.451,7.206h-136.688c-4.152,0-7.941-3.054-7.941-7.206
		v-136.689c0-4.151,3.789-7.859,7.941-7.859H2854.5c4.153,0,7.451,3.708,7.451,7.859V3491.305z"/>
	<path style="fill:#7B888E;" d="M3048.701,3490.993c0,4.151-3.366,7.518-7.519,7.518h-136.719c-4.151,0-7.518-3.366-7.518-7.518
		v-136.72c0-4.151,3.366-7.518,7.518-7.518h136.719c4.152,0,7.519,3.366,7.519,7.518V3490.993z"/>
	<path style="fill:#7B888E;" d="M3235.778,3490.993c0,4.151-3.366,7.518-7.519,7.518h-136.719c-4.152,0-7.518-3.366-7.518-7.518
		v-136.72c0-4.151,3.365-7.518,7.518-7.518h136.719c4.152,0,7.519,3.366,7.519,7.518V3490.993z"/>
	<path style="fill:#7B888E;" d="M3422.527,3490.993c0,4.151-3.366,7.518-7.518,7.518h-136.719c-4.152,0-7.519-3.366-7.519-7.518
		v-136.72c0-4.151,3.366-7.518,7.519-7.518h136.719c4.151,0,7.518,3.366,7.518,7.518V3490.993z"/>
	<path style="fill:#C1504D;" d="M2675.157,3690.943c0,4.152-3.366,7.518-7.52,7.518H2530.95c-4.152,0-7.519-3.365-7.519-7.518
		v-136.689c0-4.152,3.366-7.518,7.519-7.518h136.688c4.153,0,7.52,3.365,7.52,7.518V3690.943z"/>
	<path style="fill:#7B888E;" d="M2861.951,3690.943c0,4.152-3.298,7.399-7.451,7.399h-136.688c-4.152,0-7.941-3.247-7.941-7.399
		v-136.689c0-4.152,3.789-7.666,7.941-7.666H2854.5c4.153,0,7.451,3.514,7.451,7.666V3690.943z"/>
	<path style="fill:#7B888E;" d="M3048.701,3691.244c0,4.151-3.112,7.426-7.265,7.426h-136.834c-4.151,0-7.656-3.274-7.656-7.426
		V3554.41c0-4.151,3.505-7.822,7.656-7.822h136.834c4.152,0,7.265,3.671,7.265,7.822V3691.244z"/>
	<path style="fill:#7B888E;" d="M3235.778,3691.244c0,4.151-3.247,7.426-7.398,7.426h-136.833c-4.152,0-7.523-3.274-7.523-7.426
		V3554.41c0-4.151,3.371-7.822,7.523-7.822h136.833c4.151,0,7.398,3.671,7.398,7.822V3691.244z"/>
	<path style="fill:#C1504D;" d="M2675.157,3875.248c0,4.152-3.54,7.679-7.691,7.679H2530.95c-4.152,0-7.519-3.526-7.519-7.679
		v-136.514c0-4.154,3.366-7.533,7.519-7.533h136.516c4.151,0,7.691,3.379,7.691,7.533V3875.248z"/>
	<path style="fill:#7B888E;" d="M2861.951,3875.248c0,4.152-3.372,7.555-7.524,7.555h-136.516c-4.152,0-8.041-3.402-8.041-7.555
		v-136.514c0-4.154,3.889-7.686,8.041-7.686h136.516c4.152,0,7.524,3.531,7.524,7.686V3875.248z"/>
	<path style="fill:#7B888E;" d="M3048.701,3875.248c0,4.152-3.161,7.555-7.313,7.555h-136.516c-4.152,0-7.926-3.402-7.926-7.555
		v-136.514c0-4.154,3.773-7.686,7.926-7.686h136.516c4.152,0,7.313,3.531,7.313,7.686V3875.248z"/>
	<path style="fill:#7B888E;" d="M3235.778,3875.248c0,4.152-3.277,7.555-7.43,7.555h-136.515c-4.153,0-7.811-3.402-7.811-7.555
		v-136.514c0-4.154,3.657-7.686,7.811-7.686h136.515c4.152,0,7.43,3.531,7.43,7.686V3875.248z"/>
	<path style="fill:#7B888E;" d="M3422.2,3554.256c0-4.153-2.964-7.668-7.115-7.668h-136.689c-4.152,0-7.623,3.515-7.623,7.668
		v321.152c0,4.152,3.471,7.395,7.623,7.395h136.689c4.151,0,7.115-3.242,7.115-7.395V3554.256z"/>
	<path style="fill:#8E9DA4;" d="M2680.762,3114.388c0,4.152-3.381,7.354-7.533,7.354H2536.54c-4.152,0-7.859-3.201-7.859-7.354
		v-136.689c0-4.151,3.707-7.712,7.859-7.712h136.688c4.152,0,7.533,3.561,7.533,7.712V3114.388z"/>
	<path style="fill:#8E9DA4;" d="M2867.185,3114.388c0,4.152-2.942,7.354-7.095,7.354h-136.688c-4.152,0-7.645-3.201-7.645-7.354
		v-136.689c0-4.151,3.492-7.712,7.645-7.712h136.688c4.152,0,7.095,3.561,7.095,7.712V3114.388z"/>
	<path style="fill:#8E9DA4;" d="M3054.588,3114.505c0,4.151-3.214,7.236-7.366,7.236H2910.39c-4.152,0-7.557-3.085-7.557-7.236
		v-136.834c0-4.151,3.404-7.685,7.557-7.685h136.832c4.152,0,7.366,3.533,7.366,7.685V3114.505z"/>
	<path style="fill:#8E9DA4;" d="M3241.338,3114.388c0,4.152-3.372,7.354-7.525,7.354h-136.688c-4.152,0-7.868-3.201-7.868-7.354
		v-136.689c0-4.151,3.716-7.712,7.868-7.712h136.688c4.153,0,7.525,3.561,7.525,7.712V3114.388z"/>
	<path style="fill:#8E9DA4;" d="M3428.087,3114.505c0,4.151-3.188,7.236-7.34,7.236h-136.834c-4.151,0-7.58-3.085-7.58-7.236
		v-136.834c0-4.151,3.429-7.685,7.58-7.685h136.834c4.151,0,7.34,3.533,7.34,7.685V3114.505z"/>
	<path style="fill:#8E9DA4;" d="M2680.762,3299.652c0,4.151-3.381,7.203-7.533,7.203H2536.54c-4.152,0-7.859-3.052-7.859-7.203
		v-136.69c0-4.151,3.707-7.861,7.859-7.861h136.688c4.152,0,7.533,3.71,7.533,7.861V3299.652z"/>
	<path style="fill:#8E9DA4;" d="M2867.185,3299.652c0,4.151-2.942,7.203-7.095,7.203h-136.688c-4.152,0-7.645-3.052-7.645-7.203
		v-136.69c0-4.151,3.492-7.861,7.645-7.861h136.688c4.152,0,7.095,3.71,7.095,7.861V3299.652z"/>
	<path style="fill:#8E9DA4;" d="M3054.588,3299.338c0,4.151-3.365,7.518-7.517,7.518h-136.721c-4.151,0-7.518-3.366-7.518-7.518
		v-136.72c0-4.151,3.366-7.518,7.518-7.518h136.721c4.151,0,7.517,3.366,7.517,7.518V3299.338z"/>
	<path style="fill:#8E9DA4;" d="M3241.338,3299.652c0,4.151-3.372,7.203-7.524,7.203h-136.689c-4.152,0-7.868-3.052-7.868-7.203
		v-136.69c0-4.151,3.716-7.861,7.868-7.861h136.689c4.152,0,7.524,3.71,7.524,7.861V3299.652z"/>
	<path style="fill:#8E9DA4;" d="M3428.087,3299.652c0,4.151-3.261,7.203-7.412,7.203h-136.689c-4.152,0-7.652-3.052-7.652-7.203
		v-136.69c0-4.151,3.5-7.861,7.652-7.861h136.689c4.151,0,7.412,3.71,7.412,7.861V3299.652z"/>
	<path style="fill:#8E9DA4;" d="M2680.762,3484.118c0,4.151-3.381,7.197-7.533,7.197H2536.54c-4.152,0-7.859-3.046-7.859-7.197
		v-136.69c0-4.15,3.707-7.539,7.859-7.539h136.688c4.152,0,7.533,3.389,7.533,7.539V3484.118z"/>
	<path style="fill:#8E9DA4;" d="M2867.185,3484.118c0,4.151-2.942,7.197-7.095,7.197h-136.688c-4.152,0-7.645-3.046-7.645-7.197
		v-136.69c0-4.15,3.492-7.539,7.645-7.539h136.688c4.152,0,7.095,3.389,7.095,7.539V3484.118z"/>
	<path style="fill:#8E9DA4;" d="M3054.588,3484.281c0,4.15-3.221,7.361-7.372,7.361h-136.72c-4.151,0-7.663-3.211-7.663-7.361
		v-136.721c0-4.151,3.512-7.672,7.663-7.672h136.72c4.151,0,7.372,3.521,7.372,7.672V3484.281z"/>
	<path style="fill:#8E9DA4;" d="M3241.011,3484.281c0,4.15-3.221,7.361-7.373,7.361h-136.719c-4.152,0-7.663-3.211-7.663-7.361
		v-136.721c0-4.151,3.511-7.672,7.663-7.672h136.719c4.152,0,7.373,3.521,7.373,7.672V3484.281z"/>
	<path style="fill:#8E9DA4;" d="M3428.087,3484.281c0,4.15-3.221,7.361-7.372,7.361h-136.719c-4.152,0-7.663-3.211-7.663-7.361
		v-136.721c0-4.151,3.511-7.672,7.663-7.672h136.719c4.151,0,7.372,3.521,7.372,7.672V3484.281z"/>
	<path style="fill:#D85E55;" d="M2680.573,3683.196c0,4.151-3.366,7.518-7.518,7.518H2536.54c-4.152,0-7.519-3.366-7.519-7.518
		v-136.515c0-4.152,3.366-7.52,7.519-7.52h136.516c4.151,0,7.518,3.367,7.518,7.52V3683.196z"/>
	<path style="fill:#8E9DA4;" d="M2867.185,3683.756c0,4.152-2.942,7.392-7.095,7.392h-136.688c-4.152,0-7.645-3.239-7.645-7.392
		v-136.689c0-4.152,3.492-7.674,7.645-7.674h136.688c4.152,0,7.095,3.521,7.095,7.674V3683.756z"/>
	<path style="fill:#8E9DA4;" d="M3054.588,3684.012c0,4.152-3.214,7.463-7.366,7.463h-136.833c-4.152,0-7.556-3.311-7.556-7.463
		V3547.18c0-4.152,3.403-7.787,7.556-7.787h136.833c4.152,0,7.366,3.635,7.366,7.787V3684.012z"/>
	<path style="fill:#8E9DA4;" d="M3241.011,3683.629c0,4.152-3.365,7.519-7.518,7.519h-136.719c-4.152,0-7.519-3.366-7.519-7.519
		V3546.91c0-4.151,3.366-7.518,7.519-7.518h136.719c4.152,0,7.518,3.366,7.518,7.518V3683.629z"/>
	<path style="fill:#D85E55;" d="M2680.573,3868.063c0,4.15-3.366,7.518-7.518,7.518H2536.54c-4.152,0-7.519-3.367-7.519-7.518
		v-136.517c0-4.153,3.366-7.519,7.519-7.519h136.516c4.151,0,7.518,3.365,7.518,7.519V3868.063z"/>
	<path style="fill:#8E9DA4;" d="M2867.185,3868.063c0,4.15-3.016,7.219-7.168,7.219h-136.516c-4.152,0-7.744-3.068-7.744-7.219
		v-136.517c0-4.153,3.592-7.692,7.744-7.692h136.516c4.152,0,7.168,3.539,7.168,7.692V3868.063z"/>
	<path style="fill:#8E9DA4;" d="M3054.261,3868.063c0,4.15-3.131,7.219-7.283,7.219h-136.515c-4.153,0-7.63-3.068-7.63-7.219
		v-136.517c0-4.153,3.477-7.692,7.63-7.692h136.515c4.152,0,7.283,3.539,7.283,7.692V3868.063z"/>
	<path style="fill:#8E9DA4;" d="M3241.338,3868.063c0,4.15-3.247,7.219-7.399,7.219h-136.515c-4.152,0-8.168-3.068-8.168-7.219
		v-136.517c0-4.153,4.016-7.692,8.168-7.692h136.515c4.152,0,7.399,3.539,7.399,7.692V3868.063z"/>
	<path style="fill:#8E9DA4;" d="M3428.087,3547.068c0-4.153-3.261-7.676-7.412-7.676h-136.689c-4.152,0-7.652,3.522-7.652,7.676
		v321.152c0,4.152,3.5,7.061,7.652,7.061h136.689c4.151,0,7.412-2.908,7.412-7.061V3547.068z"/>
	<g>
		<g>
			<path style="fill:#FFFFFF;" d="M2590.607,3045.551c0,14.617-8.86,22.96-20.891,22.96c-12.289,0-20.051-9.378-20.051-22.184
				c0-13.39,8.408-22.832,20.697-22.832C2583.104,3023.495,2590.607,3033.132,2590.607,3045.551z M2558.074,3046.197
				c0,8.86,4.464,15.91,12.096,15.91c7.696,0,12.029-7.114,12.029-16.234c0-8.213-4.074-15.975-12.029-15.975
				C2562.278,3029.898,2558.074,3037.207,2558.074,3046.197z"/>
			<path style="fill:#FFFFFF;" d="M2597.467,3024.206h25.159v6.533h-17.203v12.03h16.039v6.531h-16.039v18.498h-7.956V3024.206z"/>
			<path style="fill:#FFFFFF;" d="M2630.39,3024.206h25.159v6.533h-17.204v12.03h16.04v6.531h-16.04v18.498h-7.955V3024.206z"/>
		</g>
	</g>
	<g>
		<g>
			<path style="fill:#FFFFFF;" d="M2763.69,3050.013c-0.258-5.627-0.581-12.418-0.517-18.303h-0.194
				c-1.423,5.303-3.234,11.188-5.174,16.687l-6.339,18.885h-6.145l-5.82-18.626c-1.683-5.563-3.233-11.514-4.398-16.945h-0.129
				c-0.194,5.69-0.453,12.611-0.776,18.562l-0.97,17.527h-7.438l2.91-43.593h10.479l5.691,17.527
				c1.553,5.11,2.911,10.285,4.01,15.136h0.193c1.164-4.722,2.652-10.09,4.334-15.199l6.015-17.464h10.349l2.522,43.593h-7.761
				L2763.69,3050.013z"/>
			<path style="fill:#FFFFFF;" d="M2780.382,3024.789c2.976-0.518,7.438-0.906,12.03-0.906c6.274,0,10.542,1.035,13.453,3.492
				c2.393,2.006,3.751,5.046,3.751,8.732c0,5.626-3.816,9.443-7.891,10.931v0.193c3.104,1.165,4.98,4.205,6.08,8.408
				c1.357,5.433,2.521,10.478,3.428,12.159h-8.215c-0.646-1.293-1.681-4.851-2.91-10.283c-1.229-5.691-3.299-7.503-7.825-7.632
				h-4.011v17.915h-7.891V3024.789z M2788.272,3044.063h4.722c5.368,0,8.731-2.846,8.731-7.18c0-4.785-3.363-6.984-8.537-6.984
				c-2.523,0-4.14,0.193-4.916,0.387V3044.063z"/>
			<path style="fill:#FFFFFF;" d="M2852.111,3065.795c-2.781,1.034-8.214,2.457-14.035,2.457c-7.373,0-12.935-1.875-17.074-5.821
				c-3.882-3.686-6.145-9.442-6.08-16.04c0-13.776,9.831-22.637,24.255-22.637c5.367,0,9.571,1.1,11.576,2.069l-1.746,6.403
				c-2.393-1.035-5.303-1.875-9.896-1.875c-9.313,0-15.846,5.498-15.846,15.651c0,9.896,6.079,15.782,15.135,15.782
				c2.845,0,4.979-0.389,6.015-0.906v-10.866h-7.697v-6.273h15.394V3065.795z"/>
		</g>
	</g>
	<g>
		<g>
			<path style="fill:#FFFFFF;" d="M2982.332,3050.013c-0.259-5.627-0.583-12.418-0.518-18.303h-0.194
				c-1.423,5.303-3.234,11.188-5.174,16.687l-6.339,18.885h-6.145l-5.82-18.626c-1.682-5.563-3.234-11.514-4.398-16.945h-0.129
				c-0.194,5.69-0.453,12.611-0.776,18.562l-0.97,17.527h-7.438l2.91-43.593h10.479l5.691,17.527
				c1.552,5.11,2.91,10.285,4.01,15.136h0.194c1.164-4.722,2.651-10.09,4.333-15.199l6.016-17.464h10.348l2.522,43.593h-7.761
				L2982.332,3050.013z"/>
			<path style="fill:#FFFFFF;" d="M3013.123,3047.814v5.496h-16.493v-5.496H3013.123z"/>
		</g>
	</g>
	<g>
		<g>
			<path style="fill:#FFFFFF;" d="M3167.949,3050.013c-0.259-5.627-0.583-12.418-0.518-18.303h-0.194
				c-1.424,5.303-3.234,11.188-5.175,16.687l-6.339,18.885h-6.144l-5.821-18.626c-1.682-5.563-3.233-11.514-4.397-16.945h-0.13
				c-0.193,5.69-0.452,12.611-0.775,18.562l-0.971,17.527h-7.438l2.91-43.593h10.478l5.692,17.527
				c1.552,5.11,2.91,10.285,4.01,15.136h0.193c1.165-4.722,2.652-10.09,4.334-15.199l6.015-17.464h10.349l2.522,43.593h-7.761
				L3167.949,3050.013z"/>
			<path style="fill:#FFFFFF;" d="M3201.974,3033.391v14.617h14.034v5.045h-14.034v14.746h-5.305v-14.746h-14.034v-5.045h14.034
				v-14.617H3201.974z"/>
		</g>
	</g>
	<g>
		<g>
			<path style="fill:#FFFFFF;" d="M3326.101,3052.855v-8.212h54.329v8.212H3326.101z M3346.526,3030.324
				c0-4.211,2.738-6.949,6.738-6.949c4.107,0,6.738,2.738,6.738,6.949c0,4.001-2.631,6.844-6.738,6.844
				C3349.265,3037.168,3346.526,3034.325,3346.526,3030.324z M3346.526,3067.281c0-4.213,2.738-6.95,6.738-6.95
				c4.107,0,6.738,2.737,6.738,6.95c0,4.001-2.631,6.843-6.738,6.843C3349.265,3074.124,3346.526,3071.282,3346.526,3067.281z"/>
		</g>
	</g>
	<g>
		
			<rect x="3348.075" y="3199.365" transform="matrix(0.7071 -0.7071 0.7071 0.7071 -1305.2723 3318.5557)" style="fill:#FFFFFF;" width="10.381" height="71.071"/>
		
			<rect x="3317.73" y="3229.71" transform="matrix(0.7071 -0.7071 0.7071 0.7071 -1305.2725 3318.551)" style="fill:#FFFFFF;" width="71.071" height="10.381"/>
	</g>
	<g>
		<g>
			<path style="fill:#FFFFFF;" d="M3369.95,3412.738v9.957h-42.422v-9.957H3369.95z"/>
		</g>
	</g>
	<g>
		<g>
			<path style="fill:#FFFFFF;" d="M3355.023,3678.949v31.608h30.35v10.909h-30.35v31.889h-11.468v-31.889h-30.35v-10.909h30.35
				v-31.608H3355.023z"/>
		</g>
	</g>
	<g>
		<g>
			<path style="fill:#FFFFFF;" d="M2599.909,3221.641c0,11.107-6.487,16.703-13.705,16.703c-7.379,0-13.38-5.676-13.461-15.813
				c0-9.975,5.758-16.542,13.867-16.542C2594.962,3205.989,2599.909,3212.152,2599.909,3221.641z M2580.366,3222.207
				c-0.081,6.082,2.108,10.541,6.082,10.541c3.973,0,5.92-4.215,5.92-10.623c0-5.837-1.623-10.541-5.92-10.541
				C2582.394,3211.584,2580.366,3216.288,2580.366,3222.207z M2586.367,3260.482l30.571-54.493h5.676l-30.571,54.493H2586.367z
				 M2636.237,3243.533c0,11.029-6.406,16.706-13.704,16.706s-13.38-5.677-13.38-15.895c0-9.894,5.758-16.542,13.785-16.542
				C2631.291,3227.803,2636.237,3234.047,2636.237,3243.533z M2616.694,3244.102c-0.081,6.002,2.109,10.542,6.082,10.542
				c4.055,0,5.92-4.216,5.92-10.624c0-5.918-1.622-10.541-5.92-10.541C2618.723,3233.479,2616.694,3238.182,2616.694,3244.102z"/>
		</g>
	</g>
	<g>
		<g>
			<path style="fill:#FFFFFF;" d="M2808.201,3209.053v6.406l-22.301,46.303h-10.542l22.22-44.276v-0.162h-24.813v-8.271H2808.201z"
				/>
		</g>
	</g>
	<g>
		<g>
			<path style="fill:#FFFFFF;" d="M2959.244,3248.219c0-6.567,3.812-11.027,9.893-13.703v-0.244
				c-5.514-2.676-8.027-7.055-8.027-11.676c0-8.597,7.622-14.436,17.597-14.436c11.353,0,16.542,6.813,16.542,13.299
				c0,4.461-2.351,9.082-8.108,11.922v0.242c5.758,2.189,10.055,6.73,10.055,13.299c0,9.406-7.946,15.732-19.218,15.732
				C2965.649,3262.654,2959.244,3255.599,2959.244,3248.219z M2987.058,3247.732c0-5.352-3.973-8.271-9.812-9.893
				c-4.946,1.459-7.784,4.865-7.784,9.244c-0.162,4.461,3.243,8.515,8.839,8.515
				C2983.571,3255.599,2987.058,3252.274,2987.058,3247.732z M2970.597,3222.189c0,4.298,3.568,6.893,8.596,8.271
				c3.568-1.055,6.568-3.974,6.568-7.947c0-3.648-2.189-7.461-7.541-7.461C2973.191,3215.053,2970.597,3218.378,2970.597,3222.189z"
				/>
		</g>
	</g>
	<g>
		<g>
			<path style="fill:#FFFFFF;" d="M3150.567,3254.627c1.541,0.162,3.082,0.08,5.515-0.162c3.893-0.325,7.784-1.703,10.704-4.057
				c3.406-2.757,5.757-6.729,6.73-11.677l-0.162-0.081c-2.676,3.001-6.406,4.704-11.515,4.704c-9.163,0-15.976-6.649-15.976-16.382
				c0-10.055,7.785-18.813,19.057-18.813c12.244,0,18.813,9.65,18.813,22.463c0,11.271-3.729,19.299-9.162,24.489
				c-4.623,4.298-10.948,6.73-18.003,7.218c-2.271,0.242-4.542,0.242-6.001,0.161V3254.627z M3155.757,3226.406
				c0.082,5.434,3.164,9.649,8.678,9.649c4.054,0,6.974-1.864,8.514-4.379c0.325-0.648,0.568-1.46,0.568-2.838
				c0.081-7.136-2.595-13.299-9.082-13.299C3159.407,3215.54,3155.757,3220,3155.757,3226.406z"/>
		</g>
	</g>
	<g>
		<g>
			<path style="fill:#FFFFFF;" d="M2793.929,3439.848v-13.379h-23.841v-6.488l21.489-32.842h11.758v31.787h6.812v7.543h-6.812
				v13.379H2793.929z M2793.929,3418.926v-14.353c0-3.001,0.081-6.082,0.324-9.163h-0.324c-1.622,3.324-3,6-4.622,8.92l-9.65,14.434
				l-0.081,0.162H2793.929z"/>
		</g>
	</g>
	<g>
		<g>
			<path style="fill:#FFFFFF;" d="M2993.465,3395.41h-20.273l-1.54,10.542c1.216-0.163,2.271-0.243,3.812-0.243
				c4.622,0,9.244,1.054,12.812,3.405c3.974,2.514,6.894,6.974,6.894,13.38c0,10.055-8.353,18.246-21.327,18.246
				c-6.082,0-11.191-1.542-13.947-3.082l2.027-7.541c2.27,1.215,6.811,2.756,11.596,2.756c5.838,0,11.434-3.324,11.434-9.649
				c0-6-4.46-9.974-15.002-9.974c-2.919,0-5.108,0.162-7.217,0.486l3.486-26.598h27.247V3395.41z"/>
		</g>
	</g>
	<g>
		<g>
			<path style="fill:#FFFFFF;" d="M3178.626,3394.193c-1.46,0-3.082,0-5.109,0.244c-11.028,1.297-16.38,8.108-17.678,15.406h0.243
				c2.595-3,6.569-5.108,11.84-5.108c9.082,0,16.137,6.487,16.137,17.19c0,10.056-7.379,18.814-18.57,18.814
				c-12.812,0-19.866-9.732-19.866-22.706c0-10.136,3.648-18.407,9.163-23.679c4.865-4.541,11.19-7.137,18.731-7.785
				c2.189-0.242,3.812-0.242,5.028-0.161L3178.626,3394.193z M3173.923,3422.494c0-6.081-3.325-10.461-9.164-10.461
				c-3.73,0-7.055,2.271-8.596,5.434c-0.405,0.811-0.648,1.783-0.648,3.162c0.162,6.975,3.487,12.65,9.893,12.65
				C3170.598,3433.279,3173.923,3428.819,3173.923,3422.494z"/>
		</g>
	</g>
	<g>
		<g>
			<path style="fill:#FFFFFF;" d="M2787.603,3599.147h-0.162l-9.649,4.864l-1.702-7.541l12.812-6.325h8.353v52.71h-9.65V3599.147z"
				/>
		</g>
	</g>
	<g>
		<g>
			<path style="fill:#FFFFFF;" d="M2959.975,3642.855v-6.082l6.243-5.758c12.407-11.515,18.246-17.841,18.327-24.813
				c0-4.704-2.514-8.839-9.407-8.839c-4.621,0-8.595,2.352-11.271,4.379l-2.919-7.056c3.812-3.081,9.569-5.433,16.218-5.433
				c11.678,0,17.354,7.379,17.354,15.975c0,9.244-6.649,16.705-15.813,25.22l-4.622,3.973v0.162h21.651v8.272H2959.975z"/>
		</g>
	</g>
	<g>
		<g>
			<path style="fill:#FFFFFF;" d="M3148.54,3632.557c2.027,1.216,6.975,3.244,12.002,3.244c7.623,0,10.704-4.299,10.623-8.435
				c0-6.244-5.839-8.92-11.92-8.92h-4.623v-7.298h4.46c4.622,0,10.461-2.108,10.461-7.379c0-3.568-2.676-6.568-8.434-6.568
				c-4.298,0-8.595,1.865-10.784,3.324l-2.271-7.217c3.001-2.108,8.84-4.055,15.164-4.055c10.866,0,16.461,6,16.461,12.893
				c0,5.516-3.242,10.057-9.73,12.326v0.162c6.406,1.136,11.597,6.002,11.597,13.137c0,8.92-7.461,15.976-20.517,15.976
				c-6.406,0-11.92-1.784-14.758-3.648L3148.54,3632.557z"/>
		</g>
	</g>
	<g>
		<g>
			<path style="fill:#FFFFFF;" d="M2583.419,3401.047v18.326h17.597v6.324h-17.597v18.489h-6.648v-18.489h-17.598v-6.324h17.598
				v-18.326H2583.419z"/>
			<path style="fill:#FFFFFF;" d="M2604.905,3447.43l19.786-58.789h6.974l-19.786,58.789H2604.905z"/>
			<path style="fill:#FFFFFF;" d="M2654.692,3419.13v6.892h-20.678v-6.892H2654.692z"/>
		</g>
	</g>
	<g>
		<g>
			<path style="fill:#FFFFFF;" d="M2580.717,3610.982c0,12.543-7.604,19.703-17.928,19.703c-10.546,0-17.206-8.049-17.206-19.037
				c0-11.489,7.216-19.594,17.762-19.594C2574.278,3592.055,2580.717,3600.325,2580.717,3610.982z M2552.799,3611.537
				c0,7.604,3.829,13.653,10.379,13.653c6.604,0,10.323-6.104,10.323-13.931c0-7.049-3.496-13.709-10.323-13.709
				C2556.406,3597.551,2552.799,3603.822,2552.799,3611.537z"/>
			<path style="fill:#FFFFFF;" d="M2586.597,3630.074v-37.408h7.771l9.657,16.041c2.498,4.162,4.662,8.491,6.383,12.543h0.111
				c-0.443-4.996-0.61-9.824-0.61-15.541v-13.043h6.327v37.408h-7.049l-9.769-16.428c-2.387-4.107-4.884-8.715-6.716-12.932
				l-0.166,0.055c0.277,4.828,0.333,9.768,0.333,15.93v13.375H2586.597z"/>
			<path style="fill:#FFFFFF;" d="M2620.617,3632.295l13.543-40.24h4.773l-13.543,40.24H2620.617z"/>
			<path style="fill:#FFFFFF;" d="M2669.624,3628.965c-1.609,0.832-5.161,1.665-9.656,1.665c-11.879,0-19.094-7.438-19.094-18.815
				c0-12.32,8.547-19.76,19.98-19.76c4.496,0,7.715,0.944,9.104,1.666l-1.499,5.439c-1.776-0.777-4.219-1.443-7.326-1.443
				c-7.604,0-13.099,4.773-13.099,13.764c0,8.215,4.828,13.488,13.043,13.488c2.775,0,5.661-0.556,7.437-1.387L2669.624,3628.965z"
				/>
		</g>
	</g>
	<g>
		<g>
			<path style="fill:#FFFFFF;" d="M2598.581,3822.256c-2.15,1.112-6.896,2.225-12.902,2.225c-15.87,0-25.511-9.938-25.511-25.14
				c0-16.464,11.42-26.399,26.696-26.399c6.008,0,10.309,1.26,12.162,2.225l-2.002,7.267c-2.373-1.038-5.637-1.929-9.789-1.929
				c-10.159,0-17.501,6.378-17.501,18.393c0,10.975,6.452,18.02,17.427,18.02c3.708,0,7.564-0.741,9.938-1.854L2598.581,3822.256z"
				/>
			<path style="fill:#FFFFFF;" d="M2634.322,3801.566h-18.836v14.684h21.061v7.489h-30.183v-49.982h29.07v7.489h-19.948v12.904
				h18.836V3801.566z"/>
		</g>
	</g>
	<g>
		<g>
			<path style="fill:#FFFFFF;" d="M2809.174,3807.005c0,16.948-6.649,27.571-19.219,27.571c-12.163,0-18.651-11.029-18.731-27.084
				c0-16.383,6.974-27.41,19.299-27.41C2803.255,3780.082,2809.174,3791.435,2809.174,3807.005z M2781.278,3807.492
				c-0.08,12.812,3.486,19.461,9.001,19.461c5.839,0,8.92-7.137,8.92-19.786c0-12.245-2.919-19.462-8.92-19.462
				C2784.928,3787.705,2781.198,3794.273,2781.278,3807.492z"/>
		</g>
	</g>
	<g>
		<g>
			<path style="fill:#FFFFFF;" d="M2971.821,3815.824c0-3.729,2.595-6.404,6.163-6.404c3.649,0,6.163,2.596,6.163,6.404
				c0,3.65-2.433,6.407-6.163,6.407C2974.335,3822.231,2971.821,3819.475,2971.821,3815.824z"/>
		</g>
	</g>
	<g>
		<g>
			<path style="fill:#FFFFFF;" d="M3145.124,3802.809v-6.406h41.843v6.406H3145.124z M3145.124,3819.189v-6.326h41.843v6.326
				H3145.124z"/>
		</g>
	</g>
	<g>
		<g>
			<polygon style="fill:#F3F4E6;" points="2907.141,2622.651 2794.133,2874.158 2867.666,2874.158 2980.675,2622.651 			"/>
			<polygon style="fill:#F3F4E6;" points="3022.693,2622.651 2909.686,2874.158 2949.078,2874.158 3062.086,2622.651 			"/>
		</g>
	</g>
	<path style="fill:#5B6974;" d="M3437.775,2830.369c0,29.144-23.626,52.77-52.77,52.77h-791.237
		c-29.143,0-52.769-23.626-52.769-52.77v-165.172c0-29.143,23.626-52.769,52.769-52.769h791.237c29.144,0,52.77,23.626,52.77,52.769
		V2830.369z M3418.61,2665.008c0-18.453-14.96-33.414-33.415-33.414h-791.616c-18.454,0-33.414,14.961-33.414,33.414v165.551
		c0,18.454,14.96,33.414,33.414,33.414h791.616c18.455,0,33.415-14.96,33.415-33.414V2665.008z"/>
	<g>
		<g>
			<path style="fill:#5B6974;" d="M3272.064,2731.539l-21.663,13.477v-66.84l10.747-11.589l10.916,11.589V2731.539z
				 M3272.064,2817.783l-10.916,11.589l-10.747-11.589v-66.839l21.663,11.589V2817.783z M3339.575,2663.084l-11.084,11.319h-52.732
				l-11.084-11.319l11.084-11.859h52.732L3339.575,2663.084z M3339.575,2833.146l-11.084,11.858h-52.732l-11.084-11.858
				l11.084-11.319h52.732L3339.575,2833.146z M3353.682,2745.016l-21.664-13.477v-53.363l10.747-11.589l10.917,11.589V2745.016z
				 M3353.682,2817.783l-10.917,11.589l-10.747-11.589v-55.25l21.664-11.589V2817.783z"/>
		</g>
	</g>
</g>
<g>
	<path style="fill:#FAC947;" d="M2367.639,2762.967c0,112.047-90.832,202.872-202.879,202.872
		c-112.038,0-202.871-90.825-202.871-202.872c0-112.041,90.833-202.871,202.871-202.871
		C2276.807,2560.096,2367.639,2650.926,2367.639,2762.967z"/>
	<path style="fill:#DDB250;" d="M2164.768,2941.082c-98.221,0-178.114-79.895-178.114-178.115
		c0-98.206,79.893-178.115,178.114-178.115c98.21,0,178.115,79.909,178.115,178.115
		C2342.883,2861.188,2262.978,2941.082,2164.768,2941.082z M2164.768,2618.403c-79.715,0-144.573,64.856-144.573,144.563
		c0,79.719,64.857,144.571,144.573,144.571c79.72,0,144.563-64.853,144.563-144.571
		C2309.332,2683.26,2244.488,2618.403,2164.768,2618.403z"/>
	<g>
		<path style="fill:#DDB250;" d="M2148.475,2888.366v-29.2c-20.59-0.919-40.571-6.447-52.249-13.207l9.217-35.954
			c12.913,7.063,31.053,13.515,51.022,13.515c17.518,0,29.502-6.759,29.502-19.061c0-11.674-9.833-19.051-32.568-26.736
			c-32.891-11.061-55.33-26.427-55.33-56.248c0-27.038,19.06-48.245,51.947-54.697v-29.201h30.113v27.045
			c20.597,0.922,34.422,5.225,44.564,10.14l-8.908,34.731c-7.99-3.379-22.137-10.447-44.26-10.447
			c-19.979,0-26.429,8.604-26.429,17.216c0,10.138,10.76,16.59,36.882,26.433c36.567,12.903,51.32,29.803,51.32,57.464
			c0,27.354-19.359,50.719-54.707,56.87v31.339H2148.475z"/>
	</g>
</g>
<g>
	<path style="fill:#F5F1E9;" d="M2025.553,3891.443l4.489,24.594l0.599,1.081l5.529-29.299c-2.984,1.67-6.134,2.866-9.463,3.474
		C2026.325,3891.363,2025.936,3891.388,2025.553,3891.443z"/>
	<path style="fill:#F5F1E9;" d="M2016.415,3891.352l13.627,24.686l-4.489-24.594
		C2022.531,3891.871,2019.471,3891.832,2016.415,3891.352z"/>
	<path style="fill:#E0AA3E;" d="M2024.586,3886.15l-17.969-98.444l-58.91,10.753l-0.526-2.884c0.14,0.897,0.279,1.784,0.442,2.677
		c7.621,41.749,38.536,88.37,68.792,93.1l-1.857-3.371L2024.586,3886.15z"/>
	<path style="fill:#FFC43F;" d="M2006.617,3787.706l17.969,98.444l12.319-2.249l-0.736,3.918
		c26.763-14.96,39.292-69.656,31.653-111.508c-0.163-0.893-0.352-1.771-0.533-2.66l0.526,2.884L2006.617,3787.706z"/>
	<path style="fill:#F1B82B;" d="M2024.586,3886.15l0.966,5.293c0.383-0.056,0.772-0.08,1.154-0.15
		c3.33-0.607,6.479-1.804,9.463-3.474l0.736-3.918L2024.586,3886.15z"/>
	<path style="fill:#F1B82B;" d="M2024.586,3886.15l-10.029,1.83l1.857,3.371c3.056,0.48,6.116,0.52,9.138,0.092L2024.586,3886.15z"
		/>
	<path style="fill:#E0AA3E;" d="M1846.283,2909.331l-11.179-61.24c-32.695,6.57-54.46,36.802-48.749,68.089
		c0.345,1.891,0.795,3.744,1.322,5.567l-0.304-1.663L1846.283,2909.331z"/>
	<path style="fill:#FFC43F;" d="M1907.482,2898.16l0.3,1.646c-0.144-1.879-0.387-3.771-0.731-5.657
		c-5.778-31.654-37.484-52.376-70.808-46.293c-0.382,0.069-0.76,0.156-1.139,0.235l11.179,61.24L1907.482,2898.16z"/>
	<path style="fill:#1E303F;" d="M1951.791,3741.607l-13.609,2.484c-0.13,0.023-0.261,0.02-0.393,0.031l0.61,3.344
		c0.127-0.038,0.247-0.092,0.378-0.115l11.753-2.146l46.77-8.537l-0.595-3.26L1951.791,3741.607z"/>
	<path style="fill:#2B445D;" d="M2057.52,3722.309l-13.605,2.483l-47.208,8.617l0.595,3.26l49.061-8.956l11.753-2.145
		c0.135-0.025,0.266-0.018,0.394-0.025l-0.61-3.344C2057.775,3722.234,2057.655,3722.283,2057.52,3722.309z"/>
	<path style="fill:#1E303F;" d="M1947.805,3755.574l-7.285,1.329c-0.13,0.024-0.261,0.02-0.394,0.026l7.054,38.646l0.526,2.884
		l58.91-10.753l-7.573-41.485L1947.805,3755.574z"/>
	<path style="fill:#2B445D;" d="M2059.858,3735.12l-7.284,1.329l-53.53,9.771l7.573,41.485l61.199-11.171l-0.526-2.884
		l-7.055-38.646C2060.114,3735.046,2059.993,3735.096,2059.858,3735.12z"/>
	<path style="fill:#2B445D;" d="M1913.612,2945.238l-29.323,5.353l-29.492,5.384l1.22,6.684l135.197,740.667l3.749,20.536
		l40.489-7.391l20.325-3.711c0.135-0.024,0.266-0.016,0.393-0.025l-140.246-768.325
		C1915.2,2944.783,1914.451,2945.086,1913.612,2945.238z"/>
	<path style="fill:#1E303F;" d="M1787.374,2920.084l0.304,1.663l4.65,25.477c0.726-0.365,1.475-0.674,2.305-0.825l6.737-1.229
		l49.796-9.09l-4.882-26.748L1787.374,2920.084z"/>
	<path style="fill:#2B445D;" d="M1846.283,2909.331l4.882,26.748l52.09-9.508l6.725-1.228c0.838-0.153,1.648-0.129,2.458-0.032
		l-4.656-25.506l-0.3-1.646L1846.283,2909.331z"/>
	<path style="fill:#1E303F;" d="M1827.59,2960.94l-29.326,5.353c-0.83,0.152-1.64,0.129-2.448,0.041l140.246,768.324
		c0.127-0.036,0.247-0.091,0.378-0.115l20.329-3.711l38.194-6.971l-3.749-20.536l-135.197-740.667l-1.22-6.684L1827.59,2960.94z"/>
	<path style="fill:#E0AA3E;" d="M1801.37,2945.169l-6.737,1.229c-0.83,0.151-1.58,0.46-2.305,0.825
		c-3.617,1.859-5.754,6.187-4.917,10.772c0.836,4.582,4.366,7.879,8.405,8.338c0.808,0.088,1.618,0.111,2.448-0.041l29.326-5.353
		l27.207-4.966l-3.631-19.896L1801.37,2945.169z"/>
	<path style="fill:#FFC43F;" d="M1916.485,2926.825c-1.217-0.835-2.602-1.341-4.047-1.514c-0.81-0.097-1.62-0.121-2.458,0.032
		l-6.725,1.228l-52.09,9.508l3.631,19.896l29.492-5.384l29.323-5.353c0.839-0.152,1.588-0.455,2.313-0.829
		c1.748-0.907,3.145-2.386,4.03-4.21l16.036-2.927l33.14,181.551c-11.256,2.235-18.254,15.491-15.645,29.788
		c2.608,14.291,13.839,24.225,25.159,22.335l0.003,0.018l12.314-2.248l-45.131-247.247L1916.485,2926.825z"/>
	<path style="fill:#FFC43F;" d="M2056.17,3712.734c-0.127,0.01-0.258,0.001-0.393,0.025l-20.325,3.711l-40.489,7.391l1.743,9.548
		l47.208-8.617l13.605-2.483c0.135-0.025,0.256-0.074,0.378-0.109c2.17-0.625,3.541-2.959,3.086-5.452
		C2060.529,3714.256,2058.42,3712.547,2056.17,3712.734z"/>
	<path style="fill:#E0AA3E;" d="M1956.769,3730.832l-20.329,3.711c-0.131,0.024-0.25,0.079-0.378,0.115
		c-2.171,0.619-3.549,2.965-3.094,5.457s2.57,4.189,4.821,4.008c0.132-0.012,0.263-0.008,0.393-0.031l13.609-2.484l44.915-8.198
		l-1.743-9.548L1956.769,3730.832z"/>
	<path style="fill:#FFC43F;" d="M2058.508,3725.543c-0.127,0.008-0.258,0-0.394,0.025l-11.753,2.145l-49.061,8.956l1.744,9.552
		l53.53-9.771l7.284-1.329c0.135-0.024,0.256-0.074,0.377-0.114c2.171-0.62,3.541-2.959,3.086-5.451
		C2062.867,3727.063,2060.758,3725.354,2058.508,3725.543z"/>
	<path style="fill:#E0AA3E;" d="M1950.531,3745.206l-11.753,2.146c-0.131,0.023-0.25,0.077-0.378,0.115
		c-2.171,0.617-3.549,2.964-3.094,5.456c0.455,2.491,2.571,4.194,4.821,4.007c0.133-0.007,0.263-0.002,0.394-0.026l7.285-1.329
		l51.239-9.354l-1.744-9.552L1950.531,3745.206z"/>
</g>
</svg>
