<?xml version="1.0" encoding="utf-8"?>
<!-- Generator: Adobe Illustrator 27.5.0, SVG Export Plug-In . SVG Version: 6.00 Build 0)  -->
<svg version="1.1" xmlns="http://www.w3.org/2000/svg" xmlns:xlink="http://www.w3.org/1999/xlink" x="0px" y="0px"
	 viewBox="0 0 500 500" style="enable-background:new 0 0 500 500;" xml:space="preserve">
<g id="BACKGROUND">
	<rect id="XMLID_37_" style="fill:none;" width="500" height="500"/>
</g>
<g id="OBJECTS">
	<g id="XMLID_31_">
		<ellipse id="XMLID_89_" style="fill:#EFEFEF;" cx="320.547" cy="418.399" rx="144.671" ry="21.693"/>
		<ellipse id="XMLID_30_" style="fill:#EFEFEF;" cx="105.68" cy="420.89" rx="70.898" ry="19.203"/>
	</g>
	<path id="XMLID_431_" style="fill:#F7B48A;" d="M196.931,200.327c0,0,3.449-10.806,6.322-13.961
		c2.525-2.773,2.543,6.169,2.543,6.31c0,0.141-4.851,10.36-4.851,10.36L196.931,200.327z"/>
	<g id="XMLID_372_">
		<path id="XMLID_430_" style="fill:#7A471A;" d="M448.755,113.441c0,0,3.767,0.753,6.028,6.781
			c2.26,6.028-6.294,268.905-10.815,289.249l-5.761,4.609c0,0-8.288-217.756-4.521-249.402
			C437.452,133.031,448.755,113.441,448.755,113.441z"/>
		<path id="XMLID_429_" style="fill:#AD5D22;" d="M208.394,414.08l-9.042-296.872c0,0,179.329-14.316,249.402-3.767
			c0,0-8.288,300.639-10.549,300.639C435.945,414.08,286.003,423.122,208.394,414.08z"/>
		<path id="XMLID_428_" style="fill:#A55621;" d="M428.411,138.306c0,0,10.635,105.287-7.448,243.172
			c0,0-102.301,13.766-213.535,0.873L428.411,138.306z"/>
		<path id="XMLID_425_" style="fill:#F7F6E2;" d="M221.203,138.306h207.207c0,0,1.97,188.674-16.058,240.308
			c0,0-156.811,7.745-210.119-2.239C202.233,376.375,215.175,340.992,221.203,138.306z"/>
		<path id="XMLID_422_" style="fill:#BABDCC;" d="M385.462,145.087c-48.976,6.781-130.729,0.984-130.729,0.984
			c-10.172-18.69-3.202-35.267-3.202-35.267c11.34-4.597,24.865-7.723,39.746-7.912c-4.428-12.361-7.102-35.233,3.014-38.428
			c14.316-4.521,61.785-10.549,64.046,9.042c1.184,10.261-1.56,19.659-4.441,26.288c23.046,1.954,35.899,7.053,35.899,7.053
			C394.316,121.918,385.462,145.087,385.462,145.087z M304.845,74.637c0,0-0.947,18.837,4.464,22.368c0,0,15.876,3.136,28.118-0.517
			c0,0,4.908-10.106,4.199-22.879C341.626,73.609,327.821,67.855,304.845,74.637z"/>
		<g id="XMLID_418_">
			<path id="XMLID_419_" style="fill:#939AAA;" d="M395.609,237.46h-25.242c-0.888,0-1.625-0.685-1.691-1.571l-1.883-25.571
				c-0.034-0.458,0.12-0.91,0.425-1.252c0.305-0.343,0.736-0.548,1.194-0.567l31.129-1.32c0.503-0.026,0.994,0.184,1.332,0.561
				c0.338,0.375,0.491,0.883,0.417,1.383l-4.003,26.891C397.161,236.845,396.448,237.46,395.609,237.46z M371.942,234.069h22.205
				l3.486-23.416l-27.33,1.159L371.942,234.069z"/>
		</g>
		<g id="XMLID_414_">
			<path id="XMLID_415_" style="fill:#939AAA;" d="M397.362,289.76H372.12c-0.888,0-1.625-0.686-1.691-1.571l-1.884-25.571
				c-0.034-0.458,0.12-0.91,0.425-1.252c0.305-0.343,0.736-0.547,1.194-0.567l31.128-1.32c0.502-0.014,0.994,0.183,1.332,0.561
				c0.338,0.375,0.491,0.883,0.417,1.383l-4.003,26.891C398.915,289.145,398.202,289.76,397.362,289.76z M373.695,286.369H395.9
				l3.486-23.416l-27.33,1.159L373.695,286.369z"/>
		</g>
		<g id="XMLID_410_">
			<path id="XMLID_411_" style="fill:#939AAA;" d="M390.591,338.262h-25.242c-0.888,0-1.625-0.685-1.691-1.571l-1.884-25.571
				c-0.034-0.458,0.12-0.909,0.425-1.252c0.305-0.343,0.736-0.548,1.194-0.567l31.129-1.32c0.505-0.023,0.994,0.184,1.332,0.561
				c0.338,0.375,0.491,0.883,0.417,1.383l-4.003,26.891C392.144,337.647,391.431,338.262,390.591,338.262z M366.924,334.871h22.205
				l3.486-23.416l-27.33,1.159L366.924,334.871z"/>
		</g>
		<polygon id="XMLID_407_" style="fill:#939AAA;" points="230.593,213.596 346.304,213.708 346.304,220.82 230.593,218.412 		"/>
		<polygon id="XMLID_404_" style="fill:#939AAA;" points="230.593,225.267 346.304,226.847 346.304,231.368 230.593,230.388 		"/>
		<polygon id="XMLID_401_" style="fill:#939AAA;" points="230.593,263.72 346.304,263.832 346.304,270.944 230.593,268.536 		"/>
		<polygon id="XMLID_398_" style="fill:#939AAA;" points="230.593,275.391 346.304,276.971 346.304,281.492 230.593,280.512 		"/>
		<polygon id="XMLID_395_" style="fill:#939AAA;" points="224.565,314.277 340.276,314.39 340.276,321.502 224.565,319.094 		"/>
		<polygon id="XMLID_392_" style="fill:#939AAA;" points="224.565,325.948 340.276,327.529 340.276,332.049 224.565,331.069 		"/>
		<polygon id="XMLID_389_" style="fill:#939AAA;" points="241.745,163.143 244.759,181.093 382.646,179.21 388.962,163.143 		"/>
		<polygon id="XMLID_386_" style="fill:#939AAA;" points="257.192,184.685 380.17,184.685 378.413,190.899 257.192,188.522 		"/>
		<path id="XMLID_383_" style="fill:#C22F37;" d="M406.903,196.994c-6.385,7.782-12.77,15.564-19.155,23.345
			c-1.929,2.352-2.543,5.216-5.686,3.2c-1.83-1.174-3.482-2.848-5.16-4.221c-4.013-3.283-8.027-6.565-12.04-9.848
			c-1.676-1.37-4.088,1.015-2.397,2.398c5.16,4.221,10.32,8.441,15.48,12.662c2.006,1.641,4.473,4.795,7.348,3.585
			c1.72-0.724,3.057-3.189,4.144-4.513c2.128-2.594,4.257-5.188,6.385-7.782c4.493-5.476,8.986-10.952,13.479-16.428
			C410.674,197.718,408.288,195.306,406.903,196.994z"/>
		<path id="XMLID_380_" style="fill:#C22F37;" d="M406.903,247.545c-6.385,7.782-12.77,15.563-19.155,23.345
			c-1.929,2.352-2.543,5.216-5.686,3.2c-1.83-1.174-3.482-2.848-5.16-4.22c-4.013-3.283-8.027-6.565-12.04-9.848
			c-1.676-1.37-4.088,1.015-2.397,2.398c5.16,4.22,10.32,8.441,15.48,12.662c2.006,1.641,4.473,4.796,7.348,3.585
			c1.72-0.724,3.057-3.189,4.144-4.513c2.128-2.594,4.257-5.188,6.385-7.782c4.493-5.476,8.986-10.952,13.479-16.428
			C410.674,248.269,408.288,245.857,406.903,247.545z"/>
		<path id="XMLID_377_" style="fill:#C22F37;" d="M400.132,300.154c-6.385,7.782-12.77,15.564-19.155,23.345
			c-1.929,2.351-2.543,5.216-5.685,3.2c-1.831-1.174-3.482-2.848-5.16-4.221c-4.013-3.283-8.027-6.565-12.04-9.848
			c-1.676-1.37-4.088,1.015-2.398,2.398c5.16,4.22,10.32,8.441,15.48,12.662c2.006,1.641,4.473,4.795,7.348,3.585
			c1.72-0.724,3.057-3.189,4.144-4.513c2.128-2.594,4.257-5.188,6.385-7.782c4.493-5.476,8.986-10.952,13.479-16.428
			C403.903,300.878,401.517,298.465,400.132,300.154z"/>
		<path id="XMLID_376_" style="fill:#ACB0C1;" d="M385.466,145.091c-48.984,6.781-130.733,0.983-130.733,0.983
			c-0.475-0.882-0.915-1.752-1.311-2.622c21.203,0.848,115.52,3.696,121.872-12.681c3.617-9.324,3.571-19.519,2.645-27.329
			c7.742,1.774,11.856,3.402,11.856,3.402C394.316,121.921,385.466,145.091,385.466,145.091z"/>
		<path id="XMLID_375_" style="fill:#D1D5E0;" d="M304.347,108.571c-6.538-3.053-15.929-0.255-22.881,0.403
			c-7.805,0.738-16.57,1.384-23.233,5.894c-2.978,2.016-2.195,7.613,1.985,7.33c8.398-0.568,16.814-2.336,25.202-3.27
			c6.658-0.741,15.612-0.743,19.897-6.661C306.119,111.159,305.578,109.146,304.347,108.571z"/>
		<path id="XMLID_374_" style="fill:#D1D5E0;" d="M300.921,70.756c-0.039-0.074-0.077-0.148-0.116-0.222
			c-0.863-1.651-2.834-1.793-4.349-1.14c-3.846,1.657-4.477,7.617-4.73,11.237c-0.314,4.486,0.33,9.261,4.368,11.896
			c1.137,0.742,3.201,0.337,3.769-0.988c1.652-3.85,0.621-7.518,0.625-11.551c0.002-1.878,0.132-3.813,0.366-5.672
			C301.011,73.052,301.555,71.97,300.921,70.756z"/>
		<path id="XMLID_373_" style="fill:#ACB0C1;" d="M339.5,98.254c-4.973,6.194-29.092-0.927-30.154-1.243
			c0.859,0.158,16.185,3.029,28.086-0.52c0,0,4.905-10.104,4.193-22.887C341.625,73.604,344.586,91.925,339.5,98.254z"/>
	</g>
	<g id="XMLID_32_">
		<g id="XMLID_95_">
			<path id="XMLID_371_" style="fill:#3A2F67;" d="M140.274,263.366c0,0,2.808,40.746,4.298,73.691
				c0.797,17.618-6.166,69.527-6.166,69.527h-11.869c0,0,1.604-47.793,0.814-63.724c-0.613-12.379-7.912-45.585-7.912-45.585
				l-6.152,1.966L84.214,404.214l-12.867-1.41l20.822-134.308L140.274,263.366z"/>
			<path id="XMLID_370_" style="fill:#FFFFFF;" d="M95.081,273.582l43.325-2.072c0,0-5.794-30.057-6.853-30.663
				c-1.059-0.606-20.85,0-20.85,0L95.081,273.582z"/>
			<path id="XMLID_367_" style="fill:#1E0B0E;" d="M112.101,118.469c0,0-23.908-0.874-26.061,15.857
				c-2.637,20.488,10.455,32.21,17.902,32.21c17.689,0,4.059-28.327,4.059-28.327L112.101,118.469z"/>
			<path id="XMLID_366_" style="fill:#1E0B0E;" d="M105.426,167.435c0,0-2.245,0.122-4.411,1.521c0,0,0.857-4.723,3.725-4.629
				C104.74,164.327,106.89,165.079,105.426,167.435z"/>
			<polygon id="XMLID_363_" style="fill:#240E10;" points="91.018,276.386 139.406,275.863 138.877,270.777 91.832,271.625 			"/>
			<path id="XMLID_360_" style="fill:#3A2F67;" d="M141.978,181.327c8.973,3.021,12.812,31.779,24.184,35.124
				c5.586,1.643,30.77-16.124,30.77-16.124l3.449,9.178c0,0-19.402,24.707-34.095,24.707c-17.707,0-29.294-26.025-29.294-26.025
				S136.834,186.722,141.978,181.327z"/>
			<path id="XMLID_357_" style="fill:#F7B48A;" d="M103.935,165.575l0.083,12.562l-3.174,0.291c0,0-3.484,10.664,0.681,14.834
				c4.165,4.17,19.15,11.302,19.15,11.302l5.863-14.975l-5.244-11.915h-4.01l0.222-11.104
				C117.505,166.569,105.556,157.791,103.935,165.575z"/>
			<path id="XMLID_538_" style="fill:#E2A17D;" d="M117.509,166.572l-0.068,3.413c-3.522,1.381-11.207,1.415-13.495-1.978
				l-0.011-2.43C105.551,157.79,117.509,166.572,117.509,166.572z"/>
			<path id="XMLID_354_" style="fill:#3A2F67;" d="M142.996,276.502h-10.552l-7.035-21.169l-7.488,21.782H86.275l1.121-38.993
				l-9.88-55.01c0,0,21.333-5.438,23.328-4.683c3.508,1.327,5.726,7.741,13.687,6.149c7.961-1.592,6.763-6.904,6.763-6.904
				l21.018,3.713L142.996,276.502z"/>
			<path id="XMLID_351_" style="fill:#3A2F67;" d="M77.516,183.111c0,0-31.453,25.261-31.444,43.614
				c0.005,10.352,15.172,0.369,15.172,0.369c3.199-6.583,22.97-18.076,22.97-18.076S81.163,188.581,77.516,183.111z"/>
			<path id="XMLID_348_" style="fill:#F7B48A;" d="M121.852,127.693c7.209,5.394,7.245,8.849,6.138,17.575
				c-0.197,1.551,1.041,5.208,1.092,6.975c0.365,12.555-10.831,16.7-15.337,16.676c-6.171-0.033-15.499-4.096-17.237-13.875
				c0,0-2.965,2.642-5.939-2.486c-3.266-5.631,1.969-11.61,6.02-6.176c0,0-3.81-12.482,6.965-18.692
				C114.327,121.478,121.852,127.693,121.852,127.693z"/>
			<path id="XMLID_347_" style="fill:#E2A17D;" d="M92.135,146.852c0,0,2.049-0.918,2.755,1.06c0.706,1.978,0.918,4.662-0.848,4.662
				c-1.06,0-2.444-1.604-1.907-2.802c0.537-1.2,1.978-0.381,1.978-0.381S94.395,146.64,92.135,146.852z"/>
			<g id="XMLID_316_">
				<path id="XMLID_318_" style="fill:#1E0B0E;" d="M121.626,146.38c0,0,1.759-4.172,5.902-0.853
					C127.528,145.527,124.226,145.003,121.626,146.38z"/>
				<path id="XMLID_317_" style="fill:#1E0B0E;" d="M123.679,145.282c0,0-1.217,1.452-0.282,2.441
					c0.935,0.989,2.436,0.353,2.666-0.622c0.178-0.756-0.253-1.693-0.474-1.78C125.367,145.233,123.679,145.282,123.679,145.282z"/>
			</g>
			<path id="XMLID_313_" style="fill:#F4A68C;" d="M104.678,151.027c-0.961,0.183-1.445,1.409-1.535,2.261
				c-0.015,0.143,0.203,0.235,0.294,0.122c0.315-0.395,0.557-0.758,0.821-1.192c0.223-0.367,0.455-0.706,0.482-1.144
				C104.742,151.04,104.707,151.021,104.678,151.027z"/>
			<path id="XMLID_310_" style="fill:#F4A68C;" d="M106.345,151.973c-0.056-0.106-0.208-0.143-0.308-0.081
				c-0.499,0.309-0.73,1.397-0.551,1.936c0.052,0.157,0.232,0.201,0.354,0.093c0.292-0.255,0.382-0.627,0.481-0.995
				C106.422,152.549,106.528,152.322,106.345,151.973z"/>
			<path id="XMLID_307_" style="fill:#F4A68C;" d="M108.659,152.079c-0.047-0.262-0.425-0.224-0.494,0
				c-0.17,0.554-0.235,1.268-0.071,1.826c0.049,0.167,0.332,0.242,0.412,0.054C108.746,153.392,108.767,152.682,108.659,152.079z"/>
			<path id="XMLID_304_" style="fill:#F4A68C;" d="M123.988,151.243c-0.276-0.292-0.76,0.084-0.555,0.428
				c0.294,0.495,0.484,1.064,0.852,1.508c0.116,0.141,0.377,0.064,0.413-0.109C124.842,152.381,124.449,151.73,123.988,151.243z"/>
			<path id="XMLID_300_" style="fill:#F4A68C;" d="M126.122,151.344c-0.169-0.458-0.905-0.267-0.741,0.204
				c0.208,0.596,0.389,1.105,0.921,1.475c0.119,0.083,0.311-0.026,0.299-0.172C126.555,152.292,126.314,151.866,126.122,151.344z"/>
			<path id="XMLID_299_" style="fill:#E2A17D;" d="M117.78,143.956c0,0,7.232,9.395,6.033,11.09
				c-1.199,1.695-7.165,3.394-7.165,3.394s5.757-3.691,5.634-4.459C122.159,153.213,117.78,143.956,117.78,143.956z"/>
			<path id="XMLID_297_" style="fill:#EEEDF2;" d="M105.655,192.421c0,0,15.233,34.073,15.374,34.666
				c0.141,0.593,0.807-37.99,0.807-37.99l-7.306-4.521L105.655,192.421z"/>
			<path id="XMLID_293_" style="fill:#240E10;" d="M126.537,406.584c0,0-3.711,9.838-1.411,11.666
				c5.51,4.38,31.929,2.631,34.613-0.173c3.739-3.905-21.333-11.493-21.333-11.493H126.537z"/>
			<path id="XMLID_492_" style="fill:#240E10;" d="M84.214,404.214c0,0,0.931,9.128-0.878,11.761
				c-3.893,5.666-15.992,18.239-21.643,14.848c-4.391-2.635,9.654-28.02,9.654-28.02L84.214,404.214z"/>
			<path id="XMLID_282_" style="fill:#30285B;" d="M99.479,178.496l21.55,48.591l-25.147-22.523l6.74-4.488l-10.13,1.737
				l-8.277-20.346C84.214,181.467,92.438,178.487,99.479,178.496z"/>
			<path id="XMLID_278_" style="fill:#30285B;" d="M121.312,177.073l-0.283,50.014l10.101-26.546l-6.004-1.483l8.124-2.331
				l2.879-16.433C136.129,180.294,128.799,176.539,121.312,177.073z"/>
			<polygon id="XMLID_275_" style="fill:#FFFFFF;" points="103.973,171.367 102.621,172.851 99.479,178.496 103.142,194.642 
				114.53,184.577 			"/>
			<polygon id="XMLID_274_" style="fill:#FFFFFF;" points="114.53,184.577 117.395,172.083 121.312,177.073 124.347,190.652 			"/>
			<polygon id="XMLID_271_" style="fill:#DC2E2F;" points="109.511,189.013 113.745,192.63 117.78,191.923 118.93,187.299 
				114.53,184.577 			"/>
			<polygon id="XMLID_268_" style="fill:#DC2E2F;" points="113.745,192.63 114.816,213.078 121.029,227.087 121.116,211.807 
				117.78,191.923 			"/>
			<path id="XMLID_265_" style="fill:#30285B;" d="M121.836,239.003c-2.953,0-2.958,4.589,0,4.589
				C124.789,243.592,124.794,239.003,121.836,239.003z"/>
			<path id="XMLID_264_" style="fill:#1E0B0E;" d="M120.123,142.043l0.308,1.342l7.558-1.766
				C127.99,141.619,124.124,139.853,120.123,142.043z"/>
			<g id="XMLID_290_">
				<path id="XMLID_497_" style="fill:#1E0B0E;" d="M110.642,146.892c0,0-1.759-4.172-5.902-0.853
					C104.74,146.039,108.041,145.514,110.642,146.892z"/>
				<path id="XMLID_496_" style="fill:#1E0B0E;" d="M108.589,145.794c0,0,1.217,1.452,0.282,2.441
					c-0.935,0.989-2.436,0.353-2.666-0.622c-0.178-0.756,0.253-1.693,0.474-1.78C106.9,145.745,108.589,145.794,108.589,145.794z"/>
			</g>
			<path id="XMLID_287_" style="fill:#1E0B0E;" d="M111.624,142.043l-0.308,1.342l-7.558-1.766
				C103.757,141.619,107.623,139.853,111.624,142.043z"/>
			<path id="XMLID_263_" style="fill:#E2A17D;" d="M119.13,160.886c0,0-5.298,0.87-9.199-1.867c0,0,0.864,2.26,4.286,2.967
				C116.263,162.409,119.13,160.886,119.13,160.886z"/>
			<path id="XMLID_260_" style="fill:#1E0B0E;" d="M96.588,146.38c0,0-0.188-11.378,4.332-12.633
				c4.521-1.255,20.618-3.472,27.658,3.169c0,0,6.389-6.147,2.81-11.987c0,0-0.8,3.984-2.292,5.208c0,0-0.768-11.946-6.534-11.941
				c0,0,0,0,0.481,4.332c0,0-6.396-7.461-19.103-2.585c-8.551,3.281-13.506,11.075-11.926,19.239L96.588,146.38z"/>
			<path id="XMLID_257_" style="fill:#240E10;" d="M117.382,132.161c0,0-2.547-6.052-4.374-3.051c-1.827,3,0.816,6.962,0.816,6.962
				S113.405,129.947,117.382,132.161z"/>
			<g id="XMLID_276_">
				<path id="XMLID_301_" style="fill:#F27ABA;" d="M84.205,141.939c0,0-3.398-17.897-7.257-24.682c0,0-16.844-3.63-32.104,7.969
					c0,0,0.629,20.072,3.359,25.203C50.933,155.561,84.205,141.939,84.205,141.939z"/>
				<polygon id="XMLID_298_" style="fill:#FFD390;" points="115.039,426.553 123.583,365.974 88.068,168.918 52.832,176.472 
					86.42,372.859 				"/>
				<polygon id="XMLID_295_" style="fill:#F4BE20;" points="123.583,365.974 116.779,376.294 109.863,367.187 76.839,170.265 
					88.068,168.918 				"/>
				<polygon id="XMLID_292_" style="fill:#F26F00;" points="86.42,372.859 95.398,376.375 99.574,369.458 63.684,173.666 
					52.832,176.472 				"/>
				<polygon id="XMLID_289_" style="fill:#F2931D;" points="109.863,367.187 105.407,375.733 99.574,369.458 63.684,173.666 
					76.839,170.265 				"/>
				<path id="XMLID_286_" style="fill:#C22F37;" d="M103.509,404.934c6.698-1.779,14.794-1.525,14.794-1.525l-3.268,23.142
					L103.509,404.934z"/>
				<path id="XMLID_283_" style="fill:#90A9D1;" d="M90.949,171.405c0,0-30.341,6.648-40.255,7.655
					c-2.203-7.164-7.281-32.122-4.986-34.21c2.177-1.981,36.544-12.939,39.137-7.396C93.223,155.367,90.949,171.405,90.949,171.405z
					"/>
				<path id="XMLID_280_" style="fill:#728EB7;" d="M48.339,169.553c-0.131-0.643-0.268-1.308-0.405-1.973
					c9.001-3.203,33.315-8.089,42.859-8.969c0.112,0.929,0.19,1.819,0.257,2.665C84.696,162.662,58.299,168.344,48.339,169.553z"/>
				<path id="XMLID_277_" style="fill:#728EB7;" d="M46,156.85c-0.113-0.753-0.22-1.484-0.311-2.196
					c9.916-3.276,33.681-7.985,42.445-8.675c0.275,0.839,0.512,1.665,0.736,2.483C85.544,149.193,57.383,155.319,46,156.85z"/>
			</g>
			<path id="XMLID_202_" style="fill:#3A2F67;" d="M47.321,220.007c-0.799,2.332-1.25,4.591-1.249,6.718
				c0.005,10.352,18.482,20.861,18.482,20.861l4.822-8.913c0,0-9.52-9.924-9.143-16.14C60.801,213.154,47.758,218.73,47.321,220.007
				z"/>
			<path id="XMLID_96_" style="fill:#F7B48A;" d="M73.84,252.796c-5.261,0.334-9.286-5.209-9.286-5.209l4.981-8.583
				c0,0,7.347,0.913,9.775,1.35c2.503,0.451,5.474,1.088,6.764,2.798c1.294,1.715,3.695,5.378,1.682,5.502
				c-1.515,0.093-2.785-3.859-4.901-4.305c-2.116-0.445-3.88-1.197-4.155-0.574c-0.193,0.437,4.368,1.131,5.203,2.843
				c0.963,1.974,3.575,4.155,2.447,4.906c-2.086,1.391-3.449-3.027-5.453-3.82c-1.637-0.648-3.61-2.008-4.06-1.173
				c-0.171,0.317,3.341,1.389,4.552,3.184c1.42,2.106,3.062,3.256,2.237,3.939c-1.093,0.905-2.485-0.261-4.733-2.443
				c-1.972-1.913-3.926-2.097-4.046-1.67c-0.059,0.21,1.388,0.636,2.709,1.628c1.498,1.124,2.915,2.748,2.312,3.387
				c-1.013,1.072-1.911-0.362-3.272-1.049C75.326,252.865,73.84,252.796,73.84,252.796z"/>
		</g>
		<polygon id="XMLID_94_" style="fill:#E2A17D;" points="201.737,195.51 196.931,200.327 200.757,200.063 		"/>
		<path id="XMLID_91_" style="fill:#F7B48A;" d="M200.38,209.505c0,0,2.028,0.87,4.367-2.01c1.224-1.507-0.181-5.997-0.626-7.824
			c-0.159-0.654-0.02-1.339,1.062-2.474c2.92-3.061,2.867-5.508,1.224-6.405c-1.554-0.848-4.263,4.424-5.486,6.063
			c-0.791,1.06-3.991,3.472-3.991,3.472L200.38,209.505z"/>
	</g>
</g>

</svg>
