<?xml version="1.0" encoding="utf-8"?>
<!-- Generator: Adobe Illustrator 27.5.0, SVG Export Plug-In . SVG Version: 6.00 Build 0)  -->
<svg version="1.1" xmlns="http://www.w3.org/2000/svg" xmlns:xlink="http://www.w3.org/1999/xlink" x="0px" y="0px"
	 viewBox="0 0 500 500" style="enable-background:new 0 0 500 500;" xml:space="preserve">
<g id="BACKGROUND">
	<rect style="fill:none;" width="500" height="500"/>
</g>
<g id="OBJECTS">
	<g>
		<ellipse style="opacity:0.2;fill:#61ABBA;" cx="257.267" cy="216.321" rx="182.997" ry="176.357"/>
		<g style="opacity:0.2;">
			<ellipse style="fill:#61ABBA;" cx="88.856" cy="399.293" rx="49.496" ry="8.278"/>
		</g>
		<g style="opacity:0.2;">
			<ellipse style="fill:#61ABBA;" cx="158.856" cy="399.293" rx="49.496" ry="8.278"/>
		</g>
		<g>
			<path style="fill:#4F8B9C;" d="M416.411,240.9l0.001,0l0,0c27.755,42.539,10.635,88.234-38.239,102.063l0,0
				C350.419,300.423,367.537,254.728,416.411,240.9z"/>
			<g>
				
					<rect x="347.529" y="291.78" transform="matrix(0.3522 -0.9359 0.9359 0.3522 -16.4037 560.5649)" style="fill:#FFFFFF;" width="98.464" height="0.706"/>
			</g>
			<g>
				
					<rect x="394.408" y="258.399" transform="matrix(0.9031 -0.4294 0.4294 0.9031 -78.1369 195.792)" style="fill:#FFFFFF;" width="0.706" height="25.259"/>
			</g>
			<g>
				
					<rect x="392.735" y="287.72" transform="matrix(0.865 -0.5018 0.5018 0.865 -89.2521 244.4056)" style="fill:#FFFFFF;" width="33.707" height="0.706"/>
			</g>
			<g>
				
					<rect x="378.811" y="324.003" transform="matrix(0.852 -0.5235 0.5235 0.852 -111.266 255.0616)" style="fill:#FFFFFF;" width="33.501" height="0.706"/>
			</g>
			<g>
				
					<rect x="380.25" y="286.588" transform="matrix(0.9008 -0.4342 0.4342 0.9008 -93.3825 195.2312)" style="fill:#FFFFFF;" width="0.706" height="30.819"/>
			</g>
		</g>
		<g>
			<path style="fill:#61ABBA;" d="M222.404,67.997L222.404,67.997L222.404,67.997c50.3-7.057,84.395,27.853,76.152,77.972l0,0
				C248.257,153.025,214.162,118.116,222.404,67.997z"/>
			<g>
				
					<rect x="260.085" y="58.317" transform="matrix(0.7165 -0.6976 0.6976 0.7165 -1.1838 212.1865)" style="fill:#FFFFFF;" width="0.706" height="98.464"/>
			</g>
			<g>
				
					<rect x="227.853" y="100.043" transform="matrix(1 -0.0052 0.0052 1 -0.523 1.262)" style="fill:#FFFFFF;" width="25.259" height="0.706"/>
			</g>
			<g>
				
					<rect x="261.858" y="77.36" transform="matrix(0.9962 -0.0868 0.0868 0.9962 -7.1874 23.1129)" style="fill:#FFFFFF;" width="0.706" height="33.707"/>
			</g>
			<g>
				
					<rect x="288.746" y="105.574" transform="matrix(0.9937 -0.112 0.112 0.9937 -11.8777 33.1363)" style="fill:#FFFFFF;" width="0.706" height="33.501"/>
			</g>
			<g>
				
					<rect x="247.095" y="126.016" transform="matrix(0.9999 -0.0105 0.0105 0.9999 -1.3106 2.7594)" style="fill:#FFFFFF;" width="30.819" height="0.706"/>
			</g>
		</g>
		<g>
			<path style="fill:#EDC060;" d="M460.639,323.402L460.639,323.402L460.639,323.402c-14.44,40.851-54.274,52.931-88.972,26.981l0,0
				C386.108,309.532,425.942,297.451,460.639,323.402z"/>
			<g>
				
					<rect x="373.744" y="336.336" transform="matrix(0.9574 -0.2888 0.2888 0.9574 -79.4982 134.3918)" style="fill:#FFFFFF;" width="83.994" height="0.602"/>
			</g>
			<g>
				
					<rect x="418.23" y="324.044" transform="matrix(0.4565 -0.8897 0.8897 0.4565 -55.4113 557.9805)" style="fill:#FFFFFF;" width="21.547" height="0.602"/>
			</g>
			<g>
				
					<rect x="424.838" y="328.848" transform="matrix(0.3823 -0.924 0.924 0.3823 -54.5366 604.8677)" style="fill:#FFFFFF;" width="0.602" height="28.753"/>
			</g>
			<g>
				
					<rect x="392.984" y="338.233" transform="matrix(0.3588 -0.9334 0.9334 0.3588 -76.8709 593.1426)" style="fill:#FFFFFF;" width="0.602" height="28.578"/>
			</g>
			<g>
				
					<rect x="387.538" y="330.499" transform="matrix(0.4518 -0.8921 0.8921 0.4518 -75.459 538.8008)" style="fill:#FFFFFF;" width="26.29" height="0.602"/>
			</g>
		</g>
		<g>
			<path style="fill:#467B87;" d="M389.201,121.118H210.442c-4.715,0-8.537,3.822-8.537,8.538v258.012
				c0,4.716,3.822,8.538,8.537,8.538h178.76c4.715,0,8.537-3.822,8.537-8.538V129.656
				C397.738,124.94,393.916,121.118,389.201,121.118z"/>
			<path style="fill:#2B4B60;" d="M389.201,116.104H210.442c-4.715,0-8.537,3.823-8.537,8.538v258.012
				c0,4.716,3.822,8.538,8.537,8.538h178.76c4.715,0,8.537-3.822,8.537-8.538V124.642
				C397.738,119.927,393.916,116.104,389.201,116.104z"/>
			<polyline style="fill:#FFFFFF;" points="217.811,376.969 217.811,131.275 381.838,131.275 381.838,376.969 			"/>
			<rect x="217.811" y="126.336" style="fill:#FFFFFF;" width="164.027" height="245.694"/>
			<path style="fill:#2B4B60;" d="M243.178,126.336c0.104,6.756,5.614,12.526,12.742,12.526h87.801
				c7.129,0,12.639-5.769,12.742-12.526H243.178z"/>
			<path style="fill:#467B87;" d="M353.745,110.083c-0.937-4.052-4.546-6.922-8.705-6.922h-29.286
				c0.001-8.799-7.133-15.933-15.933-15.933c-8.799,0-15.933,7.134-15.933,15.933h-29.286c-4.158,0-7.767,2.869-8.704,6.921
				l-2.395,10.357c-1.847,7.988,4.219,15.616,12.417,15.616h87.801c8.198,0,14.264-7.629,12.418-15.616L353.745,110.083z
				 M301.324,110.676c-5.397,1.026-10.042-3.619-9.017-9.017c0.572-3.014,3.004-5.444,6.018-6.014
				c5.394-1.02,10.034,3.62,9.013,9.013C306.767,107.673,304.338,110.104,301.324,110.676z"/>
			<path style="fill:#61ABBA;" d="M270.745,191.671H230.24v-40.507h40.505V191.671z M237.647,184.264h25.692V158.57h-25.692V184.264
				L237.647,184.264z"/>
			<g>
				<rect x="280.387" y="155.462" style="fill:#61ABBA;" width="45.071" height="7.055"/>
				<rect x="280.387" y="180.323" style="fill:#61ABBA;" width="90.141" height="7.055"/>
			</g>
			<path style="fill:#61ABBA;" d="M270.745,250.733H230.24v-40.508h40.505V250.733z M237.647,243.327h25.692v-25.694h-25.692
				V243.327L237.647,243.327z"/>
			<g>
				<rect x="280.387" y="214.522" style="fill:#61ABBA;" width="45.071" height="7.055"/>
				<rect x="280.387" y="239.385" style="fill:#61ABBA;" width="90.141" height="7.055"/>
			</g>
			<path style="fill:#61ABBA;" d="M270.745,309.795H230.24v-40.507h40.505V309.795z M237.647,302.389h25.692v-25.694h-25.692
				V302.389L237.647,302.389z"/>
			<g>
				<rect x="280.387" y="273.584" style="fill:#61ABBA;" width="45.071" height="7.055"/>
				<rect x="280.387" y="298.435" style="fill:#61ABBA;" width="90.141" height="7.055"/>
			</g>
			<g>
				<polygon style="fill:#EDC060;" points="274.41,147.534 251.469,170.829 244.663,164.827 239.434,170.761 251.84,181.703 
					280.039,153.095 				"/>
			</g>
			<g>
				<polygon style="fill:#EDC060;" points="274.41,207.296 251.469,230.592 244.663,224.589 239.434,230.524 251.84,241.465 
					280.039,212.857 				"/>
			</g>
			<path style="fill:#61ABBA;" d="M270.745,367.763H230.24v-40.507h40.505V367.763z M237.647,360.357h25.692v-25.694h-25.692
				V360.357L237.647,360.357z"/>
			<g>
				<rect x="280.387" y="331.551" style="fill:#61ABBA;" width="45.071" height="7.055"/>
				<rect x="280.387" y="356.403" style="fill:#61ABBA;" width="90.141" height="7.055"/>
			</g>
			<g>
				<polygon style="fill:#EDC060;" points="274.41,267.059 251.469,290.354 244.663,284.352 239.434,290.286 251.84,301.227 
					280.039,272.619 				"/>
			</g>
			<g>
				<polygon style="fill:#EDC060;" points="274.41,326.821 251.469,350.116 244.663,344.114 239.434,350.048 251.84,360.989 
					280.039,332.381 				"/>
			</g>
		</g>
		<g>
			<path style="fill:none;stroke:#2B4B60;stroke-width:17;stroke-linecap:round;stroke-miterlimit:10;" d="M151.232,150.384
				c0.523,0.326,14.648-0.15,21.339-5.387c4.765-3.729,8.094-6.595,12.016-10.773c9.53-10.151,14.295-15.745,19.681-15.331
				c5.982,0.46,13.673,10.566,13.673,10.566"/>
			<path style="fill:#DDACBD;" d="M145.922,386.315l0.339,1.148l0.663-21.149l10.092,1.39l-2.626,18.633
				C153.982,388.335,147.92,386.724,145.922,386.315z"/>
			<path style="fill:#DDACBD;" d="M125.538,393.194l0.339,1.148l0.663-21.149l10.092,1.39l-2.626,18.633
				C133.598,395.213,127.536,393.602,125.538,393.194z"/>
			<g>
				<path style="fill:#467B87;" d="M160.233,380.044l1.201-5.341c3.821-17.273,16.237-74.534,15.515-86.113
					c-1.178-18.819-10.43-57.27-10.822-58.898l-2.794-11.56l-23.12,5.585l2.792,11.56c0.093,0.379,9.157,38.053,10.205,54.796
					c0.188,6.347-7.638,46.221-14.999,79.491l-1.201,5.341L160.233,380.044z"/>
			</g>
			<polygon style="fill:#2B4B60;" points="149.873,314.284 146.91,376.889 137.009,374.906 			"/>
			<line style="fill:none;stroke:#EDC060;stroke-miterlimit:10;" x1="142.137" y1="366.825" x2="158.4" y2="366.825"/>
			<rect x="118.679" y="211.862" style="fill:#467B87;" width="46.298" height="38.084"/>
			<g>
				<path style="fill:#467B87;" d="M143.811,382.507l0.019-11.893c0.005-3.034,0.104-74.438-0.585-85.493
					c-1.089-17.423-1.101-48.987-1.101-49.304v-11.893l-24.764,5.393c0,0,2.694,120.804,2.664,141.263l-0.019,11.893
					L143.811,382.507z"/>
			</g>
			<path style="fill:#2B4B60;" d="M168.788,169.036l5.76-20.858c0,0-17.851-3.284-28.729-4.014
				c-16.175-1.085-34.143,18.553-34.143,18.553l5.093,59.144l0.457,7.253l48.434-0.988l0.455-7.447L168.788,169.036z"/>
			<path style="fill:#DDACBD;" d="M144.455,155.089L144.455,155.089c-4.153,0-7.519-3.367-7.519-7.519v-20.666
				c0-2.616,2.12-4.736,4.736-4.736h5.566c2.616,0,4.736,2.121,4.736,4.736v20.666C151.974,151.722,148.608,155.089,144.455,155.089
				z"/>
			<path style="opacity:0.5;fill:#C58C9A;" d="M136.936,127.906c1.992,5.164,6.333,13.116,15.039,15.075v-20.814h-13.593
				l-1.446,0.635V127.906z"/>
			<path style="fill:none;stroke:#2B4B60;stroke-width:17;stroke-linecap:round;stroke-miterlimit:10;" d="M135.739,155.006
				c0,0-45.795,8.328-50.795,12.328s-28.205,17.672-26.205,34.672"/>
			<path style="fill:#DDACBD;" d="M155.415,99.935h-3.46c-6.879,0-12.455,5.576-12.455,12.455v11.786
				c0,6.956,5.639,12.595,12.595,12.595h6.14c5.322,0,9.636-4.314,9.636-9.636V112.39
				C167.871,105.511,162.294,99.935,155.415,99.935z"/>
			<circle style="fill:#DDACBD;" cx="137.949" cy="121.447" r="6.7"/>
			<path style="fill:none;" d="M139.659,115.574c0.521,2.412,0.857,4.863,1.005,7.326c0.278-0.261,0.795-0.38,1.151-0.243"/>
			<path style="fill:#FFFFFF;" d="M157.303,127.502l-6.98-2.702c0,0,0.676,4.053,2.927,4.728
				C155.502,130.204,157.303,127.502,157.303,127.502z"/>
			<path style="fill:#2B4B60;" d="M152.574,115.794c0,0.746-0.605,1.351-1.351,1.351c-0.746,0-1.351-0.605-1.351-1.351
				s0.605-1.351,1.351-1.351C151.97,114.443,152.574,115.048,152.574,115.794z"/>
			<path style="fill:#2B4B60;" d="M162.031,115.794c0,0.746-0.605,1.351-1.351,1.351s-1.351-0.605-1.351-1.351
				s0.605-1.351,1.351-1.351S162.031,115.048,162.031,115.794z"/>
			<polygon style="fill:#FFFFFF;" points="149.731,145.98 135.594,146.243 136.552,151.87 156.787,168.633 155.83,152.11 			"/>
			<path style="fill:#FFFFFF;" d="M136.926,142.061c0,0,7.567,5.389,15.222,1.111l0.131,2.809l3.267,6.337l-6.337-4.769l-4.834,7.84
				l-8.624-9.212L136.926,142.061z"/>
			<path style="fill:#2B4B60;" d="M141.597,109.892c0.46,1.902,1.375,3.694,2.647,5.181c-0.475,2.29-0.793,4.74-0.925,7.075
				c-0.674,0-1.561-0.124-2.235-0.124c-0.075-2.226-0.487-4.441-1.147-6.568c-1.503-0.289-3.008-0.523-4.538-0.475
				c-0.618-1.983-1.369-3.659-2.299-5.517c-0.555-1.109-0.503-1.917-0.653-3.147c-0.304-2.496,1.633-4.819,3.561-6.432
				c1.929-1.613,4.443-2.509,6.958-2.48c7.262-4.089,16.1-6.227,24.357-5.098c1.205,0.165,2.429,0.396,3.483,1.004
				c1.578,0.909,2.595,2.567,3.194,4.287c1.029,2.954,0.895,6.496-1.096,8.909c-1.437,1.741-4.016,2.095-6.263,1.875
				c-1.415-0.139-2.783-0.568-4.139-0.994c-3.041-0.956-6.082-1.911-9.123-2.867c-0.258-0.081-0.58-0.298-0.459-0.539
				C150.305,107.114,145.663,109.563,141.597,109.892z"/>
			<g>
				<path style="fill:#467B87;" d="M134.579,391.089c0,0-1.769-3.901,0.457-4.258c2.225-0.358,3.418,1.003,3.418,1.003l5.419,6.068
					l2.84,4.413l-4.285-1.944L134.579,391.089z"/>
				<path style="fill:#2B4B60;" d="M125.939,389.221c0,0,1.812,4.332,3.675,3.549c1.055-0.444,2.906-3.983,4.296-3.476
					c1.39,0.507,6.772,4.451,8.809,5.478c2.037,1.027-4.266-6.939-4.266-6.939s5.302,5.433,7.124,6.357
					c1.823,0.924,17.19,4.693,17.592,9.468l-0.209,3.085c0,0-4.968,4.656-16.83,0.826c-11.862-3.83-18.567-4.457-20.707-5.269
					C123.284,401.488,124.241,389.358,125.939,389.221z"/>
				<path style="fill:#DFE2EB;" d="M148.546,405.934c-5.647-0.857-15.067-4.837-18.687-5.198c-2.085-0.208-4.175-0.909-5.575-1.467
					c0.155,1.588,0.514,2.795,1.14,3.033c2.139,0.813,8.845,1.439,20.707,5.269c11.862,3.83,16.83-0.826,16.83-0.826l0.209-3.085
					C161.832,406.126,154.193,406.791,148.546,405.934z"/>
				<g>
					<path style="fill:#EDF0F4;" d="M137.714,394.174c-0.096,0.002-0.194-0.02-0.285-0.069c-0.287-0.152-0.397-0.508-0.245-0.796
						c0.055-0.105,1.376-2.561,3.243-2.954c0.752-0.163,1.504,0.035,2.172,0.564c0.255,0.201,0.299,0.571,0.098,0.826
						c-0.202,0.255-0.572,0.3-0.827,0.097c-0.396-0.311-0.788-0.421-1.2-0.336c-1.106,0.233-2.14,1.779-2.445,2.355
						C138.12,394.057,137.921,394.17,137.714,394.174z"/>
				</g>
				<g>
					<path style="fill:#EDF0F4;" d="M139.549,395.841c-0.096,0.002-0.194-0.021-0.285-0.069c-0.287-0.152-0.397-0.508-0.244-0.796
						c0.055-0.105,1.377-2.561,3.243-2.954c0.75-0.163,1.504,0.035,2.172,0.563c0.255,0.202,0.299,0.571,0.098,0.826
						c-0.201,0.255-0.571,0.299-0.827,0.097c-0.396-0.312-0.788-0.422-1.2-0.336c-1.106,0.233-2.141,1.779-2.446,2.355
						C139.955,395.725,139.757,395.838,139.549,395.841z"/>
				</g>
				<g>
					<path style="fill:#EDF0F4;" d="M141.801,396.97c-0.097,0.002-0.195-0.021-0.286-0.068c-0.287-0.153-0.397-0.508-0.244-0.796
						c0.055-0.104,1.376-2.561,3.243-2.954c0.751-0.158,1.504,0.037,2.173,0.565c0.255,0.201,0.299,0.572,0.097,0.826
						c-0.201,0.255-0.571,0.3-0.827,0.097c-0.395-0.313-0.787-0.421-1.199-0.337c-1.101,0.231-2.139,1.778-2.446,2.355
						C142.207,396.854,142.008,396.967,141.801,396.97z"/>
				</g>
				<g>
					<path style="fill:#EDF0F4;" d="M144.156,397.992c-0.096,0.002-0.194-0.02-0.285-0.069c-0.287-0.152-0.397-0.508-0.245-0.796
						c0.055-0.104,1.376-2.561,3.243-2.954c0.751-0.164,1.504,0.036,2.172,0.564c0.255,0.202,0.299,0.571,0.098,0.826
						c-0.202,0.255-0.572,0.299-0.827,0.097c-0.395-0.31-0.787-0.421-1.2-0.336c-1.106,0.233-2.14,1.779-2.445,2.355
						C144.563,397.876,144.364,397.988,144.156,397.992z"/>
				</g>
			</g>
			<g>
				<path style="fill:#467B87;" d="M155.08,382.75c0,0-1.769-3.901,0.457-4.258c2.225-0.358,3.418,1.003,3.418,1.003l5.419,6.068
					l2.84,4.413l-4.285-1.944L155.08,382.75z"/>
				<path style="fill:#2B4B60;" d="M146.44,380.882c0,0,1.811,4.332,3.675,3.549c1.055-0.444,2.906-3.983,4.296-3.475
					c1.39,0.507,6.772,4.451,8.809,5.477c2.037,1.027-4.266-6.938-4.266-6.938s5.302,5.433,7.124,6.357
					c1.823,0.924,17.19,4.693,17.592,9.468l-0.209,3.085c0,0-4.968,4.656-16.83,0.826s-18.567-4.457-20.707-5.269
					C143.786,393.148,144.742,381.018,146.44,380.882z"/>
				<path style="fill:#DFE2EB;" d="M169.047,397.594c-5.647-0.858-15.067-4.837-18.687-5.198c-2.085-0.208-4.175-0.91-5.575-1.467
					c0.155,1.588,0.515,2.795,1.14,3.032c2.139,0.813,8.845,1.439,20.707,5.269s16.83-0.826,16.83-0.826l0.209-3.085
					C182.333,397.787,174.694,398.452,169.047,397.594z"/>
				<g>
					<path style="fill:#EDF0F4;" d="M158.215,385.834c-0.096,0.002-0.194-0.02-0.285-0.069c-0.287-0.152-0.397-0.508-0.244-0.796
						c0.055-0.104,1.376-2.561,3.243-2.954c0.752-0.163,1.504,0.035,2.172,0.563c0.255,0.202,0.299,0.571,0.098,0.826
						c-0.202,0.255-0.572,0.3-0.827,0.097c-0.396-0.311-0.788-0.421-1.2-0.335c-1.106,0.233-2.14,1.779-2.445,2.355
						C158.622,385.718,158.422,385.831,158.215,385.834z"/>
				</g>
				<g>
					<path style="fill:#EDF0F4;" d="M160.05,387.502c-0.096,0.002-0.194-0.021-0.285-0.069c-0.287-0.152-0.397-0.508-0.244-0.796
						c0.055-0.105,1.377-2.561,3.243-2.954c0.75-0.163,1.504,0.035,2.172,0.564c0.255,0.201,0.299,0.571,0.098,0.826
						c-0.201,0.255-0.571,0.299-0.827,0.097c-0.396-0.312-0.788-0.422-1.2-0.335c-1.106,0.233-2.141,1.779-2.446,2.355
						C160.456,387.386,160.258,387.498,160.05,387.502z"/>
				</g>
				<g>
					<path style="fill:#EDF0F4;" d="M162.302,388.631c-0.096,0.002-0.195-0.021-0.286-0.069c-0.287-0.153-0.397-0.508-0.244-0.796
						c0.055-0.104,1.376-2.561,3.243-2.954c0.751-0.158,1.504,0.037,2.173,0.565c0.255,0.201,0.299,0.572,0.097,0.826
						c-0.201,0.255-0.571,0.3-0.827,0.097c-0.395-0.313-0.787-0.421-1.199-0.337c-1.101,0.231-2.139,1.778-2.446,2.355
						C162.708,388.515,162.509,388.628,162.302,388.631z"/>
				</g>
				<g>
					<path style="fill:#EDF0F4;" d="M164.657,389.653c-0.096,0.002-0.194-0.02-0.285-0.069c-0.287-0.152-0.397-0.508-0.245-0.796
						c0.055-0.105,1.376-2.561,3.243-2.954c0.751-0.164,1.504,0.036,2.172,0.563c0.255,0.202,0.299,0.571,0.098,0.826
						c-0.202,0.255-0.572,0.299-0.827,0.097c-0.395-0.31-0.787-0.421-1.2-0.335c-1.106,0.233-2.14,1.779-2.445,2.355
						C165.064,389.536,164.865,389.649,164.657,389.653z"/>
				</g>
			</g>
			<polygon style="fill:#EDC060;" points="151.975,148.469 148.599,146.001 147.977,146.013 146.188,151.558 150.391,153.66 
				150.635,163.537 156.787,168.633 156.407,162.066 152.111,154.233 			"/>
			<g>
				<path style="fill:#DDACBD;" d="M217.948,137.959c-2.564,0-5.098-1.155-6.77-3.352c-0.007-0.009-1.61-2.09-3.752-4.161
					c-3.376-3.262-3.467-8.643-0.205-12.019c3.261-3.376,8.643-3.468,12.019-0.205c3.055,2.953,5.228,5.777,5.465,6.089
					c2.843,3.736,2.12,9.069-1.616,11.912C221.551,137.393,219.742,137.959,217.948,137.959z"/>
			</g>
			<polygon style="fill:#2B4B60;" points="159.529,249.946 145.648,249.946 151.469,276.212 			"/>
			<line style="fill:none;stroke:#EDC060;stroke-miterlimit:10;" x1="128.793" y1="236.305" x2="122.955" y2="243.394"/>
			<line style="fill:none;stroke:#EDC060;stroke-miterlimit:10;" x1="157.983" y1="235.888" x2="164.238" y2="245.062"/>
			<line style="fill:none;stroke:#EDC060;stroke-miterlimit:10;" x1="122.121" y1="375.999" x2="139.635" y2="375.999"/>
			<g>
				<path style="fill:#DDACBD;" d="M58.728,210.507c-4.251,0-7.923-3.183-8.431-7.509c-0.36-3.064-0.177-6.186,0.545-9.278
					c1.067-4.572,5.64-7.414,10.209-6.345c4.572,1.067,7.413,5.638,6.345,10.21c-0.277,1.187-0.348,2.309-0.216,3.429
					c0.548,4.662-2.787,8.886-7.45,9.434C59.394,210.488,59.059,210.507,58.728,210.507z"/>
			</g>
		</g>
		<g>
			<path style="fill:#EDC060;" d="M70.296,191.969l-0.262-14.408c-0.011-0.583,0.281-1.13,0.771-1.445
				c0.49-0.316,1.109-0.355,1.634-0.103l10.905,5.206c0.575,0.275,0.945,0.85,0.957,1.487l0.164,9.005
				c0.017,0.929-0.722,1.695-1.651,1.712l-10.806,0.197C71.079,193.637,70.313,192.898,70.296,191.969z"/>
			<path style="fill:#EDC060;" d="M77.133,178.254l-4.693-2.241c-0.526-0.251-1.144-0.212-1.634,0.104
				c-0.49,0.315-0.782,0.862-0.771,1.445l0.262,14.408c0.017,0.929,0.783,1.668,1.712,1.651l5.403-0.098L77.133,178.254z"/>
			<path style="fill:#FFFFFF;" d="M59.188,382.398l-2.745-159.722c-0.089-4.879,1.864-9.663,5.606-12.794
				c3.108-2.6,4.853-6.431,4.779-10.473l-0.134-7.375c-0.017-0.929,0.722-1.695,1.651-1.712l18.009-0.328
				c0.929-0.017,1.695,0.722,1.712,1.651l0.136,7.442c0.073,4.014,2.052,7.672,5.151,10.226c3.774,3.11,5.985,7.683,6.074,12.581
				l2.745,159.722c0.204,11.199-8.71,20.444-19.909,20.648l-2.427,0.044C68.636,402.512,59.392,393.598,59.188,382.398z"/>
			<path style="fill:#EDC060;" d="M97.869,220.411l-39.923,0.727c-0.831,0.015-1.518,0.691-1.503,1.523c0,0.005,0,0.01,0,0.015
				l2.923,169.451c0.106,5.826,4.915,10.463,10.741,10.357l21.886-0.399c5.826-0.106,10.463-4.915,10.357-10.741l-2.922-169.451
				c0-0.005,0-0.01,0-0.015C99.411,221.047,98.7,220.396,97.869,220.411z"/>
			<path style="opacity:0.1;fill:#40409B;" d="M59.188,382.4l0.177,9.728c0.106,5.826,4.915,10.463,10.741,10.357l9.729-0.177h0
				l0.631-0.012L77.419,178.39l-1.192-0.569l-3.788-1.809c-0.526-0.251-1.144-0.212-1.634,0.104
				c-0.49,0.315-0.782,0.862-0.771,1.445l0.232,12.727l-1.921,0.035c-0.929,0.017-1.668,0.783-1.651,1.712l0.134,7.375
				c0.073,4.042-1.671,7.873-4.779,10.473c-3.735,3.124-5.686,7.895-5.605,12.763c0,0.005-0.001,0.01-0.001,0.015
				c0,0.005,0,0.01,0,0.015l1.922,105.535l0.823,54.187C59.188,382.398,59.188,382.399,59.188,382.4z"/>
		</g>
	</g>
</g>

</svg>
