<?xml version="1.0" encoding="UTF-8" standalone="no"?>
<!DOCTYPE svg PUBLIC "-//W3C//DTD SVG 1.1//EN" "http://www.w3.org/Graphics/SVG/1.1/DTD/svg11.dtd">
<svg xmlns="http://www.w3.org/2000/svg" version="1.1" viewBox="0.00 0.00 500.00 500.00">
<g stroke-width="2.00" fill="none" stroke-linecap="butt">
<path stroke="#a9abde" vector-effect="non-scaling-stroke" d="
  M 415.59 97.31
  Q 415.83 97.17 415.74 97.55
  Q 415.70 97.75 415.49 97.75
  L 313.03 97.75
  Q 312.82 97.75 312.69 97.58
  L 312.50 97.32"
/>
<path stroke="#6055ba" vector-effect="non-scaling-stroke" d="
  M 418.57 97.84
  Q 425.27 101.61 426.98 107.72
  Q 427.49 109.57 427.49 119.83
  Q 427.49 260.67 427.47 401.50
  Q 427.47 410.09 418.86 415.44"
/>
<path stroke="#9ca5d8" vector-effect="non-scaling-stroke" d="
  M 418.86 415.44
  Q 372.36 415.10 325.06 415.40
  C 299.80 415.57 274.52 415.10 249.25 415.32
  Q 248.42 415.33 246.28 414.93"
/>
<path stroke="#b7b2e2" vector-effect="non-scaling-stroke" d="
  M 246.28 414.93
  C 239.22 412.53 236.83 407.77 236.79 400.36
  Q 236.73 388.93 236.69 377.51"
/>
<path stroke="#6055ba" vector-effect="non-scaling-stroke" d="
  M 236.69 377.51
  L 251.83 377.72"
/>
<path stroke="#504692" vector-effect="non-scaling-stroke" d="
  M 251.83 377.72
  L 251.85 383.41
  Q 251.85 384.00 252.44 384.00
  L 410.74 384.00
  A 0.50 0.50 0.0 0 0 411.24 383.50
  L 411.24 284.77"
/>
<path stroke="#584ea9" vector-effect="non-scaling-stroke" d="
  M 411.24 284.77
  L 411.19 245.59"
/>
<path stroke="#504692" vector-effect="non-scaling-stroke" d="
  M 411.19 245.59
  L 411.25 235.95"
/>
<path stroke="#584ea9" vector-effect="non-scaling-stroke" d="
  M 411.25 235.95
  L 411.23 191.17"
/>
<path stroke="#504692" vector-effect="non-scaling-stroke" d="
  M 411.23 191.17
  L 411.24 116.50"
/>
<path stroke="#473d7c" vector-effect="non-scaling-stroke" d="
  M 411.24 116.50
  L 411.23 111.27
  Q 411.23 110.74 410.70 110.74
  L 252.54 110.61
  Q 251.81 110.61 251.81 111.34
  L 251.79 116.68"
/>
<path stroke="#504692" vector-effect="non-scaling-stroke" d="
  M 251.79 116.68
  L 251.75 122.48"
/>
<path stroke="#b7b2e2" vector-effect="non-scaling-stroke" d="
  M 251.75 122.48
  L 236.99 122.49"
/>
<path stroke="#a9abde" vector-effect="non-scaling-stroke" d="
  M 236.99 122.49
  L 236.47 116.76"
/>
<path stroke="#8d96ce" vector-effect="non-scaling-stroke" d="
  M 430.89 415.25
  L 418.86 415.44"
/>
<path stroke="#393076" vector-effect="non-scaling-stroke" d="
  M 411.23 191.17
  L 386.00 202.22"
/>
<path stroke="#281f49" vector-effect="non-scaling-stroke" d="
  M 386.00 202.22
  Q 386.01 179.58 385.99 157.45
  C 385.99 155.46 385.32 153.22 385.55 150.90
  C 386.30 143.10 386.00 135.23 385.99 127.46
  A 1.60 1.59 71.9 0 0 383.46 126.17
  Q 382.63 126.78 382.60 128.26"
/>
<path stroke="#9894af" vector-effect="non-scaling-stroke" d="
  M 382.60 128.26
  L 382.63 123.04
  Q 382.64 122.50 382.10 122.50
  L 251.75 122.48"
/>
<path stroke="#838fc5" vector-effect="non-scaling-stroke" d="
  M 236.49 374.12
  L 236.69 377.51"
/>
<path stroke="#281f49" vector-effect="non-scaling-stroke" d="
  M 411.24 116.50
  L 251.79 116.68"
/>
<path stroke="#393076" vector-effect="non-scaling-stroke" d="
  M 411.25 235.95
  L 386.54 246.86
  Q 386.00 247.09 386.00 246.50
  L 386.00 203.26
  A 0.34 0.34 0.0 0 0 385.89 203.01
  Q 385.69 202.84 385.71 202.50"
/>
<path stroke="#f2f8fb" vector-effect="non-scaling-stroke" d="
  M 236.99 122.49
  L 227.06 122.50
  A 1.31 1.30 -89.8 0 0 225.76 123.80
  L 225.72 165.93
  Q 225.72 166.39 225.92 166.81
  L 226.19 167.37
  Q 226.25 167.50 226.11 167.55
  Q 226.03 167.58 225.84 167.39"
/>
<path stroke="#8f8b99" vector-effect="non-scaling-stroke" d="
  M 382.60 128.26
  L 382.46 203.54"
/>
<path stroke="#9894af" vector-effect="non-scaling-stroke" d="
  M 382.46 203.54
  L 382.81 297.01"
/>
<path stroke="#8f8b99" vector-effect="non-scaling-stroke" d="
  M 382.81 297.01
  L 382.44 373.18
  A 0.83 0.83 0.0 0 1 381.61 374.01
  L 251.76 374.01"
/>
<path stroke="#a8a3d7" vector-effect="non-scaling-stroke" d="
  M 251.76 374.01
  L 236.49 374.12"
/>
<path stroke="#daebed" vector-effect="non-scaling-stroke" d="
  M 236.49 374.12
  L 230.41 374.08
  A 1.58 1.58 0.0 0 0 230.33 377.23
  L 236.69 377.51"
/>
<path stroke="#e4f3f6" vector-effect="non-scaling-stroke" d="
  M 246.28 414.93
  Q 246.06 415.00 245.99 415.25
  Q 245.88 415.56 245.55 415.56
  L 212.04 415.09"
/>
<path stroke="#dac1aa" vector-effect="non-scaling-stroke" d="
  M 212.04 415.09
  C 224.88 409.61 227.49 400.24 226.27 387.79"
/>
<path stroke="#f9dabd" vector-effect="non-scaling-stroke" d="
  M 226.27 387.79
  Q 226.13 387.24 226.74 386.99"
/>
<path stroke="#dac1aa" vector-effect="non-scaling-stroke" d="
  M 226.56 380.21
  C 221.15 378.61 212.04 379.86 206.15 379.48"
/>
<path stroke="#8cbeba" vector-effect="non-scaling-stroke" d="
  M 206.15 379.48
  L 206.27 360.45"
/>
<path stroke="#9cd7cb" vector-effect="non-scaling-stroke" d="
  M 206.27 360.45
  C 213.17 360.11 218.96 360.66 225.36 357.97
  Q 225.74 357.81 225.74 357.40
  L 225.71 229.17"
/>
<path stroke="#e4f3f6" vector-effect="non-scaling-stroke" d="
  M 225.71 229.17
  L 225.68 195.22
  Q 225.68 194.68 225.32 194.28
  L 222.34 190.93"
/>
<path stroke="#daebed" vector-effect="non-scaling-stroke" d="
  M 222.34 190.93
  L 231.76 186.82"
/>
<path stroke="#9cd7cb" vector-effect="non-scaling-stroke" d="
  M 231.76 186.82
  C 238.58 184.11 244.67 180.65 241.41 172.03"
/>
<path stroke="#daebed" vector-effect="non-scaling-stroke" d="
  M 241.41 172.03
  L 261.95 172.01
  A 5.05 5.05 0.0 0 0 267.00 166.96
  L 267.00 147.77
  A 4.99 4.99 0.0 0 0 262.06 142.78
  Q 253.20 142.68 243.91 142.78
  C 239.10 142.83 237.72 145.36 237.75 150.00
  Q 237.81 158.86 237.67 167.86"
/>
<path stroke="#9cd7cb" vector-effect="non-scaling-stroke" d="
  M 237.67 167.86
  Q 232.15 165.40 226.69 168.44
  Q 225.97 168.83 225.74 168.29"
/>
<path stroke="#393076" vector-effect="non-scaling-stroke" d="
  M 411.19 245.59
  L 386.37 256.49
  Q 386.00 256.65 386.00 257.06
  L 386.00 295.25
  Q 386.00 295.92 386.62 295.65
  L 411.24 284.77"
/>
<path stroke="#413787" vector-effect="non-scaling-stroke" d="
  M 251.83 377.72
  Q 251.55 378.53 252.04 377.37"
/>
<path stroke="#281f49" vector-effect="non-scaling-stroke" d="
  M 252.04 377.37
  L 385.07 377.45
  A 0.93 0.93 0.0 0 0 386.00 376.52
  L 386.00 296.97
  A 0.70 0.70 0.0 0 0 384.96 296.36
  Q 383.97 296.91 382.81 297.01"
/>
<path stroke="#382e71" vector-effect="non-scaling-stroke" d="
  M 252.04 377.37
  L 251.76 374.01"
/>
<path stroke="#302760" vector-effect="non-scaling-stroke" d="
  M 386.00 202.22
  Q 386.20 201.71 385.71 202.50"
/>
<path stroke="#281f49" vector-effect="non-scaling-stroke" d="
  M 385.71 202.50
  L 382.46 203.54"
/>
<path stroke="#2a4559" vector-effect="non-scaling-stroke" d="
  M 152.43 406.29
  L 161.06 406.68"
/>
<path stroke="#718b96" vector-effect="non-scaling-stroke" d="
  M 166.58 415.31
  L 111.08 415.15"
/>
<path stroke="#dac1aa" vector-effect="non-scaling-stroke" d="
  M 182.93 379.22
  L 182.98 385.33"
/>
<path stroke="#f9dabd" vector-effect="non-scaling-stroke" d="
  M 182.98 385.33
  L 182.74 386.76"
/>
<path stroke="#dac1aa" vector-effect="non-scaling-stroke" d="
  M 182.74 386.76
  L 182.97 399.75"
/>
<path stroke="#e4f3f6" vector-effect="non-scaling-stroke" d="
  M 179.74 414.78
  Q 173.75 416.18 166.58 415.31"
/>
<path stroke="#8c979f" vector-effect="non-scaling-stroke" d="
  M 166.58 415.31
  Q 166.92 414.70 166.96 414.25
  A 0.93 0.92 -87.7 0 0 166.04 413.25
  L 165.28 413.25
  A 0.56 0.56 0.0 0 1 164.72 412.63
  Q 165.20 407.91 161.06 406.68"
/>
<path stroke="#9eadb9" vector-effect="non-scaling-stroke" d="
  M 161.06 406.68
  Q 160.86 406.50 161.34 405.95"
/>
<path stroke="#b4adb7" vector-effect="non-scaling-stroke" d="
  M 150.74 319.35
  Q 151.53 318.68 151.13 319.46"
/>
<path stroke="#bfb4a1" vector-effect="non-scaling-stroke" d="
  M 212.04 415.09
  Q 204.29 415.70 196.24 414.62"
/>
<path stroke="#289686" vector-effect="non-scaling-stroke" d="
  M 206.27 360.45
  Q 206.32 348.22 206.56 335.99
  C 206.77 324.91 209.40 312.98 221.19 308.78
  Q 221.67 308.61 221.53 308.12
  L 221.15 306.79
  Q 220.97 306.15 220.35 306.39
  Q 210.84 309.99 206.90 319.35
  A 0.22 0.22 0.0 0 1 206.48 319.27
  L 206.85 256.30
  Q 206.85 255.75 206.30 255.75
  L 204.50 255.75
  Q 204.00 255.75 203.99 256.25
  L 203.67 296.24
  A 0.25 0.24 -56.6 0 1 203.20 296.34
  Q 198.72 285.76 188.70 280.15
  Q 188.11 279.82 187.72 280.36
  L 187.09 281.23
  Q 186.75 281.71 187.26 282.02
  Q 198.40 288.69 201.99 300.30
  Q 203.48 305.14 203.49 315.86
  Q 203.52 331.58 203.49 347.08
  A 0.40 0.40 0.0 0 1 202.74 347.26
  Q 198.03 337.84 188.71 332.88
  Q 188.12 332.56 187.72 333.11
  L 187.09 333.99
  Q 186.72 334.50 187.27 334.81
  Q 202.31 343.19 203.31 360.60
  Q 203.31 360.69 203.38 360.75
  Q 203.48 360.85 203.58 360.96
  A 0.58 0.58 0.0 0 1 203.75 361.37
  L 203.40 376.88"
/>
<path stroke="#9cd7cb" vector-effect="non-scaling-stroke" d="
  M 192.14 363.62
  Q 176.91 362.64 172.47 348.49
  C 171.30 344.76 172.23 339.72 171.21 335.63
  C 169.78 329.91 165.12 326.22 163.53 320.11
  Q 163.45 319.80 163.14 319.69
  Q 162.54 319.48 162.97 319.27"
/>
<path stroke="#bfdfe4" vector-effect="non-scaling-stroke" d="
  M 222.34 190.93
  L 199.98 200.54
  Q 199.59 200.70 199.36 201.07
  L 199.08 201.51"
/>
<path stroke="#828794" vector-effect="non-scaling-stroke" d="
  M 199.08 201.51
  Q 199.04 201.20 198.92 201.08
  Q 198.82 200.97 198.57 201.08
  Q 192.00 203.80 185.71 206.48"
/>
<path stroke="#bfdfe4" vector-effect="non-scaling-stroke" d="
  M 185.71 206.48
  L 156.93 218.73"
/>
<path stroke="#d3c6ab" vector-effect="non-scaling-stroke" d="
  M 156.93 218.73
  L 157.36 214.71"
/>
<path stroke="#d49b68" vector-effect="non-scaling-stroke" d="
  M 226.27 387.79
  L 225.93 387.24
  Q 225.67 386.82 225.18 386.82
  L 183.19 386.59
  Q 183.07 386.59 182.96 386.65
  L 182.74 386.76"
/>
<path stroke="#76c3b9" vector-effect="non-scaling-stroke" d="
  M 241.41 172.03
  Q 239.94 169.40 237.67 167.86"
/>
<path stroke="#678065" vector-effect="non-scaling-stroke" d="
  M 206.15 379.48
  Q 204.77 379.98 203.07 379.41"
/>
<path stroke="#76c3b9" vector-effect="non-scaling-stroke" d="
  M 231.76 186.82
  L 230.30 183.68"
/>
<path stroke="#81cac1" vector-effect="non-scaling-stroke" d="
  M 230.30 183.68
  L 227.24 176.52"
/>
<path stroke="#8ed0c7" vector-effect="non-scaling-stroke" d="
  M 227.24 176.52
  L 224.50 169.51"
/>
<path stroke="#d49b68" vector-effect="non-scaling-stroke" d="
  M 226.51 385.13
  L 182.98 385.33"
/>
<path stroke="#81cac1" vector-effect="non-scaling-stroke" d="
  M 225.71 229.17
  C 209.25 216.51 192.69 231.16 187.31 246.57
  Q 183.89 256.40 175.84 260.66
  C 168.93 264.32 165.83 271.60 165.83 279.24
  Q 165.83 282.11 165.63 284.47"
/>
<path stroke="#99a0ae" vector-effect="non-scaling-stroke" d="
  M 155.74 282.68
  Q 155.03 281.26 154.06 281.22"
/>
<path stroke="#8d8f9c" vector-effect="non-scaling-stroke" d="
  M 154.06 281.22
  L 153.99 244.25
  Q 153.99 243.73 154.51 243.74
  C 180.93 243.99 196.92 227.16 199.08 201.51"
/>
<path stroke="#464960" vector-effect="non-scaling-stroke" d="
  M 152.73 406.13
  Q 152.82 405.59 152.43 406.29"
/>
<path stroke="#343346" vector-effect="non-scaling-stroke" d="
  M 152.43 406.29
  L 134.00 406.24"
/>
<path stroke="#5d495e" vector-effect="non-scaling-stroke" d="
  M 134.00 406.24
  Q 134.67 403.97 134.02 401.20"
/>
<path stroke="#414557" vector-effect="non-scaling-stroke" d="
  M 134.00 406.24
  L 113.22 406.10"
/>
<path stroke="#5d495e" vector-effect="non-scaling-stroke" d="
  M 154.06 281.22
  L 147.58 281.26
  Q 147.10 281.26 147.09 281.74
  C 146.77 291.02 145.64 298.85 154.93 301.96"
/>
<path stroke="#a89ba6" vector-effect="non-scaling-stroke" d="
  M 154.65 309.26
  Q 153.84 309.23 154.02 310.50
  Q 154.36 313.03 153.08 314.55"
/>
<path stroke="#5d495e" vector-effect="non-scaling-stroke" d="
  M 151.06 313.26
  L 150.31 313.22"
/>
<path stroke="#46263d" vector-effect="non-scaling-stroke" d="
  M 150.31 313.22
  L 145.14 305.98"
/>
<path stroke="#a89ba6" vector-effect="non-scaling-stroke" d="
  M 145.14 305.98
  Q 142.95 300.83 143.14 296.24"
/>
<path stroke="#5d495e" vector-effect="non-scaling-stroke" d="
  M 143.14 296.24
  L 145.95 249.78
  Q 145.98 249.31 145.62 249.02
  L 143.75 247.43
  A 0.67 0.67 0.0 0 1 143.75 246.41
  L 147.71 243.03
  A 0.85 0.82 74.0 0 0 148.00 242.49
  L 149.32 230.89"
/>
<path stroke="#8d8f9c" vector-effect="non-scaling-stroke" d="
  M 149.32 230.89
  C 167.33 233.04 182.17 225.51 185.71 206.48"
/>
<path stroke="#53374f" vector-effect="non-scaling-stroke" d="
  M 150.31 313.22
  Q 149.79 316.63 150.74 319.35"
/>
<path stroke="#9e8a97" vector-effect="non-scaling-stroke" d="
  M 150.74 319.35
  L 150.81 368.50
  Q 150.81 368.86 151.15 368.99
  L 151.56 369.15"
/>
<path stroke="#53374f" vector-effect="non-scaling-stroke" d="
  M 151.01 369.29
  Q 150.68 369.17 150.43 369.42
  A 0.38 0.37 67.5 0 0 150.31 369.72
  L 150.69 376.01"
/>
<path stroke="#46263d" vector-effect="non-scaling-stroke" d="
  M 150.75 397.72
  L 149.89 400.61
  Q 149.75 401.08 149.26 401.08
  L 134.02 401.20"
/>
<path stroke="#53374f" vector-effect="non-scaling-stroke" d="
  M 134.02 401.20
  Q 133.90 401.06 133.79 400.92"
/>
<path stroke="#9e8a97" vector-effect="non-scaling-stroke" d="
  M 133.55 390.31
  L 133.60 348.39"
/>
<path stroke="#9e8a97" vector-effect="non-scaling-stroke" d="
  M 131.45 349.58
  Q 131.28 350.63 131.25 351.82
  C 131.01 363.88 130.38 376.33 131.48 388.36"
/>
<path stroke="#53374f" vector-effect="non-scaling-stroke" d="
  M 131.08 401.04
  L 113.99 401.21"
/>
<path stroke="#bfdfe4" vector-effect="non-scaling-stroke" d="
  M 230.30 183.68
  L 157.36 214.71"
/>
<path stroke="#decdb4" vector-effect="non-scaling-stroke" d="
  M 157.36 214.71
  Q 156.35 210.93 158.79 208.24
  Q 159.14 207.87 159.23 207.36
  L 159.59 205.38"
/>
<path stroke="#decdb4" vector-effect="non-scaling-stroke" d="
  M 156.93 218.73
  Q 153.89 227.94 143.51 228.03
  Q 142.99 228.03 142.99 228.55
  Q 142.99 229.15 143.59 229.23"
/>
<path stroke="#ae8775" vector-effect="non-scaling-stroke" d="
  M 143.59 229.23
  L 142.49 235.02"
/>
<path stroke="#f9dabd" vector-effect="non-scaling-stroke" d="
  M 142.49 235.02
  Q 137.39 239.39 132.73 235.13"
/>
<path stroke="#ae8775" vector-effect="non-scaling-stroke" d="
  M 132.73 235.13
  L 131.79 229.90"
/>
<path stroke="#d3c6ab" vector-effect="non-scaling-stroke" d="
  M 131.79 229.90
  Q 132.68 226.59 130.45 226.53"
/>
<path stroke="#decdb4" vector-effect="non-scaling-stroke" d="
  M 130.45 226.53
  Q 125.41 223.92 123.12 220.87"
/>
<path stroke="#ebd3b9" vector-effect="non-scaling-stroke" d="
  M 123.12 220.87
  L 119.71 214.15"
/>
<path stroke="#99a0ae" vector-effect="non-scaling-stroke" d="
  M 149.32 230.89
  L 143.59 229.23"
/>
<path stroke="#d7ecf2" vector-effect="non-scaling-stroke" d="
  M 227.24 176.52
  L 159.59 205.38"
/>
<path stroke="#ebd3b9" vector-effect="non-scaling-stroke" d="
  M 159.59 205.38
  Q 159.13 202.35 156.58 200.06"
/>
<path stroke="#9e8a97" vector-effect="non-scaling-stroke" d="
  M 145.14 305.98
  L 129.90 305.95"
/>
<path stroke="#a89ba6" vector-effect="non-scaling-stroke" d="
  M 129.90 305.95
  Q 132.11 300.46 132.24 294.60"
/>
<path stroke="#b4adb7" vector-effect="non-scaling-stroke" d="
  M 143.14 296.24
  Q 140.68 278.96 138.94 262.10
  Q 138.56 258.35 139.20 254.56
  Q 140.84 244.99 142.49 235.02"
/>
<path stroke="#46263d" vector-effect="non-scaling-stroke" d="
  M 129.90 305.95
  Q 124.60 315.31 113.70 316.59"
/>
<path stroke="#5d495e" vector-effect="non-scaling-stroke" d="
  M 112.38 304.22
  Q 113.27 303.39 112.93 302.03
  Q 112.82 301.58 113.28 301.64
  C 127.11 303.31 125.23 291.65 124.91 281.70
  Q 124.90 281.25 124.45 281.25
  L 113.22 281.25
  Q 112.58 281.25 112.72 280.62
  Q 113.27 278.25 112.34 277.19"
/>
<path stroke="#5e6a7b" vector-effect="non-scaling-stroke" d="
  M 74.66 259.52
  Q 73.55 257.96 73.51 256.43"
/>
<path stroke="#a17664" vector-effect="non-scaling-stroke" d="
  M 73.51 256.43
  L 84.42 250.78"
/>
<path stroke="#8d8f9c" vector-effect="non-scaling-stroke" d="
  M 86.14 254.60
  Q 88.23 259.76 91.82 264.21
  C 96.06 269.47 103.29 269.81 106.85 263.88
  C 110.08 258.50 111.24 250.25 111.56 244.50"
/>
<path stroke="#8f99a5" vector-effect="non-scaling-stroke" d="
  M 131.79 229.90
  L 127.66 231.33"
/>
<path stroke="#90bac3" vector-effect="non-scaling-stroke" d="
  M 127.66 231.33
  L 84.29 249.98
  Q 84.25 250.00 84.24 250.04
  Q 84.19 250.16 84.14 250.28"
/>
<path stroke="#d3c6ab" vector-effect="non-scaling-stroke" d="
  M 84.14 250.28
  L 82.66 247.00"
/>
<path stroke="#bfdfe4" vector-effect="non-scaling-stroke" d="
  M 130.45 226.53
  L 82.66 247.00"
/>
<path stroke="#decdb4" vector-effect="non-scaling-stroke" d="
  M 82.66 247.00
  Q 81.79 242.08 79.04 239.74"
/>
<path stroke="#d7ecf2" vector-effect="non-scaling-stroke" d="
  M 201.98 178.16
  Q 202.03 178.51 201.89 178.77
  Q 201.78 178.97 201.45 179.11
  Q 180.67 188.20 159.30 196.99"
/>
<path stroke="#868679" vector-effect="non-scaling-stroke" d="
  M 159.30 196.99
  C 159.23 193.79 159.06 191.97 159.97 188.62
  C 161.18 184.19 158.73 181.92 157.21 178.16
  C 155.06 172.86 148.27 170.53 142.98 170.33
  Q 142.34 170.31 142.06 170.04
  Q 141.65 169.66 141.75 169.01
  Q 141.85 168.34 141.18 168.69
  Q 140.71 168.93 140.27 168.40
  Q 139.96 168.02 139.71 167.61
  Q 139.25 166.84 138.35 167.02
  A 0.80 0.79 1.8 0 0 137.75 167.58
  Q 137.46 168.71 136.53 168.28
  A 0.52 0.52 0.0 0 0 135.80 168.69
  L 135.66 169.69
  A 0.59 0.59 0.0 0 1 135.09 170.20
  C 129.05 170.23 120.35 172.25 118.35 178.77
  Q 117.82 180.51 116.88 182.35
  C 115.03 185.97 116.75 188.98 116.75 192.23
  C 116.74 197.25 115.28 206.13 119.47 209.62"
/>
<path stroke="#decdb4" vector-effect="non-scaling-stroke" d="
  M 119.47 209.62
  Q 118.99 212.03 119.71 214.15"
/>
<path stroke="#d7ecf2" vector-effect="non-scaling-stroke" d="
  M 119.71 214.15
  L 62.93 238.38"
/>
<path stroke="#9bc1cb" vector-effect="non-scaling-stroke" d="
  M 62.93 238.38
  L 51.88 243.30
  A 4.28 4.28 0.0 0 0 49.59 248.63
  Q 51.58 254.27 54.15 259.91
  C 56.02 264.01 57.87 266.57 62.65 264.59
  Q 68.42 262.19 74.66 259.52"
/>
<path stroke="#8d8f9c" vector-effect="non-scaling-stroke" d="
  M 74.66 259.52
  C 80.45 274.55 92.29 285.51 109.31 278.44"
/>
<path stroke="#b4adb7" vector-effect="non-scaling-stroke" d="
  M 132.73 235.13
  L 136.45 258.25
  A 2.04 2.01 44.5 0 1 136.46 258.85
  L 132.24 294.60"
/>
<path stroke="#5d495e" vector-effect="non-scaling-stroke" d="
  M 132.24 294.60
  Q 131.25 291.00 130.93 285.06
  Q 129.96 267.47 128.99 249.88
  Q 128.96 249.30 129.43 248.97
  L 131.07 247.79
  A 0.94 0.93 -42.4 0 0 131.14 246.33
  L 127.32 242.97
  A 1.05 1.05 0.0 0 1 126.96 242.06
  Q 127.23 239.44 126.52 237.23"
/>
<path stroke="#6b7b8d" vector-effect="non-scaling-stroke" d="
  M 126.52 237.23
  Q 129.14 234.16 127.66 231.33"
/>
<path stroke="#d7ecf2" vector-effect="non-scaling-stroke" d="
  M 123.12 220.87
  L 79.04 239.74"
/>
<path stroke="#ebd3b9" vector-effect="non-scaling-stroke" d="
  M 79.04 239.74
  Q 72.55 237.15 69.83 244.07"
/>
<path stroke="#d7ecf2" vector-effect="non-scaling-stroke" d="
  M 69.83 244.07
  Q 68.08 244.33 66.05 245.61"
/>
<path stroke="#a8c7d1" vector-effect="non-scaling-stroke" d="
  M 66.05 245.61
  L 62.93 238.38"
/>
<path stroke="#938b7e" vector-effect="non-scaling-stroke" d="
  M 159.30 196.99
  Q 159.73 199.84 156.58 200.06"
/>
<path stroke="#9a6d40" vector-effect="non-scaling-stroke" d="
  M 156.58 200.06
  C 154.02 199.49 154.79 196.78 154.73 194.86
  Q 154.72 194.33 154.21 194.47
  Q 151.14 195.30 148.26 194.05
  A 1.29 1.26 -42.6 0 0 147.30 194.02
  Q 138.50 197.13 129.56 194.37
  Q 129.00 194.20 129.00 194.79
  L 129.00 206.93
  A 1.04 1.04 0.0 0 1 128.17 207.95
  L 126.25 208.33
  Q 125.50 208.49 125.50 207.72
  L 125.50 200.48
  Q 125.50 199.96 124.98 199.93
  C 118.71 199.56 117.85 206.16 121.30 209.93
  Q 122.11 210.82 121.02 210.32
  L 119.47 209.62"
/>
<path stroke="#5e6a7b" vector-effect="non-scaling-stroke" d="
  M 126.52 237.23
  Q 119.48 240.41 112.39 243.43
  Q 112.02 243.58 111.85 243.86
  Q 111.69 244.13 111.56 244.50"
/>
<path stroke="#9bc1cb" vector-effect="non-scaling-stroke" d="
  M 111.56 244.50
  Q 111.11 243.97 110.31 244.31
  Q 98.35 249.42 86.14 254.60"
/>
<path stroke="#5e6a7b" vector-effect="non-scaling-stroke" d="
  M 86.14 254.60
  L 84.42 250.78"
/>
<path stroke="#afa893" vector-effect="non-scaling-stroke" d="
  M 84.42 250.78
  Q 84.19 250.66 84.14 250.28"
/>
<path stroke="#9bc1cb" vector-effect="non-scaling-stroke" d="
  M 66.05 245.61
  C 67.37 249.07 68.70 253.23 72.49 253.77"
/>
<path stroke="#afa893" vector-effect="non-scaling-stroke" d="
  M 72.49 253.77
  L 73.51 256.43"
/>
<path stroke="#decdb4" vector-effect="non-scaling-stroke" d="
  M 72.49 253.77
  L 69.83 244.07"
/>
<path stroke="#6055ba" vector-effect="non-scaling-stroke" d="
  M 351.4703 104.7353
  A 1.46 1.46 0.0 0 0 350.0129 103.2727
  L 312.4929 103.2073
  A 1.46 1.46 0.0 0 0 311.0304 104.6647
  L 311.0297 105.0647
  A 1.46 1.46 0.0 0 0 312.4871 106.5273
  L 350.0071 106.5927
  A 1.46 1.46 0.0 0 0 351.4696 105.1353
  L 351.4703 104.7353"
/>
<path stroke="#584ea9" vector-effect="non-scaling-stroke" d="
  M 308.12 398.85
  A 7.28 7.28 0.0 0 0 300.84 391.57
  L 273.62 391.57
  A 7.28 7.28 0.0 0 0 266.34 398.85
  L 266.34 399.43
  A 7.28 7.28 0.0 0 0 273.62 406.71
  L 300.84 406.71
  A 7.28 7.28 0.0 0 0 308.12 399.43
  L 308.12 398.85"
/>
<path stroke="#584ea9" vector-effect="non-scaling-stroke" d="
  M 394.9305 398.8763
  A 7.30 7.30 0.0 0 0 387.6432 391.5636
  L 360.6033 391.5164
  A 7.30 7.30 0.0 0 0 353.2905 398.8037
  L 353.2895 399.3837
  A 7.30 7.30 0.0 0 0 360.5768 406.6964
  L 387.6167 406.7436
  A 7.30 7.30 0.0 0 0 394.9295 399.4563
  L 394.9305 398.8763"
/>
<path stroke="#daebed" vector-effect="non-scaling-stroke" d="
  M 320.4823 143.0940
  A 0.31 0.31 0.0 0 0 320.1728 142.7835
  L 281.8129 142.7165
  A 0.31 0.31 0.0 0 0 281.5024 143.0260
  L 281.4977 145.6860
  A 0.31 0.31 0.0 0 0 281.8072 145.9965
  L 320.1671 146.0635
  A 0.31 0.31 0.0 0 0 320.4776 145.7540
  L 320.4823 143.0940"
/>
<path stroke="#daebed" vector-effect="non-scaling-stroke" d="
  M 365.07 157.82
  Q 365.38 157.55 365.16 157.28
  Q 364.92 157.00 364.56 157.00
  L 282.00 157.00
  Q 281.50 157.00 281.50 157.50
  L 281.50 159.75
  Q 281.50 160.25 282.00 160.25
  L 364.73 160.25
  Q 365.21 160.25 365.15 159.78
  L 364.96 158.11
  Q 364.94 157.94 365.07 157.82"
/>
<path stroke="#daebed" vector-effect="non-scaling-stroke" d="
  M 364.51 167.90
  A 0.40 0.40 0.0 0 0 364.11 167.50
  L 281.43 167.50
  A 0.40 0.40 0.0 0 0 281.03 167.90
  L 281.03 170.60
  A 0.40 0.40 0.0 0 0 281.43 171.00
  L 364.11 171.00
  A 0.40 0.40 0.0 0 0 364.51 170.60
  L 364.51 167.90"
/>
<path stroke="#daebed" vector-effect="non-scaling-stroke" d="
  M 266.9940 195.9445
  A 5.44 5.44 0.0 0 0 261.5445 190.5140
  L 243.1845 190.5460
  A 5.44 5.44 0.0 0 0 237.7540 195.9955
  L 237.7860 214.3555
  A 5.44 5.44 0.0 0 0 243.2355 219.7860
  L 261.5955 219.7540
  A 5.44 5.44 0.0 0 0 267.0260 214.3045
  L 266.9940 195.9445"
/>
<path stroke="#daebed" vector-effect="non-scaling-stroke" d="
  M 320.50 191.16
  A 0.66 0.66 0.0 0 0 319.84 190.50
  L 282.16 190.50
  A 0.66 0.66 0.0 0 0 281.50 191.16
  L 281.50 193.34
  A 0.66 0.66 0.0 0 0 282.16 194.00
  L 319.84 194.00
  A 0.66 0.66 0.0 0 0 320.50 193.34
  L 320.50 191.16"
/>
<path stroke="#daebed" vector-effect="non-scaling-stroke" d="
  M 365.12 205.25
  A 0.50 0.50 0.0 0 0 364.62 204.75
  L 282.00 204.75
  A 0.50 0.50 0.0 0 0 281.50 205.25
  L 281.50 207.71
  A 0.50 0.50 0.0 0 0 282.00 208.21
  L 364.62 208.21
  A 0.50 0.50 0.0 0 0 365.12 207.71
  L 365.12 205.25"
/>
<path stroke="#daebed" vector-effect="non-scaling-stroke" d="
  M 364.49 215.80
  A 0.53 0.53 0.0 0 0 363.96 215.27
  L 281.54 215.27
  A 0.53 0.53 0.0 0 0 281.01 215.80
  L 281.01 218.22
  A 0.53 0.53 0.0 0 0 281.54 218.75
  L 363.96 218.75
  A 0.53 0.53 0.0 0 0 364.49 218.22
  L 364.49 215.80"
/>
<path stroke="#daebed" vector-effect="non-scaling-stroke" d="
  M 267.0060 243.7655
  A 5.46 5.46 0.0 0 0 261.5556 238.2960
  L 243.2756 238.2641
  A 5.46 5.46 0.0 0 0 237.8061 243.7145
  L 237.7740 262.1145
  A 5.46 5.46 0.0 0 0 243.2244 267.5840
  L 261.5044 267.6159
  A 5.46 5.46 0.0 0 0 266.9739 262.1655
  L 267.0060 243.7655"
/>
<path stroke="#daebed" vector-effect="non-scaling-stroke" d="
  M 320.49 239.25
  A 0.51 0.51 0.0 0 0 319.98 238.74
  L 282.00 238.74
  A 0.51 0.51 0.0 0 0 281.49 239.25
  L 281.49 241.49
  A 0.51 0.51 0.0 0 0 282.00 242.00
  L 319.98 242.00
  A 0.51 0.51 0.0 0 0 320.49 241.49
  L 320.49 239.25"
/>
<path stroke="#daebed" vector-effect="non-scaling-stroke" d="
  M 365.0979 253.2771
  A 0.52 0.52 0.0 0 0 364.5770 252.7580
  L 282.0371 252.9020
  A 0.52 0.52 0.0 0 0 281.5180 253.4229
  L 281.5221 255.8029
  A 0.52 0.52 0.0 0 0 282.0430 256.3220
  L 364.5829 256.1780
  A 0.52 0.52 0.0 0 0 365.1020 255.6571
  L 365.0979 253.2771"
/>
<path stroke="#daebed" vector-effect="non-scaling-stroke" d="
  M 364.4723 263.9528
  A 0.38 0.38 0.0 0 0 364.0929 263.5721
  L 281.4331 263.4279
  A 0.38 0.38 0.0 0 0 281.0524 263.8072
  L 281.0477 266.4872
  A 0.38 0.38 0.0 0 0 281.4271 266.8679
  L 364.0869 267.0121
  A 0.38 0.38 0.0 0 0 364.4676 266.6328
  L 364.4723 263.9528"
/>
<path stroke="#daebed" vector-effect="non-scaling-stroke" d="
  M 266.9938 291.4445
  A 5.23 5.23 0.0 0 0 261.7547 286.2236
  L 242.9747 286.2564
  A 5.23 5.23 0.0 0 0 237.7538 291.4955
  L 237.7862 310.0555
  A 5.23 5.23 0.0 0 0 243.0253 315.2764
  L 261.8053 315.2436
  A 5.23 5.23 0.0 0 0 267.0262 310.0045
  L 266.9938 291.4445"
/>
<path stroke="#daebed" vector-effect="non-scaling-stroke" d="
  M 320.4877 287.2460
  A 0.32 0.32 0.0 0 0 320.1671 286.9266
  L 281.8472 286.9934
  A 0.32 0.32 0.0 0 0 281.5277 287.3140
  L 281.5323 289.9540
  A 0.32 0.32 0.0 0 0 281.8529 290.2734
  L 320.1728 290.2066
  A 0.32 0.32 0.0 0 0 320.4923 289.8860
  L 320.4877 287.2460"
/>
<path stroke="#daebed" vector-effect="non-scaling-stroke" d="
  M 365.12 301.50
  A 0.44 0.44 0.0 0 0 364.68 301.06
  L 281.96 301.06
  A 0.44 0.44 0.0 0 0 281.52 301.50
  L 281.52 304.06
  A 0.44 0.44 0.0 0 0 281.96 304.50
  L 364.68 304.50
  A 0.44 0.44 0.0 0 0 365.12 304.06
  L 365.12 301.50"
/>
<path stroke="#daebed" vector-effect="non-scaling-stroke" d="
  M 364.48 312.12
  A 0.38 0.38 0.0 0 0 364.10 311.74
  L 281.40 311.74
  A 0.38 0.38 0.0 0 0 281.02 312.12
  L 281.02 314.62
  A 0.38 0.38 0.0 0 0 281.40 315.00
  L 364.10 315.00
  A 0.38 0.38 0.0 0 0 364.48 314.62
  L 364.48 312.12"
/>
<path stroke="#daebed" vector-effect="non-scaling-stroke" d="
  M 258.72 339.27
  A 7.08 7.08 0.0 0 0 251.64 332.19
  A 7.08 7.08 0.0 0 0 244.56 339.27
  A 7.08 7.08 0.0 0 0 251.64 346.35
  A 7.08 7.08 0.0 0 0 258.72 339.27"
/>
<path stroke="#daebed" vector-effect="non-scaling-stroke" d="
  M 283.29 339.28
  A 7.08 7.08 0.0 0 0 276.21 332.20
  A 7.08 7.08 0.0 0 0 269.13 339.28
  A 7.08 7.08 0.0 0 0 276.21 346.36
  A 7.08 7.08 0.0 0 0 283.29 339.28"
/>
<path stroke="#daebed" vector-effect="non-scaling-stroke" d="
  M 307.87 339.27
  A 7.07 7.07 0.0 0 0 300.80 332.20
  A 7.07 7.07 0.0 0 0 293.73 339.27
  A 7.07 7.07 0.0 0 0 300.80 346.34
  A 7.07 7.07 0.0 0 0 307.87 339.27"
/>
<path stroke="#daebed" vector-effect="non-scaling-stroke" d="
  M 332.44 339.27
  A 7.08 7.08 0.0 0 0 325.36 332.19
  A 7.08 7.08 0.0 0 0 318.28 339.27
  A 7.08 7.08 0.0 0 0 325.36 346.35
  A 7.08 7.08 0.0 0 0 332.44 339.27"
/>
<path stroke="#daebed" vector-effect="non-scaling-stroke" d="
  M 357.04 339.27
  A 7.08 7.08 0.0 0 0 349.96 332.19
  A 7.08 7.08 0.0 0 0 342.88 339.27
  A 7.08 7.08 0.0 0 0 349.96 346.35
  A 7.08 7.08 0.0 0 0 357.04 339.27"
/>
<path stroke="#daebed" vector-effect="non-scaling-stroke" d="
  M 263.7362 148.2096
  A 1.96 1.96 0.0 0 0 261.7796 146.2462
  L 243.2196 146.2138
  A 1.96 1.96 0.0 0 0 241.2562 148.1704
  L 241.2238 166.7504
  A 1.96 1.96 0.0 0 0 243.1804 168.7138
  L 261.7404 168.7462
  A 1.96 1.96 0.0 0 0 263.7038 166.7896
  L 263.7362 148.2096"
/>
<path stroke="#daebed" vector-effect="non-scaling-stroke" d="
  M 263.73 195.92
  A 1.92 1.92 0.0 0 0 261.81 194.00
  L 243.07 194.00
  A 1.92 1.92 0.0 0 0 241.15 195.92
  L 241.15 214.56
  A 1.92 1.92 0.0 0 0 243.07 216.48
  L 261.81 216.48
  A 1.92 1.92 0.0 0 0 263.73 214.56
  L 263.73 195.92"
/>
<path stroke="#9a6d40" vector-effect="non-scaling-stroke" d="
  M 141.01 205.01
  C 140.24 201.56 135.06 202.44 133.51 204.87
  A 0.43 0.43 0.0 0 0 134.17 205.41
  Q 137.27 202.42 140.41 205.35
  A 0.36 0.36 0.0 0 0 141.01 205.01"
/>
<path stroke="#9a6d40" vector-effect="non-scaling-stroke" d="
  M 156.01 204.71
  C 156.07 202.28 151.72 201.93 150.85 204.85
  A 0.34 0.34 0.0 0 0 151.41 205.20
  L 152.75 203.92
  Q 153.32 203.37 153.93 203.87
  L 155.34 205.02
  A 0.41 0.41 0.0 0 0 156.01 204.71"
/>
<path stroke="#d49b68" vector-effect="non-scaling-stroke" d="
  M 141.72 216.22
  Q 145.28 218.73 149.18 216.20"
/>
<path stroke="#9a6d40" vector-effect="non-scaling-stroke" d="
  M 149.18 216.20
  Q 150.62 215.22 151.38 213.59
  A 0.95 0.94 12.5 0 0 150.52 212.25
  L 139.78 212.28
  Q 139.08 212.28 139.25 212.96
  Q 139.79 215.06 141.72 216.22"
/>
<path stroke="#7c542d" vector-effect="non-scaling-stroke" d="
  M 149.18 216.20
  C 147.70 213.62 142.57 212.89 141.72 216.22"
/>
<path stroke="#9eadb9" vector-effect="non-scaling-stroke" d="
  M 250.88 207.43
  L 247.59 204.43
  A 1.78 1.78 0.0 0 0 244.74 205.09
  Q 244.22 206.42 245.40 207.62
  Q 247.53 209.77 249.84 211.87
  Q 251.24 213.13 252.58 211.80
  L 261.43 202.94
  A 0.79 0.78 59.7 0 0 261.63 202.15
  L 261.34 201.14
  A 1.61 1.61 0.0 0 0 258.66 200.46
  L 251.72 207.41
  Q 251.31 207.82 250.88 207.43"
/>
<path stroke="#daebed" vector-effect="non-scaling-stroke" d="
  M 263.73 243.73
  A 1.98 1.98 0.0 0 0 261.75 241.75
  L 243.09 241.75
  A 1.98 1.98 0.0 0 0 241.11 243.73
  L 241.11 262.27
  A 1.98 1.98 0.0 0 0 243.09 264.25
  L 261.75 264.25
  A 1.98 1.98 0.0 0 0 263.73 262.27
  L 263.73 243.73"
/>
<path stroke="#9eadb9" vector-effect="non-scaling-stroke" d="
  M 247.92 252.65
  C 246.13 250.70 243.30 253.21 245.17 255.08
  Q 247.78 257.70 250.15 260.01
  A 1.59 1.58 -45.4 0 0 252.38 259.99
  Q 256.56 255.83 260.56 251.81
  C 261.63 250.73 262.15 249.54 260.76 248.46
  A 1.68 1.68 0.0 0 0 258.53 248.60
  L 251.67 255.46
  Q 251.22 255.90 250.80 255.44
  C 249.88 254.44 248.82 253.62 247.92 252.65"
/>
<path stroke="#daebed" vector-effect="non-scaling-stroke" d="
  M 263.7339 291.5203
  A 2.04 2.04 0.0 0 0 261.6904 289.4838
  L 243.1304 289.5162
  A 2.04 2.04 0.0 0 0 241.0939 291.5598
  L 241.1261 309.9797
  A 2.04 2.04 0.0 0 0 243.1696 312.0162
  L 261.7296 311.9838
  A 2.04 2.04 0.0 0 0 263.7661 309.9402
  L 263.7339 291.5203"
/>
<path stroke="#9eadb9" vector-effect="non-scaling-stroke" d="
  M 250.82 302.44
  C 249.72 301.33 246.10 296.72 244.70 300.15
  A 1.93 1.93 0.0 0 0 245.12 302.25
  L 249.65 306.76
  Q 251.11 308.22 252.59 306.77
  Q 256.65 302.77 260.72 298.63
  C 261.63 297.70 261.91 296.45 260.92 295.53
  A 1.71 1.71 0.0 0 0 258.55 295.58
  L 251.68 302.44
  Q 251.25 302.87 250.82 302.44"
/>
</g>
<path fill="#e4f1f7" d="
  M 415.59 97.31
  Q 415.83 97.17 415.74 97.55
  Q 415.70 97.75 415.49 97.75
  L 313.03 97.75
  Q 312.82 97.75 312.69 97.58
  L 312.50 97.32
  L 313.07 96.81
  Q 313.43 96.49 313.52 96.02
  Q 313.96 93.51 316.22 90.75
  Q 337.07 65.22 368.10 67.01
  C 386.36 68.06 402.27 77.46 413.16 92.07
  Q 414.44 93.79 415.59 97.31
  Z"
/>
<path fill="#6e64c4" d="
  M 312.50 97.32
  L 312.69 97.58
  Q 312.82 97.75 313.03 97.75
  L 415.49 97.75
  Q 415.70 97.75 415.74 97.55
  Q 415.83 97.17 415.59 97.31
  L 418.57 97.84
  Q 425.27 101.61 426.98 107.72
  Q 427.49 109.57 427.49 119.83
  Q 427.49 260.67 427.47 401.50
  Q 427.47 410.09 418.86 415.44
  Q 372.36 415.10 325.06 415.40
  C 299.80 415.57 274.52 415.10 249.25 415.32
  Q 248.42 415.33 246.28 414.93
  C 239.22 412.53 236.83 407.77 236.79 400.36
  Q 236.73 388.93 236.69 377.51
  L 251.83 377.72
  L 251.85 383.41
  Q 251.85 384.00 252.44 384.00
  L 410.74 384.00
  A 0.50 0.50 0.0 0 0 411.24 383.50
  L 411.24 284.77
  L 411.19 245.59
  L 411.25 235.95
  L 411.23 191.17
  L 411.24 116.50
  L 411.23 111.27
  Q 411.23 110.74 410.70 110.74
  L 252.54 110.61
  Q 251.81 110.61 251.81 111.34
  L 251.79 116.68
  L 251.75 122.48
  L 236.99 122.49
  L 236.47 116.76
  C 237.08 109.12 236.42 102.34 244.62 98.89
  Q 247.32 97.75 253.51 97.75
  Q 281.89 97.73 310.25 97.51
  Q 311.37 97.50 312.50 97.32
  Z
  M 351.4703 104.7353
  A 1.46 1.46 0.0 0 0 350.0129 103.2727
  L 312.4929 103.2073
  A 1.46 1.46 0.0 0 0 311.0304 104.6647
  L 311.0297 105.0647
  A 1.46 1.46 0.0 0 0 312.4871 106.5273
  L 350.0071 106.5927
  A 1.46 1.46 0.0 0 0 351.4696 105.1353
  L 351.4703 104.7353
  Z
  M 308.12 398.85
  A 7.28 7.28 0.0 0 0 300.84 391.57
  L 273.62 391.57
  A 7.28 7.28 0.0 0 0 266.34 398.85
  L 266.34 399.43
  A 7.28 7.28 0.0 0 0 273.62 406.71
  L 300.84 406.71
  A 7.28 7.28 0.0 0 0 308.12 399.43
  L 308.12 398.85
  Z
  M 394.9305 398.8763
  A 7.30 7.30 0.0 0 0 387.6432 391.5636
  L 360.6033 391.5164
  A 7.30 7.30 0.0 0 0 353.2905 398.8037
  L 353.2895 399.3837
  A 7.30 7.30 0.0 0 0 360.5768 406.6964
  L 387.6167 406.7436
  A 7.30 7.30 0.0 0 0 394.9295 399.4563
  L 394.9305 398.8763
  Z"
/>
<path fill="#5146af" d="
  M 418.57 97.84
  C 423.27 97.85 428.98 97.31 432.89 99.41
  Q 439.98 103.23 439.98 112.31
  Q 440.02 256.03 439.99 399.75
  Q 439.99 410.31 430.89 415.25
  L 418.86 415.44
  Q 427.47 410.09 427.47 401.50
  Q 427.49 260.67 427.49 119.83
  Q 427.49 109.57 426.98 107.72
  Q 425.27 101.61 418.57 97.84
  Z"
/>
<rect fill="#5146af" x="-20.22" y="-1.66" transform="translate(331.25,104.90) rotate(0.1)" width="40.44" height="3.32" rx="1.46"/>
<path fill="#1f1633" d="
  M 411.24 116.50
  L 251.79 116.68
  L 251.81 111.34
  Q 251.81 110.61 252.54 110.61
  L 410.70 110.74
  Q 411.23 110.74 411.23 111.27
  L 411.24 116.50
  Z"
/>
<path fill="#31285f" d="
  M 411.24 116.50
  L 411.23 191.17
  L 386.00 202.22
  Q 386.01 179.58 385.99 157.45
  C 385.99 155.46 385.32 153.22 385.55 150.90
  C 386.30 143.10 386.00 135.23 385.99 127.46
  A 1.60 1.59 71.9 0 0 383.46 126.17
  Q 382.63 126.78 382.60 128.26
  L 382.63 123.04
  Q 382.64 122.50 382.10 122.50
  L 251.75 122.48
  L 251.79 116.68
  L 411.24 116.50
  Z"
/>
<path fill="#e4f1f7" d="
  M 236.47 116.76
  L 236.99 122.49
  L 227.06 122.50
  A 1.31 1.30 -89.8 0 0 225.76 123.80
  L 225.72 165.93
  Q 225.72 166.39 225.92 166.81
  L 226.19 167.37
  Q 226.25 167.50 226.11 167.55
  Q 226.03 167.58 225.84 167.39
  Q 223.45 165.71 221.07 163.93
  C 199.86 148.11 210.05 116.83 236.47 116.76
  Z"
/>
<path fill="#ffffff" d="
  M 251.75 122.48
  L 382.10 122.50
  Q 382.64 122.50 382.63 123.04
  L 382.60 128.26
  L 382.46 203.54
  L 382.81 297.01
  L 382.44 373.18
  A 0.83 0.83 0.0 0 1 381.61 374.01
  L 251.76 374.01
  L 236.49 374.12
  L 230.41 374.08
  A 1.58 1.58 0.0 0 0 230.33 377.23
  L 236.69 377.51
  Q 236.73 388.93 236.79 400.36
  C 236.83 407.77 239.22 412.53 246.28 414.93
  Q 246.06 415.00 245.99 415.25
  Q 245.88 415.56 245.55 415.56
  L 212.04 415.09
  C 224.88 409.61 227.49 400.24 226.27 387.79
  Q 226.13 387.24 226.74 386.99
  Q 226.89 387.38 227.17 387.46
  A 0.36 0.36 0.0 0 0 227.59 387.27
  L 230.44 381.44
  Q 231.61 379.07 229.04 378.46
  Q 224.46 377.37 226.56 380.21
  C 221.15 378.61 212.04 379.86 206.15 379.48
  L 206.27 360.45
  C 213.17 360.11 218.96 360.66 225.36 357.97
  Q 225.74 357.81 225.74 357.40
  L 225.71 229.17
  L 225.68 195.22
  Q 225.68 194.68 225.32 194.28
  L 222.34 190.93
  L 231.76 186.82
  C 238.58 184.11 244.67 180.65 241.41 172.03
  L 261.95 172.01
  A 5.05 5.05 0.0 0 0 267.00 166.96
  L 267.00 147.77
  A 4.99 4.99 0.0 0 0 262.06 142.78
  Q 253.20 142.68 243.91 142.78
  C 239.10 142.83 237.72 145.36 237.75 150.00
  Q 237.81 158.86 237.67 167.86
  Q 232.15 165.40 226.69 168.44
  Q 225.97 168.83 225.74 168.29
  Q 225.69 167.89 225.84 167.39
  Q 226.03 167.58 226.11 167.55
  Q 226.25 167.50 226.19 167.37
  L 225.92 166.81
  Q 225.72 166.39 225.72 165.93
  L 225.76 123.80
  A 1.31 1.30 -89.8 0 1 227.06 122.50
  L 236.99 122.49
  L 251.75 122.48
  Z
  M 320.4823 143.0940
  A 0.31 0.31 0.0 0 0 320.1728 142.7835
  L 281.8129 142.7165
  A 0.31 0.31 0.0 0 0 281.5024 143.0260
  L 281.4977 145.6860
  A 0.31 0.31 0.0 0 0 281.8072 145.9965
  L 320.1671 146.0635
  A 0.31 0.31 0.0 0 0 320.4776 145.7540
  L 320.4823 143.0940
  Z
  M 365.07 157.82
  Q 365.38 157.55 365.16 157.28
  Q 364.92 157.00 364.56 157.00
  L 282.00 157.00
  Q 281.50 157.00 281.50 157.50
  L 281.50 159.75
  Q 281.50 160.25 282.00 160.25
  L 364.73 160.25
  Q 365.21 160.25 365.15 159.78
  L 364.96 158.11
  Q 364.94 157.94 365.07 157.82
  Z
  M 364.51 167.90
  A 0.40 0.40 0.0 0 0 364.11 167.50
  L 281.43 167.50
  A 0.40 0.40 0.0 0 0 281.03 167.90
  L 281.03 170.60
  A 0.40 0.40 0.0 0 0 281.43 171.00
  L 364.11 171.00
  A 0.40 0.40 0.0 0 0 364.51 170.60
  L 364.51 167.90
  Z
  M 266.9940 195.9445
  A 5.44 5.44 0.0 0 0 261.5445 190.5140
  L 243.1845 190.5460
  A 5.44 5.44 0.0 0 0 237.7540 195.9955
  L 237.7860 214.3555
  A 5.44 5.44 0.0 0 0 243.2355 219.7860
  L 261.5955 219.7540
  A 5.44 5.44 0.0 0 0 267.0260 214.3045
  L 266.9940 195.9445
  Z
  M 320.50 191.16
  A 0.66 0.66 0.0 0 0 319.84 190.50
  L 282.16 190.50
  A 0.66 0.66 0.0 0 0 281.50 191.16
  L 281.50 193.34
  A 0.66 0.66 0.0 0 0 282.16 194.00
  L 319.84 194.00
  A 0.66 0.66 0.0 0 0 320.50 193.34
  L 320.50 191.16
  Z
  M 365.12 205.25
  A 0.50 0.50 0.0 0 0 364.62 204.75
  L 282.00 204.75
  A 0.50 0.50 0.0 0 0 281.50 205.25
  L 281.50 207.71
  A 0.50 0.50 0.0 0 0 282.00 208.21
  L 364.62 208.21
  A 0.50 0.50 0.0 0 0 365.12 207.71
  L 365.12 205.25
  Z
  M 364.49 215.80
  A 0.53 0.53 0.0 0 0 363.96 215.27
  L 281.54 215.27
  A 0.53 0.53 0.0 0 0 281.01 215.80
  L 281.01 218.22
  A 0.53 0.53 0.0 0 0 281.54 218.75
  L 363.96 218.75
  A 0.53 0.53 0.0 0 0 364.49 218.22
  L 364.49 215.80
  Z
  M 267.0060 243.7655
  A 5.46 5.46 0.0 0 0 261.5556 238.2960
  L 243.2756 238.2641
  A 5.46 5.46 0.0 0 0 237.8061 243.7145
  L 237.7740 262.1145
  A 5.46 5.46 0.0 0 0 243.2244 267.5840
  L 261.5044 267.6159
  A 5.46 5.46 0.0 0 0 266.9739 262.1655
  L 267.0060 243.7655
  Z
  M 320.49 239.25
  A 0.51 0.51 0.0 0 0 319.98 238.74
  L 282.00 238.74
  A 0.51 0.51 0.0 0 0 281.49 239.25
  L 281.49 241.49
  A 0.51 0.51 0.0 0 0 282.00 242.00
  L 319.98 242.00
  A 0.51 0.51 0.0 0 0 320.49 241.49
  L 320.49 239.25
  Z
  M 365.0979 253.2771
  A 0.52 0.52 0.0 0 0 364.5770 252.7580
  L 282.0371 252.9020
  A 0.52 0.52 0.0 0 0 281.5180 253.4229
  L 281.5221 255.8029
  A 0.52 0.52 0.0 0 0 282.0430 256.3220
  L 364.5829 256.1780
  A 0.52 0.52 0.0 0 0 365.1020 255.6571
  L 365.0979 253.2771
  Z
  M 364.4723 263.9528
  A 0.38 0.38 0.0 0 0 364.0929 263.5721
  L 281.4331 263.4279
  A 0.38 0.38 0.0 0 0 281.0524 263.8072
  L 281.0477 266.4872
  A 0.38 0.38 0.0 0 0 281.4271 266.8679
  L 364.0869 267.0121
  A 0.38 0.38 0.0 0 0 364.4676 266.6328
  L 364.4723 263.9528
  Z
  M 266.9938 291.4445
  A 5.23 5.23 0.0 0 0 261.7547 286.2236
  L 242.9747 286.2564
  A 5.23 5.23 0.0 0 0 237.7538 291.4955
  L 237.7862 310.0555
  A 5.23 5.23 0.0 0 0 243.0253 315.2764
  L 261.8053 315.2436
  A 5.23 5.23 0.0 0 0 267.0262 310.0045
  L 266.9938 291.4445
  Z
  M 320.4877 287.2460
  A 0.32 0.32 0.0 0 0 320.1671 286.9266
  L 281.8472 286.9934
  A 0.32 0.32 0.0 0 0 281.5277 287.3140
  L 281.5323 289.9540
  A 0.32 0.32 0.0 0 0 281.8529 290.2734
  L 320.1728 290.2066
  A 0.32 0.32 0.0 0 0 320.4923 289.8860
  L 320.4877 287.2460
  Z
  M 365.12 301.50
  A 0.44 0.44 0.0 0 0 364.68 301.06
  L 281.96 301.06
  A 0.44 0.44 0.0 0 0 281.52 301.50
  L 281.52 304.06
  A 0.44 0.44 0.0 0 0 281.96 304.50
  L 364.68 304.50
  A 0.44 0.44 0.0 0 0 365.12 304.06
  L 365.12 301.50
  Z
  M 364.48 312.12
  A 0.38 0.38 0.0 0 0 364.10 311.74
  L 281.40 311.74
  A 0.38 0.38 0.0 0 0 281.02 312.12
  L 281.02 314.62
  A 0.38 0.38 0.0 0 0 281.40 315.00
  L 364.10 315.00
  A 0.38 0.38 0.0 0 0 364.48 314.62
  L 364.48 312.12
  Z
  M 258.72 339.27
  A 7.08 7.08 0.0 0 0 251.64 332.19
  A 7.08 7.08 0.0 0 0 244.56 339.27
  A 7.08 7.08 0.0 0 0 251.64 346.35
  A 7.08 7.08 0.0 0 0 258.72 339.27
  Z
  M 283.29 339.28
  A 7.08 7.08 0.0 0 0 276.21 332.20
  A 7.08 7.08 0.0 0 0 269.13 339.28
  A 7.08 7.08 0.0 0 0 276.21 346.36
  A 7.08 7.08 0.0 0 0 283.29 339.28
  Z
  M 307.87 339.27
  A 7.07 7.07 0.0 0 0 300.80 332.20
  A 7.07 7.07 0.0 0 0 293.73 339.27
  A 7.07 7.07 0.0 0 0 300.80 346.34
  A 7.07 7.07 0.0 0 0 307.87 339.27
  Z
  M 332.44 339.27
  A 7.08 7.08 0.0 0 0 325.36 332.19
  A 7.08 7.08 0.0 0 0 318.28 339.27
  A 7.08 7.08 0.0 0 0 325.36 346.35
  A 7.08 7.08 0.0 0 0 332.44 339.27
  Z
  M 357.04 339.27
  A 7.08 7.08 0.0 0 0 349.96 332.19
  A 7.08 7.08 0.0 0 0 342.88 339.27
  A 7.08 7.08 0.0 0 0 349.96 346.35
  A 7.08 7.08 0.0 0 0 357.04 339.27
  Z"
/>
<path fill="#1f1633" d="
  M 386.00 202.22
  Q 386.20 201.71 385.71 202.50
  L 382.46 203.54
  L 382.60 128.26
  Q 382.63 126.78 383.46 126.17
  A 1.60 1.59 71.9 0 1 385.99 127.46
  C 386.00 135.23 386.30 143.10 385.55 150.90
  C 385.32 153.22 385.99 155.46 385.99 157.45
  Q 386.01 179.58 386.00 202.22
  Z"
/>
<path fill="#c9e6ec" d="
  M 201.98 178.16
  Q 202.03 178.51 201.89 178.77
  Q 201.78 178.97 201.45 179.11
  Q 180.67 188.20 159.30 196.99
  C 159.23 193.79 159.06 191.97 159.97 188.62
  C 161.18 184.19 158.73 181.92 157.21 178.16
  C 155.06 172.86 148.27 170.53 142.98 170.33
  Q 142.34 170.31 142.06 170.04
  Q 141.65 169.66 141.75 169.01
  Q 141.85 168.34 141.18 168.69
  Q 140.71 168.93 140.27 168.40
  Q 139.96 168.02 139.71 167.61
  Q 139.25 166.84 138.35 167.02
  A 0.80 0.79 1.8 0 0 137.75 167.58
  Q 137.46 168.71 136.53 168.28
  A 0.52 0.52 0.0 0 0 135.80 168.69
  L 135.66 169.69
  A 0.59 0.59 0.0 0 1 135.09 170.20
  C 129.05 170.23 120.35 172.25 118.35 178.77
  Q 117.82 180.51 116.88 182.35
  C 115.03 185.97 116.75 188.98 116.75 192.23
  C 116.74 197.25 115.28 206.13 119.47 209.62
  Q 118.99 212.03 119.71 214.15
  L 62.93 238.38
  L 51.88 243.30
  A 4.28 4.28 0.0 0 0 49.59 248.63
  Q 51.58 254.27 54.15 259.91
  C 56.02 264.01 57.87 266.57 62.65 264.59
  Q 68.42 262.19 74.66 259.52
  C 80.45 274.55 92.29 285.51 109.31 278.44
  Q 99.17 283.29 86.74 280.58
  Q 50.72 272.72 35.92 241.31
  C 17.65 202.52 39.02 156.77 79.98 145.20
  C 100.77 139.34 121.62 143.18 139.39 155.77
  C 143.50 158.68 147.78 162.11 151.81 164.40
  C 161.36 169.82 169.66 171.98 181.18 173.27
  Q 191.94 174.47 201.98 178.16
  Z"
/>
<path fill="#b4d7db" d="
  M 241.41 172.03
  Q 239.94 169.40 237.67 167.86
  Q 237.81 158.86 237.75 150.00
  C 237.72 145.36 239.10 142.83 243.91 142.78
  Q 253.20 142.68 262.06 142.78
  A 4.99 4.99 0.0 0 1 267.00 147.77
  L 267.00 166.96
  A 5.05 5.05 0.0 0 1 261.95 172.01
  L 241.41 172.03
  Z
  M 263.7362 148.2096
  A 1.96 1.96 0.0 0 0 261.7796 146.2462
  L 243.2196 146.2138
  A 1.96 1.96 0.0 0 0 241.2562 148.1704
  L 241.2238 166.7504
  A 1.96 1.96 0.0 0 0 243.1804 168.7138
  L 261.7404 168.7462
  A 1.96 1.96 0.0 0 0 263.7038 166.7896
  L 263.7362 148.2096
  Z"
/>
<rect fill="#b4d7db" x="-19.49" y="-1.64" transform="translate(300.99,144.39) rotate(0.1)" width="38.98" height="3.28" rx="0.31"/>
<rect fill="#ffffff" x="-11.24" y="-11.25" transform="translate(252.48,157.48) rotate(0.1)" width="22.48" height="22.50" rx="1.96"/>
<path fill="#b4d7db" d="
  M 364.96 158.11
  L 365.15 159.78
  Q 365.21 160.25 364.73 160.25
  L 282.00 160.25
  Q 281.50 160.25 281.50 159.75
  L 281.50 157.50
  Q 281.50 157.00 282.00 157.00
  L 364.56 157.00
  Q 364.92 157.00 365.16 157.28
  Q 365.38 157.55 365.07 157.82
  Q 364.94 157.94 364.96 158.11
  Z"
/>
<path fill="#38ae96" d="
  M 237.67 167.86
  Q 239.94 169.40 241.41 172.03
  C 244.67 180.65 238.58 184.11 231.76 186.82
  L 230.30 183.68
  L 227.24 176.52
  L 224.50 169.51
  Q 224.75 168.89 225.74 168.29
  Q 225.97 168.83 226.69 168.44
  Q 232.15 165.40 237.67 167.86
  Z"
/>
<path fill="#422505" d="
  M 159.30 196.99
  Q 159.73 199.84 156.58 200.06
  C 154.02 199.49 154.79 196.78 154.73 194.86
  Q 154.72 194.33 154.21 194.47
  Q 151.14 195.30 148.26 194.05
  A 1.29 1.26 -42.6 0 0 147.30 194.02
  Q 138.50 197.13 129.56 194.37
  Q 129.00 194.20 129.00 194.79
  L 129.00 206.93
  A 1.04 1.04 0.0 0 1 128.17 207.95
  L 126.25 208.33
  Q 125.50 208.49 125.50 207.72
  L 125.50 200.48
  Q 125.50 199.96 124.98 199.93
  C 118.71 199.56 117.85 206.16 121.30 209.93
  Q 122.11 210.82 121.02 210.32
  L 119.47 209.62
  C 115.28 206.13 116.74 197.25 116.75 192.23
  C 116.75 188.98 115.03 185.97 116.88 182.35
  Q 117.82 180.51 118.35 178.77
  C 120.35 172.25 129.05 170.23 135.09 170.20
  A 0.59 0.59 0.0 0 0 135.66 169.69
  L 135.80 168.69
  A 0.52 0.52 0.0 0 1 136.53 168.28
  Q 137.46 168.71 137.75 167.58
  A 0.80 0.79 1.8 0 1 138.35 167.02
  Q 139.25 166.84 139.71 167.61
  Q 139.96 168.02 140.27 168.40
  Q 140.71 168.93 141.18 168.69
  Q 141.85 168.34 141.75 169.01
  Q 141.65 169.66 142.06 170.04
  Q 142.34 170.31 142.98 170.33
  C 148.27 170.53 155.06 172.86 157.21 178.16
  C 158.73 181.92 161.18 184.19 159.97 188.62
  C 159.06 191.97 159.23 193.79 159.30 196.99
  Z"
/>
<rect fill="#b4d7db" x="281.03" y="167.50" width="83.48" height="3.50" rx="0.40"/>
<path fill="#e4f1f7" d="
  M 224.50 169.51
  L 227.24 176.52
  L 159.59 205.38
  Q 159.13 202.35 156.58 200.06
  Q 159.73 199.84 159.30 196.99
  Q 180.67 188.20 201.45 179.11
  Q 201.78 178.97 201.89 178.77
  Q 202.03 178.51 201.98 178.16
  Q 202.87 178.89 203.71 178.49
  Q 214.03 173.62 224.50 169.51
  Z"
/>
<path fill="#c9e6ec" d="
  M 227.24 176.52
  L 230.30 183.68
  L 157.36 214.71
  Q 156.35 210.93 158.79 208.24
  Q 159.14 207.87 159.23 207.36
  L 159.59 205.38
  L 227.24 176.52
  Z"
/>
<path fill="#b4d7db" d="
  M 230.30 183.68
  L 231.76 186.82
  L 222.34 190.93
  L 199.98 200.54
  Q 199.59 200.70 199.36 201.07
  L 199.08 201.51
  Q 199.04 201.20 198.92 201.08
  Q 198.82 200.97 198.57 201.08
  Q 192.00 203.80 185.71 206.48
  L 156.93 218.73
  L 157.36 214.71
  L 230.30 183.68
  Z"
/>
<path fill="#b4d7db" d="
  M 267.0260 214.3045
  A 5.44 5.44 0.0 0 1 261.5955 219.7540
  L 243.2355 219.7860
  A 5.44 5.44 0.0 0 1 237.7860 214.3555
  L 237.7540 195.9955
  A 5.44 5.44 0.0 0 1 243.1845 190.5460
  L 261.5445 190.5140
  A 5.44 5.44 0.0 0 1 266.9940 195.9445
  L 267.0260 214.3045
  Z
  M 263.73 195.92
  A 1.92 1.92 0.0 0 0 261.81 194.00
  L 243.07 194.00
  A 1.92 1.92 0.0 0 0 241.15 195.92
  L 241.15 214.56
  A 1.92 1.92 0.0 0 0 243.07 216.48
  L 261.81 216.48
  A 1.92 1.92 0.0 0 0 263.73 214.56
  L 263.73 195.92
  Z"
/>
<rect fill="#b4d7db" x="281.50" y="190.50" width="39.00" height="3.50" rx="0.66"/>
<path fill="#c9e6ec" d="
  M 222.34 190.93
  L 225.32 194.28
  Q 225.68 194.68 225.68 195.22
  L 225.71 229.17
  C 209.25 216.51 192.69 231.16 187.31 246.57
  Q 183.89 256.40 175.84 260.66
  C 168.93 264.32 165.83 271.60 165.83 279.24
  Q 165.83 282.11 165.63 284.47
  Q 160.03 284.89 155.74 282.68
  Q 155.03 281.26 154.06 281.22
  L 153.99 244.25
  Q 153.99 243.73 154.51 243.74
  C 180.93 243.99 196.92 227.16 199.08 201.51
  L 199.36 201.07
  Q 199.59 200.70 199.98 200.54
  L 222.34 190.93
  Z"
/>
<path fill="#41378d" d="
  M 411.23 191.17
  L 411.25 235.95
  L 386.54 246.86
  Q 386.00 247.09 386.00 246.50
  L 386.00 203.26
  A 0.34 0.34 0.0 0 0 385.89 203.01
  Q 385.69 202.84 385.71 202.50
  Q 386.20 201.71 386.00 202.22
  L 411.23 191.17
  Z"
/>
<path fill="#f2b47b" d="
  M 156.58 200.06
  Q 159.13 202.35 159.59 205.38
  L 159.23 207.36
  Q 159.14 207.87 158.79 208.24
  Q 156.35 210.93 157.36 214.71
  L 156.93 218.73
  Q 153.89 227.94 143.51 228.03
  Q 142.99 228.03 142.99 228.55
  Q 142.99 229.15 143.59 229.23
  L 142.49 235.02
  Q 137.39 239.39 132.73 235.13
  L 131.79 229.90
  Q 132.68 226.59 130.45 226.53
  Q 125.41 223.92 123.12 220.87
  L 119.71 214.15
  Q 118.99 212.03 119.47 209.62
  L 121.02 210.32
  Q 122.11 210.82 121.30 209.93
  C 117.85 206.16 118.71 199.56 124.98 199.93
  Q 125.50 199.96 125.50 200.48
  L 125.50 207.72
  Q 125.50 208.49 126.25 208.33
  L 128.17 207.95
  A 1.04 1.04 0.0 0 0 129.00 206.93
  L 129.00 194.79
  Q 129.00 194.20 129.56 194.37
  Q 138.50 197.13 147.30 194.02
  A 1.29 1.26 -42.6 0 1 148.26 194.05
  Q 151.14 195.30 154.21 194.47
  Q 154.72 194.33 154.73 194.86
  C 154.79 196.78 154.02 199.49 156.58 200.06
  Z
  M 141.01 205.01
  C 140.24 201.56 135.06 202.44 133.51 204.87
  A 0.43 0.43 0.0 0 0 134.17 205.41
  Q 137.27 202.42 140.41 205.35
  A 0.36 0.36 0.0 0 0 141.01 205.01
  Z
  M 156.01 204.71
  C 156.07 202.28 151.72 201.93 150.85 204.85
  A 0.34 0.34 0.0 0 0 151.41 205.20
  L 152.75 203.92
  Q 153.32 203.37 153.93 203.87
  L 155.34 205.02
  A 0.41 0.41 0.0 0 0 156.01 204.71
  Z
  M 141.72 216.22
  Q 145.28 218.73 149.18 216.20
  Q 150.62 215.22 151.38 213.59
  A 0.95 0.94 12.5 0 0 150.52 212.25
  L 139.78 212.28
  Q 139.08 212.28 139.25 212.96
  Q 139.79 215.06 141.72 216.22
  Z"
/>
<path fill="#ffffff" d="
  M 263.73 214.56
  A 1.92 1.92 0.0 0 1 261.81 216.48
  L 243.07 216.48
  A 1.92 1.92 0.0 0 1 241.15 214.56
  L 241.15 195.92
  A 1.92 1.92 0.0 0 1 243.07 194.00
  L 261.81 194.00
  A 1.92 1.92 0.0 0 1 263.73 195.92
  L 263.73 214.56
  Z
  M 250.88 207.43
  L 247.59 204.43
  A 1.78 1.78 0.0 0 0 244.74 205.09
  Q 244.22 206.42 245.40 207.62
  Q 247.53 209.77 249.84 211.87
  Q 251.24 213.13 252.58 211.80
  L 261.43 202.94
  A 0.79 0.78 59.7 0 0 261.63 202.15
  L 261.34 201.14
  A 1.61 1.61 0.0 0 0 258.66 200.46
  L 251.72 207.41
  Q 251.31 207.82 250.88 207.43
  Z"
/>
<path fill="#3c5a73" d="
  M 251.72 207.41
  L 258.66 200.46
  A 1.61 1.61 0.0 0 1 261.34 201.14
  L 261.63 202.15
  A 0.79 0.78 59.7 0 1 261.43 202.94
  L 252.58 211.80
  Q 251.24 213.13 249.84 211.87
  Q 247.53 209.77 245.40 207.62
  Q 244.22 206.42 244.74 205.09
  A 1.78 1.78 0.0 0 1 247.59 204.43
  L 250.88 207.43
  Q 251.31 207.82 251.72 207.41
  Z"
/>
<path fill="#50374c" d="
  M 199.08 201.51
  C 196.92 227.16 180.93 243.99 154.51 243.74
  Q 153.99 243.73 153.99 244.25
  L 154.06 281.22
  L 147.58 281.26
  Q 147.10 281.26 147.09 281.74
  C 146.77 291.02 145.64 298.85 154.93 301.96
  Q 152.85 304.53 154.65 309.26
  Q 153.84 309.23 154.02 310.50
  Q 154.36 313.03 153.08 314.55
  Q 152.07 313.03 151.06 313.26
  L 150.31 313.22
  L 145.14 305.98
  Q 142.95 300.83 143.14 296.24
  L 145.95 249.78
  Q 145.98 249.31 145.62 249.02
  L 143.75 247.43
  A 0.67 0.67 0.0 0 1 143.75 246.41
  L 147.71 243.03
  A 0.85 0.82 74.0 0 0 148.00 242.49
  L 149.32 230.89
  C 167.33 233.04 182.17 225.51 185.71 206.48
  Q 192.00 203.80 198.57 201.08
  Q 198.82 200.97 198.92 201.08
  Q 199.04 201.20 199.08 201.51
  Z"
/>
<path fill="#31285f" d="
  M 385.71 202.50
  Q 385.69 202.84 385.89 203.01
  A 0.34 0.34 0.0 0 1 386.00 203.26
  L 386.00 246.50
  Q 386.00 247.09 386.54 246.86
  L 411.25 235.95
  L 411.19 245.59
  L 386.37 256.49
  Q 386.00 256.65 386.00 257.06
  L 386.00 295.25
  Q 386.00 295.92 386.62 295.65
  L 411.24 284.77
  L 411.24 383.50
  A 0.50 0.50 0.0 0 1 410.74 384.00
  L 252.44 384.00
  Q 251.85 384.00 251.85 383.41
  L 251.83 377.72
  Q 251.55 378.53 252.04 377.37
  L 385.07 377.45
  A 0.93 0.93 0.0 0 0 386.00 376.52
  L 386.00 296.97
  A 0.70 0.70 0.0 0 0 384.96 296.36
  Q 383.97 296.91 382.81 297.01
  L 382.46 203.54
  L 385.71 202.50
  Z"
/>
<path fill="#422505" d="
  M 133.51 204.87
  C 135.06 202.44 140.24 201.56 141.01 205.01
  A 0.36 0.36 0.0 0 1 140.41 205.35
  Q 137.27 202.42 134.17 205.41
  A 0.43 0.43 0.0 0 1 133.51 204.87
  Z"
/>
<path fill="#422505" d="
  M 150.85 204.85
  C 151.72 201.93 156.07 202.28 156.01 204.71
  A 0.41 0.41 0.0 0 1 155.34 205.02
  L 153.93 203.87
  Q 153.32 203.37 152.75 203.92
  L 151.41 205.20
  A 0.34 0.34 0.0 0 1 150.85 204.85
  Z"
/>
<rect fill="#b4d7db" x="281.50" y="204.75" width="83.62" height="3.46" rx="0.50"/>
<path fill="#c9e6ec" d="
  M 185.71 206.48
  C 182.17 225.51 167.33 233.04 149.32 230.89
  L 143.59 229.23
  Q 142.99 229.15 142.99 228.55
  Q 142.99 228.03 143.51 228.03
  Q 153.89 227.94 156.93 218.73
  L 185.71 206.48
  Z"
/>
<path fill="#422505" d="
  M 149.18 216.20
  C 147.70 213.62 142.57 212.89 141.72 216.22
  Q 139.79 215.06 139.25 212.96
  Q 139.08 212.28 139.78 212.28
  L 150.52 212.25
  A 0.95 0.94 12.5 0 1 151.38 213.59
  Q 150.62 215.22 149.18 216.20
  Z"
/>
<path fill="#b58255" d="
  M 149.18 216.20
  Q 145.28 218.73 141.72 216.22
  C 142.57 212.89 147.70 213.62 149.18 216.20
  Z"
/>
<path fill="#e4f1f7" d="
  M 119.71 214.15
  L 123.12 220.87
  L 79.04 239.74
  Q 72.55 237.15 69.83 244.07
  Q 68.08 244.33 66.05 245.61
  L 62.93 238.38
  L 119.71 214.15
  Z"
/>
<rect fill="#b4d7db" x="281.01" y="215.27" width="83.48" height="3.48" rx="0.53"/>
<path fill="#c9e6ec" d="
  M 123.12 220.87
  Q 125.41 223.92 130.45 226.53
  L 82.66 247.00
  Q 81.79 242.08 79.04 239.74
  L 123.12 220.87
  Z"
/>
<path fill="#38ae96" d="
  M 225.71 229.17
  L 225.74 357.40
  Q 225.74 357.81 225.36 357.97
  C 218.96 360.66 213.17 360.11 206.27 360.45
  Q 206.32 348.22 206.56 335.99
  C 206.77 324.91 209.40 312.98 221.19 308.78
  Q 221.67 308.61 221.53 308.12
  L 221.15 306.79
  Q 220.97 306.15 220.35 306.39
  Q 210.84 309.99 206.90 319.35
  A 0.22 0.22 0.0 0 1 206.48 319.27
  L 206.85 256.30
  Q 206.85 255.75 206.30 255.75
  L 204.50 255.75
  Q 204.00 255.75 203.99 256.25
  L 203.67 296.24
  A 0.25 0.24 -56.6 0 1 203.20 296.34
  Q 198.72 285.76 188.70 280.15
  Q 188.11 279.82 187.72 280.36
  L 187.09 281.23
  Q 186.75 281.71 187.26 282.02
  Q 198.40 288.69 201.99 300.30
  Q 203.48 305.14 203.49 315.86
  Q 203.52 331.58 203.49 347.08
  A 0.40 0.40 0.0 0 1 202.74 347.26
  Q 198.03 337.84 188.71 332.88
  Q 188.12 332.56 187.72 333.11
  L 187.09 333.99
  Q 186.72 334.50 187.27 334.81
  Q 202.31 343.19 203.31 360.60
  Q 203.31 360.69 203.38 360.75
  Q 203.48 360.85 203.58 360.96
  A 0.58 0.58 0.0 0 1 203.75 361.37
  L 203.40 376.88
  Q 202.51 370.09 203.39 363.15
  A 1.47 1.47 0.0 0 0 201.29 361.64
  Q 197.20 363.60 192.14 363.62
  Q 176.91 362.64 172.47 348.49
  C 171.30 344.76 172.23 339.72 171.21 335.63
  C 169.78 329.91 165.12 326.22 163.53 320.11
  Q 163.45 319.80 163.14 319.69
  Q 162.54 319.48 162.97 319.27
  C 162.77 311.67 164.15 306.14 169.28 301.09
  A 1.89 1.88 56.9 0 0 169.71 299.04
  Q 166.79 291.87 165.63 284.47
  Q 165.83 282.11 165.83 279.24
  C 165.83 271.60 168.93 264.32 175.84 260.66
  Q 183.89 256.40 187.31 246.57
  C 192.69 231.16 209.25 216.51 225.71 229.17
  Z"
/>
<path fill="#b4d7db" d="
  M 130.45 226.53
  Q 132.68 226.59 131.79 229.90
  L 127.66 231.33
  L 84.29 249.98
  Q 84.25 250.00 84.24 250.04
  Q 84.19 250.16 84.14 250.28
  L 82.66 247.00
  L 130.45 226.53
  Z"
/>
<path fill="#695a6f" d="
  M 143.59 229.23
  L 149.32 230.89
  L 148.00 242.49
  A 0.85 0.82 74.0 0 1 147.71 243.03
  L 143.75 246.41
  A 0.67 0.67 0.0 0 0 143.75 247.43
  L 145.62 249.02
  Q 145.98 249.31 145.95 249.78
  L 143.14 296.24
  Q 140.68 278.96 138.94 262.10
  Q 138.56 258.35 139.20 254.56
  Q 140.84 244.99 142.49 235.02
  L 143.59 229.23
  Z"
/>
<path fill="#695a6f" d="
  M 131.79 229.90
  L 132.73 235.13
  L 136.45 258.25
  A 2.04 2.01 44.5 0 1 136.46 258.85
  L 132.24 294.60
  Q 131.25 291.00 130.93 285.06
  Q 129.96 267.47 128.99 249.88
  Q 128.96 249.30 129.43 248.97
  L 131.07 247.79
  A 0.94 0.93 -42.4 0 0 131.14 246.33
  L 127.32 242.97
  A 1.05 1.05 0.0 0 1 126.96 242.06
  Q 127.23 239.44 126.52 237.23
  Q 129.14 234.16 127.66 231.33
  L 131.79 229.90
  Z"
/>
<path fill="#6c9caa" d="
  M 127.66 231.33
  Q 129.14 234.16 126.52 237.23
  Q 119.48 240.41 112.39 243.43
  Q 112.02 243.58 111.85 243.86
  Q 111.69 244.13 111.56 244.50
  Q 111.11 243.97 110.31 244.31
  Q 98.35 249.42 86.14 254.60
  L 84.42 250.78
  Q 84.19 250.66 84.14 250.28
  Q 84.19 250.16 84.24 250.04
  Q 84.25 250.00 84.29 249.98
  L 127.66 231.33
  Z"
/>
<path fill="#ffffff" d="
  M 132.73 235.13
  Q 137.39 239.39 142.49 235.02
  Q 140.84 244.99 139.20 254.56
  Q 138.56 258.35 138.94 262.10
  Q 140.68 278.96 143.14 296.24
  Q 142.95 300.83 145.14 305.98
  L 129.90 305.95
  Q 132.11 300.46 132.24 294.60
  L 136.46 258.85
  A 2.04 2.01 44.5 0 0 136.45 258.25
  L 132.73 235.13
  Z"
/>
<path fill="#50374c" d="
  M 126.52 237.23
  Q 127.23 239.44 126.96 242.06
  A 1.05 1.05 0.0 0 0 127.32 242.97
  L 131.14 246.33
  A 0.94 0.93 -42.4 0 1 131.07 247.79
  L 129.43 248.97
  Q 128.96 249.30 128.99 249.88
  Q 129.96 267.47 130.93 285.06
  Q 131.25 291.00 132.24 294.60
  Q 132.11 300.46 129.90 305.95
  Q 124.60 315.31 113.70 316.59
  Q 112.83 316.69 112.69 315.81
  Q 111.83 310.57 112.38 304.22
  Q 113.27 303.39 112.93 302.03
  Q 112.82 301.58 113.28 301.64
  C 127.11 303.31 125.23 291.65 124.91 281.70
  Q 124.90 281.25 124.45 281.25
  L 113.22 281.25
  Q 112.58 281.25 112.72 280.62
  Q 113.27 278.25 112.34 277.19
  Q 110.86 277.27 109.31 278.44
  C 92.29 285.51 80.45 274.55 74.66 259.52
  Q 73.55 257.96 73.51 256.43
  L 84.42 250.78
  L 86.14 254.60
  Q 88.23 259.76 91.82 264.21
  C 96.06 269.47 103.29 269.81 106.85 263.88
  C 110.08 258.50 111.24 250.25 111.56 244.50
  Q 111.69 244.13 111.85 243.86
  Q 112.02 243.58 112.39 243.43
  Q 119.48 240.41 126.52 237.23
  Z"
/>
<path fill="#b4d7db" d="
  M 266.9739 262.1655
  A 5.46 5.46 0.0 0 1 261.5044 267.6159
  L 243.2244 267.5840
  A 5.46 5.46 0.0 0 1 237.7740 262.1145
  L 237.8061 243.7145
  A 5.46 5.46 0.0 0 1 243.2756 238.2641
  L 261.5556 238.2960
  A 5.46 5.46 0.0 0 1 267.0060 243.7655
  L 266.9739 262.1655
  Z
  M 263.73 243.73
  A 1.98 1.98 0.0 0 0 261.75 241.75
  L 243.09 241.75
  A 1.98 1.98 0.0 0 0 241.11 243.73
  L 241.11 262.27
  A 1.98 1.98 0.0 0 0 243.09 264.25
  L 261.75 264.25
  A 1.98 1.98 0.0 0 0 263.73 262.27
  L 263.73 243.73
  Z"
/>
<path fill="#6c9caa" d="
  M 62.93 238.38
  L 66.05 245.61
  C 67.37 249.07 68.70 253.23 72.49 253.77
  L 73.51 256.43
  Q 73.55 257.96 74.66 259.52
  Q 68.42 262.19 62.65 264.59
  C 57.87 266.57 56.02 264.01 54.15 259.91
  Q 51.58 254.27 49.59 248.63
  A 4.28 4.28 0.0 0 1 51.88 243.30
  L 62.93 238.38
  Z"
/>
<rect fill="#b4d7db" x="281.49" y="238.74" width="39.00" height="3.26" rx="0.51"/>
<path fill="#f2b47b" d="
  M 79.04 239.74
  Q 81.79 242.08 82.66 247.00
  L 84.14 250.28
  Q 84.19 250.66 84.42 250.78
  L 73.51 256.43
  L 72.49 253.77
  L 69.83 244.07
  Q 72.55 237.15 79.04 239.74
  Z"
/>
<path fill="#ffffff" d="
  M 263.73 262.27
  A 1.98 1.98 0.0 0 1 261.75 264.25
  L 243.09 264.25
  A 1.98 1.98 0.0 0 1 241.11 262.27
  L 241.11 243.73
  A 1.98 1.98 0.0 0 1 243.09 241.75
  L 261.75 241.75
  A 1.98 1.98 0.0 0 1 263.73 243.73
  L 263.73 262.27
  Z
  M 247.92 252.65
  C 246.13 250.70 243.30 253.21 245.17 255.08
  Q 247.78 257.70 250.15 260.01
  A 1.59 1.58 -45.4 0 0 252.38 259.99
  Q 256.56 255.83 260.56 251.81
  C 261.63 250.73 262.15 249.54 260.76 248.46
  A 1.68 1.68 0.0 0 0 258.53 248.60
  L 251.67 255.46
  Q 251.22 255.90 250.80 255.44
  C 249.88 254.44 248.82 253.62 247.92 252.65
  Z"
/>
<path fill="#c9e6ec" d="
  M 69.83 244.07
  L 72.49 253.77
  C 68.70 253.23 67.37 249.07 66.05 245.61
  Q 68.08 244.33 69.83 244.07
  Z"
/>
<path fill="#c9e6ec" d="
  M 111.56 244.50
  C 111.24 250.25 110.08 258.50 106.85 263.88
  C 103.29 269.81 96.06 269.47 91.82 264.21
  Q 88.23 259.76 86.14 254.60
  Q 98.35 249.42 110.31 244.31
  Q 111.11 243.97 111.56 244.50
  Z"
/>
<path fill="#41378d" d="
  M 411.19 245.59
  L 411.24 284.77
  L 386.62 295.65
  Q 386.00 295.92 386.00 295.25
  L 386.00 257.06
  Q 386.00 256.65 386.37 256.49
  L 411.19 245.59
  Z"
/>
<path fill="#3c5a73" d="
  M 247.92 252.65
  C 248.82 253.62 249.88 254.44 250.80 255.44
  Q 251.22 255.90 251.67 255.46
  L 258.53 248.60
  A 1.68 1.68 0.0 0 1 260.76 248.46
  C 262.15 249.54 261.63 250.73 260.56 251.81
  Q 256.56 255.83 252.38 259.99
  A 1.59 1.58 -45.4 0 1 250.15 260.01
  Q 247.78 257.70 245.17 255.08
  C 243.30 253.21 246.13 250.70 247.92 252.65
  Z"
/>
<rect fill="#b4d7db" x="-41.79" y="-1.71" transform="translate(323.31,254.54) rotate(-0.1)" width="83.58" height="3.42" rx="0.52"/>
<path fill="#187d75" d="
  M 206.27 360.45
  L 206.15 379.48
  Q 204.77 379.98 203.07 379.41
  Q 202.92 377.58 203.40 376.88
  L 203.75 361.37
  A 0.58 0.58 0.0 0 0 203.58 360.96
  Q 203.48 360.85 203.38 360.75
  Q 203.31 360.69 203.31 360.60
  Q 202.31 343.19 187.27 334.81
  Q 186.72 334.50 187.09 333.99
  L 187.72 333.11
  Q 188.12 332.56 188.71 332.88
  Q 198.03 337.84 202.74 347.26
  A 0.40 0.40 0.0 0 0 203.49 347.08
  Q 203.52 331.58 203.49 315.86
  Q 203.48 305.14 201.99 300.30
  Q 198.40 288.69 187.26 282.02
  Q 186.75 281.71 187.09 281.23
  L 187.72 280.36
  Q 188.11 279.82 188.70 280.15
  Q 198.72 285.76 203.20 296.34
  A 0.25 0.24 -56.6 0 0 203.67 296.24
  L 203.99 256.25
  Q 204.00 255.75 204.50 255.75
  L 206.30 255.75
  Q 206.85 255.75 206.85 256.30
  L 206.48 319.27
  A 0.22 0.22 0.0 0 0 206.90 319.35
  Q 210.84 309.99 220.35 306.39
  Q 220.97 306.15 221.15 306.79
  L 221.53 308.12
  Q 221.67 308.61 221.19 308.78
  C 209.40 312.98 206.77 324.91 206.56 335.99
  Q 206.32 348.22 206.27 360.45
  Z"
/>
<rect fill="#b4d7db" x="-41.71" y="-1.72" transform="translate(322.76,265.22) rotate(0.1)" width="83.42" height="3.44" rx="0.38"/>
<path fill="#695a6f" d="
  M 112.38 304.22
  C 111.74 301.86 111.00 299.64 110.89 297.20
  Q 110.44 287.27 112.34 277.19
  Q 113.27 278.25 112.72 280.62
  Q 112.58 281.25 113.22 281.25
  L 124.45 281.25
  Q 124.90 281.25 124.91 281.70
  C 125.23 291.65 127.11 303.31 113.28 301.64
  Q 112.82 301.58 112.93 302.03
  Q 113.27 303.39 112.38 304.22
  Z"
/>
<path fill="#695a6f" d="
  M 154.06 281.22
  Q 155.03 281.26 155.74 282.68
  Q 155.01 282.79 155.02 283.25
  Q 155.16 292.75 154.93 301.96
  C 145.64 298.85 146.77 291.02 147.09 281.74
  Q 147.10 281.26 147.58 281.26
  L 154.06 281.22
  Z"
/>
<path fill="#b4d7db" d="
  M 267.0262 310.0045
  A 5.23 5.23 0.0 0 1 261.8053 315.2436
  L 243.0253 315.2764
  A 5.23 5.23 0.0 0 1 237.7862 310.0555
  L 237.7538 291.4955
  A 5.23 5.23 0.0 0 1 242.9747 286.2564
  L 261.7547 286.2236
  A 5.23 5.23 0.0 0 1 266.9938 291.4445
  L 267.0262 310.0045
  Z
  M 263.7339 291.5203
  A 2.04 2.04 0.0 0 0 261.6904 289.4838
  L 243.1304 289.5162
  A 2.04 2.04 0.0 0 0 241.0939 291.5598
  L 241.1261 309.9797
  A 2.04 2.04 0.0 0 0 243.1696 312.0162
  L 261.7296 311.9838
  A 2.04 2.04 0.0 0 0 263.7661 309.9402
  L 263.7339 291.5203
  Z"
/>
<rect fill="#b4d7db" x="-19.48" y="-1.64" transform="translate(301.01,288.60) rotate(-0.1)" width="38.96" height="3.28" rx="0.32"/>
<path fill="#ffffff" d="
  M 263.7661 309.9402
  A 2.04 2.04 0.0 0 1 261.7296 311.9838
  L 243.1696 312.0162
  A 2.04 2.04 0.0 0 1 241.1261 309.9797
  L 241.0939 291.5598
  A 2.04 2.04 0.0 0 1 243.1304 289.5162
  L 261.6904 289.4838
  A 2.04 2.04 0.0 0 1 263.7339 291.5203
  L 263.7661 309.9402
  Z
  M 250.82 302.44
  C 249.72 301.33 246.10 296.72 244.70 300.15
  A 1.93 1.93 0.0 0 0 245.12 302.25
  L 249.65 306.76
  Q 251.11 308.22 252.59 306.77
  Q 256.65 302.77 260.72 298.63
  C 261.63 297.70 261.91 296.45 260.92 295.53
  A 1.71 1.71 0.0 0 0 258.55 295.58
  L 251.68 302.44
  Q 251.25 302.87 250.82 302.44
  Z"
/>
<path fill="#3c5a73" d="
  M 251.68 302.44
  L 258.55 295.58
  A 1.71 1.71 0.0 0 1 260.92 295.53
  C 261.91 296.45 261.63 297.70 260.72 298.63
  Q 256.65 302.77 252.59 306.77
  Q 251.11 308.22 249.65 306.76
  L 245.12 302.25
  A 1.93 1.93 0.0 0 1 244.70 300.15
  C 246.10 296.72 249.72 301.33 250.82 302.44
  Q 251.25 302.87 251.68 302.44
  Z"
/>
<path fill="#1f1633" d="
  M 252.04 377.37
  L 251.76 374.01
  L 381.61 374.01
  A 0.83 0.83 0.0 0 0 382.44 373.18
  L 382.81 297.01
  Q 383.97 296.91 384.96 296.36
  A 0.70 0.70 0.0 0 1 386.00 296.97
  L 386.00 376.52
  A 0.93 0.93 0.0 0 1 385.07 377.45
  L 252.04 377.37
  Z"
/>
<rect fill="#b4d7db" x="281.52" y="301.06" width="83.60" height="3.44" rx="0.44"/>
<path fill="#3c142e" d="
  M 129.90 305.95
  L 145.14 305.98
  L 150.31 313.22
  Q 149.79 316.63 150.74 319.35
  L 150.81 368.50
  Q 150.81 368.86 151.15 368.99
  L 151.56 369.15
  L 151.01 369.29
  Q 150.68 369.17 150.43 369.42
  A 0.38 0.37 67.5 0 0 150.31 369.72
  L 150.69 376.01
  L 150.75 397.72
  L 149.89 400.61
  Q 149.75 401.08 149.26 401.08
  L 134.02 401.20
  Q 133.90 401.06 133.79 400.92
  L 133.55 390.31
  L 133.60 348.39
  L 133.68 333.17
  Q 133.68 332.71 133.86 332.27
  Q 134.33 331.09 132.79 330.88
  A 1.54 1.53 -85.4 0 0 131.06 332.36
  Q 130.83 340.44 131.05 349.24
  Q 131.06 349.52 131.45 349.58
  Q 131.28 350.63 131.25 351.82
  C 131.01 363.88 130.38 376.33 131.48 388.36
  L 131.08 401.04
  L 113.99 401.21
  L 113.70 316.59
  Q 124.60 315.31 129.90 305.95
  Z"
/>
<path fill="#ffffff" d="
  M 162.97 319.27
  Q 162.54 319.48 163.14 319.69
  Q 163.45 319.80 163.53 320.11
  C 165.12 326.22 169.78 329.91 171.21 335.63
  C 172.23 339.72 171.30 344.76 172.47 348.49
  Q 176.91 362.64 192.14 363.62
  Q 186.49 363.10 185.97 366.92
  Q 185.00 374.04 182.93 379.22
  L 182.98 385.33
  L 182.74 386.76
  L 182.97 399.75
  Q 177.91 405.04 179.74 414.78
  Q 173.75 416.18 166.58 415.31
  Q 166.92 414.70 166.96 414.25
  A 0.93 0.92 -87.7 0 0 166.04 413.25
  L 165.28 413.25
  A 0.56 0.56 0.0 0 1 164.72 412.63
  Q 165.20 407.91 161.06 406.68
  Q 160.86 406.50 161.34 405.95
  L 162.48 403.78
  Q 162.71 403.34 163.12 403.07
  C 166.14 401.11 169.99 398.84 169.81 394.75
  Q 169.54 388.43 169.60 384.81
  Q 169.66 381.61 166.99 380.70
  Q 158.88 377.95 154.41 371.69
  C 153.64 370.60 152.59 369.91 151.56 369.15
  L 151.15 368.99
  Q 150.81 368.86 150.81 368.50
  L 150.74 319.35
  Q 151.53 318.68 151.13 319.46
  L 153.08 314.55
  Q 154.36 313.03 154.02 310.50
  Q 153.84 309.23 154.65 309.26
  Q 155.20 308.85 155.45 308.08
  Q 155.66 307.39 156.01 308.03
  L 156.43 308.82
  Q 156.66 309.25 157.01 309.59
  Q 161.05 313.44 162.16 319.05
  Q 162.21 319.30 162.97 319.27
  Z"
/>
<rect fill="#b4d7db" x="281.02" y="311.74" width="83.46" height="3.26" rx="0.38"/>
<path fill="#695a6f" d="
  M 150.31 313.22
  L 151.06 313.26
  L 151.13 319.46
  Q 151.53 318.68 150.74 319.35
  Q 149.79 316.63 150.31 313.22
  Z"
/>
<circle fill="#b4d7db" cx="251.64" cy="339.27" r="7.08"/>
<circle fill="#b4d7db" cx="276.21" cy="339.28" r="7.08"/>
<circle fill="#b4d7db" cx="300.80" cy="339.27" r="7.07"/>
<circle fill="#b4d7db" cx="325.36" cy="339.27" r="7.08"/>
<circle fill="#b4d7db" cx="349.96" cy="339.27" r="7.08"/>
<path fill="#ffffff" d="
  M 133.60 348.39
  L 133.55 390.31
  Q 132.77 388.65 131.48 388.36
  C 130.38 376.33 131.01 363.88 131.25 351.82
  Q 131.28 350.63 131.45 349.58
  L 133.60 348.39
  Z"
/>
<path fill="#695a6f" d="
  M 151.01 369.29
  L 150.69 376.01
  L 150.31 369.72
  A 0.38 0.37 67.5 0 1 150.43 369.42
  Q 150.68 369.17 151.01 369.29
  Z"
/>
<path fill="#b4d7db" d="
  M 236.49 374.12
  L 236.69 377.51
  L 230.33 377.23
  A 1.58 1.58 0.0 0 1 230.41 374.08
  L 236.49 374.12
  Z"
/>
<path fill="#5146af" d="
  M 251.76 374.01
  L 252.04 377.37
  Q 251.55 378.53 251.83 377.72
  L 236.69 377.51
  L 236.49 374.12
  L 251.76 374.01
  Z"
/>
<path fill="#b58255" d="
  M 182.93 379.22
  Q 193.04 380.17 203.07 379.41
  Q 204.77 379.98 206.15 379.48
  C 212.04 379.86 221.15 378.61 226.56 380.21
  Q 227.06 382.55 226.51 385.13
  L 182.98 385.33
  L 182.93 379.22
  Z"
/>
<path fill="#f2b47b" d="
  M 226.51 385.13
  Q 226.41 385.93 226.74 386.99
  Q 226.13 387.24 226.27 387.79
  L 225.93 387.24
  Q 225.67 386.82 225.18 386.82
  L 183.19 386.59
  Q 183.07 386.59 182.96 386.65
  L 182.74 386.76
  L 182.98 385.33
  L 226.51 385.13
  Z"
/>
<path fill="#b58255" d="
  M 226.27 387.79
  C 227.49 400.24 224.88 409.61 212.04 415.09
  Q 204.29 415.70 196.24 414.62
  Q 186.45 410.38 182.97 399.75
  L 182.74 386.76
  L 182.96 386.65
  Q 183.07 386.59 183.19 386.59
  L 225.18 386.82
  Q 225.67 386.82 225.93 387.24
  L 226.27 387.79
  Z"
/>
<rect fill="#41378d" x="266.34" y="391.57" width="41.78" height="15.14" rx="7.28"/>
<rect fill="#41378d" x="-20.82" y="-7.59" transform="translate(374.11,399.13) rotate(0.1)" width="41.64" height="15.18" rx="7.30"/>
<path fill="#50374c" d="
  M 150.75 397.72
  Q 150.13 400.94 152.20 401.40
  Q 152.73 401.52 152.73 402.06
  L 152.73 406.13
  Q 152.82 405.59 152.43 406.29
  L 134.00 406.24
  Q 134.67 403.97 134.02 401.20
  L 149.26 401.08
  Q 149.75 401.08 149.89 400.61
  L 150.75 397.72
  Z"
/>
<path fill="#695a6f" d="
  M 131.08 401.04
  Q 132.03 401.54 133.79 400.92
  Q 133.90 401.06 134.02 401.20
  Q 134.67 403.97 134.00 406.24
  L 113.22 406.10
  Q 114.44 404.16 113.99 401.21
  L 131.08 401.04
  Z"
/>
<path fill="#182f3f" d="
  M 113.22 406.10
  L 134.00 406.24
  L 152.43 406.29
  L 161.06 406.68
  Q 165.20 407.91 164.72 412.63
  A 0.56 0.56 0.0 0 0 165.28 413.25
  L 166.04 413.25
  A 0.93 0.92 -87.7 0 1 166.96 414.25
  Q 166.92 414.70 166.58 415.31
  L 111.08 415.15
  Q 113.69 411.78 113.22 406.10
  Z"
/>
<path fill="#3c5a73" d="
  M 152.73 406.13
  L 161.34 405.95
  Q 160.86 406.50 161.06 406.68
  L 152.43 406.29
  Q 152.82 405.59 152.73 406.13
  Z"
/>
<path fill="#c9e6ec" d="
  M 179.74 414.78
  Q 183.09 415.01 186.50 414.96
  C 189.63 414.92 192.93 416.43 196.24 414.62
  Q 204.29 415.70 212.04 415.09
  L 245.55 415.56
  Q 245.88 415.56 245.99 415.25
  Q 246.06 415.00 246.28 414.93
  Q 248.42 415.33 249.25 415.32
  C 274.52 415.10 299.80 415.57 325.06 415.40
  Q 372.36 415.10 418.86 415.44
  L 430.89 415.25
  Q 433.44 416.16 436.28 415.80
  C 442.55 415.00 448.69 415.84 454.98 415.43
  Q 457.80 415.24 458.44 417.48
  A 2.04 2.04 0.0 0 1 456.46 420.08
  Q 434.43 419.85 412.56 419.89
  C 308.20 420.05 203.85 419.90 99.50 420.00
  Q 96.89 420.00 95.81 418.78
  A 1.26 1.26 0.0 0 1 95.57 417.54
  Q 96.45 414.97 100.01 415.23
  Q 102.78 415.42 111.08 415.15
  L 166.58 415.31
  Q 173.75 416.18 179.74 414.78
  Z"
/>
<path fill="#b4d7db" d="
  M 266.48 464.77
  L 269.17 465.49
  Q 269.56 465.60 269.91 465.39
  Q 270.91 464.79 272.07 464.88
  Q 272.84 464.95 272.55 465.67
  L 271.65 467.93
  Q 271.45 468.44 271.61 468.96
  Q 271.95 470.10 271.04 470.95
  Q 270.63 471.32 270.82 471.85
  C 272.08 475.48 264.90 476.36 262.92 475.38
  C 260.30 474.08 258.80 469.58 257.31 466.95
  A 0.42 0.42 0.0 0 1 257.77 466.33
  Q 260.68 467.02 262.76 465.21
  Q 263.23 464.80 263.32 464.17
  Q 263.49 462.90 264.26 461.79
  Q 264.87 460.92 265.04 461.97
  Q 265.19 462.95 266.34 463.01
  A 0.51 0.51 0.0 0 1 266.71 463.85
  L 266.33 464.31
  Q 266.06 464.65 266.48 464.77
  Z
  M 265.2468 469.3087
  A 1.43 1.43 0.0 0 0 263.8832 467.8153
  L 263.2838 467.7881
  A 1.43 1.43 0.0 0 0 261.7904 469.1517
  L 261.7732 469.5313
  A 1.43 1.43 0.0 0 0 263.1368 471.0247
  L 263.7362 471.0519
  A 1.43 1.43 0.0 0 0 265.2296 469.6883
  L 265.2468 469.3087
  Z
  M 267.25 470.00
  Q 268.16 470.55 269.25 469.94
  A 1.37 1.21 13.9 0 0 267.78 467.81
  Q 266.61 468.37 267.04 469.73
  Q 267.09 469.91 267.25 470.00
  Z"
/>
<path fill="#b4d7db" d="
  M 286.50 469.80
  C 283.08 469.77 284.84 473.09 283.99 474.70
  A 0.92 0.92 0.0 0 1 282.25 474.27
  L 282.25 470.03
  A 0.54 0.54 0.0 0 0 281.54 469.52
  L 279.88 470.07
  Q 279.25 470.28 279.25 470.94
  L 279.25 474.43
  Q 279.25 474.86 278.86 475.07
  Q 277.79 475.63 277.39 474.16
  A 0.91 0.91 0.0 0 1 277.39 473.70
  Q 278.22 471.00 276.21 469.53
  A 0.60 0.60 0.0 0 1 276.21 468.56
  L 276.98 467.99
  Q 277.39 467.68 277.46 467.17
  Q 277.87 464.07 281.02 464.96
  A 0.71 0.71 0.0 0 1 281.13 466.28
  L 280.02 466.81
  A 0.87 0.87 0.0 0 0 280.42 468.46
  L 286.54 468.28
  A 0.44 0.44 0.0 0 1 287.00 468.74
  Q 287.00 468.87 287.00 469.00
  A 0.32 0.32 0.0 0 0 287.50 469.27
  Q 291.83 466.41 294.23 470.78
  Q 294.56 471.38 294.79 470.74
  C 295.90 467.62 299.21 467.06 301.20 469.77
  Q 301.57 470.28 302.02 469.84
  Q 302.32 469.55 302.27 469.15
  A 0.74 0.74 0.0 0 1 302.95 468.32
  L 306.80 468.04
  Q 307.35 468.01 307.81 468.30
  C 311.88 470.95 309.92 476.06 305.28 475.68
  A 0.59 0.58 8.5 0 0 304.66 476.13
  L 304.25 477.91
  A 0.88 0.88 0.0 0 1 302.51 477.72
  L 302.49 472.99
  Q 302.49 472.24 301.74 472.24
  L 297.61 472.26
  A 0.61 0.60 -13.3 0 0 297.07 473.13
  L 297.33 473.68
  Q 297.53 474.11 298.00 474.00
  L 300.02 473.55
  A 0.69 0.69 0.0 0 1 300.57 474.78
  C 298.23 476.45 295.54 475.53 294.73 472.78
  Q 294.57 472.25 294.02 472.25
  L 289.69 472.25
  Q 289.11 472.25 289.24 472.82
  Q 289.55 474.10 291.18 474.09
  A 0.76 0.75 -66.0 0 0 291.64 473.91
  Q 292.27 473.36 292.98 473.79
  Q 293.66 474.22 293.00 474.68
  C 289.19 477.30 286.80 474.03 287.01 470.35
  Q 287.04 469.81 286.50 469.80
  Z
  M 291.64 470.20
  L 289.71 469.95
  A 0.50 0.49 56.4 0 0 289.52 470.92
  Q 290.68 471.25 291.73 470.72
  A 0.28 0.28 0.0 0 0 291.64 470.20
  Z
  M 297.49 470.10
  A 0.48 0.48 0.0 0 0 297.75 471.01
  L 298.40 470.96
  A 0.41 0.41 0.0 0 0 298.62 470.22
  Q 298.08 469.79 297.49 470.10
  Z
  M 308.00 471.93
  A 1.83 1.83 0.0 0 0 306.17 470.10
  A 1.83 1.83 0.0 0 0 304.34 471.93
  A 1.83 1.83 0.0 0 0 306.17 473.76
  A 1.83 1.83 0.0 0 0 308.00 471.93
  Z"
/>
<ellipse fill="#b4d7db" cx="0.00" cy="0.00" transform="translate(311.91,465.89) rotate(39.5)" rx="1.23" ry="1.13"/>
<path fill="#b4d7db" d="
  M 316.94 470.02
  Q 317.99 468.32 319.95 468.22
  A 0.49 0.49 0.0 0 1 320.32 469.05
  L 318.06 471.31
  Q 317.75 471.63 318.03 471.97
  L 320.17 474.58
  A 0.45 0.45 0.0 0 1 319.73 475.31
  Q 317.95 474.93 317.04 473.30
  A 0.46 0.46 0.0 0 0 316.20 473.39
  L 315.71 474.95
  A 0.45 0.44 9.4 0 1 315.27 475.26
  Q 315.12 475.25 314.98 475.25
  Q 314.33 475.25 314.26 474.61
  C 313.94 471.68 314.12 468.91 313.98 466.00
  Q 313.92 464.90 314.91 464.76
  A 0.95 0.94 85.4 0 1 315.98 465.68
  L 316.05 469.77
  A 0.48 0.48 0.0 0 0 316.94 470.02
  Z"
/>
<path fill="#b4d7db" d="
  M 185.06 474.49
  C 177.54 478.45 176.96 466.26 183.56 468.40
  A 0.45 0.44 -75.9 0 0 184.13 468.05
  L 184.39 466.43
  A 0.63 0.63 0.0 0 1 185.65 466.55
  L 185.44 473.88
  Q 185.42 474.30 185.06 474.49
  Z
  M 182.2060 474.5580
  A 2.71 2.33 92.2 0 0 184.6383 471.9394
  A 2.71 2.33 92.2 0 0 182.4140 469.1420
  A 2.71 2.33 92.2 0 0 179.9817 471.7606
  A 2.71 2.33 92.2 0 0 182.2060 474.5580
  Z"
/>
<path fill="#b4d7db" d="
  M 234.15 474.70
  C 226.31 478.09 225.55 466.95 232.52 468.18
  Q 233.21 468.30 233.23 467.60
  L 233.26 466.25
  A 0.64 0.64 0.0 0 1 234.54 466.27
  L 234.49 474.19
  Q 234.48 474.56 234.15 474.70
  Z
  M 231.4594 474.5685
  A 2.70 2.24 84.7 0 0 233.4404 471.6731
  A 2.70 2.24 84.7 0 0 230.9606 469.1915
  A 2.70 2.24 84.7 0 0 228.9796 472.0869
  A 2.70 2.24 84.7 0 0 231.4594 474.5685
  Z"
/>
<path fill="#b4d7db" d="
  M 241.43 468.44
  Q 241.88 468.62 242.06 468.30
  A 0.38 0.36 -74.2 0 1 242.38 468.11
  Q 246.63 468.19 246.13 472.34
  C 245.68 476.09 242.98 475.45 240.31 474.88
  Q 239.75 474.76 239.75 474.20
  L 239.75 466.12
  Q 239.75 465.74 240.13 465.75
  Q 240.29 465.75 240.45 465.75
  A 0.23 0.22 85.5 0 1 240.67 465.94
  L 241.00 467.91
  Q 241.06 468.30 241.43 468.44
  Z
  M 242.7783 474.6264
  A 2.80 2.33 92.9 0 0 245.2470 471.9479
  A 2.80 2.33 92.9 0 0 243.0617 469.0336
  A 2.80 2.33 92.9 0 0 240.5930 471.7121
  A 2.80 2.33 92.9 0 0 242.7783 474.6264
  Z"
/>
<path fill="#b4d7db" d="
  M 188.78 472.00
  A 0.61 0.61 0.0 0 0 188.24 472.88
  Q 189.58 475.60 192.38 474.19
  Q 192.61 474.08 192.69 474.32
  Q 192.74 474.46 192.78 474.59
  Q 192.83 474.75 192.68 474.83
  C 187.54 477.70 184.65 469.57 189.36 468.24
  C 191.54 467.63 193.79 469.17 193.76 471.49
  Q 193.75 472.00 193.25 472.00
  L 188.78 472.00
  Z
  M 188.46 471.26
  L 192.28 471.26
  A 0.21 0.21 0.0 0 0 192.49 471.05
  L 192.49 470.94
  A 1.99 1.94 -0.0 0 0 190.50 469.00
  L 190.24 469.00
  A 1.99 1.94 0.0 0 0 188.25 470.94
  L 188.25 471.05
  A 0.21 0.21 0.0 0 0 188.46 471.26
  Z"
/>
<path fill="#b4d7db" d="
  M 216.90 469.71
  A 1.74 1.74 0.0 0 0 213.75 470.74
  L 213.75 474.53
  Q 213.75 474.98 213.30 475.00
  Q 213.15 475.00 213.00 475.00
  Q 212.75 475.00 212.75 474.75
  L 212.75 469.22
  Q 212.75 468.67 213.29 468.60
  L 216.42 468.17
  A 1.80 1.79 -4.1 0 1 218.46 469.93
  L 218.52 474.47
  A 0.56 0.56 0.0 0 1 217.74 474.99
  Q 217.23 474.77 217.40 474.11
  Q 218.12 471.39 216.90 469.71
  Z"
/>
<path fill="#b4d7db" d="
  M 221.82 473.84
  Q 223.29 475.22 225.06 474.23
  Q 225.29 474.10 225.54 474.18
  L 225.95 474.32
  A 0.12 0.12 0.0 0 1 225.98 474.54
  C 220.92 477.94 217.51 470.61 222.04 468.43
  C 224.32 467.34 226.01 468.74 226.87 470.81
  Q 227.45 472.21 225.94 472.08
  L 222.74 471.80
  A 1.19 1.18 -20.8 0 0 221.82 473.84
  Z
  M 221.45 471.30
  L 225.37 471.20
  A 0.16 0.16 0.0 0 0 225.52 471.03
  L 225.52 470.93
  A 1.95 1.74 -1.5 0 0 223.52 469.25
  L 223.18 469.25
  A 1.95 1.74 -1.5 0 0 221.28 471.05
  L 221.28 471.15
  A 0.16 0.16 0.0 0 0 221.45 471.30
  Z"
/>
<path fill="#b4d7db" d="
  M 249.54 475.33
  A 1.66 1.64 -56.0 0 0 249.41 474.64
  L 246.94 468.84
  A 0.41 0.40 58.8 0 1 247.05 468.37
  Q 247.31 468.15 247.56 468.22
  Q 247.70 468.27 247.79 468.46
  Q 248.84 470.60 249.68 472.78
  A 0.67 0.67 0.0 0 0 250.93 472.77
  L 252.49 468.49
  Q 252.68 467.94 253.22 468.17
  Q 253.82 468.43 253.63 468.83
  Q 251.80 472.76 250.12 476.73
  C 249.75 477.63 248.87 478.15 247.97 477.88
  A 0.31 0.30 47.3 0 1 247.99 477.29
  Q 249.48 476.98 249.54 475.33
  Z"
/>
<path fill="#b4d7db" d="
  M 196.84 469.03
  A 0.95 0.95 0.0 0 0 196.52 470.83
  C 197.96 471.56 200.98 471.56 199.79 474.23
  Q 199.56 474.73 199.06 474.94
  Q 197.10 475.76 195.31 474.76
  A 0.27 0.26 63.2 0 1 195.47 474.26
  L 198.06 474.61
  A 0.54 0.53 16.9 0 0 198.61 474.32
  L 198.99 473.56
  Q 199.45 472.65 198.46 472.39
  L 195.72 471.66
  A 1.75 1.75 0.0 0 1 196.27 468.22
  L 199.33 468.39
  A 0.55 0.54 -77.3 0 1 199.80 469.14
  Q 199.71 469.34 199.67 469.54
  A 0.20 0.19 23.6 0 1 199.37 469.65
  Q 198.20 468.87 196.84 469.03
  Z"
/>
<rect fill="#b4d7db" x="201.75" y="468.27" width="1.00" height="6.74" rx="0.48"/>
<path fill="#b4d7db" d="
  M 208.96 475.23
  C 205.96 475.86 203.84 474.28 204.29 471.00
  C 204.78 467.40 207.90 468.20 210.37 468.58
  Q 210.75 468.63 210.75 469.02
  L 210.75 475.80
  A 1.53 1.51 68.9 0 1 210.26 476.92
  Q 208.11 478.91 205.33 477.48
  Q 204.88 477.25 205.23 476.89
  Q 205.48 476.62 205.89 476.79
  Q 208.58 477.88 209.45 475.82
  Q 209.77 475.06 208.96 475.23
  Z
  M 207.8996 474.4307
  A 2.66 2.32 83.1 0 0 209.8832 471.5113
  A 2.66 2.32 83.1 0 0 207.2604 469.1493
  A 2.66 2.32 83.1 0 0 205.2768 472.0687
  A 2.66 2.32 83.1 0 0 207.8996 474.4307
  Z"
/>
<rect fill="#b4d7db" x="-0.87" y="-3.49" transform="translate(311.88,471.73) rotate(-0.2)" width="1.74" height="6.98" rx="0.83"/>
</svg>
