<?xml version="1.0" encoding="UTF-8" standalone="no"?>
<!DOCTYPE svg PUBLIC "-//W3C//DTD SVG 1.1//EN" "http://www.w3.org/Graphics/SVG/1.1/DTD/svg11.dtd">
<svg xmlns="http://www.w3.org/2000/svg" version="1.1" viewBox="0.00 0.00 1596.00 1314.00">
<g stroke-width="2.00" fill="none" stroke-linecap="butt">
<path stroke="#b7b2e2" vector-effect="non-scaling-stroke" d="
  M 994.25 156.25
  Q 897.78 156.25 801.31 156.25
  C 791.16 156.25 783.11 157.49 775.29 162.52
  Q 755.65 175.16 755.35 199.51
  Q 755.24 208.35 755.27 216.85"
/>
<path stroke="#f2f8fb" vector-effect="non-scaling-stroke" d="
  M 755.27 216.85
  Q 716.64 217.07 691.14 243.04
  C 650.52 284.44 667.88 354.17 719.93 375.77
  A 0.59 0.59 0.0 0 0 720.75 375.22
  L 720.75 235.99
  Q 720.75 235.35 721.40 235.33
  L 755.25 234.46"
/>
<path stroke="#b7b2e2" vector-effect="non-scaling-stroke" d="
  M 755.25 234.46
  Q 755.23 234.60 755.32 234.71
  Q 755.40 234.81 755.54 234.81
  L 803.27 235.00"
/>
<path stroke="#9894af" vector-effect="non-scaling-stroke" d="
  M 803.27 235.00
  L 1220.74 235.19
  Q 1221.28 235.19 1221.28 235.73
  L 1221.25 246.31"
/>
<path stroke="#928fa3" vector-effect="non-scaling-stroke" d="
  M 1221.25 246.31
  L 1221.52 493.02"
/>
<path stroke="#9894af" vector-effect="non-scaling-stroke" d="
  M 1221.52 493.02
  L 1221.36 638.08"
/>
<path stroke="#928fa3" vector-effect="non-scaling-stroke" d="
  M 1221.36 638.08
  L 1221.34 667.22"
/>
<path stroke="#9894af" vector-effect="non-scaling-stroke" d="
  M 1221.34 667.22
  L 1221.55 792.61"
/>
<path stroke="#928fa3" vector-effect="non-scaling-stroke" d="
  M 1221.55 792.61
  L 1221.23 1037.72
  Q 1221.23 1038.25 1220.71 1038.25
  L 803.50 1038.25"
/>
<path stroke="#a8a3d7" vector-effect="non-scaling-stroke" d="
  M 803.50 1038.25
  L 755.23 1038.29"
/>
<path stroke="#f2f8fb" vector-effect="non-scaling-stroke" d="
  M 755.23 1038.29
  L 732.24 1038.30
  Q 731.75 1038.30 731.75 1038.80
  L 731.75 1048.23
  Q 731.75 1048.72 732.24 1048.72
  L 755.25 1048.75"
/>
<path stroke="#b7b2e2" vector-effect="non-scaling-stroke" d="
  M 755.25 1048.75
  Q 755.24 1083.84 755.26 1118.94
  Q 755.27 1133.01 756.78 1138.80
  C 760.74 1154.01 773.00 1165.37 788.29 1169.18"
/>
<path stroke="#e4f3f6" vector-effect="non-scaling-stroke" d="
  M 788.29 1169.18
  L 788.26 1169.63
  Q 788.23 1170.12 787.74 1170.12
  L 669.73 1169.81"
/>
<path stroke="#dac1aa" vector-effect="non-scaling-stroke" d="
  M 669.73 1169.81
  Q 688.61 1165.71 701.39 1154.40
  Q 716.85 1140.72 721.21 1121.07
  C 723.90 1108.96 722.83 1092.35 722.69 1078.69"
/>
<path stroke="#f9dabd" vector-effect="non-scaling-stroke" d="
  M 722.69 1078.69
  L 722.72 1073.04"
/>
<path stroke="#dac1aa" vector-effect="non-scaling-stroke" d="
  M 722.72 1073.04
  L 722.72 1056.56
  Q 722.72 1056.03 722.19 1056.03
  L 658.07 1056.01"
/>
<path stroke="#8cbeba" vector-effect="non-scaling-stroke" d="
  M 658.07 1056.01
  L 658.49 994.96"
/>
<path stroke="#9cd7cb" vector-effect="non-scaling-stroke" d="
  M 658.49 994.96
  C 670.46 993.39 680.71 994.15 689.50 994.00
  Q 705.44 993.73 720.30 986.00
  A 0.85 0.83 -14.3 0 0 720.75 985.26
  Q 720.75 781.14 720.75 577.07
  Q 720.75 576.25 719.94 575.81"
/>
<path stroke="#e4f3f6" vector-effect="non-scaling-stroke" d="
  M 719.94 575.81
  L 720.50 575.09
  Q 720.75 574.77 720.75 574.36
  L 720.75 466.27
  A 1.99 1.99 0.0 0 0 720.30 465.01
  Q 715.39 459.05 709.15 453.76"
/>
<path stroke="#daebed" vector-effect="non-scaling-stroke" d="
  M 709.15 453.76
  L 739.42 440.71"
/>
<path stroke="#9cd7cb" vector-effect="non-scaling-stroke" d="
  M 739.42 440.71
  C 747.09 437.55 756.60 434.19 762.40 429.55
  C 773.49 420.67 776.14 405.72 770.37 392.79"
/>
<path stroke="#daebed" vector-effect="non-scaling-stroke" d="
  M 770.37 392.79
  C 789.62 394.62 809.92 393.48 829.32 393.53
  Q 837.77 393.55 841.52 392.10
  Q 852.41 387.91 852.46 373.47
  Q 852.55 345.89 852.48 318.32
  Q 852.44 305.43 842.10 301.49
  Q 838.14 299.98 828.71 299.99
  Q 805.02 299.99 781.34 300.02
  C 765.11 300.04 758.99 305.39 759.00 321.90
  Q 759.02 350.96 758.98 380.38"
/>
<path stroke="#9cd7cb" vector-effect="non-scaling-stroke" d="
  M 758.98 380.38
  C 743.69 371.88 732.07 377.56 715.54 385.27"
/>
<path stroke="#f2f8fb" vector-effect="non-scaling-stroke" d="
  M 715.54 385.27
  L 648.60 413.80
  A 0.40 0.35 30.1 0 1 648.45 413.83
  L 647.00 413.84"
/>
<path stroke="#e4f3f6" vector-effect="non-scaling-stroke" d="
  M 647.00 413.84
  Q 613.41 400.09 579.75 397.51
  Q 514.55 392.51 463.43 354.56
  C 457.09 349.86 447.72 342.23 440.45 337.29
  C 372.90 291.41 283.54 285.94 211.44 325.15
  C 162.01 352.02 123.31 395.96 105.15 449.73
  C 57.47 590.92 157.99 734.89 305.32 742.91
  Q 313.80 743.37 318.44 742.93
  A 1.75 1.68 -33.6 0 1 319.38 743.10
  Q 319.72 743.28 320.00 743.27
  Q 339.32 742.54 358.36 739.27
  Q 358.71 739.21 358.74 739.56
  Q 358.78 740.00 359.04 740.00"
/>
<path stroke="#a89ba6" vector-effect="non-scaling-stroke" d="
  M 359.04 740.00
  L 358.99 741.41"
/>
<path stroke="#b4adb7" vector-effect="non-scaling-stroke" d="
  M 358.99 741.41
  L 355.41 741.75
  Q 354.92 741.80 354.92 742.29
  L 355.20 806.45
  Q 355.20 807.08 355.82 807.18
  L 358.85 807.66"
/>
<path stroke="#a89ba6" vector-effect="non-scaling-stroke" d="
  M 358.85 807.66
  Q 358.44 809.79 358.47 811.76
  Q 358.75 832.93 359.09 854.16
  Q 359.10 854.70 359.64 854.72
  L 363.70 854.84"
/>
<path stroke="#9e8a97" vector-effect="non-scaling-stroke" d="
  M 363.70 854.84
  L 363.58 1123.70"
/>
<path stroke="#b4adb7" vector-effect="non-scaling-stroke" d="
  M 363.58 1123.70
  Q 362.33 1132.19 362.96 1140.72"
/>
<path stroke="#8c979f" vector-effect="non-scaling-stroke" d="
  M 362.96 1140.72
  Q 361.91 1140.60 361.32 1140.96
  Q 360.79 1141.27 360.78 1142.28
  Q 360.63 1152.41 360.43 1162.62
  Q 360.42 1163.24 359.80 1163.24
  L 356.63 1163.27
  A 0.58 0.58 0.0 0 0 356.05 1163.87
  L 356.28 1169.99"
/>
<path stroke="#e4f3f6" vector-effect="non-scaling-stroke" d="
  M 356.28 1169.99
  Q 335.59 1170.06 314.87 1169.94
  C 308.66 1169.90 303.35 1173.10 305.32 1179.75
  C 307.12 1185.83 313.12 1185.47 318.75 1185.37
  C 330.85 1185.14 345.77 1185.49 355.09 1185.49
  C 448.28 1185.58 543.51 1185.43 634.54 1185.48
  C 906.67 1185.63 1178.81 1185.56 1450.94 1185.42
  C 1454.04 1185.42 1460.81 1185.54 1462.46 1182.20
  Q 1466.33 1174.40 1459.10 1170.39
  A 1.14 1.06 58.3 0 0 1458.55 1170.24
  L 1370.58 1169.78"
/>
<path stroke="#a8a3d7" vector-effect="non-scaling-stroke" d="
  M 1370.58 1169.78
  Q 1393.72 1162.92 1401.58 1142.67
  C 1403.24 1138.37 1404.25 1132.98 1404.25 1128.50
  Q 1404.25 666.75 1404.25 205.00
  Q 1404.25 192.72 1402.76 187.28
  C 1398.91 173.10 1387.31 161.51 1373.21 157.74
  C 1362.49 154.87 1345.87 156.26 1333.27 156.24"
/>
<path stroke="#b7b2e2" vector-effect="non-scaling-stroke" d="
  M 1333.27 156.24
  L 1329.51 156.01"
/>
<path stroke="#f2f8fb" vector-effect="non-scaling-stroke" d="
  M 1329.51 156.01
  Q 1329.40 155.22 1329.67 154.62
  Q 1329.86 154.21 1329.63 153.81
  C 1288.95 83.72 1211.77 46.76 1131.59 59.43
  C 1077.58 67.96 1031.74 99.80 1001.77 145.13
  C 999.79 148.14 996.21 152.07 994.25 156.25"
/>
<path stroke="#a9abde" vector-effect="non-scaling-stroke" d="
  M 1329.51 156.01
  L 994.25 156.25"
/>
<path stroke="#6055ba" vector-effect="non-scaling-stroke" d="
  M 1333.27 156.24
  Q 1333.12 157.22 1333.76 157.43
  C 1351.75 163.56 1364.29 178.79 1364.41 198.12
  C 1364.47 206.28 1364.26 216.58 1364.26 222.59
  C 1364.23 515.05 1364.19 807.51 1364.27 1099.97
  C 1364.27 1112.86 1366.29 1128.73 1362.42 1140.83
  Q 1356.55 1159.16 1338.25 1167.05
  Q 1334.61 1168.62 1333.71 1169.98"
/>
<path stroke="#9ca5d8" vector-effect="non-scaling-stroke" d="
  M 1333.71 1169.98
  Q 1065.57 1170.06 797.33 1169.94
  C 794.27 1169.94 791.31 1169.54 788.29 1169.18"
/>
<path stroke="#a9abde" vector-effect="non-scaling-stroke" d="
  M 755.25 1048.75
  Q 755.25 1048.83 755.25 1048.91"
/>
<path stroke="#6055ba" vector-effect="non-scaling-stroke" d="
  M 755.25 1048.91
  L 803.42 1048.98"
/>
<path stroke="#504692" vector-effect="non-scaling-stroke" d="
  M 803.42 1048.98
  L 803.51 1069.25
  Q 803.51 1069.75 804.01 1069.75
  L 1311.99 1069.75
  Q 1312.48 1069.75 1312.48 1069.26
  L 1312.49 753.49"
/>
<path stroke="#584ea9" vector-effect="non-scaling-stroke" d="
  M 1312.49 753.49
  L 1312.49 628.05"
/>
<path stroke="#504692" vector-effect="non-scaling-stroke" d="
  M 1312.49 628.05
  L 1312.49 598.01"
/>
<path stroke="#584ea9" vector-effect="non-scaling-stroke" d="
  M 1312.49 598.01
  L 1312.48 454.50"
/>
<path stroke="#504692" vector-effect="non-scaling-stroke" d="
  M 1312.48 454.50
  L 1312.49 216.94"
/>
<path stroke="#473d7c" vector-effect="non-scaling-stroke" d="
  M 1312.49 216.94
  L 1312.48 197.98
  Q 1312.48 197.50 1311.99 197.50
  L 804.01 197.50
  Q 803.52 197.50 803.52 197.98
  L 803.51 216.51"
/>
<path stroke="#504692" vector-effect="non-scaling-stroke" d="
  M 803.51 216.51
  L 803.27 235.00"
/>
<path stroke="#a9abde" vector-effect="non-scaling-stroke" d="
  M 755.25 234.46
  L 755.27 216.85"
/>
<path stroke="#9b9cd3" vector-effect="non-scaling-stroke" d="
  M 755.23 1038.29
  L 755.25 1048.91"
/>
<path stroke="#413787" vector-effect="non-scaling-stroke" d="
  M 803.42 1048.98
  Q 803.52 1048.87 803.52 1048.24"
/>
<path stroke="#2b2353" vector-effect="non-scaling-stroke" d="
  M 803.52 1048.24
  Q 804.10 1048.94 805.50 1048.95
  Q 812.47 1048.99 814.81 1048.99
  Q 1023.23 1048.72 1231.48 1048.74
  A 0.52 0.52 0.0 0 0 1232.00 1048.22
  L 1232.00 790.06
  A 0.62 0.62 0.0 0 0 1231.19 789.47
  L 1221.55 792.61"
/>
<path stroke="#8d96ce" vector-effect="non-scaling-stroke" d="
  M 1370.58 1169.78
  L 1333.71 1169.98"
/>
<path stroke="#393076" vector-effect="non-scaling-stroke" d="
  M 1312.48 454.50
  L 1232.26 489.25"
/>
<path stroke="#2b2353" vector-effect="non-scaling-stroke" d="
  M 1232.26 489.25
  L 1232.00 246.89
  Q 1232.00 246.31 1231.42 246.22
  Q 1226.40 245.46 1221.25 246.31"
/>
<path stroke="#393076" vector-effect="non-scaling-stroke" d="
  M 1312.49 598.01
  L 1232.81 633.10
  A 0.59 0.58 -11.9 0 1 1231.99 632.57
  L 1231.99 489.85"
/>
<path stroke="#393076" vector-effect="non-scaling-stroke" d="
  M 1312.49 753.49
  L 1232.65 788.66
  Q 1232.00 788.95 1232.00 788.24
  L 1232.03 663.61"
/>
<path stroke="#332b6a" vector-effect="non-scaling-stroke" d="
  M 1232.03 663.61
  Q 1232.51 663.11 1232.11 663.31"
/>
<path stroke="#281f49" vector-effect="non-scaling-stroke" d="
  M 1312.49 216.94
  L 803.51 216.51"
/>
<path stroke="#393076" vector-effect="non-scaling-stroke" d="
  M 1312.49 628.05
  L 1232.11 663.31"
/>
<path stroke="#2b2353" vector-effect="non-scaling-stroke" d="
  M 1232.11 663.31
  L 1232.05 635.27
  A 1.14 1.14 0.0 0 0 1230.46 634.22
  L 1221.36 638.08"
/>
<path stroke="#2b2353" vector-effect="non-scaling-stroke" d="
  M 1232.03 663.61
  L 1221.34 667.22"
/>
<path stroke="#3b327b" vector-effect="non-scaling-stroke" d="
  M 803.52 1048.24
  L 803.50 1038.25"
/>
<path stroke="#332b6a" vector-effect="non-scaling-stroke" d="
  M 1232.26 489.25
  Q 1231.97 489.71 1231.99 489.85"
/>
<path stroke="#2b2353" vector-effect="non-scaling-stroke" d="
  M 1231.99 489.85
  Q 1226.35 493.13 1221.52 493.02"
/>
<path stroke="#dac1aa" vector-effect="non-scaling-stroke" d="
  M 648.85 1055.98
  L 584.18 1056.00
  Q 583.61 1056.00 583.61 1056.57
  L 583.63 1072.93"
/>
<path stroke="#f9dabd" vector-effect="non-scaling-stroke" d="
  M 583.63 1072.93
  L 583.56 1078.39"
/>
<path stroke="#dac1aa" vector-effect="non-scaling-stroke" d="
  M 583.56 1078.39
  Q 583.15 1103.45 583.74 1111.25
  C 586.03 1141.10 607.23 1163.93 636.57 1169.43"
/>
<path stroke="#e4f3f6" vector-effect="non-scaling-stroke" d="
  M 636.57 1169.43
  Q 636.75 1169.49 636.76 1169.79
  A 0.60 0.59 -0.9 0 1 636.16 1170.40
  L 532.50 1170.02"
/>
<path stroke="#8c979f" vector-effect="non-scaling-stroke" d="
  M 532.50 1170.02
  L 532.62 1163.88
  Q 532.64 1163.25 532.00 1163.25
  L 526.73 1163.25
  Q 526.15 1163.25 526.18 1162.67
  C 527.63 1135.88 504.59 1141.28 487.58 1140.85"
/>
<path stroke="#a89ba6" vector-effect="non-scaling-stroke" d="
  M 487.58 1140.85
  L 487.66 1125.16
  Q 487.66 1124.57 487.07 1124.57
  L 481.26 1124.54"
/>
<path stroke="#9e8a97" vector-effect="non-scaling-stroke" d="
  M 481.26 1124.54
  L 481.27 842.13"
/>
<path stroke="#bfb4a1" vector-effect="non-scaling-stroke" d="
  M 669.73 1169.81
  Q 653.29 1170.39 636.57 1169.43"
/>
<path stroke="#718b96" vector-effect="non-scaling-stroke" d="
  M 532.50 1170.02
  L 356.28 1169.99"
/>
<path stroke="#b4adb7" vector-effect="non-scaling-stroke" d="
  M 494.91 747.17
  L 494.96 806.50
  Q 494.96 807.05 494.42 806.95
  L 491.26 806.36"
/>
<path stroke="#678065" vector-effect="non-scaling-stroke" d="
  M 658.07 1056.01
  L 648.85 1055.98"
/>
<path stroke="#8cbeba" vector-effect="non-scaling-stroke" d="
  M 648.85 1055.98
  Q 648.99 1026.61 649.19 997.81
  Q 648.95 997.59 648.95 996.95"
/>
<path stroke="#343346" vector-effect="non-scaling-stroke" d="
  M 487.58 1140.85
  L 428.43 1140.66"
/>
<path stroke="#81cac1" vector-effect="non-scaling-stroke" d="
  M 719.94 575.81
  Q 713.00 570.49 710.19 568.79
  C 660.35 538.63 617.02 587.07 599.28 628.02
  C 595.78 636.08 592.13 647.07 587.35 654.22
  Q 580.69 664.19 570.43 670.92
  C 566.19 673.71 559.06 676.50 554.48 679.80
  C 531.88 696.09 526.47 728.33 529.43 754.13"
/>
<path stroke="#e4f3f6" vector-effect="non-scaling-stroke" d="
  M 529.43 754.13
  Q 512.14 752.14 494.91 747.17"
/>
<path stroke="#99a0ae" vector-effect="non-scaling-stroke" d="
  M 494.91 747.17
  L 495.24 742.53
  Q 495.28 741.97 494.72 741.93
  L 491.48 741.68"
/>
<path stroke="#8d8f9c" vector-effect="non-scaling-stroke" d="
  M 491.48 741.68
  L 491.42 623.18
  A 0.62 0.62 0.0 0 1 492.04 622.56
  C 578.32 622.86 630.35 568.52 635.65 485.03"
/>
<path stroke="#289686" vector-effect="non-scaling-stroke" d="
  M 658.49 994.96
  Q 658.79 953.03 659.23 911.00
  C 659.59 876.98 672.02 841.26 707.18 829.32
  Q 707.65 829.16 707.51 828.68
  L 705.55 822.27
  Q 705.36 821.64 704.74 821.85
  Q 672.58 832.91 660.37 864.53
  Q 659.68 866.33 659.15 864.37
  Q 659.14 864.31 659.15 863.00
  Q 659.92 762.19 660.34 661.36
  Q 660.34 660.75 659.73 660.75
  L 651.49 660.75
  A 0.51 0.50 -90.0 0 0 650.99 661.26
  L 650.23 792.50
  A 0.29 0.29 0.0 0 1 649.67 792.62
  Q 647.37 787.67 644.94 782.77
  Q 630.08 752.78 600.33 737.38
  A 0.68 0.68 0.0 0 0 599.41 737.67
  L 596.51 743.49
  Q 596.16 744.18 596.85 744.53
  C 631.35 762.08 649.97 798.95 650.01 837.00
  Q 650.05 866.96 649.24 955.04
  Q 649.23 955.67 648.90 955.13
  Q 640.47 941.08 637.62 936.89
  Q 624.13 917.02 600.03 905.81
  Q 599.54 905.58 599.31 906.07
  L 596.54 912.08
  Q 596.27 912.66 596.85 912.93
  C 629.56 928.39 648.06 960.95 649.17 996.60
  Q 649.17 996.69 649.11 996.75
  Q 649.02 996.86 648.95 996.95"
/>
<path stroke="#9cd7cb" vector-effect="non-scaling-stroke" d="
  M 648.95 996.95
  C 641.18 999.33 632.55 1002.74 625.45 1004.04
  C 585.71 1011.31 549.38 981.44 548.70 941.50
  C 548.58 934.59 548.83 926.89 547.67 920.63
  Q 545.39 908.37 538.68 898.32
  C 536.12 894.49 531.68 889.12 529.13 884.63
  C 516.12 861.73 517.61 830.35 535.58 810.33
  C 539.18 806.30 543.66 802.88 541.17 797.24
  Q 532.10 776.67 529.43 754.13"
/>
<path stroke="#d49b68" vector-effect="non-scaling-stroke" d="
  M 722.69 1078.69
  L 583.56 1078.39"
/>
<path stroke="#46263d" vector-effect="non-scaling-stroke" d="
  M 481.26 1124.54
  L 428.34 1124.56
  Q 428.09 1124.56 428.00 1124.79
  Q 427.94 1124.94 427.84 1125.02"
/>
<path stroke="#53374f" vector-effect="non-scaling-stroke" d="
  M 427.84 1125.02
  Q 427.42 1124.38 427.01 1124.31"
/>
<path stroke="#9e8a97" vector-effect="non-scaling-stroke" d="
  M 427.01 1124.31
  L 427.01 901.24
  A 1.07 1.06 -0.8 0 0 425.91 900.18
  L 418.57 900.42
  Q 418.00 900.44 418.00 901.00
  L 418.00 1124.47"
/>
<path stroke="#53374f" vector-effect="non-scaling-stroke" d="
  M 418.00 1124.47
  L 364.81 1124.44
  Q 364.31 1124.44 363.96 1124.08
  L 363.58 1123.70"
/>
<path stroke="#5d495e" vector-effect="non-scaling-stroke" d="
  M 491.48 741.68
  L 469.97 741.77
  Q 469.45 741.77 469.45 742.30
  Q 469.52 758.70 469.51 775.11
  C 469.51 790.28 476.34 801.46 491.26 806.36"
/>
<path stroke="#a89ba6" vector-effect="non-scaling-stroke" d="
  M 491.26 806.36
  L 491.25 847.70
  Q 491.25 848.31 490.74 847.99
  L 481.27 842.13"
/>
<path stroke="#46263d" vector-effect="non-scaling-stroke" d="
  M 481.27 842.13
  Q 470.55 833.67 463.92 821.77
  Q 463.60 821.21 462.99 820.76"
/>
<path stroke="#a89ba6" vector-effect="non-scaling-stroke" d="
  M 462.99 820.76
  Q 463.55 820.57 463.19 819.81
  Q 457.95 809.03 457.10 797.61"
/>
<path stroke="#5d495e" vector-effect="non-scaling-stroke" d="
  M 457.10 797.61
  Q 458.35 787.23 458.50 784.50
  Q 462.37 712.80 466.18 641.45
  A 2.49 2.48 -68.5 0 0 465.29 639.40
  L 457.78 633.14
  Q 457.20 632.66 457.76 632.17
  L 472.02 619.52
  A 1.27 1.22 73.2 0 0 472.44 618.70
  L 476.17 581.61"
/>
<path stroke="#a89ba6" vector-effect="non-scaling-stroke" d="
  M 476.17 581.61
  L 488.27 582.41"
/>
<path stroke="#8d8f9c" vector-effect="non-scaling-stroke" d="
  M 488.27 582.41
  C 542.06 585.18 582.19 558.41 592.82 504.24"
/>
<path stroke="#d49b68" vector-effect="non-scaling-stroke" d="
  M 722.72 1073.04
  Q 657.14 1072.96 591.58 1073.01
  C 589.41 1073.01 586.53 1073.50 583.63 1072.93"
/>
<path stroke="#5d495e" vector-effect="non-scaling-stroke" d="
  M 427.84 1125.02
  L 428.43 1140.66"
/>
<path stroke="#414557" vector-effect="non-scaling-stroke" d="
  M 428.43 1140.66
  L 362.96 1140.72"
/>
<path stroke="#bfdfe4" vector-effect="non-scaling-stroke" d="
  M 709.15 453.76
  L 635.65 485.03"
/>
<path stroke="#828794" vector-effect="non-scaling-stroke" d="
  M 635.65 485.03
  L 593.58 502.99
  Q 593.11 503.19 592.97 503.69
  L 592.82 504.24"
/>
<path stroke="#bfdfe4" vector-effect="non-scaling-stroke" d="
  M 592.82 504.24
  Q 592.54 504.02 592.11 503.94
  Q 591.77 503.87 591.36 504.05
  Q 545.42 523.67 500.39 543.05"
/>
<path stroke="#d3c6ab" vector-effect="non-scaling-stroke" d="
  M 500.39 543.05
  Q 501.84 537.79 501.80 530.89"
/>
<path stroke="#b4adb7" vector-effect="non-scaling-stroke" d="
  M 427.01 1124.31
  L 418.00 1124.47"
/>
<path stroke="#46263d" vector-effect="non-scaling-stroke" d="
  M 415.01 820.76
  L 414.47 821.11
  Q 414.10 821.35 413.88 821.74
  Q 397.59 850.92 363.70 854.84"
/>
<path stroke="#5d495e" vector-effect="non-scaling-stroke" d="
  M 358.85 807.66
  C 374.29 807.32 391.25 808.01 397.60 790.28
  Q 399.28 785.59 399.42 775.01
  Q 399.64 759.00 399.44 742.87
  A 1.13 1.13 0.0 0 0 398.31 741.76
  Q 380.66 741.74 362.44 741.76
  Q 362.04 741.76 360.74 742.02
  Q 359.52 742.27 358.99 741.41"
/>
<path stroke="#5e6a7b" vector-effect="non-scaling-stroke" d="
  M 238.02 672.81
  Q 235.30 667.72 234.44 663.07"
/>
<path stroke="#a17664" vector-effect="non-scaling-stroke" d="
  M 234.44 663.07
  L 268.90 645.37"
/>
<path stroke="#8d8f9c" vector-effect="non-scaling-stroke" d="
  M 274.87 657.04
  Q 281.58 672.95 292.60 686.93
  C 303.48 700.73 316.36 704.62 332.46 696.12
  C 350.10 686.81 355.29 640.31 356.49 622.75"
/>
<path stroke="#9e8a97" vector-effect="non-scaling-stroke" d="
  M 462.99 820.76
  L 415.01 820.76"
/>
<path stroke="#a89ba6" vector-effect="non-scaling-stroke" d="
  M 415.01 820.76
  Q 414.45 820.57 414.81 819.81
  Q 420.07 808.83 420.89 797.26"
/>
<path stroke="#b4adb7" vector-effect="non-scaling-stroke" d="
  M 475.52 580.28
  L 476.17 581.61"
/>
<path stroke="#b4adb7" vector-effect="non-scaling-stroke" d="
  M 457.10 797.61
  Q 449.62 734.95 442.36 672.39
  C 442.19 670.95 442.13 668.98 442.33 667.82
  Q 449.14 629.35 455.61 590.31"
/>
<path stroke="#e4f3f6" vector-effect="non-scaling-stroke" d="
  M 488.27 582.41
  C 489.03 580.92 487.48 579.89 486.12 579.70
  Q 480.84 578.96 475.52 580.28"
/>
<path stroke="#99a0ae" vector-effect="non-scaling-stroke" d="
  M 475.52 580.28
  L 458.93 575.45
  Q 458.30 575.27 458.17 575.91
  L 456.66 583.46"
/>
<path stroke="#decdb4" vector-effect="non-scaling-stroke" d="
  M 500.39 543.05
  Q 493.59 565.78 470.92 570.94
  Q 467.24 571.78 457.25 571.64
  Q 456.74 571.64 456.74 572.15
  L 456.66 583.46"
/>
<path stroke="#ae8775" vector-effect="non-scaling-stroke" d="
  M 456.66 583.46
  L 455.61 590.31"
/>
<path stroke="#f9dabd" vector-effect="non-scaling-stroke" d="
  M 455.61 590.31
  Q 451.80 598.35 444.94 600.71
  Q 433.03 604.81 423.51 594.00"
/>
<path stroke="#ae8775" vector-effect="non-scaling-stroke" d="
  M 423.51 594.00
  Q 422.76 592.23 421.95 589.86
  C 420.63 586.02 420.90 581.80 420.89 577.66"
/>
<path stroke="#d3c6ab" vector-effect="non-scaling-stroke" d="
  M 420.89 577.66
  L 420.64 568.95
  Q 420.62 568.43 420.12 568.28
  L 416.72 567.24"
/>
<path stroke="#decdb4" vector-effect="non-scaling-stroke" d="
  M 416.72 567.24
  Q 402.41 560.83 393.16 549.60"
/>
<path stroke="#ebd3b9" vector-effect="non-scaling-stroke" d="
  M 393.16 549.60
  Q 385.32 539.49 382.13 527.74"
/>
<path stroke="#bfdfe4" vector-effect="non-scaling-stroke" d="
  M 735.26 431.11
  L 501.80 530.89"
/>
<path stroke="#decdb4" vector-effect="non-scaling-stroke" d="
  M 501.80 530.89
  L 501.67 515.83
  Q 501.67 515.31 502.07 514.97
  Q 509.12 508.99 509.28 499.92"
/>
<path stroke="#76c3b9" vector-effect="non-scaling-stroke" d="
  M 739.42 440.71
  L 735.26 431.11"
/>
<path stroke="#81cac1" vector-effect="non-scaling-stroke" d="
  M 735.26 431.11
  L 725.14 407.75"
/>
<path stroke="#8ed0c7" vector-effect="non-scaling-stroke" d="
  M 725.14 407.75
  L 715.54 385.27"
/>
<path stroke="#d3c6ab" vector-effect="non-scaling-stroke" d="
  M 232.22 655.19
  L 229.42 647.68"
/>
<path stroke="#decdb4" vector-effect="non-scaling-stroke" d="
  M 229.42 647.68
  C 226.47 639.29 223.81 631.68 223.37 622.80"
/>
<path stroke="#d7ecf2" vector-effect="non-scaling-stroke" d="
  M 647.00 413.84
  Q 645.81 415.09 644.95 415.45
  Q 576.75 444.48 508.26 473.85"
/>
<path stroke="#868679" vector-effect="non-scaling-stroke" d="
  M 508.26 473.85
  C 508.26 467.63 506.99 456.10 509.16 450.87
  Q 516.26 433.74 504.17 419.61
  A 1.78 1.74 20.5 0 1 503.76 418.74
  C 499.88 394.93 470.62 388.18 450.91 387.25
  A 0.35 0.35 0.0 0 1 450.70 386.63
  C 451.72 385.80 453.24 384.52 452.99 383.08
  Q 452.73 381.62 450.74 381.53
  A 0.99 0.97 27.1 0 0 450.13 381.72
  L 447.61 383.65
  Q 446.68 384.36 446.76 383.19
  C 447.09 378.38 442.46 373.82 439.25 379.13
  C 438.51 380.36 438.76 381.86 438.74 383.31
  Q 438.73 384.10 438.13 383.58
  L 435.87 381.60
  A 1.64 1.63 59.3 0 0 434.48 381.24
  Q 433.03 381.55 432.53 383.06
  Q 432.35 383.63 432.75 384.07
  L 434.87 386.43
  A 0.35 0.35 0.0 0 1 434.61 387.02
  C 413.49 387.08 379.26 393.93 376.65 420.33
  Q 376.60 420.83 376.29 421.24
  Q 366.80 434.00 371.86 448.89
  Q 372.77 451.57 372.76 453.90
  Q 372.74 472.85 372.75 491.80
  Q 372.75 499.44 374.02 503.06
  Q 376.02 508.79 380.68 512.69"
/>
<path stroke="#decdb4" vector-effect="non-scaling-stroke" d="
  M 380.68 512.69
  Q 379.86 520.04 382.13 527.74"
/>
<path stroke="#d7ecf2" vector-effect="non-scaling-stroke" d="
  M 382.13 527.74
  L 200.99 605.16"
/>
<path stroke="#9bc1cb" vector-effect="non-scaling-stroke" d="
  M 200.99 605.16
  Q 187.20 610.97 173.58 616.85
  C 164.15 620.92 157.44 624.60 157.77 635.22
  Q 157.88 638.90 160.47 644.94
  Q 166.56 659.10 172.58 673.29
  C 176.81 683.28 180.53 691.63 191.89 691.01
  Q 196.22 690.78 208.20 685.58
  Q 222.98 679.16 238.02 672.81"
/>
<path stroke="#8d8f9c" vector-effect="non-scaling-stroke" d="
  M 238.02 672.81
  C 254.24 709.79 282.90 749.08 329.82 739.18
  Q 344.92 735.99 358.14 727.49
  Q 358.68 727.14 358.70 727.78
  L 359.04 740.00"
/>
<path stroke="#9bc1cb" vector-effect="non-scaling-stroke" d="
  M 210.70 627.65
  Q 215.89 640.36 219.19 647.06
  Q 220.12 648.96 222.86 651.13"
/>
<path stroke="#90bac3" vector-effect="non-scaling-stroke" d="
  M 222.86 651.13
  Q 226.85 654.48 232.22 655.19"
/>
<path stroke="#afa893" vector-effect="non-scaling-stroke" d="
  M 232.22 655.19
  L 234.44 663.07"
/>
<path stroke="#5e6a7b" vector-effect="non-scaling-stroke" d="
  M 404.26 600.87
  Q 401.42 602.95 399.69 603.69
  Q 378.70 612.69 357.69 621.64
  C 357.10 621.89 356.89 622.28 356.49 622.75"
/>
<path stroke="#9bc1cb" vector-effect="non-scaling-stroke" d="
  M 356.49 622.75
  Q 356.48 622.19 355.75 622.50
  Q 315.29 639.78 274.87 657.04"
/>
<path stroke="#5e6a7b" vector-effect="non-scaling-stroke" d="
  M 274.87 657.04
  Q 272.24 651.45 270.34 646.24
  Q 270.17 645.76 269.88 645.47
  Q 269.07 644.63 268.90 645.37"
/>
<path stroke="#afa893" vector-effect="non-scaling-stroke" d="
  M 268.90 645.37
  L 267.65 642.20"
/>
<path stroke="#b4adb7" vector-effect="non-scaling-stroke" d="
  M 423.51 594.00
  Q 429.64 632.00 435.58 668.78
  Q 435.87 670.55 435.66 672.32
  Q 428.32 734.80 420.89 797.26"
/>
<path stroke="#5d495e" vector-effect="non-scaling-stroke" d="
  M 420.89 797.26
  Q 419.65 788.52 418.66 770.31
  Q 415.17 705.73 411.79 641.59
  A 2.65 2.62 68.5 0 1 412.71 639.44
  L 420.23 633.06
  Q 420.73 632.64 420.24 632.20
  Q 414.37 626.97 408.50 621.75
  C 406.73 620.18 405.58 619.62 405.41 617.04
  Q 404.91 609.04 404.26 600.87"
/>
<path stroke="#6b7b8d" vector-effect="non-scaling-stroke" d="
  M 404.26 600.87
  Q 411.84 592.61 408.04 582.20"
/>
<path stroke="#938b7e" vector-effect="non-scaling-stroke" d="
  M 508.26 473.85
  Q 509.20 482.25 501.21 482.54"
/>
<path stroke="#9a6d40" vector-effect="non-scaling-stroke" d="
  M 501.21 482.54
  C 491.24 482.85 493.76 471.20 493.74 465.12
  Q 493.74 464.59 493.24 464.75
  Q 482.40 468.21 472.17 463.34
  A 1.19 1.17 47.0 0 0 471.26 463.30
  Q 442.23 474.06 412.71 464.55
  Q 412.06 464.34 412.06 465.03
  Q 411.89 482.29 411.98 499.55
  C 412.03 507.98 409.55 510.00 401.02 508.78
  Q 400.50 508.71 400.50 508.19
  L 400.50 483.00
  Q 400.50 482.46 399.97 482.41
  C 380.37 480.69 372.20 505.84 388.95 516.03
  A 0.18 0.17 -23.1 0 1 388.82 516.35
  Q 385.04 515.52 380.68 512.69"
/>
<path stroke="#8f99a5" vector-effect="non-scaling-stroke" d="
  M 420.89 577.66
  L 408.04 582.20"
/>
<path stroke="#90bac3" vector-effect="non-scaling-stroke" d="
  M 408.04 582.20
  L 267.65 642.20"
/>
<path stroke="#d3c6ab" vector-effect="non-scaling-stroke" d="
  M 267.65 642.20
  L 264.16 632.49"
/>
<path stroke="#bfdfe4" vector-effect="non-scaling-stroke" d="
  M 416.72 567.24
  L 264.16 632.49"
/>
<path stroke="#decdb4" vector-effect="non-scaling-stroke" d="
  M 264.16 632.49
  C 261.24 622.79 260.03 616.53 253.48 610.31"
/>
<path stroke="#d7ecf2" vector-effect="non-scaling-stroke" d="
  M 393.16 549.60
  Q 324.67 578.89 256.31 608.06
  Q 254.59 608.80 253.48 610.31"
/>
<path stroke="#ebd3b9" vector-effect="non-scaling-stroke" d="
  M 253.48 610.31
  Q 231.30 600.30 223.37 622.80"
/>
<path stroke="#d7ecf2" vector-effect="non-scaling-stroke" d="
  M 223.37 622.80
  Q 217.36 624.05 210.70 627.65"
/>
<path stroke="#a8c7d1" vector-effect="non-scaling-stroke" d="
  M 210.70 627.65
  L 200.99 605.16"
/>
<path stroke="#d7ecf2" vector-effect="non-scaling-stroke" d="
  M 725.14 407.75
  L 509.28 499.92"
/>
<path stroke="#ebd3b9" vector-effect="non-scaling-stroke" d="
  M 509.28 499.92
  Q 508.66 491.75 502.31 485.69
  Q 501.06 484.49 501.21 482.54"
/>
<path stroke="#76c3b9" vector-effect="non-scaling-stroke" d="
  M 770.37 392.79
  Q 766.08 384.83 758.98 380.38"
/>
<path stroke="#bfdfe4" vector-effect="non-scaling-stroke" d="
  M 229.42 647.68
  Q 225.50 648.57 222.86 651.13"
/>
<path stroke="#daebed" vector-effect="non-scaling-stroke" d="
  M 1022.99 300.61
  A 0.61 0.61 0.0 0 0 1022.38 300.00
  L 899.36 300.00
  A 0.61 0.61 0.0 0 0 898.75 300.61
  L 898.75 310.13
  A 0.61 0.61 0.0 0 0 899.36 310.74
  L 1022.38 310.74
  A 0.61 0.61 0.0 0 0 1022.99 310.13
  L 1022.99 300.61"
/>
<path stroke="#daebed" vector-effect="non-scaling-stroke" d="
  M 1165.51 346.06
  A 0.78 0.78 0.0 0 0 1164.73 345.28
  L 899.53 345.28
  A 0.78 0.78 0.0 0 0 898.75 346.06
  L 898.75 355.22
  A 0.78 0.78 0.0 0 0 899.53 356.00
  L 1164.73 356.00
  A 0.78 0.78 0.0 0 0 1165.51 355.22
  L 1165.51 346.06"
/>
<path stroke="#daebed" vector-effect="non-scaling-stroke" d="
  M 1163.49 379.72
  A 0.47 0.47 0.0 0 0 1163.02 379.25
  L 897.48 379.25
  A 0.47 0.47 0.0 0 0 897.01 379.72
  L 897.01 389.40
  A 0.47 0.47 0.0 0 0 897.48 389.87
  L 1163.02 389.87
  A 0.47 0.47 0.0 0 0 1163.49 389.40
  L 1163.49 379.72"
/>
<path stroke="#daebed" vector-effect="non-scaling-stroke" d="
  M 852.4919 469.5016
  A 16.89 16.89 0.0 0 0 835.6314 452.5821
  L 775.9715 452.4780
  A 16.89 16.89 0.0 0 0 759.0520 469.3385
  L 758.9481 528.8784
  A 16.89 16.89 0.0 0 0 775.8086 545.7979
  L 835.4685 545.9020
  A 16.89 16.89 0.0 0 0 852.3880 529.0415
  L 852.4919 469.5016"
/>
<path stroke="#daebed" vector-effect="non-scaling-stroke" d="
  M 1022.99 452.77
  A 0.26 0.26 0.0 0 0 1022.73 452.51
  L 899.01 452.51
  A 0.26 0.26 0.0 0 0 898.75 452.77
  L 898.75 462.99
  A 0.26 0.26 0.0 0 0 899.01 463.25
  L 1022.73 463.25
  A 0.26 0.26 0.0 0 0 1022.99 462.99
  L 1022.99 452.77"
/>
<path stroke="#daebed" vector-effect="non-scaling-stroke" d="
  M 1165.50 498.80
  A 1.04 1.04 0.0 0 0 1164.46 497.76
  L 899.78 497.76
  A 1.04 1.04 0.0 0 0 898.74 498.80
  L 898.74 507.64
  A 1.04 1.04 0.0 0 0 899.78 508.68
  L 1164.46 508.68
  A 1.04 1.04 0.0 0 0 1165.50 507.64
  L 1165.50 498.80"
/>
<path stroke="#daebed" vector-effect="non-scaling-stroke" d="
  M 1163.49 531.76
  A 0.26 0.26 0.0 0 0 1163.23 531.50
  L 897.27 531.50
  A 0.26 0.26 0.0 0 0 897.01 531.76
  L 897.01 542.00
  A 0.26 0.26 0.0 0 0 897.27 542.26
  L 1163.23 542.26
  A 0.26 0.26 0.0 0 0 1163.49 542.00
  L 1163.49 531.76"
/>
<path stroke="#daebed" vector-effect="non-scaling-stroke" d="
  M 852.4182 622.0085
  A 17.09 17.09 0.0 0 0 835.2984 604.9483
  L 775.9985 605.0518
  A 17.09 17.09 0.0 0 0 758.9383 622.1716
  L 759.0418 681.4715
  A 17.09 17.09 0.0 0 0 776.1616 698.5317
  L 835.4615 698.4282
  A 17.09 17.09 0.0 0 0 852.5217 681.3084
  L 852.4182 622.0085"
/>
<path stroke="#daebed" vector-effect="non-scaling-stroke" d="
  M 1022.99 606.77
  A 0.52 0.52 0.0 0 0 1022.47 606.25
  L 899.29 606.25
  A 0.52 0.52 0.0 0 0 898.77 606.77
  L 898.77 616.25
  A 0.52 0.52 0.0 0 0 899.29 616.77
  L 1022.47 616.77
  A 0.52 0.52 0.0 0 0 1022.99 616.25
  L 1022.99 606.77"
/>
<path stroke="#daebed" vector-effect="non-scaling-stroke" d="
  M 1165.50 652.26
  A 0.76 0.76 0.0 0 0 1164.74 651.50
  L 899.52 651.50
  A 0.76 0.76 0.0 0 0 898.76 652.26
  L 898.76 661.48
  A 0.76 0.76 0.0 0 0 899.52 662.24
  L 1164.74 662.24
  A 0.76 0.76 0.0 0 0 1165.50 661.48
  L 1165.50 652.26"
/>
<path stroke="#daebed" vector-effect="non-scaling-stroke" d="
  M 1163.50 685.80
  A 0.54 0.54 0.0 0 0 1162.96 685.26
  L 897.54 685.26
  A 0.54 0.54 0.0 0 0 897.00 685.80
  L 897.00 695.46
  A 0.54 0.54 0.0 0 0 897.54 696.00
  L 1162.96 696.00
  A 0.54 0.54 0.0 0 0 1163.50 695.46
  L 1163.50 685.80"
/>
<path stroke="#daebed" vector-effect="non-scaling-stroke" d="
  M 852.4080 774.3185
  A 16.87 16.87 0.0 0 0 835.5086 757.4780
  L 775.7887 757.5822
  A 16.87 16.87 0.0 0 0 758.9481 774.4816
  L 759.0520 833.9815
  A 16.87 16.87 0.0 0 0 775.9514 850.8220
  L 835.6713 850.7178
  A 16.87 16.87 0.0 0 0 852.5119 833.8184
  L 852.4080 774.3185"
/>
<path stroke="#daebed" vector-effect="non-scaling-stroke" d="
  M 1023.00 760.43
  A 0.43 0.43 0.0 0 0 1022.57 760.00
  L 899.19 760.00
  A 0.43 0.43 0.0 0 0 898.76 760.43
  L 898.76 770.31
  A 0.43 0.43 0.0 0 0 899.19 770.74
  L 1022.57 770.74
  A 0.43 0.43 0.0 0 0 1023.00 770.31
  L 1023.00 760.43"
/>
<path stroke="#daebed" vector-effect="non-scaling-stroke" d="
  M 1165.50 805.82
  A 0.57 0.57 0.0 0 0 1164.93 805.25
  L 899.33 805.25
  A 0.57 0.57 0.0 0 0 898.76 805.82
  L 898.76 815.42
  A 0.57 0.57 0.0 0 0 899.33 815.99
  L 1164.93 815.99
  A 0.57 0.57 0.0 0 0 1165.50 815.42
  L 1165.50 805.82"
/>
<path stroke="#daebed" vector-effect="non-scaling-stroke" d="
  M 1163.50 839.55
  A 0.55 0.55 0.0 0 0 1162.95 839.00
  L 897.55 839.00
  A 0.55 0.55 0.0 0 0 897.00 839.55
  L 897.00 849.15
  A 0.55 0.55 0.0 0 0 897.55 849.70
  L 1162.95 849.70
  A 0.55 0.55 0.0 0 0 1163.50 849.15
  L 1163.50 839.55"
/>
<path stroke="#daebed" vector-effect="non-scaling-stroke" d="
  M 826.03 927.19
  A 22.81 22.81 0.0 0 0 803.22 904.38
  A 22.81 22.81 0.0 0 0 780.41 927.19
  A 22.81 22.81 0.0 0 0 803.22 950.00
  A 22.81 22.81 0.0 0 0 826.03 927.19"
/>
<path stroke="#daebed" vector-effect="non-scaling-stroke" d="
  M 904.50 927.19
  A 22.82 22.82 0.0 0 0 881.68 904.37
  A 22.82 22.82 0.0 0 0 858.86 927.19
  A 22.82 22.82 0.0 0 0 881.68 950.01
  A 22.82 22.82 0.0 0 0 904.50 927.19"
/>
<path stroke="#daebed" vector-effect="non-scaling-stroke" d="
  M 982.94 927.19
  A 22.80 22.80 0.0 0 0 960.14 904.39
  A 22.80 22.80 0.0 0 0 937.34 927.19
  A 22.80 22.80 0.0 0 0 960.14 949.99
  A 22.80 22.80 0.0 0 0 982.94 927.19"
/>
<path stroke="#daebed" vector-effect="non-scaling-stroke" d="
  M 1061.39 927.19
  A 22.81 22.81 0.0 0 0 1038.58 904.38
  A 22.81 22.81 0.0 0 0 1015.77 927.19
  A 22.81 22.81 0.0 0 0 1038.58 950.00
  A 22.81 22.81 0.0 0 0 1061.39 927.19"
/>
<path stroke="#daebed" vector-effect="non-scaling-stroke" d="
  M 1139.86 927.19
  A 22.81 22.81 0.0 0 0 1117.05 904.38
  A 22.81 22.81 0.0 0 0 1094.24 927.19
  A 22.81 22.81 0.0 0 0 1117.05 950.00
  A 22.81 22.81 0.0 0 0 1139.86 927.19"
/>
<path stroke="#6055ba" vector-effect="non-scaling-stroke" d="
  M 1122.46 179.10
  A 5.35 5.35 0.0 0 0 1117.11 173.75
  L 997.61 173.75
  A 5.35 5.35 0.0 0 0 992.26 179.10
  L 992.26 179.38
  A 5.35 5.35 0.0 0 0 997.61 184.73
  L 1117.11 184.73
  A 5.35 5.35 0.0 0 0 1122.46 179.38
  L 1122.46 179.10"
/>
<path stroke="#584ea9" vector-effect="non-scaling-stroke" d="
  M 983.54 1117.38
  A 23.28 23.28 0.0 0 0 960.26 1094.10
  L 873.24 1094.10
  A 23.28 23.28 0.0 0 0 849.96 1117.38
  L 849.96 1119.10
  A 23.28 23.28 0.0 0 0 873.24 1142.38
  L 960.26 1142.38
  A 23.28 23.28 0.0 0 0 983.54 1119.10
  L 983.54 1117.38"
/>
<path stroke="#584ea9" vector-effect="non-scaling-stroke" d="
  M 1260.8314 1117.4764
  A 23.29 23.29 0.0 0 0 1237.5821 1094.1458
  L 1150.7423 1093.9943
  A 23.29 23.29 0.0 0 0 1127.4116 1117.2436
  L 1127.4086 1119.0036
  A 23.29 23.29 0.0 0 0 1150.6579 1142.3342
  L 1237.4977 1142.4857
  A 23.29 23.29 0.0 0 0 1260.8284 1119.2364
  L 1260.8314 1117.4764"
/>
<path stroke="#daebed" vector-effect="non-scaling-stroke" d="
  M 841.6887 317.3471
  A 6.65 6.65 0.0 0 0 835.0271 310.7087
  L 776.1872 310.8114
  A 6.65 6.65 0.0 0 0 769.5488 317.4730
  L 769.6513 376.1529
  A 6.65 6.65 0.0 0 0 776.3129 382.7913
  L 835.1528 382.6886
  A 6.65 6.65 0.0 0 0 841.7912 376.0270
  L 841.6887 317.3471"
/>
<path stroke="#daebed" vector-effect="non-scaling-stroke" d="
  M 841.7909 470.1130
  A 6.79 6.79 0.0 0 0 835.0128 463.3112
  L 776.4129 463.2089
  A 6.79 6.79 0.0 0 0 769.6110 469.9871
  L 769.5091 528.3870
  A 6.79 6.79 0.0 0 0 776.2872 535.1888
  L 834.8871 535.2911
  A 6.79 6.79 0.0 0 0 841.6890 528.5129
  L 841.7909 470.1130"
/>
<path stroke="#9a6d40" vector-effect="non-scaling-stroke" d="
  M 427.77 500.49
  A 0.78 0.76 -57.4 0 0 428.64 500.29
  Q 437.58 490.18 447.06 499.31
  Q 448.03 500.24 448.62 500.36
  Q 449.85 500.61 450.46 498.99
  C 451.68 495.77 444.50 492.28 442.75 491.83
  Q 433.01 489.34 426.79 496.39
  C 425.19 498.20 425.56 499.57 427.77 500.49"
/>
<path stroke="#9a6d40" vector-effect="non-scaling-stroke" d="
  M 482.99 499.98
  Q 483.97 499.41 484.71 498.15
  C 487.76 492.95 493.73 495.21 496.15 499.53
  A 1.45 1.45 0.0 0 0 498.81 498.42
  C 496.04 488.75 484.23 488.71 480.91 498.28
  A 1.43 1.43 0.0 0 0 482.99 499.98"
/>
<path stroke="#d49b68" vector-effect="non-scaling-stroke" d="
  M 451.30 534.05
  Q 464.42 543.05 476.74 534.07"
/>
<path stroke="#9a6d40" vector-effect="non-scaling-stroke" d="
  M 476.74 534.07
  C 479.39 532.15 485.78 525.75 482.68 522.35
  A 1.10 1.06 -19.5 0 0 481.89 521.99
  Q 464.97 521.53 448.02 521.79
  C 445.37 521.84 443.61 523.13 444.87 525.92
  Q 446.97 530.60 451.30 534.05"
/>
<path stroke="#7c542d" vector-effect="non-scaling-stroke" d="
  M 476.74 534.07
  Q 464.20 520.20 451.30 534.05"
/>
<path stroke="#9eadba" vector-effect="non-scaling-stroke" d="
  M 824.03 485.74
  C 816.77 492.92 809.25 500.08 802.22 507.46
  Q 801.83 507.86 801.45 507.46
  C 798.47 504.27 791.66 496.16 787.57 495.22
  C 783.55 494.29 779.35 498.60 780.59 502.62
  C 781.82 506.58 792.59 515.71 795.97 519.10
  C 799.28 522.41 802.47 524.24 806.29 520.53
  Q 812.06 514.94 831.45 495.40
  Q 834.39 492.44 835.03 490.74
  C 837.38 484.50 829.05 480.76 824.03 485.74"
/>
<path stroke="#daebed" vector-effect="non-scaling-stroke" d="
  M 841.8010 622.5530
  A 6.74 6.74 0.0 0 0 835.0728 615.8013
  L 776.3729 615.6988
  A 6.74 6.74 0.0 0 0 769.6211 622.4271
  L 769.5190 680.9470
  A 6.74 6.74 0.0 0 0 776.2472 687.6987
  L 834.9471 687.8012
  A 6.74 6.74 0.0 0 0 841.6989 681.0729
  L 841.8010 622.5530"
/>
<path stroke="#9eadba" vector-effect="non-scaling-stroke" d="
  M 801.31 660.57
  Q 796.50 655.40 791.37 650.55
  C 784.51 644.07 777.09 653.22 781.68 657.81
  Q 789.39 665.51 797.09 673.23
  C 800.66 676.80 803.83 676.04 807.27 672.60
  Q 819.78 660.09 832.30 647.58
  C 839.76 640.12 830.31 632.28 824.44 638.19
  Q 813.28 649.45 801.99 660.58
  Q 801.64 660.93 801.31 660.57"
/>
<path stroke="#daebed" vector-effect="non-scaling-stroke" d="
  M 841.74 774.69
  A 6.43 6.43 0.0 0 0 835.31 768.26
  L 776.05 768.26
  A 6.43 6.43 0.0 0 0 769.62 774.69
  L 769.62 833.57
  A 6.43 6.43 0.0 0 0 776.05 840.00
  L 835.31 840.00
  A 6.43 6.43 0.0 0 0 841.74 833.57
  L 841.74 774.69"
/>
<path stroke="#9eadba" vector-effect="non-scaling-stroke" d="
  M 801.36 810.44
  C 798.39 807.55 791.62 799.35 787.99 798.33
  C 783.77 797.14 779.34 801.55 780.57 805.58
  C 781.98 810.20 793.61 819.98 797.46 823.79
  C 801.00 827.31 804.68 825.20 807.78 822.10
  Q 820.02 809.86 832.25 797.62
  Q 834.53 795.33 835.07 793.84
  C 836.73 789.28 830.95 784.63 826.91 786.54
  Q 825.35 787.28 821.83 790.82
  Q 812.04 800.66 802.14 810.44
  Q 801.75 810.83 801.36 810.44"
/>
</g>
<path fill="#ffffff" d="
  M 0.00 0.00
  L 1596.00 0.00
  L 1596.00 1314.00
  L 0.00 1314.00
  L 0.00 0.00
  Z
  M 994.25 156.25
  Q 897.78 156.25 801.31 156.25
  C 791.16 156.25 783.11 157.49 775.29 162.52
  Q 755.65 175.16 755.35 199.51
  Q 755.24 208.35 755.27 216.85
  Q 716.64 217.07 691.14 243.04
  C 650.52 284.44 667.88 354.17 719.93 375.77
  A 0.59 0.59 0.0 0 0 720.75 375.22
  L 720.75 235.99
  Q 720.75 235.35 721.40 235.33
  L 755.25 234.46
  Q 755.23 234.60 755.32 234.71
  Q 755.40 234.81 755.54 234.81
  L 803.27 235.00
  L 1220.74 235.19
  Q 1221.28 235.19 1221.28 235.73
  L 1221.25 246.31
  L 1221.52 493.02
  L 1221.36 638.08
  L 1221.34 667.22
  L 1221.55 792.61
  L 1221.23 1037.72
  Q 1221.23 1038.25 1220.71 1038.25
  L 803.50 1038.25
  L 755.23 1038.29
  L 732.24 1038.30
  Q 731.75 1038.30 731.75 1038.80
  L 731.75 1048.23
  Q 731.75 1048.72 732.24 1048.72
  L 755.25 1048.75
  Q 755.24 1083.84 755.26 1118.94
  Q 755.27 1133.01 756.78 1138.80
  C 760.74 1154.01 773.00 1165.37 788.29 1169.18
  L 788.26 1169.63
  Q 788.23 1170.12 787.74 1170.12
  L 669.73 1169.81
  Q 688.61 1165.71 701.39 1154.40
  Q 716.85 1140.72 721.21 1121.07
  C 723.90 1108.96 722.83 1092.35 722.69 1078.69
  L 722.72 1073.04
  L 722.72 1056.56
  Q 722.72 1056.03 722.19 1056.03
  L 658.07 1056.01
  L 658.49 994.96
  C 670.46 993.39 680.71 994.15 689.50 994.00
  Q 705.44 993.73 720.30 986.00
  A 0.85 0.83 -14.3 0 0 720.75 985.26
  Q 720.75 781.14 720.75 577.07
  Q 720.75 576.25 719.94 575.81
  L 720.50 575.09
  Q 720.75 574.77 720.75 574.36
  L 720.75 466.27
  A 1.99 1.99 0.0 0 0 720.30 465.01
  Q 715.39 459.05 709.15 453.76
  L 739.42 440.71
  C 747.09 437.55 756.60 434.19 762.40 429.55
  C 773.49 420.67 776.14 405.72 770.37 392.79
  C 789.62 394.62 809.92 393.48 829.32 393.53
  Q 837.77 393.55 841.52 392.10
  Q 852.41 387.91 852.46 373.47
  Q 852.55 345.89 852.48 318.32
  Q 852.44 305.43 842.10 301.49
  Q 838.14 299.98 828.71 299.99
  Q 805.02 299.99 781.34 300.02
  C 765.11 300.04 758.99 305.39 759.00 321.90
  Q 759.02 350.96 758.98 380.38
  C 743.69 371.88 732.07 377.56 715.54 385.27
  L 648.60 413.80
  A 0.40 0.35 30.1 0 1 648.45 413.83
  L 647.00 413.84
  Q 613.41 400.09 579.75 397.51
  Q 514.55 392.51 463.43 354.56
  C 457.09 349.86 447.72 342.23 440.45 337.29
  C 372.90 291.41 283.54 285.94 211.44 325.15
  C 162.01 352.02 123.31 395.96 105.15 449.73
  C 57.47 590.92 157.99 734.89 305.32 742.91
  Q 313.80 743.37 318.44 742.93
  A 1.75 1.68 -33.6 0 1 319.38 743.10
  Q 319.72 743.28 320.00 743.27
  Q 339.32 742.54 358.36 739.27
  Q 358.71 739.21 358.74 739.56
  Q 358.78 740.00 359.04 740.00
  L 358.99 741.41
  L 355.41 741.75
  Q 354.92 741.80 354.92 742.29
  L 355.20 806.45
  Q 355.20 807.08 355.82 807.18
  L 358.85 807.66
  Q 358.44 809.79 358.47 811.76
  Q 358.75 832.93 359.09 854.16
  Q 359.10 854.70 359.64 854.72
  L 363.70 854.84
  L 363.58 1123.70
  Q 362.33 1132.19 362.96 1140.72
  Q 361.91 1140.60 361.32 1140.96
  Q 360.79 1141.27 360.78 1142.28
  Q 360.63 1152.41 360.43 1162.62
  Q 360.42 1163.24 359.80 1163.24
  L 356.63 1163.27
  A 0.58 0.58 0.0 0 0 356.05 1163.87
  L 356.28 1169.99
  Q 335.59 1170.06 314.87 1169.94
  C 308.66 1169.90 303.35 1173.10 305.32 1179.75
  C 307.12 1185.83 313.12 1185.47 318.75 1185.37
  C 330.85 1185.14 345.77 1185.49 355.09 1185.49
  C 448.28 1185.58 543.51 1185.43 634.54 1185.48
  C 906.67 1185.63 1178.81 1185.56 1450.94 1185.42
  C 1454.04 1185.42 1460.81 1185.54 1462.46 1182.20
  Q 1466.33 1174.40 1459.10 1170.39
  A 1.14 1.06 58.3 0 0 1458.55 1170.24
  L 1370.58 1169.78
  Q 1393.72 1162.92 1401.58 1142.67
  C 1403.24 1138.37 1404.25 1132.98 1404.25 1128.50
  Q 1404.25 666.75 1404.25 205.00
  Q 1404.25 192.72 1402.76 187.28
  C 1398.91 173.10 1387.31 161.51 1373.21 157.74
  C 1362.49 154.87 1345.87 156.26 1333.27 156.24
  L 1329.51 156.01
  Q 1329.40 155.22 1329.67 154.62
  Q 1329.86 154.21 1329.63 153.81
  C 1288.95 83.72 1211.77 46.76 1131.59 59.43
  C 1077.58 67.96 1031.74 99.80 1001.77 145.13
  C 999.79 148.14 996.21 152.07 994.25 156.25
  Z
  M 1022.99 300.61
  A 0.61 0.61 0.0 0 0 1022.38 300.00
  L 899.36 300.00
  A 0.61 0.61 0.0 0 0 898.75 300.61
  L 898.75 310.13
  A 0.61 0.61 0.0 0 0 899.36 310.74
  L 1022.38 310.74
  A 0.61 0.61 0.0 0 0 1022.99 310.13
  L 1022.99 300.61
  Z
  M 1165.51 346.06
  A 0.78 0.78 0.0 0 0 1164.73 345.28
  L 899.53 345.28
  A 0.78 0.78 0.0 0 0 898.75 346.06
  L 898.75 355.22
  A 0.78 0.78 0.0 0 0 899.53 356.00
  L 1164.73 356.00
  A 0.78 0.78 0.0 0 0 1165.51 355.22
  L 1165.51 346.06
  Z
  M 1163.49 379.72
  A 0.47 0.47 0.0 0 0 1163.02 379.25
  L 897.48 379.25
  A 0.47 0.47 0.0 0 0 897.01 379.72
  L 897.01 389.40
  A 0.47 0.47 0.0 0 0 897.48 389.87
  L 1163.02 389.87
  A 0.47 0.47 0.0 0 0 1163.49 389.40
  L 1163.49 379.72
  Z
  M 852.4919 469.5016
  A 16.89 16.89 0.0 0 0 835.6314 452.5821
  L 775.9715 452.4780
  A 16.89 16.89 0.0 0 0 759.0520 469.3385
  L 758.9481 528.8784
  A 16.89 16.89 0.0 0 0 775.8086 545.7979
  L 835.4685 545.9020
  A 16.89 16.89 0.0 0 0 852.3880 529.0415
  L 852.4919 469.5016
  Z
  M 1022.99 452.77
  A 0.26 0.26 0.0 0 0 1022.73 452.51
  L 899.01 452.51
  A 0.26 0.26 0.0 0 0 898.75 452.77
  L 898.75 462.99
  A 0.26 0.26 0.0 0 0 899.01 463.25
  L 1022.73 463.25
  A 0.26 0.26 0.0 0 0 1022.99 462.99
  L 1022.99 452.77
  Z
  M 1165.50 498.80
  A 1.04 1.04 0.0 0 0 1164.46 497.76
  L 899.78 497.76
  A 1.04 1.04 0.0 0 0 898.74 498.80
  L 898.74 507.64
  A 1.04 1.04 0.0 0 0 899.78 508.68
  L 1164.46 508.68
  A 1.04 1.04 0.0 0 0 1165.50 507.64
  L 1165.50 498.80
  Z
  M 1163.49 531.76
  A 0.26 0.26 0.0 0 0 1163.23 531.50
  L 897.27 531.50
  A 0.26 0.26 0.0 0 0 897.01 531.76
  L 897.01 542.00
  A 0.26 0.26 0.0 0 0 897.27 542.26
  L 1163.23 542.26
  A 0.26 0.26 0.0 0 0 1163.49 542.00
  L 1163.49 531.76
  Z
  M 852.4182 622.0085
  A 17.09 17.09 0.0 0 0 835.2984 604.9483
  L 775.9985 605.0518
  A 17.09 17.09 0.0 0 0 758.9383 622.1716
  L 759.0418 681.4715
  A 17.09 17.09 0.0 0 0 776.1616 698.5317
  L 835.4615 698.4282
  A 17.09 17.09 0.0 0 0 852.5217 681.3084
  L 852.4182 622.0085
  Z
  M 1022.99 606.77
  A 0.52 0.52 0.0 0 0 1022.47 606.25
  L 899.29 606.25
  A 0.52 0.52 0.0 0 0 898.77 606.77
  L 898.77 616.25
  A 0.52 0.52 0.0 0 0 899.29 616.77
  L 1022.47 616.77
  A 0.52 0.52 0.0 0 0 1022.99 616.25
  L 1022.99 606.77
  Z
  M 1165.50 652.26
  A 0.76 0.76 0.0 0 0 1164.74 651.50
  L 899.52 651.50
  A 0.76 0.76 0.0 0 0 898.76 652.26
  L 898.76 661.48
  A 0.76 0.76 0.0 0 0 899.52 662.24
  L 1164.74 662.24
  A 0.76 0.76 0.0 0 0 1165.50 661.48
  L 1165.50 652.26
  Z
  M 1163.50 685.80
  A 0.54 0.54 0.0 0 0 1162.96 685.26
  L 897.54 685.26
  A 0.54 0.54 0.0 0 0 897.00 685.80
  L 897.00 695.46
  A 0.54 0.54 0.0 0 0 897.54 696.00
  L 1162.96 696.00
  A 0.54 0.54 0.0 0 0 1163.50 695.46
  L 1163.50 685.80
  Z
  M 852.4080 774.3185
  A 16.87 16.87 0.0 0 0 835.5086 757.4780
  L 775.7887 757.5822
  A 16.87 16.87 0.0 0 0 758.9481 774.4816
  L 759.0520 833.9815
  A 16.87 16.87 0.0 0 0 775.9514 850.8220
  L 835.6713 850.7178
  A 16.87 16.87 0.0 0 0 852.5119 833.8184
  L 852.4080 774.3185
  Z
  M 1023.00 760.43
  A 0.43 0.43 0.0 0 0 1022.57 760.00
  L 899.19 760.00
  A 0.43 0.43 0.0 0 0 898.76 760.43
  L 898.76 770.31
  A 0.43 0.43 0.0 0 0 899.19 770.74
  L 1022.57 770.74
  A 0.43 0.43 0.0 0 0 1023.00 770.31
  L 1023.00 760.43
  Z
  M 1165.50 805.82
  A 0.57 0.57 0.0 0 0 1164.93 805.25
  L 899.33 805.25
  A 0.57 0.57 0.0 0 0 898.76 805.82
  L 898.76 815.42
  A 0.57 0.57 0.0 0 0 899.33 815.99
  L 1164.93 815.99
  A 0.57 0.57 0.0 0 0 1165.50 815.42
  L 1165.50 805.82
  Z
  M 1163.50 839.55
  A 0.55 0.55 0.0 0 0 1162.95 839.00
  L 897.55 839.00
  A 0.55 0.55 0.0 0 0 897.00 839.55
  L 897.00 849.15
  A 0.55 0.55 0.0 0 0 897.55 849.70
  L 1162.95 849.70
  A 0.55 0.55 0.0 0 0 1163.50 849.15
  L 1163.50 839.55
  Z
  M 826.03 927.19
  A 22.81 22.81 0.0 0 0 803.22 904.38
  A 22.81 22.81 0.0 0 0 780.41 927.19
  A 22.81 22.81 0.0 0 0 803.22 950.00
  A 22.81 22.81 0.0 0 0 826.03 927.19
  Z
  M 904.50 927.19
  A 22.82 22.82 0.0 0 0 881.68 904.37
  A 22.82 22.82 0.0 0 0 858.86 927.19
  A 22.82 22.82 0.0 0 0 881.68 950.01
  A 22.82 22.82 0.0 0 0 904.50 927.19
  Z
  M 982.94 927.19
  A 22.80 22.80 0.0 0 0 960.14 904.39
  A 22.80 22.80 0.0 0 0 937.34 927.19
  A 22.80 22.80 0.0 0 0 960.14 949.99
  A 22.80 22.80 0.0 0 0 982.94 927.19
  Z
  M 1061.39 927.19
  A 22.81 22.81 0.0 0 0 1038.58 904.38
  A 22.81 22.81 0.0 0 0 1015.77 927.19
  A 22.81 22.81 0.0 0 0 1038.58 950.00
  A 22.81 22.81 0.0 0 0 1061.39 927.19
  Z
  M 1139.86 927.19
  A 22.81 22.81 0.0 0 0 1117.05 904.38
  A 22.81 22.81 0.0 0 0 1094.24 927.19
  A 22.81 22.81 0.0 0 0 1117.05 950.00
  A 22.81 22.81 0.0 0 0 1139.86 927.19
  Z"
/>
<path fill="#e4f1f7" d="
  M 1329.51 156.01
  L 994.25 156.25
  C 996.21 152.07 999.79 148.14 1001.77 145.13
  C 1031.74 99.80 1077.58 67.96 1131.59 59.43
  C 1211.77 46.76 1288.95 83.72 1329.63 153.81
  Q 1329.86 154.21 1329.67 154.62
  Q 1329.40 155.22 1329.51 156.01
  Z"
/>
<path fill="#6e64c4" d="
  M 1329.51 156.01
  L 1333.27 156.24
  Q 1333.12 157.22 1333.76 157.43
  C 1351.75 163.56 1364.29 178.79 1364.41 198.12
  C 1364.47 206.28 1364.26 216.58 1364.26 222.59
  C 1364.23 515.05 1364.19 807.51 1364.27 1099.97
  C 1364.27 1112.86 1366.29 1128.73 1362.42 1140.83
  Q 1356.55 1159.16 1338.25 1167.05
  Q 1334.61 1168.62 1333.71 1169.98
  Q 1065.57 1170.06 797.33 1169.94
  C 794.27 1169.94 791.31 1169.54 788.29 1169.18
  C 773.00 1165.37 760.74 1154.01 756.78 1138.80
  Q 755.27 1133.01 755.26 1118.94
  Q 755.24 1083.84 755.25 1048.75
  Q 755.25 1048.83 755.25 1048.91
  L 803.42 1048.98
  L 803.51 1069.25
  Q 803.51 1069.75 804.01 1069.75
  L 1311.99 1069.75
  Q 1312.48 1069.75 1312.48 1069.26
  L 1312.49 753.49
  L 1312.49 628.05
  L 1312.49 598.01
  L 1312.48 454.50
  L 1312.49 216.94
  L 1312.48 197.98
  Q 1312.48 197.50 1311.99 197.50
  L 804.01 197.50
  Q 803.52 197.50 803.52 197.98
  L 803.51 216.51
  L 803.27 235.00
  L 755.54 234.81
  Q 755.40 234.81 755.32 234.71
  Q 755.23 234.60 755.25 234.46
  L 755.27 216.85
  Q 755.24 208.35 755.35 199.51
  Q 755.65 175.16 775.29 162.52
  C 783.11 157.49 791.16 156.25 801.31 156.25
  Q 897.78 156.25 994.25 156.25
  L 1329.51 156.01
  Z
  M 1122.46 179.10
  A 5.35 5.35 0.0 0 0 1117.11 173.75
  L 997.61 173.75
  A 5.35 5.35 0.0 0 0 992.26 179.10
  L 992.26 179.38
  A 5.35 5.35 0.0 0 0 997.61 184.73
  L 1117.11 184.73
  A 5.35 5.35 0.0 0 0 1122.46 179.38
  L 1122.46 179.10
  Z
  M 983.54 1117.38
  A 23.28 23.28 0.0 0 0 960.26 1094.10
  L 873.24 1094.10
  A 23.28 23.28 0.0 0 0 849.96 1117.38
  L 849.96 1119.10
  A 23.28 23.28 0.0 0 0 873.24 1142.38
  L 960.26 1142.38
  A 23.28 23.28 0.0 0 0 983.54 1119.10
  L 983.54 1117.38
  Z
  M 1260.8314 1117.4764
  A 23.29 23.29 0.0 0 0 1237.5821 1094.1458
  L 1150.7423 1093.9943
  A 23.29 23.29 0.0 0 0 1127.4116 1117.2436
  L 1127.4086 1119.0036
  A 23.29 23.29 0.0 0 0 1150.6579 1142.3342
  L 1237.4977 1142.4857
  A 23.29 23.29 0.0 0 0 1260.8284 1119.2364
  L 1260.8314 1117.4764
  Z"
/>
<path fill="#5146af" d="
  M 1333.27 156.24
  C 1345.87 156.26 1362.49 154.87 1373.21 157.74
  C 1387.31 161.51 1398.91 173.10 1402.76 187.28
  Q 1404.25 192.72 1404.25 205.00
  Q 1404.25 666.75 1404.25 1128.50
  C 1404.25 1132.98 1403.24 1138.37 1401.58 1142.67
  Q 1393.72 1162.92 1370.58 1169.78
  L 1333.71 1169.98
  Q 1334.61 1168.62 1338.25 1167.05
  Q 1356.55 1159.16 1362.42 1140.83
  C 1366.29 1128.73 1364.27 1112.86 1364.27 1099.97
  C 1364.19 807.51 1364.23 515.05 1364.26 222.59
  C 1364.26 216.58 1364.47 206.28 1364.41 198.12
  C 1364.29 178.79 1351.75 163.56 1333.76 157.43
  Q 1333.12 157.22 1333.27 156.24
  Z"
/>
<rect fill="#5146af" x="992.26" y="173.75" width="130.20" height="10.98" rx="5.35"/>
<path fill="#1f1633" d="
  M 1312.49 216.94
  L 803.51 216.51
  L 803.52 197.98
  Q 803.52 197.50 804.01 197.50
  L 1311.99 197.50
  Q 1312.48 197.50 1312.48 197.98
  L 1312.49 216.94
  Z"
/>
<path fill="#31285f" d="
  M 1312.49 216.94
  L 1312.48 454.50
  L 1232.26 489.25
  L 1232.00 246.89
  Q 1232.00 246.31 1231.42 246.22
  Q 1226.40 245.46 1221.25 246.31
  L 1221.28 235.73
  Q 1221.28 235.19 1220.74 235.19
  L 803.27 235.00
  L 803.51 216.51
  L 1312.49 216.94
  Z"
/>
<path fill="#e4f1f7" d="
  M 755.27 216.85
  L 755.25 234.46
  L 721.40 235.33
  Q 720.75 235.35 720.75 235.99
  L 720.75 375.22
  A 0.59 0.59 0.0 0 1 719.93 375.77
  C 667.88 354.17 650.52 284.44 691.14 243.04
  Q 716.64 217.07 755.27 216.85
  Z"
/>
<path fill="#251e47" d="
  M 1232.26 489.25
  Q 1231.97 489.71 1231.99 489.85
  Q 1226.35 493.13 1221.52 493.02
  L 1221.25 246.31
  Q 1226.40 245.46 1231.42 246.22
  Q 1232.00 246.31 1232.00 246.89
  L 1232.26 489.25
  Z"
/>
<path fill="#c9e6ec" d="
  M 647.00 413.84
  Q 645.81 415.09 644.95 415.45
  Q 576.75 444.48 508.26 473.85
  C 508.26 467.63 506.99 456.10 509.16 450.87
  Q 516.26 433.74 504.17 419.61
  A 1.78 1.74 20.5 0 1 503.76 418.74
  C 499.88 394.93 470.62 388.18 450.91 387.25
  A 0.35 0.35 0.0 0 1 450.70 386.63
  C 451.72 385.80 453.24 384.52 452.99 383.08
  Q 452.73 381.62 450.74 381.53
  A 0.99 0.97 27.1 0 0 450.13 381.72
  L 447.61 383.65
  Q 446.68 384.36 446.76 383.19
  C 447.09 378.38 442.46 373.82 439.25 379.13
  C 438.51 380.36 438.76 381.86 438.74 383.31
  Q 438.73 384.10 438.13 383.58
  L 435.87 381.60
  A 1.64 1.63 59.3 0 0 434.48 381.24
  Q 433.03 381.55 432.53 383.06
  Q 432.35 383.63 432.75 384.07
  L 434.87 386.43
  A 0.35 0.35 0.0 0 1 434.61 387.02
  C 413.49 387.08 379.26 393.93 376.65 420.33
  Q 376.60 420.83 376.29 421.24
  Q 366.80 434.00 371.86 448.89
  Q 372.77 451.57 372.76 453.90
  Q 372.74 472.85 372.75 491.80
  Q 372.75 499.44 374.02 503.06
  Q 376.02 508.79 380.68 512.69
  Q 379.86 520.04 382.13 527.74
  L 200.99 605.16
  Q 187.20 610.97 173.58 616.85
  C 164.15 620.92 157.44 624.60 157.77 635.22
  Q 157.88 638.90 160.47 644.94
  Q 166.56 659.10 172.58 673.29
  C 176.81 683.28 180.53 691.63 191.89 691.01
  Q 196.22 690.78 208.20 685.58
  Q 222.98 679.16 238.02 672.81
  C 254.24 709.79 282.90 749.08 329.82 739.18
  Q 344.92 735.99 358.14 727.49
  Q 358.68 727.14 358.70 727.78
  L 359.04 740.00
  Q 358.78 740.00 358.74 739.56
  Q 358.71 739.21 358.36 739.27
  Q 339.32 742.54 320.00 743.27
  Q 319.72 743.28 319.38 743.10
  A 1.75 1.68 -33.6 0 0 318.44 742.93
  Q 313.80 743.37 305.32 742.91
  C 157.99 734.89 57.47 590.92 105.15 449.73
  C 123.31 395.96 162.01 352.02 211.44 325.15
  C 283.54 285.94 372.90 291.41 440.45 337.29
  C 447.72 342.23 457.09 349.86 463.43 354.56
  Q 514.55 392.51 579.75 397.51
  Q 613.41 400.09 647.00 413.84
  Z"
/>
<path fill="#b4d7db" d="
  M 770.37 392.79
  Q 766.08 384.83 758.98 380.38
  Q 759.02 350.96 759.00 321.90
  C 758.99 305.39 765.11 300.04 781.34 300.02
  Q 805.02 299.99 828.71 299.99
  Q 838.14 299.98 842.10 301.49
  Q 852.44 305.43 852.48 318.32
  Q 852.55 345.89 852.46 373.47
  Q 852.41 387.91 841.52 392.10
  Q 837.77 393.55 829.32 393.53
  C 809.92 393.48 789.62 394.62 770.37 392.79
  Z
  M 841.6887 317.3471
  A 6.65 6.65 0.0 0 0 835.0271 310.7087
  L 776.1872 310.8114
  A 6.65 6.65 0.0 0 0 769.5488 317.4730
  L 769.6513 376.1529
  A 6.65 6.65 0.0 0 0 776.3129 382.7913
  L 835.1528 382.6886
  A 6.65 6.65 0.0 0 0 841.7912 376.0270
  L 841.6887 317.3471
  Z"
/>
<rect fill="#b4d7db" x="898.75" y="300.00" width="124.24" height="10.74" rx="0.61"/>
<rect fill="#ffffff" x="-36.07" y="-35.99" transform="translate(805.67,346.75) rotate(-0.1)" width="72.14" height="71.98" rx="6.65"/>
<rect fill="#b4d7db" x="898.75" y="345.28" width="266.76" height="10.72" rx="0.78"/>
<path fill="#38ae96" d="
  M 758.98 380.38
  Q 766.08 384.83 770.37 392.79
  C 776.14 405.72 773.49 420.67 762.40 429.55
  C 756.60 434.19 747.09 437.55 739.42 440.71
  L 735.26 431.11
  L 725.14 407.75
  L 715.54 385.27
  C 732.07 377.56 743.69 371.88 758.98 380.38
  Z"
/>
<path fill="#422505" d="
  M 508.26 473.85
  Q 509.20 482.25 501.21 482.54
  C 491.24 482.85 493.76 471.20 493.74 465.12
  Q 493.74 464.59 493.24 464.75
  Q 482.40 468.21 472.17 463.34
  A 1.19 1.17 47.0 0 0 471.26 463.30
  Q 442.23 474.06 412.71 464.55
  Q 412.06 464.34 412.06 465.03
  Q 411.89 482.29 411.98 499.55
  C 412.03 507.98 409.55 510.00 401.02 508.78
  Q 400.50 508.71 400.50 508.19
  L 400.50 483.00
  Q 400.50 482.46 399.97 482.41
  C 380.37 480.69 372.20 505.84 388.95 516.03
  A 0.18 0.17 -23.1 0 1 388.82 516.35
  Q 385.04 515.52 380.68 512.69
  Q 376.02 508.79 374.02 503.06
  Q 372.75 499.44 372.75 491.80
  Q 372.74 472.85 372.76 453.90
  Q 372.77 451.57 371.86 448.89
  Q 366.80 434.00 376.29 421.24
  Q 376.60 420.83 376.65 420.33
  C 379.26 393.93 413.49 387.08 434.61 387.02
  A 0.35 0.35 0.0 0 0 434.87 386.43
  L 432.75 384.07
  Q 432.35 383.63 432.53 383.06
  Q 433.03 381.55 434.48 381.24
  A 1.64 1.63 59.3 0 1 435.87 381.60
  L 438.13 383.58
  Q 438.73 384.10 438.74 383.31
  C 438.76 381.86 438.51 380.36 439.25 379.13
  C 442.46 373.82 447.09 378.38 446.76 383.19
  Q 446.68 384.36 447.61 383.65
  L 450.13 381.72
  A 0.99 0.97 27.1 0 1 450.74 381.53
  Q 452.73 381.62 452.99 383.08
  C 453.24 384.52 451.72 385.80 450.70 386.63
  A 0.35 0.35 0.0 0 0 450.91 387.25
  C 470.62 388.18 499.88 394.93 503.76 418.74
  A 1.78 1.74 20.5 0 0 504.17 419.61
  Q 516.26 433.74 509.16 450.87
  C 506.99 456.10 508.26 467.63 508.26 473.85
  Z"
/>
<rect fill="#b4d7db" x="897.01" y="379.25" width="266.48" height="10.62" rx="0.47"/>
<path fill="#e4f1f7" d="
  M 715.54 385.27
  L 725.14 407.75
  L 509.28 499.92
  Q 508.66 491.75 502.31 485.69
  Q 501.06 484.49 501.21 482.54
  Q 509.20 482.25 508.26 473.85
  Q 576.75 444.48 644.95 415.45
  Q 645.81 415.09 647.00 413.84
  L 648.45 413.83
  A 0.40 0.35 30.1 0 0 648.60 413.80
  L 715.54 385.27
  Z"
/>
<path fill="#c9e6ec" d="
  M 725.14 407.75
  L 735.26 431.11
  L 501.80 530.89
  L 501.67 515.83
  Q 501.67 515.31 502.07 514.97
  Q 509.12 508.99 509.28 499.92
  L 725.14 407.75
  Z"
/>
<path fill="#b4d7db" d="
  M 735.26 431.11
  L 739.42 440.71
  L 709.15 453.76
  L 635.65 485.03
  L 593.58 502.99
  Q 593.11 503.19 592.97 503.69
  L 592.82 504.24
  Q 592.54 504.02 592.11 503.94
  Q 591.77 503.87 591.36 504.05
  Q 545.42 523.67 500.39 543.05
  Q 501.84 537.79 501.80 530.89
  L 735.26 431.11
  Z"
/>
<path fill="#b4d7db" d="
  M 852.3880 529.0415
  A 16.89 16.89 0.0 0 1 835.4685 545.9020
  L 775.8086 545.7979
  A 16.89 16.89 0.0 0 1 758.9481 528.8784
  L 759.0520 469.3385
  A 16.89 16.89 0.0 0 1 775.9715 452.4780
  L 835.6314 452.5821
  A 16.89 16.89 0.0 0 1 852.4919 469.5016
  L 852.3880 529.0415
  Z
  M 841.7909 470.1130
  A 6.79 6.79 0.0 0 0 835.0128 463.3112
  L 776.4129 463.2089
  A 6.79 6.79 0.0 0 0 769.6110 469.9871
  L 769.5091 528.3870
  A 6.79 6.79 0.0 0 0 776.2872 535.1888
  L 834.8871 535.2911
  A 6.79 6.79 0.0 0 0 841.6890 528.5129
  L 841.7909 470.1130
  Z"
/>
<rect fill="#b4d7db" x="898.75" y="452.51" width="124.24" height="10.74" rx="0.26"/>
<path fill="#c9e6ec" d="
  M 709.15 453.76
  Q 715.39 459.05 720.30 465.01
  A 1.99 1.99 0.0 0 1 720.75 466.27
  L 720.75 574.36
  Q 720.75 574.77 720.50 575.09
  L 719.94 575.81
  Q 713.00 570.49 710.19 568.79
  C 660.35 538.63 617.02 587.07 599.28 628.02
  C 595.78 636.08 592.13 647.07 587.35 654.22
  Q 580.69 664.19 570.43 670.92
  C 566.19 673.71 559.06 676.50 554.48 679.80
  C 531.88 696.09 526.47 728.33 529.43 754.13
  Q 512.14 752.14 494.91 747.17
  L 495.24 742.53
  Q 495.28 741.97 494.72 741.93
  L 491.48 741.68
  L 491.42 623.18
  A 0.62 0.62 0.0 0 1 492.04 622.56
  C 578.32 622.86 630.35 568.52 635.65 485.03
  L 709.15 453.76
  Z"
/>
<path fill="#41378d" d="
  M 1312.48 454.50
  L 1312.49 598.01
  L 1232.81 633.10
  A 0.59 0.58 -11.9 0 1 1231.99 632.57
  L 1231.99 489.85
  Q 1231.97 489.71 1232.26 489.25
  L 1312.48 454.50
  Z"
/>
<path fill="#f2b47b" d="
  M 501.21 482.54
  Q 501.06 484.49 502.31 485.69
  Q 508.66 491.75 509.28 499.92
  Q 509.12 508.99 502.07 514.97
  Q 501.67 515.31 501.67 515.83
  L 501.80 530.89
  Q 501.84 537.79 500.39 543.05
  Q 493.59 565.78 470.92 570.94
  Q 467.24 571.78 457.25 571.64
  Q 456.74 571.64 456.74 572.15
  L 456.66 583.46
  L 455.61 590.31
  Q 451.80 598.35 444.94 600.71
  Q 433.03 604.81 423.51 594.00
  Q 422.76 592.23 421.95 589.86
  C 420.63 586.02 420.90 581.80 420.89 577.66
  L 420.64 568.95
  Q 420.62 568.43 420.12 568.28
  L 416.72 567.24
  Q 402.41 560.83 393.16 549.60
  Q 385.32 539.49 382.13 527.74
  Q 379.86 520.04 380.68 512.69
  Q 385.04 515.52 388.82 516.35
  A 0.18 0.17 -23.1 0 0 388.95 516.03
  C 372.20 505.84 380.37 480.69 399.97 482.41
  Q 400.50 482.46 400.50 483.00
  L 400.50 508.19
  Q 400.50 508.71 401.02 508.78
  C 409.55 510.00 412.03 507.98 411.98 499.55
  Q 411.89 482.29 412.06 465.03
  Q 412.06 464.34 412.71 464.55
  Q 442.23 474.06 471.26 463.30
  A 1.19 1.17 47.0 0 1 472.17 463.34
  Q 482.40 468.21 493.24 464.75
  Q 493.74 464.59 493.74 465.12
  C 493.76 471.20 491.24 482.85 501.21 482.54
  Z
  M 427.77 500.49
  A 0.78 0.76 -57.4 0 0 428.64 500.29
  Q 437.58 490.18 447.06 499.31
  Q 448.03 500.24 448.62 500.36
  Q 449.85 500.61 450.46 498.99
  C 451.68 495.77 444.50 492.28 442.75 491.83
  Q 433.01 489.34 426.79 496.39
  C 425.19 498.20 425.56 499.57 427.77 500.49
  Z
  M 482.99 499.98
  Q 483.97 499.41 484.71 498.15
  C 487.76 492.95 493.73 495.21 496.15 499.53
  A 1.45 1.45 0.0 0 0 498.81 498.42
  C 496.04 488.75 484.23 488.71 480.91 498.28
  A 1.43 1.43 0.0 0 0 482.99 499.98
  Z
  M 451.30 534.05
  Q 464.42 543.05 476.74 534.07
  C 479.39 532.15 485.78 525.75 482.68 522.35
  A 1.10 1.06 -19.5 0 0 481.89 521.99
  Q 464.97 521.53 448.02 521.79
  C 445.37 521.84 443.61 523.13 444.87 525.92
  Q 446.97 530.60 451.30 534.05
  Z"
/>
<path fill="#ffffff" d="
  M 841.6890 528.5129
  A 6.79 6.79 0.0 0 1 834.8871 535.2911
  L 776.2872 535.1888
  A 6.79 6.79 0.0 0 1 769.5091 528.3870
  L 769.6110 469.9871
  A 6.79 6.79 0.0 0 1 776.4129 463.2089
  L 835.0128 463.3112
  A 6.79 6.79 0.0 0 1 841.7909 470.1130
  L 841.6890 528.5129
  Z
  M 824.03 485.74
  C 816.77 492.92 809.25 500.08 802.22 507.46
  Q 801.83 507.86 801.45 507.46
  C 798.47 504.27 791.66 496.16 787.57 495.22
  C 783.55 494.29 779.35 498.60 780.59 502.62
  C 781.82 506.58 792.59 515.71 795.97 519.10
  C 799.28 522.41 802.47 524.24 806.29 520.53
  Q 812.06 514.94 831.45 495.40
  Q 834.39 492.44 835.03 490.74
  C 837.38 484.50 829.05 480.76 824.03 485.74
  Z"
/>
<path fill="#3d5a74" d="
  M 802.22 507.46
  C 809.25 500.08 816.77 492.92 824.03 485.74
  C 829.05 480.76 837.38 484.50 835.03 490.74
  Q 834.39 492.44 831.45 495.40
  Q 812.06 514.94 806.29 520.53
  C 802.47 524.24 799.28 522.41 795.97 519.10
  C 792.59 515.71 781.82 506.58 780.59 502.62
  C 779.35 498.60 783.55 494.29 787.57 495.22
  C 791.66 496.16 798.47 504.27 801.45 507.46
  Q 801.83 507.86 802.22 507.46
  Z"
/>
<path fill="#50374c" d="
  M 635.65 485.03
  C 630.35 568.52 578.32 622.86 492.04 622.56
  A 0.62 0.62 0.0 0 0 491.42 623.18
  L 491.48 741.68
  L 469.97 741.77
  Q 469.45 741.77 469.45 742.30
  Q 469.52 758.70 469.51 775.11
  C 469.51 790.28 476.34 801.46 491.26 806.36
  L 491.25 847.70
  Q 491.25 848.31 490.74 847.99
  L 481.27 842.13
  Q 470.55 833.67 463.92 821.77
  Q 463.60 821.21 462.99 820.76
  Q 463.55 820.57 463.19 819.81
  Q 457.95 809.03 457.10 797.61
  Q 458.35 787.23 458.50 784.50
  Q 462.37 712.80 466.18 641.45
  A 2.49 2.48 -68.5 0 0 465.29 639.40
  L 457.78 633.14
  Q 457.20 632.66 457.76 632.17
  L 472.02 619.52
  A 1.27 1.22 73.2 0 0 472.44 618.70
  L 476.17 581.61
  L 488.27 582.41
  C 542.06 585.18 582.19 558.41 592.82 504.24
  L 592.97 503.69
  Q 593.11 503.19 593.58 502.99
  L 635.65 485.03
  Z"
/>
<path fill="#31285f" d="
  M 1231.99 489.85
  L 1231.99 632.57
  A 0.59 0.58 -11.9 0 0 1232.81 633.10
  L 1312.49 598.01
  L 1312.49 628.05
  L 1232.11 663.31
  L 1232.05 635.27
  A 1.14 1.14 0.0 0 0 1230.46 634.22
  L 1221.36 638.08
  L 1221.52 493.02
  Q 1226.35 493.13 1231.99 489.85
  Z"
/>
<path fill="#422505" d="
  M 427.77 500.49
  C 425.56 499.57 425.19 498.20 426.79 496.39
  Q 433.01 489.34 442.75 491.83
  C 444.50 492.28 451.68 495.77 450.46 498.99
  Q 449.85 500.61 448.62 500.36
  Q 448.03 500.24 447.06 499.31
  Q 437.58 490.18 428.64 500.29
  A 0.78 0.76 -57.4 0 1 427.77 500.49
  Z"
/>
<path fill="#422505" d="
  M 482.99 499.98
  A 1.43 1.43 0.0 0 1 480.91 498.28
  C 484.23 488.71 496.04 488.75 498.81 498.42
  A 1.45 1.45 0.0 0 1 496.15 499.53
  C 493.73 495.21 487.76 492.95 484.71 498.15
  Q 483.97 499.41 482.99 499.98
  Z"
/>
<rect fill="#b4d7db" x="898.74" y="497.76" width="266.76" height="10.92" rx="1.04"/>
<path fill="#c9e6ec" d="
  M 592.82 504.24
  C 582.19 558.41 542.06 585.18 488.27 582.41
  C 489.03 580.92 487.48 579.89 486.12 579.70
  Q 480.84 578.96 475.52 580.28
  L 458.93 575.45
  Q 458.30 575.27 458.17 575.91
  L 456.66 583.46
  L 456.74 572.15
  Q 456.74 571.64 457.25 571.64
  Q 467.24 571.78 470.92 570.94
  Q 493.59 565.78 500.39 543.05
  Q 545.42 523.67 591.36 504.05
  Q 591.77 503.87 592.11 503.94
  Q 592.54 504.02 592.82 504.24
  Z"
/>
<path fill="#422505" d="
  M 476.74 534.07
  Q 464.20 520.20 451.30 534.05
  Q 446.97 530.60 444.87 525.92
  C 443.61 523.13 445.37 521.84 448.02 521.79
  Q 464.97 521.53 481.89 521.99
  A 1.10 1.06 -19.5 0 1 482.68 522.35
  C 485.78 525.75 479.39 532.15 476.74 534.07
  Z"
/>
<path fill="#b58255" d="
  M 476.74 534.07
  Q 464.42 543.05 451.30 534.05
  Q 464.20 520.20 476.74 534.07
  Z"
/>
<path fill="#e4f1f7" d="
  M 382.13 527.74
  Q 385.32 539.49 393.16 549.60
  Q 324.67 578.89 256.31 608.06
  Q 254.59 608.80 253.48 610.31
  Q 231.30 600.30 223.37 622.80
  Q 217.36 624.05 210.70 627.65
  L 200.99 605.16
  L 382.13 527.74
  Z"
/>
<rect fill="#b4d7db" x="897.01" y="531.50" width="266.48" height="10.76" rx="0.26"/>
<path fill="#c9e6ec" d="
  M 393.16 549.60
  Q 402.41 560.83 416.72 567.24
  L 264.16 632.49
  C 261.24 622.79 260.03 616.53 253.48 610.31
  Q 254.59 608.80 256.31 608.06
  Q 324.67 578.89 393.16 549.60
  Z"
/>
<path fill="#38ae96" d="
  M 719.94 575.81
  Q 720.75 576.25 720.75 577.07
  Q 720.75 781.14 720.75 985.26
  A 0.85 0.83 -14.3 0 1 720.30 986.00
  Q 705.44 993.73 689.50 994.00
  C 680.71 994.15 670.46 993.39 658.49 994.96
  Q 658.79 953.03 659.23 911.00
  C 659.59 876.98 672.02 841.26 707.18 829.32
  Q 707.65 829.16 707.51 828.68
  L 705.55 822.27
  Q 705.36 821.64 704.74 821.85
  Q 672.58 832.91 660.37 864.53
  Q 659.68 866.33 659.15 864.37
  Q 659.14 864.31 659.15 863.00
  Q 659.92 762.19 660.34 661.36
  Q 660.34 660.75 659.73 660.75
  L 651.49 660.75
  A 0.51 0.50 -90.0 0 0 650.99 661.26
  L 650.23 792.50
  A 0.29 0.29 0.0 0 1 649.67 792.62
  Q 647.37 787.67 644.94 782.77
  Q 630.08 752.78 600.33 737.38
  A 0.68 0.68 0.0 0 0 599.41 737.67
  L 596.51 743.49
  Q 596.16 744.18 596.85 744.53
  C 631.35 762.08 649.97 798.95 650.01 837.00
  Q 650.05 866.96 649.24 955.04
  Q 649.23 955.67 648.90 955.13
  Q 640.47 941.08 637.62 936.89
  Q 624.13 917.02 600.03 905.81
  Q 599.54 905.58 599.31 906.07
  L 596.54 912.08
  Q 596.27 912.66 596.85 912.93
  C 629.56 928.39 648.06 960.95 649.17 996.60
  Q 649.17 996.69 649.11 996.75
  Q 649.02 996.86 648.95 996.95
  C 641.18 999.33 632.55 1002.74 625.45 1004.04
  C 585.71 1011.31 549.38 981.44 548.70 941.50
  C 548.58 934.59 548.83 926.89 547.67 920.63
  Q 545.39 908.37 538.68 898.32
  C 536.12 894.49 531.68 889.12 529.13 884.63
  C 516.12 861.73 517.61 830.35 535.58 810.33
  C 539.18 806.30 543.66 802.88 541.17 797.24
  Q 532.10 776.67 529.43 754.13
  C 526.47 728.33 531.88 696.09 554.48 679.80
  C 559.06 676.50 566.19 673.71 570.43 670.92
  Q 580.69 664.19 587.35 654.22
  C 592.13 647.07 595.78 636.08 599.28 628.02
  C 617.02 587.07 660.35 538.63 710.19 568.79
  Q 713.00 570.49 719.94 575.81
  Z"
/>
<path fill="#b4d7db" d="
  M 416.72 567.24
  L 420.12 568.28
  Q 420.62 568.43 420.64 568.95
  L 420.89 577.66
  L 408.04 582.20
  L 267.65 642.20
  L 264.16 632.49
  L 416.72 567.24
  Z"
/>
<path fill="#695a6f" d="
  M 475.52 580.28
  L 476.17 581.61
  L 472.44 618.70
  A 1.27 1.22 73.2 0 1 472.02 619.52
  L 457.76 632.17
  Q 457.20 632.66 457.78 633.14
  L 465.29 639.40
  A 2.49 2.48 -68.5 0 1 466.18 641.45
  Q 462.37 712.80 458.50 784.50
  Q 458.35 787.23 457.10 797.61
  Q 449.62 734.95 442.36 672.39
  C 442.19 670.95 442.13 668.98 442.33 667.82
  Q 449.14 629.35 455.61 590.31
  L 456.66 583.46
  L 458.17 575.91
  Q 458.30 575.27 458.93 575.45
  L 475.52 580.28
  Z"
/>
<path fill="#695a6f" d="
  M 420.89 577.66
  C 420.90 581.80 420.63 586.02 421.95 589.86
  Q 422.76 592.23 423.51 594.00
  Q 429.64 632.00 435.58 668.78
  Q 435.87 670.55 435.66 672.32
  Q 428.32 734.80 420.89 797.26
  Q 419.65 788.52 418.66 770.31
  Q 415.17 705.73 411.79 641.59
  A 2.65 2.62 68.5 0 1 412.71 639.44
  L 420.23 633.06
  Q 420.73 632.64 420.24 632.20
  Q 414.37 626.97 408.50 621.75
  C 406.73 620.18 405.58 619.62 405.41 617.04
  Q 404.91 609.04 404.26 600.87
  Q 411.84 592.61 408.04 582.20
  L 420.89 577.66
  Z"
/>
<path fill="#ffffff" d="
  M 488.27 582.41
  L 476.17 581.61
  L 475.52 580.28
  Q 480.84 578.96 486.12 579.70
  C 487.48 579.89 489.03 580.92 488.27 582.41
  Z"
/>
<path fill="#6c9caa" d="
  M 408.04 582.20
  Q 411.84 592.61 404.26 600.87
  Q 401.42 602.95 399.69 603.69
  Q 378.70 612.69 357.69 621.64
  C 357.10 621.89 356.89 622.28 356.49 622.75
  Q 356.48 622.19 355.75 622.50
  Q 315.29 639.78 274.87 657.04
  Q 272.24 651.45 270.34 646.24
  Q 270.17 645.76 269.88 645.47
  Q 269.07 644.63 268.90 645.37
  L 267.65 642.20
  L 408.04 582.20
  Z"
/>
<path fill="#ffffff" d="
  M 455.61 590.31
  Q 449.14 629.35 442.33 667.82
  C 442.13 668.98 442.19 670.95 442.36 672.39
  Q 449.62 734.95 457.10 797.61
  Q 457.95 809.03 463.19 819.81
  Q 463.55 820.57 462.99 820.76
  L 415.01 820.76
  Q 414.45 820.57 414.81 819.81
  Q 420.07 808.83 420.89 797.26
  Q 428.32 734.80 435.66 672.32
  Q 435.87 670.55 435.58 668.78
  Q 429.64 632.00 423.51 594.00
  Q 433.03 604.81 444.94 600.71
  Q 451.80 598.35 455.61 590.31
  Z"
/>
<path fill="#50374c" d="
  M 404.26 600.87
  Q 404.91 609.04 405.41 617.04
  C 405.58 619.62 406.73 620.18 408.50 621.75
  Q 414.37 626.97 420.24 632.20
  Q 420.73 632.64 420.23 633.06
  L 412.71 639.44
  A 2.65 2.62 68.5 0 0 411.79 641.59
  Q 415.17 705.73 418.66 770.31
  Q 419.65 788.52 420.89 797.26
  Q 420.07 808.83 414.81 819.81
  Q 414.45 820.57 415.01 820.76
  L 414.47 821.11
  Q 414.10 821.35 413.88 821.74
  Q 397.59 850.92 363.70 854.84
  L 359.64 854.72
  Q 359.10 854.70 359.09 854.16
  Q 358.75 832.93 358.47 811.76
  Q 358.44 809.79 358.85 807.66
  C 374.29 807.32 391.25 808.01 397.60 790.28
  Q 399.28 785.59 399.42 775.01
  Q 399.64 759.00 399.44 742.87
  A 1.13 1.13 0.0 0 0 398.31 741.76
  Q 380.66 741.74 362.44 741.76
  Q 362.04 741.76 360.74 742.02
  Q 359.52 742.27 358.99 741.41
  L 359.04 740.00
  L 358.70 727.78
  Q 358.68 727.14 358.14 727.49
  Q 344.92 735.99 329.82 739.18
  C 282.90 749.08 254.24 709.79 238.02 672.81
  Q 235.30 667.72 234.44 663.07
  L 268.90 645.37
  Q 269.07 644.63 269.88 645.47
  Q 270.17 645.76 270.34 646.24
  Q 272.24 651.45 274.87 657.04
  Q 281.58 672.95 292.60 686.93
  C 303.48 700.73 316.36 704.62 332.46 696.12
  C 350.10 686.81 355.29 640.31 356.49 622.75
  C 356.89 622.28 357.10 621.89 357.69 621.64
  Q 378.70 612.69 399.69 603.69
  Q 401.42 602.95 404.26 600.87
  Z"
/>
<path fill="#b4d7db" d="
  M 852.5217 681.3084
  A 17.09 17.09 0.0 0 1 835.4615 698.4282
  L 776.1616 698.5317
  A 17.09 17.09 0.0 0 1 759.0418 681.4715
  L 758.9383 622.1716
  A 17.09 17.09 0.0 0 1 775.9985 605.0518
  L 835.2984 604.9483
  A 17.09 17.09 0.0 0 1 852.4182 622.0085
  L 852.5217 681.3084
  Z
  M 841.8010 622.5530
  A 6.74 6.74 0.0 0 0 835.0728 615.8013
  L 776.3729 615.6988
  A 6.74 6.74 0.0 0 0 769.6211 622.4271
  L 769.5190 680.9470
  A 6.74 6.74 0.0 0 0 776.2472 687.6987
  L 834.9471 687.8012
  A 6.74 6.74 0.0 0 0 841.6989 681.0729
  L 841.8010 622.5530
  Z"
/>
<path fill="#6c9caa" d="
  M 200.99 605.16
  L 210.70 627.65
  Q 215.89 640.36 219.19 647.06
  Q 220.12 648.96 222.86 651.13
  Q 226.85 654.48 232.22 655.19
  L 234.44 663.07
  Q 235.30 667.72 238.02 672.81
  Q 222.98 679.16 208.20 685.58
  Q 196.22 690.78 191.89 691.01
  C 180.53 691.63 176.81 683.28 172.58 673.29
  Q 166.56 659.10 160.47 644.94
  Q 157.88 638.90 157.77 635.22
  C 157.44 624.60 164.15 620.92 173.58 616.85
  Q 187.20 610.97 200.99 605.16
  Z"
/>
<rect fill="#b4d7db" x="898.77" y="606.25" width="124.22" height="10.52" rx="0.52"/>
<path fill="#f2b47b" d="
  M 253.48 610.31
  C 260.03 616.53 261.24 622.79 264.16 632.49
  L 267.65 642.20
  L 268.90 645.37
  L 234.44 663.07
  L 232.22 655.19
  L 229.42 647.68
  C 226.47 639.29 223.81 631.68 223.37 622.80
  Q 231.30 600.30 253.48 610.31
  Z"
/>
<path fill="#ffffff" d="
  M 841.6989 681.0729
  A 6.74 6.74 0.0 0 1 834.9471 687.8012
  L 776.2472 687.6987
  A 6.74 6.74 0.0 0 1 769.5190 680.9470
  L 769.6211 622.4271
  A 6.74 6.74 0.0 0 1 776.3729 615.6988
  L 835.0728 615.8013
  A 6.74 6.74 0.0 0 1 841.8010 622.5530
  L 841.6989 681.0729
  Z
  M 801.31 660.57
  Q 796.50 655.40 791.37 650.55
  C 784.51 644.07 777.09 653.22 781.68 657.81
  Q 789.39 665.51 797.09 673.23
  C 800.66 676.80 803.83 676.04 807.27 672.60
  Q 819.78 660.09 832.30 647.58
  C 839.76 640.12 830.31 632.28 824.44 638.19
  Q 813.28 649.45 801.99 660.58
  Q 801.64 660.93 801.31 660.57
  Z"
/>
<path fill="#c9e6ec" d="
  M 356.49 622.75
  C 355.29 640.31 350.10 686.81 332.46 696.12
  C 316.36 704.62 303.48 700.73 292.60 686.93
  Q 281.58 672.95 274.87 657.04
  Q 315.29 639.78 355.75 622.50
  Q 356.48 622.19 356.49 622.75
  Z"
/>
<path fill="#c9e6ec" d="
  M 223.37 622.80
  C 223.81 631.68 226.47 639.29 229.42 647.68
  Q 225.50 648.57 222.86 651.13
  Q 220.12 648.96 219.19 647.06
  Q 215.89 640.36 210.70 627.65
  Q 217.36 624.05 223.37 622.80
  Z"
/>
<path fill="#41378d" d="
  M 1312.49 628.05
  L 1312.49 753.49
  L 1232.65 788.66
  Q 1232.00 788.95 1232.00 788.24
  L 1232.03 663.61
  Q 1232.51 663.11 1232.11 663.31
  L 1312.49 628.05
  Z"
/>
<path fill="#251e47" d="
  M 1232.11 663.31
  Q 1232.51 663.11 1232.03 663.61
  L 1221.34 667.22
  L 1221.36 638.08
  L 1230.46 634.22
  A 1.14 1.14 0.0 0 1 1232.05 635.27
  L 1232.11 663.31
  Z"
/>
<path fill="#3d5a74" d="
  M 801.99 660.58
  Q 813.28 649.45 824.44 638.19
  C 830.31 632.28 839.76 640.12 832.30 647.58
  Q 819.78 660.09 807.27 672.60
  C 803.83 676.04 800.66 676.80 797.09 673.23
  Q 789.39 665.51 781.68 657.81
  C 777.09 653.22 784.51 644.07 791.37 650.55
  Q 796.50 655.40 801.31 660.57
  Q 801.64 660.93 801.99 660.58
  Z"
/>
<path fill="#b4d7db" d="
  M 229.42 647.68
  L 232.22 655.19
  Q 226.85 654.48 222.86 651.13
  Q 225.50 648.57 229.42 647.68
  Z"
/>
<rect fill="#b4d7db" x="898.76" y="651.50" width="266.74" height="10.74" rx="0.76"/>
<path fill="#187d75" d="
  M 658.49 994.96
  L 658.07 1056.01
  L 648.85 1055.98
  Q 648.99 1026.61 649.19 997.81
  Q 648.95 997.59 648.95 996.95
  Q 649.02 996.86 649.11 996.75
  Q 649.17 996.69 649.17 996.60
  C 648.06 960.95 629.56 928.39 596.85 912.93
  Q 596.27 912.66 596.54 912.08
  L 599.31 906.07
  Q 599.54 905.58 600.03 905.81
  Q 624.13 917.02 637.62 936.89
  Q 640.47 941.08 648.90 955.13
  Q 649.23 955.67 649.24 955.04
  Q 650.05 866.96 650.01 837.00
  C 649.97 798.95 631.35 762.08 596.85 744.53
  Q 596.16 744.18 596.51 743.49
  L 599.41 737.67
  A 0.68 0.68 0.0 0 1 600.33 737.38
  Q 630.08 752.78 644.94 782.77
  Q 647.37 787.67 649.67 792.62
  A 0.29 0.29 0.0 0 0 650.23 792.50
  L 650.99 661.26
  A 0.51 0.50 -90.0 0 1 651.49 660.75
  L 659.73 660.75
  Q 660.34 660.75 660.34 661.36
  Q 659.92 762.19 659.15 863.00
  Q 659.14 864.31 659.15 864.37
  Q 659.68 866.33 660.37 864.53
  Q 672.58 832.91 704.74 821.85
  Q 705.36 821.64 705.55 822.27
  L 707.51 828.68
  Q 707.65 829.16 707.18 829.32
  C 672.02 841.26 659.59 876.98 659.23 911.00
  Q 658.79 953.03 658.49 994.96
  Z"
/>
<path fill="#31285f" d="
  M 1232.03 663.61
  L 1232.00 788.24
  Q 1232.00 788.95 1232.65 788.66
  L 1312.49 753.49
  L 1312.48 1069.26
  Q 1312.48 1069.75 1311.99 1069.75
  L 804.01 1069.75
  Q 803.51 1069.75 803.51 1069.25
  L 803.42 1048.98
  Q 803.52 1048.87 803.52 1048.24
  Q 804.10 1048.94 805.50 1048.95
  Q 812.47 1048.99 814.81 1048.99
  Q 1023.23 1048.72 1231.48 1048.74
  A 0.52 0.52 0.0 0 0 1232.00 1048.22
  L 1232.00 790.06
  A 0.62 0.62 0.0 0 0 1231.19 789.47
  L 1221.55 792.61
  L 1221.34 667.22
  L 1232.03 663.61
  Z"
/>
<rect fill="#b4d7db" x="897.00" y="685.26" width="266.50" height="10.74" rx="0.54"/>
<path fill="#695a6f" d="
  M 358.99 741.41
  Q 359.52 742.27 360.74 742.02
  Q 362.04 741.76 362.44 741.76
  Q 380.66 741.74 398.31 741.76
  A 1.13 1.13 0.0 0 1 399.44 742.87
  Q 399.64 759.00 399.42 775.01
  Q 399.28 785.59 397.60 790.28
  C 391.25 808.01 374.29 807.32 358.85 807.66
  L 355.82 807.18
  Q 355.20 807.08 355.20 806.45
  L 354.92 742.29
  Q 354.92 741.80 355.41 741.75
  L 358.99 741.41
  Z"
/>
<path fill="#695a6f" d="
  M 491.48 741.68
  L 494.72 741.93
  Q 495.28 741.97 495.24 742.53
  L 494.91 747.17
  L 494.96 806.50
  Q 494.96 807.05 494.42 806.95
  L 491.26 806.36
  C 476.34 801.46 469.51 790.28 469.51 775.11
  Q 469.52 758.70 469.45 742.30
  Q 469.45 741.77 469.97 741.77
  L 491.48 741.68
  Z"
/>
<path fill="#ffffff" d="
  M 494.91 747.17
  Q 512.14 752.14 529.43 754.13
  Q 532.10 776.67 541.17 797.24
  C 543.66 802.88 539.18 806.30 535.58 810.33
  C 517.61 830.35 516.12 861.73 529.13 884.63
  C 531.68 889.12 536.12 894.49 538.68 898.32
  Q 545.39 908.37 547.67 920.63
  C 548.83 926.89 548.58 934.59 548.70 941.50
  C 549.38 981.44 585.71 1011.31 625.45 1004.04
  C 632.55 1002.74 641.18 999.33 648.95 996.95
  Q 648.95 997.59 649.19 997.81
  Q 648.99 1026.61 648.85 1055.98
  L 584.18 1056.00
  Q 583.61 1056.00 583.61 1056.57
  L 583.63 1072.93
  L 583.56 1078.39
  Q 583.15 1103.45 583.74 1111.25
  C 586.03 1141.10 607.23 1163.93 636.57 1169.43
  Q 636.75 1169.49 636.76 1169.79
  A 0.60 0.59 -0.9 0 1 636.16 1170.40
  L 532.50 1170.02
  L 532.62 1163.88
  Q 532.64 1163.25 532.00 1163.25
  L 526.73 1163.25
  Q 526.15 1163.25 526.18 1162.67
  C 527.63 1135.88 504.59 1141.28 487.58 1140.85
  L 487.66 1125.16
  Q 487.66 1124.57 487.07 1124.57
  L 481.26 1124.54
  L 481.27 842.13
  L 490.74 847.99
  Q 491.25 848.31 491.25 847.70
  L 491.26 806.36
  L 494.42 806.95
  Q 494.96 807.05 494.96 806.50
  L 494.91 747.17
  Z"
/>
<path fill="#b4d7db" d="
  M 852.5119 833.8184
  A 16.87 16.87 0.0 0 1 835.6713 850.7178
  L 775.9514 850.8220
  A 16.87 16.87 0.0 0 1 759.0520 833.9815
  L 758.9481 774.4816
  A 16.87 16.87 0.0 0 1 775.7887 757.5822
  L 835.5086 757.4780
  A 16.87 16.87 0.0 0 1 852.4080 774.3185
  L 852.5119 833.8184
  Z
  M 841.74 774.69
  A 6.43 6.43 0.0 0 0 835.31 768.26
  L 776.05 768.26
  A 6.43 6.43 0.0 0 0 769.62 774.69
  L 769.62 833.57
  A 6.43 6.43 0.0 0 0 776.05 840.00
  L 835.31 840.00
  A 6.43 6.43 0.0 0 0 841.74 833.57
  L 841.74 774.69
  Z"
/>
<rect fill="#b4d7db" x="898.76" y="760.00" width="124.24" height="10.74" rx="0.43"/>
<path fill="#ffffff" d="
  M 841.74 833.57
  A 6.43 6.43 0.0 0 1 835.31 840.00
  L 776.05 840.00
  A 6.43 6.43 0.0 0 1 769.62 833.57
  L 769.62 774.69
  A 6.43 6.43 0.0 0 1 776.05 768.26
  L 835.31 768.26
  A 6.43 6.43 0.0 0 1 841.74 774.69
  L 841.74 833.57
  Z
  M 801.36 810.44
  C 798.39 807.55 791.62 799.35 787.99 798.33
  C 783.77 797.14 779.34 801.55 780.57 805.58
  C 781.98 810.20 793.61 819.98 797.46 823.79
  C 801.00 827.31 804.68 825.20 807.78 822.10
  Q 820.02 809.86 832.25 797.62
  Q 834.53 795.33 835.07 793.84
  C 836.73 789.28 830.95 784.63 826.91 786.54
  Q 825.35 787.28 821.83 790.82
  Q 812.04 800.66 802.14 810.44
  Q 801.75 810.83 801.36 810.44
  Z"
/>
<path fill="#3d5a74" d="
  M 802.14 810.44
  Q 812.04 800.66 821.83 790.82
  Q 825.35 787.28 826.91 786.54
  C 830.95 784.63 836.73 789.28 835.07 793.84
  Q 834.53 795.33 832.25 797.62
  Q 820.02 809.86 807.78 822.10
  C 804.68 825.20 801.00 827.31 797.46 823.79
  C 793.61 819.98 781.98 810.20 780.57 805.58
  C 779.34 801.55 783.77 797.14 787.99 798.33
  C 791.62 799.35 798.39 807.55 801.36 810.44
  Q 801.75 810.83 802.14 810.44
  Z"
/>
<path fill="#251e47" d="
  M 803.52 1048.24
  L 803.50 1038.25
  L 1220.71 1038.25
  Q 1221.23 1038.25 1221.23 1037.72
  L 1221.55 792.61
  L 1231.19 789.47
  A 0.62 0.62 0.0 0 1 1232.00 790.06
  L 1232.00 1048.22
  A 0.52 0.52 0.0 0 1 1231.48 1048.74
  Q 1023.23 1048.72 814.81 1048.99
  Q 812.47 1048.99 805.50 1048.95
  Q 804.10 1048.94 803.52 1048.24
  Z"
/>
<rect fill="#b4d7db" x="898.76" y="805.25" width="266.74" height="10.74" rx="0.57"/>
<path fill="#3c142e" d="
  M 415.01 820.76
  L 462.99 820.76
  Q 463.60 821.21 463.92 821.77
  Q 470.55 833.67 481.27 842.13
  L 481.26 1124.54
  L 428.34 1124.56
  Q 428.09 1124.56 428.00 1124.79
  Q 427.94 1124.94 427.84 1125.02
  Q 427.42 1124.38 427.01 1124.31
  L 427.01 901.24
  A 1.07 1.06 -0.8 0 0 425.91 900.18
  L 418.57 900.42
  Q 418.00 900.44 418.00 901.00
  L 418.00 1124.47
  L 364.81 1124.44
  Q 364.31 1124.44 363.96 1124.08
  L 363.58 1123.70
  L 363.70 854.84
  Q 397.59 850.92 413.88 821.74
  Q 414.10 821.35 414.47 821.11
  L 415.01 820.76
  Z"
/>
<rect fill="#b4d7db" x="897.00" y="839.00" width="266.50" height="10.70" rx="0.55"/>
<path fill="#ffffff" d="
  M 427.01 1124.31
  L 418.00 1124.47
  L 418.00 901.00
  Q 418.00 900.44 418.57 900.42
  L 425.91 900.18
  A 1.07 1.06 -0.8 0 1 427.01 901.24
  L 427.01 1124.31
  Z"
/>
<circle fill="#b4d7db" cx="803.22" cy="927.19" r="22.81"/>
<circle fill="#b4d7db" cx="881.68" cy="927.19" r="22.82"/>
<circle fill="#b4d7db" cx="960.14" cy="927.19" r="22.80"/>
<circle fill="#b4d7db" cx="1038.58" cy="927.19" r="22.81"/>
<circle fill="#b4d7db" cx="1117.05" cy="927.19" r="22.81"/>
<path fill="#e4f1f7" d="
  M 755.23 1038.29
  L 755.25 1048.91
  Q 755.25 1048.83 755.25 1048.75
  L 732.24 1048.72
  Q 731.75 1048.72 731.75 1048.23
  L 731.75 1038.80
  Q 731.75 1038.30 732.24 1038.30
  L 755.23 1038.29
  Z"
/>
<path fill="#5146af" d="
  M 803.50 1038.25
  L 803.52 1048.24
  Q 803.52 1048.87 803.42 1048.98
  L 755.25 1048.91
  L 755.23 1038.29
  L 803.50 1038.25
  Z"
/>
<path fill="#b58255" d="
  M 648.85 1055.98
  L 658.07 1056.01
  L 722.19 1056.03
  Q 722.72 1056.03 722.72 1056.56
  L 722.72 1073.04
  Q 657.14 1072.96 591.58 1073.01
  C 589.41 1073.01 586.53 1073.50 583.63 1072.93
  L 583.61 1056.57
  Q 583.61 1056.00 584.18 1056.00
  L 648.85 1055.98
  Z"
/>
<path fill="#f2b47b" d="
  M 583.63 1072.93
  C 586.53 1073.50 589.41 1073.01 591.58 1073.01
  Q 657.14 1072.96 722.72 1073.04
  L 722.69 1078.69
  L 583.56 1078.39
  L 583.63 1072.93
  Z"
/>
<path fill="#b58255" d="
  M 583.56 1078.39
  L 722.69 1078.69
  C 722.83 1092.35 723.90 1108.96 721.21 1121.07
  Q 716.85 1140.72 701.39 1154.40
  Q 688.61 1165.71 669.73 1169.81
  Q 653.29 1170.39 636.57 1169.43
  C 607.23 1163.93 586.03 1141.10 583.74 1111.25
  Q 583.15 1103.45 583.56 1078.39
  Z"
/>
<rect fill="#41378d" x="849.96" y="1094.10" width="133.58" height="48.28" rx="23.28"/>
<rect fill="#41378d" x="-66.71" y="-24.17" transform="translate(1194.12,1118.24) rotate(0.1)" width="133.42" height="48.34" rx="23.29"/>
<path fill="#695a6f" d="
  M 363.58 1123.70
  L 363.96 1124.08
  Q 364.31 1124.44 364.81 1124.44
  L 418.00 1124.47
  L 427.01 1124.31
  Q 427.42 1124.38 427.84 1125.02
  L 428.43 1140.66
  L 362.96 1140.72
  Q 362.33 1132.19 363.58 1123.70
  Z"
/>
<path fill="#50374c" d="
  M 481.26 1124.54
  L 487.07 1124.57
  Q 487.66 1124.57 487.66 1125.16
  L 487.58 1140.85
  L 428.43 1140.66
  L 427.84 1125.02
  Q 427.94 1124.94 428.00 1124.79
  Q 428.09 1124.56 428.34 1124.56
  L 481.26 1124.54
  Z"
/>
<path fill="#182f3f" d="
  M 362.96 1140.72
  L 428.43 1140.66
  L 487.58 1140.85
  C 504.59 1141.28 527.63 1135.88 526.18 1162.67
  Q 526.15 1163.25 526.73 1163.25
  L 532.00 1163.25
  Q 532.64 1163.25 532.62 1163.88
  L 532.50 1170.02
  L 356.28 1169.99
  L 356.05 1163.87
  A 0.58 0.58 0.0 0 1 356.63 1163.27
  L 359.80 1163.24
  Q 360.42 1163.24 360.43 1162.62
  Q 360.63 1152.41 360.78 1142.28
  Q 360.79 1141.27 361.32 1140.96
  Q 361.91 1140.60 362.96 1140.72
  Z"
/>
<path fill="#c9e6ec" d="
  M 636.57 1169.43
  Q 653.29 1170.39 669.73 1169.81
  L 787.74 1170.12
  Q 788.23 1170.12 788.26 1169.63
  L 788.29 1169.18
  C 791.31 1169.54 794.27 1169.94 797.33 1169.94
  Q 1065.57 1170.06 1333.71 1169.98
  L 1370.58 1169.78
  L 1458.55 1170.24
  A 1.14 1.06 58.3 0 1 1459.10 1170.39
  Q 1466.33 1174.40 1462.46 1182.20
  C 1460.81 1185.54 1454.04 1185.42 1450.94 1185.42
  C 1178.81 1185.56 906.67 1185.63 634.54 1185.48
  C 543.51 1185.43 448.28 1185.58 355.09 1185.49
  C 345.77 1185.49 330.85 1185.14 318.75 1185.37
  C 313.12 1185.47 307.12 1185.83 305.32 1179.75
  C 303.35 1173.10 308.66 1169.90 314.87 1169.94
  Q 335.59 1170.06 356.28 1169.99
  L 532.50 1170.02
  L 636.16 1170.40
  A 0.60 0.59 -0.9 0 0 636.76 1169.79
  Q 636.75 1169.49 636.57 1169.43
  Z"
/>
</svg>
