<?xml version="1.0" encoding="utf-8"?>
<!-- Generator: Adobe Illustrator 27.5.0, SVG Export Plug-In . SVG Version: 6.00 Build 0)  -->
<svg version="1.1" xmlns="http://www.w3.org/2000/svg" xmlns:xlink="http://www.w3.org/1999/xlink" x="0px" y="0px"
	 viewBox="0 0 500 500" style="enable-background:new 0 0 500 500;" xml:space="preserve">
<g id="BACKGROUND">
	<path style="fill:none;" d="M191.257,382.476c97.843,18.916,205.927,26.086,259.518-76.862
		c53.591-102.948,53.02-175.145-111.597-244.005C174.562-7.252,7.796,76.622,26.543,208.355S124.538,369.577,191.257,382.476z"/>
</g>
<g id="OBJECTS">
	<g>
		<path style="fill:#508AA8;" d="M339.377,411.485c28.042,0,31.995-11.057,31.995-35.916c0-15.764,0-226.154,0-239.493
			c0-13.339-2.375-26.371-31.127-26.367c-28.751,0.005-164.565,0.005-175.479,0.005c-10.914,0-23.04,2.11-23.04,21.512
			c0,19.402,0,217.385,0,246.768c0,16.045-0.441,33.491,22.923,33.491C184.052,411.485,319.165,411.485,339.377,411.485z"/>
		<g>
			<path style="fill:#FFFFFF;" d="M155.24,132.286c0,0,137.026-4.244,199.476,0c0,0,6.063,214.331,6.063,242.524
				c0,14.007-17.117,24.569-41.835,25.588c-48.505,1.999-106.711,3.355-163.098-1.989
				C155.846,398.409,150.389,338.432,155.24,132.286z"/>
			<path style="fill:#77ACC6;" d="M360.779,374.811c-3.638,14.855-17.85,9.524-17.85,9.524
				c-1.687,12.78-23.985,16.064-23.985,16.064C343.662,399.38,360.779,388.817,360.779,374.811z"/>
		</g>
		<g>
			<g>
				<g>
					<path style="fill:none;stroke:#77ACC6;stroke-width:3;stroke-linecap:round;stroke-linejoin:round;stroke-miterlimit:10;" d="
						M172.755,345.031c0,0,41.835-2.425,100.647,0"/>
					<path style="fill:none;stroke:#77ACC6;stroke-width:3;stroke-linecap:round;stroke-linejoin:round;stroke-miterlimit:10;" d="
						M172.755,356.905c0,0,30.652-0.909,51.873,0"/>
					<path style="fill:none;stroke:#77ACC6;stroke-width:3;stroke-linecap:round;stroke-linejoin:round;stroke-miterlimit:10;" d="
						M273.403,356.5c0,0-29.376,0.519-40.589,0.404"/>
					<path style="fill:none;stroke:#77ACC6;stroke-width:3;stroke-linecap:round;stroke-linejoin:round;stroke-miterlimit:10;" d="
						M172.755,370.547c0,0,64.538,2.425,100.647,0"/>
				</g>
				<g>
					<path style="fill:#CAE3EF;" d="M324.02,377.561c7.276,0,13.673-3.916,12.983-15.006c-0.527-8.479,3.993-25.3-9.346-25.3
						c-9.712,0-14.248,0-17.28,0c-10.927,0-12.548,5.395-13.036,14.669c-0.542,10.298-3.032,24.332,10.307,25.637
						C312.178,378.004,319.927,377.561,324.02,377.561z"/>
					<path style="fill:#304E63;" d="M339.861,340.174c-10.808,0.088-20.451,8.167-25.769,17.526
						c-2.829-2.924-7.553-5.781-10.153-6.73c-4.246-1.55-11.94-0.148-7.653,4.101c2.072,2.054,4.839,4.033,8.662,8.193
						c6.871,7.478,11.065,11.773,13.867,7.861c3.749-5.233,5.359-7.357,8.58-11.795c4.737-6.526,8.951-8.621,13.77-12.67
						C345.217,343.256,343.751,340.142,339.861,340.174z"/>
				</g>
			</g>
			<g>
				<g>
					<path style="fill:none;stroke:#77ACC6;stroke-width:3;stroke-linecap:round;stroke-linejoin:round;stroke-miterlimit:10;" d="
						M172.755,246.08c0,0,22.511-0.909,38.096,0"/>
					<path style="fill:none;stroke:#77ACC6;stroke-width:3;stroke-linecap:round;stroke-linejoin:round;stroke-miterlimit:10;" d="
						M273.403,245.676c0,0-44.534,0.114-55.747,0"/>
					<path style="fill:none;stroke:#77ACC6;stroke-width:3;stroke-linecap:round;stroke-linejoin:round;stroke-miterlimit:10;" d="
						M172.755,233.322c0,0,30.652-0.91,51.873,0"/>
					<path style="fill:none;stroke:#77ACC6;stroke-width:3;stroke-linecap:round;stroke-linejoin:round;stroke-miterlimit:10;" d="
						M273.403,232.918c0,0-29.376,0.518-40.589,0.404"/>
					<path style="fill:none;stroke:#77ACC6;stroke-width:3;stroke-linecap:round;stroke-linejoin:round;stroke-miterlimit:10;" d="
						M172.755,259.722c0,0,30.036,0.744,67.334,0"/>
					<path style="fill:none;stroke:#77ACC6;stroke-width:3;stroke-linecap:round;stroke-linejoin:round;stroke-miterlimit:10;" d="
						M245.529,259.888c0,0,23.057-0.294,29.12,0.165"/>
				</g>
				<g>
					<path style="fill:#CAE3EF;" d="M297.015,239.679c0-7.276,3.916-13.673,15.006-12.983c8.479,0.527,25.3-3.993,25.3,9.346
						c0,9.712,0,14.248,0,17.28c0,10.927-5.395,12.548-14.668,13.036c-10.298,0.542-24.332,3.032-25.637-10.307
						C296.572,251.521,297.015,243.772,297.015,239.679z"/>
					<path style="fill:#304E63;" d="M339.861,230.405c-10.808,0.088-20.451,8.167-25.769,17.526
						c-2.829-2.924-7.553-5.781-10.153-6.73c-4.246-1.55-11.94-0.149-7.653,4.101c2.072,2.054,4.839,4.033,8.662,8.193
						c6.871,7.478,11.065,11.773,13.867,7.861c3.749-5.233,5.359-7.357,8.58-11.795c4.737-6.526,8.951-8.621,13.77-12.67
						C345.217,233.487,343.751,230.373,339.861,230.405z"/>
				</g>
			</g>
			<g>
				<g>
					<path style="fill:none;stroke:#77ACC6;stroke-width:3;stroke-linecap:round;stroke-linejoin:round;stroke-miterlimit:10;" d="
						M172.755,205.757c0,0,41.835-2.425,100.647,0"/>
					<path style="fill:none;stroke:#77ACC6;stroke-width:3;stroke-linecap:round;stroke-linejoin:round;stroke-miterlimit:10;" d="
						M273.403,191.053c0,0-6.655,0.79-27.874-0.171"/>
					<path style="fill:none;stroke:#77ACC6;stroke-width:3;stroke-linecap:round;stroke-linejoin:round;stroke-miterlimit:10;" d="
						M172.755,191.218c0,0,18.165-0.589,29.377-0.449"/>
					<path style="fill:none;stroke:#77ACC6;stroke-width:3;stroke-linecap:round;stroke-linejoin:round;stroke-miterlimit:10;" d="
						M273.388,177.025c0,0-64.493-3.425-100.636-1.56"/>
					<path style="fill:none;stroke:#77ACC6;stroke-width:3;stroke-linecap:round;stroke-linejoin:round;stroke-miterlimit:10;" d="
						M207.088,190.747c0,0,28.227,0.135,33.667,0.135"/>
				</g>
				<g>
					<path style="fill:#CAE3EF;" d="M324.02,170.819c7.276,0,13.673,3.916,12.983,15.006c-0.527,8.479,3.993,25.3-9.346,25.3
						c-9.712,0-14.248,0-17.28,0c-10.927,0-12.548-5.395-13.036-14.669c-0.542-10.298-3.032-24.332,10.307-25.637
						C312.178,170.376,319.927,170.819,324.02,170.819z"/>
					<path style="fill:#304E63;" d="M339.861,174.12c-10.808,0.088-20.451,8.167-25.769,17.526
						c-2.829-2.924-7.553-5.781-10.153-6.73c-4.246-1.55-11.94-0.149-7.653,4.101c2.072,2.054,4.839,4.033,8.662,8.193
						c6.871,7.478,11.065,11.773,13.867,7.861c3.749-5.233,5.359-7.357,8.58-11.795c4.737-6.526,8.951-8.621,13.77-12.67
						C345.217,177.202,343.751,174.088,339.861,174.12z"/>
				</g>
			</g>
			<g>
				<g>
					<path style="fill:none;stroke:#77ACC6;stroke-width:3;stroke-linecap:round;stroke-linejoin:round;stroke-miterlimit:10;" d="
						M273.403,301.488c0,0-16.606-1.366-100.647,0"/>
					<path style="fill:none;stroke:#77ACC6;stroke-width:3;stroke-linecap:round;stroke-linejoin:round;stroke-miterlimit:10;" d="
						M172.755,314.784c0,0,30.652-0.909,51.873,0"/>
					<path style="fill:none;stroke:#77ACC6;stroke-width:3;stroke-linecap:round;stroke-linejoin:round;stroke-miterlimit:10;" d="
						M273.403,314.38c0,0-29.376,0.519-40.589,0.404"/>
					<path style="fill:none;stroke:#77ACC6;stroke-width:3;stroke-linecap:round;stroke-linejoin:round;stroke-miterlimit:10;" d="
						M273.403,287.997c0,0-64.538-2.425-100.647,0"/>
				</g>
				<g>
					<path style="fill:#CAE3EF;" d="M337.123,293.921c0-7.276-3.916-13.673-15.006-12.984c-8.479,0.527-25.3-3.993-25.3,9.346
						c0,9.712,0,14.248,0,17.28c0,10.927,5.395,12.548,14.669,13.036c10.298,0.542,24.332,3.032,25.637-10.307
						C337.566,305.763,337.123,298.013,337.123,293.921z"/>
					<path style="fill:#304E63;" d="M339.861,285.595c-10.808,0.088-20.451,8.167-25.769,17.526
						c-2.829-2.924-7.553-5.781-10.153-6.73c-4.246-1.55-11.94-0.149-7.653,4.101c2.072,2.054,4.839,4.033,8.662,8.193
						c6.871,7.478,11.065,11.773,13.867,7.861c3.749-5.233,5.359-7.357,8.58-11.795c4.737-6.526,8.951-8.621,13.77-12.67
						C345.217,288.677,343.751,285.563,339.861,285.595z"/>
				</g>
			</g>
		</g>
		<g>
			<path style="fill:none;stroke:#C3D3D9;stroke-width:3;stroke-linecap:round;stroke-miterlimit:10;" d="M306.823,121.582
				c10.926,0,10.549,3.934,10.826,6.186c0.278,2.252-0.124,3.931,0,7.655c0.208,6.262-10.826,6.145-15.268,6.145
				c-4.442,0-20.119,0-25.677,0c-12.429,0-12.429,7.696-20.564,7.696c-9.145,0-11.33-8.336-20.75-7.739
				c-10.438,0.662-21.841,0.574-25.449,0.574c-3.609,0-15.268,0.188-15.268-6.676c0-3.439-0.11-6.195-0.14-7.787
				c-0.113-6.054,5.456-5.824,13.424-5.824"/>
			<path style="fill:#C6281C;" d="M261.07,125.63c-45.608-0.923-61.053,4.77-61.072-4.042c-0.01-4.501,7.146-4.042,20.723-4.042
				s35.01-0.446,57.166-0.446c29.627,0,33.585-0.488,33.585,4.425C311.472,126.439,306.539,126.55,261.07,125.63z"/>
		</g>
	</g>
	<g>
		<g>
			<g>
				<path style="fill:#97C3DB;" d="M395.273,276.588c3.772-5.065-14.045-26.093-22.366-11.746
					C365.83,277.045,391.501,281.653,395.273,276.588z"/>
				<path style="fill:#508AA8;" d="M400.397,288.501c-1.361-6.167-27.419-2.693-19.364,11.109
					C388.144,311.795,401.759,294.669,400.397,288.501z"/>
				<path style="fill:#97C3DB;" d="M399.219,281.826c1.032,5.603,26.395,9.367,22.638-2.616
					C418.049,267.067,398.174,276.15,399.219,281.826z"/>
				<path style="fill:#97C3DB;" d="M394.307,265.659c7.24,0.512,19.913-14.376,8.942-20.366
					C390.939,238.572,388.044,265.216,394.307,265.659z"/>
				<path style="fill:#97C3DB;" d="M404.915,306.829c-6.233-3.72-24.254,3.861-17.159,14.152
					C395.717,332.528,410.307,310.046,404.915,306.829z"/>
				<path style="fill:#304E63;" d="M406.701,302.869c-5.414-19.413-11.696-40.242-21.81-57.785
					c-0.436-0.756-1.577-0.311-1.269,0.545c3.466,9.644,7.945,18.923,11.5,28.547c3.794,10.27,7.142,20.712,10.01,31.278
					c5.408,19.924,8.316,40.077,11.749,60.384c0.122,0.719,1.133,0.555,1.105-0.152
					C417.143,344.545,412.367,323.189,406.701,302.869z"/>
				<path style="fill:#77ACC6;" d="M388.484,254.384c4.919-5.133-9.779-33.554-19.167-21.007
					C359.803,246.092,383.501,259.583,388.484,254.384z"/>
			</g>
			<g>
				<path style="fill:#508AA8;" d="M425.743,298.698c-4.171-6.249,18.284-30.142,27.292-12.587
					C460.697,301.043,429.914,304.947,425.743,298.698z"/>
				<path style="fill:#508AA8;" d="M422.88,277.737c-5.537,5.079-32.585-13.455-16.616-25.044
					C419.848,242.836,428.417,272.658,422.88,277.737z"/>
				<path style="fill:#77ACC6;" d="M422.676,302.409c-4.92,4.662-31.938-9.501-19.925-18.385
					C414.923,275.022,427.659,297.686,422.676,302.409z"/>
				<path style="fill:#77ACC6;" d="M428.001,271.339c-1.119-8.563,15.667-24.663,23.555-12.057
					C460.408,273.427,428.97,278.746,428.001,271.339z"/>
				<path style="fill:#508AA8;" d="M422.104,326.378c2.273-8.331-12.168-26.564-21.697-15.148
					C389.715,324.04,420.138,333.584,422.104,326.378z"/>
				<path style="fill:#508AA8;" d="M424.43,330.275c-3.357-6.515,19.502-30.298,25.103-15.144
					C455.209,330.487,427.831,336.874,424.43,330.275z"/>
				<path style="fill:#304E63;" d="M427.282,257.908c-0.071-0.795-1.31-1.104-1.495-0.202c-3.508,17.061-2.672,35.643-3.115,53
					c-0.468,18.354-1.215,36.966,0.007,55.299c0.096,1.44,2.171,1.453,2.248,0c0.961-17.978,0.543-36.069,1.001-54.07
					C426.381,294.158,428.859,275.626,427.282,257.908z"/>
				<path style="fill:#77ACC6;" d="M427.393,259.288c-7.477,3.137-16.868-33.396,2.404-33.926
					C446.81,224.896,434.869,256.151,427.393,259.288z"/>
			</g>
			<g>
				<path style="fill:#77ACC6;" d="M441.679,318.851c-2.138-5.069,17.302-19.153,21.359-5.288
					C466.489,325.356,443.817,323.92,441.679,318.851z"/>
				<path style="fill:#77ACC6;" d="M435.736,330.828c2.433-4.934,23.752,3.42,14.071,13.421
					C441.26,353.077,433.303,335.761,435.736,330.828z"/>
				<path style="fill:#97C3DB;" d="M436.669,326.752c-4.244,2.571-21.373-11.761-11.398-16.25
					C435.379,305.953,440.968,324.148,436.669,326.752z"/>
				<path style="fill:#97C3DB;" d="M443.4,309.748c-6.231-1.072-13.856-16.298-3.332-19.085
					C451.878,287.536,448.79,310.675,443.4,309.748z"/>
				<path style="fill:#304E63;" d="M453.44,296.647c-8.432,8.125-13.699,21.079-17.183,32.073
					c-3.591,11.334-5.971,24.154-4.277,36.038c0.087,0.608,0.964,0.399,1.009-0.137c0.997-12.046,1.705-23.691,5.419-35.308
					c3.78-11.823,10.449-21.045,16.158-31.797C454.945,296.803,454.039,296.071,453.44,296.647z"/>
				<path style="fill:#77ACC6;" d="M451.86,298.941c-3.094-5.364,15.244-26.351,20.578-13.786
					C477.843,297.887,454.994,304.375,451.86,298.941z"/>
			</g>
			<g>
				<path style="fill:#508AA8;" d="M398.583,328.408c3.196,4.477-12.686,22.478-19.682,9.839
					C372.951,327.496,395.387,323.931,398.583,328.408z"/>
				<path style="fill:#97C3DB;" d="M400.938,331.456c-4.994-2.306-0.112-25.81,12.225-18.295
					C423.658,319.553,405.932,333.762,400.938,331.456z"/>
				<path style="fill:#77ACC6;" d="M388.202,310.622c-4.449-4.492-1.81-21.315,8.375-17.469
					C408.007,297.468,392.051,314.508,388.202,310.622z"/>
				<path style="fill:#77ACC6;" d="M390.913,316.895c-0.246,6.188-26.955,14.149-24.76,0.676
					C368.377,303.919,391.163,310.627,390.913,316.895z"/>
				<path style="fill:#304E63;" d="M379.338,301.193c-0.498-0.437-1.162,0.227-0.726,0.726c7.736,8.856,14.724,18.247,19.844,28.875
					c5.19,10.773,7.598,21.828,10.18,33.394c0.241,1.078,1.97,0.847,1.93-0.261C409.734,340.892,396.466,316.204,379.338,301.193z"
					/>
				<path style="fill:#77ACC6;" d="M380.335,304.976c5.859-0.955-2.497-27.282-14.666-20.129
					C354.927,291.162,374.476,305.931,380.335,304.976z"/>
			</g>
		</g>
		<g>
			<path style="fill:#C6281C;" d="M396.499,368.783c0,0,1.138,16.909,2.114,25.689c0.975,8.78,1.951,13.982,8.78,15.771
				c6.829,1.788,21.949,1.301,27.315,0c5.365-1.301,7.967-7.642,8.617-15.121c0.65-7.479,2.114-26.339,2.114-26.339H396.499z"/>
			<path style="fill:#BA1200;" d="M391.134,359.028c0,0-0.975,11.218,0,17.559c0,0,37.07,2.439,59.507,0
				c0,0,1.138-14.025-0.325-18.574C450.316,358.014,399.426,357.077,391.134,359.028z"/>
		</g>
	</g>
	<g>
		<g>
			<path style="fill:#F9D2B2;" d="M109.542,392.327c-0.094,3.729-0.627,8.91,0,10.582c0.627,1.672,5.616,10.561,11.323,9.37
				c5.707-1.191-0.248-8.216-1.899-11.331c-1.65-3.115-1.014-7.099-0.676-10.31C118.628,387.426,109.722,385.197,109.542,392.327z"
				/>
			<path style="fill:#508AA8;" d="M119.496,257.335c0,0,1.369,10.511,1.369,20.387c0,9.875-1.314,84.616-1.369,97.089
				c-0.055,12.474,0,22.429,0,22.429s-6.82,2.429-11.32,0c0,0-9.15-80.963-12.464-117.813c-1.201-13.349,0.232-20.668,0.232-20.668
				L119.496,257.335z"/>
			<g>
				<path style="fill:#C6281C;" d="M120.232,402.515c-0.365-0.73-0.746-1.866-3.537-1.19c-2.79,0.676-3.213,1.727-2.79,2.554
					c0.423,0.827,1.014,2.01,1.014,2.01s-4.41-2.282-5.678-6.362c0,0-0.843,3.237,1.291,6.287
					c6.29,8.993,9.011,12.849,13.504,10.852c3.962-1.761,2.138-4.608-0.751-9.002C121.479,404.916,120.978,404.005,120.232,402.515z
					"/>
				<path style="fill:#BA1200;" d="M114.962,405.705c0.963-0.517,4.713-1.866,5.776-2.204c0.313-0.1,1.042,1.406,0.683,1.539
					c-1.057,0.393-4.82,1.696-5.757,2.158C115.173,407.441,114.452,405.978,114.962,405.705z"/>
				<path style="fill:#BA1200;" d="M110.532,405.814c6.29,8.993,9.011,12.849,13.504,10.852c1.742-0.774,2.28-1.946,2.093-3.389
					c-0.108,0.47-0.639,1.472-2.347,2.29c-2.082,0.998-5.155-0.338-8.779-4.656c-3.22-3.837-5.393-7.754-5.838-8.581
					C109.315,403.381,109.69,404.61,110.532,405.814z"/>
			</g>
		</g>
		<g>
			<path style="fill:#F9D2B2;" d="M65.303,389.961c0,0-0.122,4.249-1.547,8.598c-1.426,4.349-4.675,12.021,0,13.542
				c4.674,1.521,8.224-7.119,9.407-12.433c1.183-5.314,1.014-8.405,1.014-10.662S65.913,385.011,65.303,389.961z"/>
			<path style="fill:#77ACC6;" d="M101.994,258.393c0,0-18.783,0.365-25.512-1.058c0,0-5.359,49.844-6.835,68.713
				c-1.476,18.869-5.892,68.357-5.892,68.357s7.298,4.246,11.198,2.835c0,0,12.919-65.045,20.278-91.451
				C101.454,283.461,101.994,275.193,101.994,258.393z"/>
			<g>
				<path style="fill:#C6281C;" d="M62.393,403.525c0,0,1.315-3.936,2.91-3.848c1.947,0.108,4.108,0.979,5.071,1.819
					c1.166,1.017,0,4.12,0,4.12s2.028-3.296,2.789-5.947c-0.38,3.24-1.094,5.845-3.106,10.32c-3.106,6.909-5.135,8.5-9.35,6.996
					c-4.215-1.504-2.058-5.728,3.049-18.167C62.984,401.791,62.393,403.525,62.393,403.525z"/>
				<path style="fill:#BA1200;" d="M62.485,403.268c1.083,0.153,6.861,1.915,7.929,2.235c0.634,0.19-0.452,1.824-0.959,1.602
					c-1.033-0.452-6.26-2.037-7.289-2.218C61.628,404.792,61.912,403.187,62.485,403.268z"/>
				<path style="fill:#BA1200;" d="M60.707,416.985c4.018,1.434,6.053,0.043,8.924-6.074c-2.916,5.339-5.776,6.059-8.307,5.021
					c-2.842-1.166-2.478-4.013-2.461-4.407C58.047,414.629,58.486,416.192,60.707,416.985z"/>
			</g>
		</g>
		<g>
			<g>
				<path style="fill:#F9D2B2;" d="M96.124,206.505c-3.587-0.029-9.905,2.316-9.905,2.316s3.601,15.465,14.096,15.465
					c10.495,0,6.882-16.271,6.882-16.271S102.445,206.555,96.124,206.505z"/>
				<path style="fill:#F9D2B2;" d="M97.379,214.464c-3.405,0.237-3.632-1.445-4.111-5.104c-0.479-3.66-1.754-9.703,1.798-10.857
					c4.811-1.563,5.884,2.829,5.962,5.748C101.106,207.171,103.188,214.06,97.379,214.464z"/>
			</g>
			<path style="fill:#FFFFFF;" d="M90.275,210.722c0,0,9.761,5.324,16.352-1.268c0,0,2.333,16.225-6.313,16.225
				S90.275,210.722,90.275,210.722z"/>
		</g>
		<g>
			<path style="fill:#F9D2B2;" d="M137.453,217.695c-3.722,2.758-11.274,7.529-9.878,11.872c1.396,4.343,8.361,0.918,14.151-5.006
				C147.517,218.638,140.234,215.635,137.453,217.695z"/>
			<path style="fill:#C6281C;" d="M110.366,209.454c10.864,5.881,14.504,15.439,14.504,15.439s7.3-5.97,10.067-7.189
				c0,0,4.535,5.252,5.663,9.783c0,0-14.616,23.442-24.167,23.62C106.881,251.285,110.366,209.454,110.366,209.454z"/>
		</g>
		<g>
			<path style="fill:#C6281C;" d="M105.57,207.329c-0.524,6.473-5.811,13.027-5.811,13.027c-6.043-4.541-8.524-9.732-9.542-13.042
				c-19.953,3.934-36.536,19.489-39.335,31.042c-3.071,12.676,10.992,24.522,10.992,24.522s7.304-2.503,9.792-7.261
				c0,0-8.105-11.914,3.288-20.926c0,0-4.326,25.526-1.832,44.735c0,0,36.802,9.076,49.985,0c0,0,0.366-13.961,0-29.663
				C122.687,231.793,120.694,211.543,105.57,207.329z"/>
			<path style="fill:#BA1200;" d="M105.57,207.329c-0.524,6.473-5.811,13.027-5.811,13.027c-6.043-4.541-8.524-9.732-9.542-13.042
				c-1.15,0.227-2.288,0.496-3.414,0.797c2.005,4.831,5.913,11.141,13.53,16.782c0,0,6.421-7.823,8.388-16.411
				C107.724,208.03,106.679,207.638,105.57,207.329z"/>
		</g>
		<g>
			<path style="fill:#F9B46E;" d="M158.607,198.981c2.066,1.916,0.857,4.356-1.551,10.152
				c-24.757,21.441-64.078,52.465-96.393,78.891c-2.157-2.144-5.272-5.838-9.044-11.986c33.105-27.051,65.583-52.716,96.232-78.242
				C153.518,196.826,155.783,196.362,158.607,198.981z"/>
			<path style="fill:#F9D2B2;" d="M167.024,192.86c-2.692,2.967-9.968,16.273-9.968,16.273s0.102-2.571-0.896-4.567
				c-0.998-1.996-4.13-1.25-4.13-1.25s0.128-2.042-0.826-3.656c-0.953-1.615-3.353-1.865-3.353-1.865s11.57-3.554,17.159-7.521
				C163.019,191.535,164.809,194.971,167.024,192.86z"/>
			<path style="fill:#304E63;" d="M172.486,186.306c1.151,1.479-2.474,3.26-5.462,6.554c-2.215,2.111-4.005-1.325-2.013-2.586
				C170.6,186.307,171.335,184.827,172.486,186.306z"/>
			<path style="fill:#C6281C;" d="M46.868,299.297c-2.602,2.124-4.16,3.392-4.367,3.553c-1.879,1.463-4.747,4.079-9.451-1.479
				c-4.704-5.558-3.091-7.355-0.848-9.328c0.714-0.628,2.583-2.188,5.338-4.461C38.79,290.31,41.428,294.517,46.868,299.297z"/>
			<path style="fill:#97C3DB;" d="M60.663,288.023c-5.809,4.75-10.596,8.663-13.795,11.274c-5.44-4.78-8.078-8.987-9.328-11.716
				c3.452-2.849,8.308-6.829,14.079-11.544C55.391,282.185,58.507,285.879,60.663,288.023z"/>
			<path style="fill:#304E63;" d="M42.466,283.53c1.282-1.052,2.662-2.183,4.126-3.381c2.13,4.995,6.765,9.451,9.392,11.7
				c-1.386,1.133-2.684,2.194-3.89,3.179C46.544,290.792,43.805,286.508,42.466,283.53z"/>
		</g>
		<path style="fill:#F9D2B2;" d="M69.955,256.669c4.192,5.249,10.96,7.962,10.152,8.911c-0.809,0.949-3.392-0.559-4.442-1.042
			c0,0,2.554,6.439,3.024,9.517c0.47,3.077-1.136,2.157-1.136,2.157s-2.324-6.874-3.509-8.94c0,0,2.71,8.997,2.105,9.86
			c-0.606,0.863-1.304-0.715-2.397-3.663c-1.094-2.949-2.494-4.875-2.494-4.875s3.204,8.771,1.763,9.379
			c-1.441,0.608-1.909-4.45-3.966-8.105c0,0,0.257,4.684-0.519,5.34c-1.077,0.909-0.696-1.593-1.173-4.043
			c-1.428-7.341-2.551-7.54-4.425-9.653C64.751,259.359,67.332,257.335,69.955,256.669z"/>
		<path style="fill:#F9D2B2;" d="M148.891,220.71c-0.799,1.511-1.792,3.122-3.252,4.083c-1.498,0.985-3.146,0.746-4.66-0.139
			c-1.679-0.982-3.226-2.452-4.595-3.823c-0.887-0.887-2.94-2.818-2.596-3.376c0.546-0.887,1.898,0.536,2.187,0.742
			c0.748,0.532,1.484,1.083,2.262,1.57c0.922,0.578,2.396,1.572,3.061,1.96c-1.525-1.305-4.504-3.852-5.45-4.824
			c-0.868-0.892-1.707-1.481-2.378-2.536c-0.41-0.646,0.013-1.621,0.881-1.327c0.672,0.228,2.38,1.193,3.499,2.085
			c1.911,1.521,4.106,3.016,5.427,3.9c-1.56-1.204-3.188-2.319-4.711-3.57c-1.094-0.898-4.727-3.768-3.601-4.707
			c0.68-0.567,2.387,0.226,2.952,0.589c1.135,0.731,5.389,3.438,7.411,4.696c-0.537-0.429-1.737-1.355-2.923-2.245
			c-0.913-0.685-1.893-1.272-2.858-1.878c-0.812-0.51-2.089-1.107-2.635-1.925c-0.192-0.288-0.27-0.66-0.167-0.99
			c0.139-0.446,1.436-0.38,2.042-0.147c1.607,0.618,2.852,1.235,4.348,2.071c1.645,0.919,3.321,1.79,4.886,2.845
			c0.615,0.415,1.224,0.87,1.642,1.483C150.779,216.884,149.703,219.173,148.891,220.71z"/>
		<g>
			<g>
				<path style="fill:#304E63;" d="M110.342,175.611c0,0,2.804-39.32-23.235-36.414c-28.084,3.134-24.143,39.082-10.895,54.309
					C89.077,208.291,107.736,197.388,110.342,175.611z"/>
			</g>
			<g>
				<path style="fill:#F9D2B2;" d="M91.315,142.031c13.688-1.771,21.899,12.238,22.418,33.654
					c0.519,21.417-7.535,27.661-15.879,28.204c-8.85,0.576-17.925-4.601-22.634-23.902
					C70.241,159.577,73.557,144.329,91.315,142.031z"/>
				<path style="fill:#304E63;" d="M75.22,179.988c0,0,5.042-16.928,2.76-24.281c0,0,21.042,8.113,39.042,0c0,0-3.811,0.731-5.445,0
					c0,0,7.473-1.734,8.741-6.444c0,0-8.127,1.653-11.444,0c0,0,5.264,0.722,8.101-4.529c0,0-20.092-9.154-34.382-4.324
					c-14.29,4.83-14.188,23.155-11.175,38.114L75.22,179.988z"/>
				<path style="fill:#F9D2B2;" d="M76.21,179.252c-0.457-2.47-4.847-8.199-8.658-4.07C62.429,180.734,77.828,187.999,76.21,179.252
					z"/>
				<path style="fill:#304E63;" d="M99.758,183.637c-7.901,0.972-16.962,0.718-20.765-3.786c-4.562-5.404-5.668-10.866-5.668-10.866
					s0.089,8.42,1.105,14.652c1.11,6.811,3.803,24.376,22.631,24.376c24.947,0,16.288-39.566,16.288-39.566s0.287,6.978-0.774,9.542
					C111.515,180.553,106.573,182.799,99.758,183.637z"/>
				<g>
					<path style="fill:#F9B46E;" d="M96.92,172.373c-0.363,0.225-0.771,1.564-1.04,2.461c-1.076,3.588-0.426,10.311,5.121,11.137
						c2.827,0.421,4.184-0.943,4.183-2.156c0-1.304-2.364-2.056-5.344-6.614C98.221,174.723,98.033,171.683,96.92,172.373z"/>
					<path style="fill:#FFFFFF;" d="M107.595,189.311c0,0-4.513,2.68-15.058,0c0,0,1.7,7.102,9.046,7.675
						C106.384,197.361,107.595,189.311,107.595,189.311z"/>
					<g>
						<path style="fill:#304E63;" d="M89.902,172.307c2.498-0.016,2.565,3.81,0.422,4.034
							C88.181,176.566,87.404,172.323,89.902,172.307z"/>
						<path style="fill:#304E63;" d="M104.006,170.967c2.498-0.016,2.565,3.81,0.422,4.034
							C102.285,175.225,101.508,170.983,104.006,170.967z"/>
					</g>
				</g>
			</g>
		</g>
	</g>
</g>

</svg>
