<?xml version="1.0" encoding="utf-8"?>
<!-- Generator: Adobe Illustrator 27.5.0, SVG Export Plug-In . SVG Version: 6.00 Build 0)  -->
<svg version="1.1" xmlns="http://www.w3.org/2000/svg" xmlns:xlink="http://www.w3.org/1999/xlink" x="0px" y="0px"
	 viewBox="0 0 500 500" style="enable-background:new 0 0 500 500;" xml:space="preserve">
<g id="BACKGROUND">
</g>
<g id="OBJECTS">
	<g>
		
			<ellipse transform="matrix(0.0025 -1 1 0.0025 -75.3896 573.9382)" style="fill:#F4F4F4;" cx="250" cy="324.759" rx="110.46" ry="210"/>
		
			<ellipse transform="matrix(0.9439 -0.3302 0.3302 0.9439 -97.8961 57.2807)" style="opacity:0.15;fill:#5FA9D1;" cx="119.661" cy="316.803" rx="34.163" ry="15.302"/>
		<ellipse style="opacity:0.15;fill:#5FA9D1;" cx="219.794" cy="381.747" rx="49.714" ry="20.462"/>
		<path style="opacity:0.15;fill:#5FA9D1;" d="M175.656,261.355c-0.017,6.617-11.333,11.953-25.275,11.918
			c-13.942-0.035-25.231-5.428-25.214-12.045c0.017-6.617,11.333-11.953,25.275-11.918
			C164.384,249.346,175.672,254.738,175.656,261.355z"/>
		<g>
			<g>
				<g>
					<path style="fill:#BECCDE;" d="M169.613,233.836l-0.059,23.181c-0.014,5.339-7.983,9.646-17.801,9.621
						c-9.818-0.025-17.766-4.372-17.752-9.711l0.059-23.181L169.613,233.836z"/>
					<path style="fill:#ABBACB;" d="M157.012,233.804l-0.082,32.429c7.296-1.187,12.614-4.856,12.625-9.215l0.059-23.181
						L157.012,233.804z"/>
					<path style="fill:#FFFFFF;" d="M134.059,233.746c-0.014,5.338,7.935,9.686,17.752,9.711c9.818,0.025,17.788-4.283,17.802-9.621
						c0.013-5.338-7.935-9.686-17.753-9.711C142.043,224.1,134.073,228.408,134.059,233.746z"/>
					<path style="fill:#ABBACB;" d="M137.599,233.634c-0.01,4.175,6.355,7.576,14.219,7.596c7.864,0.02,14.246-3.349,14.257-7.524
						c0.01-4.175-6.355-7.575-14.219-7.595C143.992,226.091,137.609,229.46,137.599,233.634z"/>
					<path style="fill:#8A7453;" d="M151.843,231.058c-6.229-0.016-11.516,2.099-13.455,5.052c1.924,2.963,7.2,5.104,13.429,5.12
						c6.229,0.016,11.516-2.098,13.455-5.052C163.349,233.215,158.072,231.074,151.843,231.058z"/>
				</g>
				<g>
					<defs>
						<path id="SVGID_1_" d="M137.599,233.634c-0.01,4.175,6.355,7.576,14.219,7.596c7.864,0.02,14.246-3.349,14.257-7.524
							c0.003-0.999,33.209-19.084,32.548-19.958c-2.101-2.781-20.381-39.84-49.498-42.065
							c-28.991-2.215-45.428,36.078-46.933,39.398C101.936,211.647,137.6,233.027,137.599,233.634z"/>
					</defs>
					<clipPath id="SVGID_00000154387030353440846590000013452412223742438051_">
						<use xlink:href="#SVGID_1_"  style="overflow:visible;"/>
					</clipPath>
					<g style="clip-path:url(#SVGID_00000154387030353440846590000013452412223742438051_);">
						<path style="fill:#89DEC9;" d="M151.704,249.477c0,0-9.375-51.589-30.761-51.643c-5.712-0.014-25.543,12.529,8.056,27.202
							C147.613,233.164,151.704,249.477,151.704,249.477z"/>
						<path style="fill:#89DEC9;" d="M151.704,249.477c-2.072-9.334-0.891-50.912,27.484-51.496
							c5.711-0.118,28.446,11.559-4.962,26.661C153.518,234.003,152.459,244.915,151.704,249.477z"/>
						<path style="fill:#89DEC9;" d="M151.704,249.477c0,0-8.32-35.508-20.811-52.277c-12.491-16.769,19.8-25.3,24.56,0.721
							c1.319,7.208,0.783,16.179-0.833,25.781C151.757,240.703,151.704,249.477,151.704,249.477z"/>
						<g>
							<path style="fill:#44B8A2;" d="M151.704,249.477c-0.262-4.496-1.545-8.826-3.263-12.902
								c-1.736-4.084-4.077-7.868-6.751-11.389l-2.129-2.547c-0.68-0.875-1.516-1.613-2.267-2.426
								c-1.494-1.641-3.191-3.075-4.842-4.565c-0.798-0.779-1.706-1.426-2.58-2.117l-2.625-2.082
								c-1.811-1.308-3.678-2.546-5.491-3.9c1.01,0.493,2.009,1.015,3.006,1.545c0.99,0.54,2.022,1.022,2.984,1.614l2.829,1.877
								c0.93,0.646,1.907,1.235,2.76,1.986c1.744,1.452,3.555,2.84,5.097,4.524l1.204,1.212c0.409,0.396,0.803,0.808,1.15,1.262
								l2.167,2.646c2.739,3.643,5.022,7.651,6.582,11.932C151.071,240.415,152.004,244.969,151.704,249.477z"/>
						</g>
						<g>
							<path style="fill:#44B8A2;" d="M141.395,190.057c2.626,4.081,4.581,8.581,6.154,13.179c1.569,4.607,2.741,9.348,3.561,14.147
								c0.194,1.201,0.344,2.409,0.518,3.613l0.249,1.808l0.153,1.818l0.301,3.635l0.108,3.645l0.051,1.821
								c0.008,0.607-0.027,1.215-0.04,1.821l-0.116,3.638c-0.029,1.212-0.2,2.419-0.293,3.626c-0.104,1.207-0.231,2.412-0.364,3.613
								c-0.067-2.426,0.032-4.838-0.055-7.25c-0.127-2.411-0.107-4.82-0.336-7.219l-0.262-3.598l-0.399-3.583
								c-0.123-1.195-0.272-2.387-0.464-3.572c-0.183-1.187-0.342-2.377-0.545-3.56c-0.833-4.729-1.904-9.414-3.243-14.028
								C145,199.01,143.473,194.432,141.395,190.057z"/>
						</g>
						<g>
							<path style="fill:#44B8A2;" d="M178.397,205.445c-4.192,1.785-7.945,4.37-11.289,7.335c-3.322,2.999-6.2,6.474-8.454,10.34
								c-2.237,3.874-3.908,8.078-5.009,12.448c-1.095,4.372-1.694,8.88-1.93,13.427c-0.233-4.546,0.065-9.145,0.999-13.64
								c0.88-4.505,2.481-8.892,4.754-12.918c2.289-4.011,5.259-7.665,8.835-10.595
								C169.865,208.924,173.965,206.587,178.397,205.445z"/>
						</g>
					</g>
				</g>
			</g>
		</g>
		
			<ellipse transform="matrix(0.0025 -1 1 0.0025 71.8115 635.674)" style="opacity:0.15;fill:#5FA9D1;" cx="354.546" cy="281.84" rx="11.982" ry="25.244"/>
		<g>
			<g>
				<g>
					<path style="fill:#BECCDE;" d="M337.094,253.808l-0.059,23.181c-0.014,5.339,7.935,9.686,17.753,9.711
						c9.818,0.025,17.788-4.282,17.801-9.621l0.059-23.181L337.094,253.808z"/>
					<path style="fill:#ABBACB;" d="M349.696,253.84l-0.082,32.428c-7.29-1.224-12.589-4.919-12.578-9.279l0.059-23.181
						L349.696,253.84z"/>
					<path style="fill:#FFFFFF;" d="M372.648,253.898c-0.013,5.338-7.984,9.646-17.801,9.621
						c-9.818-0.025-17.766-4.373-17.753-9.711c0.013-5.338,7.983-9.646,17.802-9.621
						C364.714,244.212,372.662,248.56,372.648,253.898z"/>
					<path style="fill:#ABBACB;" d="M369.109,253.768c-0.011,4.175-6.394,7.544-14.257,7.524c-7.864-0.02-14.229-3.421-14.219-7.596
						c0.011-4.175,6.393-7.543,14.257-7.523C362.754,246.193,369.12,249.594,369.109,253.768z"/>
					<path style="fill:#8A7453;" d="M354.878,251.12c6.229,0.016,11.505,2.157,13.429,5.12c-1.939,2.953-7.226,5.068-13.455,5.052
						c-6.229-0.016-11.505-2.157-13.43-5.12C343.362,253.219,348.649,251.104,354.878,251.12z"/>
				</g>
				<g>
					<defs>
						<path id="SVGID_00000163066855680202767740000016145552224509588384_" d="M369.109,253.768
							c-0.011,4.175-6.394,7.544-14.257,7.524c-7.864-0.02-14.229-3.421-14.219-7.596c0.003-0.999-33.112-19.251-32.447-20.122
							c2.115-2.77,20.582-39.737,49.71-41.814c29.002-2.068,45.245,36.307,46.733,39.635
							C404.883,231.961,369.111,253.161,369.109,253.768z"/>
					</defs>
					<clipPath id="SVGID_00000114765335685266229140000016263666923353805954_">
						<use xlink:href="#SVGID_00000163066855680202767740000016145552224509588384_"  style="overflow:visible;"/>
					</clipPath>
					<g style="clip-path:url(#SVGID_00000114765335685266229140000016263666923353805954_);">
						<path style="fill:#89DEC9;" d="M354.924,269.539c0,0,9.635-51.541,31.021-51.487c5.712,0.014,25.48,12.658-8.194,27.16
							C359.097,253.247,354.924,269.539,354.924,269.539z"/>
						<path style="fill:#89DEC9;" d="M354.924,269.539c2.119-9.324,1.148-50.907-27.224-51.634
							c-5.711-0.146-28.504,11.415,4.828,26.685C353.189,254.057,354.192,264.974,354.924,269.539z"/>
						<path style="fill:#89DEC9;" d="M354.924,269.539c0,0,8.499-35.466,21.075-52.171c12.575-16.705-19.672-25.399-24.564,0.597
							c-1.355,7.202-0.865,16.175,0.703,25.784C354.915,260.765,354.924,269.539,354.924,269.539z"/>
						<g>
							<path style="fill:#50B89D;" d="M354.924,269.539c-0.277-4.51,0.679-9.058,2.237-13.321c1.582-4.273,3.884-8.269,6.642-11.898
								l2.18-2.635c0.349-0.453,0.745-0.862,1.156-1.256l1.21-1.205c1.551-1.676,3.369-3.055,5.12-4.498
								c0.857-0.747,1.837-1.331,2.77-1.972l2.839-1.863c0.965-0.588,1.999-1.064,2.992-1.599c0.999-0.525,2.001-1.041,3.014-1.529
								c-1.82,1.345-3.693,2.574-5.511,3.872l-2.636,2.069c-0.878,0.687-1.788,1.329-2.591,2.104
								c-1.659,1.482-3.363,2.907-4.865,4.541c-0.754,0.81-1.595,1.544-2.279,2.415l-2.142,2.537
								c-2.692,3.508-5.052,7.279-6.809,11.355C356.513,260.722,355.209,265.045,354.924,269.539z"/>
						</g>
						<g>
							<path style="fill:#50B89D;" d="M365.533,210.173c-2.1,4.364-3.65,8.934-5.047,13.527c-1.362,4.607-2.456,9.286-3.313,14.011
								c-0.209,1.182-0.373,2.372-0.563,3.558c-0.199,1.185-0.353,2.375-0.482,3.57l-0.417,3.581l-0.28,3.597
								c-0.241,2.398-0.233,4.807-0.373,7.217c-0.099,2.412-0.012,4.824-0.091,7.25c-0.128-1.203-0.247-2.408-0.346-3.615
								c-0.087-1.208-0.252-2.415-0.275-3.627l-0.097-3.639c-0.009-0.607-0.042-1.215-0.031-1.822l0.06-1.82l0.127-3.644
								l0.319-3.633l0.163-1.817l0.258-1.806c0.18-1.203,0.336-2.41,0.537-3.61c0.844-4.794,2.04-9.529,3.632-14.128
								C360.909,218.731,362.886,214.241,365.533,210.173z"/>
						</g>
						<g>
							<path style="fill:#50B89D;" d="M328.454,225.373c4.426,1.164,8.514,3.522,12.063,6.458c3.561,2.948,6.513,6.617,8.781,10.639
								c2.252,4.037,3.831,8.432,4.688,12.941c0.911,4.5,1.186,9.1,0.93,13.645c-0.213-4.548-0.79-9.059-1.863-13.436
								c-1.079-4.375-2.728-8.588-4.946-12.473c-2.234-3.878-5.095-7.367-8.402-10.383
								C336.376,229.783,332.637,227.18,328.454,225.373z"/>
						</g>
					</g>
				</g>
			</g>
		</g>
		<g>
			<polygon style="fill:#7A91CF;" points="199.469,264.701 257.74,298.556 257.952,214.299 199.681,180.46 			"/>
			<polygon style="fill:#4D6196;" points="218.025,200.554 236.152,211.08 236.126,221.556 217.999,211.039 			"/>
			<polygon style="fill:#40517D;" points="219.976,209.741 236.132,219.115 236.152,211.08 219.996,201.698 			"/>
			<polygon style="fill:#637DC2;" points="199.469,264.716 257.74,298.57 257.809,271.009 199.538,237.17 			"/>
			<polygon style="fill:#7A91CF;" points="272.781,121.686 214.523,87.513 243.729,70.749 302.004,104.911 			"/>
			<g>
				<path style="fill:#768FC7;" d="M205.301,177.4l11.4-71.393l48.157,27.966c0,0-11.323,43.384-11.428,71.376L205.301,177.4z"/>
				<path style="fill:#7684AD;" d="M228.525,163.49l-23.223,13.91l48.13,27.95c0.03-7.907,0.955-17.043,2.267-26.081L228.525,163.49
					z"/>
				<path style="fill:#7A91CF;" d="M228.525,163.49l0.128-50.542l-11.951-6.941c0,0-10.547,47.462-11.4,71.393L228.525,163.49z"/>
				<path style="fill:#30C3FF;" d="M230.392,107.333c0,0-10.406,20.348-11.835,62.128l36.626,21.291l12.199-60.345L230.392,107.333z
					"/>
				<polygon style="fill:#C5CCEB;" points="205.301,177.4 219.196,158.065 259.425,181.427 253.431,205.35 				"/>
			</g>
			<g>
				<g>
					<polygon style="fill:#DEA61D;" points="227.772,170.131 230.102,166.792 224.521,163.531 222.212,166.87 					"/>
					<polygon style="fill:#6A6F8C;" points="232.661,172.997 235.009,169.659 231.188,167.426 228.854,170.765 					"/>
					<polygon style="fill:#6A6F8C;" points="237.638,175.915 240.004,172.578 236.167,170.336 233.815,173.674 					"/>
					<polygon style="fill:#6A6F8C;" points="242.635,178.845 245.02,175.509 241.167,173.258 238.797,176.594 					"/>
					<polygon style="fill:#6A6F8C;" points="247.654,181.787 250.057,178.452 246.188,176.192 243.799,179.527 					"/>
					<polygon style="fill:#DE171B;" points="224.862,174.3 227.177,170.984 221.621,167.724 219.327,171.041 					"/>
					<polygon style="fill:#6A6F8C;" points="229.729,177.165 232.061,173.85 228.258,171.618 225.939,174.934 					"/>
					<polygon style="fill:#6A6F8C;" points="234.683,180.082 237.033,176.768 233.214,174.527 230.878,177.842 					"/>
					<polygon style="fill:#6A6F8C;" points="239.657,183.011 242.026,179.697 238.191,177.447 235.837,180.761 					"/>
					<polygon style="fill:#6A6F8C;" points="244.653,185.952 247.04,182.639 243.189,180.38 240.816,183.693 					"/>
					<polygon style="fill:#007F24;" points="221.972,178.441 224.271,175.147 218.741,171.889 216.462,175.184 					"/>
					<polygon style="fill:#6A6F8C;" points="226.816,181.305 229.133,178.012 225.347,175.781 223.044,179.075 					"/>
					<polygon style="fill:#6A6F8C;" points="231.748,184.221 234.082,180.929 230.281,178.689 227.96,181.982 					"/>
					<polygon style="fill:#6A6F8C;" points="236.699,187.148 239.052,183.857 235.235,181.608 232.896,184.9 					"/>
					<polygon style="fill:#6A6F8C;" points="241.672,190.088 244.043,186.798 240.21,184.539 237.853,187.83 					"/>
					<polygon style="fill:#6A6F8C;" points="219.101,182.555 221.385,179.283 215.88,176.026 213.616,179.299 					"/>
					<polygon style="fill:#6A6F8C;" points="223.923,185.418 226.224,182.147 222.456,179.917 220.168,183.189 					"/>
					<polygon style="fill:#6A6F8C;" points="228.832,188.332 231.151,185.062 227.367,182.823 225.062,186.094 					"/>
					<polygon style="fill:#6A6F8C;" points="233.761,191.258 236.098,187.989 232.299,185.741 229.976,189.011 					"/>
					<polygon style="fill:#6A6F8C;" points="238.711,194.197 241.066,190.929 237.251,188.671 234.91,191.94 					"/>
				</g>
				<g>
					<polygon style="fill:#FFBF21;" points="227.366,169.878 229.694,166.54 224.115,163.28 221.807,166.619 					"/>
					<polygon style="fill:#7684AD;" points="232.253,172.744 234.599,169.406 230.78,167.174 228.447,170.513 					"/>
					<polygon style="fill:#7684AD;" points="237.228,175.661 239.593,172.324 235.758,170.083 233.407,173.42 					"/>
					<polygon style="fill:#7684AD;" points="242.224,178.59 244.607,175.254 240.756,173.003 238.387,176.34 					"/>
					<polygon style="fill:#7684AD;" points="247.241,181.531 249.642,178.196 245.775,175.936 243.388,179.272 					"/>
					<polygon style="fill:#FF1B1F;" points="224.458,174.048 226.771,170.732 221.217,167.473 218.924,170.79 					"/>
					<polygon style="fill:#7684AD;" points="229.322,176.912 231.653,173.597 227.851,171.366 225.534,174.682 					"/>
					<polygon style="fill:#7684AD;" points="234.275,179.828 236.624,176.514 232.806,174.273 230.471,177.589 					"/>
					<polygon style="fill:#7684AD;" points="239.248,182.756 241.615,179.442 237.781,177.193 235.428,180.507 					"/>
					<polygon style="fill:#7684AD;" points="244.242,185.696 246.627,182.383 242.777,180.125 240.406,183.438 					"/>
					<polygon style="fill:#00A02D;" points="221.569,178.19 223.867,174.895 218.339,171.638 216.061,174.933 					"/>
					<polygon style="fill:#7684AD;" points="226.412,181.053 228.727,177.759 224.942,175.529 222.641,178.823 					"/>
					<polygon style="fill:#7684AD;" points="231.342,183.967 233.675,180.675 229.875,178.436 227.555,181.729 					"/>
					<polygon style="fill:#7684AD;" points="236.292,186.894 238.643,183.602 234.827,181.354 232.49,184.646 					"/>
					<polygon style="fill:#7684AD;" points="241.262,189.832 243.632,186.542 239.8,184.284 237.445,187.575 					"/>
					<polygon style="fill:#7684AD;" points="218.7,182.304 220.982,179.031 215.479,175.775 213.217,179.049 					"/>
					<polygon style="fill:#7684AD;" points="223.521,185.165 225.82,181.894 222.053,179.665 219.767,182.937 					"/>
					<polygon style="fill:#7684AD;" points="228.428,188.079 230.746,184.808 226.963,182.57 224.659,185.841 					"/>
					<polygon style="fill:#7684AD;" points="233.356,191.004 235.691,187.735 231.893,185.487 229.571,188.757 					"/>
					<polygon style="fill:#7684AD;" points="238.303,193.941 240.657,190.673 236.843,188.416 234.503,191.685 					"/>
				</g>
			</g>
			<path style="fill:#A2ADDB;" d="M214.523,87.513c0,0-14.784,70.154-14.842,92.947l58.271,33.84l14.829-92.614L214.523,87.513z
				 M253.431,205.35l-48.13-27.95l11.4-71.393l48.157,27.966C264.859,133.974,253.536,177.357,253.431,205.35z"/>
			<path style="fill:#576EAB;" d="M257.74,298.556l43.839-25.163l0.426-168.482l-29.223,16.775c0,0-14.747,60.259-14.829,92.614
				C257.893,237.804,257.74,298.556,257.74,298.556z"/>
		</g>
		<g>
			<path style="opacity:0.15;fill:#5FA9D1;" d="M227.252,307.233c-0.017,6.593-13.32,11.904-29.714,11.863
				c-16.394-0.042-29.671-5.42-29.654-12.013c0.017-6.593,13.32-11.904,29.714-11.862
				C213.993,295.262,227.269,300.64,227.252,307.233z"/>
			<g>
				<g>
					<path style="fill:#90C5E8;" d="M195.111,292.161c-1.986-1.282-2.944-0.297-7.747,3.898c-3.581,3.128-4.75,3.252-6.185,4.507
						c-0.583,1.065-0.739,2.277-0.73,3.476c0.012,1.529-0.39,3.067,1.269,3.857c1.336,0.636,3.536,1.059,4.822,0.119
						c1.518-1.11,2.604-3.934,4.504-5.834C194.319,298.91,198.226,294.173,195.111,292.161z"/>
					<path style="fill:#B5DEFF;" d="M194.837,291.715c-1.986-1.282-2.667-0.955-7.469,3.241c-3.581,3.128-4.75,3.252-6.185,4.507
						c-0.583,1.066-0.739,2.277-0.73,3.476c0.012,1.529-0.39,3.067,1.269,3.857c1.336,0.636,3.536,1.059,4.822,0.118
						c1.518-1.11,2.604-3.934,4.504-5.834C194.322,297.806,197.952,293.727,194.837,291.715z"/>
					<path style="fill:#FF91AC;" d="M186.115,301.34c-0.868,0.295-2.448,0.637-3.93-0.055c-0.276-0.129-0.459-0.408-0.501-0.709
						c-0.132-0.942-0.348-3.138,0.092-5.396c1.316-0.882,5.734,0.014,5.734,0.014s0.193,3.197-0.485,5.27
						C186.886,300.886,186.535,301.198,186.115,301.34z"/>
					<path style="fill:#3173CC;" d="M182.322,208.377c1.888,0.253,16.456,6.166,16.456,6.166c-0.44,6.765-3.321,36.393-4.484,44.823
						c-1.105,8.014-3.883,36.698-3.883,36.698c-3.812,4.06-10.249,1.04-10.249,1.04s-1.473-32.661-0.36-42.077
						c0.511-4.32,0.765-8.081,1.192-12.32c0.366-3.634,1.042-7.788,0.038-11.047C177.736,220.957,180.145,214.421,182.322,208.377z"
						/>
					<g>
						<g>
							<path style="fill:none;stroke:#103663;stroke-width:0.8694;stroke-miterlimit:10;" d="M197.076,294.334"/>
						</g>
					</g>
				</g>
				<g>
					<g>
						<path style="fill:#B5DEFF;" d="M195.541,304.779c2.759,0.739,3.604,0.068,6.021-1.37c1.999,0.08,13.724-4.567,15.162-0.65
							c1.26,3.433-3.474,6.55-5.993,7.133c-5.498,1.274-9.582,3.968-11.789,4.409c-1.646,0.329-3.772,0.535-5.067-0.768
							C192.322,311.97,192.727,305.5,195.541,304.779z"/>
						<path style="fill:#FF91AC;" d="M200.398,306.928c-0.868,0.294-2.673,0.709-4.155,0.017c-0.276-0.129-0.459-0.408-0.501-0.709
							c-0.132-0.942-0.536-2.262-0.284-4.823c1.316-0.882,6.082-0.007,6.082-0.007s0.128,2.52-0.232,4.646
							C201.233,306.49,200.818,306.786,200.398,306.928z"/>
						<g>
							<path style="fill:#90C5E8;" d="M198.951,313.354c2.207-0.441,6.292-3.136,11.789-4.409c2.11-0.489,5.76-2.757,6.154-5.498
								c0.457,3.153-3.814,5.901-6.164,6.445c-5.498,1.274-9.582,3.968-11.789,4.409c-1.646,0.329-3.772,0.535-5.067-0.768
								c-0.3-0.302-0.534-0.761-0.706-1.317C195.059,313.821,197.305,313.683,198.951,313.354z"/>
						</g>
					</g>
					<path style="fill:#3B81E3;" d="M185.549,210.95c1.888,0.253,24.317,4.101,24.317,4.101c2.163,20.596-0.499,43.002-1.662,51.433
						c-1.105,8.014-3.88,35.257-3.88,35.257c-3.812,4.061-10.249,1.04-10.249,1.04s-1.476-31.221-0.364-40.637
						c1.037-8.769,0.048-21.416-4.61-29.063C185.508,227.183,184.55,218.488,185.549,210.95z"/>
					<g>
						<g>
							<path style="fill:none;stroke:#103663;stroke-width:0.8694;stroke-miterlimit:10;" d="M210.985,301.453"/>
						</g>
					</g>
				</g>
				<g>
					<path style="fill:#EB9399;" d="M178.249,191.033c0.915-3.294,2.365-6.624,3.943-9.629c0.912-2.736,7.342-8.804,8.193-9.411
						l1.9-13.148c0,0-6.004-5.749-13.183,6.256c-5.768,9.645-9.551,20.968-10.727,25.94c-0.307,1.295-0.34,2.934,0.984,4.819
						c2.619,3.73,7.415,7.96,16.204,9.504l0.431-7.054C184.93,197.725,177.699,193.011,178.249,191.033z"/>
					<path style="fill:#27A7D9;" d="M188.866,182.508l3.42-23.663c0,0-6.004-5.749-13.183,6.256
						c-1.433,2.396-2.743,4.896-3.921,7.376C179.092,176.442,183.829,179.654,188.866,182.508z"/>
				</g>
				<g>
					<path style="fill:#2EC4FF;" d="M209.783,218.57c4.968-19.615,6.02-47.742,3.303-50.131c-4.366-3.839-9.663-6.826-14.99-9
						c-3.41-1.392-7.083-2.287-10.331-1.468c-3.486,0.88-5.823,6.841-6.064,10.427c-0.512,7.62-2.448,24.068-0.727,43.659
						C189.209,221.358,197.215,223.195,209.783,218.57z"/>
					<path style="fill:#FFA0A6;" d="M189.501,137.632c1.891-3.427,5.442-5.428,9.587-5.189c3.697,0.213,7.658,2.149,8.873,5.876
						c1.583,4.851,3.189,10.813,0.739,15.518C200.735,169.133,186.482,143.104,189.501,137.632z"/>
					<path style="fill:#EB9399;" d="M194.628,151.58c0.015-0.361,0.264-0.62,0.476-0.419c1.653,1.564,6.036,1.439,6.033,1.807
						c0,0,0.731,7.895,0.719,9.471c-2.955,3.08-7.7,2.907-7.845-0.16C193.836,158.569,194.53,153.868,194.628,151.58z"/>
					<path style="fill:#0D3C6E;" d="M200.908,148.698c-0.622-0.839-1.709-1.377-2.732-1.317c-1.148,0.067-2.261,1.156-1.89,2.357
						c0.499,1.615,2.851,2.29,4.568,1.837c-0.02,1.148-0.036,2.039-0.042,2.243c-0.011,0.363-0.06,0.747-0.184,1.097
						c-2.396,1.379-5.517,2.07-8.31,1.54c-0.221-0.342-0.417-0.693-0.594-0.974c-0.699-1.11-1.588-2.083-2.452-3.064
						c-0.854-0.97-1.516-1.863-2.056-3.04c-1.018-2.217-1.548-4.682-1.49-7.123c0.032-1.325,0.241-2.653,0.681-3.906
						c0.364-1.038,0.907-2.013,1.614-2.857c2.29-2.737,5.905-4.747,9.556-4.387c0.039,0.004,0.067,0.02,0.101,0.031
						c-0.732,0.032,6.121-1.296,11.365-1.578c4.253-0.229,2.343,3.33,1.395,7.842c-0.9,4.28-5.259,6.686-9.398,7.033
						C201.001,144.434,200.951,146.501,200.908,148.698z"/>
				</g>
				<g>
					<g>
						<path style="fill:#FFA0A6;" d="M213.842,169.862l0.65,31.778l18.5-9.859c0,0,4.528-0.101,3.344,4.262
							c-9.711,8.919-17.563,15.663-24.134,18.211c-2.07,0.803-4.355-0.45-4.809-2.623l-5.318-32.465c0,0-0.504-4.706,3.324-9.325
							C209.226,165.222,213.842,169.862,213.842,169.862z"/>
					</g>
					<g>
						<path style="fill:#FFA0A6;" d="M233.195,193.161l1.162,2.405c0.511,0.824,0.814,0.875,2.391,0.461l2.252-1.126l1.991-1.461
							c1.561-1.12,0.466-1.613-0.06-2.256l-2.217-2.709c-0.483-0.59-0.947-1.29-1.56-0.835l-3.511,3.174
							C232.906,191.36,232.711,192.381,233.195,193.161z"/>
						<g>
							<path style="fill:#FFA0A6;" d="M247.394,191.551c-1.249,0.111-2.547,0.315-3.748,0.641c-0.602,0.163-1.192,0.353-1.722,0.598
								c-0.528,0.24-1.017,0.53-1.334,0.848c-0.459,0.459-1.203,0.46-1.663,0.001c-0.46-0.459-0.46-1.203-0.001-1.663
								c0.033-0.033,0.068-0.064,0.103-0.092l0.02-0.016c0.695-0.542,1.413-0.836,2.113-1.073c0.703-0.235,1.398-0.376,2.088-0.486
								c1.387-0.217,2.73-0.284,4.122-0.261c0.415,0.007,0.746,0.349,0.739,0.764c-0.007,0.387-0.304,0.701-0.681,0.736
								L247.394,191.551z"/>
						</g>
						<g>
							<path style="fill:#FFA0A6;" d="M247.567,188.835c-0.645,0.045-1.35,0.15-2.011,0.287c-0.667,0.14-1.323,0.318-1.948,0.545
								c-1.248,0.453-2.376,1.127-3.093,2.007c-0.408,0.504-1.148,0.582-1.652,0.174c-0.504-0.408-0.582-1.148-0.174-1.652
								c0.026-0.033,0.058-0.067,0.087-0.096c1.252-1.24,2.782-1.885,4.268-2.273c0.749-0.192,1.5-0.317,2.251-0.399
								c0.758-0.078,1.485-0.119,2.276-0.096c0.415,0.012,0.741,0.358,0.729,0.773c-0.011,0.389-0.316,0.7-0.696,0.728
								L247.567,188.835z"/>
						</g>
						<g>
							<path style="fill:#FFA0A6;" d="M246.804,187.314c-0.645,0.045-1.35,0.15-2.011,0.287c-0.667,0.14-1.323,0.318-1.948,0.545
								c-1.248,0.453-2.376,1.127-3.093,2.007c-0.408,0.504-1.148,0.582-1.652,0.174c-0.504-0.408-0.582-1.148-0.174-1.652
								c0.026-0.033,0.058-0.067,0.087-0.096c1.253-1.24,2.782-1.885,4.268-2.273c0.749-0.192,1.5-0.316,2.251-0.399
								c0.758-0.078,1.485-0.119,2.276-0.096c0.415,0.012,0.741,0.358,0.729,0.773c-0.011,0.389-0.316,0.7-0.696,0.728
								L246.804,187.314z"/>
						</g>
						<g>
							<path style="fill:#FFA0A6;" d="M244.57,186.019c-0.626,0.161-1.301,0.392-1.926,0.646c-0.631,0.259-1.244,0.552-1.818,0.888
								c-1.145,0.671-2.133,1.538-2.679,2.533c-0.31,0.57-1.023,0.78-1.593,0.47c-0.57-0.31-0.78-1.023-0.47-1.593
								c0.02-0.037,0.045-0.076,0.068-0.11c1.008-1.446,2.396-2.357,3.787-3.007c0.702-0.324,1.419-0.583,2.142-0.799
								c0.732-0.214,1.439-0.385,2.221-0.506c0.41-0.063,0.794,0.218,0.857,0.628c0.059,0.384-0.184,0.745-0.552,0.841
								L244.57,186.019z"/>
						</g>
						<g>
							<path style="fill:#FFA0A6;" d="M233.308,190.981c-0.015-0.354,0.021-0.454,0.049-0.653c0.034-0.171,0.073-0.335,0.124-0.487
								c0.095-0.311,0.226-0.589,0.365-0.855c0.286-0.527,0.646-0.967,1.029-1.35c0.38-0.39,0.804-0.694,1.224-0.98
								c0.427-0.273,0.866-0.502,1.306-0.708c0.352-0.164,0.77-0.013,0.935,0.339c0.134,0.287,0.057,0.619-0.167,0.821l-0.025,0.022
								c-0.32,0.286-0.621,0.581-0.887,0.891c-0.254,0.317-0.496,0.633-0.663,0.967c-0.174,0.329-0.301,0.661-0.356,0.975
								c-0.024,0.156-0.042,0.307-0.033,0.441c0,0.068,0.011,0.13,0.021,0.183c0.009,0.027,0.034,0.153,0.039,0.025
								c0.102,0.818-0.478,1.563-1.296,1.665C234.156,192.379,233.41,191.799,233.308,190.981z"/>
						</g>
					</g>
					<g>
						<path style="fill:#2EC4FF;" d="M203.774,189.541c1.839-0.71,8.412-2.461,10.757-3.539l-0.69-16.14
							c0,0-4.616-4.641-8.443-0.021c-3.827,4.619-3.324,9.325-3.324,9.325L203.774,189.541z"/>
					</g>
				</g>
			</g>
		</g>
		<g>
			<polygon style="opacity:0.15;fill:#5FA9D1;" points="343.366,373.581 336.795,377.374 253.254,328.922 259.834,325.134 			"/>
			<polygon style="opacity:0.15;fill:#5FA9D1;" points="402.659,385.634 396.089,389.428 312.548,340.976 319.127,337.188 			"/>
			<g>
				<g>
					<path style="fill:#CB9D93;" d="M401.513,313.904l-80.491-46.707c-0.889-0.516-1.89-0.441-2.664,0.018l-0.003-0.002l-3.094,2.05
						l1.764,1.392l0.04-0.029l-0.164,64.959c-0.002,0.941,0.498,1.812,1.312,2.284l79.224,45.916l2.332,3.376l2.666-1.799
						l-0.004-0.014c0.862-0.411,1.507-1.264,1.509-2.355l0.163-64.578C404.109,316.557,403.121,314.836,401.513,313.904z"/>
					<path style="fill:#FFDCBA;" d="M315.315,339.793l81.775,47.394c1.752,1.015,3.946-0.245,3.952-2.27l0.163-64.578
						c0.005-1.859-0.983-3.579-2.591-4.513l-80.491-46.706c-1.752-1.017-3.948,0.244-3.953,2.27l-0.167,66.119
						C314,338.45,314.5,339.321,315.315,339.793z"/>
					<path style="fill:#E5AB4A;" d="M319.073,290.264l15.049,8.722c0.322,0.187,0.726-0.045,0.727-0.418l0.03-11.884
						c0.001-0.342-0.181-0.659-0.477-0.83l-14.813-8.595c-0.322-0.187-0.726,0.045-0.727,0.418l-0.031,12.168
						C318.831,290.017,318.923,290.177,319.073,290.264z"/>
					<polygon style="fill:#4B8CB7;" points="323.845,309.336 387.803,347.274 387.818,341.589 323.859,303.64 					"/>
					<polygon style="fill:#4B8CB7;" points="346.702,333.821 363.404,343.744 363.418,338.059 346.716,328.125 					"/>
					<polygon style="fill:#4B8CB7;" points="378.878,319.133 395.58,329.055 395.595,323.371 378.892,313.437 					"/>
				</g>
				<g>
					<path style="fill:#CB9D93;" d="M343.028,301.651l-80.491-46.706c-0.889-0.516-1.89-0.441-2.664,0.018l-0.003-0.002
						l-3.093,2.049l1.764,1.393l0.04-0.029l-0.164,64.959c-0.002,0.941,0.498,1.812,1.312,2.284l79.224,45.916l2.332,3.376
						l2.666-1.799l-0.004-0.014c0.862-0.411,1.507-1.264,1.509-2.355l0.163-64.578C345.624,304.304,344.636,302.584,343.028,301.651
						z"/>
					<path style="fill:#FFDCBA;" d="M256.829,327.54l81.775,47.394c1.752,1.015,3.946-0.246,3.952-2.271l0.163-64.578
						c0.005-1.859-0.983-3.579-2.591-4.512l-80.491-46.707c-1.752-1.017-3.948,0.244-3.953,2.27l-0.167,66.119
						C255.514,326.198,256.014,327.068,256.829,327.54z"/>
					<path style="fill:#E5AB4A;" d="M260.587,278.011l15.049,8.722c0.322,0.187,0.726-0.045,0.727-0.418l0.03-11.884
						c0.001-0.342-0.181-0.659-0.477-0.831l-14.813-8.595c-0.323-0.187-0.727,0.045-0.728,0.418l-0.031,12.168
						C260.345,277.764,260.437,277.924,260.587,278.011z"/>
					<polygon style="fill:#4B8CB7;" points="265.359,297.083 329.318,335.021 329.332,329.336 265.373,291.388 					"/>
					<polygon style="fill:#4B8CB7;" points="288.216,321.569 304.918,331.491 304.933,325.807 288.23,315.873 					"/>
					<polygon style="fill:#4B8CB7;" points="320.392,306.88 337.094,316.803 337.109,311.118 320.407,301.184 					"/>
				</g>
			</g>
		</g>
		<g>
			<g>
				<g>
					<g>
						<g>
							<path style="fill:#FFBE1D;" d="M216.484,383.816c-10.143,5.819-26.558,5.778-36.669-0.093
								c-10.111-5.876-10.087-15.35,0.053-21.174c10.141-5.813,26.556-5.772,36.669,0.093
								C226.649,368.517,226.625,377.991,216.484,383.816z"/>
							<path style="fill:#FFCF59;" d="M216.493,380.166c-10.143,5.825-26.558,5.783-36.669-0.093
								c-10.111-5.872-10.087-15.35,0.054-21.171c10.141-5.821,26.556-5.779,36.669,0.093
								C226.658,364.867,226.634,374.345,216.493,380.166z"/>
							<path style="fill:#FFE045;" d="M198.157,380.85c-5.618-0.014-11.092-1.329-15.019-3.61c-3.649-2.12-5.738-4.948-5.731-7.758
								c0.007-2.811,2.111-5.627,5.77-7.727c3.936-2.259,9.417-3.547,15.036-3.532c5.621,0.014,11.095,1.329,15.02,3.608
								c3.649,2.119,5.738,4.945,5.731,7.756c-0.007,2.811-2.111,5.627-5.77,7.727C209.258,379.575,203.776,380.864,198.157,380.85z
								"/>
							<path style="fill:#D9A823;" d="M178.526,370.682c0.007-2.811,2.111-5.627,5.77-7.727c3.936-2.259,9.417-3.547,15.037-3.532
								c5.621,0.014,11.095,1.329,15.02,3.608c1.112,0.646,2.059,1.362,2.866,2.119c-0.967-1.208-2.301-2.34-3.985-3.318
								c-3.925-2.279-9.399-3.594-15.02-3.608c-5.619-0.014-11.1,1.273-15.036,3.532c-3.659,2.1-5.763,4.915-5.77,7.727
								c-0.005,1.954,1.024,3.912,2.867,5.639C179.145,373.711,178.522,372.195,178.526,370.682z"/>
						</g>
						<g>
							<g>
								<path style="fill:#C28702;" d="M190.94,376.297l-2.891,1.97l-2.098-1.378l2.787-1.845c-1.857-1.328-2.942-2.929-2.943-4.189
									l0.002-0.831l3.902-0.365c0.119,1.083,0.929,2.303,2.252,3.257l3.894-2.578c-1.709-1.581-3.353-3.337-0.301-5.237
									c2.179-1.357,5.544-1.842,9.247-0.686l2.165-1.434l2.249,0.046l-0.002,0.831l-2.133,1.453
									c1.371,0.677,3.631,2.067,3.631,2.067l-0.002,0.831l-3.8,1.302c-0.616-0.986-1.485-1.779-2.511-2.373l-3.627,2.47
									c1.995,1.646,4.143,3.719,0.861,6.121C199.09,377.582,194.986,378.132,190.94,376.297z M199.098,368.183l3.001-1.987
									c-1.388-0.343-2.436-0.149-3.126,0.299C198.231,366.977,198.459,367.539,199.098,368.183z M197.476,373.839
									c0.825-0.574,0.603-1.233-0.018-1.982l-3.255,2.217C195.586,374.524,196.713,374.371,197.476,373.839z"/>
							</g>
							<g>
								<path style="fill:#FFC129;" d="M190.942,375.466l-2.891,1.97l-2.098-1.378l2.787-1.845
									c-1.857-1.328-2.942-2.929-2.943-4.189l3.904-1.196c0.119,1.083,0.928,2.303,2.252,3.257l3.894-2.578
									c-1.709-1.581-3.353-3.337-0.301-5.238c2.179-1.357,5.544-1.842,9.247-0.686l2.165-1.434l2.247,0.877l-2.133,1.453
									c1.625,0.803,2.98,1.814,3.629,2.898l-3.8,1.302c-0.616-0.986-1.485-1.778-2.511-2.373l-3.627,2.47
									c1.995,1.646,4.143,3.719,0.861,6.121C199.092,376.751,194.989,377.301,190.942,375.466z M199.1,367.352l3.001-1.987
									c-1.388-0.343-2.436-0.149-3.126,0.299C198.233,366.146,198.461,366.708,199.1,367.352z M197.478,373.008
									c0.825-0.574,0.603-1.233-0.018-1.982l-3.255,2.217C195.589,373.693,196.715,373.539,197.478,373.008z"/>
							</g>
						</g>
					</g>
				</g>
				<g>
					<g>
						<g>
							<path style="fill:#FFBE1D;" d="M216.499,378.026c-10.143,5.819-26.558,5.778-36.669-0.093
								c-10.111-5.876-10.087-15.35,0.053-21.174c10.141-5.813,26.556-5.772,36.669,0.093
								C226.663,362.727,226.64,372.201,216.499,378.026z"/>
							<path style="fill:#FFCF59;" d="M216.508,374.376c-10.143,5.824-26.558,5.783-36.669-0.093
								c-10.111-5.872-10.087-15.35,0.053-21.171c10.141-5.821,26.556-5.779,36.669,0.093
								C226.673,359.077,226.649,368.555,216.508,374.376z"/>
							<path style="fill:#FFE045;" d="M198.172,375.059c-5.618-0.014-11.092-1.329-15.018-3.61c-3.649-2.12-5.738-4.948-5.731-7.758
								c0.007-2.811,2.111-5.627,5.77-7.727c3.936-2.259,9.417-3.547,15.036-3.532c5.621,0.014,11.095,1.329,15.02,3.608
								c3.649,2.119,5.738,4.945,5.731,7.756c-0.007,2.811-2.111,5.627-5.77,7.727C209.273,373.784,203.791,375.073,198.172,375.059
								z"/>
							<path style="fill:#D9A823;" d="M178.541,364.891c0.007-2.811,2.111-5.627,5.77-7.727c3.936-2.259,9.417-3.547,15.036-3.532
								c5.621,0.014,11.095,1.329,15.02,3.608c1.112,0.646,2.059,1.362,2.866,2.119c-0.967-1.208-2.301-2.34-3.985-3.318
								c-3.925-2.279-9.399-3.594-15.02-3.608c-5.619-0.014-11.1,1.273-15.036,3.532c-3.659,2.1-5.763,4.915-5.77,7.727
								c-0.005,1.954,1.024,3.912,2.867,5.639C179.16,367.92,178.537,366.405,178.541,364.891z"/>
						</g>
						<g>
							<g>
								<path style="fill:#C28702;" d="M190.955,370.506l-2.891,1.97l-2.098-1.378l2.787-1.845
									c-1.857-1.328-2.942-2.929-2.943-4.189l0.002-0.831l3.902-0.365c0.119,1.083,0.928,2.303,2.252,3.257l3.894-2.578
									c-1.709-1.581-3.353-3.337-0.301-5.237c2.179-1.357,5.544-1.842,9.248-0.686l2.165-1.434l2.249,0.046l-0.002,0.831
									l-2.133,1.453c1.371,0.677,3.631,2.067,3.631,2.067l-0.002,0.831l-3.8,1.302c-0.616-0.986-1.485-1.778-2.511-2.373
									l-3.627,2.47c1.995,1.646,4.143,3.719,0.861,6.121C199.104,371.792,195.001,372.342,190.955,370.506z M199.112,362.393
									l3.001-1.987c-1.388-0.343-2.436-0.149-3.126,0.299C198.246,361.186,198.473,361.748,199.112,362.393z M197.491,368.049
									c0.825-0.574,0.603-1.233-0.018-1.982l-3.255,2.217C195.601,368.734,196.728,368.58,197.491,368.049z"/>
							</g>
							<g>
								<path style="fill:#FFC129;" d="M190.957,369.675l-2.891,1.97l-2.098-1.378l2.787-1.845
									c-1.857-1.328-2.942-2.929-2.943-4.189l3.904-1.196c0.119,1.083,0.928,2.303,2.252,3.257l3.894-2.578
									c-1.709-1.581-3.353-3.337-0.302-5.238c2.179-1.357,5.544-1.842,9.248-0.686l2.165-1.434l2.247,0.877l-2.133,1.453
									c1.625,0.803,2.98,1.814,3.629,2.898l-3.8,1.302c-0.616-0.986-1.485-1.778-2.511-2.373l-3.627,2.47
									c1.995,1.646,4.143,3.719,0.861,6.121C199.106,370.961,195.003,371.511,190.957,369.675z M199.115,361.562l3.001-1.987
									c-1.388-0.343-2.436-0.149-3.126,0.3C198.248,360.355,198.476,360.917,199.115,361.562z M197.493,367.218
									c0.825-0.574,0.603-1.233-0.018-1.982l-3.255,2.217C195.603,367.903,196.73,367.749,197.493,367.218z"/>
							</g>
						</g>
					</g>
				</g>
				<g>
					<g>
						<g>
							<path style="fill:#FFBE1D;" d="M216.513,372.235c-10.143,5.819-26.558,5.778-36.669-0.093
								c-10.111-5.876-10.087-15.35,0.054-21.174c10.14-5.813,26.556-5.772,36.669,0.093
								C226.678,356.936,226.654,366.411,216.513,372.235z"/>
							<path style="fill:#FFCF59;" d="M216.523,368.585c-10.143,5.824-26.558,5.783-36.669-0.093
								c-10.111-5.872-10.087-15.35,0.054-21.171c10.141-5.821,26.556-5.779,36.669,0.093
								C226.687,353.286,226.663,362.764,216.523,368.585z"/>
							<path style="fill:#FFE045;" d="M198.186,369.269c-5.618-0.014-11.092-1.329-15.018-3.61c-3.649-2.12-5.738-4.948-5.731-7.757
								c0.007-2.811,2.111-5.627,5.77-7.727c3.937-2.259,9.417-3.546,15.036-3.532c5.621,0.014,11.095,1.329,15.02,3.608
								c3.649,2.119,5.738,4.945,5.731,7.756c-0.007,2.811-2.111,5.627-5.77,7.727C209.288,367.994,203.806,369.283,198.186,369.269
								z"/>
							<path style="fill:#D9A823;" d="M178.555,359.101c0.007-2.811,2.111-5.627,5.77-7.727c3.936-2.259,9.417-3.547,15.036-3.532
								c5.621,0.014,11.095,1.329,15.02,3.608c1.112,0.646,2.059,1.362,2.866,2.119c-0.967-1.208-2.301-2.34-3.985-3.318
								c-3.925-2.279-9.399-3.594-15.02-3.608c-5.619-0.014-11.1,1.273-15.036,3.532c-3.659,2.1-5.763,4.915-5.77,7.727
								c-0.005,1.954,1.024,3.912,2.867,5.639C179.174,362.13,178.551,360.615,178.555,359.101z"/>
						</g>
						<g>
							<g>
								<path style="fill:#C28702;" d="M190.969,364.716l-2.891,1.97l-2.098-1.378l2.786-1.845
									c-1.857-1.328-2.942-2.929-2.943-4.189l0.002-0.831l3.902-0.365c0.119,1.083,0.928,2.303,2.252,3.257l3.894-2.578
									c-1.709-1.581-3.353-3.337-0.301-5.238c2.179-1.357,5.544-1.842,9.247-0.686l2.165-1.434l2.249,0.046l-0.002,0.831
									l-2.133,1.453c1.371,0.677,3.631,2.067,3.631,2.067l-0.002,0.831l-3.8,1.302c-0.616-0.986-1.485-1.779-2.511-2.373
									l-3.627,2.47c1.995,1.646,4.143,3.719,0.861,6.121C199.119,366.001,195.016,366.551,190.969,364.716z M199.127,356.602
									l3.001-1.987c-1.388-0.343-2.436-0.149-3.126,0.299C198.261,355.396,198.488,355.958,199.127,356.602z M197.505,362.259
									c0.825-0.574,0.603-1.233-0.018-1.982l-3.255,2.217C195.616,362.943,196.742,362.79,197.505,362.259z"/>
							</g>
							<g>
								<path style="fill:#FFC129;" d="M190.972,363.885l-2.891,1.97l-2.098-1.378l2.786-1.845
									c-1.857-1.328-2.942-2.929-2.943-4.189l3.904-1.196c0.119,1.083,0.928,2.303,2.252,3.257l3.894-2.578
									c-1.709-1.581-3.353-3.337-0.301-5.238c2.179-1.357,5.544-1.842,9.247-0.686l2.165-1.434l2.247,0.877l-2.133,1.453
									c1.625,0.803,2.98,1.814,3.629,2.898l-3.8,1.302c-0.616-0.986-1.485-1.778-2.511-2.373l-3.627,2.47
									c1.995,1.646,4.143,3.719,0.861,6.121C199.121,365.17,195.018,365.72,190.972,363.885z M199.129,355.771l3.001-1.987
									c-1.388-0.343-2.436-0.149-3.126,0.299C198.263,354.565,198.49,355.127,199.129,355.771z M197.507,361.428
									c0.825-0.574,0.603-1.233-0.018-1.982l-3.255,2.217C195.618,362.112,196.744,361.959,197.507,361.428z"/>
							</g>
						</g>
					</g>
				</g>
				<g>
					<g>
						<g>
							<path style="fill:#FFBE1D;" d="M216.528,366.445c-10.143,5.819-26.558,5.778-36.669-0.093
								c-10.111-5.876-10.087-15.35,0.053-21.174c10.141-5.814,26.556-5.772,36.669,0.093
								C226.693,351.146,226.669,360.62,216.528,366.445z"/>
							<path style="fill:#FFCF59;" d="M216.537,362.795c-10.143,5.824-26.558,5.783-36.669-0.093
								c-10.111-5.872-10.087-15.35,0.053-21.171c10.141-5.821,26.556-5.779,36.669,0.093
								C226.702,347.496,226.678,356.974,216.537,362.795z"/>
							<path style="fill:#FFE045;" d="M198.201,363.478c-5.618-0.014-11.092-1.329-15.019-3.61c-3.649-2.12-5.738-4.948-5.731-7.757
								c0.007-2.811,2.111-5.627,5.77-7.727c3.937-2.259,9.417-3.546,15.036-3.532c5.621,0.014,11.095,1.329,15.02,3.608
								c3.649,2.119,5.738,4.945,5.731,7.756c-0.007,2.811-2.111,5.627-5.77,7.727C209.302,362.204,203.82,363.493,198.201,363.478z
								"/>
							<path style="fill:#D9A823;" d="M178.57,353.31c0.007-2.811,2.111-5.627,5.77-7.727c3.936-2.259,9.417-3.547,15.036-3.532
								c5.621,0.014,11.095,1.329,15.02,3.608c1.112,0.646,2.059,1.363,2.866,2.119c-0.967-1.208-2.301-2.341-3.985-3.318
								c-3.925-2.279-9.399-3.594-15.02-3.608c-5.619-0.014-11.1,1.273-15.036,3.532c-3.659,2.1-5.763,4.916-5.77,7.727
								c-0.005,1.954,1.024,3.912,2.867,5.639C179.189,356.339,178.566,354.824,178.57,353.31z"/>
						</g>
						<g>
							<g>
								<path style="fill:#C28702;" d="M190.984,358.926l-2.891,1.97l-2.098-1.378l2.786-1.845
									c-1.857-1.328-2.942-2.929-2.943-4.189l0.002-0.831l3.902-0.365c0.119,1.083,0.928,2.303,2.252,3.257l3.894-2.578
									c-1.709-1.581-3.353-3.337-0.301-5.238c2.179-1.357,5.544-1.842,9.247-0.686l2.165-1.434l2.249,0.046l-0.002,0.831
									l-2.133,1.453c1.371,0.677,3.631,2.067,3.631,2.067l-0.002,0.831l-3.8,1.302c-0.616-0.986-1.485-1.779-2.511-2.373
									l-3.627,2.47c1.995,1.646,4.143,3.719,0.861,6.121C199.134,360.211,195.03,360.761,190.984,358.926z M199.142,350.812
									l3.001-1.987c-1.388-0.343-2.436-0.149-3.126,0.299C198.275,349.605,198.503,350.167,199.142,350.812z M197.52,356.468
									c0.825-0.574,0.603-1.233-0.019-1.982l-3.255,2.217C195.63,357.153,196.757,356.999,197.52,356.468z"/>
							</g>
							<g>
								<path style="fill:#FFC129;" d="M190.986,358.095l-2.891,1.97l-2.098-1.378l2.786-1.845
									c-1.857-1.328-2.942-2.929-2.943-4.189l3.904-1.196c0.119,1.083,0.928,2.303,2.252,3.257l3.894-2.578
									c-1.709-1.581-3.353-3.337-0.301-5.238c2.179-1.357,5.544-1.842,9.247-0.686l2.165-1.434l2.247,0.877l-2.133,1.453
									c1.625,0.803,2.98,1.814,3.629,2.898l-3.8,1.302c-0.616-0.986-1.485-1.778-2.511-2.373l-3.627,2.47
									c1.995,1.646,4.143,3.719,0.861,6.121C199.136,359.38,195.032,359.93,190.986,358.095z M199.144,349.981l3.001-1.987
									c-1.388-0.343-2.436-0.149-3.126,0.299C198.277,348.775,198.505,349.336,199.144,349.981z M197.522,355.637
									c0.825-0.574,0.603-1.233-0.019-1.982l-3.255,2.217C195.632,356.322,196.759,356.168,197.522,355.637z"/>
							</g>
						</g>
					</g>
				</g>
			</g>
			<g>
				<g>
					<g>
						<g>
							<path style="fill:#FFBE1D;" d="M256.032,394.691c-10.143,5.819-26.558,5.778-36.669-0.093
								c-10.111-5.876-10.087-15.35,0.053-21.174c10.141-5.813,26.556-5.772,36.669,0.093
								C266.197,379.392,266.173,388.867,256.032,394.691z"/>
							<path style="fill:#FFCF59;" d="M256.041,391.041c-10.143,5.824-26.558,5.783-36.669-0.093
								c-10.111-5.872-10.087-15.35,0.053-21.171c10.141-5.821,26.556-5.779,36.669,0.093
								C266.206,375.743,266.182,385.221,256.041,391.041z"/>
							<path style="fill:#FFE045;" d="M237.705,391.725c-5.618-0.014-11.092-1.329-15.018-3.61c-3.649-2.12-5.738-4.948-5.731-7.758
								c0.007-2.811,2.111-5.627,5.77-7.727c3.936-2.259,9.417-3.547,15.036-3.532c5.621,0.014,11.095,1.329,15.02,3.608
								c3.649,2.119,5.738,4.945,5.731,7.756c-0.007,2.811-2.111,5.627-5.77,7.727C248.806,390.45,243.324,391.739,237.705,391.725z
								"/>
							<path style="fill:#D9A823;" d="M218.074,381.557c0.007-2.811,2.111-5.627,5.77-7.727c3.936-2.259,9.417-3.547,15.037-3.532
								c5.621,0.014,11.095,1.329,15.02,3.608c1.112,0.646,2.059,1.362,2.866,2.119c-0.967-1.208-2.301-2.34-3.985-3.318
								c-3.925-2.279-9.399-3.594-15.02-3.608c-5.62-0.014-11.1,1.273-15.036,3.532c-3.659,2.1-5.763,4.915-5.77,7.727
								c-0.005,1.954,1.024,3.912,2.867,5.639C218.693,384.586,218.07,383.071,218.074,381.557z"/>
						</g>
						<g>
							<g>
								<path style="fill:#C28702;" d="M230.488,387.172l-2.891,1.97l-2.098-1.378l2.787-1.845
									c-1.857-1.328-2.942-2.929-2.943-4.189l0.002-0.831l3.902-0.365c0.119,1.083,0.928,2.303,2.252,3.257l3.894-2.578
									c-1.709-1.581-3.353-3.337-0.301-5.238c2.179-1.357,5.544-1.842,9.248-0.686l2.165-1.434l2.249,0.046l-0.002,0.831
									l-2.133,1.453c1.371,0.677,3.631,2.067,3.631,2.067l-0.002,0.831l-3.8,1.302c-0.616-0.986-1.485-1.778-2.511-2.373
									l-3.627,2.47c1.995,1.646,4.143,3.719,0.861,6.121C238.637,388.457,234.534,389.008,230.488,387.172z M238.646,379.059
									l3.001-1.987c-1.388-0.343-2.436-0.149-3.126,0.299C237.779,377.852,238.007,378.414,238.646,379.059z M237.024,384.715
									c0.825-0.574,0.603-1.233-0.018-1.982l-3.255,2.217C235.134,385.399,236.261,385.246,237.024,384.715z"/>
							</g>
							<g>
								<path style="fill:#FFC129;" d="M230.49,386.341l-2.891,1.97l-2.098-1.378l2.787-1.845c-1.857-1.328-2.942-2.929-2.943-4.189
									l3.904-1.196c0.119,1.083,0.928,2.303,2.252,3.257l3.894-2.578c-1.709-1.581-3.353-3.337-0.301-5.237
									c2.179-1.357,5.544-1.842,9.248-0.686l2.165-1.434l2.247,0.877l-2.133,1.453c1.625,0.803,2.98,1.814,3.629,2.898l-3.8,1.302
									c-0.616-0.986-1.485-1.779-2.511-2.373l-3.627,2.47c1.995,1.646,4.143,3.719,0.861,6.121
									C238.64,387.626,234.536,388.177,230.49,386.341z M238.648,378.228l3.001-1.987c-1.388-0.343-2.436-0.149-3.126,0.299
									C237.781,377.021,238.009,377.583,238.648,378.228z M237.026,383.884c0.825-0.574,0.603-1.233-0.018-1.982l-3.255,2.217
									C235.136,384.568,236.263,384.415,237.026,383.884z"/>
							</g>
						</g>
					</g>
				</g>
				<g>
					<g>
						<g>
							<path style="fill:#FFBE1D;" d="M256.047,388.901c-10.143,5.819-26.558,5.778-36.669-0.093
								c-10.111-5.876-10.087-15.35,0.053-21.174c10.141-5.813,26.556-5.772,36.669,0.093
								C266.211,373.602,266.187,383.076,256.047,388.901z"/>
							<path style="fill:#FFCF59;" d="M256.056,385.251c-10.142,5.825-26.558,5.783-36.669-0.093
								c-10.111-5.872-10.087-15.35,0.053-21.171c10.141-5.821,26.556-5.779,36.669,0.093
								C266.22,369.952,266.197,379.43,256.056,385.251z"/>
							<path style="fill:#FFE045;" d="M237.719,385.935c-5.618-0.014-11.092-1.329-15.018-3.61c-3.649-2.12-5.738-4.948-5.731-7.758
								c0.007-2.811,2.111-5.627,5.77-7.727c3.936-2.259,9.417-3.547,15.036-3.532c5.621,0.014,11.095,1.329,15.02,3.608
								c3.649,2.119,5.738,4.945,5.731,7.756c-0.007,2.811-2.111,5.627-5.77,7.727C248.821,384.66,243.339,385.949,237.719,385.935z
								"/>
							<path style="fill:#D9A823;" d="M218.089,375.767c0.007-2.811,2.111-5.627,5.77-7.727c3.936-2.259,9.417-3.547,15.036-3.532
								c5.621,0.014,11.095,1.329,15.02,3.608c1.112,0.646,2.059,1.362,2.866,2.119c-0.967-1.208-2.301-2.34-3.985-3.318
								c-3.925-2.279-9.399-3.594-15.02-3.608c-5.62-0.014-11.1,1.273-15.036,3.532c-3.659,2.1-5.763,4.915-5.77,7.727
								c-0.005,1.954,1.024,3.912,2.867,5.639C218.707,378.796,218.085,377.28,218.089,375.767z"/>
						</g>
						<g>
							<g>
								<path style="fill:#C28702;" d="M230.503,381.382l-2.891,1.97l-2.098-1.378l2.787-1.845
									c-1.857-1.328-2.942-2.929-2.943-4.189l0.002-0.831l3.902-0.365c0.119,1.083,0.929,2.303,2.252,3.257l3.894-2.578
									c-1.709-1.581-3.353-3.337-0.301-5.238c2.179-1.357,5.544-1.842,9.248-0.686l2.165-1.434l2.249,0.046l-0.002,0.831
									l-2.133,1.453c1.371,0.677,3.631,2.067,3.631,2.067l-0.002,0.831l-3.8,1.302c-0.616-0.986-1.485-1.778-2.511-2.373
									l-3.627,2.47c1.995,1.646,4.143,3.719,0.861,6.121C238.652,382.667,234.549,383.217,230.503,381.382z M238.66,373.268
									l3.001-1.987c-1.388-0.343-2.436-0.149-3.126,0.299C237.794,372.062,238.021,372.623,238.66,373.268z M237.038,378.924
									c0.825-0.574,0.603-1.233-0.018-1.982l-3.255,2.217C235.149,379.609,236.275,379.455,237.038,378.924z"/>
							</g>
							<g>
								<path style="fill:#FFC129;" d="M230.505,380.551l-2.891,1.97l-2.098-1.378l2.787-1.845
									c-1.857-1.328-2.942-2.929-2.943-4.189l3.904-1.196c0.119,1.083,0.928,2.303,2.252,3.257l3.894-2.578
									c-1.709-1.581-3.353-3.337-0.301-5.237c2.179-1.357,5.544-1.842,9.248-0.686l2.165-1.434l2.247,0.877l-2.133,1.453
									c1.625,0.803,2.98,1.814,3.629,2.898l-3.8,1.302c-0.616-0.986-1.485-1.779-2.511-2.373l-3.627,2.47
									c1.995,1.646,4.143,3.719,0.861,6.121C238.654,381.836,234.551,382.386,230.505,380.551z M238.662,372.437l3.001-1.987
									c-1.388-0.343-2.436-0.149-3.126,0.299C237.796,371.231,238.023,371.793,238.662,372.437z M237.04,378.093
									c0.825-0.574,0.603-1.233-0.018-1.982l-3.255,2.217C235.151,378.778,236.278,378.625,237.04,378.093z"/>
							</g>
						</g>
					</g>
				</g>
				<g>
					<g>
						<g>
							<path style="fill:#FFBE1D;" d="M256.061,383.111c-10.142,5.819-26.558,5.778-36.669-0.093
								c-10.111-5.876-10.087-15.35,0.053-21.174c10.141-5.813,26.556-5.772,36.669,0.093
								C266.226,367.812,266.202,377.286,256.061,383.111z"/>
							<path style="fill:#FFCF59;" d="M256.07,379.461c-10.143,5.824-26.558,5.783-36.669-0.093
								c-10.111-5.872-10.087-15.35,0.053-21.171c10.141-5.821,26.556-5.779,36.669,0.093
								C266.235,364.162,266.211,373.64,256.07,379.461z"/>
							<path style="fill:#FFE045;" d="M237.734,380.144c-5.618-0.014-11.092-1.329-15.019-3.61c-3.649-2.12-5.738-4.948-5.731-7.758
								c0.007-2.811,2.111-5.627,5.77-7.727c3.936-2.259,9.417-3.547,15.036-3.532c5.621,0.014,11.095,1.329,15.02,3.608
								c3.649,2.119,5.738,4.945,5.731,7.756c-0.007,2.811-2.111,5.627-5.77,7.727C248.835,378.869,243.354,380.159,237.734,380.144
								z"/>
							<path style="fill:#D9A823;" d="M218.103,369.976c0.007-2.811,2.111-5.627,5.77-7.727c3.936-2.259,9.417-3.547,15.036-3.532
								c5.621,0.014,11.095,1.329,15.02,3.608c1.112,0.646,2.059,1.363,2.866,2.119c-0.967-1.208-2.301-2.341-3.985-3.318
								c-3.925-2.279-9.399-3.594-15.02-3.608c-5.619-0.014-11.1,1.273-15.036,3.532c-3.659,2.1-5.763,4.916-5.77,7.727
								c-0.005,1.954,1.024,3.912,2.867,5.639C218.722,373.005,218.099,371.49,218.103,369.976z"/>
						</g>
						<g>
							<g>
								<path style="fill:#C28702;" d="M230.517,375.591l-2.891,1.97l-2.098-1.378l2.786-1.845
									c-1.857-1.328-2.942-2.929-2.943-4.189l0.002-0.831l3.902-0.365c0.119,1.083,0.928,2.303,2.252,3.257l3.894-2.578
									c-1.709-1.581-3.353-3.337-0.301-5.238c2.179-1.357,5.544-1.842,9.247-0.686l2.165-1.434l2.249,0.046l-0.002,0.831
									l-2.133,1.453c1.371,0.677,3.631,2.067,3.631,2.067l-0.002,0.831l-3.8,1.302c-0.616-0.986-1.485-1.778-2.511-2.373
									l-3.627,2.47c1.995,1.646,4.143,3.719,0.861,6.121C238.667,376.876,234.563,377.427,230.517,375.591z M238.675,367.478
									l3.001-1.987c-1.388-0.343-2.436-0.149-3.126,0.299C237.808,366.271,238.036,366.833,238.675,367.478z M237.053,373.134
									c0.825-0.574,0.603-1.233-0.019-1.982l-3.255,2.217C235.163,373.819,236.29,373.665,237.053,373.134z"/>
							</g>
							<g>
								<path style="fill:#FFC129;" d="M230.519,374.76l-2.891,1.97l-2.098-1.378l2.786-1.845c-1.857-1.328-2.942-2.929-2.943-4.189
									l3.904-1.196c0.119,1.083,0.928,2.303,2.252,3.257l3.894-2.578c-1.709-1.581-3.353-3.337-0.301-5.238
									c2.179-1.357,5.544-1.842,9.247-0.686l2.165-1.434l2.247,0.877l-2.133,1.453c1.625,0.803,2.98,1.814,3.629,2.898l-3.8,1.302
									c-0.616-0.986-1.485-1.779-2.511-2.373l-3.627,2.47c1.995,1.646,4.143,3.719,0.861,6.121
									C238.669,376.046,234.566,376.596,230.519,374.76z M238.677,366.647l3.001-1.987c-1.388-0.343-2.436-0.149-3.126,0.299
									C237.811,365.44,238.038,366.002,238.677,366.647z M237.055,372.303c0.825-0.574,0.603-1.233-0.018-1.982l-3.255,2.217
									C235.166,372.988,236.292,372.834,237.055,372.303z"/>
							</g>
						</g>
					</g>
				</g>
				<g>
					<g>
						<g>
							<path style="fill:#FFBE1D;" d="M256.076,377.32c-10.143,5.819-26.558,5.777-36.669-0.093
								c-10.111-5.876-10.087-15.35,0.053-21.174c10.141-5.813,26.556-5.772,36.669,0.093
								C266.241,362.021,266.217,371.496,256.076,377.32z"/>
							<path style="fill:#FFCF59;" d="M256.085,373.67c-10.142,5.824-26.558,5.783-36.669-0.093
								c-10.111-5.872-10.087-15.35,0.053-21.171c10.141-5.821,26.556-5.779,36.669,0.093
								C266.25,358.371,266.226,367.849,256.085,373.67z"/>
							<path style="fill:#FFE045;" d="M237.749,374.354c-5.618-0.014-11.092-1.329-15.018-3.61c-3.649-2.12-5.738-4.948-5.731-7.757
								c0.007-2.811,2.111-5.627,5.77-7.727c3.937-2.259,9.417-3.547,15.037-3.532c5.621,0.014,11.095,1.329,15.02,3.608
								c3.649,2.119,5.738,4.944,5.731,7.756c-0.007,2.811-2.111,5.627-5.77,7.727C248.85,373.079,243.368,374.368,237.749,374.354z
								"/>
							<path style="fill:#D9A823;" d="M218.118,364.186c0.007-2.811,2.111-5.627,5.77-7.727c3.936-2.259,9.417-3.547,15.036-3.532
								c5.621,0.014,11.095,1.329,15.02,3.608c1.112,0.646,2.059,1.362,2.866,2.119c-0.967-1.208-2.301-2.341-3.985-3.318
								c-3.925-2.279-9.399-3.594-15.02-3.608c-5.619-0.014-11.1,1.273-15.037,3.532c-3.659,2.1-5.763,4.915-5.77,7.727
								c-0.005,1.954,1.024,3.912,2.867,5.639C218.737,367.215,218.114,365.7,218.118,364.186z"/>
						</g>
						<g>
							<g>
								<path style="fill:#C28702;" d="M230.532,369.801l-2.891,1.97l-2.098-1.378l2.787-1.845
									c-1.857-1.328-2.942-2.929-2.943-4.189l0.002-0.831l3.902-0.365c0.119,1.083,0.928,2.303,2.252,3.257l3.894-2.578
									c-1.709-1.581-3.353-3.337-0.301-5.238c2.179-1.357,5.544-1.842,9.247-0.686l2.165-1.434l2.249,0.046l-0.002,0.831
									l-2.133,1.453c1.371,0.677,3.631,2.067,3.631,2.067l-0.002,0.831l-3.8,1.302c-0.616-0.986-1.485-1.779-2.511-2.373
									l-3.627,2.47c1.995,1.646,4.143,3.719,0.861,6.121C238.681,371.086,234.578,371.636,230.532,369.801z M238.689,361.687
									l3.001-1.987c-1.388-0.343-2.436-0.149-3.126,0.299C237.823,360.481,238.05,361.043,238.689,361.687z M237.068,367.344
									c0.825-0.574,0.603-1.233-0.018-1.982l-3.255,2.217C235.178,368.028,236.305,367.875,237.068,367.344z"/>
							</g>
							<g>
								<path style="fill:#FFC129;" d="M230.534,368.97l-2.891,1.97l-2.098-1.378l2.787-1.845c-1.857-1.328-2.942-2.929-2.943-4.189
									l3.904-1.196c0.119,1.083,0.928,2.303,2.252,3.257l3.894-2.578c-1.709-1.581-3.353-3.337-0.301-5.238
									c2.179-1.357,5.544-1.842,9.247-0.686l2.165-1.434l2.247,0.877l-2.133,1.453c1.625,0.803,2.98,1.814,3.629,2.898l-3.8,1.302
									c-0.616-0.986-1.485-1.778-2.511-2.373l-3.627,2.47c1.995,1.646,4.143,3.719,0.861,6.121
									C238.683,370.255,234.58,370.805,230.534,368.97z M238.692,360.856l3.001-1.987c-1.388-0.343-2.436-0.149-3.126,0.299
									C237.825,359.65,238.053,360.212,238.692,360.856z M237.07,366.513c0.825-0.574,0.603-1.233-0.018-1.982l-3.255,2.217
									C235.18,367.197,236.307,367.044,237.07,366.513z"/>
							</g>
						</g>
					</g>
				</g>
				<g>
					<g>
						<g>
							<path style="fill:#FFBE1D;" d="M256.09,371.53c-10.142,5.819-26.558,5.778-36.669-0.093
								c-10.111-5.876-10.087-15.35,0.053-21.174c10.141-5.813,26.556-5.772,36.669,0.093
								C266.255,356.231,266.231,365.705,256.09,371.53z"/>
							<path style="fill:#FFCF59;" d="M256.1,367.88c-10.143,5.824-26.558,5.783-36.669-0.093
								c-10.111-5.872-10.087-15.35,0.053-21.171c10.141-5.821,26.556-5.779,36.669,0.093
								C266.264,352.581,266.24,362.059,256.1,367.88z"/>
							<path style="fill:#FFE045;" d="M237.763,368.563c-5.618-0.014-11.092-1.329-15.018-3.61c-3.649-2.12-5.738-4.948-5.731-7.758
								c0.007-2.811,2.111-5.627,5.77-7.727c3.936-2.259,9.417-3.547,15.036-3.532c5.621,0.014,11.095,1.329,15.02,3.608
								c3.649,2.119,5.738,4.944,5.731,7.756c-0.007,2.811-2.111,5.627-5.77,7.727C248.865,367.289,243.383,368.578,237.763,368.563
								z"/>
							<path style="fill:#D9A823;" d="M218.132,358.395c0.007-2.811,2.111-5.627,5.77-7.727c3.937-2.259,9.417-3.547,15.037-3.532
								c5.621,0.014,11.095,1.329,15.02,3.608c1.112,0.646,2.059,1.362,2.866,2.119c-0.967-1.208-2.301-2.34-3.985-3.318
								c-3.925-2.279-9.399-3.594-15.02-3.608c-5.619-0.014-11.1,1.273-15.036,3.532c-3.659,2.1-5.763,4.916-5.77,7.727
								c-0.005,1.954,1.024,3.912,2.867,5.639C218.751,361.424,218.128,359.909,218.132,358.395z"/>
						</g>
						<g>
							<g>
								<path style="fill:#C28702;" d="M230.547,364.01l-2.891,1.97l-2.098-1.378l2.787-1.845c-1.857-1.328-2.942-2.929-2.943-4.189
									l0.002-0.831l3.902-0.365c0.119,1.083,0.928,2.303,2.252,3.257l3.894-2.578c-1.709-1.581-3.353-3.337-0.301-5.238
									c2.179-1.357,5.544-1.842,9.248-0.686l2.165-1.433l2.249,0.046l-0.002,0.831l-2.133,1.453
									c1.371,0.677,3.631,2.067,3.631,2.067l-0.002,0.831l-3.8,1.302c-0.616-0.986-1.485-1.779-2.511-2.373l-3.627,2.47
									c1.995,1.646,4.143,3.719,0.861,6.121C238.696,365.296,234.593,365.846,230.547,364.01z M238.704,355.897l3.001-1.987
									c-1.388-0.343-2.436-0.149-3.126,0.299C237.838,354.69,238.065,355.252,238.704,355.897z M237.082,361.553
									c0.825-0.574,0.603-1.233-0.018-1.982l-3.255,2.217C235.193,362.238,236.319,362.084,237.082,361.553z"/>
							</g>
							<g>
								<path style="fill:#FFC129;" d="M230.549,363.18l-2.891,1.97l-2.098-1.378l2.787-1.845c-1.857-1.328-2.942-2.929-2.943-4.189
									l3.904-1.196c0.119,1.083,0.928,2.303,2.252,3.257l3.894-2.578c-1.709-1.581-3.353-3.337-0.301-5.238
									c2.179-1.357,5.544-1.842,9.248-0.686l2.165-1.434l2.247,0.877l-2.133,1.453c1.625,0.803,2.98,1.814,3.629,2.898l-3.8,1.302
									c-0.616-0.986-1.485-1.778-2.511-2.373l-3.627,2.47c1.995,1.646,4.143,3.719,0.861,6.121
									C238.698,364.465,234.595,365.015,230.549,363.18z M238.706,355.066l3.001-1.987c-1.388-0.343-2.436-0.149-3.126,0.299
									C237.84,353.859,238.067,354.421,238.706,355.066z M237.084,360.722c0.825-0.574,0.603-1.233-0.018-1.982l-3.255,2.217
									C235.195,361.407,236.321,361.253,237.084,360.722z"/>
							</g>
						</g>
					</g>
				</g>
				<g>
					<g>
						<g>
							<path style="fill:#FFBE1D;" d="M256.105,365.739c-10.143,5.819-26.558,5.778-36.669-0.093
								c-10.111-5.876-10.087-15.35,0.053-21.174c10.141-5.813,26.556-5.772,36.669,0.093
								C266.27,350.44,266.246,359.915,256.105,365.739z"/>
							<path style="fill:#FFCF59;" d="M256.114,362.089c-10.143,5.824-26.558,5.783-36.669-0.093
								c-10.111-5.872-10.087-15.35,0.053-21.171c10.141-5.821,26.556-5.779,36.669,0.093
								C266.279,346.79,266.255,356.269,256.114,362.089z"/>
							<path style="fill:#FFE045;" d="M237.778,362.773c-5.618-0.014-11.092-1.329-15.019-3.61c-3.649-2.12-5.738-4.948-5.731-7.758
								c0.007-2.811,2.111-5.627,5.77-7.727c3.936-2.259,9.417-3.547,15.036-3.532c5.621,0.014,11.095,1.329,15.02,3.608
								c3.649,2.119,5.738,4.944,5.731,7.756c-0.007,2.811-2.111,5.627-5.77,7.727C248.879,361.498,243.397,362.787,237.778,362.773
								z"/>
							<path style="fill:#D9A823;" d="M218.147,352.605c0.007-2.811,2.111-5.627,5.77-7.727c3.936-2.259,9.417-3.546,15.036-3.532
								c5.621,0.014,11.095,1.329,15.02,3.608c1.112,0.646,2.059,1.363,2.866,2.119c-0.967-1.208-2.301-2.34-3.985-3.318
								c-3.925-2.279-9.399-3.594-15.02-3.608c-5.62-0.014-11.1,1.273-15.036,3.532c-3.659,2.1-5.763,4.915-5.77,7.727
								c-0.005,1.954,1.024,3.912,2.867,5.639C218.766,355.634,218.143,354.119,218.147,352.605z"/>
						</g>
						<g>
							<g>
								<path style="fill:#C28702;" d="M230.561,358.22l-2.891,1.97l-2.098-1.378l2.787-1.845c-1.857-1.328-2.942-2.929-2.943-4.189
									l0.002-0.831l3.902-0.365c0.119,1.083,0.928,2.303,2.252,3.257l3.894-2.578c-1.709-1.581-3.353-3.337-0.301-5.237
									c2.179-1.357,5.544-1.842,9.248-0.686l2.165-1.434l2.249,0.046l-0.002,0.831l-2.133,1.453
									c1.371,0.677,3.631,2.067,3.631,2.067l-0.002,0.831l-3.8,1.302c-0.616-0.986-1.485-1.779-2.511-2.373l-3.627,2.47
									c1.995,1.646,4.143,3.719,0.861,6.121C238.711,359.505,234.607,360.055,230.561,358.22z M238.719,350.107l3.001-1.987
									c-1.388-0.343-2.436-0.149-3.126,0.299C237.852,348.9,238.08,349.462,238.719,350.107z M237.097,355.763
									c0.825-0.574,0.603-1.233-0.018-1.982l-3.255,2.217C235.207,356.447,236.334,356.294,237.097,355.763z"/>
							</g>
							<g>
								<path style="fill:#FFC129;" d="M230.563,357.389l-2.891,1.97l-2.098-1.378l2.787-1.845
									c-1.857-1.328-2.942-2.929-2.943-4.189l3.904-1.196c0.119,1.083,0.928,2.303,2.252,3.257l3.894-2.578
									c-1.709-1.581-3.353-3.337-0.301-5.238c2.179-1.357,5.544-1.842,9.248-0.686l2.165-1.434l2.247,0.877l-2.133,1.453
									c1.625,0.803,2.98,1.814,3.629,2.898l-3.8,1.302c-0.616-0.986-1.485-1.778-2.511-2.373l-3.627,2.47
									c1.995,1.646,4.143,3.719,0.861,6.121C238.713,358.674,234.609,359.224,230.563,357.389z M238.721,349.276l3.001-1.987
									c-1.388-0.343-2.436-0.149-3.126,0.299C237.854,348.069,238.082,348.631,238.721,349.276z M237.099,354.932
									c0.825-0.574,0.603-1.233-0.018-1.982l-3.255,2.217C235.209,355.616,236.336,355.463,237.099,354.932z"/>
							</g>
						</g>
					</g>
				</g>
				<g>
					<g>
						<g>
							<path style="fill:#FFBE1D;" d="M256.12,359.949c-10.143,5.819-26.558,5.778-36.669-0.093
								c-10.111-5.876-10.087-15.35,0.053-21.174c10.141-5.813,26.556-5.772,36.669,0.093
								C266.284,344.65,266.26,354.124,256.12,359.949z"/>
							<path style="fill:#FFCF59;" d="M256.129,356.299c-10.143,5.825-26.558,5.783-36.669-0.093
								c-10.111-5.872-10.087-15.35,0.053-21.171c10.141-5.821,26.556-5.779,36.669,0.093
								C266.294,341,266.27,350.478,256.129,356.299z"/>
							<path style="fill:#FFE045;" d="M237.793,356.983c-5.618-0.014-11.092-1.329-15.018-3.61c-3.649-2.12-5.738-4.948-5.731-7.757
								c0.007-2.811,2.111-5.627,5.77-7.727c3.936-2.259,9.417-3.547,15.036-3.532c5.621,0.014,11.095,1.329,15.02,3.608
								c3.649,2.119,5.738,4.945,5.731,7.756c-0.007,2.811-2.111,5.627-5.77,7.727C248.894,355.708,243.412,356.997,237.793,356.983
								z"/>
							<path style="fill:#D9A823;" d="M218.162,346.815c0.007-2.811,2.111-5.627,5.77-7.727c3.936-2.259,9.417-3.546,15.036-3.532
								c5.621,0.014,11.095,1.329,15.02,3.608c1.112,0.646,2.059,1.362,2.866,2.119c-0.967-1.208-2.301-2.341-3.985-3.318
								c-3.925-2.279-9.399-3.594-15.02-3.608c-5.619-0.014-11.1,1.273-15.036,3.532c-3.659,2.1-5.763,4.915-5.77,7.727
								c-0.005,1.954,1.024,3.912,2.867,5.639C218.781,349.844,218.158,348.328,218.162,346.815z"/>
						</g>
						<g>
							<g>
								<path style="fill:#C28702;" d="M230.576,352.43l-2.891,1.97l-2.098-1.378l2.786-1.845c-1.857-1.328-2.942-2.929-2.943-4.189
									l0.002-0.831l3.902-0.365c0.119,1.083,0.928,2.303,2.252,3.257l3.894-2.578c-1.709-1.581-3.353-3.337-0.301-5.237
									c2.179-1.357,5.544-1.842,9.247-0.686l2.165-1.434l2.249,0.046l-0.002,0.831l-2.133,1.453
									c1.371,0.677,3.631,2.067,3.631,2.067l-0.002,0.831l-3.8,1.302c-0.616-0.986-1.485-1.779-2.511-2.373l-3.627,2.47
									c1.995,1.646,4.143,3.719,0.861,6.121C238.725,353.715,234.622,354.265,230.576,352.43z M238.733,344.316l3.001-1.987
									c-1.388-0.343-2.436-0.149-3.126,0.299C237.867,343.109,238.094,343.671,238.733,344.316z M237.112,349.972
									c0.825-0.574,0.603-1.233-0.018-1.982l-3.255,2.217C235.222,350.657,236.349,350.503,237.112,349.972z"/>
							</g>
							<g>
								<path style="fill:#FFC129;" d="M230.578,351.599l-2.891,1.97l-2.098-1.378l2.786-1.845
									c-1.857-1.328-2.942-2.929-2.943-4.189l3.904-1.196c0.119,1.083,0.928,2.303,2.252,3.257l3.894-2.578
									c-1.709-1.581-3.353-3.337-0.301-5.238c2.179-1.357,5.544-1.842,9.247-0.686l2.165-1.434l2.247,0.877l-2.133,1.453
									c1.625,0.803,2.98,1.814,3.629,2.898l-3.8,1.302c-0.616-0.986-1.485-1.778-2.511-2.373l-3.627,2.47
									c1.995,1.646,4.143,3.719,0.861,6.121C238.727,352.884,234.624,353.434,230.578,351.599z M238.735,343.485l3.001-1.987
									c-1.388-0.343-2.436-0.149-3.126,0.299C237.869,342.279,238.096,342.84,238.735,343.485z M237.114,349.141
									c0.825-0.574,0.603-1.233-0.018-1.982l-3.255,2.217C235.224,349.826,236.351,349.672,237.114,349.141z"/>
							</g>
						</g>
					</g>
				</g>
			</g>
		</g>
		<g>
			<polygon style="fill:#61B9FF;" points="104.614,273.014 102.518,290.992 104.463,332.905 145.894,310.502 142.099,252.147 			"/>
			<path style="fill:#4686B7;" d="M135.566,282.407c1.929,3.592-1.847,9.371-8.433,12.907c-6.586,3.536-13.489,3.49-15.418-0.102
				c-1.929-3.592,1.847-9.371,8.433-12.907C126.735,278.769,133.638,278.815,135.566,282.407z"/>
			<polygon style="fill:#53A1DB;" points="104.965,273.015 94.797,267.4 93.515,300.84 93.453,325.291 104.813,332.906 			"/>
			<polygon style="fill:#61B9FF;" points="104.965,273.015 99.268,275.78 94.797,267.4 			"/>
			<g>
				<polygon style="fill:#4686B7;" points="93.453,325.291 99.151,322.218 104.813,332.906 				"/>
				<polygon style="fill:#4686B7;" points="100.901,325.523 99.257,280.025 97.333,323.199 				"/>
			</g>
			
				<path style="fill:none;stroke:#4B739E;stroke-width:1.3461;stroke-linecap:round;stroke-linejoin:round;stroke-miterlimit:10;" d="
				M105.537,267.427l0.041-16.049c0.009-3.583,2.945-8.058,6.558-9.995c3.613-1.937,6.535-0.602,6.526,2.981l0.001-0.539
				l-0.04,16.048"/>
			<polygon style="fill:#4686B7;" points="142.449,252.148 130.786,246.13 94.797,267.4 104.965,273.015 			"/>
			<polygon style="fill:#53A1DB;" points="130.804,246.139 130.772,258.649 142.449,252.148 			"/>
			
				<path style="fill:none;stroke:#4B739E;stroke-width:1.3461;stroke-linecap:round;stroke-linejoin:round;stroke-miterlimit:10;" d="
				M115.772,273.043l0.04-16.048c0.009-3.583,2.945-8.058,6.558-9.995c3.613-1.937,6.535-0.602,6.526,2.981l0.001-0.539
				l-0.041,16.048"/>
		</g>
	</g>
</g>
</svg>
