<?xml version="1.0" encoding="utf-8"?>
<!-- Generator: Adobe Illustrator 27.5.0, SVG Export Plug-In . SVG Version: 6.00 Build 0)  -->
<svg version="1.1" xmlns="http://www.w3.org/2000/svg" xmlns:xlink="http://www.w3.org/1999/xlink" x="0px" y="0px"
	 viewBox="0 0 1200 800" style="enable-background:new 0 0 1200 800;" xml:space="preserve">
<g id="background">
	<rect y="0" style="fill:none;" width="1200" height="800"/>
</g>
<g id="object">
	<g>
		<path style="fill:#3A332D;" d="M204.585,367.009c-0.199,0.831-0.364,1.77,0.096,2.49c0.404,0.632,1.173,0.907,1.891,1.124
			c16.767,5.054,34.754,0.589,51.686-3.881c2.83-0.747,5.66-1.494,8.472-2.306c1.373-0.396,2.785-0.831,3.869-1.762
			c1.509-1.295,2.142-3.355,2.313-5.336c0.407-4.702-1.36-9.296-3.204-13.641c-4.719-11.122-10.153-21.94-16.257-32.365
			c-0.781-1.334-1.591-2.684-2.749-3.708c-2.279-2.017-5.624-2.466-8.608-1.868c-2.984,0.599-5.694,2.115-8.313,3.666
			c-9.203,5.453-15.325,11.053-17.212,21.598C214.324,343.567,207.545,354.669,204.585,367.009z"/>
		<path style="fill:#E1CFB5;" d="M268.588,307.133c-7.162-25.467-39.124-18.172-46.576,3.606
			c-4.493,13.129,3.646,30.763,16.123,37.384c-0.415,3.398,0.4,12.293,0.58,12.292c4.472-0.004,8.943-0.008,13.415-0.013
			c0.116-3.319,0.04-6.643-0.191-9.957c1.562-0.28,3.14-0.726,4.727-1.405c7.31-3.126,12.152-10.568,13.744-18.357
			C272.001,322.895,270.74,314.786,268.588,307.133z"/>
		<g>
			<g id="XMLID_396_">
				<g id="XMLID_398_">
					<polygon style="fill:#323643;" points="238.422,774.762 237.606,783.141 220.408,790.408 213.033,781.472 222.04,773.649 
						239.238,766.382 					"/>
				</g>
				<g id="XMLID_397_">
					<polygon style="fill:#68707F;" points="252.785,604.932 239.542,772.12 222.971,774.341 209.256,631.845 197.915,586.637 					
						"/>
				</g>
			</g>
			<g id="XMLID_393_">
				<g id="XMLID_395_">
					<polygon style="fill:#68707F;" points="287.371,560.137 297.305,758.802 287.233,762.53 255.737,612.206 238.411,568.68 					
						"/>
				</g>
				<g id="XMLID_394_">
					<polygon style="fill:#323643;" points="288.577,769.105 306.537,774.523 313.098,764.554 303.312,757.619 286.965,760.653 
											"/>
				</g>
			</g>
			<g id="XMLID_392_">
				<path style="fill:#DAD9CA;" d="M269.778,354.061c-3.453-0.432-6.986-0.066-10.446,0.416
					c-10.446,1.454-20.743,3.945-30.685,7.423c-3.208,1.122-6.397,2.355-9.31,4.092c-14.166,8.45-13.017,21.685-15.615,36.423
					c-1.811,10.275-4.466,20.823-5.184,31.25c-1.87,27.182-10.409,54.678-22.194,79.567c-4.968,10.493-10.89,20.615-14.423,31.659
					c-5.854,18.302-5.838,39.864-4.183,58.806c16.663,4.517,32.27,12.978,49.407,15.17c14.098,1.804,28.337-0.754,42.497-1.99
					c16.746-1.462,33.61-1.072,50.372-2.343c16.762-1.271,33.706-4.31,48.543-12.108c-1.532,0.805-22.767-55.968-24.265-61.057
					c-2.509-8.524-3.852-17.331-5.261-26.097c-6.96-43.287-15.749-86.466-29.883-128.088c-3.631-10.692-4.356-30.225-17.894-32.887
					C270.763,354.201,270.272,354.123,269.778,354.061z"/>
			</g>
			<g id="XMLID_389_">
				<g id="XMLID_391_">
					<path style="fill:#3A332D;" d="M245.038,300.277c7.755,1.392,17.315,7.927,19.183,15.996c0.9,3.886-0.383,7.464,0.748,11.585
						c2.198,8.133-7.779,20.114,2.097,25.767c5.076,2.905,11.419,1.964,17.195,0.935c0.7-0.125,1.433-0.264,1.987-0.704
						c0.912-0.725,1.065-2.082,0.719-3.186c-0.346-1.104-1.087-2.037-1.736-2.999c-6.786-10.065-5.142-24.502-7.78-35.964
						c-2.634-11.44-8.865-22.835-20.355-27.53c-5.728,3.661-9.894,9.624-11.321,16.208L245.038,300.277z"/>
				</g>
				<g id="XMLID_390_">
					<path style="fill:#3A332D;" d="M216.788,363.633c3.662-2.246,7.253-4.597,9.375-8.79c3.43-6.779,1.983-17.312,2.392-24.665
						c0.428-7.751,1.144-16.198,6.532-21.856c3.519-3.696,7.848-4.71,12.737-5.201c3.348-0.336,3.585,0.904,6.266-1.11
						c2.055-1.543,3.559-5.762,3.855-8.179c0.5-4.077-1.498-8.165-4.451-11.06c-4.545-4.455-9.646-6.427-15.881-6.039
						c-21.885,1.364-37.177,15.518-41.513,37.087c-2.084,10.367,1.082,21.448-1.234,31.451c-1.43,6.176-4.988,10.51-6.017,17.045
						c-2.67,16.958-10.136,38.986-7.942,56.103c0.081,0.633,0.218,1.332,0.738,1.713c1.057,0.777,2.439-0.394,3.211-1.448
						c4.505-6.155,9.01-12.309,13.515-18.463c1.769-2.417,3.56-4.874,4.586-7.679c2.552-6.982,0.18-15.535,4.584-21.553
						C209.943,367.704,213.396,365.714,216.788,363.633z"/>
				</g>
			</g>
			<g id="XMLID_387_">
				<g id="XMLID_388_">
					<polygon style="fill:#DAD9CA;" points="194.272,370.968 149.082,454.498 199.564,491.567 211.279,480.119 182.691,453.965 
						226.133,420.324 221.008,365.538 					"/>
				</g>
			</g>
		</g>
		<g>
			<path style="fill:#777F87;" d="M256.991,349.415c9.175,0,16.612-7.438,16.612-16.612h3.303c0,10.999-8.916,19.915-19.915,19.915
				V349.415z"/>
			<path style="fill:#434D55;" d="M248.143,348.083h6.44c1.648,0,2.984,1.336,2.984,2.984v0.693c0,1.648-1.336,2.984-2.984,2.984
				h-6.44c-1.648,0-2.984-1.336-2.984-2.984v-0.693C245.159,349.419,246.495,348.083,248.143,348.083z"/>
			<g>
				<path style="fill:#919CA6;" d="M273.4,320.603v-13.662c0-14.765-11.969-26.734-26.735-26.734
					c-14.765,0-26.735,11.969-26.735,26.734v13.662h-5.873v-13.764c0-18.009,14.599-32.608,32.608-32.608
					c18.009,0,32.608,14.599,32.608,32.608v13.764H273.4z"/>
			</g>
			<g>
				<path style="fill:#777F87;" d="M206.255,318.19c-1.01,1.521-1.01,2.557-1.01,3.844v2.496v2.497c0,1.288,0,2.323,1.01,3.844
					l1.648,1.931v-8.271v-8.271L206.255,318.19z"/>
				<path style="fill:#434D55;" d="M216.979,336.798h-3.557c-3.049,0-5.52-2.471-5.52-5.52v-13.493c0-3.049,2.471-5.52,5.52-5.52
					h3.557c3.049,0,5.52,2.471,5.52,5.52v13.493C222.499,334.326,220.028,336.798,216.979,336.798z"/>
			</g>
			<g>
				<path style="fill:#777F87;" d="M287.544,318.19c1.01,1.521,1.01,2.557,1.01,3.844v2.496v2.497c0,1.288,0,2.323-1.01,3.844
					l-1.647,1.931v-8.271v-8.271L287.544,318.19z"/>
				<path style="fill:#434D55;" d="M276.824,336.798h3.557c3.049,0,5.52-2.471,5.52-5.52v-13.493c0-3.049-2.471-5.52-5.52-5.52
					h-3.557c-3.049,0-5.52,2.471-5.52,5.52v13.493C271.304,334.326,273.776,336.798,276.824,336.798z"/>
			</g>
		</g>
	</g>
	<g>
		<polygon style="fill:#E1CFB5;" points="599.766,407.49 583.258,401.029 580.256,404.259 580.256,409.603 571.864,409.603 
			572.608,419.258 580.256,422.179 596.361,420.002 		"/>
		<g id="XMLID_368_">
			<g id="XMLID_370_">
				<g id="XMLID_384_">
					<g id="XMLID_386_">
						<path style="fill:#323643;" d="M737.864,745.303c1.643-1.809,3.561-2.796,5.727-2.455c2.081,0.327,3.952,1.737,4.81,3.624
							c0.585,1.286,0.709,2.721,0.825,4.124c0.6,7.262,0.546,24.504-9.128,26.986c-4.065,1.042-7.428-1.846-8.513-5.496
							C729.95,766.586,732.371,751.351,737.864,745.303z"/>
					</g>
					<g id="XMLID_385_">
						<path style="fill:#E1CEB4;" d="M734.424,635.749l0.506,44.295c-0.589,19.675,2.483,39.46,1.895,59.136
							c-0.136,4.524-1.314,9.297-0.175,13.781c1.115,4.387,4.679,5.162,8.338,2.941c4.902-2.976,4.112-9.926,4.928-14.996
							c2.243-13.932,4.874-27.801,7.216-41.717c1.148-6.822-1.219-16.384-0.704-23.288c0-0.004,7.156-37.122,7.156-37.122
							L734.424,635.749z"/>
					</g>
				</g>
				<g id="XMLID_383_">
					<polygon style="fill:#9096A4;" points="785.033,564.178 765.755,649.815 761.659,730.686 731.091,730 722.778,503.789 
						782.038,504.865 					"/>
				</g>
				<g id="XMLID_378_">
					<g id="XMLID_380_">
						<g id="XMLID_382_">
							<path style="fill:#323643;" d="M694.14,743.694c1.715-1.713,3.668-2.588,5.813-2.119c2.06,0.45,3.865,1.972,4.64,3.91
								c0.528,1.322,0.59,2.765,0.646,4.176c0.288,7.303-0.503,24.555-10.251,26.469c-4.096,0.803-7.325-2.285-8.251-6.003
								C685.342,764.527,688.406,749.423,694.14,743.694z"/>
						</g>
						<g id="XMLID_381_">
							<path style="fill:#E1CEB4;" d="M710.253,641.967l-2.594,44.223c-0.212,12.29-1.85,24.484-3.122,36.691
								c-1.182,11.339,0.658,23.149-5.268,33.461c-1.858,3.234-5.614,5.387-8.239,1.458c-2.023-3.028-0.821-8.079-1.209-11.514
								c-1.584-14.022-3.558-27.997-5.241-42.007c-0.826-6.868,1.99-16.309,1.801-23.23l-5.398-37.414L710.253,641.967z"/>
						</g>
					</g>
					<g id="XMLID_379_">
						<polygon style="fill:#9096A4;" points="671.569,558.941 669.081,642.07 682.127,726.135 713.222,727.065 711.849,636.087 
							728.304,560.639 733.827,511.253 684.487,505.433 						"/>
					</g>
				</g>
				<g id="XMLID_377_">
					<polygon style="fill:#ABB8C3;" points="710.6,335.305 763.756,334.036 794.575,391.354 783.621,445.04 781.67,509.288 
						705.846,510.323 680.897,506.272 687.521,437.625 683.723,345.925 					"/>
				</g>
				<g id="XMLID_376_">
					<polygon style="fill:#ABB8C3;" points="708.682,370.035 680.994,425.387 651.14,431.319 591.365,422.179 598.699,403.482 
						653.511,403.482 684.463,345.925 					"/>
				</g>
				<g id="XMLID_371_">
					<g id="XMLID_375_">
						<path style="fill:#E1CEB4;" d="M713.928,290.769c8.013-23.298,38.77-14.567,45.111,6.177
							c4.136,13.532-6.315,31.092-20.335,34.979c-0.062,0.532-0.108,1.03-0.11,1.452c-0.01,2.172-0.277,4.314-0.599,6.484
							c-0.12,0.809-12.391-1.549-13.759-1.818c-0.479-0.094-1.013-0.224-1.271-0.626c-0.495-0.771,0.31-3.04,0.4-3.896
							c0.106-1.011,0.212-2.021,0.318-3.032c-6.916-3.376-11.281-10.566-12.499-17.886
							C709.959,305.25,711.52,297.77,713.928,290.769z"/>
					</g>
					<g id="XMLID_372_">
						<g id="XMLID_374_">
							<path style="fill:#4D4343;" d="M733.994,269.716c1.649,1.674,2.297,4.01,2.773,6.252c0.284,1.339,0.528,2.725,0.242,4.051
								c-1.143,5.289-6.388,5.013-10.445,6.717c-5.003,2.102-9.317,5.973-12.118,10.43c-4.386,6.98-2.413,15.961-0.634,23.66
								c0.627,2.713,1.888,6.747-0.216,9.167c-2.138,2.459-7.08,2.079-9.641,0.814c-2.34-1.156-4.262-3.294-6.831-3.724
								c-2.719-0.455-6.394,0.74-7.66-1.755c-0.352-0.694-0.385-1.542-0.829-2.178c-1.503-2.149-5.24,0.367-7.357-1.147
								c-1.303-0.932-1.293-2.917-0.853-4.488c0.44-1.571,1.182-3.163,0.875-4.761c-0.264-1.374-1.255-2.459-1.867-3.709
								c-1.209-2.469-0.792-5.683,1.01-7.767c3.349-3.875,9.829-3.14,13.417-6.785c1.869-1.899,2.594-4.638,3.291-7.23
								c0.697-2.592,1.533-5.325,3.531-7.082c2.468-2.17,6.032-1.801,8.467-4.375c1.431-1.512,2.385-3.48,3.991-4.796
								c2.117-1.734,6.255-3.068,8.887-3.953C726.203,265.654,730.873,266.547,733.994,269.716z"/>
						</g>
						<g id="XMLID_373_">
							<path style="fill:#4D4343;" d="M753.449,306.895c0.143,7.668-3.666,15.958-0.133,22.708
								c3.565,6.812,12.451,8.04,20.025,8.395c1.246,0.058,17.23,1.439,17.298,1.136c1.197-5.341,2.435-10.788,5.226-15.478
								c2.791-4.69,7.459-8.576,12.804-8.909c-1.542-0.267-2.32-2.156-2.142-3.748c0.178-1.592,1.003-3.028,1.479-4.557
								c1.171-3.759,0.031-8.144-2.802-10.785c-5.654-5.27-15.906-3.081-20.753-9.134c-3.005-3.753-2.647-9.197-4.222-13.779
								c-3.045-8.86-12.746-10.714-19.996-14.715c-7.654-4.224-14.861-6.539-23.695-5.067
								c-10.951,1.825-19.091,12.974-14.867,23.465c5.417,13.456,27.073,12.295,31.128,25.958
								C753.233,303.852,753.42,305.361,753.449,306.895z"/>
						</g>
					</g>
				</g>
			</g>
			<g id="XMLID_369_">
				<polygon style="fill:#ECECEC;" points="748.031,335.001 731.541,358.307 723.789,357.673 710.869,334.036 				"/>
			</g>
		</g>
	</g>
	<g>
		<polygon style="fill:#D2C3A8;" points="378.387,300.715 368.122,281.97 378.214,262.64 388.733,268.212 387.465,284.098 
			393.012,289.506 390.861,303.131 		"/>
		<g>
			<g>
				<g>
					<polygon style="fill:#5A5751;" points="536.037,477.881 537.432,598.497 524.577,753.767 507.1,753.767 486.187,610.516 
						462.271,467.02 					"/>
					<polygon style="fill:#3B3631;" points="507.201,761.137 526.1,770.586 535.55,761.137 526.1,751.687 507.201,751.687 					"/>
				</g>
				<g>
					<polygon style="fill:#5A5751;" points="416.21,477.881 415.867,547.661 427.654,753.767 445.131,753.767 474.368,616.996 
						489.976,467.02 					"/>
					<polygon style="fill:#3B3631;" points="445.03,761.137 426.131,770.586 416.681,761.137 426.131,751.687 445.03,751.687 					
						"/>
				</g>
			</g>
			<path style="fill:#40495F;" d="M398.034,519.897c-0.374,11.072-0.134,25.881,4.527,26.434c0.873,0.104,1.715-0.283,2.483-0.656
				c8.106-3.938,13.884-9.505,21.875-13.309c8.374-3.987,17.891-6.073,27.193-7.514c13.873-2.216,27.975-3.547,41.938-3.671
				c12-0.106,24.48,5.368,35.824,8.378c4.367,1.159,7.919,4.341,11.547,6.837c5.358,3.686,7.707,5.146,6.977-2.386
				c-1.193-12.29-2.43-24.578-3.943-36.833c-3.016-24.445-7.121-48.831-14.067-72.495c-2.654-9.04-5.715-17.955-8.774-26.865
				c-3.726-10.851-7.453-21.702-11.179-32.553c-4.631-13.486-12.447-22.987-26.133-27.704c-11.828-4.077-26.519-5.192-38.023,0.515
				c-12.788,6.344-18.87,27.957-25.083,39.506c-5.444,10.121-12.307,37.726-14.345,48.637c-2.453,13.132-4.719,26.204-6.502,39.24
				c-1.976,14.439-3.368,28.835-3.772,43.146C398.532,510.187,398.213,514.611,398.034,519.897z"/>
			<path style="fill:#FFFFFF;" d="M461.207,339.982l23.618,0.225c0,0,25.344,88.569,26.275,103.833
				c0.914,14.986,7.32,75.747,7.32,75.747s-26.157,0.617-56.294,4.288c-29.463,6.305-31.938,2.577-31.938,2.577
				s15.901-63.863,16.428-82.211c0.54-18.768,2.942-80.751,2.942-80.751L461.207,339.982z"/>
			<g>
				<path style="fill:#D2C3A8;" d="M467.153,339.751c0.277,0.241,0.597,0.431,0.966,0.552c0.734,0.242,1.53,0.154,2.298,0.063
					c3.124-0.37,6.249-0.739,9.373-1.109c-1.03-9.568,4.562-11.732,10.012-17.885c5.524-6.238,3.824-14.649,3.513-22.283
					c-0.089-2.126-0.192-4.316-1.091-6.245c-1.577-3.385-5.25-5.253-8.816-6.362c-9.1-2.828-19.508-2.132-27.52,3.027
					c-2.132,1.373-4.123,3.098-5.279,5.355c-1.781,3.481-1.328,7.635-0.832,11.514c0.763,5.962,2.528,11.817,5.899,16.841
					c3.141,4.681,9.129,6.923,9.817,12.541C465.67,337.211,466.11,338.844,467.153,339.751z"/>
				<g>
					<path style="fill:#3B3631;" d="M450.04,299.448c0.531,2.405,1.652,4.837,1.068,7.228c-3.819-1.296-6.314-5.202-7.667-9.172
						c-0.613-1.8-1.059-3.705-0.904-5.61c0.154-1.904,0.981-3.818,2.484-4.894c2.098-1.502,5.861-0.912,6.462,1.81
						C452.089,291.554,449.241,295.831,450.04,299.448z"/>
					<path style="fill:#6E694F;" d="M429.766,278.329c0.09-2.881,1.188-5.455,3.762-7.194c2.219-1.499,4.778-2.742,6.126-5.125
						c1.046-1.849,1.2-4.138,2.237-5.994c1.877-3.359,5.953-4.347,9.498-5.486c8.869-2.848,13.644-6.137,23.038-2.49
						c6.679,2.592,15.308,2.94,21.507,6.721c2.589,1.579,4.791,4.116,6.599,6.942c6.262,9.791,7.766,23.558,3.687,33.77
						c-0.913,2.286-2.073,4.388-3.313,6.401c-2.48,4.025-5.136,8.976-9.526,10.946c-0.276-1.896-1.688-2.943-2.13-4.806
						c-0.318-1.341-0.212-2.747-0.142-4.128c0.27-5.369,1.917-13.859-3.445-16.522c-6.78-3.367-19.499-0.33-26.03,2.521
						c-5.778,2.522-15.53,5.803-21.691,3.101C434.223,294.48,429.573,284.483,429.766,278.329z"/>
				</g>
			</g>
		</g>
		<polygon style="fill:#40495F;" points="448.278,338.075 406.59,373.092 396.863,301.511 374.768,297.231 370.9,394.513 
			394.542,416.719 437.547,395.481 		"/>
	</g>
	<g>
		<g>
			<g id="XMLID_366_">
				
					<ellipse id="XMLID_367_" transform="matrix(0.7071 -0.7071 0.7071 0.7071 -181.3897 586.3333)" style="fill:#2D61A9;" cx="617.072" cy="512.123" rx="149.159" ry="149.159"/>
			</g>
			<g>
				<path style="fill:#FFFFFF;" d="M652.082,412.614c-4.466-3.949-10.649-5.925-18.547-5.925c-6.529,0-12.454,1.375-17.775,4.122
					c-5.324,2.747-9.49,6.399-12.492,10.946c-3.007,4.553-4.51,9.577-4.51,15.072c0,6.182,2.23,11.249,6.699,15.199
					c4.463,3.952,10.729,5.925,18.804,5.925c6.526,0,12.405-1.329,17.645-3.993c5.238-2.661,9.36-6.312,12.365-10.949
					c3.004-4.637,4.51-9.617,4.51-14.941C658.781,421.717,656.548,416.566,652.082,412.614z"/>
				<path style="fill:#FFFFFF;" d="M648.374,589.558c0,0-23.746,9.469-21.594-2.736l16.265-92.17
					c2.027-11.486-6.809-22.018-18.473-22.018h-25.814h-2.574h-16.835l-1.356,5.743c0,0,17.016,0.918,14.421,15.62
					c-5.906,33.466-16.677,94.502-16.687,94.56c-1.446,8.194,1.476,16.702,7.637,22.293c9.215,8.363,21.866,7.814,33.029,4.253
					c3.724-1.189,36.152-15.698,36.103-15.816L648.374,589.558z"/>
			</g>
			<path style="opacity:0.1;fill:#272525;" d="M703.228,390.401c17.258,24.338,27.437,54.049,27.437,86.156
				c0,82.378-66.781,149.159-149.159,149.159c-32.107,0-61.818-10.178-86.156-27.436c27.022,38.107,71.45,63.002,121.722,63.002
				c82.378,0,149.159-66.781,149.159-149.159C766.231,461.852,741.335,417.424,703.228,390.401z"/>
		</g>
		<path style="opacity:0.2;fill:#FFFFFF;" d="M650.489,384.746c0.67,0,1.339,0.005,2.007,0.013
			c-12.942-4.673-26.902-7.224-41.46-7.224c-41.051,0-77.36,20.26-99.431,51.304c-0.786,0.24-1.362,1.011-1.362,1.928v0.03
			c-13.273,19.465-21.032,42.974-21.032,68.291c0,0.564,0.009,1.127,0.016,1.689C511.674,433.365,575.39,384.746,650.489,384.746z"
			/>
	</g>
	<g>
		<path style="fill:#6BAA9E;" d="M103.562,252.028c-3.229,26.138-0.391,67.609,27.722,123.575
			c28.112,55.966,59.686,83.003,82.582,96.018c16.365,9.303,37.021,9.501,54.662,0.64l9.853-4.949
			c8.002-4.02,11.443-13.342,7.685-20.822l-23.54-46.864c-3.758-7.48-13.29-10.286-21.292-6.266l-13.767,6.915
			c-4.537,2.279-9.866,2.258-14.067-0.146c-21.408-12.251-38.212-46.579-38.212-46.579s-17.506-33.976-14.553-58.463
			c0.58-4.805,3.745-9.093,8.281-11.372l13.767-6.915c8.002-4.019,11.443-13.342,7.685-20.822l-23.54-46.864
			c-3.758-7.48-13.29-10.286-21.292-6.266l-9.853,4.949C118.043,216.656,105.87,233.346,103.562,252.028z"/>
		<path style="opacity:0.1;fill:#272525;" d="M121.107,353.352c2.961,7.15,6.309,14.549,10.177,22.25
			c28.112,55.966,59.686,83.003,82.583,96.018c16.364,9.302,37.021,9.501,54.662,0.64l9.853-4.949
			c2.539-1.275,4.556-3.12,6.092-5.235C196.305,477.045,122.488,355.638,121.107,353.352z"/>
	</g>
	<g id="XMLID_364_">
		<g id="XMLID_365_">
			<path style="fill:#E1CFB5;" d="M208.087,495.499c2.672,3.407,12.956,8.504,17.453,7.249c10.381-2.897-1.928-10.024-5.63-13.444
				c1.588-0.932,3.152-1.785,4.503-2.983c1.239-1.098-12.817-7.784-14.936-7.56c-5.085,0.539-5.778,3.716-8.687,7.495
				C203.287,489.27,205.667,492.409,208.087,495.499z"/>
		</g>
	</g>
	<g>
		<path style="fill:#777F87;" d="M482.191,325.097c9.658,0,17.487-7.829,17.487-17.487h3.476c0,11.578-9.385,20.963-20.963,20.963
			V325.097z"/>
		<path style="fill:#434D55;" d="M472.878,323.695h6.779c1.735,0,3.142,1.406,3.142,3.142v0.729c0,1.735-1.406,3.142-3.142,3.142
			h-6.779c-1.735,0-3.142-1.407-3.142-3.142v-0.729C469.737,325.102,471.143,323.695,472.878,323.695z"/>
		<g>
			<path style="fill:#919CA6;" d="M499.464,294.768v-14.381c0-15.542-12.599-28.142-28.142-28.142
				c-15.542,0-28.142,12.599-28.142,28.142v14.381h-6.182V280.28c0-18.957,15.367-34.324,34.324-34.324
				c18.957,0,34.324,15.367,34.324,34.324v14.489H499.464z"/>
		</g>
		<g>
			<path style="fill:#777F87;" d="M428.785,292.229c-1.063,1.601-1.063,2.691-1.063,4.047v2.628c0,0,0,2.627,0,2.628
				c0,1.355,0,2.446,1.063,4.047l1.734,2.032v-8.707v-8.707L428.785,292.229z"/>
			<path style="fill:#434D55;" d="M440.074,311.815h-3.744c-3.209,0-5.81-2.602-5.81-5.81v-14.203c0-3.209,2.602-5.811,5.81-5.811
				h3.744c3.209,0,5.81,2.601,5.81,5.811v14.203C445.884,309.214,443.283,311.815,440.074,311.815z"/>
		</g>
		<g>
			<path style="fill:#777F87;" d="M514.352,292.229c1.063,1.601,1.063,2.691,1.063,4.047v2.628c0,0,0,2.627,0,2.628
				c0,1.355,0,2.446-1.063,4.047l-1.734,2.032v-8.707v-8.707L514.352,292.229z"/>
			<path style="fill:#434D55;" d="M503.068,311.815h3.744c3.209,0,5.81-2.602,5.81-5.81v-14.203c0-3.209-2.601-5.811-5.81-5.811
				h-3.744c-3.209,0-5.811,2.601-5.811,5.811v14.203C497.258,309.214,499.859,311.815,503.068,311.815z"/>
		</g>
	</g>
	<g>
		<path style="fill:#777F87;" d="M743.927,331.537c9.183,0,16.628-7.445,16.628-16.628h3.306c0,11.009-8.924,19.933-19.933,19.933
			V331.537z"/>
		<path style="fill:#434D55;" d="M735.072,330.204h6.446c1.65,0,2.987,1.337,2.987,2.987v0.694c0,1.65-1.337,2.987-2.987,2.987
			h-6.446c-1.65,0-2.987-1.337-2.987-2.987v-0.694C732.085,331.542,733.422,330.204,735.072,330.204z"/>
		<g>
			<path style="fill:#919CA6;" d="M760.352,302.699v-13.675c0-14.779-11.981-26.759-26.759-26.759s-26.759,11.98-26.759,26.759
				v13.675h-5.878v-13.777c0-18.025,14.612-32.638,32.638-32.638c18.025,0,32.638,14.612,32.638,32.638v13.777H760.352z"/>
		</g>
		<g>
			<path style="fill:#777F87;" d="M693.145,300.284c-1.011,1.522-1.011,2.559-1.011,3.848v2.499v2.499c0,1.289,0,2.326,1.011,3.848
				l1.649,1.932v-8.279v-8.279L693.145,300.284z"/>
			<path style="fill:#434D55;" d="M703.879,318.908h-3.56c-3.051,0-5.525-2.474-5.525-5.525v-13.505
				c0-3.051,2.474-5.525,5.525-5.525h3.56c3.051,0,5.525,2.474,5.525,5.525v13.505C709.404,316.435,706.931,318.908,703.879,318.908
				z"/>
		</g>
		<g>
			<path style="fill:#777F87;" d="M774.509,300.284c1.011,1.522,1.011,2.559,1.011,3.848v2.499v2.499c0,1.289,0,2.326-1.011,3.848
				l-1.649,1.932v-8.279v-8.279L774.509,300.284z"/>
			<path style="fill:#434D55;" d="M763.779,318.908h3.56c3.051,0,5.525-2.474,5.525-5.525v-13.505c0-3.051-2.474-5.525-5.525-5.525
				h-3.56c-3.051,0-5.525,2.474-5.525,5.525v13.505C758.254,316.435,760.728,318.908,763.779,318.908z"/>
		</g>
	</g>
	<polygon style="fill:#D2C3A8;" points="547.115,238.482 542.179,218.531 525.201,211.363 521.984,222.84 531.092,234.311 
		532.357,244.475 	"/>
	<polygon style="fill:#40495F;" points="489.976,339.477 543.087,318.117 526.441,234.407 545.597,232.128 577.697,319.486 
		571.084,345.954 510.988,386.444 	"/>
	<path style="fill:#F4C700;" d="M669.442,31.653l-287.884,1.242c-14.911,0.064-27.059,12.317-26.994,27.228l0.616,142.883
		c0.064,14.911,12.317,27.059,27.228,26.994l199.459-0.86l47.401,63.966l8.282-64.206l32.741-0.141
		c14.911-0.064,27.059-12.317,26.994-27.228L696.67,58.647C696.606,43.736,684.353,31.588,669.442,31.653z"/>
	<g>
		<g id="XMLID_363_">
			<polygon style="fill:#E1CFB5;" points="766.681,468.5 771.739,475.908 761.482,489.266 750.078,488.334 744.467,479.533 
				751.632,474.39 750.632,472.306 752.068,469.193 			"/>
		</g>
		<g id="XMLID_326_">
			<polygon style="fill:#ABB8C3;" points="765.519,337.989 824.388,405.712 827.264,435.376 769.197,481.216 758.779,466.141 
				796.333,426.044 759.953,390.429 			"/>
		</g>
	</g>
	<g>
		<g>
			<path style="fill:#3C3C3C;" d="M938.227,776.861l15.012-13.866c4.356-2.204,8.963-3.743,12.696-3.696
				c2.711,0.034,4.961,0.904,6.318,2.962c1.304,1.976,1.568,4.578,0.68,6.686c-0.325,0.771-0.786,1.461-1.305,2.111l0.001,0
				c0,0-0.006,0.007-0.007,0.008c-0.447,0.56-0.936,1.091-1.423,1.614c-0.31,0.333-0.652,0.691-1.015,1.064
				c-3.107,3.367-8.312,8.851-10.378,10.09c-3.031,1.819-9.699,6.668-17.58,1.212c0.029-0.026,0.062-0.051,0.092-0.077
				C938.452,783.03,937.609,779.842,938.227,776.861z"/>
			<path style="fill:#D2C3A8;" d="M950.01,656.106l1.212,17.4l5.947,84.712l-5.947,9.855c0,0-1.212,7.881,7.881,7.274
				c2.705-0.18,12.285-12.361,12.285-12.361l-1.385-5.582l6.742-63.606l-0.062-18.474l3.225-20.513L950.01,656.106z"/>
		</g>
		<g>
			<path style="fill:#3C3C3C;" d="M1045.172,755.35c2.795-0.879,5.397-0.744,7.484,0.91c2.004,1.589,3.153,4.171,2.952,6.634
				c-0.137,1.68-0.847,3.235-1.548,4.753c-3.625,7.857-13.792,25.622-25.458,22.366c-4.902-1.369-6.758-6.373-5.763-10.794
				C1024.338,772.559,1035.827,758.289,1045.172,755.35z"/>
		</g>
		<path style="fill:#D2C3A8;" d="M986.372,645.944l2.031,25.055l49.183,88.554c0,0-7.07,12.351-2.586,13.424
			c4.484,1.073,17.633-2.668,17.66-16.615c-5.171-16.89-25.497-74.243-25.497-74.243l-9.518-14.799l0.14-27.813L986.372,645.944z"/>
		<path style="fill:#454446;" d="M1041.941,562.074c0.388-7.387-1.974-26.657-4.401-33.563
			c-8.848-25.179-10.554-37.588-10.554-58.083c0-20.495-3.951-84.533-3.951-84.533l-18.546-19.903l-37.867,1.063l-21.027,6.935
			c0,0-4.452,81.754-5.716,108.104c-0.902,18.804-2.208,35.089-3.927,56.878c0,0-4.82,49.695,2.627,102.968
			c0,0,1.662,17.69,2.408,19.24c0.098,0.526,0.154,0.808,0.154,0.808s0.3,0,0.303,0.001l84.206-0.001l0-30.359
			c2.803-9.744,5.466-19.532,8.017-29.346C1036.909,589.812,1041.22,575.782,1041.941,562.074z"/>
		<path style="fill:#6D6E6F;" d="M1024.13,371.72l7.192,8.582c0,0-3.752,77.067-4.335,90.127
			c-0.583,13.06,16.247,65.248,16.247,65.248l-69.713,9.093c0,0-10.253-55.735-13.204-83.422
			c-2.951-27.688,39.227-95.185,39.227-95.185L1024.13,371.72z"/>
		<path style="fill:#6D6E6F;" d="M954.242,370.406l-14.228,6.751c0,0,2.001,83.195-1.647,104.326
			c-2.224,12.881-10.882,54.591-10.882,54.591l22.513,7.704c0,0,13.86-52.174,16.614-79.862c2.754-27.688-0.246-96.542-0.246-96.542
			L954.242,370.406z"/>
		<g>
			<g>
				<path style="fill:#454446;" d="M957.002,339.929c-1.847,7.148,2.393,14.209,6.104,20.238c1.516,2.463,3.865,5.89,1.909,8.701
					c-2.19,3.148-7.629,2.517-10.022,0.163c-1.69-1.662-2.52-3.915-3.241-6.112c-3.23-9.845-7.74-23.634-6.857-33.983
					c0.707-8.298,10.883-23.034,21.366-17.761c1.903,0.957,3.123,2.755,4.167,4.523c0.623,1.056,1.225,2.162,1.349,3.366
					c0.495,4.804-4.139,6.041-7.183,8.623C960.84,330.874,958.182,335.365,957.002,339.929z"/>
				<path style="fill:#D2C3A8;" d="M974.495,365.607c-7.001-0.89-12.853-5.783-15.985-11.675
					c-3.132-5.892-3.879-12.671-3.756-19.281c0.408-21.999,29.579-23.221,40.921-7.411
					C1005.558,341.017,994.851,368.193,974.495,365.607z"/>
				<path style="fill:#454446;" d="M994.408,337.624c0.24,2.664,1.596,5.489,1.969,8.226c0.688,5.038-0.44,11.575,1.404,16.178
					c5.115-0.701,11.336-3.9,15.126-7.41c3.871-3.585,3.174-8.915,4.039-14.197c0.8-4.885,1.82-9.793,1.541-14.735
					c-1.528-27.056-28.526-41.851-52.314-29.646c-9,4.617-12.935,16.352-6.315,24.063c7.12,8.293,21.586,4.697,30.112,10.851
					C991.862,332.319,993.317,334.771,994.408,337.624z"/>
			</g>
			<path style="fill:#D2C3A8;" d="M973.908,363.337c0.355,1.638,0.71,3.275,1.065,4.913c0.163,0.751,0.102,2.9,0.748,3.415
				c0.337,0.268,0.837,0.229,1.28,0.174c1.264-0.155,12.586-1.597,12.463-2.317c-0.331-1.93-0.701-3.821-1.303-5.665
				c-0.486-1.489-0.672-4.292-1.571-5.422c-1.923,1.315-3.91,2.128-6.175,2.77c-2.186,0.62-4.383,1.203-6.589,1.75
				C973.853,363.083,973.88,363.21,973.908,363.337z"/>
		</g>
		<polygon style="fill:#D2C3A8;" points="928.618,267.009 935.548,246.55 953.962,240.542 956.318,252.845 945.767,264.055 
			943.545,274.589 		"/>
		<polygon style="fill:#6D6E6F;" points="966.086,388.957 927.042,352.968 950.629,264.566 930.768,260.489 889.44,349.146 
			894.029,377.45 953.395,425.158 		"/>
		<g>
			<path style="fill:#777F87;" d="M970.094,364.574c-9.387,0-16.996-7.609-16.996-16.996h-3.379
				c0,11.253,9.122,20.375,20.375,20.375V364.574z"/>
			<path style="fill:#434D55;" d="M979.146,363.212h-6.589c-1.686,0-3.053,1.367-3.053,3.053v0.709c0,1.686,1.367,3.053,3.053,3.053
				h6.589c1.686,0,3.053-1.367,3.053-3.053v-0.709C982.199,364.579,980.832,363.212,979.146,363.212z"/>
			<g>
				<path style="fill:#919CA6;" d="M953.306,335.097v-13.978c0-15.106,12.246-27.352,27.352-27.352
					c15.106,0,27.352,12.246,27.352,27.352v13.978h6.009v-14.082c0-18.425-14.936-33.361-33.361-33.361
					c-18.425,0-33.361,14.936-33.361,33.361v14.082H953.306z"/>
			</g>
			<g>
				<path style="fill:#777F87;" d="M1022.002,332.629c1.033,1.556,1.033,2.616,1.033,3.933v2.554v2.554c0,1.317,0,2.377-1.033,3.933
					l-1.686,1.975v-8.462v-8.462L1022.002,332.629z"/>
				<path style="fill:#434D55;" d="M1011.03,351.666h3.639c3.119,0,5.648-2.529,5.648-5.648v-13.805
					c0-3.119-2.529-5.647-5.648-5.647h-3.639c-3.119,0-5.648,2.529-5.648,5.647v13.805
					C1005.382,349.137,1007.911,351.666,1011.03,351.666z"/>
			</g>
			<g>
				<path style="fill:#777F87;" d="M938.835,332.629c-1.033,1.556-1.033,2.616-1.033,3.933v2.554v2.554c0,1.317,0,2.377,1.033,3.933
					l1.686,1.975v-8.462v-8.462L938.835,332.629z"/>
				<path style="fill:#434D55;" d="M949.803,351.666h-3.639c-3.119,0-5.648-2.529-5.648-5.648v-13.805
					c0-3.119,2.529-5.647,5.648-5.647h3.639c3.119,0,5.647,2.529,5.647,5.647v13.805
					C955.45,349.137,952.922,351.666,949.803,351.666z"/>
			</g>
		</g>
		<g>
			<g>
				<g>
					<path style="fill:#B93737;" d="M873.728,309.198c-8.577-2.066-16.682-0.817-24.086,3.711
						c-7.405,4.528-12.208,11.175-14.274,19.753c-2.069,8.587-0.82,16.691,3.711,24.087c4.529,7.404,11.175,12.206,19.753,14.273
						c3.401,0.819,6.728,1.117,9.969,0.895c4.924-0.338,9.646-1.876,14.118-4.606c7.404-4.53,12.207-11.176,14.273-19.753
						c2.064-8.569,0.816-16.672-3.713-24.089C888.943,316.064,882.297,311.263,873.728,309.198z"/>
				</g>
				<g style="opacity:0.1;">
					<g>
						<path d="M893.479,323.469c-4.537-7.405-11.182-12.207-19.751-14.271c-2.768-0.667-5.486-0.983-8.148-0.96
							c5.477,2.579,9.911,6.587,13.219,11.986c4.529,7.417,5.777,15.52,3.713,24.089c-2.067,8.578-6.869,15.223-14.273,19.753
							c-4.472,2.73-9.194,4.268-14.118,4.606c-0.606,0.042-1.215,0.059-1.827,0.064c2.037,0.959,4.214,1.727,6.539,2.288
							c3.401,0.819,6.728,1.117,9.969,0.895c4.924-0.338,9.646-1.876,14.118-4.606c7.404-4.53,12.207-11.176,14.273-19.753
							C899.257,338.989,898.009,330.886,893.479,323.469z"/>
					</g>
				</g>
				<g>
					<path style="fill:#B93737;" d="M1036.044,90.198c-14.672-21.985-37.825-36.919-68.817-44.387
						c-30.983-7.465-58.541-4.757-81.908,8.047c-20.313,11.132-34.561,28.63-42.347,52.01c-1.313,3.94-0.91,8.283,1.106,11.916
						c2.014,3.633,5.484,6.273,9.521,7.246l18.453,4.446c7.364,1.772,14.874-2.268,17.463-9.405
						c4.593-12.656,11.728-21.518,21.814-27.092c12.209-6.746,27.412-7.995,45.186-3.713c17.719,4.269,30.529,12.483,38.073,24.411
						c7.509,11.892,9.194,26.731,5.008,44.104c-5.769,23.947-16.516,38.427-31.939,43.037c-16.242,4.853-39.614,3.504-69.512-4.016
						l-7.985-1.924c-7.972-1.921-16.018,3.003-17.939,10.972l-16.756,69.547c-0.93,3.861-0.301,7.853,1.771,11.241
						c2.073,3.388,5.34,5.767,9.201,6.697l18.718,4.51c1.509,0.363,3.019,0.482,4.491,0.381c6.306-0.433,11.891-4.892,13.448-11.353
						l10.852-45.039c0.134-0.558,0.698-0.914,1.253-0.797c35.104,7.47,63.765,6.181,85.187-3.832
						c22.783-10.65,38.301-32.509,46.123-64.971C1054.299,139.898,1050.778,112.298,1036.044,90.198z"/>
				</g>
				<g style="opacity:0.1;">
					<g>
						<path d="M1036.044,90.198c-14.672-21.985-37.825-36.919-68.817-44.387c-19.184-4.622-37.053-5.34-53.429-2.18
							c8.735,0.396,17.803,1.718,27.188,3.979c30.992,7.467,54.145,22.401,68.817,44.387c14.734,22.1,18.255,49.7,10.464,82.034
							c-7.822,32.462-23.34,54.321-46.123,64.971c-6.58,3.076-13.845,5.324-21.768,6.753c18.659,0.508,34.727-2.344,48.01-8.552
							c22.783-10.65,38.301-32.509,46.123-64.971C1054.299,139.898,1050.778,112.298,1036.044,90.198z"/>
					</g>
				</g>
			</g>
		</g>
		<g>
			<g>
				<g>
					<path style="fill:#4A6984;" d="M989.546,624.013l-123.257-4c-0.964-0.031-1.72-0.838-1.689-1.802l6.801-209.563
						c0.031-0.964,0.838-1.72,1.802-1.689l123.257,4c0.964,0.031,1.72,0.838,1.689,1.802l-6.801,209.563
						C991.317,623.288,990.51,624.044,989.546,624.013z"/>
				</g>
				
					<rect x="877.67" y="420" transform="matrix(0.9995 0.0324 -0.0324 0.9995 16.9145 -29.9535)" style="fill:#E5E6E7;" width="108.003" height="172.714"/>
				<path style="fill:#FFFFFF;" d="M941.279,613.831l-26.163-0.849c-0.609-0.02-1.087-0.53-1.068-1.139l0.221-6.819
					c0.02-0.609,0.53-1.087,1.139-1.068l26.163,0.849c0.609,0.02,1.087,0.53,1.068,1.139l-0.221,6.82
					C942.398,613.373,941.888,613.851,941.279,613.831z"/>
			</g>
		</g>
		<g>
			<polygon style="fill:#D2C3A8;" points="1016.313,505.227 1007.525,524.96 988.636,529.244 987.424,516.776 998.964,506.587 
				1002.148,496.303 			"/>
			<polygon style="fill:#6D6E6F;" points="1007.654,384.527 1033.937,441.659 1002.148,496.303 1015.181,508.386 1059.907,452.255 
				1066.655,432.969 1031.321,380.302 			"/>
		</g>
	</g>
	<g>
		<polygon style="fill:#E1CFB5;" points="316.508,334.701 314.648,326.574 316.648,324.629 320.648,328.135 325.815,317.721 
			334.315,312.648 338.729,317.44 331.447,328.579 326.689,335.605 322.647,350.368 315.648,348.221 		"/>
		<path style="fill:#DAD9CA;" d="M305.924,378.181c2.739-13.349,4.834-26.83,6.275-40.381c5.653-0.456,11.409,0.432,16.661,2.572
			c1.411,23.928,0.307,48.003-3.289,71.701c-0.155,1.019-0.371,2.138-1.184,2.771c-0.681,0.53-1.609,0.578-2.472,0.578
			c-8.376-0.001-16.545-2.456-24.466-5.18c-12.082-4.155-23.929-8.99-35.468-14.475c1.282-7.297,1.559-14.771,0.82-22.143
			c-1.021-10.193,1.324-24.129,13.867-16.278C280.066,359.472,306.502,375.363,305.924,378.181z"/>
	</g>
</g>
</svg>
