<?xml version="1.0" standalone="no"?>
<!DOCTYPE svg PUBLIC "-//W3C//DTD SVG 20010904//EN"
 "http://www.w3.org/TR/2001/REC-SVG-20010904/DTD/svg10.dtd">
<svg version="1.0" xmlns="http://www.w3.org/2000/svg"
 width="6001.000000pt" height="5000.000000pt" viewBox="0 0 6001.000000 5000.000000"
 preserveAspectRatio="xMidYMid meet">

<g transform="translate(0.000000,5000.000000) scale(0.100000,-0.100000)"
fill="#000000" stroke="none">
<path d="M26285 44435 c-77 -45 -477 -276 -890 -515 -412 -238 -806 -465 -875
-505 -69 -40 -201 -116 -295 -170 -93 -54 -196 -114 -229 -134 l-58 -36 -195
-475 c-107 -261 -223 -545 -258 -630 -111 -273 -148 -363 -415 -1015 -144
-352 -302 -737 -350 -855 -96 -236 -355 -867 -1095 -2675 -449 -1096 -558
-1363 -935 -2280 -306 -743 -478 -1164 -567 -1385 -52 -129 -119 -293 -148
-365 -108 -265 -655 -1600 -1046 -2555 l-404 -985 -5 -510 -5 -510 -23 -37
c-17 -27 -54 -56 -135 -104 -134 -80 -190 -91 -272 -55 -27 12 -49 20 -50 19
-1 -2 -14 -34 -29 -73 -15 -38 -84 -206 -152 -373 l-125 -303 30 -60 c37 -74
46 -143 31 -234 -7 -38 -15 -133 -19 -210 -5 -101 -12 -150 -24 -176 -15 -30
-16 -51 -10 -144 l8 -108 112 -28 c62 -15 132 -38 156 -52 83 -49 202 -190
311 -369 9 -16 25 -28 36 -28 36 0 269 -335 450 -649 l42 -74 33 79 c18 44
295 727 615 1519 320 792 586 1445 590 1450 4 6 82 195 173 420 91 226 215
532 275 680 60 149 167 412 237 585 119 294 166 412 445 1100 89 220 441 1092
847 2095 47 116 119 293 160 395 41 102 144 356 228 565 85 209 203 502 263
650 60 149 166 410 235 580 139 345 224 553 382 945 269 663 345 854 345 862
0 5 619 1539 1375 3410 757 1870 1375 3401 1373 3402 -2 2 -66 -34 -143 -79z"/>
<path d="M17650 39184 c-485 -61 -904 -240 -1805 -769 -49 -29 -283 -164 -520
-300 -236 -136 -450 -260 -475 -275 -25 -15 -173 -100 -330 -190 -157 -90
-294 -171 -305 -180 -11 -9 -78 -52 -150 -95 -292 -176 -600 -394 -860 -611
-166 -138 -521 -492 -656 -655 -517 -624 -853 -1337 -1013 -2154 -26 -133 -70
-428 -81 -545 -3 -36 -10 -119 -16 -185 -7 -73 -13 -561 -16 -1238 l-5 -1118
119 -122 c311 -321 471 -643 503 -1014 8 -84 10 -330 7 -718 -4 -564 -5 -594
-26 -689 -12 -54 -21 -100 -19 -101 2 -1 39 -23 83 -49 166 -96 338 -139 550
-139 207 1 405 37 657 122 345 116 596 242 1372 691 324 187 593 340 597 340
3 0 202 113 440 251 239 138 483 278 542 312 l108 62 -8 50 c-4 28 -8 311 -8
630 l0 580 24 48 c21 43 35 55 143 118 128 76 172 89 234 69 22 -7 229 -122
462 -256 232 -134 426 -244 431 -244 19 0 288 310 421 485 604 793 928 1765
968 2900 12 330 -3 3250 -17 3395 -15 156 -49 396 -66 461 -111 450 -229 689
-434 881 -126 118 -275 199 -431 233 -73 16 -345 28 -420 19z m-1343 -3585
c74 -36 125 -127 160 -283 20 -93 32 -509 32 -1171 1 -510 -6 -668 -34 -822
-30 -158 -102 -341 -184 -461 -147 -217 -320 -359 -706 -582 -88 -50 -344
-198 -570 -328 -225 -130 -450 -254 -499 -275 -290 -125 -447 -73 -515 171
-38 138 -43 274 -38 1117 3 700 6 811 21 885 30 151 66 262 125 385 103 214
261 386 493 538 149 98 1222 716 1335 769 168 79 295 98 380 57z"/>
<path d="M28603 37500 c-286 -36 -597 -139 -968 -319 -233 -114 -327 -166
-1260 -706 -93 -54 -201 -116 -240 -138 -38 -22 -182 -105 -320 -185 -137 -80
-324 -188 -415 -240 -91 -52 -194 -114 -230 -137 -36 -23 -119 -75 -185 -115
-1381 -844 -2189 -1943 -2469 -3360 -34 -170 -67 -392 -81 -535 -4 -38 -11
-117 -17 -175 -15 -155 -23 -3143 -9 -3432 32 -653 143 -1091 353 -1395 169
-244 411 -382 727 -413 267 -27 652 55 1035 219 133 57 148 66 95 56 -47 -9
-81 8 -77 38 4 27 87 70 169 87 46 10 59 17 57 29 -3 14 -20 16 -118 16 -63
-1 -145 -3 -182 -5 -60 -4 -70 -2 -90 17 l-22 23 23 24 c13 14 38 30 55 36 26
8 189 29 234 30 17 0 15 25 -3 43 -8 9 -64 32 -124 52 -148 49 -198 97 -131
125 27 11 106 2 205 -26 19 -5 20 -1 17 41 -3 36 -12 54 -39 83 -94 99 -166
217 -200 328 -16 52 -18 97 -18 399 l0 340 31 90 32 89 -57 67 c-107 128 -164
246 -182 377 -6 47 -9 197 -7 368 l4 289 29 85 c38 111 122 235 223 332 l80
77 -11 43 c-7 27 -10 160 -10 358 1 352 6 388 70 515 61 123 145 222 276 324
l67 53 0 242 c0 482 36 697 160 951 91 189 251 366 455 504 55 38 186 118 290
178 105 60 298 172 430 248 518 299 593 341 656 368 l66 28 6 90 c13 173 89
332 215 450 58 54 170 123 736 448 366 211 664 387 660 390 -3 3 -36 24 -72
46 l-67 40 0 113 c0 61 1 367 3 680 l2 567 188 108 c523 300 787 455 787 462
0 14 -112 90 -192 130 -116 58 -242 86 -418 90 -82 2 -182 0 -222 -5z"/>
<path d="M29325 34424 c5 -307 4 -449 -5 -499 -22 -135 -89 -263 -190 -366
-53 -54 -104 -88 -288 -193 -122 -70 -224 -132 -227 -137 -3 -5 -82 -273 -175
-596 -94 -324 -173 -596 -177 -605 -7 -14 -21 -9 -104 40 l-97 57 -137 310
c-76 170 -139 312 -141 314 -4 4 -238 -128 -286 -161 l-26 -18 -4 -403 c-4
-368 -6 -411 -27 -510 -12 -60 -26 -118 -31 -131 -7 -20 -1 -26 73 -67 44 -24
108 -63 141 -86 l61 -42 25 32 c66 86 197 221 297 307 560 484 1128 528 1398
110 86 -133 146 -350 145 -525 l-1 -40 -255 -140 c-140 -77 -258 -141 -263
-143 -5 -1 -11 26 -15 60 -32 299 -214 451 -470 393 -92 -20 -226 -85 -316
-154 -95 -72 -253 -238 -246 -259 38 -118 47 -168 53 -297 6 -138 7 -140 39
-186 66 -92 124 -246 124 -331 l0 -38 62 40 c120 78 306 115 533 107 250 -9
428 -85 501 -212 9 -16 19 -3 72 91 369 657 575 1417 622 2294 11 217 14 1361
3 1767 l-6 262 -326 187 c-179 103 -330 189 -335 192 -5 3 -5 -183 -1 -424z"/>
<path d="M34016 34078 c-15 -22 -16 -130 -14 -1093 l3 -1068 1539 -888 c847
-489 1543 -889 1548 -889 4 0 8 22 8 49 0 43 -4 52 -27 69 -16 10 -691 401
-1500 868 l-1473 849 0 993 c0 545 2 992 5 992 3 0 676 -387 1495 -860 819
-473 1492 -860 1495 -860 3 0 5 24 5 54 l0 53 -1512 873 c-832 481 -1523 876
-1535 878 -14 3 -26 -4 -37 -20z"/>
<path d="M34310 32806 l0 -624 243 -140 c133 -77 258 -147 278 -155 103 -42
173 -27 210 45 28 52 38 203 19 291 -14 70 -58 160 -105 215 l-37 42 34 0 c68
0 98 59 98 194 0 223 -114 397 -345 527 -55 31 -166 95 -247 142 l-148 86 0
-623z m332 218 c62 -36 127 -80 145 -96 57 -55 83 -185 47 -237 -25 -34 -60
-24 -199 57 l-120 70 -3 136 c-1 83 1 136 7 136 5 0 61 -30 123 -66z m-3 -481
c171 -98 199 -129 220 -250 20 -106 -11 -182 -68 -168 -13 3 -80 39 -150 78
l-126 73 -3 167 c-1 92 0 167 4 167 4 0 59 -30 123 -67z"/>
<path d="M35470 32747 c0 -2 -63 -183 -141 -403 -77 -219 -158 -449 -179 -511
l-39 -112 96 -57 c53 -31 104 -59 114 -61 14 -4 24 16 54 106 l37 111 56 -32
c177 -100 278 -161 288 -171 6 -7 26 -75 44 -152 18 -77 36 -147 41 -156 4 -9
56 -44 115 -77 104 -61 106 -62 99 -35 -4 16 -81 334 -171 708 -90 374 -168
689 -173 700 -11 24 -241 160 -241 142z m184 -637 c31 -129 53 -236 51 -238
-6 -6 -235 128 -235 138 0 7 73 217 107 309 9 24 18 40 20 35 1 -5 27 -115 57
-244z"/>
<path d="M36172 31728 l3 -623 100 -57 100 -58 5 384 5 385 209 -508 209 -508
97 -57 c54 -31 100 -56 104 -56 3 0 5 279 4 621 l-3 621 -93 54 c-52 30 -98
54 -103 54 -5 0 -10 -161 -11 -385 l-3 -385 -208 513 -209 512 -96 55 c-53 30
-99 57 -104 58 -4 2 -7 -277 -6 -620z"/>
<path d="M29094 31623 c-97 -137 -181 -253 -187 -260 -6 -8 2 -26 27 -56 49
-60 85 -142 105 -241 l16 -83 230 128 230 128 -3 63 c-7 144 -42 279 -105 403
-33 67 -109 165 -127 165 -5 0 -88 -111 -186 -247z"/>
<path d="M17100 30532 c-43 -21 -80 -89 -80 -148 l0 -43 97 -55 97 -55 12 36
c13 38 29 53 54 53 30 0 95 -46 124 -88 25 -35 31 -55 34 -110 5 -80 -12 -109
-88 -147 -84 -43 -120 -106 -120 -210 l1 -50 83 -47 c46 -27 86 -48 90 -48 3
0 6 17 6 38 0 54 29 93 96 129 108 58 136 103 135 224 -1 184 -112 363 -293
471 -112 67 -186 82 -248 50z"/>
<path d="M36482 27535 l3 -2287 1160 -670 c638 -369 1166 -673 1173 -675 10
-4 12 13 10 78 l-3 83 -405 234 c-223 128 -615 355 -871 503 l-466 269 5 2198
5 2198 -274 158 c-151 87 -289 167 -307 178 l-32 20 2 -2287z"/>
<path d="M17227 29542 c-10 -11 -17 -36 -17 -61 0 -101 84 -201 169 -201 37 0
51 22 51 82 0 113 -147 243 -203 180z"/>
<path d="M17542 26614 c-35 -24 -88 -51 -119 -60 l-55 -16 6 -50 c4 -28 16
-68 26 -89 11 -20 23 -56 26 -79 l7 -43 325 -158 c178 -88 325 -159 327 -159
1 0 -13 51 -31 113 -19 61 -34 128 -34 147 0 31 -11 46 -92 127 -51 50 -104
97 -118 104 -14 7 -61 13 -105 13 -44 1 -86 5 -93 9 -14 9 -12 136 3 170 11
26 -4 20 -73 -29z"/>
<path d="M50350 26551 l-115 -67 -2 -435 c-6 -1494 -24 -8541 -21 -8544 2 -2
56 26 120 63 l116 66 6 251 c3 137 8 1476 11 2975 3 1499 8 3408 11 4243 4
893 3 1517 -2 1517 -5 -1 -61 -31 -124 -69z"/>
<path d="M17936 25038 c-42 -228 -57 -852 -31 -1273 9 -154 18 -281 19 -282 0
-1 127 309 280 688 153 379 277 691 275 693 -2 1 -33 11 -69 20 -76 20 -319
116 -402 157 -32 16 -59 29 -62 29 -2 0 -6 -15 -10 -32z"/>
<path d="M27171 24973 c-94 -250 -309 -837 -382 -1043 -118 -337 -189 -566
-275 -884 -113 -418 -141 -573 -131 -726 10 -153 136 -647 252 -988 97 -284
162 -433 365 -839 161 -323 184 -373 166 -373 -12 0 -111 7 -221 16 -232 18
-300 14 -381 -26 -114 -54 -183 -155 -184 -266 0 -127 56 -209 184 -270 101
-48 186 -64 351 -64 179 0 243 -14 409 -89 167 -75 233 -94 321 -94 55 0 84 5
126 25 127 58 170 130 177 299 7 159 -26 307 -79 355 -13 12 -19 31 -19 61 0
23 -9 89 -20 146 -11 56 -28 147 -38 202 -36 194 -224 1050 -263 1199 -93 353
-159 620 -159 640 0 26 107 327 162 456 152 358 472 884 659 1084 l66 70 136
-320 c214 -504 348 -847 467 -1204 81 -239 97 -304 145 -580 20 -113 54 -281
76 -375 21 -93 39 -170 39 -171 0 -1 -36 -3 -79 -6 -134 -8 -245 -77 -297
-187 -23 -46 -30 -138 -14 -187 15 -48 78 -144 94 -143 6 0 100 53 210 117
l198 117 2 60 c3 87 41 151 139 234 78 66 137 140 137 171 0 41 34 109 78 153
26 27 102 91 170 144 77 60 121 101 118 109 -14 36 -169 667 -196 799 -72 350
-131 746 -175 1180 -30 302 -60 526 -112 857 l-37 238 -30 -63 c-100 -209
-327 -290 -816 -290 -319 0 -574 44 -837 143 -237 89 -404 225 -445 362 -6 21
-14 38 -17 38 -4 0 -21 -39 -40 -87z"/>
<path d="M31394 25045 c-286 -52 -533 -235 -623 -461 -24 -62 -51 -190 -51
-241 1 -55 32 -117 66 -131 18 -7 123 -12 279 -14 247 -3 251 -3 305 -29 30
-15 84 -52 118 -83 129 -114 242 -176 321 -176 47 0 57 11 66 75 11 77 28 110
68 128 102 49 177 -7 177 -130 0 -72 -23 -124 -90 -208 -28 -36 -50 -73 -50
-87 0 -59 -49 -190 -150 -398 -60 -124 -118 -255 -129 -291 -61 -205 -44 -355
65 -570 90 -176 213 -253 328 -205 43 18 64 64 72 157 16 207 60 330 176 503
33 48 69 109 81 135 28 62 27 159 -3 291 -28 128 -30 240 -10 572 11 182 11
265 3 357 -10 114 -13 125 -61 224 -28 57 -70 125 -95 153 -24 27 -59 78 -78
114 -55 106 -124 167 -269 239 -77 38 -152 67 -195 76 -85 18 -225 18 -321 0z"/>
<path d="M36908 24195 c-62 -39 -111 -104 -129 -169 -25 -90 -28 -198 -28
-841 0 -711 2 -745 48 -885 75 -223 243 -458 404 -565 29 -19 399 -235 822
-479 l770 -444 197 -509 c109 -279 300 -772 425 -1094 125 -324 232 -585 238
-583 5 3 22 21 36 42 25 37 579 814 732 1030 44 61 85 112 91 112 6 0 25 -9
41 -20 17 -12 44 -27 61 -34 25 -11 651 -371 1405 -808 104 -60 171 -80 259
-76 96 4 158 33 205 96 72 93 69 63 73 892 3 829 4 819 -64 995 -68 176 -185
345 -318 457 -41 35 -148 105 -242 160 -93 53 -254 145 -359 206 -512 296
-663 383 -810 467 -88 51 -203 117 -255 147 -217 126 -417 242 -610 353 -207
119 -326 188 -610 352 -400 231 -567 327 -715 413 -157 91 -437 253 -685 395
-69 39 -228 132 -355 205 -126 73 -248 144 -271 157 -72 41 -152 63 -228 63
-65 0 -77 -3 -128 -35z m1140 -907 c59 -34 135 -81 168 -104 155 -109 235
-255 276 -509 20 -126 17 -613 -5 -740 -21 -118 -57 -205 -104 -245 -73 -65
-126 -55 -325 59 l-153 87 -3 745 c-1 409 0 750 3 757 8 22 35 13 143 -50z
m820 -890 c96 -47 164 -115 211 -208 53 -107 65 -185 58 -390 -6 -174 -11
-210 -32 -210 -7 0 -81 34 -164 75 -168 83 -161 84 -140 -17 13 -61 39 -116
65 -140 35 -31 119 -67 185 -79 l67 -12 6 -51 c10 -88 7 -143 -10 -160 -35
-36 -147 -7 -269 69 -176 109 -255 268 -275 554 -10 135 1 345 21 427 41 167
131 214 277 142z m1230 -288 c65 -47 77 -78 77 -196 0 -86 -3 -105 -19 -123
-43 -48 -131 -7 -169 78 -28 62 -31 204 -4 244 23 36 63 35 115 -3z m-679 -42
c48 -18 122 -56 172 -90 128 -86 186 -164 208 -283 7 -37 11 -223 11 -497 0
-405 -1 -438 -17 -438 -9 0 -59 23 -110 52 l-93 51 0 411 c0 226 -5 429 -10
451 -11 50 -59 95 -100 95 l-30 0 0 -430 c0 -321 -3 -430 -12 -430 -6 0 -53
24 -105 53 l-93 52 0 524 0 523 47 -7 c26 -4 85 -21 132 -37z m665 -394 c39
-20 77 -41 84 -46 16 -14 18 -1073 1 -1083 -5 -4 -54 18 -107 47 l-97 55 -3
512 c-1 342 1 518 8 531 15 28 32 25 114 -16z m1347 -265 l79 -41 0 -784 c0
-747 -1 -784 -18 -784 -43 0 -141 34 -226 77 -259 134 -346 338 -333 778 9
306 58 425 174 425 53 0 91 -18 149 -72 l44 -41 0 230 c0 232 3 253 38 253 8
0 50 -19 93 -41z m-844 -4 c115 -57 210 -173 242 -293 25 -90 32 -214 21 -349
-11 -140 -16 -163 -33 -163 -6 0 -76 33 -156 72 -81 40 -150 74 -155 77 -10 4
0 -64 20 -135 24 -89 125 -159 255 -178 44 -7 47 -9 53 -44 12 -75 7 -160 -11
-177 -27 -28 -104 -13 -211 41 -115 58 -192 130 -244 230 -60 115 -79 209 -85
425 -8 281 17 421 87 491 34 35 42 38 92 38 43 0 71 -8 125 -35z"/>
<path d="M38120 22487 l0 -535 25 -16 c74 -49 99 26 116 350 20 367 -10 623
-78 685 -69 62 -63 111 -63 -484z"/>
<path d="M38825 22166 c-19 -28 -38 -138 -33 -192 3 -35 7 -41 58 -66 85 -43
83 -46 79 98 l-4 126 -33 29 c-39 35 -47 36 -67 5z"/>
<path d="M41205 20787 c-26 -40 -38 -179 -32 -372 7 -244 24 -295 105 -320
l22 -6 0 344 0 345 -25 16 c-33 22 -52 20 -70 -7z"/>
<path d="M40535 21177 c-8 -13 -19 -57 -25 -98 -17 -131 -19 -126 55 -161 37
-17 69 -27 73 -23 12 12 7 198 -7 237 -12 37 -43 68 -68 68 -7 0 -19 -11 -28
-23z"/>
<path d="M16083 23888 c-34 -84 -222 -544 -418 -1023 -196 -478 -381 -928
-410 -1000 -78 -192 -149 -365 -284 -694 -67 -162 -120 -296 -118 -297 1 -1
328 186 727 417 399 230 730 419 736 419 16 0 74 -323 77 -425 1 -50 -4 -209
-12 -355 -14 -274 -11 -516 10 -795 l12 -150 -116 -232 c-156 -315 -247 -548
-247 -636 0 -24 -20 -49 -108 -136 -61 -59 -117 -124 -127 -146 -29 -63 -31
-142 -5 -203 43 -100 136 -157 335 -206 133 -33 215 -72 287 -136 146 -130
309 -195 428 -169 97 21 190 141 190 245 0 69 -41 127 -133 186 l-48 31 68 36
c37 20 97 56 133 81 88 60 166 86 307 104 166 20 264 59 346 135 54 51 70 85
69 155 0 142 -67 246 -158 246 -28 0 -451 -63 -500 -75 -20 -4 -21 0 -27 93
-4 53 -7 152 -7 219 l0 123 163 267 c215 352 390 634 438 704 46 68 66 136
119 404 69 349 109 677 131 1055 13 234 7 866 -9 882 -7 7 -12 0 -17 -20 -9
-41 -38 -65 -125 -105 -89 -41 -169 -62 -310 -81 -313 -43 -665 -46 -853 -6
-228 48 -424 149 -473 243 -13 23 -14 99 -9 512 3 267 5 485 3 485 -2 0 -31
-69 -65 -152z"/>
<path d="M23325 21372 c-27 -10 -252 -135 -500 -278 -247 -144 -1210 -701
-2140 -1239 -929 -538 -2115 -1224 -2635 -1525 -520 -301 -1251 -724 -1625
-940 -374 -216 -697 -409 -718 -429 -52 -50 -417 -574 -435 -625 -34 -98 -9
-244 59 -343 66 -96 2329 -2802 2414 -2887 106 -105 218 -196 345 -281 126
-84 6757 -3940 6837 -3976 334 -150 806 -196 1209 -118 120 23 291 75 388 118
67 30 6365 3673 6481 3749 185 120 295 263 325 421 13 71 13 856 0 958 -21
156 -127 314 -280 419 -39 26 -234 143 -433 259 l-362 211 -1 139 c0 119 -3
145 -20 175 l-19 35 -2 -60 c-3 -74 -22 -217 -31 -232 -4 -6 -82 33 -202 103
-107 62 -245 143 -307 179 l-112 65 -6 57 c-11 100 -59 201 -115 240 -22 16
-23 16 -15 -3 27 -64 34 -95 34 -144 1 -30 -3 -61 -7 -67 -10 -15 154 -109
-3021 1737 l-2416 1405 -140 175 c-77 96 -569 713 -1092 1370 -933 1172 -972
1219 -1075 1283 -99 62 -280 85 -383 49z m250 -789 c59 -19 110 -50 152 -91
36 -37 1105 -1388 1150 -1454 46 -69 70 -182 55 -267 -14 -83 -60 -176 -114
-228 -30 -29 -991 -590 -3238 -1889 -1757 -1016 -3222 -1858 -3254 -1872 -113
-46 -224 -40 -337 20 -31 16 -72 46 -92 66 -72 76 -1147 1447 -1167 1489 -73
156 -36 354 89 465 30 27 1201 709 3137 1828 1698 982 3146 1818 3216 1858
179 103 267 119 403 75z m6350 -5052 c82 -37 931 -534 953 -558 20 -22 22 -33
22 -153 0 -128 0 -130 -27 -159 -16 -16 -237 -149 -493 -296 -510 -293 -527
-301 -631 -277 -60 14 -969 536 -1006 578 -21 23 -23 35 -23 145 0 83 4 128
14 147 10 20 132 95 482 297 257 149 481 275 498 282 49 18 165 15 211 -6z
m1546 -895 c19 -7 123 -63 230 -126 223 -130 361 -210 576 -334 83 -48 160
-97 170 -108 16 -17 18 -38 18 -153 0 -116 -2 -136 -19 -153 -10 -12 -234
-145 -497 -297 -427 -247 -484 -277 -533 -282 -110 -11 -114 -9 -617 283 -261
151 -482 284 -491 295 -15 18 -18 42 -18 154 0 112 3 136 18 153 20 25 944
559 987 571 45 13 135 12 176 -3z m-7384 -2450 c22 -8 127 -65 234 -127 107
-61 237 -137 289 -167 98 -57 1823 -1055 1942 -1124 96 -55 98 -59 98 -210 0
-118 -2 -129 -22 -152 -13 -13 -237 -147 -498 -298 l-475 -273 -100 0 -100 0
-1250 724 c-687 398 -1260 733 -1272 745 -20 19 -22 32 -24 159 -2 125 -1 140
17 157 27 27 948 558 987 569 49 14 130 13 174 -3z"/>
<path d="M29654 21031 c-57 -27 -62 -31 -68 -70 -4 -28 -14 -46 -32 -57 -24
-16 -26 -16 -56 6 l-31 23 -34 -36 c-39 -43 -40 -55 -13 -90 24 -30 190 -131
252 -153 52 -18 124 -18 177 1 62 21 248 133 271 162 25 32 25 44 0 76 -24 30
-190 131 -252 153 -67 23 -144 18 -214 -15z m191 -97 c83 -44 118 -74 105 -90
-16 -18 -146 -93 -176 -100 -16 -4 -44 5 -91 31 -78 42 -105 65 -95 81 12 18
166 104 187 104 11 0 43 -12 70 -26z"/>
<path d="M29809 20585 c-360 -50 -661 -94 -668 -96 -6 -2 14 -19 46 -37 l57
-33 686 96 c377 54 687 99 688 100 9 8 -106 65 -128 64 -14 -1 -320 -43 -681
-94z"/>
<path d="M47970 20028 l0 -523 771 -445 c425 -245 776 -447 780 -448 5 -2 8
220 7 519 l-3 522 -760 439 c-418 242 -768 444 -777 449 -17 9 -18 -18 -18
-513z"/>
<path d="M29923 20455 c-51 -15 -229 -115 -273 -151 -39 -33 -40 -71 -2 -106
44 -42 221 -136 279 -149 75 -17 133 -2 257 69 220 124 222 159 11 276 -134
74 -191 87 -272 61z m156 -127 c66 -37 91 -57 91 -72 0 -19 -158 -106 -191
-106 -31 0 -147 58 -169 85 -6 8 -9 19 -5 25 13 21 161 100 189 100 16 0 54
-14 85 -32z"/>
<path d="M30795 20260 c-116 -68 -106 -44 -125 -293 -16 -196 -8 -776 14
-1092 9 -121 25 -398 36 -615 42 -810 75 -1184 110 -1251 25 -46 164 -102 341
-138 309 -63 547 -65 879 -10 254 43 419 116 456 204 7 17 31 191 54 386 22
195 59 480 81 633 73 519 103 887 103 1296 1 343 -10 439 -76 637 l-40 121
-141 -2 -142 -2 -118 -47 c-159 -64 -174 -67 -187 -33 -19 51 21 109 110 160
l45 26 -35 0 c-19 0 -82 -5 -142 -12 -99 -11 -109 -11 -127 6 -19 17 -23 17
-98 1 -104 -23 -391 -31 -520 -15 -148 18 -231 37 -302 70 -35 17 -66 30 -70
29 -3 0 -51 -27 -106 -59z"/>
<path d="M44922 20260 c-54 -28 -111 -93 -137 -156 -19 -48 -20 -75 -23 -1009
-3 -1066 -5 -1035 63 -1202 46 -114 94 -198 164 -286 102 -128 157 -168 528
-383 233 -135 352 -209 360 -225 6 -13 117 -393 247 -844 276 -965 300 -1042
312 -1035 5 3 50 97 100 210 229 516 435 981 444 1005 5 14 12 25 14 25 3 0
31 -15 63 -34 32 -18 96 -54 143 -78 47 -25 171 -95 275 -155 220 -127 282
-153 364 -153 152 0 243 84 271 250 7 44 10 363 8 1010 l-3 945 -28 90 c-56
178 -155 343 -280 467 -77 77 -109 99 -307 213 -74 43 -164 94 -200 115 -108
63 -350 203 -840 485 -256 148 -535 309 -620 358 -85 49 -213 123 -285 165
-71 41 -171 99 -221 128 -151 89 -199 107 -289 112 -67 3 -87 0 -123 -18z
m869 -801 c49 -25 30 6 384 -607 197 -341 287 -487 298 -486 9 1 137 72 286
158 265 153 271 156 329 156 118 0 191 -92 168 -214 -4 -20 -18 -49 -32 -65
-14 -16 -149 -102 -305 -192 l-280 -161 24 -42 c469 -810 590 -1025 594 -1057
16 -116 -58 -202 -173 -202 -58 0 -111 26 -139 69 -9 15 -150 257 -312 538
-162 281 -296 512 -298 514 -1 2 -115 -62 -252 -142 -138 -79 -268 -153 -291
-165 -88 -45 -195 -12 -239 74 -21 39 -20 122 1 162 22 44 45 59 339 227 141
82 257 152 257 157 0 5 -138 248 -306 540 -299 517 -307 532 -307 585 0 131
136 214 254 153z"/>
<path d="M53063 19947 l-93 -52 0 -773 0 -773 63 36 c34 20 77 43 95 52 l32
17 0 773 c0 425 -1 773 -2 773 -2 0 -45 -24 -95 -53z"/>
<path d="M51775 19204 l-90 -53 3 -771 2 -771 54 30 c29 17 56 31 60 31 3 0 7
-202 8 -450 l3 -449 92 52 93 52 0 453 0 453 -55 -31 -55 -31 0 770 c0 611 -3
771 -12 770 -7 -1 -53 -25 -103 -55z"/>
<path d="M38805 18620 c-456 -50 -756 -398 -815 -945 -6 -60 -10 -138 -8 -173
l3 -63 365 -194 365 -195 7 95 c38 514 416 705 897 454 492 -257 920 -888
1004 -1483 l12 -89 355 -189 c195 -104 361 -192 369 -195 30 -13 -13 313 -70
541 -291 1153 -1257 2239 -2147 2415 -119 23 -244 31 -337 21z m325 -67 c199
-39 449 -148 655 -284 471 -311 889 -795 1175 -1360 196 -386 310 -753 355
-1137 l6 -54 -123 66 c-530 281 -512 271 -520 307 -4 19 -16 84 -28 144 -56
291 -196 593 -407 878 -96 129 -311 343 -428 425 -108 77 -282 164 -385 192
-300 84 -551 -14 -675 -263 -25 -49 -45 -95 -45 -103 0 -8 -3 -14 -7 -14 -5 0
-123 100 -264 223 -141 122 -280 243 -310 268 l-54 46 19 59 c113 365 378 593
731 628 65 6 224 -4 305 -21z"/>
<path d="M11268 17744 c-183 -33 -395 -149 -464 -254 -48 -72 -70 -215 -37
-241 22 -19 184 -15 242 5 59 22 109 20 149 -4 34 -21 62 -72 62 -113 0 -53
22 -87 77 -123 50 -32 58 -43 98 -129 53 -115 78 -132 169 -121 54 7 56 9 75
51 23 51 44 65 104 65 33 0 49 -6 66 -24 45 -48 36 -147 -19 -210 -36 -40 -41
-77 -10 -69 51 14 151 166 196 301 31 92 32 94 84 124 197 112 267 366 154
555 -45 74 -71 101 -136 140 -109 66 -241 78 -358 34 -49 -19 -57 -19 -96 -6
-106 36 -228 42 -356 19z"/>
<path d="M50628 16992 l-98 -56 0 -454 c0 -250 4 -452 8 -450 4 2 49 27 100
56 l92 54 0 454 c0 250 -1 454 -2 453 -2 0 -47 -26 -100 -57z"/>
<path d="M53698 16239 l-88 -51 0 -769 c0 -423 3 -769 6 -769 4 0 46 23 95 51
l89 51 0 769 c0 423 -3 769 -7 769 -5 0 -47 -23 -95 -51z"/>
<path d="M52418 15501 l-98 -56 0 -773 0 -773 58 32 c31 18 77 45 102 59 l45
26 3 764 c1 420 -1 767 -5 770 -5 4 -52 -18 -105 -49z"/>
<path d="M44976 15109 c-96 -13 -238 -62 -320 -111 -88 -52 -214 -172 -272
-259 -123 -185 -194 -435 -197 -693 l-2 -118 355 -190 c195 -104 360 -192 366
-194 8 -4 14 23 18 78 11 132 33 217 77 306 86 176 240 272 436 272 263 0 613
-204 879 -513 277 -322 467 -723 516 -1087 l12 -90 285 -151 c157 -84 323
-172 369 -196 l82 -45 0 51 c0 204 -91 600 -206 894 -258 661 -697 1252 -1228
1651 -244 183 -539 324 -788 376 -113 23 -288 32 -382 19z m380 -70 c270 -58
577 -217 864 -445 118 -94 408 -387 514 -519 93 -117 283 -397 358 -530 161
-283 287 -596 362 -895 36 -140 83 -426 73 -437 -3 -3 -120 55 -259 130 -139
74 -281 149 -315 167 -60 31 -62 34 -68 79 -61 437 -297 901 -630 1236 -434
437 -928 549 -1198 272 -54 -54 -95 -124 -143 -244 -8 -20 -34 0 -319 248
-170 148 -311 273 -313 278 -6 17 69 206 110 279 47 82 153 202 226 256 193
142 456 186 738 125z"/>
<path d="M10470 13838 c-58 -38 -165 -106 -237 -150 -73 -45 -133 -84 -133
-89 0 -9 378 -229 394 -229 6 0 21 7 33 15 12 9 90 43 174 76 183 72 209 85
209 104 0 8 -15 22 -32 31 -130 66 -262 186 -287 261 l-16 49 -105 -68z"/>
<path d="M11870 13613 c-136 -78 -434 -227 -564 -281 -94 -39 -122 -46 -182
-47 -60 -1 -77 -5 -102 -26 -16 -13 -57 -44 -91 -68 -43 -31 -58 -47 -49 -52
7 -5 162 -95 344 -201 l330 -192 -5 -34 c-6 -34 -17 -41 -601 -379 -327 -189
-602 -342 -610 -339 -8 2 -337 191 -730 420 l-715 417 -48 -53 c-58 -64 -97
-140 -97 -189 0 -46 12 -51 94 -43 90 9 133 -18 208 -127 73 -106 239 -283
309 -332 30 -20 101 -56 159 -80 164 -68 301 -156 402 -258 64 -65 102 -77
209 -65 145 15 269 81 423 226 124 116 186 150 419 229 378 129 653 283 822
463 84 89 151 213 185 343 32 118 38 360 15 561 -10 85 -20 156 -24 158 -3 2
-49 -20 -101 -51z"/>
<path d="M9323 13598 c-13 -6 -23 -14 -23 -17 0 -4 26 -22 57 -40 54 -31 59
-32 83 -17 35 21 31 37 -15 63 -44 25 -68 27 -102 11z"/>
<path d="M9457 13521 l-28 -18 51 -32 c28 -17 56 -32 63 -34 7 -1 14 -5 17 -8
3 -4 29 -21 57 -38 54 -33 79 -35 104 -5 17 21 -17 46 -53 39 -21 -3 -28 0
-33 16 -5 14 -13 19 -25 16 -11 -3 -17 1 -16 11 1 17 -70 71 -94 72 -8 0 -28
-9 -43 -19z"/>
<path d="M10116 13409 c-65 -37 -123 -72 -128 -77 -6 -6 41 -39 131 -91 l140
-81 53 53 c29 29 75 71 101 93 l48 39 -113 66 -114 66 -118 -68z"/>
<path d="M9712 13366 c-27 -14 -25 -17 50 -60 46 -26 49 -26 73 -10 31 20 28
32 -15 62 -37 25 -74 28 -108 8z"/>
<path d="M38531 13330 c-23 -17 -67 -36 -99 -44 -56 -12 -57 -13 -57 -47 0
-31 3 -35 35 -43 51 -12 110 7 164 55 50 44 56 66 28 92 -24 22 -22 22 -71
-13z"/>
<path d="M9847 13292 l-28 -19 58 -34 c41 -24 64 -46 79 -74 29 -57 62 -66
122 -35 26 14 47 31 47 39 0 15 -210 141 -235 141 -8 0 -28 -8 -43 -18z"/>
<path d="M10407 13168 c-37 -24 -67 -46 -67 -50 0 -4 18 -17 39 -28 l39 -19
24 32 c44 57 62 107 40 107 -4 0 -38 -19 -75 -42z"/>
<path d="M10097 13129 c-24 -13 -37 -26 -35 -36 3 -17 471 -293 496 -293 23 0
103 52 99 64 -2 6 -28 26 -57 43 l-54 33 -22 -21 c-34 -32 -57 -19 -48 28 l6
38 -35 -34 c-50 -48 -72 -38 -64 29 l6 50 -47 27 c-25 15 -60 27 -77 28 -22 0
-30 5 -30 18 0 22 -40 46 -75 46 -14 0 -42 -9 -63 -20z"/>
<path d="M10006 13048 c14 -46 35 -88 43 -88 14 0 76 45 75 55 0 15 -76 55
-102 55 -19 0 -22 -4 -16 -22z"/>
<path d="M10105 12980 c-67 -42 -67 -46 2 -87 l46 -27 53 29 c30 16 54 32 54
36 0 17 -86 70 -112 68 -7 0 -26 -9 -43 -19z"/>
<path d="M10228 12897 c-21 -12 -40 -28 -42 -34 -6 -15 71 -63 100 -63 31 0
105 43 102 60 -4 18 -76 60 -103 59 -11 0 -37 -10 -57 -22z"/>
<path d="M10080 12871 c0 -5 9 -30 21 -55 l20 -47 32 19 c45 26 44 44 -2 70
-40 23 -71 29 -71 13z"/>
<path d="M10632 12823 c-24 -14 -42 -32 -40 -40 2 -8 24 -26 51 -40 l47 -26
48 26 c26 14 48 32 50 41 3 15 -73 66 -99 66 -8 -1 -33 -12 -57 -27z"/>
<path d="M10359 12817 c-19 -12 -34 -29 -34 -36 0 -8 21 -26 48 -40 l47 -26
48 26 c26 14 48 33 50 41 3 17 -67 58 -100 58 -14 0 -40 -10 -59 -23z"/>
<path d="M10168 12784 c-47 -30 -48 -49 -3 -75 40 -24 44 -29 15 -22 -24 6
-25 1 -4 -54 18 -47 28 -51 62 -27 29 20 28 38 -4 53 -25 11 -25 11 33 42 32
17 60 32 62 34 13 14 -80 76 -111 74 -7 0 -30 -11 -50 -25z"/>
<path d="M10505 12750 c-38 -24 -55 -39 -55 -49 0 -4 18 -17 40 -30 22 -12 40
-23 40 -25 0 -1 -13 -1 -29 2 -37 5 -113 -35 -109 -58 2 -8 24 -26 49 -40 47
-24 47 -24 88 -5 64 28 71 43 36 71 -20 16 -25 24 -14 24 8 0 37 14 63 30 54
35 52 46 -15 81 -46 23 -55 23 -94 -1z"/>
<path d="M10762 12744 c-24 -14 -41 -31 -39 -37 5 -15 213 -137 233 -137 20 0
104 49 104 60 0 18 -207 140 -237 140 -10 0 -37 -12 -61 -26z"/>
<path d="M10298 12707 c-21 -12 -40 -28 -42 -34 -6 -15 71 -63 100 -63 27 0
104 42 104 57 0 16 -81 63 -106 63 -10 -1 -36 -11 -56 -23z"/>
<path d="M10628 12667 c-21 -12 -40 -28 -42 -34 -6 -15 71 -63 100 -63 27 0
104 42 104 57 0 16 -81 63 -106 63 -10 -1 -36 -11 -56 -23z"/>
<path d="M10243 12598 c-48 -29 -45 -53 12 -93 20 -14 19 -14 -2 -8 l-23 5 21
-48 c12 -27 23 -50 24 -52 1 -1 14 3 29 9 33 15 33 34 1 55 l-24 16 59 31 c33
16 60 34 60 39 0 12 -91 68 -109 67 -9 0 -31 -10 -48 -21z"/>
<path d="M10758 12588 c-40 -23 -46 -36 -25 -57 6 -8 -16 2 -50 20 l-61 34
-44 -24 c-40 -23 -57 -38 -58 -52 0 -3 18 -15 40 -28 22 -12 40 -25 40 -27 0
-5 -97 47 -135 73 -27 18 -48 16 -92 -9 -43 -25 -56 -39 -44 -51 17 -17 215
-127 228 -127 19 0 90 37 99 52 4 6 -5 21 -22 36 l-29 25 38 -22 c48 -26 47
-27 102 6 51 31 55 43 23 67 -20 13 -17 13 16 -1 38 -17 39 -17 85 8 25 15 46
32 46 40 0 19 -63 59 -94 59 -14 0 -43 -10 -63 -22z"/>
<path d="M10318 12409 c-43 -22 -42 -20 -26 -54 11 -24 112 -95 136 -95 20 0
102 52 102 65 0 12 -149 106 -167 105 -4 -1 -25 -10 -45 -21z"/>
<path d="M38823 12218 c-141 -228 -214 -438 -242 -703 -37 -343 -33 -734 14
-1365 14 -184 32 -531 40 -770 9 -239 20 -525 24 -635 10 -255 20 -282 126
-350 119 -77 367 -124 703 -132 261 -7 437 7 667 52 320 63 460 129 616 291
91 95 134 157 162 232 18 49 21 78 21 207 0 306 -80 774 -212 1245 -56 201
-68 269 -82 505 -11 182 -41 504 -65 700 -8 66 -21 185 -30 264 -16 156 -36
243 -64 280 l-18 24 -284 -11 c-616 -24 -996 37 -1244 199 -42 27 -77 49 -78
49 -1 0 -25 -37 -54 -82z"/>
<path d="M10134 10500 c26 -32 46 -87 46 -131 0 -70 -33 -140 -134 -283 -20
-27 -54 -97 -77 -155 -53 -133 -91 -195 -142 -232 -47 -34 -77 -37 -101 -10
-31 34 -30 88 4 216 29 112 54 330 35 313 -4 -3 -16 -57 -26 -120 -11 -62 -38
-183 -60 -268 -66 -248 -89 -350 -95 -431 -6 -71 -5 -77 17 -98 53 -50 229 -5
382 99 143 97 175 161 161 320 -21 228 -12 270 75 366 53 57 71 106 71 185 0
91 -67 205 -142 245 -40 21 -43 17 -14 -16z"/>
<path d="M9402 10183 c-12 -33 -52 -111 -89 -174 -53 -89 -91 -137 -173 -220
-144 -147 -209 -176 -287 -128 -48 30 -66 71 -61 136 4 41 22 89 83 211 43 86
81 162 83 167 24 52 -161 -219 -248 -364 -34 -57 -88 -156 -119 -219 -51 -106
-56 -122 -56 -183 0 -52 5 -74 21 -96 34 -46 80 -65 155 -61 151 8 280 116
404 342 80 145 126 205 199 259 79 60 103 86 124 136 38 88 37 182 -1 235 -12
17 -15 13 -35 -41z"/>
<path d="M47936 9481 c-252 -218 -617 -366 -1016 -412 -125 -14 -310 -7 -395
16 -128 33 -244 110 -310 204 -15 23 -30 40 -32 38 -2 -3 -10 -51 -18 -108 -7
-57 -37 -225 -65 -374 -207 -1095 -260 -1809 -185 -2493 23 -207 48 -249 188
-316 140 -67 312 -96 572 -96 458 0 987 143 1490 404 299 155 447 256 517 352
83 115 77 183 -26 323 -86 117 -90 148 -112 808 -6 201 -8 212 -25 203 -29
-16 -37 -12 -44 23 -18 88 -29 85 -45 -12 -13 -78 -29 -107 -54 -98 -15 6 -21
35 -17 84 3 45 -19 32 -50 -29 -38 -76 -56 -98 -81 -98 -25 0 -23 28 7 124 14
43 23 81 20 85 -4 3 -37 -27 -74 -67 -37 -39 -72 -72 -78 -72 -6 0 -17 7 -24
16 -11 14 -9 24 15 68 67 118 85 159 97 210 13 58 7 111 -16 142 -12 17 -15
17 -29 4 -8 -8 -24 -46 -35 -85 -25 -86 -43 -113 -88 -132 -62 -25 -80 14 -42
89 13 26 24 73 29 128 9 96 13 107 75 195 70 99 70 101 46 154 -14 30 -41 165
-81 400 -32 194 -61 355 -63 358 -3 2 -25 -14 -51 -36z"/>
<path d="M48497 8703 c-10 -10 -7 -43 8 -88 l13 -40 1 68 c1 62 -5 78 -22 60z"/>
<path d="M39770 6856 c-93 -39 -283 -132 -320 -155 l-35 -23 55 5 c30 3 90 19
133 36 85 34 147 40 171 15 34 -33 9 -72 -98 -157 -178 -140 -319 -208 -475
-227 -135 -18 -217 8 -252 78 l-16 32 -12 -57 c-16 -83 -14 -262 4 -314 32
-90 101 -126 219 -117 82 7 155 41 231 108 91 80 147 114 315 191 146 67 290
151 290 169 0 23 -72 398 -80 418 -13 29 -57 29 -130 -2z"/>
<path d="M40655 6080 c-38 -4 -63 -7 -55 -8 8 -2 76 -11 150 -21 143 -19 194
-37 211 -75 20 -43 -10 -78 -111 -130 -130 -67 -253 -97 -405 -99 -232 -1
-373 52 -465 176 l-35 48 -25 -53 c-29 -64 -38 -168 -19 -236 17 -63 79 -124
148 -147 84 -28 209 -17 346 29 105 36 118 38 300 46 105 5 211 13 237 19 138
32 290 116 327 181 25 45 26 78 6 127 -20 47 -41 71 -85 93 -70 36 -368 64
-525 50z"/>
<path d="M49428 4692 c-6 -97 -39 -175 -126 -292 -73 -98 -100 -147 -148 -273
-74 -195 -160 -313 -244 -338 -102 -31 -138 80 -85 261 25 87 55 246 54 284 0
11 -22 -40 -48 -114 -26 -74 -69 -184 -96 -245 -145 -333 -215 -524 -215 -589
0 -67 53 -106 142 -106 169 1 409 90 527 196 86 77 100 121 116 343 16 229 30
271 116 342 84 70 110 100 138 159 34 73 36 197 4 278 -23 56 -72 127 -109
155 l-21 16 -5 -77z"/>
<path d="M47368 4284 c2 -52 -1 -98 -9 -115 -27 -67 -151 -147 -322 -210 -45
-17 -123 -52 -174 -80 -109 -59 -182 -79 -281 -79 -114 0 -171 41 -193 139
-20 89 26 147 193 239 62 34 131 78 153 97 l40 35 -50 -21 c-107 -45 -396
-189 -510 -254 -229 -130 -302 -188 -341 -270 -44 -92 -28 -172 45 -238 84
-76 211 -107 356 -88 137 19 222 52 434 173 166 94 255 127 427 158 64 11 134
30 156 41 56 28 135 105 161 154 28 55 35 182 13 258 -15 52 -68 136 -91 144
-6 2 -9 -29 -7 -83z"/>
</g>
</svg>
