<?xml version="1.0" encoding="utf-8"?>
<!-- Generator: Adobe Illustrator 27.5.0, SVG Export Plug-In . SVG Version: 6.00 Build 0)  -->
<svg version="1.1" xmlns="http://www.w3.org/2000/svg" xmlns:xlink="http://www.w3.org/1999/xlink" x="0px" y="0px"
	 viewBox="0 0 750 500" style="enable-background:new 0 0 750 500;" xml:space="preserve">
<g id="BACKGROUND">
	<g>
		<g>
			<rect y="0.001" style="fill:none;" width="750" height="500.001"/>
		</g>
	</g>
	<rect y="410.381" style="fill:none;" width="750" height="89.621"/>
</g>
<g id="OBJECTS">
	<g>
		<g>
			<g>
				<path style="fill:#AAE2D3;" d="M661.93,419.513l-561.985-1.867c-1.933,0-3.5-1.567-3.5-3.5c0-1.933,1.567-3.5,3.5-3.5
					l561.985,1.867c1.933,0,3.5,1.567,3.5,3.5C665.43,417.945,663.863,419.513,661.93,419.513z"/>
			</g>
			<g>
				<g>
					<path style="fill:#289E7F;" d="M449.951,149.163l126.352-0.075c3.611-0.002,6.741,2.884,6.743,6.735l0.15,251.501
						c0.002,3.61-2.884,6.741-6.736,6.743l-126.352,0.075c-3.61,0.003-6.741-2.884-6.743-6.735l-0.149-251.501
						C443.215,152.055,446.101,149.165,449.951,149.163z"/>
					<path style="fill:#2FB293;" d="M512.891,149.163l126.352-0.075c3.611-0.002,6.741,2.884,6.743,6.735l0.15,251.501
						c0.002,3.61-2.884,6.741-6.735,6.743l-126.352,0.075c-3.61,0.003-6.741-2.884-6.743-6.735l-0.15-251.501
						C506.154,152.055,509.04,149.165,512.891,149.163z"/>
					<g>
						<path style="fill:#60D8B9;" d="M567.322,370.788c0.003,4.965,3.802,8.759,8.768,8.757c4.965-0.003,8.76-3.803,8.757-8.768
							c-0.003-4.965-3.802-8.76-8.768-8.758C571.114,362.023,567.319,366.115,567.322,370.788z"/>
						<path style="fill:#60D8B9;" d="M584.729,192.443c-0.003-4.965-3.802-8.76-8.768-8.758c-4.965,0.003-8.76,3.803-8.757,8.768
							c0.003,4.965,3.802,8.76,8.768,8.757C580.937,201.207,584.732,197.408,584.729,192.443z"/>
					</g>
					<path style="fill:#60D8B9;" d="M506.241,190.533c23.471-0.016,41.41-17.975,41.396-41.445h-34.79
						c-3.648,0-6.606,2.958-6.606,6.606V190.533z"/>
					<path style="fill:#60D8B9;" d="M639.416,149.088h-34.592c-0.014,23.47,17.925,41.43,41.396,41.445v-34.641
						C646.221,152.134,643.174,149.088,639.416,149.088z"/>
					<path style="fill:#60D8B9;" d="M513.383,414.142h34.254c0.014-23.47-17.925-41.43-41.396-41.445V407
						C506.241,410.945,509.438,414.142,513.383,414.142z"/>
					<path style="fill:#60D8B9;" d="M646.221,372.697c-23.471,0.016-41.411,17.975-41.396,41.445h34.592
						c3.758,0,6.805-3.047,6.805-6.805V372.697z"/>
					<g>
						<path style="fill:#60D8B9;" d="M589.367,269.219c-0.928,0-1.718,0.217-2.373,0.654c-0.808,0.491-1.543,1.281-2.221,2.309
							h9.618C592.81,270.215,591.135,269.219,589.367,269.219z"/>
						<path style="fill:#60D8B9;" d="M555.251,281.655c0,0.727,0.04,1.42,0.1,2.098h17.15c0.206-0.873,0.403-1.781,0.585-2.753
							v-0.164c0.062-0.324,0.14-0.623,0.206-0.94h-17.968C555.274,280.482,555.245,281.069,555.251,281.655z"/>
						<path style="fill:#60D8B9;" d="M558.073,291.595c1.882,2.536,3.913,3.804,6.095,3.804c2.162,0,4.003-1.32,5.527-3.934h-11.709
							C558.017,291.507,558.042,291.553,558.073,291.595z"/>
						<path style="fill:#60D8B9;" d="M581.835,279.896c-0.171,0.74-0.334,1.515-0.487,2.331v0.164
							c-0.094,0.464-0.192,0.914-0.29,1.362h16.069c0.104-0.741,0.175-1.491,0.175-2.262c0-0.549-0.026-1.077-0.066-1.595H581.835z"
							/>
						<path style="fill:#60D8B9;" d="M575.997,233.36c-26.474,0.016-48.121,21.689-48.106,48.163
							c0.016,26.715,21.689,48.121,48.163,48.106c26.474-0.016,48.121-21.689,48.106-48.163
							C624.143,254.992,602.47,233.345,575.997,233.36z M610.551,291.466h-7.06c-0.473,1.226-0.929,2.244-1.361,2.992
							c-0.709,1.227-1.718,2.849-3.027,4.868c-0.654,0.927-1.554,1.514-2.7,1.759c-1.145,0.245-2.196,0.053-3.15-0.573
							c-0.955-0.627-1.554-1.513-1.8-2.659c-0.246-1.145-0.042-2.209,0.613-3.191c0.765-1.124,1.431-2.183,2.028-3.197h-15.259
							c-0.296,0.782-0.603,1.523-0.923,2.215c-3.328,6.763-7.909,10.145-13.745,10.145c-5.073,0-9.232-2.237-12.476-6.709
							c-1.288-1.775-2.309-3.662-3.086-5.651H541.5c-2.13,0-3.857-1.727-3.857-3.857c0-2.13,1.727-3.857,3.857-3.857h5.398
							c-0.048-0.689-0.074-1.388-0.074-2.098c0.005-0.588,0.034-1.174,0.074-1.759H541.5c-2.13,0-3.857-1.727-3.857-3.857
							c0-2.13,1.727-3.857,3.857-3.857h6.999c1.351-3.874,3.518-7.698,6.507-11.472c0.708-0.873,1.663-1.378,2.863-1.514
							c1.199-0.137,2.236,0.15,3.109,0.859c0.872,0.708,1.377,1.663,1.513,2.864c0.136,1.199-0.178,2.235-0.94,3.109
							c-1.67,2.056-2.996,4.107-4.003,6.155H575.5c0.322-0.831,0.662-1.629,1.023-2.391c1.473-3.109,3.367-5.387,5.686-6.831
							c2.317-1.446,4.704-2.168,7.159-2.168c4.745,0,8.644,2.086,11.699,6.259c1.181,1.614,2.128,3.326,2.852,5.132h6.633
							c2.13,0,3.857,1.727,3.857,3.857c0,2.13-1.727,3.857-3.857,3.857h-4.96c0.03,0.527,0.057,1.055,0.057,1.595
							c0,0.748-0.054,1.503-0.133,2.262h5.037c2.13,0,3.857,1.727,3.857,3.857C614.408,289.739,612.681,291.466,610.551,291.466z"/>
					</g>
					<g>
						<path style="fill:#60D8B9;" d="M576.027,340.117c-32.312,0-58.605-26.273-58.624-58.588
							c-0.02-32.324,26.263-58.638,58.587-58.657c0.01,0,0.025,0,0.035,0c32.31,0,58.602,26.273,58.622,58.588
							c0.02,32.323-26.263,58.638-58.587,58.657C576.051,340.117,576.037,340.117,576.027,340.117z M575.991,224.686l0.001,1.814
							c-30.324,0.018-54.979,24.703-54.962,55.027c0.018,30.313,24.688,54.962,54.997,54.963c0.011,0,0.021,0,0.031,0
							c30.324-0.02,54.979-24.705,54.962-55.028c-0.02-30.313-24.687-54.962-54.995-54.962c-0.011,0-0.023,0-0.033,0
							L575.991,224.686z"/>
					</g>
					<rect x="498.757" y="149.146" style="fill:#208468;" width="3.174" height="264.996"/>
					<rect x="491.501" y="149.146" style="fill:#208468;" width="3.174" height="264.996"/>
					<rect x="484.245" y="149.146" style="fill:#208468;" width="3.174" height="264.996"/>
					<rect x="476.99" y="149.146" style="fill:#208468;" width="3.174" height="264.996"/>
					<rect x="469.734" y="149.146" style="fill:#208468;" width="3.174" height="264.996"/>
					<rect x="462.479" y="149.146" style="fill:#208468;" width="3.174" height="264.996"/>
					<rect x="455.223" y="149.146" style="fill:#208468;" width="3.174" height="264.996"/>
					<path style="fill:#208468;" d="M447.968,413.794c1.143,0.431,3.174,0.348,3.174,0.348v-264.98c0,0-1.889-0.131-3.174,0.274
						C447.968,149.829,447.968,413.109,447.968,413.794z"/>
				</g>
				<g>
					<path style="fill:#289E7F;" d="M319.712,190.481l106.65-0.064c3.048-0.002,5.69,2.434,5.692,5.685l0.127,212.286
						c0.002,3.047-2.434,5.69-5.685,5.691l-106.65,0.063c-3.047,0.002-5.69-2.434-5.692-5.685l-0.126-212.286
						C314.026,192.922,316.462,190.483,319.712,190.481z"/>
					<path style="fill:#2FB293;" d="M372.838,190.481l106.651-0.064c3.047-0.002,5.69,2.434,5.692,5.685l0.126,212.286
						c0.002,3.047-2.434,5.69-5.685,5.691l-106.651,0.063c-3.047,0.002-5.689-2.434-5.691-5.685l-0.126-212.286
						C367.152,192.922,369.588,190.483,372.838,190.481z"/>
					<g>
						<path style="fill:#60D8B9;" d="M418.782,377.549c0.003,4.191,3.21,7.394,7.401,7.392c4.191-0.003,7.394-3.21,7.392-7.401
							c-0.002-4.191-3.209-7.394-7.401-7.392C421.983,370.151,418.779,373.604,418.782,377.549z"/>
						<path style="fill:#60D8B9;" d="M433.474,227.012c-0.002-4.191-3.209-7.395-7.401-7.392c-4.191,0.003-7.394,3.21-7.391,7.401
							c0.003,4.191,3.209,7.394,7.401,7.392C430.274,234.41,433.477,231.203,433.474,227.012z"/>
					</g>
					<path style="fill:#60D8B9;" d="M367.225,225.401c19.812-0.013,34.954-15.172,34.941-34.983h-29.365
						c-3.079,0-5.576,2.497-5.576,5.576V225.401z"/>
					<path style="fill:#60D8B9;" d="M479.635,190.417h-29.198c-0.012,19.811,15.13,34.97,34.941,34.983v-29.24
						C485.378,192.989,482.807,190.417,479.635,190.417z"/>
					<path style="fill:#60D8B9;" d="M373.253,414.143h28.913c0.012-19.811-15.13-34.97-34.941-34.983v28.955
						C367.225,411.444,369.923,414.143,373.253,414.143z"/>
					<path style="fill:#60D8B9;" d="M485.378,379.16c-19.812,0.013-34.954,15.173-34.941,34.983h29.198
						c3.172,0,5.744-2.571,5.744-5.743V379.16z"/>
					<g>
						<path style="fill:#60D8B9;" d="M437.389,291.817c-0.783,0-1.45,0.183-2.003,0.552c-0.682,0.415-1.303,1.081-1.874,1.949h8.118
							C440.295,292.658,438.882,291.817,437.389,291.817z"/>
						<path style="fill:#60D8B9;" d="M408.593,302.314c0,0.613,0.034,1.199,0.084,1.771h14.476c0.174-0.737,0.34-1.504,0.494-2.323
							v-0.138c0.053-0.274,0.118-0.525,0.174-0.794h-15.166C408.613,301.324,408.587,301.819,408.593,302.314z"/>
						<path style="fill:#60D8B9;" d="M410.975,310.704c1.589,2.141,3.303,3.211,5.145,3.211c1.825,0,3.379-1.114,4.665-3.32h-9.883
							C410.928,310.63,410.949,310.669,410.975,310.704z"/>
						<path style="fill:#60D8B9;" d="M431.032,300.829c-0.145,0.624-0.282,1.279-0.411,1.968v0.138
							c-0.079,0.392-0.162,0.772-0.245,1.15h13.564c0.087-0.626,0.148-1.259,0.148-1.909c0-0.463-0.022-0.909-0.055-1.346H431.032z"
							/>
						<path style="fill:#60D8B9;" d="M426.104,261.55c-22.346,0.013-40.618,18.307-40.605,40.653
							c0.013,22.549,18.307,40.618,40.653,40.605c22.346-0.014,40.618-18.307,40.605-40.653
							C466.743,279.809,448.45,261.537,426.104,261.55z M455.27,310.595h-5.96c-0.4,1.035-0.784,1.894-1.149,2.526
							c-0.599,1.036-1.45,2.405-2.555,4.108c-0.552,0.783-1.312,1.278-2.279,1.485c-0.967,0.207-1.854,0.045-2.659-0.484
							c-0.806-0.53-1.312-1.277-1.519-2.244c-0.208-0.967-0.035-1.864,0.518-2.693c0.646-0.949,1.208-1.843,1.712-2.698h-12.879
							c-0.25,0.66-0.509,1.286-0.779,1.87c-2.809,5.708-6.676,8.563-11.601,8.563c-4.282,0-7.793-1.888-10.531-5.663
							c-1.087-1.498-1.949-3.091-2.605-4.77h-5.998c-1.798,0-3.255-1.457-3.255-3.255c0-1.798,1.457-3.255,3.255-3.255h4.556
							c-0.04-0.582-0.062-1.172-0.062-1.771c0.004-0.496,0.028-0.991,0.063-1.484h-4.557c-1.798,0-3.255-1.457-3.255-3.255
							c0-1.798,1.457-3.255,3.255-3.255h5.908c1.141-3.27,2.969-6.498,5.492-9.684c0.598-0.737,1.404-1.163,2.417-1.277
							c1.012-0.115,1.887,0.126,2.624,0.725c0.736,0.598,1.162,1.404,1.277,2.417c0.114,1.012-0.15,1.887-0.794,2.624
							c-1.41,1.735-2.529,3.467-3.378,5.195h15.153c0.272-0.701,0.559-1.375,0.863-2.018c1.243-2.624,2.842-4.547,4.799-5.766
							c1.956-1.22,3.97-1.83,6.042-1.83c4.005,0,7.296,1.761,9.875,5.283c0.997,1.362,1.796,2.807,2.408,4.332h5.598
							c1.798,0,3.255,1.457,3.255,3.255c0,1.798-1.457,3.255-3.255,3.255h-4.187c0.025,0.445,0.048,0.891,0.048,1.346
							c0,0.631-0.046,1.269-0.113,1.909h4.252c1.798,0,3.255,1.457,3.255,3.255C458.526,309.138,457.068,310.595,455.27,310.595z"/>
					</g>
					<g>
						<path style="fill:#60D8B9;" d="M426.129,351.661c-27.273,0.001-49.466-22.178-49.482-49.453
							c-0.016-27.283,22.168-49.494,49.452-49.512l0,0c0.009,0,0.02,0,0.028,0c27.271,0,49.466,22.178,49.483,49.453
							c0.016,27.283-22.169,49.494-49.453,49.512C426.148,351.661,426.138,351.661,426.129,351.661z M426.101,255.759
							c-25.596,0.016-46.407,20.852-46.392,46.447c0.015,25.586,20.837,46.392,46.42,46.393c0.01,0,0.018,0,0.026,0
							c25.597-0.016,46.408-20.853,46.393-46.447c-0.016-25.586-20.839-46.393-46.421-46.393
							C426.117,255.759,426.109,255.759,426.101,255.759L426.101,255.759z"/>
					</g>
					<rect x="360.908" y="190.467" style="fill:#208468;" width="2.679" height="223.676"/>
					<rect x="354.783" y="190.467" style="fill:#208468;" width="2.679" height="223.676"/>
					<rect x="348.659" y="190.467" style="fill:#208468;" width="2.679" height="223.676"/>
					<rect x="342.535" y="190.467" style="fill:#208468;" width="2.679" height="223.676"/>
					<rect x="336.41" y="190.467" style="fill:#208468;" width="2.679" height="223.676"/>
					<rect x="330.286" y="190.467" style="fill:#208468;" width="2.679" height="223.676"/>
					<rect x="324.162" y="190.467" style="fill:#208468;" width="2.679" height="223.676"/>
					<path style="fill:#208468;" d="M318.038,413.85c0.965,0.364,2.679,0.294,2.679,0.294V190.48c0,0-1.594-0.11-2.679,0.231
						C318.038,191.043,318.038,413.271,318.038,413.85z"/>
				</g>
				<g>
					<path style="fill:#289E7F;" d="M212.103,230.788l87.431-0.052c2.498-0.001,4.664,1.995,4.666,4.661l0.104,174.03
						c0.001,2.498-1.996,4.664-4.661,4.666l-87.431,0.052c-2.498,0.002-4.664-1.995-4.666-4.66l-0.103-174.03
						C207.441,232.789,209.438,230.79,212.103,230.788z"/>
					<path style="fill:#2FB293;" d="M255.654,230.788l87.431-0.052c2.498-0.001,4.665,1.995,4.666,4.661l0.104,174.03
						c0.001,2.498-1.996,4.664-4.661,4.666l-87.431,0.052c-2.498,0.002-4.664-1.995-4.666-4.66l-0.104-174.03
						C250.993,232.789,252.99,230.79,255.654,230.788z"/>
					<g>
						<path style="fill:#60D8B9;" d="M293.319,384.145c0.002,3.435,2.631,6.061,6.067,6.06c3.436-0.002,6.062-2.631,6.06-6.067
							c-0.002-3.436-2.631-6.062-6.067-6.06C295.943,378.08,293.317,380.911,293.319,384.145z"/>
						<path style="fill:#60D8B9;" d="M305.364,260.736c-0.002-3.436-2.631-6.062-6.067-6.06c-3.435,0.002-6.062,2.631-6.06,6.067
							c0.002,3.435,2.631,6.061,6.067,6.06C302.74,266.801,305.366,264.172,305.364,260.736z"/>
					</g>
					<path style="fill:#60D8B9;" d="M251.053,259.415c16.241-0.011,28.655-12.438,28.645-28.679h-24.073
						c-2.525,0-4.571,2.047-4.571,4.571V259.415z"/>
					<path style="fill:#60D8B9;" d="M343.205,230.736h-23.936c-0.01,16.24,12.403,28.668,28.645,28.679v-23.97
						C347.914,232.844,345.806,230.736,343.205,230.736z"/>
					<path style="fill:#60D8B9;" d="M255.995,414.144h23.703c0.01-16.241-12.403-28.668-28.645-28.679v23.737
						C251.053,411.932,253.265,414.144,255.995,414.144z"/>
					<path style="fill:#60D8B9;" d="M347.914,385.465c-16.241,0.011-28.655,12.438-28.645,28.679h23.936
						c2.6,0,4.708-2.108,4.708-4.708V385.465z"/>
					<g>
						<path style="fill:#60D8B9;" d="M308.573,313.863c-0.642,0-1.189,0.15-1.642,0.453c-0.559,0.34-1.068,0.886-1.537,1.598h6.655
							C310.955,314.552,309.797,313.863,308.573,313.863z"/>
						<path style="fill:#60D8B9;" d="M284.966,322.467c0,0.503,0.028,0.983,0.069,1.452h11.867c0.143-0.604,0.279-1.233,0.405-1.905
							v-0.113c0.043-0.225,0.097-0.431,0.143-0.651h-12.433C284.982,321.656,284.962,322.062,284.966,322.467z"/>
						<path style="fill:#60D8B9;" d="M286.919,329.346c1.302,1.755,2.708,2.633,4.218,2.633c1.496,0,2.77-0.913,3.825-2.722h-8.102
							C286.88,329.285,286.898,329.317,286.919,329.346z"/>
						<path style="fill:#60D8B9;" d="M303.362,321.25c-0.118,0.512-0.231,1.048-0.337,1.613v0.113
							c-0.065,0.321-0.133,0.633-0.201,0.942h11.119c0.072-0.513,0.121-1.032,0.121-1.565c0-0.38-0.018-0.745-0.046-1.103H303.362z"
							/>
						<path style="fill:#60D8B9;" d="M299.322,289.05c-18.319,0.011-33.298,15.008-33.287,33.327
							c0.011,18.486,15.008,33.298,33.327,33.288c18.319-0.011,33.298-15.008,33.287-33.327
							C332.637,304.018,317.64,289.039,299.322,289.05z M323.232,329.256h-4.885c-0.328,0.849-0.643,1.553-0.942,2.071
							c-0.491,0.849-1.189,1.972-2.095,3.368c-0.453,0.642-1.076,1.048-1.868,1.217c-0.793,0.17-1.52,0.037-2.18-0.396
							c-0.661-0.434-1.076-1.047-1.245-1.84c-0.17-0.792-0.029-1.528,0.424-2.208c0.529-0.778,0.99-1.511,1.404-2.212h-10.559
							c-0.205,0.541-0.417,1.054-0.639,1.533c-2.303,4.68-5.473,7.02-9.511,7.02c-3.51,0-6.388-1.548-8.633-4.642
							c-0.891-1.228-1.598-2.534-2.136-3.911h-4.917c-1.474,0-2.669-1.195-2.669-2.669c0-1.474,1.195-2.669,2.669-2.669h3.736
							c-0.033-0.477-0.051-0.961-0.051-1.452c0.003-0.407,0.023-0.812,0.051-1.217h-3.736c-1.474,0-2.669-1.195-2.669-2.669
							c0-1.474,1.195-2.669,2.669-2.669h4.843c0.935-2.681,2.434-5.327,4.502-7.938c0.49-0.604,1.151-0.953,1.981-1.047
							c0.83-0.095,1.547,0.104,2.151,0.595c0.603,0.49,0.953,1.151,1.047,1.981c0.094,0.83-0.123,1.547-0.651,2.151
							c-1.156,1.423-2.073,2.842-2.77,4.259h12.422c0.223-0.575,0.458-1.127,0.708-1.654c1.019-2.151,2.33-3.727,3.935-4.727
							c1.603-1,3.255-1.5,4.953-1.5c3.283,0,5.981,1.444,8.096,4.331c0.817,1.117,1.472,2.301,1.974,3.551h4.589
							c1.474,0,2.669,1.195,2.669,2.669c0,1.474-1.195,2.669-2.669,2.669h-3.432c0.021,0.365,0.039,0.73,0.039,1.103
							c0,0.518-0.037,1.04-0.092,1.565h3.485c1.474,0,2.669,1.195,2.669,2.669C325.9,328.062,324.706,329.256,323.232,329.256z"/>
					</g>
					<g>
						<path style="fill:#60D8B9;" d="M299.341,362.921c-22.358,0.002-40.551-18.18-40.565-40.54
							c-0.013-22.367,18.173-40.575,40.54-40.589l0,0c0.007,0,0.018,0,0.024,0c22.358,0,40.551,18.18,40.565,40.54
							c0.013,22.368-18.173,40.576-40.541,40.589C299.359,362.921,299.348,362.921,299.341,362.921z M299.319,284.302
							c-20.983,0.014-38.044,17.095-38.032,38.077c0.013,20.976,17.082,38.032,38.054,38.032c0.008,0,0.015,0,0.023,0
							c20.983-0.013,38.044-17.094,38.031-38.077c-0.013-20.976-17.082-38.032-38.054-38.032
							C299.333,284.302,299.326,284.302,299.319,284.302L299.319,284.302z"/>
					</g>
					<rect x="245.874" y="230.776" style="fill:#208468;" width="2.197" height="183.368"/>
					<rect x="240.854" y="230.776" style="fill:#208468;" width="2.197" height="183.368"/>
					<rect x="235.833" y="230.776" style="fill:#208468;" width="2.197" height="183.368"/>
					<rect x="230.812" y="230.776" style="fill:#208468;" width="2.197" height="183.368"/>
					<rect x="225.792" y="230.776" style="fill:#208468;" width="2.197" height="183.368"/>
					<rect x="220.771" y="230.776" style="fill:#208468;" width="2.197" height="183.368"/>
					<rect x="215.75" y="230.776" style="fill:#208468;" width="2.197" height="183.368"/>
					<path style="fill:#208468;" d="M210.73,413.904c0.791,0.298,2.197,0.241,2.197,0.241V230.788c0,0-1.307-0.09-2.197,0.19
						C210.73,231.249,210.73,413.429,210.73,413.904z"/>
				</g>
				<g>
					<path style="fill:#289E7F;" d="M122.51,268.063l69.658-0.042c1.99-0.001,3.716,1.59,3.717,3.713l0.083,138.652
						c0.001,1.99-1.59,3.716-3.713,3.717l-69.658,0.041c-1.99,0.001-3.716-1.59-3.717-3.713l-0.082-138.652
						C118.797,269.657,120.388,268.064,122.51,268.063z"/>
					<path style="fill:#2FB293;" d="M157.209,268.063l69.658-0.042c1.99-0.001,3.716,1.59,3.718,3.713l0.083,138.652
						c0.001,1.99-1.59,3.716-3.713,3.717l-69.658,0.041c-1.99,0.001-3.716-1.59-3.717-3.713l-0.083-138.652
						C153.495,269.657,155.086,268.064,157.209,268.063z"/>
					<g>
						<path style="fill:#60D8B9;" d="M187.217,390.244c0.002,2.737,2.096,4.829,4.834,4.828c2.737-0.002,4.829-2.096,4.828-4.833
							c-0.002-2.738-2.096-4.83-4.834-4.828C189.307,385.412,187.215,387.668,187.217,390.244z"/>
						<path style="fill:#60D8B9;" d="M196.813,291.922c-0.001-2.737-2.096-4.83-4.834-4.828c-2.737,0.002-4.829,2.096-4.828,4.834
							c0.002,2.737,2.096,4.829,4.834,4.828C194.723,296.754,196.815,294.66,196.813,291.922z"/>
					</g>
					<path style="fill:#60D8B9;" d="M153.543,290.87c12.94-0.009,22.83-9.91,22.822-22.849h-19.18c-2.011,0-3.642,1.63-3.642,3.642
						V290.87z"/>
					<path style="fill:#60D8B9;" d="M226.962,268.021h-19.07c-0.008,12.939,9.882,22.84,22.822,22.849v-19.098
						C230.713,269.701,229.034,268.021,226.962,268.021z"/>
					<path style="fill:#60D8B9;" d="M157.48,414.145h18.884c0.008-12.939-9.882-22.84-22.822-22.849v18.911
						C153.543,412.382,155.305,414.145,157.48,414.145z"/>
					<path style="fill:#60D8B9;" d="M230.713,391.296c-12.94,0.009-22.83,9.91-22.822,22.849h19.07c2.072,0,3.751-1.68,3.751-3.751
						V391.296z"/>
					<g>
						<path style="fill:#60D8B9;" d="M199.37,334.249c-0.512,0-0.947,0.12-1.308,0.361c-0.445,0.271-0.851,0.706-1.224,1.273h5.303
							C201.268,334.798,200.345,334.249,199.37,334.249z"/>
						<path style="fill:#60D8B9;" d="M180.562,341.105c0,0.401,0.022,0.783,0.055,1.156h9.455c0.114-0.481,0.222-0.982,0.323-1.517
							v-0.09c0.034-0.179,0.077-0.343,0.114-0.518h-9.906C180.575,340.459,180.558,340.782,180.562,341.105z"/>
						<path style="fill:#60D8B9;" d="M182.118,346.585c1.038,1.398,2.157,2.097,3.36,2.097c1.192,0,2.207-0.728,3.047-2.168h-6.455
							C182.087,346.537,182.101,346.562,182.118,346.585z"/>
						<path style="fill:#60D8B9;" d="M195.218,340.135c-0.094,0.408-0.184,0.835-0.268,1.285v0.09
							c-0.052,0.256-0.106,0.504-0.16,0.751h8.859c0.057-0.409,0.096-0.822,0.096-1.247c0-0.302-0.015-0.594-0.036-0.879H195.218z"
							/>
						<path style="fill:#60D8B9;" d="M191.999,314.48c-14.595,0.009-26.529,11.957-26.52,26.552
							c0.009,14.728,11.957,26.529,26.552,26.521c14.595-0.009,26.529-11.957,26.521-26.552
							C218.542,326.406,206.594,314.472,191.999,314.48z M211.049,346.514h-3.892c-0.261,0.676-0.512,1.237-0.751,1.65
							c-0.391,0.677-0.947,1.571-1.669,2.684c-0.361,0.511-0.857,0.835-1.488,0.97c-0.632,0.135-1.211,0.029-1.736-0.316
							c-0.527-0.346-0.857-0.834-0.992-1.466c-0.135-0.631-0.023-1.218,0.338-1.759c0.422-0.62,0.789-1.204,1.118-1.762h-8.412
							c-0.163,0.431-0.333,0.84-0.509,1.221c-1.835,3.728-4.36,5.593-7.577,5.593c-2.797,0-5.09-1.233-6.878-3.698
							c-0.71-0.979-1.273-2.019-1.701-3.116h-3.918c-1.174,0-2.126-0.952-2.126-2.126c0-1.174,0.952-2.126,2.126-2.126h2.976
							c-0.026-0.38-0.041-0.765-0.041-1.156c0.002-0.324,0.019-0.647,0.041-0.97h-2.976c-1.174,0-2.126-0.952-2.126-2.126
							c0-1.174,0.952-2.126,2.126-2.126h3.858c0.745-2.136,1.939-4.244,3.587-6.325c0.39-0.481,0.917-0.76,1.579-0.834
							c0.661-0.075,1.233,0.082,1.714,0.474c0.481,0.39,0.759,0.917,0.834,1.579c0.075,0.661-0.098,1.232-0.518,1.714
							c-0.921,1.133-1.652,2.264-2.207,3.393h9.897c0.177-0.458,0.365-0.898,0.564-1.318c0.812-1.714,1.856-2.97,3.135-3.766
							c1.277-0.797,2.593-1.195,3.947-1.195c2.616,0,4.765,1.15,6.45,3.451c0.651,0.89,1.173,1.834,1.573,2.829h3.656
							c1.174,0,2.126,0.952,2.126,2.126c0,1.174-0.952,2.126-2.126,2.126h-2.735c0.016,0.29,0.031,0.582,0.031,0.879
							c0,0.412-0.03,0.829-0.074,1.247h2.777c1.174,0,2.126,0.952,2.126,2.126C213.175,345.562,212.223,346.514,211.049,346.514z"/>
					</g>
					<g>
						<path style="fill:#60D8B9;" d="M192.013,373.335c-8.607,0-16.707-3.345-22.81-9.419c-6.126-6.098-9.502-14.224-9.507-22.88
							c-0.005-8.599,3.361-16.706,9.479-22.832c6.118-6.125,14.222-9.501,22.82-9.506l0,0c0.007,0,0.014,0,0.02,0
							c8.59,0,16.69,3.366,22.811,9.479c6.125,6.118,9.501,14.223,9.507,22.82c0.01,17.82-14.479,32.327-32.3,32.338
							C192.027,373.335,192.02,373.335,192.013,373.335z M191.997,310.698c-8.063,0.005-15.665,3.172-21.406,8.92
							c-5.74,5.747-8.899,13.353-8.894,21.416c0.005,8.122,3.172,15.744,8.918,21.464c5.725,5.699,13.324,8.837,21.398,8.837
							c0.007,0,0.013,0,0.02,0c16.717-0.011,30.31-13.619,30.301-30.336c-0.005-8.064-3.173-15.667-8.92-21.407
							c-5.742-5.735-13.342-8.894-21.398-8.894C192.009,310.698,192.003,310.698,191.997,310.698L191.997,310.698z"/>
					</g>
					<rect x="149.417" y="268.053" style="fill:#208468;" width="1.75" height="146.092"/>
					<rect x="145.417" y="268.053" style="fill:#208468;" width="1.75" height="146.092"/>
					<rect x="141.417" y="268.053" style="fill:#208468;" width="1.75" height="146.092"/>
					<rect x="137.417" y="268.053" style="fill:#208468;" width="1.75" height="146.092"/>
					<rect x="133.417" y="268.053" style="fill:#208468;" width="1.75" height="146.092"/>
					<rect x="129.417" y="268.053" style="fill:#208468;" width="1.75" height="146.092"/>
					<rect x="125.417" y="268.053" style="fill:#208468;" width="1.75" height="146.092"/>
					<path style="fill:#208468;" d="M121.417,413.953c0.63,0.238,1.75,0.192,1.75,0.192V268.062c0,0-1.041-0.072-1.75,0.151
						C121.417,268.429,121.417,413.575,121.417,413.953z"/>
				</g>
			</g>
		</g>
		<g>
			<g>
				<path style="fill:#000;" d="M575.462,417.523c0,0-1.767,3.208-5.211,4.96c-1.676,0.853-4.77,1.037-7.253,1.408
					c-1.487,0.222-2.061,2.962,0.173,3.414c5.119,1.033,17.235,1.567,20.862-0.314c2.991-1.641,0.387-8.356,0.387-8.356
					L575.462,417.523z"/>
				<g>
					<path style="fill:#004C7D;" d="M601.959,294.243c0,0,11.902,42.994-22.04,84.577c0,0,4.698,18.16,5.599,40.323
						c0,0-13.203,2.022-14.647-0.479c-1.444-2.501-13.109-35.34-11.904-47.336c0.671-6.675-0.519-56.794,19.113-73.265
						L601.959,294.243z"/>
				</g>
				<g>
					<path style="fill:#000;" d="M595.642,417.65c0,0-1.791,3.195-5.247,4.922c-1.683,0.841-4.778,1.002-7.264,1.355
						c-1.488,0.211-2.083,2.947,0.148,3.414c5.111,1.07,17.223,1.693,20.864-0.162c3.003-1.619,0.448-8.354,0.448-8.354
						L595.642,417.65z"/>
					<path style="fill:#004C7D;" d="M608.798,317.453c3.531,25.323-6.82,39.84-6.366,49.284c1.102,22.932,3.533,42.957,3.533,53.02
						c0,0-8.845,4.138-15.099,0.953c-1.639-3.186-16.744-45.084-17.313-51.768c-0.569-6.684-2.922-55.748,14.592-69.985
						C588.145,298.956,606.552,301.347,608.798,317.453z"/>
				</g>
				<polygon style="opacity:0.1;fill:#000;" points="573.705,340.815 577.093,381.102 584.548,403.427 584.548,407.514 
					575.477,381.812 572.235,342.627 				"/>
			</g>
			<path style="opacity:0.07;fill:#000;" d="M562.296,332.952c0,0,9.153,5.855,47-0.389c0,0,0.647-4.113-0.319-5.786
				c-0.966-1.673-45.146-0.927-45.146-0.927L562.296,332.952z"/>
			<g>
				<path style="fill:#F4C3A2;" d="M564.167,277.715c-0.884,8.908,40.361,0.412,40.131-7.058c-0.216-7.04-5.854-22.069-7.213-26.833
					c-3.841-13.475-9.89,0.307-19.739-1.019c0,1.967-0.414,3.667-0.456,3.748C573.136,253.821,569.076,255.973,564.167,277.715z"/>
			</g>
			<g>
				<path style="fill:#004C7D;" d="M560.545,327.309c-0.771-9.431-2.279-51.816-1.104-63.81c0.192-1.955,0.509-3.66,0.906-5.145
					c1.476-5.519,6.349-9.454,12.047-9.876l2.913-0.216c0,0,2.932,2.872,10.768,3.333c5.934,0.349,11.859-4.723,11.859-4.723
					s8.169,3.724,10.006,5.416c9.762,8.989,8.164,17.909,8.164,17.909s-0.463,49.141-6.198,59.074
					C609.906,329.271,561.317,336.74,560.545,327.309z"/>
			</g>
			<path style="fill:#FBFFFA;" d="M575.643,287l22.292-40.128c0,0-7.864,3.224-13.635,2.947c-5.77-0.277-7.799-2.532-7.799-2.532
				l-1.193,0.974L575.643,287z"/>
			<g>
				<path style="fill:#F4C3A2;" d="M556.387,210.67c1.874-10.994,2.723-16.816,10.16-22.373c7.436-5.556,17.325-8.322,28.519-8.229
					c0,0,6.182,1.057,12.807,4.372c6.792,3.4,14.049,9.174,15.584,18.619c0.884,5.438,0.755,10.759-0.383,15.699
					c-2.766,12.007-11.494,21.765-26.128,25.505c-10.328,2.639-21.742,1.928-30.558-3.714
					C563.183,238.498,553.204,229.345,556.387,210.67z"/>
				<path style="opacity:0.28;fill:#E59A53;" d="M613.202,223.153c0.685,3.919-1.937,7.652-5.857,8.337
					c-3.92,0.685-7.652-1.937-8.337-5.857c-0.685-3.92,1.937-7.652,5.857-8.337C608.784,216.612,612.516,219.234,613.202,223.153z"
					/>
				<path style="opacity:0.28;fill:#E59A53;" d="M557.533,228.451c0.73,0.061,1.311,0.03,2.063-0.145
					c3.875-0.902,6.286-4.774,5.385-8.65c-0.902-3.875-4.833-6.28-8.708-5.378c-0.095,0.531-0.469,2.891-0.314,6.877
					C556.101,224.826,557.533,228.451,557.533,228.451z"/>
				<path style="fill:#2D2429;" d="M598.336,215.276c-0.081,1.486-0.998,2.644-2.048,2.587c-1.051-0.057-1.837-1.308-1.757-2.793
					c0.081-1.486,0.998-2.644,2.049-2.587C597.631,212.54,598.417,213.791,598.336,215.276z"/>
				<path style="fill:#2D2429;" d="M569.861,213.912c-0.081,1.486-0.998,2.644-2.049,2.587c-1.051-0.057-1.837-1.308-1.756-2.793
					c0.081-1.486,0.998-2.644,2.049-2.587C569.155,211.176,569.941,212.426,569.861,213.912z"/>
				<path style="opacity:0.28;fill:#E59A53;" d="M577.221,244.903c0,0,6.399,1.255,9.571,1.028c1.301-0.093,9.539-1.514,9.539-1.514
					s-5.426,2.674-10.168,2.534c-4.741-0.141-9.098-1.19-9.098-1.19L577.221,244.903z"/>
				<g>
					<path style="fill:#E2965D;" d="M584.638,224.353c-1.546,2.3-5.209,3.291-6.321-0.012c-0.371-1.103-2.117-0.608-1.743,0.503
						c0.629,1.867,2.198,3.316,4.215,3.492c2.306,0.2,4.204-1.268,5.426-3.086C586.867,224.28,585.285,223.39,584.638,224.353
						L584.638,224.353z"/>
				</g>
				<g>
					<path style="fill:#F4C3A2;" d="M618.099,225.667c0.881,0.527,2.254,0.712,3.353,0.273c2.495-0.997,4.273-3.215,3.972-5.884
						c-0.3-2.67-2.708-4.59-5.377-4.29C617.378,216.066,616.84,224.914,618.099,225.667z"/>
					<path style="opacity:0.33;fill:#E59A53;" d="M619.786,218.28c0,0,1.156-0.857,2.631,0.319c1.475,1.177,1.56,2.816,0.646,3.212
						c-1.208,0.523-0.78-1.01-1.974-1.323c-1.194-0.312-1.777,0.534-2.482-0.423C617.901,219.11,619.786,218.28,619.786,218.28z"/>
				</g>
				<path style="fill:#493443;" d="M628.029,196.474c-1.218-4.23-2.937-7.71-4.97-10.606c1.17,0.065,2.297-0.238,2.949-1.368
					c1.449-2.51-0.728-2.27-1.62-2.085c0.42-0.173,1.067-0.706,1.067-2.349c0-2.434-3.518,0-3.518,0s0.167-4.126-1.63-3.566
					c-1.223,0.381-1.897,2.281-2.251,3.843c-12.946-11.002-31.716-7.368-31.648-7.585c0.842-2.665-2.764-11.795-11.429-7.144
					c-2.87,1.54-2.182,5.764-1.608,8.082c-2.394-6.467-12.783-7.585-16.702-2.672c-3.489,4.373,0.133,8.541,3.283,11.054
					c-4.185,9.756-8.371,33.979-4.148,37.268c0.41-7.841,1.49-13.138,7.025-21.644c12.872,8.117,40.237,3.635,44.406,5.665
					c5.184,2.524,8.18,9.76,4.921,19.013c-0.654,2.358,3.073,3.042,5.464,2.524C624.694,223.37,630.458,207.415,628.029,196.474z"/>
				<path style="fill:#493443;" d="M580.228,220.341c0,0-2.795-0.01-4.447,0.943c-1.652,0.954-2.719,2.438-2.719,2.438
					s4.286,0.547,5.958-0.118c0.994-0.396,1.167-1.354,1.167-1.354s0.271,0.842,2.563,1.646c1.305,0.458,5.729,0.583,5.729,0.583
					S584.344,219.031,580.228,220.341z"/>
				<g>
					<path style="fill:#E2965D;" d="M580.854,220.886c-0.059,0.01-0.119,0.013-0.181,0.009c-0.099-0.008-0.99-0.083-1.564-0.241
						c-1.391-0.388-1.894-1.119-2.07-1.665c-0.182-0.564-0.196-1.491,0.771-2.701c0.859-1.074,0.987-3.222,0.964-3.96
						c-0.013-0.395,0.293-0.732,0.693-0.737c0.394-0.012,0.725,0.298,0.737,0.693c0.004,0.129,0.084,3.196-1.277,4.898
						c-0.438,0.548-0.63,1.047-0.526,1.367c0.097,0.299,0.484,0.557,1.092,0.726c0.375,0.104,1.062,0.175,1.295,0.193
						c0.393,0.031,0.687,0.376,0.657,0.771C581.416,220.57,581.167,220.831,580.854,220.886z"/>
				</g>
			</g>
			<g>
				<path style="fill:#48A3A3;" d="M643.162,213.338c0,0,6.512-0.403,9.152,4.472c0,0-1.6,1.75-5.387-0.734
					C643.141,214.592,643.162,213.338,643.162,213.338z"/>
				<g>
					<path style="fill:#F4C3A2;" d="M650.303,217.753c1.872-3.546,1.979-2.669,3.858-5.216c1.879-2.547,0.138-9.002-2.366-7.909
						c-2.504,1.093-1.871,2.064-1.871,2.064s2.523-8.056-2.214-1.634c-0.945,1.281-2.617,5.687-4.22,9.032
						C643.49,214.09,649.276,219.7,650.303,217.753z"/>
					<g>
						<g>
							<g>
								<g>
									<g>
										<path style="fill:none;" d="M697.381,220.508c0.068-0.068,0.133-0.138,0.198-0.209
											c1.629-1.782,2.221-4.317,1.586-6.779c-1.236-4.789-7.45-5.91-7.714-5.956c-0.249-0.042-0.486,0.127-0.529,0.374
											c-0.043,0.249,0.124,0.487,0.374,0.53c0.059,0.01,5.894,1.069,6.981,5.281c0.558,2.161,0.044,4.379-1.374,5.932
											c-1.729,1.886-4.56,2.593-8.02,2.026c-0.252-0.042-0.486,0.128-0.527,0.378c-0.041,0.25,0.128,0.486,0.378,0.526
											C692.383,223.21,695.44,222.463,697.381,220.508z"/>
									</g>
								</g>
								<g>
									<g>
										<path style="fill:none;" d="M657.731,213.966c0.067-0.067,0.113-0.155,0.128-0.256c0.037-0.25-0.136-0.483-0.385-0.521
											c-0.058-0.008-5.727-0.909-6.975-5.29c-0.596-2.094-0.12-4.276,1.273-5.839c1.717-1.931,4.61-2.683,8.125-2.107
											c0.251,0.041,0.486-0.131,0.527-0.378c0.041-0.25-0.128-0.486-0.378-0.527c-3.836-0.629-7.011,0.207-8.959,2.402
											c-1.603,1.798-2.152,4.303-1.469,6.7c1.41,4.955,7.465,5.908,7.721,5.946
											C657.488,214.119,657.633,214.065,657.731,213.966z"/>
									</g>
								</g>
								<path style="fill:none;" d="M692.063,205.301c0,0-9.981-2.109-12.526-3.746c-2.071-1.333-4.219-2.971-7.761-1.84
									c-3.57,1.141-10.686-3.354-10.686-3.354s-0.65,3.29-1.786,4.706c-1.136,1.415-2.975,6.363-3.397,9.109
									c-0.422,2.746-1.857,4.85-1.857,4.85s5.587,2.46,9.077,4.333c3.429,1.84,7.526,3.654,15.312,4.644
									c3.603,0.458,10.15,1.957,10.15,1.957s2.099-9.994,2.839-14.809C692.17,206.336,692.063,205.301,692.063,205.301z"/>
								<path style="fill:none;" d="M688.425,226.682c-0.065-0.015-6.553-1.497-10.078-1.945
									c-8.178-1.04-12.325-2.985-15.569-4.726c-3.424-1.838-8.969-4.283-9.025-4.308c-0.356-0.157-0.343-0.544-0.398-0.929
									c2.235-9.767,7.126-18.684,7.381-18.994c0.134-0.164,0.477-0.179,0.667-0.091c0.017,0.008,1.661,0.984,3.778,1.722
									c2.793,0.973,5.303,1.363,6.885,1.353c4.157-0.027,5.436,0.583,7.47,1.908c0.135,0.088,0.269,0.175,0.402,0.261
									c1.993,1.282,9.539,3.065,12.278,3.644c0.315,0.066,0.551,0.329,0.584,0.649c0.012,0.116,0.096,1.267-0.638,6.038
									c-0.735,4.78-2.825,14.748-2.846,14.848c-0.041,0.195-0.158,0.365-0.326,0.472c-0.042,0.027-0.086,0.049-0.131,0.067
									C688.722,226.703,688.571,226.715,688.425,226.682z M679.137,202.178c-0.136-0.088-0.272-0.176-0.409-0.266
									c-1.928-1.256-3.088-1.876-6.21-1.738c-3.547,0.158-9.049-1.997-11.006-2.821c-0.896,1.541-4.962,10.128-6.542,17.269
									c1.559,0.698,5.718,2.585,8.509,4.082c3.128,1.679,7.129,3.554,15.056,4.562c2.922,0.372,7.663,1.398,9.485,1.804
									c0.497-2.397,2.066-10.048,2.679-14.033c0.454-2.951,0.584-4.444,0.619-5.14
									C689.096,205.409,681.425,203.651,679.137,202.178z"/>
								<g>
									<path style="fill:none;" d="M688.035,212.882c0.057-0.057,0.099-0.131,0.12-0.216c0.059-0.246-0.093-0.493-0.339-0.553
										c-3.237-0.777-8.572-2.774-10.194-3.818l-0.407-0.264c-1.927-1.255-3.178-1.959-6.48-1.812
										c-3.374,0.15-9.164-1.015-11.155-1.855c-0.234-0.099-0.503,0.011-0.601,0.245c-0.098,0.233,0.011,0.502,0.245,0.6
										c2.059,0.867,7.946,2.085,11.552,1.926c3.028-0.135,4.119,0.478,5.939,1.663l0.413,0.268
										c1.869,1.202,7.415,3.204,10.476,3.939C687.763,213.044,687.925,212.992,688.035,212.882z"/>
								</g>
								<g>
									<path style="fill:none;" d="M686.413,218.862c0.061-0.061,0.105-0.14,0.123-0.231c0.05-0.249-0.109-0.491-0.358-0.541
										c-2.566-0.523-4.591-0.88-6.019-1.062c-7.849-0.997-11.804-2.851-14.897-4.51c-1.229-0.66-2.85-1.464-4.82-2.391
										c-0.229-0.108-0.501-0.01-0.61,0.22c-0.108,0.229-0.009,0.502,0.22,0.61c1.955,0.92,3.562,1.717,4.777,2.368
										c3.164,1.699,7.211,3.595,15.215,4.613c1.405,0.178,3.407,0.532,5.95,1.051
										C686.153,219.021,686.308,218.969,686.413,218.862z"/>
								</g>
								<g>
									<path style="fill:none;" d="M688.022,216.249c0.079-0.079,0.129-0.188,0.133-0.309c0.008-0.253-0.191-0.464-0.444-0.473
										c-3.23-0.101-8.407-1.617-10.071-2.95c-2.352-1.884-3.994-2.724-7.512-2.719c-3.949,0.005-11.37-3.067-11.445-3.098
										c-0.234-0.097-0.502,0.015-0.6,0.247c-0.097,0.234,0.014,0.502,0.247,0.6c0.311,0.129,7.666,3.173,11.799,3.167
										c3.414-0.004,4.796,0.804,6.936,2.518c1.973,1.58,7.487,3.054,10.617,3.151
										C687.815,216.389,687.936,216.337,688.022,216.249z"/>
								</g>
							</g>
						</g>
					</g>
					<path style="fill:#F4C3A2;" d="M650.653,205.271c0,0-3.707,4.196-1.648,6.255c2.059,2.059,5.628,0.28,5.628-1.442
						S650.653,205.271,650.653,205.271z"/>
				</g>
				<path style="fill:#004C7D;" d="M643.162,213.338c0,0-9.954,27.008-16.316,33.489c-10.17,10.36-25.027,2.101-25.027,2.101
					s-9.215,15.529-9.191,22.103c0.024,6.575,18.193,6.952,27.147,3.879c8.954-3.072,20.728-18.051,25.633-31.991
					c4.905-13.939,6.914-23.096,6.906-25.11C645.67,217.834,643.162,213.338,643.162,213.338z"/>
			</g>
			<path style="opacity:0.1;fill:#070707;" d="M597.592,276.536c0,0,16.447,3.468,18.282,2.408v-3.373
				C615.874,275.571,604.248,276.536,597.592,276.536z"/>
			<g>
				<g>
					<path style="fill:#004C7D;" d="M529.262,216.834c0,0,6.925,32.265,7.979,41.212c1.054,8.947,25.059,20.701,25.059,20.701
						l5.291-29.008c0,0-14.356,4.827-16.512,0.955c-2.156-3.872-13.885-35.833-13.885-35.833L529.262,216.834z"/>
				</g>
				<g>
					<path style="fill:#F4C3A2;" d="M537.192,214.861c0,0,3.043-7.129,1.625-7.947c-1.418-0.819-2.836,0-2.836,0
						s-0.039-3.314-3.414-3.314s-7.375,4.489-6.5,7.484c0.875,2.995,3.194,5.751,3.194,5.751L537.192,214.861z"/>
					<path style="opacity:0.33;fill:#E59A53;" d="M535.986,207.516c0,0,0.25,2.299-1.834,3.743c-2.084,1.444-5.835,1.322-6.49,0.954
						c-0.633-0.355-0.875-0.531-0.875-0.531s0.688,2.055,2.25,2.055s5.981-0.974,6.593-2.034
						C536.242,210.643,535.986,207.516,535.986,207.516z"/>
				</g>
			</g>
			<polygon style="opacity:0.1;fill:#070707;" points="558.61,264.378 556.128,275.347 558.61,276.768 			"/>
			<polygon style="opacity:0.1;fill:#070707;" points="604.132,249.918 601.686,263.541 596.434,264.378 600.066,267.833 
				575.308,290.228 602.125,268 599.625,265.208 603.698,264.625 606.112,250.706 			"/>
			<polygon style="opacity:0.1;fill:#070707;" points="568.022,249.63 567.59,260.375 570.188,261.875 567.958,263.934 
				575.308,290.228 569.867,263.541 572.235,260.75 569.136,259.699 569.972,248.878 			"/>
			<polygon style="opacity:0.1;fill:#070707;" points="575.643,287 571.449,331.912 573.378,332.105 			"/>
			<polygon style="opacity:0.1;fill:#070707;" points="589.602,313.167 604.299,313.167 604.405,316.172 589.602,316.266 			"/>
			<g>
				<g>
					<g>
						<path style="fill:#ECF4EA;" d="M575.373,255.75c0,0,1.076,0.536,1.627,0.854c0.552,0.318,4.373-3.894,4.373-3.894l3.892,5.205
							c0.187,0.25,0.493,0.379,0.803,0.341c1.247-0.154,4.517-0.652,6.559-1.831l2.019-3.551l-13.361-2.347l-5.976-0.286
							L575.373,255.75z"/>
					</g>
					<path style="fill:#FBFFFA;" d="M599.257,245.748l3.939,3.416c0.243,0.211,0.207,0.597-0.076,0.75
						c-2.243,1.217-10.401,5.579-13.52,6.379c-2.254,0.578-3.239,0.957-3.881,0.175l-3.703-4.557
						c-0.311-0.383-0.879-0.431-1.25-0.104l-3.17,2.792c-0.353,0.311-0.87,0.346-1.257,0.077c-1.256-0.872-4.101-2.935-6.732-5.479
						c-0.23-0.223-0.165-0.61,0.123-0.749l6.252-3.002c0.308-0.148,0.674-0.091,0.915,0.15c0.808,0.809,2.902,2.57,6.164,2.983
						c4.833,0.611,13.365-2.265,15.395-2.983C598.732,245.499,599.037,245.557,599.257,245.748z"/>
				</g>
				<polygon style="fill:#EF5675;" points="577,255.125 578.546,260.348 575.308,270.167 575.643,287 585.141,269.902 
					582.083,261.417 585.719,256.469 581.445,251.209 				"/>
			</g>
		</g>
		<g>
			<path style="fill:#C43057;" d="M422.832,92.449c3.515-3.515,3.515-9.213,0-12.728L398.91,55.799
				c-1.266-1.266,2.349-2.278,0.619-2.624c-0.577-0.115-6.387-0.012-6.983-0.012c-2.387,0-4.676,0.948-6.364,2.636L362.258,79.72
				c-3.515,3.515-3.515,9.213,0,12.728c1.426,1.426,3.211,2.273,5.063,2.542c0.563,0.082,7.492,0.11,8.059,0.085
				c2.168-0.096-2.051-0.971-0.394-2.627l8.559-8.559v29.05H277.707c-4.971,0-9,4.029-9,9v40.742H166.436c-4.971,0-9,4.029-9,9
				v46.277H63.57c-4.971,0-9,4.029-9,9c0,0.19,0.017,0.375,0.028,0.562l-0.021,0.01v49.969c0,4.971,4.029,9,9,9
				c0.397,0,7.785-0.026,8.168-0.076c4.417-0.574,0.832-4.351,0.832-8.924v-41.542h93.858c4.971,0,9-4.029,9-9v-46.277h102.271
				c4.971,0,9-4.029,9-9V130.94h105.839c4.971,0,9-4.029,9-9V83.891l8.558,8.558c1.758,1.758,4.061,2.636,6.364,2.636
				c0.393,0,7.146-0.026,7.537-0.077C425.901,94.759,421.374,93.906,422.832,92.449z"/>
			<path style="fill:#DE3A5F;" d="M429.344,79.721l-23.922-23.922c-1.689-1.688-3.978-2.636-6.364-2.636
				c-2.387,0-4.676,0.948-6.364,2.636L368.771,79.72c-3.515,3.515-3.515,9.213,0,12.728c3.515,3.515,9.212,3.515,12.729,0
				l8.559-8.559v29.05H284.219c-4.971,0-9,4.029-9,9v40.742H172.949c-4.971,0-9,4.029-9,9v46.277H70.083c-4.971,0-9,4.029-9,9
				c0,0.22,0.017,0.437,0.033,0.653l-0.033,0.037v49.845c0,4.971,4.029,9,9,9c4.971,0,9-4.029,9-9v-41.534h93.866
				c4.971,0,9-4.029,9-9v-46.277h102.271c4.971,0,9-4.029,9-9V130.94h105.839c4.971,0,9-4.029,9-9V83.891l8.558,8.558
				c1.758,1.758,4.061,2.636,6.364,2.636c2.303,0,4.606-0.879,6.364-2.636C432.859,88.934,432.859,83.236,429.344,79.721z"/>
		</g>
	</g>
</g>
</svg>
