<?xml version="1.0" encoding="utf-8"?>
<!-- Generator: Adobe Illustrator 27.5.0, SVG Export Plug-In . SVG Version: 6.00 Build 0)  -->
<svg version="1.1" id="Capa_1" xmlns="http://www.w3.org/2000/svg" xmlns:xlink="http://www.w3.org/1999/xlink" x="0px" y="0px"
	 viewBox="0 0 2161 2084" style="enable-background:new 0 0 2161 2084;" xml:space="preserve">
<g>
	<rect style="fill:none;" width="2160.248" height="2083.096"/>
	<g>
		<path style="fill:#9EABD3;" d="M986.477,1055.609c0,36.111-65.795,65.387-146.959,65.387c-81.16,0-146.955-29.275-146.955-65.387
			c0-36.115,65.795-65.385,146.955-65.385C920.682,990.225,986.477,1019.494,986.477,1055.609z"/>
		<g>
			<g>
				<g>
					<path style="fill:#17181C;" d="M889.021,1040.949c10.381,10.445,27.494,16.021,27.494,16.033
						c14.428,3.662,22.912-5.934,22.912-5.934c3.102-4.332-0.668-6.713-0.668-6.713c-30.42-23.125-39.525-29.68-39.525-29.68
						h-27.922c-1.365,11.227-0.606,15.756-0.606,15.756c2.42,3.307,7.537,7.98,15.316,9.281c0.574,0.102,1.648-0.744,2.191-0.52
						L889.021,1040.949z"/>
				</g>
				<path d="M938.893,1044.432c-0.119,0.648-0.297,1.291-0.586,1.908c-2.357,5.061-8.928,7.148-14.135,7.074
					c-6.258-0.09-11.94-3.146-17.387-5.9c-5.258-2.658-9.869-6.018-14.4-9.766c-3.146-2.609-7.168-3.832-10.891-5.447
					c-4.193-1.83-7.355-4.674-10.982-7.4c-0.012,3.014,0.195,5.512,0.195,5.512c2.42,3.307,7.537,7.98,15.316,9.281
					c0.574,0.102,1.648-0.744,2.191-0.52l0.807,1.775c10.381,10.445,27.494,16.021,27.494,16.033
					c14.428,3.662,22.912-5.934,22.912-5.934C942.182,1047.201,939.523,1044.898,938.893,1044.432z"/>
			</g>
			<g>
				<path style="fill:#E59375;" d="M868.232,788.19c31.055,34.287,43.361-1.984,43.361-1.984l3.852-210.736
					c0.4,3.131,1.432-21.26-37.769-15.975c-39.096,5.262-48.994,20.502-48.994,20.502S850.189,725.563,868.232,788.19"/>
				<path style="fill:#E59375;" d="M911.793,783.537c0,0-15.76,221.94-17.043,229.727c0,0-19.152,4.236-19.24-0.176
					c-0.215-10.631-22.088-140.504-22.367-157.207c-0.715-42.293,10.188-50.287,21.064-78.781
					C874.207,777.1,911.871,749.256,911.793,783.537z"/>
			</g>
			<g>
				<g>
					<path style="fill:#0B152A;" d="M861.063,789.586c-18.041-62.625-32.381-209.59-32.381-209.59s9.898-15.24,48.994-20.502
						c39.201-5.285,38.17,19.106,37.769,15.975c0,0,7.225,104.207-3.652,208.068C911.793,783.537,885.137,804.81,861.063,789.586z"
						/>
					<path style="fill:#0B152A;" d="M868.232,788.19c31.055,34.287,43.361-1.984,43.361-1.984"/>
					<path style="fill:#0B152A;" d="M905.574,1012.742c4.578-6.432,6.219-229.205,6.219-229.205
						c0.078-34.281-42.133-18.479-42.133-18.479c-10.877,28.494-17.232,48.529-16.518,90.822
						c0.279,16.703,11.443,149.281,11.658,159.914C864.801,1015.795,892.465,1031.152,905.574,1012.742z"/>
				</g>
			</g>
			<path style="fill:#0B152A;" d="M830.252,531.457c0,0-20.998,33.885,0,71.865c20.998,37.988,85.105,24.141,85.295-25.059
				C915.734,529.66,871.502,511.076,830.252,531.457z"/>
			<path style="fill:#F7A483;" d="M799.631,462.426c-5.545,19.721-28.404,94.973-28.404,94.973
				c81.844,97.92,143.506,12.238,144.32,3.307c0.977-10.689-10.957-51.51-13.123-95.537
				C902.424,465.168,880.109,430.813,799.631,462.426z"/>
			<path style="fill:#0B152A;" d="M915.07,585.211c3.881-26.371-4.16-52.973-8.303-79.625H786.873
				c-7.672,25.559-15.646,51.812-15.646,51.812s-5.129,60.453,46.215,67.699C817.441,625.098,906.918,640.604,915.07,585.211z"/>
			<g>
				<path style="fill:#F7A483;" d="M778.684,792.797c25.633,38.514,43.176,4.471,43.176,4.471l41.58-205.299
					c-0.064,3.156-1.246-26.744-40.797-27.33c-39.447-0.578-51.492,13.025-51.492,13.025S770.117,728.193,778.684,792.797"/>
				<path style="fill:#F7A483;" d="M822.451,794.658c0,0-41.174,233.867-43.596,241.379c0,0-19.572,1.355-19.002-3.025
					c1.361-10.541-2.172-158.02,0.029-174.578c5.561-41.932,11.373-49.146,26.352-75.709
					C786.234,782.725,827.607,760.758,822.451,794.658z"/>
			</g>
			<g>
				<path style="fill:#17181C;" d="M780.725,1031.518l11.58,35.32c0,0-2.389,31.619-27.748,12.023l-7.549-7.32
					c-3.857-3.264-2.73-7.76-2.73-7.76l2.258-13.535l2.689-18.729C759.225,1031.518,775.111,1020.738,780.725,1031.518z"/>
				<path d="M764.557,1074.35l-7.549-7.316c-1.508-1.27-2.248-2.736-2.598-4.045l-0.133,0.793c0,0-1.127,4.496,2.73,7.76l7.549,7.32
					c25.359,19.596,27.748-12.023,27.748-12.023l-0.449-1.377C790.432,1072.924,784.844,1090.025,764.557,1074.35z"/>
			</g>
			<g>
				<g>
					<path style="fill:#152035;" d="M773.215,793.6"/>
					<path style="fill:#152035;" d="M773.215,793.6c-8.566-64.604-1.988-236.201-1.988-236.201s10.248-15.225,49.693-14.639
						c39.551,0.584,47.654,45.615,47.719,42.451c0,0-33.275,175.75-47.719,218.139C820.92,803.35,796.494,824.221,773.215,793.6z"/>
					<path style="fill:#152035;" d="M788.621,1033.922c2.422-7.512,34.771-240.805,34.771-240.805
						c0.398-31.693-41.297-23.916-41.297-23.916c-14.977,26.563-18.453,38.975-24.014,80.906
						c-2.201,16.561-6.441,169.738-7.803,180.283C750.279,1030.391,767.768,1042.549,788.621,1033.922z"/>
				</g>
			</g>
			<g>
				<path style="fill:#E59375;" d="M889.775,313.984c0,0,14.416,102.379,28.578,142.248c0,0,23.33,4.992,30.891-8.225
					c0,0-2.598-87.516-5.631-140.238C943.613,307.77,914.877,275.363,889.775,313.984z"/>
				<path style="fill:#E59375;" d="M949.244,448.008c0,0,5.016,84.477,9.924,117.578c0,0-4.084,9.238-9.606,2.381
					c-9.234-11.471-36.885-115.451-31.592-121.951C942.656,415.672,949.244,448.008,949.244,448.008z"/>
				<path style="fill:#E59375;" d="M932.881,330.883c-11.975,9.07-29.041,6.82-38.115-5.027
					c-9.074-11.844-6.725-28.791,5.252-37.861c11.977-9.068,29.041-6.814,38.115,5.035
					C947.207,304.873,944.857,321.82,932.881,330.883z"/>
				<g>
					<path style="fill:#E59375;" d="M950.027,582.58l4.059,11.744l-4.014,17.346c0,0,3.473,2.094,5.773-3.775l3.779-14.391
						l-3.44-13.438L950.027,582.58z"/>
					<path style="fill:#E59375;" d="M954.014,586.057l4.711,11.504l-3.041,17.537c0,0,3.58,1.902,5.553-4.088l2.971-14.582
						l-4.184-13.225L954.014,586.057z"/>
					<path style="fill:#E59375;" d="M968.018,586.195l-4.824-13.625l-5.684-16.979l-11.19,0.543l-0.287,19.078l0.898,9.818
						l1.381,13.385l0.219,4.365c0,0,3.619,0.463,5.002-6.814l0.443-12.945l6.563,8.873l-0.775,17.908c0,0,2.705,8.756,4.76,4.875
						l4.486-25.766L968.018,586.195z"/>
				</g>
			</g>
			<path style="fill:#00BAC5;" d="M924.063,282.334c0,0,24.65,5.703,25.965,34.281l3.986,102.848c0,0-24.609,16.34-56.508,13.566
				C897.506,433.029,860.719,295.682,924.063,282.334z"/>
			<path style="fill:#3C2415;" d="M905.461,194.738c3.164-2.801,9.322-11.355,9.014-15.746c-0.09-1.313-1.393-2.35-1.393-3.998
				c0.002-1.701,0.746-2.359,1.357-3.736c1.289-2.902,1.545-4.465,1.557-7.91c0.008-2.396,0.451-7.107-1.184-9.01
				c-2.432-2.84-7.275-0.512-9.826,1.01c-5.301,3.158-8.287,8.287-13.777,11.316c-4.658,2.574-6.17,5.684-8.787,10.176
				c-3.297,5.656-6.051,16.148,0.998,20.418C889.908,201.186,900.08,199.512,905.461,194.738z"/>
			<path style="fill:#F7A483;" d="M777.607,812.359"/>
			<path style="fill:#F8A07D;" d="M840.689,254.016c0,0-4.818-9.271-15.457-27.068c0,0-22.633-23.246-9.949-52.457
				c0,0,6.961-24.432,49.68-20.881C864.963,153.609,869.053,220.85,840.689,254.016z"/>
			<path style="fill:#F7A483;" d="M839,215.943c0,0,7.189,67.018-8.141,72.088l54.654-3.252c0,0-8.588-20.254,1.4-35.188
				L839,215.943z"/>
			<path style="fill:#E1876F;" d="M882.51,273.072c-0.908-15.314,1.02-18.418,4.404-23.48L839,215.943c0,0,2.318,21.656,1.51,41.277
				C854.385,270.346,865.84,273.434,882.51,273.072z"/>
			<path style="fill:#F7A483;" d="M924.063,282.334c12.17,8.893,13.568,30.156,9.223,43.441
				c-4.988,15.25-6.967,34.717-11.961,56.779c-6.769,29.897-11.357,52.924-18.9,82.613c-6.246,24.555-104.912,4.77-104.912,4.77
				L762.148,349.09c0,0-6.088-31.545,22.49-42.043c0,0,30.105-16.25,52.146-23.715c19.463-6.596,26.512-7.213,46.49-5.984
				C883.275,277.348,910.049,278.33,924.063,282.334z"/>
			<path style="fill:#F8A07D;" d="M898.041,259.141l2.271-7.58c0,0,5.756-28.016,5.756-28.021c0.721-3.52,0.441-8.143-0.447-11.641
				c-0.967-3.807-1.703-7.811-0.994-11.957c3.447-20.094-7.484-30.549-7.484-30.549c-12.52-17.793-40-16.395-40-16.395
				c-33.898,3.381-35.104,36.414-35.104,36.414c-4.418,22.15,13.898,39.49,13.936,39.523c1.463,1.381,1.111,8.621,1.635,10.646
				c2.23,8.639,10.854,13.588,18.439,16.91c8.338,3.647,18.389,7.475,27.525,7.852C887.039,264.488,896.736,263.488,898.041,259.141
				z"/>
			<path style="fill:#3C2415;" d="M850.209,189.502c10.156-12.434,29.713-1.195,42.316-8.861c5.879-3.572,5.791-9.988,13.465-10
				c16.395-0.031,14.459-17.643,5.354-22.777c-1.842-0.129-3.727,0.025-5.525,0.232c-4.543,0.527-7.488,2.5-12.063,0.857
				c-4.795-1.729-8.889-4.971-13.412-7.246c-5.844-2.945-11.773-6.799-18.479-7.107c-8.258-0.377-10.883,5.65-16.992,9.611
				c-4.107,2.658-9.123,2.334-13.598,3.949c-6.703,2.418-12.652,6.555-18.754,10.143c-4.269,2.51-10.09,5.869-9.486,11.652
				c0.568,5.486,6.145,6.736,4.443,12.689c-2.947,10.307-0.828,20.949,2.842,30.768c2.238,5.996,4.508,12.09,7.967,17.512
				c3.535,5.533,8.191,10.217,13.117,14.518c1.703,1.482,7.098,5.379,9.285,8.574c0.32-13.508-2.395-12.396,1.145-19.121
				c1.373-2.615-0.145-4.811-1.115-7.4c-0.967-2.584-3.229-4.736-2.887-7.549c1.752,0.564,3.414,0.799,4.365-0.01
				c1.67-1.404,0.307-6.086,0.588-7.92c0.957-6.205,1.852-12.977,4.848-18.574C848.443,191.926,849.295,190.619,850.209,189.502z"/>
			<g>
				<g>
					<g>
						<g>
							<g>
								<g>
									<path style="fill:#F8A07D;" d="M841.238,234.947c-1.127,1.105-2.656,1.85-4.656,2.057
										c-5.398,0.574-10.48-3.934-11.35-10.057c-0.865-6.113,2.803-11.541,8.197-12.105c2.559-0.27,5.049,0.602,7.049,2.244
										c2.914,2.398,3.602,7.379,3.4,10.898C843.723,230.795,842.928,233.289,841.238,234.947z"/>
								</g>
							</g>
						</g>
					</g>
				</g>
				<g>
					<g>
						<path style="fill:#E98B6F;" d="M836.297,220.287c-0.707-3.18-6.85,0.68-5.646,2.375c0.699,0.979,1.928,1.6,2.916,2.229
							c1.353,0.859,2.061,1.701,2.428,3.273c0.045,0.186,0.146,0.744-0.023,0.898c-0.773,0.686-3.914-2.131-4.602-2.717
							c-1.348-1.158-1.781-3.375-1.406-5.055c0.406-1.791,1.438-2.742,3.291-2.85c1.469-0.09,2.971-0.17,3.103,1.658
							C836.361,220.143,836.332,220.451,836.297,220.287L836.297,220.287z"/>
					</g>
					<g>
						<path style="fill:#E98B6F;" d="M834.617,223.885c0.596-0.766,1.307-0.281,2.063,0.139c0.699,0.393,1.141,1.021,1.394,1.76
							c0.574,1.627,0.619,3.896-0.162,5.475c-0.635,1.271-1.85,2.148-3.277,2.281c-1.963,0.176-2.758-1.484-3.031-3.137
							c-0.074-0.441-0.242-1.494,0.164-1.818c0.435-0.346,0.855,0.34,1.207,0.617c0.488,0.361,1.148,0.441,1.738,0.426
							c1.129-0.037,2.154-0.74,2.764-1.654c0.102-0.164,0.191-0.355,0.234-0.541c0.125,1.084,0.098,1.334-0.088,0.748
							c-0.119-0.266-0.273-0.504-0.459-0.717c-0.545-0.701-1.377-1.121-1.971-1.775
							C834.912,225.385,834.316,224.273,834.617,223.885L834.617,223.885z"/>
					</g>
				</g>
			</g>
			<path style="fill:#E98B6F;" d="M888.291,221.355l-9.238,3.572c0,0,12.465,0.77,12.943-2.85c0,0-1.889-7.064-3.93-13.758
				C888.066,208.32,889.66,220.828,888.291,221.355z"/>
			<g>
				<path style="fill:#3C2415;" d="M872.166,208.32c0,1.951-1.076,3.529-2.4,3.529c-1.326,0-2.4-1.578-2.4-3.529
					s1.074-3.535,2.4-3.535C871.09,204.785,872.166,206.369,872.166,208.32z"/>
				<path style="fill:#3C2415;" d="M898.814,205.359c0,1.951-1.076,3.529-2.4,3.529c-1.326,0-2.4-1.578-2.4-3.529
					c0-1.951,1.074-3.535,2.4-3.535C897.738,201.824,898.814,203.408,898.814,205.359z"/>
				<path style="fill:#3C2415;" d="M874.664,201.463c0.863,0.18,1.074-0.979,1.076-0.979c0.27-1.121-0.059-2.072-0.059-2.072
					c-0.35-0.793-1.027-1.043-1.027-1.043c-2.225-0.313-6.545,0.24-10.205,1.334c-2.025,0.602-5.313,2.111-5.525,3.977
					c-0.064,0.559-0.117,1.521,0.518,1.691C859.441,204.371,866.416,202.213,874.664,201.463z"/>
				<path style="fill:#3C2415;" d="M904.965,198.428c-2.424,0.043-6.689,0.271-11.91,1.248c-0.785,0.404-1.301-0.648-1.303-0.648
					c-0.563-1.01-0.508-2.01-0.508-2.014c0.117-0.855,0.701-1.281,0.701-1.281c2.059-0.904,5.014-1.436,8.834-1.383
					c1.143,0.016,3.119,0.17,4.435,0.602C905.215,194.951,905.473,195.662,904.965,198.428z"/>
			</g>
			<g>
				<path style="fill:#FFFFFF;" d="M893.445,232.641c0.758-0.006,1.166,0.346,0.879,0.887c0,0-3.322,6.246-9.143,6.949
					c-5.82,0.701-10.574-4.566-10.574-4.566c-0.465-0.512-0.06-1.021,0.883-1.143C875.49,234.768,885.537,233.486,893.445,232.641z"
					/>
			</g>
			<path style="fill:#152035;" d="M779.508,533.467c0,0-20.998,33.883,0,71.865c21,37.988,85.104,24.141,85.293-25.059
				C864.988,531.67,820.756,513.086,779.508,533.467z"/>
			<path style="fill:#3DC0C6;" d="M883.275,277.348c0,0,26.773,0.982,40.787,4.986c12.17,8.893,13.568,30.156,9.223,43.441
				c-4.988,15.25-6.967,34.717-11.961,56.779c-6.769,29.897-6.172,53.164-13.715,82.854c-6.246,24.553-121.84,2.721-121.84,2.721
				L762.148,349.09c0,0-6.088-31.545,22.49-42.043c0,0,28.74-15.777,50.781-23.24c0,0-3.441,23.24,34.451,16.824
				C869.871,300.631,893.019,295.043,883.275,277.348z"/>
			<path style="fill:#3DC0C6;" d="M785.769,468.129c-5.543,19.723-16.955,82.084-16.955,82.084
				c15.006,62.242,153.096,17.457,153.91,8.525c0.977-10.689-11.033-57.555-13.199-101.582
				C909.525,457.156,866.252,436.516,785.769,468.129z"/>
			<path style="fill:#F7A483;" d="M812.81,358.213c-13.502,15.309-61.644,85.58-75.852,96.865
				c-3.777,3.004-36.09,16.656-35.721-8.334c39.861-88.654,69.053-129.012,69.053-129.012s31.773-14.555,47.027,11.035
				C817.318,328.768,822.275,347.623,812.81,358.213z"/>
			<path style="fill:#F7A483;" d="M823.238,335.656c2.969,17.592-8.885,34.256-26.477,37.223
				c-17.59,2.967-34.256-8.889-37.221-26.479c-2.969-17.59,8.887-34.256,26.475-37.223
				C803.607,306.213,820.275,318.066,823.238,335.656z"/>
			<path style="fill:#3DC0C6;" d="M795.135,301.539c0,0-26.826,10.436-39.074,30.449l-31.98,49.471c0,0,13.096,37.393,45.672,45.131
				l51.168-62.18C820.92,364.41,849.863,327.971,795.135,301.539z"/>
			<path style="fill:#F7A483;" d="M740.666,444.605c0,0,26,42.267,55.777,107.186c0,0,0.123,12.619-9.338,9.18
				c-9.465-3.422-82.297-94.203-82.846-103.852C702.852,432.31,740.666,444.605,740.666,444.605z"/>
			<g>
				<g>
					<path style="fill:#F7A483;" d="M804.088,584.16c-12.854-11.674-13.539-14.572-15.219-18.969
						c-7.268-18.871,15.428-12.641,20.848-9.893c3.109,1.58,1.346,9.469,9.17,21.603c0,0,13.734,13.365,17.859,13.699
						c0,0,3.973,1.617,3.228,4.594C839.975,595.195,827.016,599.033,804.088,584.16z"/>
				</g>
				<path style="fill:#F7A483;" d="M811.086,555.592c0,0-8.693,2.35-1.029,9.973l12.371,4.178c0,0,3.232,1.707,5.148-0.967
					c0,0,0.762-2.016-2.543-3.779L811.086,555.592z"/>
			</g>
		</g>
	</g>
	<path style="fill:#9EABD3;" d="M1089.795,1566.377c-283.373,0-513.119-130.965-513.119-292.561
		c0-161.545,229.746-292.539,513.119-292.539c283.396,0,513.109,130.994,513.109,292.539
		C1602.904,1435.412,1373.191,1566.377,1089.795,1566.377z"/>
	<g>
		<g>
			<g>
				<g>
					
						<line style="fill:none;stroke:#699FD5;stroke-width:10.887;stroke-miterlimit:10;" x1="163.859" y1="1385.539" x2="244.396" y2="1385.539"/>
					
						<line style="fill:none;stroke:#699FD5;stroke-width:10.887;stroke-miterlimit:10;" x1="256.398" y1="1385.539" x2="296.672" y2="1385.539"/>
				</g>
				<g>
					
						<line style="fill:none;stroke:#699FD5;stroke-width:11.7506;stroke-miterlimit:10;" x1="1879.158" y1="1069.084" x2="1972.969" y2="1069.084"/>
					
						<line style="fill:none;stroke:#699FD5;stroke-width:11.7506;stroke-miterlimit:10;" x1="1986.959" y1="1069.084" x2="2033.867" y2="1069.084"/>
				</g>
				<g>
					
						<line style="fill:none;stroke:#699FD5;stroke-width:10.887;stroke-miterlimit:10;" x1="1907.277" y1="677.859" x2="1826.736" y2="677.859"/>
					
						<line style="fill:none;stroke:#699FD5;stroke-width:10.887;stroke-miterlimit:10;" x1="1814.738" y1="677.859" x2="1774.471" y2="677.859"/>
				</g>
				<g>
					
						<line style="fill:none;stroke:#699FD5;stroke-width:10.887;stroke-miterlimit:10;" x1="1058.234" y1="248.246" x2="1069.463" y2="259.473"/>
					
						<line style="fill:none;stroke:#699FD5;stroke-width:10.887;stroke-miterlimit:10;" x1="1077.383" y1="267.393" x2="1088.611" y2="278.621"/>
					
						<line style="fill:none;stroke:#699FD5;stroke-width:10.887;stroke-miterlimit:10;" x1="1088.611" y1="248.246" x2="1077.383" y2="259.473"/>
					
						<line style="fill:none;stroke:#699FD5;stroke-width:10.887;stroke-miterlimit:10;" x1="1069.463" y1="267.393" x2="1058.234" y2="278.621"/>
				</g>
				<g>
					
						<line style="fill:none;stroke:#699FD5;stroke-width:10.887;stroke-miterlimit:10;" x1="177.486" y1="715.313" x2="188.715" y2="726.539"/>
					
						<line style="fill:none;stroke:#699FD5;stroke-width:10.887;stroke-miterlimit:10;" x1="196.635" y1="734.459" x2="207.861" y2="745.688"/>
					
						<line style="fill:none;stroke:#699FD5;stroke-width:10.887;stroke-miterlimit:10;" x1="207.861" y1="715.313" x2="196.635" y2="726.539"/>
					
						<line style="fill:none;stroke:#699FD5;stroke-width:10.887;stroke-miterlimit:10;" x1="188.715" y1="734.459" x2="177.486" y2="745.688"/>
				</g>
				<g>
					
						<line style="fill:none;stroke:#699FD5;stroke-width:10.887;stroke-miterlimit:10;" x1="1332.982" y1="697.482" x2="1344.209" y2="708.709"/>
					
						<line style="fill:none;stroke:#699FD5;stroke-width:10.887;stroke-miterlimit:10;" x1="1352.131" y1="716.631" x2="1363.357" y2="727.857"/>
					
						<line style="fill:none;stroke:#699FD5;stroke-width:10.887;stroke-miterlimit:10;" x1="1363.357" y1="697.482" x2="1352.131" y2="708.709"/>
					
						<line style="fill:none;stroke:#699FD5;stroke-width:10.887;stroke-miterlimit:10;" x1="1344.209" y1="716.631" x2="1332.982" y2="727.857"/>
				</g>
				<g>
					
						<line style="fill:none;stroke:#699FD5;stroke-width:10.887;stroke-miterlimit:10;" x1="1971.771" y1="1322.676" x2="1983" y2="1333.902"/>
					
						<line style="fill:none;stroke:#699FD5;stroke-width:10.887;stroke-miterlimit:10;" x1="1990.92" y1="1341.824" x2="2002.146" y2="1353.051"/>
					
						<line style="fill:none;stroke:#699FD5;stroke-width:10.887;stroke-miterlimit:10;" x1="2002.146" y1="1322.676" x2="1990.92" y2="1333.902"/>
					
						<line style="fill:none;stroke:#699FD5;stroke-width:10.887;stroke-miterlimit:10;" x1="1983" y1="1341.824" x2="1971.771" y2="1353.051"/>
				</g>
				<path style="fill:none;stroke:#699FD5;stroke-width:10.887;stroke-miterlimit:10;" d="M1811.254,204.555
					c0,7.697-6.236,13.938-13.934,13.938s-13.938-6.24-13.938-13.938c0-7.699,6.24-13.938,13.938-13.938
					S1811.254,196.855,1811.254,204.555z"/>
				<path style="fill:none;stroke:#699FD5;stroke-width:10.887;stroke-miterlimit:10;" d="M554.635,220.885
					c0,7.699-6.236,13.939-13.934,13.939c-7.697,0-13.938-6.24-13.938-13.939c0-7.697,6.24-13.936,13.938-13.936
					C548.398,206.949,554.635,213.188,554.635,220.885z"/>
				<path style="fill:none;stroke:#699FD5;stroke-width:10.887;stroke-miterlimit:10;" d="M648.332,846.889
					c0,7.703-6.236,13.939-13.934,13.939c-7.697,0-13.932-6.236-13.932-13.939c0-7.697,6.234-13.932,13.932-13.932
					C642.096,832.957,648.332,839.191,648.332,846.889z"/>
			</g>
		</g>
	</g>
	<g>
		<path style="fill:#9EABD3;" d="M1446.213,1107.19c0,36.117,65.795,65.387,146.959,65.387c81.156,0,146.951-29.27,146.951-65.387
			c0-36.109-65.795-65.385-146.951-65.385C1512.008,1041.805,1446.213,1071.08,1446.213,1107.19z"/>
		<g>
			<g>
				<g>
					<path style="fill:#17181C;" d="M1543.664,1092.531c-10.377,10.449-27.494,16.025-27.494,16.035
						c-14.426,3.664-22.91-5.932-22.91-5.932c-3.1-4.332,0.67-6.715,0.67-6.715c30.416-23.127,39.523-29.682,39.523-29.682h27.924
						c1.365,11.23,0.605,15.758,0.605,15.758c-2.424,3.307-7.537,7.979-15.32,9.283c-0.574,0.1-1.648-0.746-2.189-0.523
						L1543.664,1092.531z"/>
				</g>
				<path d="M1493.797,1096.016c0.115,0.649,0.297,1.293,0.584,1.908c2.359,5.063,8.93,7.15,14.135,7.076
					c6.256-0.09,11.939-3.146,17.389-5.9c5.258-2.658,9.865-6.02,14.4-9.768c3.146-2.611,7.166-3.83,10.887-5.447
					c4.195-1.83,7.357-4.674,10.982-7.398c0.016,3.012-0.191,5.51-0.191,5.51c-2.424,3.307-7.537,7.979-15.32,9.283
					c-0.574,0.1-1.648-0.746-2.189-0.523l-0.809,1.775c-10.377,10.449-27.494,16.025-27.494,16.035
					c-14.426,3.664-22.91-5.932-22.91-5.932C1490.506,1098.785,1493.164,1096.484,1493.797,1096.016z"/>
			</g>
			<g>
				<path style="fill:#E59375;" d="M1564.455,839.771c-31.057,34.287-43.361-1.98-43.361-1.98l-3.85-210.74
					c-0.404,3.133-1.436-21.256,37.77-15.975c39.094,5.266,48.992,20.506,48.992,20.506S1582.496,777.144,1564.455,839.771"/>
				<path style="fill:#E59375;" d="M1520.896,835.123c0,0,15.756,221.938,17.043,229.727c0,0,19.152,4.236,19.238-0.176
					c0.217-10.633,22.088-140.508,22.369-157.209c0.713-42.295-10.191-50.289-21.066-78.779
					C1558.48,828.685,1520.816,800.838,1520.896,835.123z"/>
			</g>
			<g>
				<g>
					<path style="fill:#104473;" d="M1573.805,847.75c18.043-62.625,30.201-216.168,30.201-216.168s-9.898-15.24-48.992-20.506
						c-39.205-5.281-38.174,19.107-37.77,15.975c0,0-11.875,114.272-1,218.135C1516.244,845.185,1549.734,862.975,1573.805,847.75z"
						/>
				</g>
			</g>
			<path style="fill:#F7A483;" d="M1633.063,514.008c5.539,19.723,28.402,94.975,28.402,94.975
				c-81.85,97.918-143.508,12.236-144.322,3.307c-0.977-10.691,10.957-51.512,13.121-95.537
				C1530.264,516.752,1552.578,482.395,1633.063,514.008z"/>
			<path style="fill:#104473;" d="M1517.617,636.797c-3.881-26.375,4.162-52.973,8.303-79.627h119.895
				c7.672,25.557,15.65,51.813,15.65,51.813s5.125,60.455-46.217,67.697C1615.248,676.68,1525.771,692.19,1517.617,636.797z"/>
			<g>
				<path style="fill:#F7A483;" d="M1654.006,844.383c-25.633,38.512-43.176,4.469-43.176,4.469l-41.58-205.301
					c0.064,3.16,1.244-26.742,40.799-27.326c39.445-0.582,51.49,13.021,51.49,13.021S1662.57,779.775,1654.006,844.383"/>
				<path style="fill:#F7A483;" d="M1610.234,846.24c0,0,41.178,233.871,43.602,241.383c0,0,19.568,1.352,19-3.025
					c-1.361-10.545,2.168-158.02-0.027-174.582c-5.561-41.932-11.375-49.143-26.352-75.709
					C1646.457,834.307,1605.084,812.344,1610.234,846.24z"/>
			</g>
			<g>
				<path style="fill:#17181C;" d="M1651.965,1083.104l-11.584,35.318c0,0,2.393,31.619,27.75,12.025l7.555-7.32
					c3.854-3.264,2.727-7.762,2.727-7.762l-2.254-13.533l-2.689-18.729C1673.469,1083.104,1657.578,1072.32,1651.965,1083.104z"/>
				<path d="M1668.131,1125.934l7.555-7.314c1.504-1.27,2.242-2.738,2.594-4.045l0.133,0.791c0,0,1.127,4.498-2.727,7.762
					l-7.555,7.32c-25.357,19.594-27.75-12.025-27.75-12.025l0.453-1.375C1642.258,1124.51,1647.846,1141.611,1668.131,1125.934z"/>
			</g>
			<g>
				<g>
					<path style="fill:#152035;" d="M1659.477,845.185"/>
					<path style="fill:#065099;" d="M1605.754,854.514c-14.443-42.389-41.703-217.717-41.703-217.717
						c0.064,3.16,8.166-41.871,47.721-42.453c39.443-0.584,49.693,14.639,49.693,14.639s12.354,171.596,3.785,236.203
						C1665.25,845.185,1637.469,877.271,1605.754,854.514z"/>
				</g>
			</g>
			<path style="fill:#E59375;" d="M1536.34,379.141c0,0-66.977,78.762-100.279,104.857c0,0-22.381-8.271-21.689-23.48
				c0,0,49.033-72.533,79.818-115.445C1494.189,345.072,1535.813,333.082,1536.34,379.141z"/>
			<path style="fill:#E59375;" d="M1429.984,452.549c0,0-84.428,5.756-117.887,5.098c0,0-8.643,5.219-1.137,9.828
				c12.551,7.701,119.199,21.914,124.977,15.84C1462.895,454.973,1429.984,452.549,1429.984,452.549z"/>
			<path style="fill:#E59375;" d="M1490.883,370.344c5.264,14.068,20.881,21.303,34.889,16.152
				c14.002-5.146,21.094-20.721,15.83-34.793c-5.268-14.068-20.881-21.301-34.893-16.15
				C1492.707,340.701,1485.619,356.273,1490.883,370.344z"/>
			<path style="fill:#872952;" d="M1524.32,334.055c0,0-23.875-8.377-40.285,15.057l-58.416,84.736c0,0,12.041,26.977,40.471,41.705
				C1466.09,475.553,1570.68,379.236,1524.32,334.055z"/>
			<path style="fill:#F7A483;" d="M1655.086,863.943"/>
			<path style="fill:#F8A07D;" d="M1591.996,305.602c0,0,4.822-9.273,15.459-27.068c0,0,22.635-23.248,9.951-52.461
				c0,0-6.963-24.43-49.682-20.881C1567.725,205.191,1563.637,272.432,1591.996,305.602z"/>
			<path style="fill:#F7A483;" d="M1593.688,267.529c0,0-7.188,67.018,8.143,72.086l-54.658-3.254c0,0,8.592-20.25-1.396-35.185
				L1593.688,267.529z"/>
			<path style="fill:#E1876F;" d="M1550.176,324.656c0.91-15.313-1.016-18.42-4.4-23.48l47.912-33.647c0,0-2.318,21.654-1.51,41.275
				C1578.303,321.932,1566.848,325.02,1550.176,324.656z"/>
			<path style="fill:#F7A483;" d="M1508.627,333.918c-12.174,8.892-13.57,30.154-9.223,43.439
				c4.986,15.254,6.963,34.721,11.961,56.781c6.768,29.896,11.354,52.924,18.898,82.613c6.246,24.553,104.914,4.767,104.914,4.767
				l35.361-120.844c0,0,6.092-31.547-22.486-42.043c0,0-30.109-16.252-52.148-23.717c-19.463-6.596-26.512-7.211-46.494-5.984
				C1549.41,328.932,1522.641,329.916,1508.627,333.918z"/>
			<path style="fill:#271000;" d="M1526.207,210.27c-2.818,12.855-6.018,19.574-2.467,31.359
				c3.195,10.586,2.457,21.705,7.076,31.965c6.592,14.629,15.172,12.721,21.73-0.736c6.715-13.779,13.711-32.398-1.445-42.603
				C1541.367,223.699,1537.859,212.428,1526.207,210.27L1526.207,210.27z"/>
			<path style="fill:#F8A07D;" d="M1534.648,310.723l-2.275-7.578c0,0-5.752-28.014-5.752-28.02
				c-0.723-3.522-0.441-8.145,0.447-11.643c0.967-3.809,1.701-7.809,0.994-11.955c-3.451-20.096,7.484-30.553,7.484-30.553
				c12.52-17.793,39.996-16.395,39.996-16.395c33.9,3.385,35.107,36.416,35.107,36.416c4.418,22.15-13.902,39.49-13.939,39.525
				c-1.461,1.381-1.109,8.619-1.631,10.646c-2.232,8.639-10.855,13.586-18.441,16.908c-8.336,3.648-18.387,7.473-27.525,7.852
				C1545.646,316.07,1535.951,315.072,1534.648,310.723z"/>
			<path style="fill:#271000;" d="M1527.313,274.609c4.455,4.021,10.516,2.185,15.262,5.096c3.1,1.898,4.641,1.785,8.033,0.787
				c2.717-0.795,4.895-0.541,7.664,0.26c2.828,0.816,7.965,3.279,10.707,4.385c4.195,1.693,8.898,1.164,12.158-2.81
				c3.406-4.15,4.699-5.004,6.305-9.983c2.943-9.162,12.209-9.717,18.59-4.574c-4.18,7.846-9.299,12.733-9.32,12.752
				c-1.461,1.381-1.109,14.598-1.631,16.625c-2.232,8.639-10.855,13.586-18.441,16.908c-8.336,3.648-21.051,4.154-30.189,4.531
				c-3.465,0.145-10.498-3.514-11.801-7.863l-2.275-7.578c0,0-5.752-28.014-5.752-28.02c-0.1-0.486-0.139-1.033-0.201-1.555
				C1526.707,273.928,1526.973,274.299,1527.313,274.609z"/>
			<path style="fill:#271000;" d="M1526.695,222.225c7.678,0.01,7.586,6.426,13.467,10.002c12.604,7.664,32.16-3.572,42.318,8.857
				c0.914,1.119,1.766,2.424,2.574,3.939c2.998,5.602,3.891,12.371,4.848,18.576c0.281,1.834-1.08,6.518,0.59,7.922
				c0.951,0.807,2.609,0.57,4.363,0.01c0.342,2.811-1.918,4.965-2.885,7.547c-0.975,2.588-2.488,4.787-1.117,7.402
				c3.541,6.725,0.824,5.613,1.143,19.121c2.191-3.197,7.586-7.092,9.287-8.578c4.928-4.297,9.584-8.98,13.119-14.518
				c3.461-5.422,5.727-11.512,7.969-17.508c3.668-9.82,5.783-20.461,2.84-30.767c0,0-2.318-23.951-22.359-26.523
				c0,0,2.547-15.424-34.08-19.506c0,0-28.918,0.453-30.502-9.527c0,0-5.848,4.992-4.396,12.703c0,0-11.898,3.629-17.24-9.98
				C1516.633,181.396,1506.725,217.234,1526.695,222.225z"/>
			<g>
				<g>
					<g>
						<g>
							<g>
								<g>
									<path style="fill:#F8A07D;" d="M1591.48,286.174c0.898,1.16,2.152,1.979,3.844,2.285c4.561,0.836,9.127-3.41,10.201-9.482
										c1.074-6.063-1.744-11.662-6.299-12.494c-2.158-0.393-4.328,0.354-6.119,1.893c-2.605,2.248-3.467,7.191-3.492,10.713
										C1589.6,281.906,1590.137,284.432,1591.48,286.174z"/>
								</g>
							</g>
						</g>
					</g>
				</g>
				<g>
					<g>
						<path style="fill:#E98B6F;" d="M1596.393,271.871c0.707-3.182,6.848,0.682,5.646,2.375c-0.703,0.977-1.93,1.602-2.92,2.227
							c-1.35,0.861-2.057,1.701-2.424,3.277c-0.047,0.185-0.148,0.742,0.021,0.897c0.775,0.685,3.912-2.131,4.604-2.717
							c1.346-1.16,1.781-3.373,1.404-5.057c-0.404-1.791-1.436-2.74-3.291-2.85c-1.467-0.09-2.973-0.17-3.105,1.662
							C1596.328,271.725,1596.355,272.033,1596.393,271.871L1596.393,271.871z"/>
					</g>
					<g>
						<path style="fill:#E98B6F;" d="M1598.072,275.469c-0.596-0.766-1.307-0.279-2.063,0.141c-0.701,0.391-1.143,1.018-1.398,1.756
							c-0.574,1.629-0.615,3.896,0.166,5.477c0.633,1.27,1.85,2.15,3.273,2.283c1.967,0.174,2.76-1.486,3.035-3.137
							c0.074-0.441,0.24-1.494-0.164-1.818c-0.436-0.346-0.855,0.338-1.207,0.613c-0.488,0.365-1.148,0.445-1.738,0.426
							c-1.133-0.037-2.158-0.736-2.764-1.652c-0.102-0.166-0.191-0.354-0.234-0.541c-0.127,1.086-0.102,1.334,0.086,0.75
							c0.121-0.268,0.275-0.504,0.461-0.721c0.543-0.699,1.377-1.121,1.967-1.775
							C1597.775,276.969,1598.371,275.855,1598.072,275.469L1598.072,275.469z"/>
					</g>
				</g>
			</g>
			<path style="fill:#E98B6F;" d="M1544.398,272.94l9.238,3.57c0,0-12.465,0.773-12.943-2.846c0,0,1.887-7.068,3.928-13.762
				C1544.621,259.902,1543.027,272.412,1544.398,272.94z"/>
			<g>
				<path style="fill:#271000;" d="M1560.521,259.902c0,1.955,1.078,3.531,2.402,3.531s2.398-1.576,2.398-3.531
					c0-1.951-1.074-3.531-2.398-3.531S1560.521,257.951,1560.521,259.902z"/>
				<path style="fill:#271000;" d="M1533.873,256.941c0,1.955,1.078,3.531,2.402,3.531s2.396-1.576,2.396-3.531
					c0-1.951-1.072-3.531-2.396-3.531S1533.873,254.99,1533.873,256.941z"/>
				<path style="fill:#271000;" d="M1558.023,253.049c-0.861,0.178-1.074-0.982-1.074-0.982c-0.271-1.121,0.059-2.07,0.059-2.07
					c0.35-0.795,1.025-1.043,1.025-1.043c2.227-0.313,6.543,0.24,10.207,1.334c2.025,0.604,5.311,2.109,5.523,3.979
					c0.063,0.559,0.117,1.52-0.516,1.689C1573.248,255.955,1566.273,253.797,1558.023,253.049z"/>
				<path style="fill:#271000;" d="M1527.723,250.014c2.424,0.041,6.691,0.268,11.912,1.246c0.781,0.406,1.297-0.648,1.297-0.648
					c0.568-1.008,0.51-2.01,0.51-2.012c-0.115-0.857-0.701-1.281-0.701-1.281c-2.057-0.906-5.012-1.436-8.83-1.383
					c-1.143,0.016-3.119,0.17-4.438,0.6C1527.473,246.535,1527.217,247.246,1527.723,250.014z"/>
			</g>
			<g>
				<path style="fill:#FFFFFF;" d="M1539.242,284.223c-0.756-0.004-1.164,0.346-0.877,0.891c0,0,3.322,6.246,9.143,6.947
					c5.82,0.703,10.572-4.566,10.572-4.566c0.463-0.51,0.059-1.021-0.881-1.145C1557.199,286.35,1547.152,285.068,1539.242,284.223z
					"/>
			</g>
			<path style="fill:#065099;" d="M1653.182,585.049c0,0,20.998,33.887,0,71.869c-20.996,37.988-85.107,24.139-85.293-25.059
				C1567.697,583.256,1611.932,564.672,1653.182,585.049z"/>
			<path style="fill:#872952;" d="M1549.41,328.932c0,0-26.77,0.984-40.783,4.986c-12.174,8.892-13.57,30.154-9.223,43.439
				c4.986,15.254,6.963,34.721,11.961,56.781c6.768,29.896-1.766,51.752,5.777,81.441c6.246,24.555,136.811,0,136.811,0
				l16.586-114.904c0,0,6.092-31.547-22.486-42.043c0,0-28.744-15.777-50.783-23.244c0,0,3.439,23.244-34.451,16.824
				C1562.818,352.213,1539.666,346.629,1549.41,328.932z"/>
			<path style="fill:#872952;" d="M1653.953,515.58c5.539,19.723,9.926,86.215,9.926,86.215
				c-15.014,62.246-153.1,17.459-153.918,8.529c-0.973-10.689,3.26-61.559,5.422-105.586
				C1515.383,504.738,1573.465,483.967,1653.953,515.58z"/>
			<path style="fill:#F7A483;" d="M1613.25,403.623c9.01,18.32,42.453,110.811,53.201,125.43c2.859,3.889,30.422,21.65,36.627-2.559
				c-15.193-96.008-38.174-150.771-38.174-150.771s-26.84-22.379-48.279-1.693C1616.625,374.029,1606.891,390.926,1613.25,403.623z"
				/>
			<path style="fill:#F7A483;" d="M1609.449,387.24c-2.967,17.59,8.887,34.256,26.479,37.221
				c17.59,2.967,34.256-8.885,37.221-26.475c2.967-17.594-8.887-34.256-26.479-37.225
				C1629.086,357.795,1612.414,369.65,1609.449,387.24z"/>
			<path style="fill:#872952;" d="M1641.301,355.1c0,0,27.76,10.41,34.33,32.934l17.133,61.313c0,0-22.447,32.646-55.912,31.564
				l-33.059-73.434C1603.793,407.477,1581.551,366.236,1641.301,355.1z"/>
			<g>
				<path style="fill:#F7A483;" d="M1666.451,529.053c0,0-3.785,67.621,2.078,138.801c0,0,6.076,11.057,12.641,3.422
					c6.566-7.623,26.16-136.1,21.908-144.781C1692.148,504.184,1666.451,529.053,1666.451,529.053z"/>
				<path style="fill:#F7A483;" d="M1668.529,667.854l-11.967,11.557l-17.479,10.07c5.289,6.199,12.238,1.703,12.238,1.703
					c-3.455,12.85-4.699,22.143-4.699,22.143c-1.596,4.602,2.779,4.332,2.779,4.332c4.961-4.922,11.457-19.594,11.457-19.594
					c-2.488,8.756-8.709,22.683-8.709,22.683c-0.621,4.018,3.43,2.943,3.43,2.943c8.389-4.771,11.439-22.65,11.439-22.65
					c-0.945,6.789-6.533,20.654-6.533,20.654c0.914,2.785,2.275,1.863,2.275,1.863c7.225-2.766,10.111-19.971,10.111-19.971
					l-1.244,6.416c-2.498,8.635,2.918,6.486,2.918,6.486l2.01-4.314c5.9-13.254,4.391-25.289,4.391-25.289l0.223-15.611
					L1668.529,667.854z"/>
			</g>
			<path style="fill:#E59375;" d="M1272.24,459.969l7.766,3.578c0,0-15.75-3.322-18.016-10.086c0,0-0.797-1.287,1.797-2.029
				c0,0,12.572,5.693,18.781,6.818c0,0-13.693-3.098-21.971-8.275c0,0-2.307-3.928,2.377-4.141
				c-2.244-2.445,1.031-3.104,1.031-3.104s3.184-0.162,9.914,0.902c0,0,10.371,1.568,22.762,1.994c0,0-5.459-9.268-0.334-12.029
				l9.201,12.709l7.682,12.809l-2.27,8.359l-15.74,2.35c0,0-13.646-1.049-20.201-4.018
				C1275.02,465.807,1256.85,456.01,1272.24,459.969z"/>
			<path style="fill:#065099;" d="M1605.754,854.514l35.914,223.799c0,0,11.896,11.461,39.502,0l4.582-109.354
				c0,0,8.107-72.24-20.502-123.773C1665.25,845.185,1608.891,799.701,1605.754,854.514z"/>
			<path style="fill:#104473;" d="M1573.805,847.75c0,0,15.289,22.111,1.59,105.123l-14.018,113.365c0,0-16.123,9.654-34.271,0.441
				l-11.301-225.834C1515.805,840.846,1525.941,802.506,1573.805,847.75z"/>
		</g>
	</g>
	<g>
		<path style="fill:#3F1901;" d="M386.965,362.031c2.82,20.523,10.031,25.883,3.596,47.285
			c-5.941,19.773-22.299,34.281-24.484,55.602c-1.553,15.141,2.363,39.789,12.408,51.986c14.572,17.699,47.789,7.744,66.734,4.68
			c21.559-3.486,69.645-4.998,82.932-26.26c10.082-16.131-2.709-44.762-6.834-61.242c-5.238-20.92-10.719-41.791-15.559-62.809
			c-4.396-19.1-9.943-51.041-25.023-65.219c-15.07-14.168-32.07-10.188-51.061-8.047
			C406.91,300.576,383.443,336.404,386.965,362.031z"/>
		<path style="fill:#9EABD3;" d="M550.315,1157.389c0,36.115-65.795,65.389-146.957,65.389c-81.158,0-146.953-29.273-146.953-65.389
			c0-36.111,65.795-65.383,146.953-65.383C484.52,1092.006,550.315,1121.277,550.315,1157.389z"/>
		<g>
			<g>
				<polygon style="fill:#561136;" points="442.918,1153.014 445.332,1152.565 447.74,1132.33 441.408,1124.834 				"/>
				<g>
					<polygon style="fill:#152035;" points="440.016,1151.365 442.918,1153.014 442.467,1119.885 437.352,1118.727 					"/>
					<g>
						<path style="fill:#E59375;" d="M462.289,1109.678l5.375,17.762c0,0,7.318,17.105,13.353,23.857c0,0,10.891,14.932-9.49,13.936
							c0,0-21.736-1.156-21.406-15.1c0.287-11.994-10.732-26.877-10.732-26.877c-4.057-7.022,0.041-12.717,1.418-14.316l3.77-4.309
							l18.281-3.19L462.289,1109.678z"/>
						<path style="fill:#152035;" d="M482.197,1156.803c-8.984,1.678-18.086-1.66-23.672-7.166c-5.65-5.564-12.1-25.936-9.963-19.17
							c0.889,2.799-5.756-21.969-3.986-25.836l-3.77,4.309c-1.377,1.6-5.848,7.67-1.797,14.693c0,0,11.398,14.506,11.111,26.5
							c-0.33,13.943,21.406,15.1,21.406,15.1c12.233,0.598,13.195-4.543,12.014-8.75
							C483.111,1156.607,482.664,1156.715,482.197,1156.803z"/>
						<path style="fill:#152035;" d="M492.441,1162.76c0,0,3.066,5.801-6.666,5.801c0,0-36.473-2.316-36.457-17.986l-0.016-12.623
							c0,0,2.865,18.016,25.389,18.061c0,0,10.004,0,4.838-6.375L492.441,1162.76z"/>
					</g>
				</g>
			</g>
			<g>
				<path style="fill:#F7A483;" d="M421.213,429.19h47.807c-2.176-6.961-6.678-24.977,0.287-37.238l-48.295-31.715
					C421.012,360.236,429.596,413.453,421.213,429.19z"/>
				<path style="fill:#E1876F;" d="M426.572,399.156c2.865,7.315,7.494,10.883,15.049,13.272c8.367,2.645,16.41,3.17,24.277,1.799
					c-0.76-7.34-0.355-15.645,3.408-22.275l-48.295-31.715c0,0,2.615,16.234,3.551,33.418
					C425.217,395.484,425.853,397.322,426.572,399.156z"/>
				<path style="fill:#F7A483;" d="M478.502,403.022l2.535-7.19l6.193-21.152c0.857-3.357,1.26-7.949,0.107-11.23
					c-1.383-3.943-2.457-10.367-0.984-17.553c3.94-19.248-4.609-29.299-4.609-29.299c-11.232-17.697-37.742-17.613-37.742-17.613
					c-32.783,1.705-35.457,33.445-35.457,33.445c-5.268,21.121,11.572,38.65,11.6,38.68c2.137,2.219,2.365,5.816,3.391,8.563
					c1.096,2.932,2.76,5.666,4.807,8.018c4.613,5.287,10.627,10.348,16.809,13.494c5.857,2.984,17.213,6.045,25.271,5.961
					C473.766,407.107,477.051,407.147,478.502,403.022z"/>
				<g>
					<polygon style="fill:#561136;" points="325.492,1155.764 327.92,1156.109 336.695,1137.719 333.107,1128.586 					"/>
					<g>
						<polygon style="fill:#152035;" points="323.273,1153.271 325.492,1155.764 335.691,1124.238 331.217,1121.498 						"/>
						<g>
							<path style="fill:#F7A483;" d="M357.74,1120.93c-0.482,14.801-1.578,31.42,4.393,45.426c0,0,5.523,17.639-13.461,10.156
								c0,0-20.217-8.068-15.432-21.168c4.115-11.27-1.547-28.902-1.547-28.902c-1.586-7.947,4.125-12.023,5.938-13.102l4.955-2.875
								h19.004L357.74,1120.93z"/>
							<path style="fill:#152035;" d="M361.484,1171.949c-9.049-1.293-16.6-7.371-20.125-14.381
								c-3.568-7.082-3.141-28.445-3.287-21.354c-0.059,2.936,1.592-22.65,4.514-25.75l-4.955,2.875
								c-1.813,1.078-8,5.391-6.41,13.338c0,0,6.135,17.396,2.02,28.666c-4.785,13.1,15.432,21.168,15.432,21.168
								c11.393,4.49,13.955-0.066,14.184-4.43C362.408,1172.063,361.951,1172.02,361.484,1171.949z"/>
							<path style="fill:#152035;" d="M369.271,1180.879c0,0,1.047,6.479-8.176,3.355c0,0-33.801-13.895-28.76-28.73l4.035-11.961
								c0,0-3.065,17.984,18.256,25.254c0,0,9.473,3.207,6.623-4.492L369.271,1180.879z"/>
						</g>
					</g>
				</g>
				<path style="fill:#F7A483;" d="M378.734,899.762c-24.242,44.762-28.531,62.98-32.842,97.016
					c-2.516,19.795-1.68,103.18-4.277,115.619c-1.082,5.16,18.514,2.328,18.514,2.328c3.582-8.723,60.654-200.314,60.654-200.314
					s6.379-19.842,1.084-23.293C395.262,873.783,389.301,880.252,378.734,899.762z"/>
				<path style="fill:#F7A483;" d="M487.551,576.059c0,0,18.627,78.846,16.127,87.461c-7.203,24.807-77.43,82.633-138.371,31.865
					c0,0,12.547-88.424,46.248-130.656C411.555,564.729,422.185,575.709,487.551,576.059z"/>
				<path style="fill:#6652A2;" d="M478.051,415.846c0,0,24.379,47.133,35.266,72.99c-4.561,30.314-21.029,75.281-27.654,84.762
					c-14.502,20.779-80.816,2.228-80.816,2.228l-19.117-63.816c55.803-20.035,26.416-78.832,26.416-78.832l8.744-5.522
					c0,0,8.926,28.898,45.244,27.867c0,0,11.928-7.768,3.147-40.73C469.279,414.793,474.525,414.959,478.051,415.846z"/>
				<path style="fill:#E59375;" d="M417.359,684.748c0,0,6.416,127.199,29.949,195.609c3.504,10.201,43.719-3.355,43.719-3.355
					s20.291-109.443,19.078-154.785c-0.691-25.627-9.861-80.889-9.861-80.889S424.828,631.467,417.359,684.748z"/>
				<path style="fill:#E59375;" d="M448.463,879.9l42.564-2.898c0,0-26.154,217.141-28.525,226.268c0,0-18.303,6.621-17.926,1.361
					c0.889-12.678-14.379-110.125-14.842-130.074C428.984,942.506,430.24,922.266,448.463,879.9z"/>
				<g>
					<path style="fill:#E59375;" d="M462.805,439.395c-2.727,15.242,7.416,29.813,22.662,32.537
						c15.24,2.727,52.031,4.193,46.014-10.074c-11.603-27.525-24.305-41.805-39.545-44.533
						C476.684,414.594,465.531,424.152,462.805,439.395z"/>
					<path style="fill:#E59375;" d="M475.791,461.643l12.813-25.213l29.039-0.539c0,0,37.473,68.967,44.5,89.477
						c7.49,21.846-10.137,13.641-17.553,11.172C544.59,536.539,483.213,478.098,475.791,461.643z"/>
					<path style="fill:#E59375;" d="M544.59,536.539c0,0,23.959,30.269,39.92,37.531c0,0,16.439-11.199-21.225-44.836
						C563.285,529.234,549.49,515.787,544.59,536.539z"/>
				</g>
				<path style="fill:#F7A483;" d="M365.307,695.385c0,0,0.488,127.25,17.275,197.619c2.498,10.494,40.838,7.279,40.838,7.279
					s25.016-120.34,28.205-165.588c1.803-25.574,6.916-70.328,6.916-70.328S368.793,655.469,365.307,695.385z"/>
				<path style="fill:#F7A483;" d="M383.869,448.478c-19.557,14.301-9.559,35.805-9.559,35.805l36.942,89.719
					c0,0,59.908,20.375,74.41-0.404c6.625-9.481,12.754-34.635,20.797-70.91c5.465-24.652,5.832-67.717-8.043-80.471
					c-8.006-7.353-33.904-7.205-34.096-8.076l-41.965,13.516L383.869,448.478z"/>
				<path style="fill:#F7A483;" d="M462.965,566.676c3.551-0.641,22.697,6.922,22.697,6.922s13.795,58.795,14.582,67.73
					c0.781,8.93-60.697,55.213-129.373,28.865c0,0,34.682-81.797,39.748-98.9C416.439,551.654,462.965,566.676,462.965,566.676z"/>
				<path style="fill:#122B67;" d="M496.316,452.209c0,0,20.27,23.873,21.971,41.603c0.951,9.877-11.52,26.406-17.756,32.5
					C496.109,530.629,469.928,468.685,496.316,452.209z"/>
				<path style="fill:#3F1901;" d="M423.813,383.35c-0.164-14.971,0.213-14.053,0.213-14.053c0.35-4.375,8.93,5.057,8.756-0.643
					c-0.814-26.08,8.664-38.498,12.369-40.504c10.063-5.443,20.68-7.012,29.094-5.518c13.19,2.342,12.69,19.902,12.69,19.902
					c11.238-64.283-60.453-43.74-60.453-43.74c-34.914,9.17-31.315,42.072-31.315,42.072c-4.279,35.324,29.193,55.738,29.193,55.738
					L423.813,383.35z"/>
				<g>
					<g>
						<g>
							<g>
								<g>
									<g>
										<path style="fill:#F8A07D;" d="M426.109,378.254c-1.176,0.904-2.674,1.42-4.551,1.385
											c-5.076-0.07-9.293-4.824-9.41-10.602c-0.115-5.768,3.887-10.393,8.963-10.32c2.404,0.033,4.615,1.123,6.289,2.869
											c2.439,2.553,2.516,7.258,1.935,10.496C428.879,374.672,427.857,376.898,426.109,378.254z"/>
									</g>
								</g>
							</g>
						</g>
					</g>
					<g>
						<g>
							<path style="fill:#E98B6F;" d="M423.164,364.094c-0.303-3.035-6.438-0.137-5.514,1.572c0.543,0.984,1.617,1.705,2.463,2.393
								c1.158,0.943,1.727,1.809,1.887,3.316c0.021,0.172,0.059,0.699-0.123,0.822c-0.791,0.551-3.397-2.41-3.965-3.035
								c-1.121-1.23-1.275-3.328-0.738-4.848c0.572-1.617,1.637-2.379,3.363-2.274c1.383,0.08,2.781,0.176,2.701,1.887
								C423.238,363.963,423.174,364.248,423.164,364.094L423.164,364.094z"/>
						</g>
						<g>
							<path style="fill:#E98B6F;" d="M421.197,367.24c0.642-0.639,1.248-0.105,1.902,0.361c0.602,0.447,0.941,1.074,1.096,1.787
								c0.355,1.578,0.139,3.688-0.76,5.064c-0.734,1.105-1.963,1.787-3.297,1.75c-1.844-0.051-2.397-1.684-2.467-3.248
								c-0.021-0.412-0.053-1.404,0.357-1.664c0.445-0.281,0.754,0.406,1.053,0.701c0.414,0.389,1.02,0.543,1.568,0.59
								c1.047,0.088,2.078-0.445,2.742-1.225c0.117-0.139,0.223-0.307,0.281-0.477c0,1.023-0.059,1.248-0.164,0.686
								c-0.08-0.26-0.197-0.498-0.346-0.723c-0.432-0.707-1.148-1.189-1.627-1.865C421.309,368.668,420.873,367.57,421.197,367.24
								L421.197,367.24z"/>
						</g>
					</g>
				</g>
				<g>
					<path style="fill:#3C2415;" d="M455.188,355.926c0.174,1.818-0.682,3.385-1.914,3.506c-1.234,0.119-2.371-1.256-2.547-3.072
						c-0.176-1.816,0.682-3.383,1.908-3.502C453.869,352.736,455.012,354.113,455.188,355.926z"/>
					<path style="fill:#3C2415;" d="M480.406,352.525c0.068,1.826-0.877,3.338-2.121,3.385c-1.234,0.045-2.291-1.395-2.361-3.219
						c-0.063-1.822,0.883-3.336,2.121-3.381C479.283,349.264,480.336,350.703,480.406,352.525z"/>
					<path style="fill:#3F1901;" d="M444.32,353.477c4.738-4.979,15.891-4.582,15.891-4.582s0.744-0.037,0.541-2.309
						c0,0-0.059-2.01-1.664-1.813C459.088,344.773,444.906,343.83,444.32,353.477z"/>
					<path style="fill:#3F1901;" d="M486.934,342.535c-5.824-2.814-14.178,0.533-14.178,0.533c-1.6,0.234-1.133,2.189-1.133,2.189
						c0.404,2.242,1.133,2.082,1.133,2.082s7.904-3.965,13.797-2.594C486.84,343.227,486.742,343.355,486.934,342.535z"/>
					<g>
						<path style="fill:#FFFFFF;" d="M477.217,378.959l-17.957,3.32c-0.947,0.18-1.318,0.736-0.815,1.238
							c0,0,5.168,5.166,10.988,4.078c5.82-1.088,8.734-7.772,8.734-7.772C478.422,379.24,477.986,378.902,477.217,378.959z"/>
					</g>
					<path style="fill:#E98B6F;" d="M464.32,373.301c9.408-0.682,9.924-3.148,9.924-3.148l-4.938-9.916
						C469.307,360.236,470.443,370.152,464.32,373.301z"/>
				</g>
				<g>
					<g>
						<path style="fill:#25386F;" d="M597.047,519.555l-22.699,91.631c0,1.693-1.143,2.004-1.143,2.004l-40.148,16.736
							c-2.055,0.352-1.82-1.6-1.82-1.6l22.699-91.139c0-1.918,1.256-2.199,1.256-2.199l39.971-16.662
							C595.162,518.326,597.047,517.537,597.047,519.555z"/>
						<g>
							<path style="fill:#365195;" d="M528.127,627.545l3.9,2.613c-0.725-0.232-0.769-1.486-0.769-1.486l22.678-91.4l-3.402-2.313
								l-22.699,91.873C527.834,626.832,527.775,627.31,528.127,627.545z"/>
							<path style="fill:#365195;" d="M554.828,535.172c0,0-0.904,0.465-0.893,2.1l-3.402-2.289c0-1.189,0.596-1.816,0.945-2.084
								L554.828,535.172z"/>
							<path style="fill:#A4DEF6;" d="M551.453,532.92c0.143-0.121,0.283-0.184,0.283-0.184l39.973-16.689
								c0,0,1.144-0.666,2.303,0.117l2.432,1.629c0,0,0.604,0.322,0.555,1.262c0,0-0.185-1.271-1.807-0.736l-40.363,16.853
								L551.453,532.92z"/>
						</g>
						<path style="fill:none;stroke:#365195;stroke-width:0.59;stroke-miterlimit:10;" d="M597.047,519.555l-22.699,91.631
							c0,1.693-1.143,2.004-1.143,2.004l-40.148,16.736c-2.055,0.352-1.82-1.6-1.82-1.6l22.699-91.139
							c0-1.918,1.256-2.199,1.256-2.199l39.971-16.662C595.162,518.326,597.047,517.537,597.047,519.555z"/>
					</g>
					<path style="fill:#E59375;" d="M588.711,553.637c-2.146,3.945-4.443,7.521-7.893,10.26c-3.936,3.113-10.506,2.168-13.035,4.439
						c-4.412,3.959-1.281,14.648,8.021,25.367c8.07,9.307,14.018-2.869,16.734-10.359c4.014-11.068,3.748-16.008-0.83-24.939
						L588.711,553.637z"/>
				</g>
				<path style="fill:#FFFFFF;" d="M426.353,379.313c0,1.715-1.393,3.109-3.109,3.109s-3.109-1.395-3.109-3.109
					s1.392-3.107,3.109-3.107S426.353,377.598,426.353,379.313z"/>
				<path style="fill:#CC4E7E;" d="M510.105,722.217c-0.41-15.074-2.668-40.394-5.35-58.697
					c-0.85-14.373-17.205-87.461-17.205-87.461c-65.365-0.35-80.117-11.33-80.117-11.33c-17.445,29.748-29.471,63.459-36.482,97.186
					c-3.932,18.902-5.871,36.139-5.275,55.213c0.789,25.313,1.768,50.586,3.576,75.85c0.316,4.441,2.715,49.898,4.793,50.096
					c0,0,109.639,11.404,128.68-38.186C506.977,774.795,510.639,742.25,510.105,722.217z"/>
				<path style="fill:#122B67;" d="M404.846,575.826c0,0,68.197,21.014,82.705,0.232c6.617-9.48,21.205-56.908,25.766-87.223
					c-10.887-25.857-35.266-72.99-35.266-72.99c-3.525-0.887-8.771-1.053-8.771-1.053c8.781,32.963-3.147,40.73-3.147,40.73
					c-36.318,1.031-45.244-27.867-45.244-27.867l-8.744,5.522c0,0,27.053,56.191-25.16,81.891
					C386.984,515.068,385.728,575.352,404.846,575.826z"/>
				<g>
					<path style="fill:#F7A483;" d="M415.594,472.238c2.137,15.336-8.559,29.504-23.9,31.637
						c-15.336,2.137-55.955-1.846-47.273-14.67c17.059-25.209,27.584-38.01,42.92-40.145
						C402.682,446.922,413.463,456.902,415.594,472.238z"/>
					<path style="fill:#F7A483;" d="M401.756,493.969l-11.826-25.691l-28.998-1.664c0,0-64.84,66.594-72.656,86.812
						c-8.326,21.543,9.604,14.023,17.111,11.84C305.387,565.266,393.703,510.125,401.756,493.969z"/>
					<path style="fill:#F7A483;" d="M287.213,565.512c0,0,30.305,47.008,61.629,76.006c0,0,13.986-0.883,9.84-8.643
						c-7.033-13.18-35.728-74.738-42.855-87.969C311.822,537.475,287.213,565.512,287.213,565.512z"/>
					<path style="fill:#F7A483;" d="M359.039,632.521l15.83,5.111l7.315-8.846c-0.451,10.076,2.572,17.105,2.572,17.105
						c8.762,10.022,13.977,17.809,13.977,17.809c3.461,3.424-0.59,5.109-0.59,5.109c-6.619-2.234-18.914-12.547-18.914-12.547
						c6.092,6.768,17.803,16.539,17.803,16.539c2.334,3.324-1.781,4.145-1.781,4.145c-9.627-0.59-20.242-15.293-20.242-15.293
						c3.838,5.676,14.963,15.666,14.963,15.666c0.404,2.902-1.223,2.674-1.223,2.674c-7.701,0.701-17.877-13.477-17.877-13.477
						l3.949,5.211c6.045,6.65,0.234,7.111,0.234,7.111l-3.705-2.986c-11.131-9.303-15.076-20.775-15.076-20.775l-7.08-13.916
						L359.039,632.521z"/>
				</g>
			</g>
		</g>
		<path style="fill:#3F1901;" d="M469.826,317.014c-21.666,11.873-33.885,22.785-28.262,49.146
			c5.068,23.768,6.795,36.781-6.307,57.986c-12.299,19.91-13.402,31.281-2.807,52.625c8.506,17.137,16.867,33.588-4.449,43.885
			c-40.229,19.434-77.631-12.471-62.547-56.025c6.762-19.527,23.189-32.834,31.008-51.602c7.92-19.014,0.287-35.213-1.402-54.436
			c-2.824-32.145,41.067-78.83,68.717-47.682c2.32,2.615,4.281,5.893,6.049,8.926V317.014z"/>
	</g>
	<g>
		<g>
			<path style="fill:#7C294B;" d="M642.764,1132.355v103.219c0,140.779,200.154,254.879,447.029,254.879
				c246.895,0,447.02-114.1,447.02-254.879v-103.219H642.764z"/>
			<path style="fill:#CC4E7E;" d="M1089.793,1387.227c-246.875,0-447.029-114.098-447.029-254.879
				c0-140.736,200.154-254.859,447.029-254.859c246.895,0,447.02,114.123,447.02,254.859
				C1536.813,1273.129,1336.688,1387.227,1089.793,1387.227z"/>
			<path style="fill:#FFFFFF;" d="M1089.793,1333.123c-194.475,0-352.139-89.875-352.139-200.773
				c0-110.865,157.664-200.76,352.139-200.76c194.484,0,352.131,89.895,352.131,200.76
				C1441.924,1243.248,1284.277,1333.123,1089.793,1333.123z"/>
			<path style="fill:#CC4E7E;" d="M1089.791,1284.383c-147.26,0-266.648-68.055-266.648-152.027
				c0-83.953,119.389-152.023,266.648-152.023c147.273,0,266.645,68.07,266.645,152.023
				C1356.436,1216.328,1237.064,1284.383,1089.791,1284.383z"/>
			<path style="fill:#FFFFFF;" d="M1089.793,1232.109c-96.627,0-174.961-44.656-174.961-99.754c0-55.088,78.334-99.75,174.961-99.75
				s174.957,44.662,174.957,99.75C1264.75,1187.453,1186.42,1232.109,1089.793,1232.109z"/>
			<path style="fill:#CC4E7E;" d="M1089.793,1182.791c-48.854,0-88.459-22.58-88.459-50.436c0-27.849,39.605-50.43,88.459-50.43
				c48.852,0,88.453,22.58,88.453,50.43C1178.246,1160.211,1138.645,1182.791,1089.793,1182.791z"/>
			<path style="fill:#7C294B;" d="M1089.793,1149.408c-16.521,0-29.912-7.633-29.912-17.053c0-9.414,13.391-17.051,29.912-17.051
				c16.518,0,29.908,7.637,29.908,17.051C1119.701,1141.775,1106.311,1149.408,1089.793,1149.408z"/>
		</g>
		<g>
			<polygon style="fill:#447FC1;" points="1089.791,733.455 1089.791,539.305 1179.611,492.127 1179.611,677.207 			"/>
			<polygon style="fill:#3DAFE4;" points="1089.791,733.455 1089.791,539.305 999.971,492.127 999.971,677.207 			"/>
			
				<line style="fill:none;stroke:#196EAB;stroke-width:32.6609;stroke-miterlimit:10;" x1="1089.791" y1="529.324" x2="1089.791" y2="1136.598"/>
		</g>
	</g>
	<g>
		<path style="fill:#F8A07D;" d="M1451.203,1148.195"/>
		<path style="fill:#F8A07D;" d="M1450.689,1148.707c0,0-3.82-9.961,9.43-13.568c18.789,11.92,46.961,17.58,46.961,17.58
			c32.441,10.9,99.246-2.996,129.643-9.311c34.143-7.092,49.953,31.51,17.213,44.143c-61.262,23.637-158.396-2.049-203.584-37.58"/>
		<path style="fill:#053B6B;" d="M1764.709,1548.76c-13.645-63.729-17.729-211.33-17.729-211.33s10.934-14.516,50.301-17.049
			c39.475-2.543,36.75,21.713,36.566,18.564c0,0-0.037,104.457-18.111,207.311
			C1815.736,1546.256,1787.664,1565.623,1764.709,1548.76z"/>
		<path style="fill:#007EA3;" d="M1833.449,1346.174c3.881-26.371-4.156-52.971-8.303-79.623h-119.895
			c-7.672,25.559-15.645,51.809-15.645,51.809s-5.131,60.457,46.217,67.699C1735.824,1386.059,1825.301,1401.568,1833.449,1346.174z
			"/>
		<path style="fill:#9EABD3;" d="M1903.84,1806.391c0,50.828-92.607,92.031-206.846,92.031c-114.234,0-206.84-41.203-206.84-92.031
			s92.605-92.031,206.84-92.031C1811.232,1714.359,1903.84,1755.563,1903.84,1806.391z"/>
		<g>
			<path style="fill:#17181C;" d="M1576.67,1803.063l6.832-0.396c2.328-0.359,2.313,3.301,2.625,3.426
				c7.148,2.818,13.492,5.021,16.178,5.131c0,0,12.639-1.641,13.99-5.473l-1.785-23.449c-14.082-1.182-28.781-3.904-28.781-3.904
				l-30.953-4.352c-14.896-1.549-17.602,3.836-17.602,3.836S1528.055,1791.5,1576.67,1803.063z"/>
			<path style="fill:#040308;" d="M1595.459,1801.676c-2.262-1.049-5.609-2.186-8.006-2.605
				c-15.27-2.674-30.203-4.189-42.916-14.006c-3.105-2.395-5.295-5.377-5.516-8.932c-1.412,0.916-1.848,1.748-1.848,1.748
				s-9.119,13.619,39.496,25.182l6.832-0.396c2.328-0.359,2.313,3.301,2.625,3.426c7.148,2.818,13.492,5.021,16.178,5.131
				c0,0,12.639-1.641,13.99-5.473l-0.436-5.713C1610.83,1802.93,1601.947,1804.676,1595.459,1801.676z"/>
		</g>
		<g>
			<path style="fill:#17181C;" d="M1783.459,1797.254l6.834-0.393c2.328-0.361,2.309,3.299,2.629,3.424
				c7.141,2.813,13.486,5.02,16.17,5.129c0,0,12.639-1.637,13.986-5.473l-1.775-23.445c-14.088-1.184-28.785-3.904-28.785-3.904
				l-30.955-4.354c-14.893-1.553-17.6,3.838-17.6,3.838S1734.842,1785.695,1783.459,1797.254z"/>
			<path style="fill:#040308;" d="M1802.25,1795.869c-2.266-1.049-5.613-2.188-8.006-2.604c-15.271-2.678-30.203-4.191-42.92-14.008
				c-3.104-2.398-5.295-5.375-5.516-8.934c-1.41,0.92-1.846,1.752-1.846,1.752s-9.121,13.619,39.496,25.178l6.834-0.393
				c2.328-0.361,2.309,3.299,2.629,3.424c7.141,2.813,13.486,5.02,16.17,5.129c0,0,12.639-1.637,13.986-5.473l-0.43-5.707
				C1817.621,1797.125,1808.736,1798.867,1802.25,1795.869z"/>
		</g>
		<path style="fill:#053B6B;" d="M1786.08,1778.211c-5.068-6.053-21.711-228.375-21.711-228.375
			c-2.758-34.176,54.07-19.824,54.07-19.824c8.275,34.023,6.938,40.428,9.537,82.646c1.029,16.676-1.629,154.787-1.012,165.406
			C1826.965,1778.064,1800.59,1795.541,1786.08,1778.211z"/>
		<path style="fill:#30528B;" d="M1742.484,1297.451c0,0-34.123,58.098-13.125,96.08c21,37.986,109.471-3.355,104.031-47.342
			C1827.428,1297.953,1783.732,1277.07,1742.484,1297.451z"/>
		<path style="fill:#F7A483;" d="M1718.01,1223.389c-5.545,19.721-28.402,94.971-28.402,94.971
			c62.646,59.08,143.504,12.236,144.32,3.307c0.977-10.691-10.955-51.51-13.125-95.537
			C1820.803,1226.129,1798.492,1191.771,1718.01,1223.389z"/>
		<path style="fill:#152035;" d="M1691.596,1554.564"/>
		<path style="fill:#30528B;" d="M1642.631,1537.727c6.65-64.834,52.834-230.229,52.834-230.229s13.498-12.432,51.734-2.719
			c38.336,9.742,42.469,59.629,43.266,56.566c0,0-44.49,104.689-103.691,196.922
			C1686.773,1558.268,1658.174,1572.91,1642.631,1537.727z"/>
		<path style="fill:#30528B;" d="M1584.945,1775.732c1.121-7.814,58.777-240.115,58.777-240.115
			c13.572-28.648,52.547,1.518,52.547,1.518c-0.133,20.791-0.688,45.877-14.115,85.984c-5.297,15.844-54.314,159.307-57.729,169.375
			C1624.426,1792.494,1595.459,1801.676,1584.945,1775.732z"/>
		<g>
			<path style="fill:#E59375;" d="M1865.951,1072.828c0,0,6.199,104.338,2.246,146.461c0,0,0,19.145-33.717,28.74
				c0,0-12.264-116.17-22.246-168.029C1812.234,1080,1832.146,1041.537,1865.951,1072.828z"/>
			<path style="fill:#E59375;" d="M1828.305,1099.777c13.834,5.857,29.826-0.51,35.717-14.221
				c5.895-13.707-0.537-29.559-14.371-35.416c-13.836-5.852-29.826,0.512-35.721,14.227
				C1808.037,1078.072,1814.473,1093.928,1828.305,1099.777z"/>
		</g>
		<path style="fill:#FFD47C;" d="M1842.443,1043.299c0,0,24.648,5.703,25.963,34.281l3.988,102.842c0,0-24.611,16.344-56.508,13.566
			C1815.887,1193.988,1779.098,1056.646,1842.443,1043.299z"/>
		<path style="fill:#F7A483;" d="M1695.986,1573.32"/>
		<path style="fill:#F7A483;" d="M1749.402,978.006c0,0-0.221,36.732-3.428,73.32l48.451-8.027c0,0-7.098-16.711,2.893-31.645
			L1749.402,978.006z"/>
		<path style="fill:#F7A483;" d="M1842.443,1043.299c12.17,8.891,13.566,30.156,9.225,43.436
			c-4.992,15.254-6.971,34.725-11.965,56.785c-6.77,29.893-11.357,52.922-18.9,82.609c-6.246,24.557-104.908,4.768-104.908,4.768
			l-35.367-120.842c0,0-6.086-31.547,22.492-42.043c0,0,30.104-16.25,52.146-23.719c19.461-6.594,26.512-7.211,46.49-5.982
			C1801.656,1038.311,1828.43,1039.295,1842.443,1043.299z"/>
		<path style="fill:#30528B;" d="M1697.889,1294.43c0,0-20.998,33.887,0,71.867c20.998,37.988,85.104,24.141,85.295-25.059
			C1783.369,1292.635,1739.135,1274.051,1697.889,1294.43z"/>
		<path style="fill:#FFD47C;" d="M1801.656,1038.311c0,0,26.773,0.984,40.787,4.99c12.664,9.252,12.439,27.42,9.998,41.172
			c-4.67,26.293-9.406,52.855-11.848,79.457c-1.084,11.785-4.016,35.77-4.895,47.568c-0.854,11.449-4.475,17.754-16.193,23.803
			c-8.904,4.598-15.521,0.949-25.223,1.209c-24.672,0.672-49.027-2.025-73.475-5.047c-1.031-0.127-39.189,25.615-26.633,6.674
			l-13.648-128.082c0,0-6.086-31.547,22.492-42.043c0,0,20.096-12.58,42.139-20.049
			C1745.158,1047.963,1783.486,1048.939,1801.656,1038.311z"/>
		<path style="fill:#F8A07D;" d="M1733.096,1020.428l-2.066-7.977c0,0-4.902-29.41-4.902-29.414c-0.613-3.693-0.143-8.5,0.92-12.111
			c1.154-3.928,2.078-8.068,1.504-12.412c-2.813-21.068,8.992-31.531,8.992-31.531c13.73-18.045,42.293-15.523,42.305-15.518
			c14.813,2.242,27.75,8.365,35.121,21.877c6.686,12.254,10.32,27.199,6.355,40.883c-4.348,14.994-12.752,26.711-23.871,37.346
			c-7.121,6.807-14.391,7.643-23.707,11.049c-6.484,2.369-18.896,3.752-25.787,3.801
			C1744.344,1026.432,1734.287,1025.014,1733.096,1020.428z"/>
		<path style="fill:#3F1901;" d="M1738.742,939.199l4.553,18.26c5.191,2.273,7.275,4.281,6.563,11.113l-1.648,15.082l4.107,1.574
			c-0.34-6.039,8.035-6.125,8.035-6.125c6.123-0.35,7.166,4.867,6.814,9.894c-0.906,13.049,3.844,33.775,14.783,37.422
			c4.322,1.439,12.469,2.939,13.832-2.912c1.67-7.154,15.225-21.371,15.225-21.371c16.283-15.766,20.365-42.682,12.67-63.244
			c-2.33-6.219-6.916-12.705-11.689-17.273c-10.156-9.713-22.938-14.492-36.416-16.248c0,0-18.563-2.262-28.996,5.063
			c-6.467,4.541-10.713,8.701-13.479,12.328C1733.096,922.762,1729.141,931.144,1738.742,939.199z"/>
		<g>
			<g>
				<g>
					<g>
						<g>
							<path style="fill:#F8A07D;" d="M1753.701,998.041c1.188,1.039,2.754,1.695,4.762,1.787
								c5.424,0.268,10.244-4.516,10.766-10.678c0.521-6.156-3.447-11.365-8.867-11.627c-2.568-0.123-5.008,0.887-6.91,2.639
								c-2.775,2.555-3.18,7.57-2.781,11.07C1750.984,994.035,1751.92,996.477,1753.701,998.041z"/>
						</g>
					</g>
				</g>
			</g>
		</g>
		<g>
			<g>
				<path style="fill:#E98B6F;" d="M1757.807,983.121c0.529-3.217,6.877,0.295,5.771,2.053c-0.645,1.016-1.834,1.709-2.785,2.389
					c-1.303,0.935-1.963,1.816-2.238,3.408c-0.035,0.19-0.107,0.748,0.074,0.893c0.811,0.641,3.785-2.344,4.438-2.971
					c1.281-1.232,1.59-3.467,1.123-5.125c-0.512-1.768-1.592-2.656-3.445-2.66c-1.473-0.006-2.979-0.002-3.008,1.834
					C1757.736,982.981,1757.783,983.285,1757.807,983.121L1757.807,983.121z"/>
			</g>
			<g>
				<path style="fill:#E98B6F;" d="M1759.686,986.617c-0.637-0.729-1.32-0.203-2.051,0.258c-0.676,0.43-1.08,1.08-1.293,1.834
					c-0.482,1.658-0.398,3.926,0.471,5.455c0.705,1.234,1.971,2.045,3.4,2.096c1.973,0.066,2.672-1.637,2.85-3.301
					c0.051-0.445,0.158-1.506-0.266-1.805c-0.455-0.322-0.836,0.385-1.17,0.68c-0.469,0.391-1.121,0.508-1.713,0.522
					c-1.129,0.025-2.191-0.615-2.852-1.494c-0.109-0.158-0.209-0.342-0.262-0.527c-0.066,1.092-0.025,1.338,0.127,0.746
					c0.104-0.275,0.244-0.521,0.42-0.746c0.504-0.728,1.311-1.197,1.865-1.883C1759.477,988.135,1760.01,986.99,1759.686,986.617
					L1759.686,986.617z"/>
			</g>
		</g>
		<g>
			<path style="fill:#F7A483;" d="M1429.551,1119.604c4.215-1.525,3.578-4.383,7.785-1.525c4.795,3.25,10.672,3.988,13.787,6.387
				c5.42,4.186,22.777,24.264,0.043,26.025c-5.293,0.42-23.727,6.113-27.5-2.295c-5.576-12.424-3.791-8.043,0-23.469
				L1429.551,1119.604z"/>
		</g>
		<path style="fill:#F7A483;" d="M1728.549,1091.303c9.053,14.1,4.963,32.867-9.135,41.92c-14.1,9.053-32.863,4.971-41.916-9.127
			c-9.059-14.102-4.969-32.869,9.133-41.928C1700.723,1073.117,1719.496,1077.205,1728.549,1091.303z"/>
		<path style="fill:#FFD47C;" d="M1690.508,1203.725c-3.934,41.371-6.48,142.676-6.48,142.676
			c14.68,39.176,154.723,6.111,155.535-2.82c0.979-10.689-1.889-85.975-4.055-130
			C1835.508,1213.58,1770.99,1172.113,1690.508,1203.725z"/>
		<path style="fill:#FFD47C;" d="M1726.895,1068.135c-28.486-9.521-56.262,27.107-56.262,27.107l-56.594,49.488
			c0,0,14.342,51.531,40.502,58.994c0,0,64.883-33.982,87.104-73.271C1741.645,1130.453,1757.967,1107.711,1726.895,1068.135z"/>
		<path style="fill:#3F1901;" d="M1730.885,938.775c4.17,3.359,9.477,1.156,14.238,0.051c6.496,7.621-1.281,15.236,8.559,18.926
			c5.213,1.955,12.924,2.516,18.691,3.447c4.611,0.744,9.271-0.322,12.566,3.119c3.572,3.727,0.189,15.334,4.404,17.56
			c7.375,3.891,13.16-16.289,22.555-14.689c8.02,1.363,9.436,14.084,6.633,20.342c0.936-0.822,1.602-1.164,2.1-1.426
			c3.822-9.963,8.701-10.141,12.918-17.225c6.529-10.981,5.428-8.363,6.729-18.91c0.014-0.096-1.285-4.617-1.301-4.674
			c-3.068-11.227-8.314-13.139-10.834-17.902c-2.658-5.029-6.762-8.551-10.172-12.98c-3.141-4.082-4.719-9.578-8.328-13.227
			c-5.475-5.539-14.453-8.316-21.986-9.309c-8.117-1.068-15.836,3.971-23.879,2.561c-3.301-0.58-6.387-3.574-9.697-3.389
			c-4.033,0.229-6.83,4.232-10.318,5.801c-6.484,2.916-16.701,1.738-22.244,6.305c-6.125,5.045-4.807,12.336-1.033,18.518
			c2.113,3.465,6.4,5.459,8.309,9.057C1729.318,931.725,1730.754,938.672,1730.885,938.775z"/>
		<path style="fill:#F7A483;" d="M1437.336,1118.078l-27.25-14.846c0,0-5.992,5.605,22.281,20.764L1437.336,1118.078z"/>
	</g>
	<g>
		<path style="fill:#9EABD3;" d="M864.461,1736.936l136.33-57.373c4.646,2.742,10.133,7.406,10.664,8.092
			c6.375,8.395-1.848,19.842,8.84,27.059c13.168,8.875,45.547,6.932,72.338-4.338c0.746-0.314,1.482-0.633,2.205-0.953
			c25.174-11.227,35.268-26.902,22.471-35.531c-8.18-5.52-22.271-5.17-33.76-7.291c-5.938-1.092-12.051-2.721-16.846-4.908
			c-1.039-0.479-6.18-3.445-9.191-5.99l136.502-57.434l257.088,173.471l-329.555,138.676l-106.359-71.775
			c0.418-0.199,0.857-0.398,1.318-0.604c5.258-2.346,12.834-4.879,14.039-5.148c15.863-3.484,37.318,0.742,51.021-5.02
			c16.791-7.48,13.365-24.441-7.301-38.387c-20.896-14.102-51.514-19.783-68.381-12.684c-10.473,4.666-10.063,12.012-14.117,18.02
			c-2.135,3.178-5.266,6.443-9.432,9.018c-0.5,0.305-2.42,1.27-4.844,2.354c-2.006,0.891-4.359,1.863-6.547,2.604L864.461,1736.936z
			"/>
	</g>
	<g style="enable-background:new    ;">
		<path style="fill:#394472;" d="M1121.697,1609.447c-0.027-3.068-1.627-5.859-4.965-8.113c-0.533-0.361-1.096-0.68-1.682-0.986
			c-0.18-0.098-0.371-0.182-0.557-0.273c-0.42-0.201-0.852-0.398-1.293-0.578c-0.111-0.049-0.209-0.1-0.318-0.145
			c-0.096-0.035-0.199-0.061-0.293-0.102c-0.707-0.266-1.43-0.52-2.18-0.738c-0.012-0.006-0.023-0.01-0.037-0.01
			c-0.004-0.006-0.01-0.006-0.01-0.006c-0.764-0.223-1.547-0.414-2.344-0.602c-0.092-0.018-0.176-0.047-0.268-0.068
			c-0.107-0.021-0.225-0.039-0.334-0.064c-0.941-0.201-1.898-0.385-2.881-0.547c-0.027-0.008-0.049-0.01-0.074-0.016
			c-0.08-0.014-0.166-0.023-0.244-0.037c-1.012-0.166-2.031-0.309-3.063-0.447c-0.111-0.01-0.219-0.029-0.33-0.043
			c-1.082-0.143-2.174-0.268-3.27-0.393c-0.063-0.01-0.127-0.014-0.191-0.023c-0.883-0.102-1.77-0.203-2.652-0.303
			c-1.041-0.117-2.08-0.242-3.109-0.375c-0.191-0.027-0.377-0.049-0.568-0.072c-1.012-0.135-2.01-0.279-2.994-0.434
			c-0.51-0.088-1.023-0.168-1.525-0.26c-1.031-0.191-2.068-0.404-3.1-0.633c-0.186-0.043-0.371-0.08-0.557-0.123
			c-0.756-0.17-1.506-0.346-2.25-0.533c-0.021-0.008-0.039-0.014-0.059-0.016c-0.754-0.195-1.492-0.396-2.232-0.609
			c-0.234-0.068-0.467-0.145-0.701-0.215c-0.51-0.148-1.016-0.313-1.516-0.477c-0.244-0.08-0.486-0.16-0.729-0.246
			c-0.516-0.174-1.02-0.359-1.514-0.549c-0.191-0.076-0.383-0.143-0.57-0.215c-0.637-0.25-1.254-0.51-1.846-0.781
			c-0.934-0.432-5.531-3.084-8.23-5.363l0.604,68.598c2.695,2.281,7.299,4.934,8.23,5.365c0.59,0.27,1.211,0.527,1.844,0.781
			c0.049,0.012,0.09,0.033,0.135,0.055c0.143,0.053,0.291,0.104,0.432,0.154c0.5,0.189,1.008,0.381,1.527,0.559
			c0.234,0.082,0.475,0.16,0.711,0.238c0.512,0.166,1.031,0.33,1.557,0.49c0.146,0.045,0.285,0.09,0.434,0.133
			c0.068,0.021,0.148,0.039,0.219,0.061c0.744,0.215,1.492,0.424,2.254,0.619c0.004,0,0.01,0,0.01,0
			c0.76,0.197,1.531,0.379,2.305,0.551c0.072,0.018,0.141,0.035,0.215,0.051c0.107,0.025,0.211,0.043,0.314,0.063
			c1.039,0.23,2.08,0.447,3.117,0.637c0.422,0.076,0.848,0.15,1.279,0.223c0.082,0.014,0.17,0.023,0.252,0.037
			c0.98,0.156,1.973,0.303,2.979,0.434c0.197,0.029,0.4,0.053,0.6,0.076c1.006,0.133,2.027,0.25,3.053,0.373
			c0.012,0,0.021,0,0.033,0.002c0.67,0.078,1.344,0.154,2.014,0.227c0.271,0.031,0.543,0.066,0.814,0.094
			c1.109,0.127,2.219,0.258,3.314,0.398c0.088,0.016,0.172,0.025,0.26,0.039c1.045,0.137,2.082,0.285,3.1,0.451
			c0.109,0.014,0.221,0.029,0.326,0.049c0.979,0.164,1.936,0.352,2.877,0.551c0.201,0.047,0.402,0.09,0.605,0.133
			c0.803,0.186,1.59,0.383,2.35,0.605c0.766,0.221,1.498,0.479,2.217,0.75c0.207,0.08,0.408,0.158,0.611,0.238
			c0.443,0.184,0.877,0.383,1.297,0.586c0.186,0.09,0.371,0.174,0.553,0.27c0.584,0.309,1.148,0.631,1.68,0.984
			c3.344,2.256,4.939,5.051,4.969,8.117L1121.697,1609.447z"/>
		<path style="fill:#424888;" d="M1022.309,1760.512c0.231-0.057,0.471-0.109,0.703-0.158c0.32-0.068,0.633-0.143,0.957-0.207
			c0.262-0.053,0.529-0.096,0.795-0.137c0.221-0.041,0.443-0.08,0.67-0.117l0.506,57.48l95.188,64.234l-0.605-68.596l-78.846-53.211
			c1.152,0.139,2.311,0.301,3.477,0.494c0.27,0.043,0.537,0.092,0.803,0.139c0.436,0.074,0.869,0.148,1.309,0.236
			c0.311,0.057,0.625,0.121,0.941,0.184c0.414,0.086,0.834,0.17,1.248,0.262c0.293,0.066,0.586,0.133,0.877,0.195
			c0.678,0.154,1.355,0.32,2.033,0.49c0.189,0.051,0.379,0.096,0.566,0.143c0.846,0.219,1.691,0.453,2.535,0.701
			c0.166,0.047,0.324,0.096,0.488,0.146c1.16,0.344,2.324,0.713,3.479,1.104c0.059,0.02,0.117,0.043,0.176,0.064
			c1.152,0.393,2.301,0.818,3.439,1.26c0.092,0.037,0.186,0.072,0.279,0.111c1.305,0.514,2.602,1.061,3.883,1.635
			c0.061,0.029,0.125,0.055,0.188,0.082c1.299,0.588,2.576,1.207,3.834,1.857c0.039,0.021,0.082,0.045,0.125,0.063
			c1.275,0.664,2.529,1.355,3.752,2.08c0.021,0.012,0.043,0.02,0.064,0.035c1.244,0.736,2.459,1.496,3.639,2.297
			c10.508,7.09,16.033,15.049,16.094,21.832c-0.201-22.869-0.404-45.732-0.602-68.596c-0.063-6.781-5.588-14.742-16.096-21.834
			c-1.18-0.799-2.395-1.563-3.637-2.295c-0.02-0.014-0.047-0.027-0.068-0.043c-1.223-0.721-2.473-1.412-3.748-2.07
			c-0.043-0.021-0.088-0.045-0.133-0.066c-1.254-0.648-2.529-1.271-3.828-1.855c-0.063-0.029-0.127-0.051-0.189-0.082
			c-1.277-0.578-2.574-1.125-3.881-1.641c-0.027-0.008-0.049-0.02-0.074-0.029c-0.066-0.023-0.135-0.045-0.201-0.072
			c-1.15-0.449-2.309-0.879-3.473-1.277c-0.045-0.014-0.09-0.033-0.137-0.045c-1.166-0.4-2.338-0.77-3.51-1.119
			c-0.092-0.027-0.182-0.059-0.271-0.084c-0.059-0.02-0.117-0.033-0.176-0.053c-0.854-0.25-1.709-0.48-2.563-0.707
			c-0.176-0.043-0.348-0.084-0.521-0.127c-0.697-0.178-1.396-0.346-2.092-0.506c-0.129-0.025-0.26-0.063-0.391-0.092
			c-0.143-0.035-0.289-0.063-0.436-0.092c-0.436-0.098-0.871-0.188-1.307-0.273c-0.301-0.063-0.602-0.121-0.904-0.18
			c-0.439-0.086-0.877-0.16-1.318-0.236c-0.213-0.035-0.426-0.08-0.639-0.115c-0.053-0.01-0.105-0.016-0.162-0.023
			c-1.18-0.191-2.352-0.359-3.516-0.498c-0.09-0.01-0.184-0.023-0.273-0.033c-0.066-0.012-0.137-0.014-0.205-0.025
			c-1.016-0.111-2.025-0.203-3.027-0.275c-0.082-0.006-0.164-0.016-0.248-0.02c-0.111-0.008-0.217-0.008-0.328-0.018
			c-1.861-0.115-3.68-0.152-5.449-0.107c-0.107,0-0.213-0.008-0.318,0c-0.092,0-0.182,0.012-0.277,0.014
			c-0.861,0.029-1.711,0.072-2.543,0.137c-0.02,0.002-0.037,0.002-0.057,0.002c-0.047,0.008-0.096,0.018-0.146,0.018
			c-0.873,0.076-1.725,0.174-2.564,0.293c-0.088,0.012-0.184,0.016-0.271,0.029c-0.063,0.008-0.127,0.021-0.191,0.031
			c-0.346,0.057-0.686,0.115-1.025,0.174c-0.24,0.043-0.486,0.084-0.723,0.127c-0.354,0.072-0.697,0.152-1.043,0.225
			c-0.185,0.041-0.375,0.076-0.555,0.121c-0.027,0.006-0.051,0.014-0.074,0.021c-0.742,0.176-1.465,0.385-2.166,0.604
			c-0.162,0.051-0.32,0.104-0.478,0.156c-0.703,0.234-1.398,0.484-2.059,0.76c-0.527,0.234-1.014,0.484-1.488,0.729
			c-0.137,0.08-0.273,0.16-0.408,0.236c-0.168,0.092-0.344,0.182-0.502,0.275c-0.139,0.084-0.258,0.17-0.391,0.258
			c-0.172,0.105-0.342,0.215-0.506,0.326c-0.258,0.172-0.502,0.354-0.738,0.537c-0.145,0.105-0.287,0.215-0.42,0.318
			c-0.049,0.043-0.102,0.078-0.144,0.115c-0.285,0.232-0.551,0.475-0.803,0.715c-0.031,0.029-0.059,0.063-0.09,0.09
			c-0.203,0.199-0.404,0.398-0.59,0.602c-0.053,0.063-0.104,0.125-0.158,0.188c-0.092,0.1-0.178,0.205-0.266,0.307
			c-0.178,0.213-0.35,0.43-0.512,0.648c-0.074,0.102-0.154,0.199-0.227,0.297c-0.039,0.053-0.082,0.109-0.119,0.166
			c-0.08,0.111-0.144,0.229-0.221,0.342c-0.141,0.205-0.277,0.418-0.406,0.631c-0.096,0.162-0.191,0.332-0.287,0.494
			c-0.117,0.207-0.232,0.416-0.342,0.625c-0.037,0.07-0.082,0.143-0.115,0.221c-0.047,0.082-0.08,0.162-0.117,0.24
			c-0.184,0.365-0.359,0.736-0.527,1.104c-0.037,0.08-0.074,0.162-0.111,0.24c-0.217,0.494-0.43,0.988-0.643,1.48
			c-0.16,0.377-0.324,0.756-0.49,1.129c-0.063,0.148-0.127,0.289-0.191,0.436c-0.201,0.453-0.412,0.898-0.637,1.346
			c-0.119,0.234-0.25,0.467-0.377,0.695c-0.063,0.111-0.117,0.227-0.18,0.33c-0.193,0.34-0.4,0.676-0.627,1.008
			c-0.141,0.207-0.291,0.412-0.442,0.625c-0.215,0.297-0.443,0.6-0.682,0.906c-0.102,0.133-0.201,0.26-0.307,0.387
			c-0.316,0.391-0.647,0.773-0.996,1.162c-0.027,0.029-0.053,0.061-0.082,0.096c-0.371,0.398-0.764,0.797-1.174,1.191
			c-0.115,0.113-0.24,0.225-0.361,0.34c-0.303,0.273-0.606,0.553-0.924,0.824c-0.154,0.131-0.316,0.26-0.479,0.393
			c-0.316,0.258-0.648,0.516-0.984,0.766c-0.154,0.115-0.309,0.232-0.467,0.346c-0.5,0.355-1.01,0.699-1.547,1.031
			c-0.043,0.027-0.107,0.061-0.17,0.098c-0.025,0.014-0.043,0.025-0.074,0.041c-0.059,0.031-0.139,0.074-0.217,0.119
			c-0.039,0.02-0.076,0.035-0.119,0.061c-0.08,0.041-0.17,0.086-0.26,0.133c-0.059,0.033-0.115,0.059-0.182,0.092
			c-0.084,0.045-0.18,0.09-0.275,0.137c-0.084,0.043-0.16,0.08-0.25,0.123c-0.086,0.049-0.188,0.09-0.279,0.135
			c-0.109,0.057-0.211,0.109-0.328,0.162c-0.096,0.043-0.207,0.1-0.313,0.146c-0.117,0.057-0.229,0.111-0.352,0.168
			c-0.158,0.074-0.33,0.154-0.496,0.229c-0.08,0.035-0.152,0.074-0.232,0.111c-0.254,0.115-0.516,0.234-0.785,0.352
			c-1.797,0.803-3.902,1.67-5.859,2.334l-95.297-64.309l0.6,68.598l95.301,64.305c1.957-0.66,4.061-1.531,5.857-2.332
			c0.525-0.234,1.016-0.459,1.477-0.67c0.008-0.004,0.016-0.01,0.025-0.016c0.217-0.102,0.42-0.193,0.617-0.293
			c0.016-0.004,0.037-0.016,0.049-0.023c0.152-0.072,0.297-0.139,0.435-0.207c0.059-0.027,0.121-0.061,0.176-0.088
			c0.115-0.053,0.217-0.105,0.32-0.16c0.066-0.033,0.141-0.068,0.205-0.1c0.09-0.045,0.164-0.082,0.238-0.125
			c0.07-0.035,0.143-0.07,0.201-0.1c0.063-0.037,0.113-0.063,0.17-0.09c0.059-0.029,0.121-0.063,0.172-0.09
			c0.043-0.027,0.074-0.043,0.111-0.064c0.037-0.023,0.08-0.045,0.107-0.063c0.01-0.006,0.022-0.014,0.029-0.018
			c0.539-0.328,1.053-0.68,1.551-1.035c0.152-0.109,0.301-0.221,0.449-0.332c0.344-0.254,0.682-0.514,1.006-0.779
			c0.076-0.064,0.164-0.123,0.244-0.189c0.074-0.066,0.143-0.133,0.221-0.195c0.316-0.275,0.625-0.545,0.92-0.822
			c0.125-0.117,0.254-0.234,0.377-0.352c0.406-0.387,0.795-0.785,1.164-1.182c0.002-0.008,0.008-0.012,0.014-0.02
			c0.031-0.031,0.053-0.061,0.084-0.092c0.342-0.381,0.67-0.764,0.984-1.146c0.106-0.131,0.207-0.264,0.314-0.398
			c0.231-0.295,0.453-0.596,0.668-0.893c0.057-0.08,0.123-0.16,0.18-0.24c0.092-0.127,0.18-0.26,0.268-0.387
			c0.223-0.336,0.432-0.668,0.627-1.008c0.07-0.125,0.133-0.25,0.203-0.375c0.111-0.205,0.229-0.41,0.332-0.613
			c0.006-0.012,0.01-0.021,0.016-0.033c0.227-0.449,0.44-0.9,0.646-1.357c0.06-0.141,0.121-0.277,0.184-0.42
			c0.164-0.375,0.328-0.75,0.49-1.127c0.213-0.5,0.426-1,0.652-1.504c0.029-0.07,0.066-0.139,0.096-0.209
			c0.172-0.383,0.353-0.76,0.539-1.135c0.074-0.146,0.148-0.295,0.223-0.438c0.115-0.219,0.234-0.434,0.357-0.648
			c0.09-0.16,0.18-0.32,0.275-0.479c0.131-0.219,0.271-0.432,0.412-0.645c0.109-0.164,0.215-0.334,0.332-0.498
			c0.078-0.102,0.154-0.203,0.234-0.309c0.16-0.213,0.33-0.42,0.506-0.633c0.09-0.104,0.174-0.213,0.269-0.314
			c0.234-0.264,0.479-0.521,0.74-0.775c0.031-0.035,0.063-0.07,0.098-0.102c0.295-0.281,0.613-0.559,0.949-0.828
			c0.133-0.107,0.271-0.209,0.408-0.314c0.24-0.184,0.49-0.367,0.75-0.545c0.16-0.105,0.328-0.215,0.498-0.322
			c0.287-0.18,0.586-0.361,0.9-0.541c0.133-0.074,0.266-0.15,0.406-0.225c0.471-0.25,0.961-0.494,1.488-0.73
			c0.66-0.279,1.352-0.529,2.055-0.76c0.16-0.057,0.32-0.109,0.478-0.156C1020.85,1760.895,1021.566,1760.689,1022.309,1760.512z"/>
		<g>
			<polygon style="fill:#5860AB;" points="1415.459,1688.904 1416.063,1757.5 1121.127,1881.607 1120.521,1813.012 			"/>
		</g>
		<g>
			<path style="fill:#6174B8;" d="M890.445,1657.756l122.008-51.344c4.158,2.449,9.064,6.623,9.543,7.24
				c5.705,7.51-1.652,17.76,7.914,24.213c11.781,7.947,40.76,6.209,64.734-3.881c0.67-0.281,1.328-0.563,1.977-0.85
				c22.529-10.047,31.563-24.076,20.111-31.801c-7.32-4.941-19.936-4.629-30.217-6.521c-5.313-0.984-10.781-2.441-15.072-4.396
				c-0.934-0.432-5.531-3.084-8.23-5.363l122.162-51.396l230.084,155.248l-294.938,124.107l-95.186-64.236
				c0.375-0.174,0.77-0.361,1.18-0.541c4.705-2.1,11.488-4.367,12.564-4.609c14.195-3.117,33.396,0.67,45.66-4.488
				c15.027-6.695,11.961-21.875-6.533-34.355c-18.701-12.619-46.1-17.707-61.197-11.35c-9.371,4.174-9.004,10.744-12.633,16.127
				c-1.91,2.842-4.713,5.766-8.443,8.066c-0.447,0.271-2.164,1.139-4.332,2.105c-1.797,0.803-3.902,1.67-5.859,2.334
				L890.445,1657.756z"/>
		</g>
	</g>
	<g>
		<path style="fill:#9EABD3;" d="M599.391,1692.848c-8.176-5.525-22.283-5.176-33.752-7.287c-5.951-1.098-12.065-2.729-16.852-4.912
			c-1.039-0.482-6.191-3.445-9.195-5.994l136.498-57.438l-106.355-71.766c0.43-0.209,0.893-0.422,1.371-0.635
			c5.25-2.34,12.789-4.865,13.986-5.127c15.854-3.482,37.309,0.746,51.572-5.26c16.236-7.238,12.813-24.201-7.859-38.143
			c-20.895-14.105-51.512-19.781-68.887-12.463c-9.953,4.441-9.555,11.783-13.609,17.797c-2.133,3.178-5.266,6.445-9.436,9.016
			c-0.5,0.305-2.416,1.273-4.84,2.355c-2.01,0.896-4.359,1.861-6.549,2.605l-106.482-71.857L89.447,1582.416l257.088,173.473
			l136.348-57.369c4.625,2.738,10.113,7.4,10.648,8.092c6.373,8.391-1.848,19.838,8.84,27.053
			c13.168,8.877,45.547,6.934,72.338-4.336c0.752-0.311,1.494-0.639,2.223-0.959C602.1,1717.141,612.178,1701.473,599.391,1692.848z
			"/>
		<g style="enable-background:new    ;">
			<g>
				<path style="fill:#7C294B;" d="M628.598,1445.855c0.002,0.164-0.012,0.33-0.018,0.5c-0.002,0.178-0.008,0.354-0.021,0.531
					c-0.01,0.143-0.031,0.293-0.047,0.436c-0.019,0.17-0.037,0.348-0.064,0.516c-0.025,0.166-0.059,0.332-0.096,0.492
					c-0.023,0.131-0.047,0.252-0.076,0.381c-0.041,0.17-0.09,0.34-0.141,0.502c-0.033,0.119-0.064,0.242-0.103,0.357
					c-0.025,0.076-0.051,0.143-0.078,0.211c-0.164,0.465-0.35,0.922-0.576,1.369c-0.006,0.01-0.008,0.023-0.014,0.031
					c-0.221,0.426-0.479,0.846-0.758,1.252c-0.045,0.068-0.088,0.135-0.135,0.205c-0.281,0.396-0.594,0.775-0.93,1.152
					c-0.096,0.105-0.191,0.209-0.287,0.309c-0.109,0.115-0.219,0.225-0.328,0.33c-0.125,0.125-0.258,0.244-0.391,0.365
					c-0.119,0.107-0.238,0.217-0.367,0.326c-0.111,0.094-0.229,0.186-0.346,0.281c-0.211,0.17-0.436,0.336-0.658,0.502
					c-0.119,0.084-0.24,0.17-0.361,0.254c-0.244,0.166-0.5,0.334-0.76,0.494c-0.115,0.068-0.225,0.143-0.342,0.215
					c-0.225,0.131-0.461,0.258-0.697,0.381c-0.131,0.074-0.26,0.148-0.393,0.221c-0.379,0.188-0.767,0.377-1.172,0.557
					c-1.527,0.646-3.152,1.156-4.846,1.566c-1.35,0.326-2.742,0.588-4.174,0.791c-1.365,0.197-2.758,0.352-4.176,0.467
					c-1.977,0.158-3.998,0.252-6.045,0.307c-4.477,0.131-9.064,0.088-13.523,0.213c-2.01,0.059-3.996,0.15-5.93,0.307l0.604,68.6
					c1.934-0.16,3.918-0.254,5.926-0.307c4.463-0.127,9.055-0.088,13.527-0.213c2.047-0.059,4.068-0.148,6.045-0.309
					c1.416-0.113,2.814-0.271,4.174-0.465c1.432-0.209,2.824-0.471,4.174-0.795c1.695-0.406,3.316-0.916,4.848-1.568
					c0.404-0.178,0.797-0.365,1.178-0.563c0.109-0.057,0.213-0.117,0.322-0.176c0.26-0.139,0.519-0.281,0.773-0.43
					c0.023-0.014,0.051-0.027,0.076-0.041c0.078-0.045,0.146-0.098,0.225-0.143c0.269-0.168,0.535-0.338,0.791-0.514
					c0.123-0.082,0.24-0.17,0.355-0.25c0.227-0.168,0.447-0.334,0.66-0.506c0.065-0.049,0.139-0.1,0.201-0.152
					c0.051-0.043,0.096-0.088,0.15-0.129c0.121-0.109,0.244-0.217,0.363-0.324c0.131-0.121,0.264-0.238,0.389-0.363
					c0.113-0.109,0.223-0.225,0.328-0.33c0.066-0.072,0.139-0.141,0.203-0.205c0.029-0.037,0.053-0.068,0.082-0.105
					c0.34-0.373,0.65-0.76,0.934-1.16c0.018-0.023,0.039-0.047,0.059-0.07c0.029-0.041,0.047-0.08,0.076-0.123
					c0.279-0.408,0.537-0.828,0.756-1.26l0.004-0.008c0.004-0.006,0.006-0.01,0.008-0.016c0.229-0.453,0.42-0.918,0.586-1.385
					c0.014-0.041,0.031-0.072,0.043-0.109c0.008-0.027,0.016-0.053,0.023-0.08c0.045-0.135,0.082-0.273,0.121-0.408
					c0.043-0.15,0.086-0.299,0.123-0.453c0.031-0.139,0.059-0.275,0.088-0.412c0.023-0.113,0.053-0.225,0.072-0.34
					c0.008-0.045,0.01-0.082,0.016-0.125c0.029-0.18,0.051-0.367,0.068-0.553c0.016-0.127,0.033-0.26,0.043-0.393
					c0.016-0.199,0.021-0.404,0.027-0.611c0.002-0.1,0.012-0.199,0.012-0.299c0-0.047,0-0.09,0-0.133L628.598,1445.855z"/>
				<path style="fill:#7C294B;" d="M573.285,1462.732c-0.021,0.006-0.045,0.012-0.07,0.02c-1.275,0.309-7.842,2.52-12.449,4.572
					c-0.426,0.191-0.84,0.377-1.225,0.568l0.603,68.594c0.387-0.186,0.797-0.377,1.225-0.568c4.606-2.053,11.176-4.258,12.447-4.572
					c0.027-0.006,0.051-0.012,0.072-0.016c1.076-0.236,2.188-0.436,3.318-0.602c1.348-0.191,2.733-0.34,4.143-0.453l-0.604-68.6
					c-1.412,0.113-2.793,0.264-4.145,0.457C575.469,1462.301,574.363,1462.496,573.285,1462.732z"/>
			</g>
			<path style="fill:#A1426F;" d="M655.324,1600.715l-0.6-68.598l-122.16,51.404l0.5,57.088c-14.186,1.695-26.93,0.361-33.809-4.277
				c-4.578-3.092-5.279-7.047-5.391-11.156c-0.01-1.131-0.021-2.264-0.031-3.393c-0.029-3.379-0.266-6.729-2.494-9.662
				c-0.475-0.617-5.385-4.791-9.525-7.244l-122.027,51.348l0.604,68.598l122.023-51.346c4.142,2.445,9.055,6.621,9.529,7.242
				c1.996,2.625,2.391,5.59,2.475,8.605c0.012,1.129,0.02,2.262,0.029,3.393c0.039,4.484,0.443,8.859,5.408,12.215
				c11.787,7.941,40.764,6.205,64.738-3.879c0.674-0.289,1.34-0.576,1.992-0.863c15.949-7.113,25.129-16.225,25.063-23.678
				c-0.141-16.271-0.285-32.543-0.428-48.82L655.324,1600.715z"/>
			<path style="fill:#7C294B;" d="M619.44,1458.025l0.604,68.594c-12.764,5.381-31.965,1.592-46.154,4.711
				c-1.072,0.238-7.818,2.496-12.52,4.588c-0.428,0.191-0.838,0.383-1.225,0.568l-0.603-68.594c0.385-0.191,0.799-0.377,1.225-0.568
				c4.699-2.098,11.447-4.354,12.52-4.592C587.473,1459.615,606.674,1463.4,619.44,1458.025z"/>
			<polygon style="fill:#7C294B;" points="359.787,1656.225 129.707,1500.971 130.311,1569.57 360.391,1724.822 			"/>
			<path style="fill:#CC4E7E;" d="M586.08,1599.803c-7.315-4.943-19.94-4.629-30.205-6.521c-5.326-0.984-10.797-2.439-15.08-4.396
				c-0.932-0.43-5.541-3.084-8.23-5.363l122.16-51.404l-95.184-64.225c0.385-0.191,0.799-0.377,1.225-0.568
				c4.699-2.098,11.447-4.354,12.52-4.592c14.188-3.117,33.389,0.668,46.154-4.707c14.531-6.477,11.469-21.658-7.033-34.135
				c-18.697-12.623-46.102-17.703-61.65-11.152c-8.906,3.973-8.553,10.541-12.178,15.928c-1.912,2.844-4.717,5.766-8.445,8.066
				c-0.449,0.275-2.164,1.141-4.332,2.105c-1.797,0.803-3.902,1.67-5.861,2.334l-95.297-64.309l-294.936,124.107l230.08,155.254
				l122.027-51.348c4.141,2.453,9.051,6.627,9.525,7.244c5.705,7.508-1.65,17.754,7.916,24.211
				c11.779,7.945,40.76,6.207,64.736-3.879c0.676-0.281,1.34-0.574,1.992-0.861C588.508,1621.545,597.525,1607.521,586.08,1599.803z
				"/>
		</g>
	</g>
	<g>
		<path style="fill:#9EABD3;" d="M478.928,1839.035c0,36.113,65.795,65.385,146.961,65.385c81.158,0,146.953-29.271,146.953-65.385
			c0-36.111-65.795-65.387-146.953-65.387C544.723,1773.648,478.928,1802.924,478.928,1839.035z"/>
		<g>
			<g>
				<g>
					<path style="fill:#E59375;" d="M700.369,1837.041c0,0,15.59-2.85,11.201,9.869c0,0-36.393,15.629-61.811,12.107
						c0,0-17.865-0.602-15.063-19.982l-0.299-15.752l23.965,4.537l-1.361,14.971L700.369,1837.041z"/>
				</g>
				<path style="fill:#4F1531;" d="M634.697,1839.035c-0.016,2.492,0.76,4.875,2.391,6.754c6.271,7.232,18.602,7.449,27.281,6.9
					c13.74-0.877,28.045-2.959,41.514-5.809c2.971-0.627,3.795-1.602,3.826-2.471c-1.555-3.467-4.346-6.465-9.34-7.369l13.27-1.695
					c12.246-0.439,17.805,2.373,20.662,4.221c3.391,9.688-13.109,16.152-13.109,16.152s-17.522,6.635-38.641,10.789
					c0,0-46.584,10.984-52.213-3.342L634.697,1839.035z"/>
			</g>
			<g>
				<g>
					<path style="fill:#E59375;" d="M607.83,1815.391c0,0,15.59-2.85,11.201,9.865c0,0-36.393,15.629-61.811,12.107
						c0,0-17.865-0.598-15.063-19.98l-0.299-15.75l23.965,4.537l-1.361,14.969L607.83,1815.391z"/>
				</g>
				<path style="fill:#4F1531;" d="M542.158,1817.383c-0.016,2.494,0.76,4.873,2.391,6.752c6.272,7.234,18.602,7.453,27.281,6.9
					c13.74-0.877,28.045-2.957,41.512-5.805c2.973-0.631,3.797-1.604,3.828-2.473c-1.555-3.467-4.346-6.465-9.34-7.367l13.268-1.699
					c12.248-0.436,17.807,2.373,20.664,4.223c3.391,9.689-13.109,16.152-13.109,16.152s-17.521,6.635-38.641,10.789
					c0,0-46.584,10.986-52.213-3.344L542.158,1817.383z"/>
			</g>
			<g>
				<g>
					<path style="fill:#00468B;" d="M612.146,1394.732c0,24.559-19.916,44.48-44.482,44.48s-44.482-19.922-44.482-44.48
						c0-24.564,19.916-44.484,44.482-44.484S612.146,1370.168,612.146,1394.732z"/>
					<path style="fill:#00468B;" d="M539.67,1608.867c0,0,0.617,11.186,20.707,11.461c0,0,19.016,6.486,27.227-18.275
						c32.352-97.516,23.805-199.277,23.805-199.277s-45.68-25.445-88.227-8.043C523.182,1394.732,530.065,1522.734,539.67,1608.867z
						"/>
				</g>
				<path style="fill:#00468B;" d="M587.604,1602.053c0,0-15.672,210.762-17.133,218.289c-15.295,9.713-28.799-0.266-28.799-0.266
					c0.076-10.338-11.191-96.521-12.357-112.707c-1.998-27.818-5.342-62.959,12.236-102.936L587.604,1602.053z"/>
				<g>
					<path style="fill:#0058A9;" d="M668.594,1615.297c0,0,4.287,10.348,23.334,3.947c0,0,20.088-0.176,19.637-26.258
						c-1.781-102.73-46.795-209.191-46.795-209.191s-50.699-4.844-85.082,25.67C579.688,1409.465,630.994,1537.209,668.594,1615.297
						z"/>
					<path style="fill:#0058A9;" d="M663.629,1379.994c8.141,23.178-4.055,48.568-27.234,56.707
						c-23.18,8.137-48.568-4.053-56.707-27.236c-8.139-23.178,4.057-48.563,27.236-56.705
						C630.103,1344.623,655.492,1356.816,663.629,1379.994z"/>
				</g>
				<path style="fill:#0058A9;" d="M523.182,1388.258c5.377-49.465,30.193-72.424,30.193-72.424l85.984-10.863
					c0,0,23.709,41.248,26.185,83.287c-10.279,28.035-46.916,36.209-46.916,36.209l-27.814,8.254
					C590.815,1432.721,527.773,1423.141,523.182,1388.258z"/>
				<g>
					<path style="fill:#0058A9;" d="M707.594,1613.449c0,0-42.652,221.4-45.215,228.629c1.125-0.539-20.158,9.783-29.58-3.543
						c1.606-10.211,2.504-122.672,3.748-138.852c2.137-27.811,1.842-53.76,25.145-90.691
						C661.691,1608.992,719.922,1567.307,707.594,1613.449z"/>
				</g>
			</g>
			<path style="fill:#340E08;" d="M632.182,1771.453"/>
			<g>
				<g>
					<path style="fill:#E59375;" d="M516.822,1225.785c0,0,15.66,18.451,46.816,62.976l-5.385,9.131
						c0,0-53.361-26.879-70.383-57.051L516.822,1225.785z"/>
				</g>
				<g>
					<path style="fill:#E59375;" d="M560.922,1159.791c0,0-40.164,87.649-64.289,84.316c0,0-8.326,0.52-9.992-5.752
						c0,0-17.037-15.111,53.803-124.096c0,0,6.918-9.26,21.102-6.871C561.545,1107.389,583.059,1121.604,560.922,1159.791z"/>
				</g>
			</g>
			<g>
				<rect x="582.463" y="1091.182" style="fill:#F4B78E;" width="43.42" height="46.152"/>
			</g>
			<g>
				<path style="fill:#F7A483;" d="M652.744,1092.23l1.629-7.377c0,0,3.252-27.021,3.252-27.029
					c0.41-3.395-0.336-7.742-1.609-10.975c-1.381-3.521-2.543-7.242-2.209-11.229c1.621-19.324-10.822-28.246-10.822-28.246
					c-14.82-15.727-43.373-11.961-43.377-11.961c-14.758,2.805-27.404,9.047-34.049,21.728c-6.023,11.498-8.824,25.297-4.066,37.549
					c5.215,13.432,14.32,23.666,26.096,32.777c7.543,5.832,14.894,6.219,24.447,8.846c6.65,1.82,19.195,2.445,26.117,2.131
					C641.783,1098.273,651.809,1096.469,652.744,1092.23z"/>
			</g>
			<g>
				<path style="fill:#340E08;" d="M632.969,1067.217"/>
			</g>
			<g>
				<path style="fill:#340E08;" d="M632.969,1067.217c-2.143-3.041-9.942-4.912-9.945-4.912c-9.428-0.002-8.197,12.58-9.086,18.033
					c-0.289,1.77-0.633,3.596-1.031,5.406c-4.492,15.998-17.936,15.859-29.424,17.797c-0.428-0.252-0.877-0.508-1.344-0.766
					c-2.082-7.092-8.697-14.459-8.697-14.459c-17.256-14.916-22.885-41.725-16.316-62.82c1.99-6.379,6.232-13.156,10.768-18.012
					c9.648-10.334,22.219-15.859,35.658-18.389c13.359-2.512,61.148,3.971,48.109,32.994
					C651.66,1022.09,631.996,1044.773,632.969,1067.217"/>
			</g>
			<g>
				<g>
					<g>
						<path style="fill:#F8B78F;" d="M632.969,1067.217c-1.697-4.311-5.906-7.631-10.639-6.221c-3.473,1.041-5.543,4.098-5.197,7.67
							c0.068,0.775,0.24,1.539,0.314,2.314c1.365,8.279,10.1,11.436,10.1,11.436"/>
					</g>
					<g>
						<path style="fill:#DD9D7E;" d="M623.211,1064.908c0.477-0.346,1.481-0.531,2.098-0.572c3.168-0.199,5.721,4.682,2.553,5.553
							c-1.191,1.162,0.041,2.504,0.041,2.504c1.09,1.182,2.555,2.883,2.225,4.553c-0.199,0.988-1.299,1.523-2.293,1.768
							c-0.795,0.197-0.951-0.428-0.318-0.725c0.479-0.229,0.893-0.592,1.205-0.99c0.027-0.059,0.063-0.107,0.094-0.166
							c0.031-0.033,0.051-0.08,0.074-0.131c0.104-0.234,0.104-0.477,0.035-0.719c-0.713,0.506-1.902,0.623-2.457-0.031
							c-0.6-0.721-0.143-1.85-0.348-2.676c-0.15-0.574-0.416-1.123-0.73-1.641c-1.451-2.416,1.164-2.828,1.164-2.828
							c0.398,0.012,0.701,0.035,0.959,0.072c1.326-0.689-0.15-2.68-0.959-2.998c-0.941-0.367-2.092-0.242-2.764,0.482
							c-0.666,0.732-0.941,1.863-0.877,2.797c0.074,1.148,0.357,2.295,0.857,3.346c0.289,0.6,0.652,1.301,0.941,1.9
							c0.332,0.676-0.461,0.977-0.789,0.297c-0.693-1.432-1.986-3.533-2.26-5.516
							C621.44,1067.541,621.736,1065.965,623.211,1064.908z"/>
					</g>
					<g>
						<path style="fill:#DD9D7E;" d="M632.969,1067.217c0,0-0.377-0.541-0.994-1.518c-0.287-0.508-0.828-0.941-1.314-1.518
							c-0.463-0.518-1.301-1.113-2.002-1.555c-0.809-0.418-1.701-0.85-2.707-0.979c-0.99-0.129-2.051-0.129-3.088,0.213
							c-0.346,0.086-1.154,0.424-1.568,0.662c-0.42,0.271-0.84,0.561-1.248,0.957c-0.777,0.76-1.383,1.727-1.648,2.813
							c-0.266,1.102-0.271,2.145-0.053,3.494l0.117,0.949l0.012,0.123v0.016c-0.004-0.057,0.025,0.139-0.018-0.117l0.006,0.029
							l0.01,0.059l0.047,0.23l0.094,0.469c0.098,0.656,0.287,1.156,0.449,1.674c0.383,1.037,0.877,2.057,1.473,2.932
							c0.574,0.893,1.26,1.658,1.898,2.355c1.328,1.355,2.619,2.352,3.576,2.969c0.947,0.625,1.537,0.941,1.537,0.941
							s-0.654-0.131-1.732-0.568c-1.059-0.461-2.611-1.141-4.217-2.412c-0.785-0.643-1.639-1.377-2.365-2.316
							c-0.766-0.918-1.445-1.984-1.961-3.229c-0.25-0.637-0.516-1.309-0.635-1.895l-0.121-0.459l-0.059-0.234l-0.016-0.059
							l-0.031-0.186l-0.021-0.123l-0.139-0.951c-0.229-1.186-0.318-2.801,0.043-4.256c0.391-1.459,1.244-2.777,2.322-3.787
							c0.285-0.236,0.555-0.486,0.857-0.699l0.998-0.559c0.707-0.32,1.08-0.465,1.914-0.674c1.332-0.367,2.715-0.229,3.912,0.059
							c1.229,0.275,2.217,0.928,3.068,1.533c0.865,0.721,1.428,1.307,1.916,2.068c0.422,0.727,0.885,1.299,1.07,1.844
							C632.762,1066.584,632.969,1067.217,632.969,1067.217z"/>
					</g>
				</g>
				<g>
					<g>
						<path style="fill:#FFFFFF;" d="M627.541,1080.391c0,1.447,1.18,2.631,2.631,2.631c1.453,0,2.633-1.184,2.633-2.631
							c0-1.449-1.18-2.627-2.633-2.627C628.721,1077.764,627.541,1078.941,627.541,1080.391z"/>
					</g>
					<g>
						<path style="fill:#E6E7E8;" d="M629.541,1081.797c1.152,0,2.084-0.934,2.084-2.084c0-0.926-0.611-1.684-1.453-1.949l0,0
							c1.453,0,2.633,1.178,2.633,2.627c0,1.447-1.18,2.631-2.633,2.631c-1.451,0-2.631-1.184-2.631-2.631
							c0-0.064,0.016-0.125,0.021-0.186C627.785,1081.111,628.568,1081.797,629.541,1081.797z"/>
					</g>
				</g>
			</g>
			<g>
				<path style="fill:#4F1531;" d="M512.736,1336.457c0.168-0.242,47.934-68.777,47.934-68.777
					c2.236-10.107-2.805-30.219-2.805-30.219l-15.32-105.398c1.816-12.08,2.65-27.414,19-24.674
					c11.535,1.936,13.805,3.547,20.918,5.832c-2.084,9.787,14.81,16.078,14.81,16.078c23.24,10.037,28.609,3.422,28.609,3.422
					c6.188,3.352,27.1,13.799,32.527,18.262c5.641,4.641,9.053,11.865,7.277,24.031l-16.723,99.893l2.94,24.814l30.557,77.465
					c-9.447-3.387-19.775-4.758-29.769-3.557c-9.5,1.135-17.686,6.74-27.123,7.785c-14.256,1.57-24.84-3.578-35.6-10.396
					c-13.076-2.82-27.08-7.357-41.207-14.48c-0.299,0-0.592-0.004-0.894-0.004c-10.664,0.057-22.742-0.129-30.611-8.475
					C515.6,1346.299,510.719,1339.357,512.736,1336.457z"/>
			</g>
			<g>
				<path style="fill:#F7A483;" d="M678.16,1310.893l-0.279-121.348c-2.953-33.254-19.471-38.563-19.471-38.563
					c-33.377-3.91-28.238,57.941-28.238,57.941l13.939,104.541"/>
			</g>
			<g>
				<polygon style="fill:#C7EAFB;" points="757.465,1262.455 690.977,1233.781 743.295,1115.438 814.678,1144.098 				"/>
			</g>
			<g>
				<path style="fill:#F7A483;" d="M780.369,1215.031c-2.197,4.049-4.557,7.719-8.086,10.523
					c-4.027,3.193-10.766,2.227-13.359,4.555c-4.517,4.059-18.539,22.963,1.686,23.018c4.705,0.02,20.902,0.057,23.682-7.627
					c4.109-11.354,3.844-16.416-0.85-25.578L780.369,1215.031z"/>
			</g>
			<g>
				<g>
					<path style="fill:#F8B78F;" d="M641.996,1302.369"/>
				</g>
				<g>
					<path style="fill:#F7A483;" d="M656.369,1288.848l106.482-51.969c12.801,3.563,10.936,9.315,10.936,9.315l-65.391,52.305
						c-27.35,22.727-46.992,25.506-46.992,25.506s-17.172,6.246-18.744-18.35C642.66,1305.654,642.066,1294.539,656.369,1288.848z"
						/>
				</g>
			</g>
			<g>
				<path style="fill:#340E08;" d="M642.195,1059.791c-2.695,20.123,0.34,46.762-9.684,68.756
					c-4.465,9.795-9.389,14.648-6.713,26.006c2.19,9.297,6.586,18.074,8.973,27.697c5.266,21.252-1.893,42.008-26.656,34.313
					c-11.873-3.689-13.203-3.631-24.012,0.563c-9.084,3.52-17.621,4.5-26.647,0.107c-13.998-6.818-9.785-17.123-17.627-27.447
					c-5.977-7.863-14.426-7.67-18.932-18.236c-5.432-12.76,1.041-19.566,7.666-30.393c6.892-11.275,7.996-18.699,5.727-32.297
					c-1.904-11.422,0.916-17.199,4.695-27.703c3.879-10.76,2.188-20.135,4.025-30.928c3.633-21.338,15.293-50.299,37.648-56.559
					c10.957-3.068,25.115-5.469,35.654-1.598c14.357,5.266,30.346,10.879,29.725,28.531
					C645.398,1038.768,644.596,1041.863,642.195,1059.791z"/>
			</g>
			<path style="fill:#F7A483;" d="M756.98,1232.135c0,0,5.272,7.305,9.693-2.563l-0.457-13.039c0,0,0.457-3.631-2.721-4.482
				c0,0-2.154,0-2.643,3.717L756.98,1232.135z"/>
		</g>
	</g>
</g>
</svg>
