<?xml version="1.0" encoding="utf-8"?>
<!-- Generator: Adobe Illustrator 27.5.0, SVG Export Plug-In . SVG Version: 6.00 Build 0)  -->
<svg version="1.1" xmlns="http://www.w3.org/2000/svg" xmlns:xlink="http://www.w3.org/1999/xlink" x="0px" y="0px"
	 viewBox="0 0 500 500" style="enable-background:new 0 0 500 500;" xml:space="preserve">
<g id="BACKGROUND">
	<rect y="0" style="fill:none;" width="500" height="500"/>
</g>
<g id="OBJECTS">
	<path style="opacity:0.1;" d="M471.887,240.573c-1.138-1.917-2.996-3.82-4.99-4.817c-1.077-1.704-2.154-3.408-3.231-5.112
		c-0.094,0.405-0.187,0.81-0.28,1.215c-1.595-1.259-3.413-2.234-5.344-2.866c0.361,0.68,0.723,1.359,1.084,2.039
		c-1.936,0.043-3.861,0.418-5.678,1.088c-0.225-0.067-0.457-0.114-0.701-0.114c-0.889,0-1.672,0.475-2.153,1.198
		c-1.809,0.615-3.53,1.48-5.095,2.569c-2.116,0.824-4.177,2.175-5.75,4.349h-0.212v-4.848c0-1.808-0.622-3.467-1.655-4.788l0.007,0
		l-29.32-43.666l-0.26,0.217c-1.071-1.439-3.041-2.808-4.448-3.869c0.012-0.112,0.024-0.225,0.031-0.334
		c0.095-1.68,0.903-4.968,0.546-7.24l0.284-0.026l-8.356-42.514c0.233-0.029,0.466-0.075,0.701-0.145
		c3.228-0.955,4.117-5.318,7.015-7.03c2.525-1.492,6.092-0.671,8.295-2.607c1.415-1.244,1.82-3.291,1.777-5.175
		c-0.042-1.884-0.444-3.762-0.281-5.639c0.148-1.711,0.759-3.343,1.141-5.017c0.382-1.674,0.52-3.503-0.234-5.045
		c-0.875-1.79-2.79-2.882-3.724-4.643c-0.92-1.735-0.744-3.821-1.118-5.749c-0.374-1.927-1.843-3.784-3.806-3.845
		c-2.006-0.062-3.861-1.002-5.76-1.651c-1.899-0.649-4.115-0.981-5.819,0.079c-1.714,1.067-2.496,3.3-4.305,4.197
		c-1.572,0.779-3.437,0.325-5.164,0.015c-1.726-0.311-3.762-0.362-4.946,0.932c-1.459,1.594-0.75,4.22-1.695,6.163
		c-1.665,3.423-7.219,2.944-9.374,6.058l-44.76-8.798l-0.031,0.337c-1.775-0.26-4.136,0.165-5.881,0.41
		c-0.07-0.088-0.142-0.176-0.214-0.257c-1.121-1.255-2.874-4.152-4.734-5.506l0.183-0.219L271.42,61.574
		c-1.426-1.607-3.501-2.626-5.819-2.626h-4.849v-0.212c2.118-1.533,3.456-3.528,4.285-5.587c1.383-1.841,2.631-3.768,3.572-5.866
		c1.786-3.981,2.359-8.728,0.503-12.677c0.389-0.077,0.779-0.155,1.169-0.232c-0.451-0.407-0.934-0.775-1.431-1.123
		c-1.354-1.929-3.358-3.4-5.615-4.087c0.419-0.156,0.837-0.312,1.256-0.469c-2.464-1.467-5.48-1.981-8.292-1.413
		c0.273-0.446,0.545-0.892,0.818-1.338c-2.713,0.757-5.138,2.504-6.715,4.837c-0.087-0.352-0.173-0.704-0.26-1.056
		c-0.877,1.217-1.341,2.861-1.283,4.422c-1.003-0.068-2.007-0.136-3.011-0.204c0.555,0.256,1.111,0.511,1.667,0.767
		c-1.27,0.496-2.438,1.253-3.411,2.21c0.581-0.078,1.162-0.156,1.743-0.234c-0.64,2.548-0.712,5.21-0.298,7.8
		c-0.218,0.375-0.354,0.797-0.354,1.254c0,0.889,0.475,1.672,1.198,2.153c0.615,1.809,1.48,3.53,2.569,5.095
		c0.824,2.116,2.175,4.177,4.349,5.75v0.212h-4.848c-1.807,0-3.467,0.622-4.788,1.655l0-0.007l-43.666,29.32l0.217,0.26
		c-1.439,1.071-2.808,3.041-3.869,4.448c-0.112-0.012-0.225-0.024-0.333-0.031c-1.68-0.095-4.968-0.904-7.24-0.546l-0.026-0.284
		l-49.889,9.806c-2.145-0.128-4.333,0.619-5.972,2.258l-3.428,3.428l-0.15-0.15c0.176-1.098,0.195-2.156,0.088-3.166
		c0.75-1.612,1.272-3.31,1.225-5.072c-0.074-2.777-1.531-5.304-2.947-7.695c-0.541-0.913-1.446-1.969-2.441-1.6
		c-0.145-1.206-0.993-2.302-2.124-2.745c-1.131-0.443-2.497-0.215-3.424,0.571c-1.784-1.369-4.325-0.793-6.481-0.154
		c-1.722,0.511-3.797,1.464-3.798,3.261c-2.76,0.077-4.832,3.45-4.075,6.105c-1.229,0.259-2.214,1.401-2.292,2.654
		c-0.078,1.253,0.76,2.507,1.947,2.916c-1.536,1.936-0.652,5.084,1.569,6.168c-0.12,2.416,2.036,4.705,4.454,4.73
		c0.534,1.354,2.201,1.887,3.656,1.841c2.051-0.065,4.025-1.015,5.45-2.486c1.217,0.199,2.509,0.22,3.862,0.003l0.15,0.15
		l-3.428,3.428c-1.278,1.278-2.012,2.891-2.215,4.556l-0.005-0.004l-10.144,51.609l0.337,0.031c-0.26,1.775,0.165,4.136,0.41,5.881
		c-0.088,0.07-0.176,0.142-0.257,0.214c-1.255,1.121-4.152,2.874-5.506,4.734l-0.219-0.183l-28.343,42.211
		c-0.251,0.223-0.488,0.46-0.709,0.714c-2.428-0.619-4.862-1.244-6.746-2.842c-1.23-1.044-2.238-2.504-3.8-2.908
		c-2.608-0.675-4.798,1.887-7.21,3.087c-0.825,0.411-1.712,0.664-2.613,0.882c-1.203-0.225-2.427-0.34-3.578-0.253
		c-2.1,0.158-4.269,1.335-4.949,3.329c-0.435,1.274-0.225,2.723-0.792,3.945c-0.731,1.577-2.713,2.854-2.205,4.516
		c0.266,0.87,1.151,1.386,1.653,2.145c1.122,1.693,0.089,3.922-0.001,5.952c-0.156,3.51,2.76,6.565,6.071,7.743
		c1.056,0.376,2.146,0.592,3.252,0.719c1.274,0.9,2.089,2.312,3.001,3.587c0.951,1.329,2.21,2.63,3.833,2.812
		c3.008,0.338,5.143-3.2,8.14-3.622c1.413-0.199,2.847,0.33,4.265,0.167c0.832-0.096,1.57-0.426,2.246-0.881l28.483,42.42
		l0.26-0.217c1.071,1.439,3.041,2.808,4.448,3.869c-0.012,0.112-0.024,0.225-0.031,0.333c-0.095,1.68-0.904,4.968-0.546,7.24
		l-0.284,0.026l9.806,49.889c-0.128,2.145,0.619,4.333,2.258,5.971l3.428,3.428l-0.15,0.15c-2.582-0.414-4.939,0.051-6.981,0.921
		c-2.279,0.324-4.524,0.804-6.674,1.622c-0.723,0.275-1.427,0.609-2.119,0.971c0.027-0.333,0.055-0.667,0.082-1
		c-0.779,0.699-1.496,1.464-2.173,2.262c-2.29,1.616-4.165,3.758-5.109,6.376c-0.33-0.221-0.66-0.441-0.991-0.662
		c0.08,1.573,0.425,3.127,0.988,4.598c-0.035,0.162-0.083,0.321-0.115,0.484c-0.226-0.617-0.452-1.234-0.679-1.852
		c-0.803,3.925,0.091,8.168,2.409,11.436c2.318,3.268,6.199,5.387,10.202,5.549c6.748,0.273,13.392-4.411,15.402-10.859
		c-0.567,0.366-1.134,0.731-1.701,1.097c0.857-2.352,1.369-4.823,1.556-7.319c0.092-0.381,0.173-0.765,0.242-1.151
		c0.914-2.079,1.416-4.491,0.991-7.141l0.15-0.15l3.428,3.428c1.278,1.278,2.891,2.012,4.556,2.215l-0.004,0.005l51.609,10.144
		l0.031-0.337c1.775,0.26,4.136-0.165,5.881-0.41c0.07,0.088,0.142,0.176,0.214,0.258c1.121,1.255,2.874,4.152,4.734,5.506
		l-0.183,0.219l42.211,28.343c0.777,0.876,1.744,1.579,2.843,2.034c-2.717,1.41-5.025,3.619-6.471,6.319
		c1.615-0.977,3.799,0.404,4.447,2.178c0.648,1.773,0.283,3.73,0.128,5.612c-0.372,4.516,0.665,9.347,3.771,12.647
		c2.418,2.569,6.249,3.89,9.621,3.188c3.372,0.702,7.203-0.619,9.621-3.188c3.106-3.299,4.143-8.131,3.771-12.647
		c-0.155-1.882-0.52-3.839,0.128-5.612c0.648-1.773,2.832-3.155,4.447-2.178c-1.432-2.674-3.711-4.864-6.393-6.276
		c0.699-0.276,1.347-0.65,1.93-1.106l0,0.007l43.666-29.32l-0.217-0.26c1.439-1.071,2.808-3.041,3.869-4.448
		c0.112,0.013,0.225,0.025,0.334,0.031c1.68,0.095,4.968,0.904,7.24,0.546l0.026,0.284l49.889-9.806
		c0.908,0.054,1.824-0.043,2.703-0.305c0.132,1.317,0.315,2.522,0.513,3.521c0.967,4.885,3.689,9.677,8.142,11.905
		c2.369,1.185,5.06,1.575,7.707,1.65c3.852,0.109,7.879-0.478,11.048-2.67c3.169-2.193,5.638-6.214,4.573-9.918
		c3.059-4.595,2.284-11.352-1.736-15.135c-3.133-2.948-7.494-3.872-11.646-4.228c-0.806-0.069-1.582-0.129-2.352-0.209
		c0.791-1.089,1.266-2.334,1.422-3.613l0.005,0.004l10.144-51.609l-0.337-0.031c0.26-1.775-0.165-4.136-0.41-5.881
		c0.088-0.07,0.176-0.142,0.258-0.214c1.255-1.121,4.152-2.874,5.506-4.734l0.219,0.183l28.343-42.211
		c1.607-1.426,2.626-3.501,2.626-5.819v-4.848h0.212c1.533,2.118,3.529,3.456,5.587,4.285c1.841,1.383,3.768,2.631,5.866,3.572
		c1.446,0.648,2.992,1.134,4.565,1.405c2.657,0.985,5.487,1.506,8.322,1.49c-0.063,0.264-0.126,0.529-0.19,0.794
		c5.085-4.832,7.625-12.203,6.598-19.142C470.961,240.234,471.424,240.403,471.887,240.573z M400.996,175.904
		c-0.137,1.12-0.399,2.224-0.805,3.277c-0.356,0.926-0.821,1.917-0.537,2.868c0.126,0.423,0.386,0.772,0.704,1.078
		c-0.008,0.036-0.02,0.073-0.028,0.109c-0.186,0.89-0.361,1.868,0.071,2.668c0.471,0.873,1.501,1.245,2.408,1.648
		c1.01,0.449,1.96,1.028,2.834,1.705l-0.216,0.18l17.797,38.383l-35.18,1.367v1.417l-64.871-9.69v0.904
		c-0.543-0.258-1.056-0.573-1.535-0.939c-0.594-0.921-1.082-1.905-1.409-2.952c-0.611-1.954-0.632-4.119,0.05-6.035l0.376,0.376
		l39.019-52.723l0.876,0.876l25.7-23.777l14.398,39.293L400.996,175.904z M323.173,259.835v0.892
		c-0.425-0.401-1.138-0.562-1.754-0.499c-0.375,0.038-0.729,0.136-1.072,0.259c-0.759-0.147-1.517-0.289-2.287-0.273
		c-1.229,0.027-2.565,0.585-3.019,1.727c-0.448,1.123,0.082,2.367,0.277,3.561c0.032,0.196,0.041,0.391,0.056,0.587
		c-0.915,1.753-1.858,3.513-3.443,4.652c-0.982,0.706-2.236,1.211-2.714,2.322c-0.486,1.129,0.063,2.469,0.914,3.357
		c0.85,0.888,1.964,1.469,2.937,2.22c0.383,0.296,0.749,0.637,1.059,1.015l-0.386,0.386l27.921,50.344l-50.344-27.921l-0.631,0.631
		c-0.017-0.584-0.407-1.202-0.887-1.593c-0.292-0.238-0.611-0.419-0.941-0.575c-0.433-0.64-0.868-1.277-1.425-1.81
		c-0.888-0.85-2.227-1.4-3.357-0.914c-1.111,0.478-1.616,1.732-2.322,2.714c-0.116,0.161-0.247,0.306-0.376,0.454
		c-1.887,0.593-3.797,1.17-5.724,0.855c-1.193-0.195-2.437-0.725-3.561-0.277c-1.142,0.455-1.701,1.79-1.727,3.02
		c-0.027,1.229,0.35,2.427,0.507,3.647c0.062,0.48,0.08,0.98,0.031,1.466h-0.546l-15.855,55.342l-15.855-55.342h-0.892
		c0.401-0.425,0.562-1.138,0.499-1.754c-0.038-0.375-0.136-0.728-0.259-1.072c0.147-0.759,0.289-1.517,0.273-2.287
		c-0.027-1.229-0.585-2.565-1.727-3.02c-1.123-0.448-2.367,0.082-3.561,0.277c-0.196,0.032-0.391,0.041-0.587,0.056
		c-1.753-0.915-3.513-1.858-4.652-3.443c-0.706-0.982-1.211-2.236-2.322-2.714c-1.129-0.486-2.469,0.064-3.356,0.914
		c-0.888,0.85-1.469,1.964-2.22,2.937c-0.296,0.383-0.637,0.749-1.015,1.059l-0.386-0.386l-50.344,27.921l27.921-50.344
		l-0.631-0.631c0.584-0.017,1.202-0.407,1.593-0.887c0.238-0.292,0.419-0.611,0.575-0.941c0.64-0.433,1.277-0.868,1.81-1.425
		c0.85-0.888,1.4-2.227,0.914-3.356c-0.478-1.111-1.732-1.616-2.714-2.322c-0.161-0.116-0.306-0.247-0.454-0.375
		c-0.593-1.887-1.17-3.797-0.855-5.724c0.195-1.193,0.725-2.437,0.277-3.561c-0.455-1.142-1.79-1.701-3.02-1.727
		c-1.229-0.027-2.427,0.35-3.647,0.507c-0.48,0.062-0.98,0.08-1.466,0.031v-0.546l-55.342-15.855l55.342-15.855v-0.892
		c0.425,0.401,1.137,0.562,1.754,0.499c0.375-0.038,0.729-0.136,1.072-0.259c0.759,0.147,1.517,0.289,2.287,0.273
		c1.229-0.027,2.564-0.585,3.02-1.727c0.448-1.123-0.082-2.367-0.277-3.561c-0.032-0.196-0.041-0.391-0.056-0.587
		c0.915-1.753,1.858-3.512,3.443-4.652c0.982-0.706,2.236-1.211,2.714-2.322c0.486-1.129-0.063-2.469-0.914-3.356
		c-0.85-0.888-1.964-1.469-2.937-2.22c-0.383-0.295-0.749-0.637-1.059-1.015l0.386-0.386l-27.921-50.344l50.344,27.921l0.631-0.631
		c0.017,0.584,0.407,1.202,0.887,1.593c0.292,0.238,0.611,0.419,0.941,0.575c0.433,0.64,0.868,1.277,1.425,1.81
		c0.888,0.85,2.227,1.399,3.356,0.914c1.111-0.478,1.616-1.732,2.322-2.714c0.116-0.161,0.247-0.306,0.376-0.454
		c1.887-0.593,3.797-1.17,5.724-0.855c1.193,0.195,2.437,0.725,3.561,0.277c1.142-0.455,1.701-1.79,1.727-3.019
		c0.027-1.229-0.35-2.427-0.507-3.647c-0.062-0.48-0.079-0.98-0.031-1.466h0.546l15.855-55.342l15.855,55.342h0.892
		c-0.401,0.425-0.562,1.138-0.499,1.754c0.039,0.375,0.136,0.729,0.259,1.072c-0.147,0.759-0.289,1.517-0.273,2.287
		c0.027,1.229,0.585,2.564,1.727,3.019c1.123,0.447,2.367-0.082,3.561-0.277c0.196-0.032,0.391-0.041,0.587-0.056
		c1.753,0.915,3.512,1.858,4.652,3.443c0.706,0.982,1.211,2.236,2.322,2.714c1.129,0.486,2.469-0.063,3.356-0.914
		c0.888-0.85,1.469-1.964,2.22-2.937c0.295-0.383,0.637-0.749,1.015-1.059l0.386,0.386l50.344-27.921l-27.921,50.344l0.631,0.631
		c-0.584,0.017-1.202,0.407-1.593,0.887c-0.238,0.292-0.419,0.611-0.575,0.941c-0.64,0.433-1.277,0.868-1.81,1.425
		c-0.85,0.888-1.4,2.227-0.914,3.356c0.478,1.111,1.732,1.616,2.714,2.322c0.161,0.116,0.306,0.247,0.454,0.376
		c0.593,1.887,1.17,3.797,0.855,5.724c-0.195,1.193-0.725,2.437-0.277,3.561c0.455,1.142,1.79,1.701,3.019,1.727
		c1.229,0.027,2.427-0.35,3.647-0.507c0.479-0.062,0.98-0.079,1.466-0.031v0.546l55.342,15.855L323.173,259.835z M312.984,95.676
		c0.403,0.907,0.775,1.936,1.648,2.408c0.388,0.209,0.818,0.275,1.259,0.267c0.02,0.031,0.039,0.064,0.059,0.094
		c0.498,0.761,1.066,1.576,1.937,1.836c0.951,0.284,1.941-0.181,2.867-0.537c1.032-0.397,2.113-0.659,3.209-0.799l-0.026,0.281
		l39.725,14.557l-23.909,25.842l1.002,1.002l-52.723,39.019l0.639,0.639c-0.566,0.202-1.152,0.341-1.75,0.421
		c-1.071-0.231-2.112-0.582-3.084-1.091c-1.814-0.95-3.359-2.465-4.232-4.302h0.531l-9.69-64.871h1.239l1.36-34.986l37.966,17.603
		l0.223-0.268C311.931,93.68,312.526,94.646,312.984,95.676z M192.273,98.295c0.926,0.356,1.917,0.821,2.868,0.537
		c0.423-0.126,0.772-0.386,1.078-0.704c0.036,0.008,0.073,0.02,0.109,0.027c0.89,0.186,1.868,0.361,2.668-0.071
		c0.873-0.472,1.245-1.501,1.648-2.408c0.449-1.01,1.028-1.96,1.705-2.834l0.18,0.217l38.383-17.797l1.367,35.179h1.417
		l-9.69,64.871h0.904c-0.258,0.543-0.573,1.056-0.939,1.535c-0.921,0.594-1.905,1.082-2.952,1.409
		c-1.954,0.611-4.119,0.632-6.035-0.05l0.376-0.376l-52.723-39.019l0.876-0.876l-23.777-25.7l39.293-14.399l-0.032-0.347
		C190.116,97.627,191.22,97.889,192.273,98.295z M108.769,185.502c0.907-0.403,1.936-0.775,2.408-1.648
		c0.209-0.388,0.275-0.818,0.267-1.259c0.031-0.02,0.064-0.039,0.094-0.059c0.761-0.498,1.576-1.066,1.836-1.937
		c0.284-0.951-0.181-1.941-0.537-2.867c-0.397-1.032-0.659-2.113-0.799-3.209l0.281,0.025l14.557-39.725l25.842,23.909l1.002-1.002
		l39.019,52.723l0.639-0.639c0.201,0.566,0.341,1.152,0.421,1.75c-0.231,1.071-0.582,2.112-1.091,3.084
		c-0.95,1.814-2.465,3.359-4.302,4.232v-0.531l-64.871,9.69v-1.239l-34.986-1.36l17.603-37.966l-0.268-0.223
		C106.772,186.555,107.738,185.96,108.769,185.502z M125.328,348.751l-14.399-39.293l-0.347,0.032
		c0.137-1.12,0.399-2.224,0.805-3.276c0.356-0.926,0.821-1.917,0.537-2.868c-0.126-0.423-0.386-0.772-0.704-1.078
		c0.008-0.036,0.02-0.073,0.027-0.109c0.186-0.89,0.361-1.868-0.071-2.668c-0.472-0.873-1.501-1.245-2.408-1.648
		c-1.01-0.449-1.96-1.028-2.834-1.704l0.217-0.18l-17.797-38.383l35.179-1.367v-1.417l64.871,9.69v-0.904
		c0.543,0.258,1.055,0.573,1.535,0.939c0.594,0.921,1.082,1.905,1.409,2.952c0.611,1.954,0.632,4.119-0.05,6.034l-0.376-0.376
		l-39.019,52.723l-0.876-0.876L125.328,348.751z M198.594,389.717c-0.403-0.907-0.775-1.936-1.648-2.407
		c-0.388-0.21-0.818-0.275-1.259-0.267c-0.02-0.031-0.039-0.064-0.059-0.094c-0.498-0.761-1.066-1.576-1.937-1.836
		c-0.951-0.284-1.941,0.181-2.868,0.537c-1.032,0.397-2.113,0.659-3.209,0.799l0.025-0.281l-39.725-14.557l23.909-25.842
		l-1.002-1.002l52.723-39.019l-0.639-0.639c0.566-0.201,1.152-0.341,1.75-0.421c1.071,0.231,2.112,0.582,3.084,1.091
		c1.814,0.95,3.359,2.465,4.232,4.302h-0.532l9.69,64.871h-1.239l-1.36,34.986l-37.966-17.603l-0.223,0.268
		C199.647,391.714,199.052,390.748,198.594,389.717z M319.305,387.099c-0.926-0.356-1.917-0.821-2.868-0.537
		c-0.423,0.126-0.772,0.386-1.078,0.704c-0.036-0.008-0.073-0.02-0.109-0.027c-0.89-0.186-1.868-0.361-2.668,0.071
		c-0.873,0.472-1.245,1.501-1.648,2.407c-0.449,1.011-1.028,1.96-1.704,2.834l-0.18-0.216l-38.383,17.797l-1.367-35.179h-1.417
		l9.69-64.871h-0.904c0.258-0.543,0.573-1.056,0.939-1.535c0.921-0.594,1.905-1.082,2.952-1.409c1.954-0.611,4.119-0.632,6.035,0.05
		l-0.376,0.376l52.723,39.019l-0.876,0.876l23.777,25.7l-39.293,14.399l0.032,0.347
		C321.462,387.766,320.358,387.504,319.305,387.099z M402.81,299.892c-0.907,0.403-1.936,0.775-2.408,1.648
		c-0.21,0.388-0.275,0.818-0.267,1.259c-0.031,0.02-0.064,0.039-0.094,0.059c-0.761,0.498-1.576,1.065-1.836,1.937
		c-0.284,0.951,0.181,1.941,0.537,2.867c0.397,1.032,0.659,2.113,0.799,3.209l-0.281-0.025l-14.557,39.725l-25.842-23.909
		l-1.002,1.002l-39.019-52.723l-0.639,0.639c-0.202-0.566-0.341-1.152-0.421-1.75c0.231-1.071,0.582-2.112,1.091-3.084
		c0.95-1.814,2.465-3.359,4.302-4.232v0.532l64.871-9.69v1.239l34.986,1.36l-17.603,37.966l0.268,0.223
		C404.807,298.839,403.841,299.434,402.81,299.892z"/>
	<g>
		<g>
			<g>
				<path style="fill:#3D1900;" d="M228.76,167.817c-0.641,2.435-2.482,4.456-4.712,5.624c-2.23,1.168-4.816,1.539-7.33,1.394
					c-0.794-0.046-1.747-0.071-2.199,0.583c-0.495,0.717,0.016,1.72,0.692,2.27c1.879,1.53,4.631,1.238,6.958,0.561
					c2.327-0.678,4.694-1.671,7.085-1.28c1.185,0.194,2.42,0.72,3.535,0.275c1.134-0.452,1.689-1.778,1.715-2.998
					c0.026-1.22-0.348-2.41-0.504-3.621s-0.047-2.559,0.778-3.458C232.872,166.388,230.595,166.881,228.76,167.817z"/>
				<path style="fill:#3D1900;" d="M272.12,167.817c0.641,2.435,2.482,4.456,4.712,5.624c2.23,1.168,4.816,1.539,7.33,1.394
					c0.794-0.046,1.747-0.071,2.199,0.583c0.495,0.717-0.017,1.72-0.692,2.27c-1.879,1.53-4.631,1.238-6.958,0.561
					c-2.327-0.678-4.694-1.671-7.085-1.28c-1.185,0.194-2.42,0.72-3.535,0.275c-1.134-0.452-1.689-1.778-1.715-2.998
					c-0.026-1.22,0.348-2.41,0.504-3.621s0.047-2.559-0.778-3.458C268.008,166.388,270.285,166.881,272.12,167.817z"/>
			</g>
			<path style="fill:#330E00;" d="M251.889,93.3c0.011-0.687,0.028-1.121,0.056-1.148c0.035-0.035-0.633,0.193-1.689,0.566
				c-1.056-0.373-1.724-0.601-1.689-0.566c0.028,0.027,0.045,0.461,0.056,1.148c-4.092,1.467-10.506,3.815-10.506,3.815
				l-10.763,72.054h7.16l15.743-54.95l15.743,54.95h7.16l-10.763-72.054C262.395,97.115,255.981,94.767,251.889,93.3z"/>
		</g>
		<g>
			<path style="fill:#A08100;" d="M245.393,51.355c-5.586-4.726-8.163-12.734-6.38-19.831c-0.577,0.077-1.154,0.155-1.73,0.232
				c0.965-0.95,2.125-1.701,3.386-2.194c-0.552-0.254-1.103-0.508-1.655-0.762c1.55,0.105,3.101,0.211,4.651,0.316
				c1.566-1.813,2.922-3.974,4.488-5.787c-0.146,0.478-0.292,0.955-0.438,1.433c1.951-0.511,3.983-0.711,5.997-0.591
				c-0.365,0.526-0.871,0.954-1.451,1.225c4.015-0.282,8.123,1.135,11.11,3.834c-0.387,0.077-0.774,0.154-1.16,0.231
				c1.842,3.921,1.274,8.634-0.5,12.587c-1.773,3.953-4.631,7.302-7.451,10.592C251.303,52.043,248.407,51.495,245.393,51.355z"/>
			<path style="fill:#F0C4A8;" d="M189.065,90.063c-0.385,0.431-0.797,0.97-0.644,1.526c0.168,0.611,0.899,0.839,1.52,0.969
				c0.884,0.185,1.854,0.358,2.649-0.071c0.867-0.468,1.236-1.49,1.636-2.39c0.843-1.899,2.125-3.6,3.717-4.935
				c-0.495-0.748-1.358-1.239-2.254-1.282C193.192,83.76,190.561,88.387,189.065,90.063z"/>
			<path style="fill:#F0C4A8;" d="M310.932,90.063c0.384,0.431,0.797,0.97,0.644,1.526c-0.168,0.611-0.899,0.839-1.52,0.969
				c-0.884,0.185-1.854,0.358-2.649-0.071c-0.867-0.468-1.236-1.49-1.636-2.39c-0.843-1.899-2.125-3.6-3.717-4.935
				c0.495-0.748,1.358-1.239,2.254-1.282C306.805,83.76,309.436,88.387,310.932,90.063z"/>
			<path style="fill:#D65F00;" d="M264.767,104.757h-29.201l-1.687-43.398c0-4.269,3.461-7.73,7.73-7.73h17.114
				c4.269,0,7.73,3.461,7.73,7.73L264.767,104.757z"/>
			<path style="fill:#D1AB92;" d="M253.91,56.409L253.91,56.409c-2.267,1.511-5.219,1.511-7.486,0l0,0v-9.254h7.486V56.409z"/>
			<g>
				<g>
					<ellipse style="fill:#CCA78F;" cx="241.195" cy="40.513" rx="2.829" ry="2.631"/>
					<ellipse style="fill:#CCA78F;" cx="259.139" cy="40.513" rx="2.829" ry="2.631"/>
				</g>
				<path style="fill:#F0C4A8;" d="M259.229,37.732h-9.032h-0.061h-9.032c0,0-2.176,12.489,7.455,16.94
					c0.499,0.23,1.051,0.348,1.608,0.348l0,0c0.557,0,1.109-0.118,1.608-0.348C261.405,50.221,259.229,37.732,259.229,37.732z"/>
			</g>
			<polygon style="fill:#D65F00;" points="236.855,55.266 193.498,84.378 196.097,87.497 237.583,68.262 			"/>
			<polygon style="fill:#D65F00;" points="263.056,55.266 306.413,84.378 303.814,87.497 262.329,68.262 			"/>
			<path style="fill:#A08100;" d="M243.277,24.613c0.086,0.349,0.172,0.699,0.258,1.049c1.566-2.317,3.973-4.052,6.667-4.803
				c-0.271,0.443-0.542,0.886-0.812,1.329c2.791-0.564,5.786-0.054,8.233,1.403c-0.416,0.155-0.831,0.31-1.247,0.465
				c2.54,0.774,4.76,2.545,6.08,4.848c-1.969-0.473-4.004,0.458-5.664,1.617c-1.66,1.159-3.175,2.588-5.062,3.324
				c-1.728,0.675-3.699,0.706-5.448,0.086c-1.538-0.545-3.643-1.887-4.087-3.565C241.697,28.476,242.144,26.185,243.277,24.613z"/>
			<path style="fill:#A08100;" d="M239.602,36.915c0.148,2.135,0.623,4.248,1.403,6.241c0.365-1.775,1.127-3.567,2.26-4.982
				c1.878,1.542,4.209,2.525,6.624,2.793c-0.296-0.648-0.593-1.295-0.889-1.943c2.585,0.619,5.17,1.237,7.755,1.856
				c-0.194-0.444-0.388-0.888-0.582-1.332c1.671,1.073,2.842,2.892,3.129,4.858c0.874-1.747,1.72-3.092,2.069-5.013
				c0.349-1.922,0.097-4.043-1.119-5.571c-0.855-1.074-2.104-1.765-3.389-2.247c-2.944-1.105-6.248-1.226-9.266-0.342
				C244.578,32.118,241.483,34.395,239.602,36.915z"/>
		</g>
	</g>
	<g>
		<g>
			<g>
				<path style="fill:#3D1900;" d="M186.011,202.936c1.277,2.19,1.406,4.941,0.649,7.361c-0.757,2.42-2.334,4.526-4.227,6.212
					c-0.598,0.533-1.295,1.193-1.15,1.981c0.158,0.863,1.237,1.213,2.11,1.124c2.428-0.249,4.18-2.417,5.354-4.556
					c1.174-2.139,2.153-4.533,4.134-5.957c0.982-0.706,2.236-1.211,2.714-2.322c0.486-1.129-0.063-2.469-0.914-3.357
					c-0.85-0.888-1.964-1.469-2.937-2.22c-0.973-0.751-1.856-1.789-1.908-3.017C187.923,198.99,186.652,200.963,186.011,202.936z"/>
				<path style="fill:#3D1900;" d="M216.891,172.057c2.19,1.277,4.941,1.406,7.361,0.649c2.42-0.757,4.526-2.334,6.212-4.227
					c0.533-0.598,1.193-1.295,1.981-1.15c0.863,0.158,1.213,1.237,1.124,2.11c-0.249,2.428-2.417,4.18-4.556,5.354
					c-2.139,1.174-4.533,2.153-5.957,4.134c-0.706,0.982-1.211,2.236-2.322,2.714c-1.129,0.486-2.469-0.063-3.356-0.914
					c-0.888-0.85-1.469-1.964-2.22-2.937c-0.751-0.973-1.789-1.856-3.017-1.908C212.945,173.968,214.917,172.697,216.891,172.057z"
					/>
			</g>
			<path style="fill:#4E2000;" d="M149.415,133.397c-0.482-0.497-0.778-0.819-0.778-0.858c0-0.049-0.314,0.588-0.8,1.606
				c-1.018,0.486-1.656,0.8-1.606,0.8c0.039,0,0.361,0.296,0.858,0.778c-1.869,3.959-4.765,10.199-4.765,10.199l43.648,58.978
				l5.099-5.099l-27.921-50.344l50.344,27.921l5.099-5.099l-58.978-43.648C159.615,128.632,153.375,131.528,149.415,133.397z"/>
		</g>
		<g>
			<path style="fill:#2B1200;" d="M114.798,106.645c-1.19,2.717-4.022,4.632-6.987,4.726c-1.455,0.046-3.122-0.487-3.656-1.841
				c-2.418-0.025-4.574-2.314-4.454-4.73c-2.221-1.084-3.106-4.232-1.569-6.168c-1.187-0.409-2.025-1.663-1.947-2.916
				c0.078-1.253,1.063-2.395,2.292-2.654c-0.757-2.655,1.316-6.028,4.075-6.105c0-1.796,2.076-2.75,3.798-3.261
				c2.156-0.639,4.698-1.216,6.481,0.154c0.926-0.786,2.293-1.014,3.424-0.571c1.131,0.443,1.979,1.539,2.124,2.745
				c0.995-0.369,1.9,0.687,2.441,1.601c1.416,2.39,2.873,4.917,2.947,7.695c0.071,2.671-1.154,5.198-2.519,7.495
				c-0.714,1.201-1.507,2.408-2.668,3.185C117.418,106.776,115.959,107.421,114.798,106.645z"/>
			<path style="fill:#734B32;" d="M102.37,175.832c0.033,0.581,0.123,1.258,0.628,1.546c0.555,0.315,1.238-0.043,1.773-0.392
				c0.761-0.498,1.576-1.065,1.836-1.937c0.284-0.951-0.181-1.941-0.537-2.868c-0.751-1.953-1.05-4.078-0.867-6.162
				c-0.885-0.181-1.85,0.085-2.518,0.692C100.821,168.405,102.243,173.573,102.37,175.832z"/>
			<path style="fill:#734B32;" d="M189.158,89.044c0.58,0.033,1.258,0.123,1.546,0.628c0.315,0.555-0.043,1.238-0.392,1.773
				c-0.498,0.761-1.065,1.576-1.937,1.836c-0.951,0.284-1.941-0.181-2.867-0.537c-1.953-0.751-4.078-1.051-6.162-0.867
				c-0.181-0.885,0.084-1.85,0.692-2.518C181.731,87.495,186.899,88.916,189.158,89.044z"/>
			<path style="fill:#E6C100;" d="M166.746,132.385l-20.796,20.796l-32.107-29.705c-3.04-3.04-3.04-7.97,0-11.01l12.188-12.188
				c3.04-3.04,7.97-3.04,11.01,0L166.746,132.385z"/>
			<path style="fill:#543725;" d="M124.583,105.687L124.583,105.687c-0.538,2.69-2.641,4.793-5.331,5.331l0,0l-6.59-6.59
				l5.331-5.331L124.583,105.687z"/>
			<g>
				<g>
					<path style="fill:#543725;" d="M106.222,101.406c1.035,1.035,0.972,2.776-0.141,3.888c-1.113,1.113-2.854,1.176-3.888,0.141
						c-1.035-1.035-0.972-2.776,0.141-3.888C103.447,100.435,105.188,100.372,106.222,101.406z"/>
					<path style="fill:#543725;" d="M119.001,88.627c1.035,1.035,0.972,2.776-0.141,3.888c-1.113,1.113-2.854,1.176-3.888,0.141
						c-1.035-1.035-0.972-2.776,0.141-3.888C116.226,87.656,117.966,87.593,119.001,88.627z"/>
				</g>
				<path style="fill:#734B32;" d="M115.07,88.597l-6.432,6.432l-0.044,0.044l-6.432,6.432c0,0,7.345,10.443,17.373,6.755
					c0.519-0.191,0.996-0.5,1.393-0.897l0,0c0.397-0.396,0.706-0.874,0.897-1.393C125.514,95.942,115.07,88.597,115.07,88.597z"/>
			</g>
			<polygon style="fill:#E6C100;" points="111.623,117.018 101.479,168.627 105.551,168.997 121.397,125.755 			"/>
			<polygon style="fill:#E6C100;" points="130.283,98.358 181.892,88.214 182.262,92.286 139.02,108.132 			"/>
			<path style="fill:#2B1200;" d="M101.872,106.957c1.933-0.029,3.618-1.951,3.391-3.872c0.8,0.09,1.651-0.878,1.82-1.665
				c0.169-0.787-0.054-1.599-0.275-2.373c0.957-0.006,1.899-0.493,2.457-1.27c0.558-0.778,0.717-1.826,0.416-2.734
				c2.216,0.303,4.764-1.681,4.903-3.914c1.885,1.267,4.399,1.016,6.397-0.064c-0.129-2.502-2.159-4.921-4.546-5.68
				c-2.387-0.759-5.203,0.105-6.753,2.074c-2.979,0.783-5.378,3.436-5.857,6.479c-2.183,1.243-3.781,3.469-4.262,5.935
				C99.082,102.339,100.316,104.985,101.872,106.957z"/>
		</g>
	</g>
	<g>
		<g>
			<g>
				<path style="fill:#3D1900;" d="M180.277,257.512c2.452,0.646,4.488,2.5,5.664,4.746c1.176,2.246,1.55,4.851,1.404,7.382
					c-0.046,0.8-0.072,1.759,0.588,2.214c0.722,0.499,1.732-0.017,2.286-0.697c1.541-1.893,1.247-4.664,0.564-7.008
					c-0.682-2.343-1.683-4.727-1.289-7.136c0.195-1.193,0.725-2.437,0.277-3.561c-0.455-1.142-1.79-1.701-3.02-1.727
					c-1.229-0.027-2.427,0.35-3.647,0.507c-1.219,0.157-2.577,0.048-3.483-0.784C178.838,253.37,179.334,255.664,180.277,257.512z"
					/>
				<path style="fill:#3D1900;" d="M180.277,213.842c2.452-0.646,4.488-2.5,5.664-4.746c1.176-2.246,1.55-4.851,1.404-7.382
					c-0.046-0.8-0.072-1.759,0.588-2.214c0.722-0.498,1.732,0.017,2.286,0.697c1.541,1.893,1.247,4.664,0.564,7.007
					c-0.682,2.343-1.683,4.727-1.289,7.135c0.195,1.193,0.725,2.437,0.277,3.561c-0.455,1.142-1.79,1.701-3.02,1.727
					c-1.229,0.027-2.427-0.35-3.647-0.507c-1.219-0.157-2.577-0.048-3.483,0.784C178.838,217.984,179.334,215.69,180.277,213.842z"
					/>
			</g>
			<path style="fill:#330E00;" d="M105.228,234.218c-0.692-0.011-1.129-0.029-1.157-0.056c-0.035-0.035,0.194,0.638,0.57,1.702
				c-0.376,1.064-0.605,1.736-0.57,1.701c0.028-0.028,0.465-0.045,1.157-0.056c1.478,4.121,3.843,10.581,3.843,10.581l72.568,10.84
				v-7.211l-55.342-15.855l55.342-15.855v-7.211l-72.568,10.84C109.071,223.636,106.706,230.096,105.228,234.218z"/>
		</g>
		<g>
			<path style="fill:#C38D00;" d="M50.994,221.028c-0.431,0.053-0.862,0.106-1.293,0.158c-2.003-0.651-4.355-1.15-6.455-0.993
				c-2.1,0.158-4.269,1.335-4.949,3.329c-0.435,1.274-0.225,2.723-0.792,3.944c-0.731,1.577-2.713,2.854-2.205,4.516
				c0.266,0.87,1.151,1.386,1.653,2.144c1.122,1.693,0.089,3.922-0.001,5.952c-0.156,3.51,2.76,6.565,6.071,7.743
				c3.311,1.178,6.938,0.904,10.44,0.614c-2.439-2.938-3.013-6.428-1.992-10.108c0.735-2.65,2.387-5.049,2.631-7.788
				C54.404,227.148,52.82,223.903,50.994,221.028z"/>
			<path style="fill:#C38D00;" d="M71.178,246.77c-1.412,2.112-3.14,4.425-5.664,4.716c-1.417,0.163-2.852-0.366-4.265-0.167
				c-2.997,0.421-5.132,3.96-8.14,3.622c-1.624-0.182-2.883-1.484-3.833-2.812c-0.951-1.329-1.79-2.812-3.159-3.704
				c-1.711-1.114-3.991-1.122-5.631-2.34c-2.39-1.776-2.47-5.262-2.322-8.236c0.136-2.739-0.411-6.42-0.036-9.137
				c0.375-2.717,1.718-5.439,4.096-6.805c2.199-1.263,4.942-1.211,7.213-2.342c2.412-1.201,4.601-3.762,7.21-3.087
				c1.562,0.404,2.569,1.865,3.8,2.908c2.506,2.125,5.985,2.529,9.127,3.488c3.142,0.96,6.473,3.109,6.697,6.386
				C76.735,236.076,74.976,241.093,71.178,246.77z"/>
			<path style="fill:#F0C4A8;" d="M101.968,297.49c0.434,0.387,0.977,0.803,1.537,0.648c0.616-0.17,0.845-0.906,0.976-1.531
				c0.186-0.89,0.361-1.868-0.071-2.668c-0.472-0.873-1.501-1.245-2.408-1.648c-1.912-0.849-3.626-2.141-4.97-3.744
				c-0.754,0.498-1.248,1.368-1.291,2.27C95.621,293.333,100.281,295.983,101.968,297.49z"/>
			<path style="fill:#F0C4A8;" d="M101.968,174.753c0.434-0.387,0.977-0.803,1.537-0.648c0.616,0.17,0.845,0.906,0.976,1.531
				c0.186,0.89,0.361,1.868-0.071,2.668c-0.472,0.873-1.501,1.245-2.408,1.648c-1.912,0.849-3.626,2.141-4.97,3.744
				c-0.754-0.498-1.248-1.368-1.291-2.27C95.621,178.91,100.281,176.26,101.968,174.753z"/>
			<path style="fill:#001EFF;" d="M116.768,221.247v29.41l-43.708,1.699c-4.3,0-7.785-3.486-7.785-7.785v-17.236
				c0-4.3,3.486-7.785,7.785-7.785L116.768,221.247z"/>
			<path style="fill:#D1AB92;" d="M68.075,232.182L68.075,232.182c1.522,2.283,1.522,5.257,0,7.54l0,0h-9.32v-7.54H68.075z"/>
			<g>
				<g>
					<ellipse style="fill:#CCA78F;" cx="52.065" cy="244.988" rx="2.65" ry="2.849"/>
					<ellipse style="fill:#CCA78F;" cx="52.065" cy="226.916" rx="2.65" ry="2.849"/>
				</g>
				<path style="fill:#F0C4A8;" d="M49.264,226.825v9.096v0.062v9.096c0,0,12.578,2.191,17.061-7.508
					c0.232-0.502,0.351-1.058,0.351-1.619l0,0c0-0.561-0.119-1.117-0.351-1.619C61.842,224.634,49.264,226.825,49.264,226.825z"/>
			</g>
			<polygon style="fill:#001EFF;" points="66.923,249.359 96.243,293.025 99.385,290.407 80.012,248.626 			"/>
			<polygon style="fill:#001EFF;" points="66.923,222.971 96.243,179.304 99.385,181.922 80.012,223.704 			"/>
			<path style="fill:#C38D00;" d="M58.932,248.979c-0.859-0.596-1.419-1.522-1.953-2.421c-2.148-3.613-4.296-7.225-6.443-10.838
				c-0.775-1.304-1.493-3.135-0.385-4.172c0.966-0.905,2.687-0.459,3.673-1.343c1.088-0.975,0.613-2.933,1.62-3.992
				c0.908-0.955,2.684-0.801,3.374-1.923c0.451-0.732,0.189-1.742-0.412-2.357c-0.601-0.615-1.459-0.904-2.303-1.068
				c-4.41-0.858-9.142,1.351-11.692,5.05c-2.55,3.699-2.994,8.643-1.583,12.909c1.411,4.266,4.54,7.85,8.335,10.256
				c1.64,1.04,3.466,1.893,5.406,1.995c1.517,0.08,3.195-0.357,4.301-1.435C60.296,249.522,59.486,249.363,58.932,248.979z"/>
		</g>
	</g>
	<g>
		<g>
			<g>
				<path style="fill:#3D1900;" d="M214.813,300.158c2.19-1.277,4.941-1.406,7.361-0.649c2.42,0.757,4.526,2.334,6.212,4.228
					c0.533,0.598,1.193,1.295,1.981,1.15c0.863-0.158,1.213-1.237,1.124-2.11c-0.249-2.428-2.417-4.18-4.556-5.354
					c-2.139-1.174-4.532-2.152-5.957-4.134c-0.706-0.982-1.211-2.236-2.322-2.714c-1.129-0.486-2.469,0.064-3.356,0.914
					c-0.888,0.85-1.469,1.964-2.22,2.937c-0.751,0.973-1.789,1.856-3.017,1.908C210.867,298.246,212.84,299.518,214.813,300.158z"/>
				<path style="fill:#3D1900;" d="M183.934,269.279c1.277-2.19,1.406-4.941,0.649-7.361c-0.757-2.42-2.334-4.526-4.227-6.212
					c-0.598-0.533-1.295-1.193-1.15-1.981c0.158-0.863,1.237-1.213,2.11-1.124c2.428,0.249,4.18,2.417,5.354,4.556
					c1.174,2.139,2.152,4.532,4.134,5.957c0.982,0.706,2.236,1.211,2.714,2.322c0.486,1.129-0.063,2.469-0.914,3.357
					c-0.85,0.888-1.964,1.469-2.937,2.22c-0.973,0.751-1.856,1.789-1.908,3.017C185.845,273.225,184.574,271.252,183.934,269.279z"
					/>
			</g>
			<path style="fill:#4E2000;" d="M145.274,336.754c-0.497,0.482-0.819,0.778-0.858,0.778c-0.049,0,0.588,0.314,1.606,0.8
				c0.486,1.018,0.8,1.656,0.8,1.606c0-0.039,0.296-0.361,0.778-0.858c3.959,1.869,10.199,4.765,10.199,4.765l58.978-43.648
				l-5.099-5.099l-50.344,27.921l27.921-50.344l-5.099-5.099l-43.648,58.978C140.509,326.555,143.405,332.795,145.274,336.754z"/>
		</g>
		<g>
			<path style="fill:#A08100;" d="M119.625,375.577c-0.031,3.091-0.591,6.176-1.65,9.081c0.567-0.366,1.134-0.731,1.701-1.097
				c-2.009,6.448-8.653,11.132-15.402,10.859c-4.004-0.162-7.884-2.282-10.202-5.549c-2.318-3.268-3.212-7.511-2.409-11.436
				c0.226,0.617,0.452,1.235,0.679,1.852c0.972-4.997,3.612-9.655,7.4-13.057c-0.054,0.657-0.108,1.315-0.162,1.972
				c3.767-1.649,7.763-2.773,11.836-3.33c1.214-0.166,2.491-0.275,3.627,0.184c1.825,0.737,2.805,2.737,3.243,4.656
				C118.723,371.629,119.644,373.609,119.625,375.577z"/>
			<path style="fill:#A08100;" d="M120.029,371.251c0.613,7.344-3.256,14.882-9.579,18.666c0.466,0.356,0.932,0.711,1.398,1.067
				c-1.364-0.011-2.725-0.302-3.974-0.849c0.212,0.574,0.424,1.147,0.636,1.721c-1.029-1.179-2.058-2.358-3.087-3.537
				c-2.407,0.176-4.911,0.749-7.318,0.925c0.444-0.236,0.888-0.473,1.332-0.709c-1.753-1.026-3.343-2.33-4.692-3.849
				c0.635-0.115,1.299-0.059,1.906,0.161c-3.06-2.659-4.976-6.593-5.182-10.642c0.33,0.221,0.66,0.441,0.991,0.662
				c1.481-4.104,5.242-7.056,9.32-8.608c4.078-1.552,8.499-1.902,12.849-2.237C116.311,366.552,117.983,369.005,120.029,371.251z"/>
			<path style="fill:#F0C4A8;" d="M187.709,383.799c0.581-0.033,1.258-0.123,1.546-0.628c0.315-0.555-0.043-1.238-0.392-1.773
				c-0.498-0.761-1.065-1.576-1.937-1.836c-0.951-0.284-1.941,0.181-2.867,0.537c-1.953,0.751-4.078,1.051-6.162,0.867
				c-0.181,0.885,0.085,1.85,0.692,2.518C180.282,385.348,185.45,383.927,187.709,383.799z"/>
			<path style="fill:#F0C4A8;" d="M100.921,297.011c0.033-0.58,0.123-1.258,0.628-1.546c0.555-0.315,1.238,0.043,1.773,0.392
				c0.761,0.498,1.576,1.065,1.836,1.937c0.284,0.951-0.181,1.941-0.537,2.868c-0.751,1.953-1.051,4.078-0.867,6.162
				c-0.885,0.181-1.85-0.085-2.518-0.692C99.372,304.439,100.794,299.27,100.921,297.011z"/>
			<path style="fill:#00A599;" d="M144.262,319.423l20.796,20.796l-29.705,32.107c-3.04,3.04-7.97,3.04-11.01,0l-12.188-12.188
				c-3.04-3.04-3.04-7.97,0-11.01L144.262,319.423z"/>
			<path style="fill:#D1AB92;" d="M117.564,361.586L117.564,361.586c2.69,0.538,4.793,2.641,5.331,5.331l0,0l-6.59,6.59
				l-5.331-5.331L117.564,361.586z"/>
			<g>
				<g>
					<path style="fill:#CCA78F;" d="M113.283,379.947c1.035-1.035,2.775-0.971,3.888,0.141c1.113,1.113,1.176,2.853,0.141,3.888
						c-1.035,1.035-2.775,0.971-3.888-0.141S112.249,380.982,113.283,379.947z"/>
					<path style="fill:#CCA78F;" d="M100.505,367.168c1.035-1.035,2.775-0.972,3.888,0.141c1.113,1.113,1.176,2.854,0.141,3.888
						c-1.035,1.035-2.776,0.971-3.888-0.141C99.533,369.944,99.47,368.203,100.505,367.168z"/>
				</g>
				<path style="fill:#F0C4A8;" d="M100.474,371.099l6.432,6.432l0.044,0.044l6.432,6.432c0,0,10.443-7.345,6.755-17.373
					c-0.191-0.519-0.5-0.996-0.897-1.393l0,0c-0.397-0.397-0.874-0.706-1.393-0.897
					C107.819,360.655,100.474,371.099,100.474,371.099z"/>
			</g>
			<polygon style="fill:#00A599;" points="128.895,374.546 180.504,384.69 180.874,380.618 137.632,364.772 			"/>
			<polygon style="fill:#00A599;" points="110.235,355.887 100.091,304.277 104.164,303.907 120.009,347.15 			"/>
			<path style="fill:#A08100;" d="M113.87,385.659c1.416-1.626,2.582-3.469,3.446-5.444c-1.525,1.004-3.343,1.738-5.157,1.939
				c-0.239-2.435-1.2-4.796-2.729-6.706c-0.25,0.672-0.5,1.345-0.75,2.017c-1.4-2.282-2.801-4.563-4.201-6.845
				c-0.178,0.454-0.356,0.909-0.534,1.363c-0.425-1.954,0.035-4.084,1.231-5.688c-1.866,0.622-3.426,0.977-5.044,2.097
				c-1.617,1.12-2.948,2.81-3.17,4.765c-0.156,1.373,0.242,2.755,0.813,4.013c1.31,2.884,3.576,5.323,6.355,6.842
				C106.91,385.531,110.736,386.113,113.87,385.659z"/>
		</g>
	</g>
	<g>
		<g>
			<g>
				<path style="fill:#3D1900;" d="M269.389,305.892c0.646-2.452,2.5-4.488,4.746-5.664c2.246-1.176,4.851-1.55,7.382-1.404
					c0.799,0.046,1.759,0.072,2.214-0.587c0.499-0.722-0.017-1.732-0.697-2.286c-1.893-1.541-4.664-1.247-7.008-0.564
					c-2.343,0.682-4.727,1.683-7.136,1.289c-1.193-0.195-2.437-0.725-3.561-0.277c-1.142,0.455-1.701,1.79-1.727,3.019
					c-0.027,1.229,0.35,2.427,0.507,3.647c0.157,1.219,0.048,2.577-0.784,3.483C265.247,307.331,267.541,306.835,269.389,305.892z"
					/>
				<path style="fill:#3D1900;" d="M225.719,305.892c-0.645-2.452-2.5-4.488-4.746-5.664c-2.246-1.176-4.851-1.55-7.382-1.404
					c-0.8,0.046-1.759,0.072-2.214-0.587c-0.498-0.722,0.017-1.732,0.697-2.286c1.893-1.541,4.664-1.247,7.007-0.564
					c2.343,0.682,4.727,1.683,7.135,1.289c1.193-0.195,2.437-0.725,3.561-0.277c1.142,0.455,1.701,1.79,1.727,3.019
					c0.027,1.229-0.35,2.427-0.507,3.647c-0.157,1.219-0.048,2.577,0.784,3.483C229.861,307.331,227.567,306.835,225.719,305.892z"
					/>
			</g>
			<path style="fill:#330E00;" d="M246.095,380.941c-0.011,0.692-0.029,1.129-0.056,1.157c-0.035,0.035,0.638-0.194,1.702-0.57
				c1.064,0.376,1.736,0.605,1.701,0.57c-0.028-0.028-0.045-0.465-0.056-1.157c4.121-1.478,10.581-3.843,10.581-3.843l10.84-72.568
				h-7.211l-15.855,55.342l-15.855-55.342h-7.211l10.84,72.568C235.514,377.098,241.974,379.463,246.095,380.941z"/>
		</g>
		<g>
			<path style="fill:#3B2200;" d="M253.982,418.691c-1.04-0.949-2.205-1.835-3.479-2.434c-0.859-0.404-1.838-0.615-2.772-0.523
				c-0.934-0.092-1.914,0.119-2.773,0.523c-1.274,0.6-2.439,1.485-3.479,2.434c-4.875,0.543-9.401,3.606-11.716,7.931
				c1.615-0.978,3.799,0.404,4.447,2.178c0.648,1.773,0.283,3.73,0.128,5.612c-0.372,4.516,0.665,9.347,3.771,12.647
				c2.418,2.569,6.249,3.89,9.621,3.188c3.372,0.702,7.203-0.619,9.621-3.188c3.106-3.299,4.143-8.131,3.771-12.647
				c-0.155-1.882-0.52-3.838,0.128-5.612c0.648-1.773,2.832-3.155,4.447-2.178C263.383,422.298,258.857,419.234,253.982,418.691z"/>
			<path style="fill:#F0C4A8;" d="M309.367,384.201c0.387-0.434,0.803-0.977,0.648-1.537c-0.17-0.616-0.906-0.845-1.531-0.976
				c-0.89-0.186-1.868-0.361-2.668,0.071c-0.873,0.472-1.245,1.501-1.648,2.408c-0.849,1.912-2.141,3.626-3.744,4.97
				c0.498,0.754,1.368,1.248,2.27,1.291C305.21,390.548,307.86,385.889,309.367,384.201z"/>
			<path style="fill:#F0C4A8;" d="M186.63,384.201c-0.387-0.434-0.803-0.977-0.648-1.537c0.17-0.616,0.906-0.845,1.531-0.976
				c0.89-0.186,1.868-0.361,2.668,0.071c0.873,0.472,1.245,1.501,1.648,2.408c0.849,1.912,2.14,3.626,3.744,4.97
				c-0.498,0.754-1.368,1.248-2.27,1.291C190.787,390.548,188.137,385.889,186.63,384.201z"/>
			<path style="fill:#E32600;" d="M233.125,369.402h29.409l1.699,43.708c0,4.3-3.486,7.785-7.785,7.785h-17.237
				c-4.3,0-7.785-3.486-7.785-7.785L233.125,369.402z"/>
			<path style="fill:#D1AB92;" d="M244.06,418.094L244.06,418.094c2.283-1.522,5.257-1.522,7.539,0l0,0v9.32h-7.539V418.094z"/>
			<g>
				<g>
					<path style="fill:#CCA78F;" d="M254.016,434.104c0-1.463,1.276-2.65,2.849-2.65c1.574,0,2.849,1.186,2.849,2.65
						c0,1.463-1.276,2.65-2.849,2.65C255.292,436.754,254.016,435.568,254.016,434.104z"/>
					<path style="fill:#CCA78F;" d="M235.944,434.104c0-1.463,1.276-2.65,2.849-2.65c1.574,0,2.849,1.186,2.849,2.65
						c0,1.463-1.276,2.65-2.849,2.65C237.22,436.754,235.944,435.568,235.944,434.104z"/>
				</g>
				<path style="fill:#F0C4A8;" d="M238.702,436.905h9.096h0.062h9.096c0,0,2.191-12.578-7.508-17.061
					c-0.502-0.232-1.058-0.351-1.619-0.351l0,0c-0.561,0-1.117,0.119-1.619,0.351C236.511,424.327,238.702,436.905,238.702,436.905z
					"/>
			</g>
			<polygon style="fill:#E32600;" points="261.236,419.246 304.902,389.926 302.284,386.784 260.503,406.157 			"/>
			<polygon style="fill:#E32600;" points="234.848,419.246 191.181,389.926 193.799,386.784 235.581,406.157 			"/>
		</g>
	</g>
	<g>
		<g>
			<g>
				<path style="fill:#3D1900;" d="M311.804,271.253c-1.277-2.19-1.406-4.941-0.649-7.361c0.757-2.42,2.334-4.526,4.228-6.212
					c0.598-0.533,1.295-1.193,1.15-1.981c-0.158-0.863-1.237-1.213-2.11-1.124c-2.428,0.249-4.18,2.417-5.354,4.556
					c-1.174,2.139-2.153,4.533-4.134,5.957c-0.982,0.706-2.236,1.211-2.714,2.322c-0.486,1.129,0.063,2.469,0.914,3.357
					c0.85,0.888,1.964,1.469,2.937,2.22c0.973,0.751,1.856,1.789,1.908,3.017C309.892,275.199,311.164,273.226,311.804,271.253z"/>
				<path style="fill:#3D1900;" d="M280.925,302.132c-2.19-1.278-4.941-1.406-7.361-0.649c-2.42,0.757-4.526,2.334-6.212,4.227
					c-0.533,0.598-1.193,1.295-1.981,1.15c-0.863-0.158-1.213-1.237-1.124-2.11c0.249-2.428,2.417-4.18,4.556-5.354
					c2.139-1.174,4.532-2.152,5.957-4.134c0.706-0.982,1.211-2.236,2.322-2.714c1.129-0.486,2.469,0.063,3.357,0.914
					c0.888,0.85,1.469,1.964,2.22,2.937c0.751,0.973,1.789,1.856,3.017,1.908C284.871,300.22,282.898,301.492,280.925,302.132z"/>
			</g>
			<path style="fill:#4E2000;" d="M348.4,340.791c0.482,0.497,0.778,0.819,0.778,0.858c0,0.049,0.314-0.588,0.8-1.606
				c1.018-0.486,1.656-0.8,1.606-0.8c-0.039,0-0.361-0.296-0.858-0.778c1.869-3.959,4.765-10.199,4.765-10.199l-43.648-58.978
				l-5.099,5.099l27.921,50.344l-50.344-27.921l-5.099,5.099l58.978,43.648C338.201,345.556,344.441,342.661,348.4,340.791z"/>
		</g>
		<g>
			<path style="fill:#875300;" d="M369.029,379.384c-1.162-5.867-1.902-18.795,6.277-20.489c2.115-0.438,4.087,0.577,6.039,1.217
				c1.929,0.632,3.77,0.705,5.773,0.876c4.152,0.356,8.514,1.28,11.646,4.228c4.019,3.783,4.794,10.54,1.736,15.135
				c1.066,3.704-1.403,7.725-4.572,9.918c-3.169,2.193-7.196,2.779-11.048,2.67c-2.648-0.075-5.339-0.465-7.707-1.65
				C372.718,389.061,369.996,384.268,369.029,379.384z"/>
			<path style="fill:#F0C4A8;" d="M395.445,298.356c-0.033-0.581-0.123-1.258-0.628-1.546c-0.555-0.315-1.238,0.043-1.773,0.392
				c-0.761,0.498-1.576,1.066-1.836,1.937c-0.284,0.951,0.181,1.941,0.537,2.867c0.751,1.953,1.051,4.078,0.867,6.162
				c0.885,0.181,1.85-0.085,2.518-0.692C396.994,305.784,395.573,300.615,395.445,298.356z"/>
			<path style="fill:#F0C4A8;" d="M308.657,385.144c-0.581-0.033-1.258-0.123-1.546-0.628c-0.315-0.555,0.043-1.238,0.392-1.773
				c0.498-0.761,1.065-1.576,1.937-1.836c0.951-0.284,1.941,0.181,2.867,0.537c1.953,0.751,4.078,1.051,6.162,0.867
				c0.181,0.885-0.085,1.85-0.692,2.518C316.085,386.693,310.916,385.272,308.657,385.144z"/>
			<path style="fill:#8800D6;" d="M331.069,341.803l20.796-20.796l32.107,29.705c3.04,3.04,3.04,7.97,0,11.01l-12.188,12.188
				c-3.04,3.04-7.97,3.04-11.01,0L331.069,341.803z"/>
			<path style="fill:#D1AB92;" d="M373.232,368.502L373.232,368.502c0.538-2.69,2.641-4.793,5.331-5.331h0l6.59,6.59l-5.331,5.331
				L373.232,368.502z"/>
			<g>
				<g>
					<path style="fill:#CCA78F;" d="M391.593,372.782c-1.035-1.035-0.971-2.776,0.141-3.888c1.113-1.113,2.854-1.176,3.888-0.141
						c1.035,1.035,0.971,2.776-0.141,3.888C394.369,373.754,392.628,373.817,391.593,372.782z"/>
					<path style="fill:#CCA78F;" d="M378.814,385.561c-1.035-1.035-0.972-2.776,0.141-3.888c1.113-1.113,2.854-1.176,3.888-0.141
						s0.971,2.775-0.141,3.888C381.59,386.533,379.849,386.596,378.814,385.561z"/>
				</g>
				<path style="fill:#F0C4A8;" d="M382.745,385.592l6.432-6.432l0.044-0.044l6.432-6.432c0,0-7.345-10.443-17.373-6.755
					c-0.519,0.191-0.996,0.5-1.393,0.897l0,0c-0.397,0.397-0.706,0.874-0.897,1.393
					C372.301,378.247,382.745,385.592,382.745,385.592z"/>
			</g>
			<polygon style="fill:#8800D6;" points="386.192,357.171 396.336,305.562 392.264,305.191 376.418,348.434 			"/>
			<polygon style="fill:#8800D6;" points="367.533,375.83 315.923,385.974 315.553,381.902 358.796,366.056 			"/>
			<path style="fill:#875300;" d="M397.305,372.195c-1.626-1.416-3.469-2.582-5.444-3.446c1.004,1.525,1.738,3.342,1.939,5.157
				c-2.435,0.239-4.796,1.2-6.706,2.729c0.672,0.25,1.345,0.5,2.017,0.75c-2.282,1.4-4.563,2.801-6.845,4.201
				c0.454,0.178,0.909,0.356,1.363,0.534c-1.954,0.426-4.084-0.035-5.688-1.231c0.622,1.866,0.977,3.426,2.097,5.044
				c1.12,1.617,2.81,2.948,4.765,3.17c1.373,0.156,2.755-0.242,4.014-0.814c2.883-1.31,5.323-3.576,6.842-6.355
				C397.177,379.156,397.759,375.33,397.305,372.195z"/>
		</g>
	</g>
	<g>
		<g>
			<g>
				<path style="fill:#3D1900;" d="M317.43,216.597c-2.452-0.646-4.488-2.5-5.664-4.746c-1.176-2.246-1.55-4.851-1.404-7.382
					c0.046-0.799,0.072-1.759-0.587-2.214c-0.722-0.499-1.732,0.016-2.286,0.697c-1.541,1.893-1.247,4.664-0.564,7.008
					c0.682,2.343,1.683,4.727,1.289,7.136c-0.195,1.193-0.725,2.437-0.277,3.561c0.455,1.142,1.79,1.701,3.019,1.727
					s2.427-0.35,3.647-0.507s2.577-0.048,3.483,0.784C318.869,220.74,318.373,218.445,317.43,216.597z"/>
				<path style="fill:#3D1900;" d="M317.43,260.267c-2.452,0.646-4.488,2.5-5.664,4.746c-1.176,2.246-1.55,4.851-1.404,7.382
					c0.046,0.8,0.072,1.759-0.587,2.214c-0.722,0.498-1.732-0.017-2.286-0.697c-1.541-1.893-1.247-4.664-0.564-7.008
					c0.682-2.343,1.683-4.727,1.289-7.135c-0.195-1.193-0.725-2.437-0.277-3.561c0.455-1.142,1.79-1.701,3.019-1.727
					c1.229-0.027,2.427,0.35,3.647,0.507c1.219,0.157,2.577,0.048,3.483-0.784C318.869,256.125,318.373,258.419,317.43,260.267z"/>
			</g>
			<path style="fill:#330E00;" d="M392.479,239.892c0.692,0.011,1.129,0.028,1.157,0.056c0.035,0.035-0.194-0.638-0.57-1.702
				c0.376-1.064,0.605-1.737,0.57-1.702c-0.028,0.028-0.465,0.045-1.157,0.056c-1.478-4.121-3.843-10.581-3.843-10.581
				l-72.568-10.84v7.211l55.342,15.855l-55.342,15.855v7.211l72.568-10.84C388.636,250.473,391.001,244.013,392.479,239.892z"/>
		</g>
		<g>
			<path style="fill:#744100;" d="M441.366,229.2c2.995-2.421,6.805-3.816,10.656-3.902c-0.361-0.68-0.723-1.359-1.084-2.039
				c1.931,0.632,3.75,1.607,5.344,2.866c0.094-0.405,0.187-0.81,0.28-1.215c1.077,1.704,2.154,3.408,3.231,5.112
				c1.994,0.997,3.852,2.901,4.99,4.817c-0.463-0.169-0.926-0.339-1.389-0.508c1.027,6.939-1.513,14.31-6.598,19.142
				c0.063-0.264,0.126-0.529,0.189-0.794c-4.142,0.023-8.285-1.074-11.874-3.143c0.534-2.486,0.196-5.253,0.255-7.795
				c0.06-2.542-0.385-5.153-1.692-7.334c-0.608-1.014-1.392-1.92-1.94-2.967S440.446,229.943,441.366,229.2z"/>
			<path style="fill:#744100;" d="M434.723,233.35c4.759-5.626,12.825-8.221,19.972-6.426c-0.078-0.581-0.156-1.162-0.234-1.743
				c0.957,0.972,1.713,2.14,2.21,3.411c0.256-0.556,0.511-1.111,0.767-1.667c-0.106,1.561-0.212,3.123-0.318,4.684
				c1.826,1.577,4.003,2.943,5.829,4.52c-0.481-0.147-0.962-0.294-1.443-0.441c0.514,1.965,0.716,4.012,0.596,6.039
				c-0.53-0.367-0.961-0.877-1.234-1.462c0.284,4.044-1.144,8.181-3.861,11.189c-0.077-0.39-0.155-0.779-0.232-1.169
				c-3.949,1.855-8.696,1.283-12.677-0.503c-3.981-1.786-7.354-4.664-10.667-7.504C434.03,239.302,434.582,236.385,434.723,233.35z"
				/>
			<path style="fill:#F0C4A8;" d="M395.739,176.62c-0.434-0.387-0.977-0.803-1.537-0.648c-0.616,0.17-0.845,0.906-0.976,1.531
				c-0.186,0.89-0.361,1.868,0.071,2.668c0.472,0.873,1.501,1.245,2.408,1.648c1.912,0.849,3.626,2.141,4.97,3.744
				c0.754-0.498,1.248-1.368,1.291-2.27C402.086,180.776,397.426,178.127,395.739,176.62z"/>
			<path style="fill:#F0C4A8;" d="M395.739,299.356c-0.434,0.387-0.977,0.803-1.537,0.648c-0.616-0.17-0.845-0.906-0.976-1.531
				c-0.186-0.89-0.361-1.868,0.071-2.668c0.472-0.873,1.501-1.245,2.408-1.648c1.912-0.849,3.626-2.141,4.97-3.744
				c0.754,0.498,1.248,1.368,1.291,2.27C402.086,295.2,397.426,297.849,395.739,299.356z"/>
			<path style="fill:#807AFF;" d="M380.939,252.862v-29.41l43.708-1.699c4.3,0,7.785,3.486,7.785,7.785v17.236
				c0,4.3-3.486,7.785-7.785,7.785L380.939,252.862z"/>
			<path style="fill:#D1AB92;" d="M429.632,241.927L429.632,241.927c-1.522-2.283-1.522-5.257,0-7.539l0,0h9.32v7.539H429.632z"/>
			<g>
				<g>
					<path style="fill:#CCA78F;" d="M445.642,231.97c-1.463,0-2.65-1.276-2.65-2.849c0-1.574,1.186-2.849,2.65-2.849
						c1.463,0,2.65,1.276,2.65,2.849C448.292,230.695,447.105,231.97,445.642,231.97z"/>
					<path style="fill:#CCA78F;" d="M445.642,250.042c-1.463,0-2.65-1.276-2.65-2.849c0-1.574,1.186-2.849,2.65-2.849
						c1.463,0,2.65,1.276,2.65,2.849C448.292,248.767,447.105,250.042,445.642,250.042z"/>
				</g>
				<path style="fill:#F0C4A8;" d="M448.443,247.285v-9.096v-0.062v-9.096c0,0-12.578-2.191-17.061,7.508
					c-0.232,0.502-0.351,1.058-0.351,1.619l0,0c0,0.561,0.119,1.117,0.351,1.619C435.865,249.475,448.443,247.285,448.443,247.285z"
					/>
			</g>
			<polygon style="fill:#807AFF;" points="430.784,224.751 401.464,181.084 398.322,183.702 417.695,225.484 			"/>
			<polygon style="fill:#807AFF;" points="430.784,251.139 401.464,294.805 398.322,292.187 417.695,250.406 			"/>
			<path style="fill:#744100;" d="M449.266,227.517c-2.151,0.149-4.278,0.627-6.286,1.413c1.788,0.368,3.592,1.135,5.017,2.276
				c-1.553,1.891-2.543,4.239-2.813,6.671c0.652-0.298,1.305-0.597,1.957-0.896c-0.623,2.604-1.246,5.207-1.87,7.811
				c0.447-0.195,0.895-0.391,1.342-0.586c-1.081,1.683-2.913,2.863-4.892,3.151c1.759,0.88,3.114,1.732,5.049,2.084
				s4.072,0.098,5.611-1.127c1.081-0.861,1.777-2.119,2.263-3.413c1.112-2.965,1.235-6.293,0.344-9.332
				C454.097,232.529,451.803,229.412,449.266,227.517z"/>
		</g>
	</g>
	<g>
		<g>
			<g>
				<path style="fill:#3D1900;" d="M283.233,173.946c-2.19,1.278-4.941,1.406-7.361,0.649c-2.42-0.757-4.526-2.334-6.212-4.227
					c-0.533-0.598-1.193-1.295-1.981-1.15c-0.863,0.158-1.213,1.237-1.124,2.11c0.249,2.428,2.417,4.18,4.556,5.354
					c2.139,1.174,4.533,2.152,5.957,4.134c0.706,0.982,1.211,2.236,2.322,2.714c1.129,0.486,2.469-0.063,3.356-0.914
					c0.888-0.85,1.469-1.964,2.22-2.937c0.751-0.973,1.789-1.856,3.017-1.908C287.179,175.858,285.207,174.586,283.233,173.946z"/>
				<path style="fill:#3D1900;" d="M314.112,204.826c-1.277,2.19-1.406,4.941-0.649,7.361c0.757,2.42,2.334,4.526,4.227,6.212
					c0.598,0.533,1.295,1.193,1.15,1.981c-0.158,0.863-1.237,1.213-2.11,1.124c-2.428-0.249-4.18-2.417-5.354-4.556
					c-1.174-2.139-2.153-4.533-4.134-5.957c-0.982-0.706-2.236-1.211-2.714-2.322c-0.486-1.129,0.064-2.469,0.914-3.357
					c0.85-0.888,1.964-1.469,2.937-2.22c0.973-0.751,1.856-1.789,1.908-3.017C312.201,200.879,313.472,202.852,314.112,204.826z"/>
			</g>
			<path style="fill:#4E2000;" d="M352.772,137.35c0.497-0.482,0.819-0.778,0.858-0.778c0.049,0-0.588-0.314-1.606-0.8
				c-0.486-1.018-0.8-1.656-0.8-1.606c0,0.039-0.296,0.361-0.778,0.858c-3.959-1.869-10.199-4.765-10.199-4.765l-58.978,43.648
				l5.099,5.099l50.344-27.921l-27.921,50.344l5.099,5.099l43.648-58.978C357.537,147.55,354.641,141.309,352.772,137.35z"/>
		</g>
		<g>
			<path style="fill:#A24D00;" d="M367.762,127.924c-3.047,0.647-6.401-0.445-8.483-2.762c-2.082-2.316-2.811-5.768-1.845-8.729
				c1.019-3.121,3.722-5.594,4.215-8.839c0.475-3.123-1.146-6.661,0.59-9.3c2.111-3.21,7.758-2.685,9.438-6.14
				c0.945-1.943,0.236-4.569,1.695-6.163c1.184-1.294,3.22-1.242,4.946-0.932c1.726,0.311,3.592,0.764,5.164-0.015
				c1.809-0.896,2.591-3.13,4.304-4.197c1.704-1.061,3.92-0.728,5.819-0.079c1.899,0.649,3.754,1.589,5.76,1.651
				c1.963,0.061,3.432,1.917,3.806,3.845c0.374,1.928,0.199,4.014,1.118,5.749c0.933,1.76,2.849,2.853,3.724,4.643
				c0.754,1.543,0.617,3.371,0.234,5.045c-0.382,1.674-0.993,3.306-1.141,5.017c-0.163,1.877,0.238,3.755,0.281,5.639
				c0.042,1.884-0.362,3.931-1.777,5.175c-2.203,1.936-5.77,1.115-8.295,2.606c-2.898,1.712-3.788,6.075-7.015,7.03
				c-3.705,1.096-7.171-3.235-11.005-2.756c-1.45,0.181-2.72,1.04-3.873,1.938c-1.153,0.899-2.284,1.881-3.655,2.388
				C370.396,129.246,368.781,128.972,367.762,127.924z"/>
			<path style="fill:#F0C4A8;" d="M310.337,90.305c-0.581,0.033-1.258,0.123-1.546,0.628c-0.315,0.555,0.043,1.238,0.392,1.773
				c0.498,0.761,1.065,1.576,1.937,1.836c0.951,0.284,1.941-0.181,2.867-0.537c1.953-0.751,4.078-1.05,6.162-0.867
				c0.181-0.885-0.084-1.85-0.692-2.518C317.765,88.756,312.596,90.177,310.337,90.305z"/>
			<path style="fill:#F0C4A8;" d="M397.125,177.093c-0.033,0.581-0.123,1.258-0.628,1.546c-0.555,0.315-1.238-0.043-1.773-0.392
				c-0.761-0.498-1.576-1.066-1.836-1.937c-0.284-0.951,0.181-1.941,0.537-2.867c0.751-1.953,1.05-4.078,0.867-6.162
				c0.885-0.181,1.85,0.085,2.518,0.692C398.674,169.665,397.253,174.834,397.125,177.093z"/>
			<path style="fill:#00E1B2;" d="M353.784,154.681l-20.796-20.796l29.705-32.107c3.04-3.04,7.97-3.04,11.01,0l12.188,12.188
				c3.04,3.04,3.04,7.97,0,11.01L353.784,154.681z"/>
			<path style="fill:#D1AB92;" d="M380.483,112.518L380.483,112.518c-2.69-0.538-4.793-2.641-5.331-5.331l0,0l6.59-6.59l5.331,5.331
				L380.483,112.518z"/>
			<g>
				<g>
					<path style="fill:#CCA78F;" d="M384.763,94.157c-1.035,1.035-2.776,0.972-3.888-0.141c-1.113-1.113-1.176-2.854-0.141-3.888
						c1.035-1.035,2.775-0.972,3.888,0.141S385.798,93.122,384.763,94.157z"/>
					<path style="fill:#CCA78F;" d="M397.542,106.936c-1.035,1.035-2.776,0.971-3.888-0.141c-1.113-1.113-1.176-2.854-0.141-3.888
						c1.035-1.035,2.776-0.972,3.888,0.141C398.513,104.16,398.577,105.901,397.542,106.936z"/>
				</g>
				<path style="fill:#F0C4A8;" d="M397.572,103.005l-6.432-6.432l-0.044-0.044l-6.432-6.432c0,0-10.444,7.345-6.755,17.373
					c0.191,0.519,0.5,0.997,0.897,1.393l0,0c0.397,0.396,0.874,0.706,1.393,0.897C390.227,113.449,397.572,103.005,397.572,103.005z
					"/>
			</g>
			<polygon style="fill:#00E1B2;" points="369.152,99.558 317.542,89.414 317.172,93.486 360.414,109.332 			"/>
			<polygon style="fill:#00E1B2;" points="387.811,118.217 397.955,169.827 393.883,170.197 378.037,126.955 			"/>
			<path style="fill:#A24D00;" d="M374.501,92.616c1.399,2.364,4.395,3.66,7.077,3.062c0.965-0.215,2.027-0.636,2.883-0.141
				c0.676,0.391,0.973,1.241,1.627,1.667c0.789,0.514,1.82,0.27,2.751,0.131c0.931-0.139,2.09-0.034,2.505,0.81
				c0.466,0.949-0.363,2.157,0.085,3.115c0.243,0.521,0.796,0.811,1.202,1.218c1.022,1.025,1.016,2.694,0.643,4.092
				c-0.373,1.398-1.043,2.735-1.127,4.179c-0.084,1.445,0.678,3.105,2.101,3.365c4.507,0.824,8.158-3.438,9.772-7.725
				s0.919-9.28-1.453-13.2c-2.996-4.952-8.638-8.192-14.426-8.285C382.354,84.812,377.654,87.761,374.501,92.616z"/>
		</g>
	</g>
	<g>
		<circle style="opacity:0.1;" cx="286.541" cy="29.786" r="2.17"/>
		<circle style="opacity:0.1;" cx="301.338" cy="60.552" r="3.009"/>
		<circle style="opacity:0.1;" cx="323.155" cy="39.02" r="1.493"/>
		<path style="opacity:0.1;" d="M336.995,74.215c0,1.565-1.269,2.833-2.833,2.833s-2.833-1.269-2.833-2.833
			c0-1.565,1.269-2.833,2.833-2.833S336.995,72.65,336.995,74.215z"/>
		<path style="opacity:0.1;" d="M366.291,53.952c0,0.725-0.588,1.314-1.314,1.314c-0.726,0-1.314-0.588-1.314-1.314
			c0-0.726,0.588-1.314,1.314-1.314C365.702,52.638,366.291,53.226,366.291,53.952z"/>
		<path style="opacity:0.1;" d="M370.405,72.753c0,0.758-0.614,1.372-1.372,1.372s-1.372-0.614-1.372-1.372
			c0-0.758,0.614-1.372,1.372-1.372S370.405,71.996,370.405,72.753z"/>
		<circle style="opacity:0.1;" cx="400.697" cy="70.379" r="2.374"/>
		<circle style="opacity:0.1;" cx="425.473" cy="111.774" r="2.442"/>
		<circle style="opacity:0.1;" cx="433.314" cy="132.541" r="2.282"/>
		<path style="opacity:0.1;" d="M414.553,140.284c0,0.706-0.573,1.279-1.279,1.279c-0.706,0-1.279-0.573-1.279-1.279
			c0-0.706,0.573-1.279,1.279-1.279C413.981,139.005,414.553,139.578,414.553,140.284z"/>
		<circle style="opacity:0.1;" cx="410.916" cy="164.363" r="2.359"/>
		<path style="opacity:0.1;" d="M447.022,166.378c0,1.113-0.902,2.015-2.015,2.015c-1.113,0-2.015-0.902-2.015-2.015
			s0.902-2.015,2.015-2.015C446.12,164.363,447.022,165.266,447.022,166.378z"/>
		<circle style="opacity:0.1;" cx="437.274" cy="182.384" r="1.678"/>
		<path style="opacity:0.1;" d="M426.066,181.453c0,0.204-0.165,0.369-0.369,0.369s-0.369-0.165-0.369-0.369
			s0.165-0.369,0.369-0.369S426.066,181.249,426.066,181.453z"/>
		<path style="opacity:0.1;" d="M450.644,206.129c0,0.678-0.549,1.227-1.227,1.227s-1.227-0.549-1.227-1.227
			s0.549-1.227,1.227-1.227S450.644,205.451,450.644,206.129z"/>
		<path style="opacity:0.1;" d="M439.737,210.139c0,0.68-0.551,1.232-1.232,1.232s-1.232-0.551-1.232-1.232
			c0-0.68,0.551-1.232,1.232-1.232S439.737,209.458,439.737,210.139z"/>
		<circle style="opacity:0.1;" cx="465.923" cy="266.313" r="2.974"/>
		<path style="opacity:0.1;" d="M452.856,273.712c0,0.611-0.495,1.106-1.106,1.106c-0.611,0-1.106-0.495-1.106-1.106
			c0-0.611,0.495-1.106,1.106-1.106C452.361,272.606,452.856,273.101,452.856,273.712z"/>
		<path style="opacity:0.1;" d="M435.812,289.852c0,1.389-1.126,2.514-2.514,2.514c-1.389,0-2.514-1.126-2.514-2.514
			c0-1.389,1.126-2.514,2.514-2.514C434.687,287.338,435.812,288.464,435.812,289.852z"/>
		<path style="opacity:0.1;" d="M453.758,302.407c0,1.538-1.247,2.784-2.784,2.784s-2.784-1.246-2.784-2.784
			c0-1.538,1.247-2.784,2.784-2.784S453.758,300.87,453.758,302.407z"/>
		<path style="opacity:0.1;" d="M427.18,318.079c0,1.146-0.929,2.075-2.074,2.075s-2.074-0.929-2.074-2.075
			c0-1.146,0.929-2.074,2.074-2.074S427.18,316.934,427.18,318.079z"/>
		<circle style="opacity:0.1;" cx="441.961" cy="324.369" r="1.031"/>
		<path style="opacity:0.1;" d="M411.662,351.087c0,1.374-1.114,2.488-2.488,2.488c-1.374,0-2.488-1.114-2.488-2.488
			c0-1.374,1.114-2.488,2.488-2.488C410.548,348.599,411.662,349.713,411.662,351.087z"/>
		<circle style="opacity:0.1;" cx="425.703" cy="368.096" r="2.672"/>
		<path style="opacity:0.1;" d="M356.829,399.588c0,0.875-0.709,1.583-1.583,1.583c-0.874,0-1.583-0.709-1.583-1.583
			s0.709-1.583,1.583-1.583C356.12,398.005,356.829,398.714,356.829,399.588z"/>
		<path style="opacity:0.1;" d="M371.576,412.922c0,1.541-1.249,2.79-2.79,2.79c-1.541,0-2.79-1.249-2.79-2.79
			c0-1.541,1.249-2.79,2.79-2.79C370.327,410.132,371.576,411.381,371.576,412.922z"/>
		<path style="opacity:0.1;" d="M336.251,418.304c0,1.431-1.16,2.591-2.591,2.591c-1.431,0-2.591-1.16-2.591-2.591
			c0-1.431,1.16-2.591,2.591-2.591C335.091,415.712,336.251,416.873,336.251,418.304z"/>
		<path style="opacity:0.1;" d="M332.157,404.93c0,1.057-0.857,1.914-1.914,1.914s-1.914-0.857-1.914-1.914s0.857-1.914,1.914-1.914
			S332.157,403.872,332.157,404.93z"/>
		<path style="opacity:0.1;" d="M314.863,419.064c0,1.851-1.501,3.351-3.351,3.351s-3.351-1.5-3.351-3.351
			c0-1.851,1.5-3.351,3.351-3.351S314.863,417.213,314.863,419.064z"/>
		<circle style="opacity:0.1;" cx="294.316" cy="426.376" r="1.038"/>
		<path style="opacity:0.1;" d="M288.374,443.406c0,1.326-1.075,2.401-2.401,2.401c-1.326,0-2.401-1.075-2.401-2.401
			c0-1.326,1.075-2.401,2.401-2.401C287.299,441.005,288.374,442.08,288.374,443.406z"/>
		<circle style="opacity:0.1;" cx="323.079" cy="441.755" r="2.75"/>
		<circle style="opacity:0.1;" cx="137.549" cy="397.368" r="2.22"/>
		<path style="opacity:0.1;" d="M158.051,399.588c0,0.875-0.709,1.583-1.583,1.583c-0.874,0-1.583-0.709-1.583-1.583
			s0.709-1.583,1.583-1.583C157.342,398.005,158.051,398.714,158.051,399.588z"/>
		<path style="opacity:0.1;" d="M152.576,410.3c0,1.909-1.548,3.457-3.457,3.457c-1.909,0-3.457-1.548-3.457-3.457
			c0-1.909,1.548-3.457,3.457-3.457C151.028,406.844,152.576,408.391,152.576,410.3z"/>
		<path style="opacity:0.1;" d="M182.434,403.05c0,1.038-0.841,1.879-1.879,1.879s-1.879-0.841-1.879-1.879
			c0-1.038,0.841-1.879,1.879-1.879S182.434,402.013,182.434,403.05z"/>
		<circle style="opacity:0.1;" cx="175.931" cy="424.396" r="1.98"/>
		<path style="opacity:0.1;" d="M202.852,420.651c0,1.297-1.051,2.348-2.348,2.348c-1.297,0-2.348-1.051-2.348-2.348
			s1.051-2.348,2.348-2.348C201.801,418.304,202.852,419.355,202.852,420.651z"/>
		<path style="opacity:0.1;" d="M199.715,433.047c0,0.879-0.713,1.592-1.592,1.592c-0.879,0-1.592-0.713-1.592-1.592
			s0.713-1.592,1.592-1.592C199.002,431.455,199.715,432.168,199.715,433.047z"/>
		<path style="opacity:0.1;" d="M220.252,423.188c0,0.427-0.346,0.773-0.773,0.773s-0.773-0.346-0.773-0.773
			s0.346-0.773,0.773-0.773S220.252,422.761,220.252,423.188z"/>
		<circle style="opacity:0.1;" cx="216.805" cy="442.755" r="1.75"/>
		<path style="opacity:0.1;" d="M49.416,272.33c0,1.681-1.363,3.043-3.043,3.043c-1.681,0-3.043-1.363-3.043-3.043
			c0-1.681,1.363-3.043,3.043-3.043C48.053,269.287,49.416,270.65,49.416,272.33z"/>
		<circle style="opacity:0.1;" cx="61.37" cy="278.618" r="2.615"/>
		<path style="opacity:0.1;" d="M53.855,292.612c0,1.226-0.994,2.219-2.22,2.219c-1.226,0-2.219-0.994-2.219-2.219
			s0.994-2.22,2.219-2.22C52.861,290.393,53.855,291.387,53.855,292.612z"/>
		<path style="opacity:0.1;" d="M69.995,312.672c0,1.289-1.045,2.333-2.333,2.333c-1.289,0-2.333-1.045-2.333-2.333
			c0-1.289,1.045-2.333,2.333-2.333C68.951,310.338,69.995,311.383,69.995,312.672z"/>
		<circle style="opacity:0.1;" cx="75.449" cy="301.671" r="0.787"/>
		<circle style="opacity:0.1;" cx="73.662" cy="343.338" r="3.667"/>
		<path style="opacity:0.1;" d="M91.469,338.896c0,0.86-0.697,1.557-1.557,1.557c-0.86,0-1.557-0.697-1.557-1.557
			c0-0.86,0.697-1.557,1.557-1.557C90.771,337.338,91.469,338.035,91.469,338.896z"/>
		<circle style="opacity:0.1;" cx="81.241" cy="325.584" r="1.913"/>
		<circle style="opacity:0.1;" cx="84.597" cy="364.614" r="1.443"/>
		<circle style="opacity:0.1;" cx="53.083" cy="185.254" r="1.631"/>
		<path style="opacity:0.1;" d="M75.449,154.565c0,2.15-1.743,3.893-3.893,3.893c-2.15,0-3.893-1.743-3.893-3.893
			c0-2.15,1.743-3.893,3.893-3.893C73.705,150.672,75.449,152.415,75.449,154.565z"/>
		<path style="opacity:0.1;" d="M73.201,167.566c0,0.885-0.717,1.603-1.603,1.603s-1.603-0.717-1.603-1.603s0.718-1.603,1.603-1.603
			S73.201,166.681,73.201,167.566z"/>
		<path style="opacity:0.1;" d="M88.548,128.344c0,0.693-0.561,1.254-1.254,1.254c-0.693,0-1.254-0.562-1.254-1.254
			c0-0.693,0.561-1.254,1.254-1.254C87.986,127.09,88.548,127.651,88.548,128.344z"/>
		<path style="opacity:0.1;" d="M77.329,121.804c0,1.013-0.821,1.833-1.833,1.833c-1.013,0-1.833-0.821-1.833-1.833
			c0-1.013,0.821-1.833,1.833-1.833C76.508,119.97,77.329,120.791,77.329,121.804z"/>
		<circle style="opacity:0.1;" cx="90.008" cy="113.979" r="1.46"/>
		<circle style="opacity:0.1;" cx="63.138" cy="142.439" r="1.768"/>
		<circle style="opacity:0.1;" cx="62.004" cy="196.473" r="1.135"/>
		<path style="opacity:0.1;" d="M52.065,158.851l0.638,1.725c0.577,1.559,1.806,2.788,3.364,3.365l1.724,0.638l-1.724,0.638
			c-1.559,0.577-2.788,1.806-3.364,3.365l-0.638,1.725l-0.638-1.725c-0.577-1.559-1.806-2.788-3.364-3.365l-1.724-0.638l1.724-0.638
			c1.559-0.577,2.788-1.806,3.364-3.365L52.065,158.851z"/>
		<path style="opacity:0.1;" d="M62.78,113.964l0.401,1.084c0.363,0.98,1.135,1.753,2.116,2.115l1.084,0.401l-1.084,0.401
			c-0.98,0.363-1.753,1.135-2.116,2.115l-0.401,1.084l-0.401-1.084c-0.363-0.98-1.135-1.753-2.115-2.115l-1.084-0.401l1.084-0.401
			c0.98-0.363,1.753-1.135,2.115-2.115L62.78,113.964z"/>
		<path style="opacity:0.1;" d="M343.162,50.351l0.401,1.084c0.363,0.98,1.135,1.753,2.115,2.115l1.084,0.401l-1.084,0.401
			c-0.98,0.363-1.753,1.135-2.115,2.116l-0.401,1.084l-0.401-1.084c-0.363-0.98-1.135-1.753-2.116-2.116l-1.084-0.401l1.084-0.401
			c0.98-0.363,1.753-1.135,2.116-2.115L343.162,50.351z"/>
		<path style="opacity:0.1;" d="M355.492,77.048l0.401,1.084c0.363,0.98,1.135,1.753,2.115,2.116l1.084,0.401l-1.084,0.401
			c-0.98,0.363-1.753,1.135-2.115,2.116l-0.401,1.084l-0.401-1.084c-0.363-0.98-1.135-1.753-2.116-2.116l-1.084-0.401l1.084-0.401
			c0.98-0.363,1.753-1.136,2.116-2.116L355.492,77.048z"/>
		<path style="opacity:0.1;" d="M387.073,56.806l0.401,1.084c0.363,0.98,1.135,1.753,2.115,2.115l1.084,0.401l-1.084,0.401
			c-0.98,0.363-1.753,1.135-2.115,2.116l-0.401,1.084l-0.401-1.084c-0.363-0.98-1.135-1.753-2.116-2.116l-1.084-0.401l1.084-0.401
			c0.98-0.363,1.753-1.135,2.116-2.115L387.073,56.806z"/>
		<path style="opacity:0.1;" d="M425.697,147.479l0.401,1.084c0.363,0.98,1.135,1.753,2.115,2.116l1.084,0.401l-1.084,0.401
			c-0.98,0.363-1.753,1.135-2.115,2.115l-0.401,1.084l-0.401-1.084c-0.363-0.98-1.135-1.753-2.116-2.115l-1.084-0.401l1.084-0.401
			c0.98-0.363,1.753-1.135,2.116-2.116L425.697,147.479z"/>
		<path style="opacity:0.1;" d="M442.992,114.616l0.401,1.084c0.363,0.98,1.135,1.753,2.116,2.116l1.084,0.401l-1.084,0.401
			c-0.98,0.363-1.753,1.135-2.116,2.116l-0.401,1.084l-0.401-1.084c-0.363-0.98-1.135-1.753-2.116-2.116l-1.084-0.401l1.084-0.401
			c0.98-0.363,1.753-1.135,2.116-2.116L442.992,114.616z"/>
		<path style="opacity:0.1;" d="M461.181,180.461l0.401,1.084c0.363,0.98,1.135,1.753,2.116,2.115l1.084,0.401l-1.084,0.401
			c-0.98,0.363-1.753,1.135-2.116,2.116l-0.401,1.084l-0.401-1.084c-0.363-0.98-1.135-1.753-2.116-2.116l-1.084-0.401l1.084-0.401
			c0.98-0.363,1.753-1.135,2.116-2.115L461.181,180.461z"/>
		<path style="opacity:0.1;" d="M468.897,283.737l0.401,1.084c0.363,0.98,1.135,1.753,2.116,2.116l1.084,0.401l-1.084,0.401
			c-0.98,0.363-1.753,1.135-2.116,2.115l-0.401,1.084l-0.401-1.084c-0.363-0.98-1.135-1.753-2.116-2.115l-1.084-0.401l1.084-0.401
			c0.98-0.363,1.753-1.135,2.116-2.116L468.897,283.737z"/>
		<path style="opacity:0.1;" d="M302.929,446.832l0.401,1.084c0.363,0.98,1.135,1.753,2.115,2.116l1.084,0.401l-1.084,0.401
			c-0.98,0.363-1.753,1.135-2.115,2.115l-0.401,1.084l-0.401-1.084c-0.363-0.98-1.135-1.753-2.115-2.115l-1.084-0.401l1.084-0.401
			c0.98-0.363,1.753-1.135,2.115-2.116L302.929,446.832z"/>
		<path style="opacity:0.1;" d="M438.506,341.955l0.401,1.084c0.363,0.98,1.135,1.753,2.115,2.115l1.084,0.401l-1.084,0.401
			c-0.98,0.363-1.753,1.135-2.115,2.116l-0.401,1.084l-0.401-1.084c-0.363-0.98-1.135-1.753-2.116-2.116l-1.084-0.401l1.084-0.401
			c0.98-0.363,1.753-1.135,2.116-2.115L438.506,341.955z"/>
		<path style="opacity:0.1;" d="M415.263,331.181l0.223,0.603c0.201,0.545,0.631,0.974,1.176,1.176l0.602,0.223l-0.602,0.223
			c-0.545,0.201-0.974,0.631-1.176,1.176l-0.223,0.602l-0.223-0.602c-0.202-0.545-0.631-0.974-1.176-1.176l-0.603-0.223l0.603-0.223
			c0.545-0.202,0.974-0.631,1.176-1.176L415.263,331.181z"/>
		<path style="opacity:0.1;" d="M460.947,321.337l0.223,0.603c0.202,0.545,0.631,0.974,1.176,1.176l0.603,0.223l-0.603,0.223
			c-0.545,0.202-0.974,0.631-1.176,1.176l-0.223,0.603l-0.223-0.603c-0.202-0.545-0.631-0.974-1.176-1.176l-0.603-0.223l0.603-0.223
			c0.545-0.202,0.974-0.631,1.176-1.176L460.947,321.337z"/>
		<path style="opacity:0.1;" d="M351.661,427.923l0.393,1.063c0.356,0.961,1.113,1.719,2.075,2.075l1.063,0.393l-1.063,0.394
			c-0.961,0.356-1.719,1.113-2.075,2.075l-0.393,1.063l-0.393-1.063c-0.356-0.961-1.113-1.719-2.075-2.075l-1.063-0.394l1.063-0.393
			c0.961-0.356,1.719-1.113,2.075-2.075L351.661,427.923z"/>
		<path style="opacity:0.1;" d="M190.76,414.88l0.231,0.624c0.209,0.564,0.654,1.009,1.218,1.218l0.624,0.231l-0.624,0.231
			c-0.564,0.209-1.009,0.654-1.218,1.218l-0.231,0.624l-0.231-0.624c-0.209-0.564-0.654-1.009-1.218-1.218l-0.624-0.231l0.624-0.231
			c0.564-0.209,1.009-0.654,1.218-1.218L190.76,414.88z"/>
		<path style="opacity:0.1;" d="M49.264,308.265l0.231,0.624c0.209,0.564,0.654,1.009,1.218,1.218l0.624,0.231l-0.624,0.231
			c-0.564,0.209-1.009,0.654-1.218,1.218l-0.231,0.624l-0.231-0.624c-0.209-0.564-0.654-1.009-1.218-1.218l-0.624-0.231l0.624-0.231
			c0.564-0.209,1.009-0.654,1.218-1.218L49.264,308.265z"/>
		<path style="opacity:0.1;" d="M93.448,350.571l0.231,0.624c0.209,0.564,0.654,1.009,1.218,1.218l0.624,0.231l-0.624,0.231
			c-0.564,0.209-1.009,0.654-1.218,1.218l-0.231,0.624l-0.231-0.624c-0.209-0.564-0.654-1.009-1.218-1.218l-0.624-0.231l0.624-0.231
			c0.564-0.209,1.009-0.654,1.218-1.218L93.448,350.571z"/>
		<path style="opacity:0.1;" d="M61.37,327.824l0.231,0.624c0.209,0.564,0.654,1.009,1.218,1.218l0.624,0.231l-0.624,0.231
			c-0.564,0.209-1.009,0.654-1.218,1.218l-0.231,0.624l-0.231-0.624c-0.209-0.564-0.654-1.009-1.218-1.218l-0.624-0.231l0.624-0.231
			c0.564-0.209,1.009-0.654,1.218-1.218L61.37,327.824z"/>
		<path style="opacity:0.1;" d="M162.855,417.421l0.231,0.624c0.209,0.564,0.654,1.009,1.218,1.218l0.624,0.231l-0.624,0.231
			c-0.564,0.209-1.009,0.654-1.218,1.218l-0.231,0.624l-0.231-0.624c-0.209-0.564-0.654-1.009-1.218-1.218l-0.624-0.231l0.624-0.231
			c0.564-0.209,1.009-0.654,1.218-1.218L162.855,417.421z"/>
		<path style="opacity:0.1;" d="M304.801,429.515l0.219,0.591c0.198,0.534,0.619,0.955,1.153,1.153l0.591,0.219l-0.591,0.219
			c-0.534,0.198-0.955,0.619-1.153,1.153l-0.219,0.591l-0.219-0.591c-0.198-0.534-0.619-0.955-1.153-1.153l-0.591-0.219l0.591-0.219
			c0.534-0.198,0.955-0.619,1.153-1.153L304.801,429.515z"/>
		<path style="opacity:0.1;" d="M319.347,63.798l0.305,0.826c0.276,0.746,0.865,1.335,1.611,1.611l0.826,0.305l-0.826,0.306
			c-0.746,0.276-1.335,0.865-1.611,1.611l-0.305,0.826l-0.306-0.826c-0.276-0.746-0.865-1.335-1.611-1.611l-0.826-0.306l0.826-0.305
			c0.746-0.276,1.335-0.865,1.611-1.611L319.347,63.798z"/>
		<path style="opacity:0.1;" d="M301.338,35.419l0.401,1.084c0.363,0.98,1.135,1.753,2.116,2.116l1.084,0.401l-1.084,0.401
			c-0.98,0.363-1.753,1.135-2.116,2.115l-0.401,1.084l-0.401-1.084c-0.363-0.98-1.135-1.753-2.116-2.115l-1.084-0.401l1.084-0.401
			c0.98-0.363,1.753-1.135,2.116-2.116L301.338,35.419z"/>
		<path style="opacity:0.1;" d="M137.939,61.809c-0.775,0.46-1.775,0.206-2.236-0.569c-0.46-0.774-0.206-1.775,0.569-2.236
			c0.774-0.46,1.775-0.206,2.236,0.569C138.968,60.348,138.713,61.349,137.939,61.809z"/>
		<path style="opacity:0.1;" d="M174.914,63.95c-1.848,1.099-4.237,0.491-5.336-1.357c-1.099-1.848-0.491-4.237,1.357-5.336
			c1.848-1.099,4.237-0.491,5.336,1.357C177.37,60.463,176.762,62.852,174.914,63.95z"/>
		<path style="opacity:0.1;" d="M162.589,68.661c-0.761,0.452-1.744,0.202-2.196-0.559c-0.452-0.761-0.202-1.744,0.559-2.197
			c0.761-0.452,1.744-0.202,2.197,0.559C163.6,67.226,163.35,68.209,162.589,68.661z"/>
		<path style="opacity:0.1;" d="M204.147,61.812c-0.595,0.354-1.365,0.158-1.719-0.437c-0.354-0.595-0.158-1.365,0.437-1.719
			c0.595-0.354,1.365-0.158,1.719,0.437C204.938,60.689,204.742,61.458,204.147,61.812z"/>
		<path style="opacity:0.1;" d="M204.036,48.826c-0.87,0.517-1.995,0.231-2.513-0.639c-0.517-0.87-0.231-1.995,0.639-2.513
			c0.87-0.517,1.995-0.231,2.513,0.639C205.192,47.184,204.906,48.309,204.036,48.826z"/>
		<path style="opacity:0.1;" d="M179.95,48.692c-0.839,0.499-1.924,0.223-2.423-0.616c-0.499-0.839-0.223-1.924,0.616-2.423
			c0.839-0.499,1.924-0.223,2.423,0.616C181.065,47.109,180.789,48.193,179.95,48.692z"/>
		<path style="opacity:0.1;" d="M159.281,46.04l-1.156,1.43c-1.045,1.292-1.474,2.977-1.173,4.611l0.333,1.808l-1.43-1.156
			c-1.292-1.045-2.977-1.474-4.611-1.173l-1.808,0.333l1.156-1.43c1.045-1.292,1.474-2.977,1.173-4.611l-0.333-1.808l1.43,1.156
			c1.292,1.045,2.977,1.474,4.611,1.173L159.281,46.04z"/>
		<path style="opacity:0.1;" d="M203.341,32.315l-0.727,0.899c-0.657,0.813-0.927,1.872-0.738,2.899l0.209,1.137l-0.899-0.727
			c-0.813-0.657-1.872-0.927-2.899-0.737l-1.137,0.209l0.727-0.899c0.657-0.813,0.927-1.872,0.738-2.9l-0.209-1.137l0.899,0.727
			c0.813,0.657,1.872,0.927,2.9,0.738L203.341,32.315z"/>
	</g>
</g>

</svg>
