<?xml version="1.0" standalone="no"?>
<!DOCTYPE svg PUBLIC "-//W3C//DTD SVG 20010904//EN"
 "http://www.w3.org/TR/2001/REC-SVG-20010904/DTD/svg10.dtd">
<svg version="1.0" xmlns="http://www.w3.org/2000/svg"
 width="1920.000000pt" height="1322.000000pt" viewBox="0 0 1920.000000 1322.000000"
 preserveAspectRatio="xMidYMid meet">
<metadata>
Created by potrace 1.16, written by Peter Selinger 2001-2019
</metadata>
<g transform="translate(0.000000,1322.000000) scale(0.100000,-0.100000)"
fill="#000000" stroke="none">
<path d="M5845 10735 c-25 -9 -61 -37 -97 -74 -32 -34 -59 -61 -62 -61 -2 0
-7 15 -10 33 -10 54 -68 97 -130 97 -52 0 -143 -38 -188 -78 -45 -40 -81 -98
-104 -166 -9 -25 -20 -46 -24 -46 -23 0 -130 -114 -146 -156 -24 -62 -15 -149
25 -246 29 -70 61 -117 61 -90 0 24 54 72 92 83 37 10 47 8 111 -21 59 -28 77
-32 121 -27 105 11 213 71 251 140 7 13 26 21 57 24 84 10 86 49 3 44 l-40 -2
3 47 c4 43 7 47 46 65 75 34 162 18 206 -39 11 -14 22 -23 24 -21 14 16 38
171 39 254 1 147 -37 219 -128 244 -50 14 -61 13 -110 -4z"/>
<path d="M13430 10618 c-49 -16 -159 -130 -199 -206 -18 -35 -36 -61 -39 -60
-118 63 -224 89 -357 89 -188 0 -327 -77 -400 -221 -28 -55 -30 -90 -14 -172
l11 -55 47 4 c62 6 71 10 71 28 0 11 -11 15 -40 15 -22 0 -40 2 -40 4 0 1 5
17 11 35 9 24 17 31 38 31 58 0 129 30 159 66 l29 36 8 -39 c4 -21 18 -64 31
-97 l24 -59 -50 7 c-41 5 -52 4 -56 -9 -9 -22 -6 -23 61 -31 57 -7 62 -10 130
-79 38 -39 90 -85 115 -102 l46 -31 60 16 c57 15 62 15 99 -4 54 -26 80 -74
79 -144 -2 -127 -102 -221 -220 -207 -41 4 -44 3 -44 -19 0 -17 6 -24 18 -24
42 0 139 23 175 42 92 46 180 159 212 271 17 58 22 209 10 259 -6 24 -4 26 44
30 111 11 241 109 297 225 37 76 39 176 6 240 -64 124 -211 197 -322 161z"/>
<path d="M5794 9736 c-9 -23 23 -85 50 -97 13 -6 36 -9 50 -5 30 7 83 73 70
86 -8 8 -119 30 -152 30 -7 0 -15 -6 -18 -14z"/>
<path d="M7526 9652 c-2 -4 7 -46 20 -92 36 -124 48 -218 36 -276 -11 -52 -4
-71 22 -61 24 9 26 146 4 257 -26 136 -60 207 -82 172z"/>
<path d="M5497 9509 c53 -90 187 -173 331 -204 l32 -7 0 60 0 59 -72 6 c-78 6
-189 45 -259 91 -50 33 -54 33 -32 -5z"/>
<path d="M12818 9334 c-67 -28 -175 -45 -236 -37 l-43 6 3 -54 3 -54 40 3
c115 9 234 65 299 140 25 28 9 27 -66 -4z"/>
<path d="M5238 9309 c-84 -12 -343 -78 -418 -106 -438 -165 -706 -404 -928
-833 -33 -63 -80 -167 -105 -230 -53 -135 -111 -319 -104 -327 3 -3 57 2 119
11 178 25 344 35 603 36 132 1 260 4 285 8 l45 7 15 93 c9 57 19 92 27 92 8 0
10 -11 7 -32 -2 -18 -8 -59 -13 -90 -8 -55 -7 -58 13 -58 70 -1 553 54 563 64
10 9 13 168 15 694 l3 682 -35 -1 c-19 -1 -60 -5 -92 -10z"/>
<path d="M5874 9243 c3 -27 31 -232 62 -457 30 -226 57 -412 59 -414 9 -9 55
104 65 159 21 108 9 403 -22 550 -4 18 -2 17 301 -32 134 -22 245 -38 247 -37
10 10 -313 177 -396 205 -80 27 -278 73 -312 73 -7 0 -8 -17 -4 -47z"/>
<path d="M6804 8859 c15 -74 18 -280 6 -384 -25 -224 -87 -360 -282 -626 -29
-40 -48 -77 -48 -93 0 -20 -8 -30 -35 -43 -49 -23 -51 -40 -7 -62 47 -24 92
-68 92 -91 0 -46 -98 -90 -202 -90 -44 0 -58 3 -58 15 0 9 -24 21 -67 34 -38
11 -113 34 -168 51 -55 16 -108 30 -117 30 -27 0 -21 -29 8 -40 43 -17 286
-88 339 -100 67 -15 117 -54 113 -87 -6 -47 -44 -64 -148 -67 -77 -2 -94 -5
-102 -20 -7 -13 -5 -62 7 -159 9 -78 17 -143 18 -144 5 -4 347 -6 352 -2 2 3
5 108 5 233 l1 228 22 -6 c153 -45 179 -49 342 -43 216 8 213 7 219 71 3 28 8
323 11 656 l5 606 -148 82 c-81 45 -151 82 -156 82 -5 0 -6 -14 -2 -31z"/>
<path d="M5954 7848 c-4 -6 1 -17 10 -24 20 -14 370 -134 392 -134 15 0 19 26
5 34 -12 7 -384 136 -393 136 -4 0 -10 -5 -14 -12z"/>
<path d="M11394 7429 c-3 -6 -2 -15 3 -20 15 -15 467 -79 478 -68 17 17 -21
36 -88 43 -34 4 -116 16 -182 26 -197 30 -203 31 -211 19z"/>
<path d="M17084 7303 c-26 -49 -62 -115 -79 -148 -278 -515 -548 -1151 -690
-1625 -36 -119 -87 -324 -100 -394 -3 -21 -10 -35 -14 -30 -4 5 -27 59 -50
119 -178 459 -550 944 -975 1271 -59 46 -112 84 -117 84 -29 0 -10 -26 54 -73
290 -215 591 -535 782 -832 102 -158 206 -368 259 -525 20 -56 26 -65 49 -68
21 -3 27 1 27 16 0 45 97 404 159 592 150 449 382 970 667 1497 57 105 104
194 104 197 0 3 -6 6 -14 6 -8 0 -36 -39 -62 -87z"/>
<path d="M11364 7225 c-4 -9 -5 -17 -3 -19 11 -11 485 -64 493 -56 21 21 -15
31 -204 55 -107 14 -214 27 -238 31 -33 4 -43 2 -48 -11z"/>
<path d="M5150 7164 c-119 -49 -360 -128 -452 -150 l-78 -18 0 -80 c0 -66 2
-77 13 -64 9 12 46 18 152 27 309 23 410 33 416 39 7 7 49 234 49 265 0 22 2
22 -100 -19z"/>
<path d="M17534 6266 c-516 -253 -900 -585 -1117 -962 -59 -102 -110 -224 -94
-224 7 0 24 30 40 68 122 299 439 641 817 883 125 80 230 140 363 205 64 32
117 64 117 71 0 20 -9 17 -126 -41z"/>
<path d="M14950 5580 c-28 -17 -1 -22 118 -21 225 3 430 -44 612 -141 138 -73
223 -146 318 -275 42 -58 62 -75 62 -55 0 19 -80 124 -144 188 -209 207 -492
314 -836 314 -63 0 -122 -4 -130 -10z"/>
<path d="M6464 5511 c-21 -16 -51 -41 -65 -57 -53 -58 -139 -176 -139 -191 0
-35 182 7 278 63 55 32 83 88 72 141 -18 77 -77 95 -146 44z m104 -26 c31 -67
-9 -123 -113 -163 -63 -24 -135 -39 -135 -27 0 11 94 126 132 161 64 60 98 68
116 29z"/>
<path d="M10102 4923 c-12 -31 -35 -148 -52 -263 -6 -41 -13 -76 -15 -78 -2
-3 -84 1 -182 7 -98 6 -239 14 -314 17 l-137 7 -14 -50 c-13 -44 -104 -207
-143 -257 -17 -22 -65 -27 -430 -45 -115 -6 -227 -13 -247 -16 -21 -3 -144
-10 -275 -15 -219 -9 -238 -8 -256 8 -44 40 -141 169 -164 218 -13 30 -27 54
-30 54 -3 0 -87 -21 -186 -46 -356 -91 -572 -198 -643 -321 -39 -65 -53 -142
-61 -325 -7 -179 3 -163 -108 -177 -135 -17 -270 22 -336 96 -33 39 -79 127
-79 154 0 12 13 18 43 23 66 11 177 70 235 125 116 111 123 238 19 315 -45 33
-140 30 -195 -7 -88 -58 -141 -168 -150 -309 -6 -104 -6 -105 -110 -53 -83 42
-162 122 -212 216 -30 56 -57 74 -54 35 3 -31 69 -130 129 -191 69 -71 151
-122 212 -131 26 -4 43 -12 43 -20 0 -34 45 -127 82 -169 89 -101 175 -131
354 -122 l121 6 7 -142 c11 -238 52 -482 112 -669 117 -365 416 -730 767 -936
43 -25 42 -10 10 -185 -8 -48 -13 -90 -10 -93 6 -7 433 -173 462 -180 19 -5
25 3 44 54 l21 60 86 -29 c86 -29 211 -63 272 -74 18 -3 58 -12 90 -21 94 -25
347 -40 460 -27 53 6 105 14 116 19 17 6 18 3 11 -37 -17 -98 -28 -88 145
-135 85 -23 187 -51 227 -62 l71 -20 6 41 c3 23 13 104 22 181 l18 138 45 20
c77 33 77 33 139 -74 30 -54 59 -98 62 -98 4 0 58 33 121 73 63 40 146 92 186
115 100 60 100 60 58 122 -19 28 -35 57 -35 64 1 16 135 106 160 106 11 0 23
6 25 13 4 9 55 12 208 13 213 0 354 19 479 64 52 19 52 19 18 20 -60 1 -175
36 -250 76 -163 87 -311 252 -419 466 -122 239 -181 504 -181 807 1 283 52
517 162 736 117 234 263 379 452 450 37 14 76 25 88 25 45 0 1 19 -107 45
l-110 28 -115 111 c-141 135 -268 239 -282 230 -7 -5 -9 -58 -5 -165 3 -88 2
-159 -1 -159 -4 1 -27 19 -52 41 -156 141 -392 329 -411 329 -4 0 -11 -12 -17
-27z m-3402 -598 c57 -29 77 -112 44 -181 -36 -75 -189 -179 -283 -191 l-41
-6 0 64 c0 112 39 216 102 276 55 53 121 67 178 38z"/>
<path d="M12810 3943 c-44 -36 -167 -144 -265 -233 -105 -96 -171 -155 -198
-179 l-28 -25 -53 59 c-55 62 -116 106 -116 85 0 -7 6 -38 14 -69 45 -174 59
-483 31 -681 -25 -176 -98 -409 -158 -509 l-20 -33 22 11 c11 7 216 129 454
273 237 143 502 303 588 354 86 51 168 107 183 124 45 55 39 75 -111 368 -201
394 -258 492 -286 492 -7 0 -32 -17 -57 -37z"/>
<path d="M11657 3862 c-64 -70 -92 -255 -84 -557 8 -294 43 -500 108 -633 66
-136 125 -97 171 113 21 96 18 562 -5 697 -50 297 -127 450 -190 380z"/>
<path d="M11088 3783 c-35 -40 -43 -94 -42 -283 1 -210 20 -352 80 -579 56
-215 122 -353 181 -380 25 -12 30 -10 50 13 44 52 61 201 44 396 -44 493 -214
946 -313 833z"/>
<path d="M10353 1424 l-202 -126 22 -39 c31 -55 90 -132 104 -136 19 -7 48 50
84 159 18 54 35 98 39 98 4 0 33 -9 66 -21 32 -11 88 -21 124 -22 64 -2 65 -2
61 23 -3 26 -60 142 -83 172 -12 16 -31 6 -215 -108z"/>
<path d="M7817 1493 c-4 -21 -9 -75 -13 -120 l-7 -83 26 0 c26 0 38 4 144 51
29 12 54 21 56 18 2 -2 25 -47 51 -99 55 -108 89 -156 105 -146 13 8 97 182
106 219 6 23 -4 27 -222 110 -125 48 -231 87 -234 87 -4 0 -9 -17 -12 -37z"/>
<path d="M9366 1183 c-11 -63 -17 -144 -11 -163 9 -28 28 -25 121 20 46 22 87
40 91 40 5 0 25 -16 44 -36 65 -67 170 -147 180 -137 8 8 42 174 36 179 -1 1
-54 16 -117 34 -63 18 -161 45 -216 61 -56 16 -107 29 -112 29 -6 0 -13 -12
-16 -27z"/>
</g>
</svg>
