<?xml version="1.0" encoding="utf-8"?>
<!-- Generator: Adobe Illustrator 27.5.0, SVG Export Plug-In . SVG Version: 6.00 Build 0)  -->
<svg version="1.1" xmlns="http://www.w3.org/2000/svg" xmlns:xlink="http://www.w3.org/1999/xlink" x="0px" y="0px"
	 viewBox="0 0 500 500" style="enable-background:new 0 0 500 500;" xml:space="preserve">
<g id="BACKGROUND">
	<rect style="fill:#F9FBFC;" width="500" height="500"/>
</g>
<g id="OBJECTS">
	<g>
		<g>
			<g>
				<g>
					<linearGradient id="SVGID_1_" gradientUnits="userSpaceOnUse" x1="250" y1="466.7242" x2="250" y2="426.2636">
						<stop  offset="0" style="stop-color:#FFFFFF"/>
						<stop  offset="1" style="stop-color:#C6DFF2"/>
					</linearGradient>
					<path style="fill:url(#SVGID_1_);" d="M460.775,437.747H39.224c-2.462,0-4.458-1.996-4.458-4.458l0,0
						c0-2.462,1.996-4.458,4.458-4.458h421.551c2.462,0,4.458,1.996,4.458,4.458l0,0
						C465.234,435.751,463.238,437.747,460.775,437.747z"/>
				</g>
				<g>
					
						<linearGradient id="SVGID_00000007388423577304129730000010051922838114812839_" gradientUnits="userSpaceOnUse" x1="371.6521" y1="466.7243" x2="371.6521" y2="426.2634">
						<stop  offset="0" style="stop-color:#FFFFFF"/>
						<stop  offset="1" style="stop-color:#C6DFF2"/>
					</linearGradient>
					<path style="fill:url(#SVGID_00000007388423577304129730000010051922838114812839_);" d="M294.251,443.448h154.802
						c3.176,0,5.774-2.599,5.774-5.774l0,0c0-3.176-2.598-5.774-5.774-5.774H294.251c-3.176,0-5.774,2.598-5.774,5.774l0,0
						C288.477,440.85,291.075,443.448,294.251,443.448z"/>
				</g>
				<g>
					
						<linearGradient id="SVGID_00000132804880879384226100000014957925727206981295_" gradientUnits="userSpaceOnUse" x1="203.4483" y1="466.7241" x2="203.4483" y2="426.2636">
						<stop  offset="0" style="stop-color:#FFFFFF"/>
						<stop  offset="1" style="stop-color:#C6DFF2"/>
					</linearGradient>
					<path style="fill:url(#SVGID_00000132804880879384226100000014957925727206981295_);" d="M298.943,450.483H107.954
						c-3.806,0-6.92-3.114-6.92-6.919l0,0c0-3.806,3.114-6.92,6.92-6.92h190.988c3.806,0,6.92,3.114,6.92,6.92l0,0
						C305.862,447.369,302.748,450.483,298.943,450.483z"/>
				</g>
			</g>
			<g>
				
					<linearGradient id="SVGID_00000068666199750936991950000000085933725166682526_" gradientUnits="userSpaceOnUse" x1="250" y1="475.5517" x2="250" y2="23.7778">
					<stop  offset="0" style="stop-color:#FFFFFF"/>
					<stop  offset="1" style="stop-color:#C6DFF2"/>
				</linearGradient>
				<path style="fill:url(#SVGID_00000068666199750936991950000000085933725166682526_);" d="M425.823,277.071
					c6.252-1.639,10.872-7.312,10.872-14.078v-39.026c0-8.047-6.523-14.57-14.57-14.57H409.19v-3.067
					c0-18.718-15.174-33.892-33.892-33.892h-4.851v-55.841c0-16.494-13.371-29.865-29.865-29.865H214.405
					c-16.494,0-29.865,13.371-29.865,29.865v11.987h-40.962c-11.695,0-21.175,9.48-21.175,21.175v22.679h-3.616
					c-16.198,0-29.734,11.367-33.087,26.557h-5.908c-8.047,0-14.57,6.523-14.57,14.57v39.026c0,5.882,3.493,10.937,8.511,13.238
					c-1.247,2.898-1.94,6.091-1.94,9.446v2.682c-10.941,4.635-18.617,15.472-18.617,28.102v119.702h393.647V306.06
					C446.824,292.532,438.015,281.067,425.823,277.071z"/>
			</g>
			<g>
				
					<linearGradient id="SVGID_00000170255442134341016150000016601856424935561621_" gradientUnits="userSpaceOnUse" x1="247.2631" y1="393.4994" x2="247.2631" y2="309.1221">
					<stop  offset="0" style="stop-color:#FFFFFF"/>
					<stop  offset="1" style="stop-color:#C6DFF2"/>
				</linearGradient>
				<polygon style="fill:url(#SVGID_00000170255442134341016150000016601856424935561621_);" points="425.941,348.585 
					425.941,324.362 417.225,324.362 417.225,309.074 412.145,309.074 412.145,364.596 402.675,364.596 402.675,340.373 
					397.589,340.373 397.589,335.011 381.003,335.011 381.003,371.483 372.565,371.483 372.565,347.26 372.176,347.26 
					372.176,306.849 358.702,306.849 358.702,336.117 356.6,336.117 356.6,360.341 336.522,360.341 336.522,316.158 
					319.064,316.158 319.064,348.585 312.212,348.585 312.212,324.362 303.496,324.362 303.496,309.074 298.417,309.074 
					298.417,358.887 289.791,358.887 289.791,334.937 273.689,334.937 273.689,335.011 267.274,335.011 267.274,340.488 
					266.498,340.488 266.498,365.737 258.836,365.737 258.836,347.26 258.448,347.26 258.448,306.849 244.973,306.849 
					244.973,318.286 240.283,318.286 240.283,312.245 236.079,312.245 236.079,360.341 228.958,360.341 228.958,340.407 
					222.794,340.407 222.794,316.158 205.335,316.158 205.335,353.49 202.673,353.49 202.673,314.47 191.03,314.47 191.03,353.49 
					186.953,353.49 186.953,353.981 176.062,353.981 176.062,334.937 159.96,334.937 159.96,340.488 152.769,340.488 
					152.769,365.737 135.824,365.737 135.824,335.306 133.676,335.306 133.676,318.286 126.554,318.286 126.554,312.245 
					122.35,312.245 122.35,376.879 115.229,376.879 115.229,340.407 96.938,340.407 96.938,369.992 88.945,369.992 88.945,314.47 
					77.301,314.47 77.301,353.981 61.707,353.981 61.707,374.6 55.06,374.6 55.06,377.919 55.06,391.89 168.789,391.89 
					325.738,391.89 439.466,391.89 439.466,348.585 				"/>
			</g>
			
				<linearGradient id="SVGID_00000176011610675736520920000014895267568384337560_" gradientUnits="userSpaceOnUse" x1="334.3117" y1="368.0858" x2="334.3117" y2="423.8109">
				<stop  offset="0" style="stop-color:#EFCF64"/>
				<stop  offset="0.3708" style="stop-color:#E38378"/>
				<stop  offset="1" style="stop-color:#4136EB"/>
			</linearGradient>
			<path style="fill:url(#SVGID_00000176011610675736520920000014895267568384337560_);" d="M432.661,389.995
				c0.08-0.56,0.123-1.131,0.123-1.712c0-6.655-5.395-12.049-12.049-12.049c-1.642,0-3.206,0.33-4.633,0.924
				c-0.951-5.583-5.81-9.835-11.664-9.835c-4.504,0-8.42,2.516-10.421,6.22c-9.337-4.409-20.962-3.975-30.958,1.452
				c0.604-4.444-1.585-8.811-5.471-10.942c-4.045-2.219-9.129-1.576-12.551,1.609c-0.73-1.655-5.326-11.628-16.413-15.125
				c-10.049-3.171-21.434,0.24-28.964,8.689c-5.562-3.939-12.845-4.557-18.987-1.609c-3.669,1.761-6.593,4.641-8.446,8.122
				c-3.195-6.469-9.856-10.92-17.56-10.92c-10.812,0-19.577,8.765-19.577,19.577c0,1.409,0.152,2.783,0.435,4.107
				c-10.554,10.204-12.477,28.689-2.481,43.155h156.653h10.097h38.354c2.513-3.704,3.982-8.173,3.982-12.986
				C442.132,401.005,438.402,394.21,432.661,389.995z"/>
			
				<linearGradient id="SVGID_00000145016256851243963370000017776479649082191288_" gradientUnits="userSpaceOnUse" x1="159.3495" y1="368.0858" x2="159.3495" y2="423.8109">
				<stop  offset="0" style="stop-color:#EFCF64"/>
				<stop  offset="0.3708" style="stop-color:#E38378"/>
				<stop  offset="1" style="stop-color:#4136EB"/>
			</linearGradient>
			<path style="fill:url(#SVGID_00000145016256851243963370000017776479649082191288_);" d="M257.698,389.995
				c0.08-0.56,0.123-1.131,0.123-1.712c0-6.655-5.395-12.049-12.049-12.049c-1.642,0-3.206,0.33-4.633,0.924
				c-0.951-5.583-5.81-9.835-11.664-9.835c-4.504,0-8.42,2.516-10.42,6.22c-9.337-4.409-20.962-3.975-30.958,1.452
				c0.604-4.444-1.585-8.811-5.471-10.942c-4.045-2.219-9.13-1.576-12.551,1.609c-0.73-1.655-5.326-11.628-16.413-15.125
				c-10.049-3.171-21.434,0.24-28.963,8.689c-5.562-3.939-12.845-4.557-18.987-1.609c-3.67,1.761-6.593,4.641-8.445,8.122
				c-3.195-6.469-9.856-10.92-17.56-10.92c-10.812,0-19.577,8.765-19.577,19.577c0,1.409,0.152,2.783,0.435,4.107
				c-10.555,10.204-12.477,28.689-2.481,43.155h156.653h10.097h38.354c2.513-3.704,3.982-8.173,3.982-12.986
				C267.169,401.005,263.44,394.21,257.698,389.995z"/>
			<g>
				<g>
					
						<linearGradient id="SVGID_00000157998649813089059270000008341762101404162204_" gradientUnits="userSpaceOnUse" x1="1066.0288" y1="387.6207" x2="1066.0288" y2="419.8465" gradientTransform="matrix(1 0 0 1 -1003.9055 0)">
						<stop  offset="0" style="stop-color:#4D5DEC"/>
						<stop  offset="0.327" style="stop-color:#4136EB"/>
						<stop  offset="1" style="stop-color:#420087"/>
					</linearGradient>
					<path style="fill:url(#SVGID_00000157998649813089059270000008341762101404162204_);" d="M72.717,419.846H60.712
						c0-15.39-17.411-30.505-4.284-32.138c4.671-0.584,8.003,1.811,10.378,5.53C72.717,402.469,72.717,419.846,72.717,419.846z"/>
					<g>
						<path style="fill:#5049F9;" d="M68.125,419.846h-0.768c-0.282-2.336-0.636-4.671-1.076-6.98
							c-0.669-3.228-1.496-6.416-2.591-9.519c-0.289-0.774-0.617-1.529-0.918-2.289c-0.157-0.38-0.295-0.768-0.472-1.142
							l-0.551-1.102l-0.544-1.109c-0.184-0.367-0.361-0.741-0.59-1.082l-1.292-2.106c-0.269-0.433-0.053-0.61,0.249-0.171
							l1.404,2.06c0.249,0.341,0.44,0.708,0.636,1.076l0.604,1.096l0.597,1.102c0.19,0.367,0.341,0.754,0.518,1.135
							c0.328,0.767,0.682,1.522,0.99,2.296c1.194,3.116,2.086,6.337,2.762,9.604C67.535,415.077,67.882,417.459,68.125,419.846z"/>
					</g>
				</g>
				
					<linearGradient id="SVGID_00000093177130993810923120000016670713362042437020_" gradientUnits="userSpaceOnUse" x1="1086.5977" y1="363.9331" x2="1086.5977" y2="419.8465" gradientTransform="matrix(1 0 0 1 -1003.9055 0)">
					<stop  offset="0" style="stop-color:#4D5DEC"/>
					<stop  offset="0.327" style="stop-color:#4136EB"/>
					<stop  offset="1" style="stop-color:#420087"/>
				</linearGradient>
				<path style="fill:url(#SVGID_00000093177130993810923120000016670713362042437020_);" d="M79.577,419.846H68.238
					c-1.848-17.059-1.343-59.825,23.36-55.625C110.549,367.443,80.061,392.079,79.577,419.846z"/>
				<g>
					<path style="fill:#5049F9;" d="M85.776,373.642c-1.494,1.676-2.731,3.564-3.822,5.523c-1.09,1.954-2.009,4.009-2.782,6.114
						c-0.783,2.1-1.454,4.246-2.004,6.427c-0.555,2.176-1.03,4.372-1.409,6.593c-0.783,4.428-1.257,8.916-1.555,13.414
						c-0.172,2.711-0.283,5.422-0.308,8.133h-0.773c-0.101-2.726-0.096-5.457,0-8.189c0.177-4.544,0.601-9.092,1.399-13.586
						c0.389-2.247,0.893-4.478,1.494-6.679c0.591-2.206,1.323-4.377,2.186-6.498c0.414-1.065,0.909-2.1,1.398-3.135
						c0.535-1.015,1.05-2.035,1.666-2.999c1.197-1.949,2.55-3.817,4.165-5.437C85.918,372.809,86.236,373.097,85.776,373.642z"/>
				</g>
			</g>
			<g>
				<g>
					
						<linearGradient id="SVGID_00000106850814148852670770000011007912239588961193_" gradientUnits="userSpaceOnUse" x1="144.533" y1="363.3043" x2="144.533" y2="404.7254">
						<stop  offset="0" style="stop-color:#DF697B"/>
						<stop  offset="1" style="stop-color:#9700D3"/>
					</linearGradient>
					<path style="fill:url(#SVGID_00000106850814148852670770000011007912239588961193_);" d="M155.585,363.334
						c2.219,0.724-0.306,14.521-7.576,41.391c-2.485,0-5.115,0-7.856,0c3.981-10.366,7.716-20.819,11.277-31.326
						c0.193-0.573-0.169-0.674-0.388-0.128c-4.203,10.397-8.184,20.889-11.914,31.454c-2.086,0-4.232,0-6.427,0
						C145.615,376.369,153.242,362.572,155.585,363.334z"/>
					
						<linearGradient id="SVGID_00000043444812228933673400000003688989834997432979_" gradientUnits="userSpaceOnUse" x1="145.3075" y1="372.9113" x2="145.3075" y2="404.7254">
						<stop  offset="0" style="stop-color:#ECA6B1"/>
						<stop  offset="1" style="stop-color:#BE2773"/>
					</linearGradient>
					<path style="fill:url(#SVGID_00000043444812228933673400000003688989834997432979_);" d="M151.043,373.271
						c0.22-0.546,0.581-0.445,0.388,0.128c-3.562,10.507-7.296,20.96-11.277,31.326c-0.339,0-0.681,0-1.025,0
						C142.859,394.16,146.84,383.669,151.043,373.271z"/>
				</g>
				<g>
					
						<linearGradient id="SVGID_00000175303579227078934850000007079450202326433426_" gradientUnits="userSpaceOnUse" x1="118.4846" y1="319.4622" x2="118.4846" y2="404.7254">
						<stop  offset="0" style="stop-color:#DF697B"/>
						<stop  offset="1" style="stop-color:#9700D3"/>
					</linearGradient>
					<path style="fill:url(#SVGID_00000175303579227078934850000007079450202326433426_);" d="M127.71,404.725
						c-2.805,0-5.601,0-8.364,0l0.071-2.946l0.147-5.181c0.224-6.907,0.448-13.814,0.672-20.723
						c0.457-13.82,0.914-27.645,1.372-41.465c0.035-1.102-0.344-1.086-0.413-0.019c-0.881,13.795-1.578,27.615-2.062,41.442
						c-0.242,6.913-0.417,13.829-0.519,20.744l-0.051,5.187l-0.004,2.961c-3.16,0-6.271,0-9.3,0
						c6.007-63.208,10.019-85.364,12.738-85.263C124.706,319.561,126.885,341.788,127.71,404.725z"/>
					
						<linearGradient id="SVGID_00000021832910548730149110000016081563384534923402_" gradientUnits="userSpaceOnUse" x1="120.0846" y1="333.5876" x2="120.0846" y2="404.7254">
						<stop  offset="0" style="stop-color:#ECA6B1"/>
						<stop  offset="1" style="stop-color:#BE2773"/>
					</linearGradient>
					<path style="fill:url(#SVGID_00000021832910548730149110000016081563384534923402_);" d="M121.195,334.392
						c0.069-1.067,0.448-1.084,0.413,0.019c-0.457,13.82-0.914,27.645-1.372,41.465c-0.224,6.909-0.448,13.816-0.672,20.723
						l-0.147,5.181l-0.071,2.946c-0.262,0-0.526,0-0.788,0l0.004-2.961l0.051-5.187c0.102-6.915,0.278-13.831,0.519-20.744
						C119.617,362.007,120.314,348.187,121.195,334.392z"/>
				</g>
				<g>
					
						<linearGradient id="SVGID_00000076562140614747624590000017193354231614955651_" gradientUnits="userSpaceOnUse" x1="106.3464" y1="346.1874" x2="106.3464" y2="404.7254">
						<stop  offset="0" style="stop-color:#DF697B"/>
						<stop  offset="1" style="stop-color:#9700D3"/>
					</linearGradient>
					<path style="fill:url(#SVGID_00000076562140614747624590000017193354231614955651_);" d="M112.276,404.725
						c-1.638,0-3.246,0-4.824,0c-0.193-15.141-0.857-30.289-1.818-45.417c-0.04-0.643-0.417-0.609-0.41,0.014
						c0.142,15.137,0.672,30.293,1.633,45.402c-2.219,0-4.372,0-6.44,0c0.597-35.094,2.654-58.485,4.394-58.538
						C106.65,346.133,109.14,365.648,112.276,404.725z"/>
					
						<linearGradient id="SVGID_00000008130108811500996390000014542969881797900701_" gradientUnits="userSpaceOnUse" x1="106.3376" y1="358.8407" x2="106.3376" y2="404.7254">
						<stop  offset="0" style="stop-color:#ECA6B1"/>
						<stop  offset="1" style="stop-color:#BE2773"/>
					</linearGradient>
					<path style="fill:url(#SVGID_00000008130108811500996390000014542969881797900701_);" d="M107.452,404.725
						c-0.2,0-0.397,0-0.595,0c-0.961-15.11-1.491-30.265-1.633-45.402c-0.007-0.624,0.371-0.657,0.41-0.014
						C106.595,374.437,107.258,389.584,107.452,404.725z"/>
				</g>
				<g>
					
						<linearGradient id="SVGID_00000127025160919856424570000016038590591125517991_" gradientUnits="userSpaceOnUse" x1="95.6181" y1="365.6928" x2="95.6181" y2="404.7254">
						<stop  offset="0" style="stop-color:#DF697B"/>
						<stop  offset="1" style="stop-color:#9700D3"/>
					</linearGradient>
					<path style="fill:url(#SVGID_00000127025160919856424570000016038590591125517991_);" d="M103.362,404.725
						c-1.613,0-3.169,0-4.66,0c-2.195-10.097-4.756-20.125-7.549-30.095c-0.131-0.471-0.495-0.374-0.401,0.088
						c2.059,10.063,4.429,20.08,7.134,30.007c-2.363,0-4.549,0-6.524,0c-3.559-25.65-4.394-38.659-2.501-39.025
						C90.808,365.325,95.642,378.332,103.362,404.725z"/>
					
						<linearGradient id="SVGID_00000051380388806265665030000006838807705418721198_" gradientUnits="userSpaceOnUse" x1="94.7187" y1="374.3211" x2="94.7187" y2="404.7254">
						<stop  offset="0" style="stop-color:#ECA6B1"/>
						<stop  offset="1" style="stop-color:#BE2773"/>
					</linearGradient>
					<path style="fill:url(#SVGID_00000051380388806265665030000006838807705418721198_);" d="M98.702,404.725
						c-0.275,0-0.546,0-0.817,0c-2.705-9.927-5.075-19.944-7.134-30.007c-0.093-0.462,0.271-0.559,0.401-0.088
						C93.946,384.601,96.507,394.629,98.702,404.725z"/>
				</g>
				<g>
					
						<linearGradient id="SVGID_00000162342646223824516440000011437512288213071013_" gradientUnits="userSpaceOnUse" x1="135.8802" y1="341.2079" x2="135.8802" y2="404.7254">
						<stop  offset="0" style="stop-color:#DF697B"/>
						<stop  offset="1" style="stop-color:#9700D3"/>
					</linearGradient>
					<path style="fill:url(#SVGID_00000162342646223824516440000011437512288213071013_);" d="M149.717,341.221
						c1.997,0.6-2.911,21.767-14.723,63.504c-2.346,0-4.724,0-7.117,0c6.16-16.844,12.016-33.802,17.668-50.814
						c0.282-0.848-0.084-0.937-0.391-0.124c-6.34,16.878-12.423,33.871-18.199,50.938c-1.777,0-3.562,0-5.346,0
						C138.293,361.774,147.662,340.603,149.717,341.221z"/>
					
						<linearGradient id="SVGID_00000127026815699801881700000016456292968067935903_" gradientUnits="userSpaceOnUse" x1="136.301" y1="353.2239" x2="136.301" y2="404.7254">
						<stop  offset="0" style="stop-color:#ECA6B1"/>
						<stop  offset="1" style="stop-color:#BE2773"/>
					</linearGradient>
					<path style="fill:url(#SVGID_00000127026815699801881700000016456292968067935903_);" d="M145.155,353.788
						c0.306-0.813,0.672-0.725,0.391,0.124c-5.652,17.012-11.508,33.97-17.668,50.814c-0.306,0-0.615,0-0.921,0
						C132.732,387.659,138.815,370.665,145.155,353.788z"/>
				</g>
			</g>
			<g>
				
					<linearGradient id="SVGID_00000152221764068212708110000008597093680080558743_" gradientUnits="userSpaceOnUse" x1="377.4203" y1="378.2644" x2="377.4203" y2="253.0291" gradientTransform="matrix(-1 0 0 1 618.5324 0)">
					<stop  offset="0" style="stop-color:#FFFFFF"/>
					<stop  offset="1" style="stop-color:#C6DFF2"/>
				</linearGradient>
				<polygon style="fill:url(#SVGID_00000152221764068212708110000008597093680080558743_);" points="203.47,243.356 
					218.478,228.337 254.994,264.852 265.539,254.307 278.755,303.627 229.435,290.411 239.98,279.866 				"/>
			</g>
			<g>
				
					<linearGradient id="SVGID_00000051369884465882386660000018233306039384923010_" gradientUnits="userSpaceOnUse" x1="521.7178" y1="359.8586" x2="521.7178" y2="288.8751" gradientTransform="matrix(-1 0 0 1 618.5324 0)">
					<stop  offset="0" style="stop-color:#FFFFFF"/>
					<stop  offset="1" style="stop-color:#C6DFF2"/>
				</linearGradient>
				<polygon style="fill:url(#SVGID_00000051369884465882386660000018233306039384923010_);" points="75.479,283.392 
					83.986,274.879 104.683,295.577 110.66,289.599 118.15,317.554 90.196,310.063 96.173,304.086 				"/>
			</g>
			<g>
				<g>
					
						<linearGradient id="SVGID_00000022528487317032805350000016101505532252821401_" gradientUnits="userSpaceOnUse" x1="358.9149" y1="409.2438" x2="358.9149" y2="459.4653" gradientTransform="matrix(-0.9947 0.1032 0.1032 0.9947 735.8996 -82.7363)">
						<stop  offset="0" style="stop-color:#84E4FD"/>
						<stop  offset="0.4724" style="stop-color:#6A8CFB"/>
						<stop  offset="0.8302" style="stop-color:#594FFA"/>
						<stop  offset="1" style="stop-color:#5238F9"/>
					</linearGradient>
					<path style="fill:url(#SVGID_00000022528487317032805350000016101505532252821401_);" d="M407.702,389.499
						c2.725-1.446,6.531,4.425,6.531,4.425c-1.31-4.001-5.719-14.283-1.884-16.828c3.113-2.065,6.517,1.91,7.662,4.995
						c-0.916-3.556-4.724-14.622-1.064-16.1c3.198-1.291,5.538,3.96,5.981,6.999c0.379-3.153,0.856-13.842,6.747-12.461
						c5.672,1.466,2.427,11.297,0.935,14.883c1.7-2.129,5.961-6.493,8.176-3.111c3.591,5.482-9.932,14.393-9.932,14.393
						c0,0.001,8.102-2.629,8.041,2.337c-0.087,7.026-8.252,10.616-14.255,10.996c8.583-0.75,7.753,7.163,1.649,10.263
						c-5.131,2.607-11.392,2.17-16.204-0.967C406.854,405.887,403.561,391.697,407.702,389.499z"/>
					
						<linearGradient id="SVGID_00000001643955610145269590000015044166893489673661_" gradientUnits="userSpaceOnUse" x1="341.9852" y1="437.8369" x2="383.0158" y2="437.8369" gradientTransform="matrix(-0.9947 0.1032 0.1032 0.9947 735.8996 -82.7363)">
						<stop  offset="0" style="stop-color:#5F76FA"/>
						<stop  offset="1" style="stop-color:#2C009A"/>
					</linearGradient>
					<path style="fill:url(#SVGID_00000001643955610145269590000015044166893489673661_);" d="M411,398.823
						c0.345,1.081,0.745,2.147,1.178,3.182c0.335,0.801,0.723,1.574,1.14,2.32c2.662-3.45,5.079-7.089,7.228-10.88
						c-0.68-0.97-1.337-1.973-1.913-3.005c-0.634-1.136-1.23-2.341-1.76-3.547c-0.531-1.206-1.006-2.443-1.426-3.689
						c-0.42-1.245-0.798-2.501-1.075-3.775c0.322,1.26,0.743,2.495,1.206,3.715c0.462,1.22,0.978,2.426,1.549,3.595
						c0.57,1.168,1.205,2.329,1.872,3.414c0.573,0.931,1.217,1.833,1.882,2.697c1.667-2.952,3.187-6.075,4.482-9.208
						c-0.606-1.16-1.202-2.322-1.687-3.55c-0.281-0.623-0.497-1.283-0.753-1.917c-0.216-0.656-0.455-1.304-0.655-1.955
						c-0.398-1.297-0.787-2.629-1.105-3.957c-0.318-1.327-0.602-2.661-0.799-4.007c0.242,1.334,0.571,2.651,0.932,3.957
						c0.361,1.307,0.793,2.612,1.232,3.878c0.22,0.635,0.48,1.265,0.716,1.902c0.275,0.614,0.511,1.253,0.81,1.852
						c0.472,1.072,1.032,2.082,1.605,3.08c2.432-6.278,4.242-12.538,5.544-19.139c-1.131,6.661-2.782,12.993-5.055,19.36
						c1.071-0.277,2.142-0.628,3.194-1.105c1.211-0.549,2.414-1.194,3.576-1.959c1.159-0.764,2.307-1.619,3.405-2.57
						c1.099-0.951,2.165-1.988,3.168-3.134c-0.975,1.189-2.019,2.274-3.1,3.275c-1.08,1.001-2.215,1.909-3.368,2.728
						c-1.155,0.82-2.359,1.522-3.579,2.128c-1.166,0.579-2.364,1.01-3.571,1.35c-1.332,3.238-2.737,6.332-4.301,9.465
						c1.017,0.24,2.089,0.372,3.167,0.34c1.25-0.036,2.556-0.23,3.838-0.56c1.285-0.331,2.583-0.793,3.859-1.367
						c1.276-0.574,2.546-1.251,3.779-2.071c-1.217,0.872-2.479,1.605-3.753,2.234c-1.274,0.629-2.577,1.149-3.875,1.536
						c-1.295,0.386-2.624,0.637-3.91,0.724c-1.149,0.078-2.305-0.021-3.414-0.25c-2.065,3.878-4.404,7.61-6.994,11.159
						c0.94,0.255,1.902,0.463,2.893,0.586c1.239,0.154,2.512,0.238,3.801,0.214c1.287-0.024,2.604-0.117,3.926-0.306
						c1.323-0.188,2.66-0.455,4.001-0.836c-1.343,0.437-2.686,0.761-4.019,1.005c-1.332,0.244-2.664,0.393-3.971,0.469
						c-1.309,0.076-2.606,0.043-3.876-0.065c-1.075-0.091-2.124-0.281-3.153-0.526c-3.086,4.124-6.47,8.057-10.2,11.615
						c-0.445-0.484-0.667-0.725-1.112-1.208c3.768-3.406,7.203-7.191,10.352-11.172c-0.425-0.848-0.814-1.719-1.138-2.615
						c-0.391-1.08-0.746-2.182-1.046-3.292c-0.3-1.109-0.579-2.227-0.824-3.344s-0.471-2.235-0.653-3.354
						c0.227,1.108,0.499,2.21,0.79,3.307C410.33,396.648,410.654,397.743,411,398.823z"/>
				</g>
			</g>
			<g>
				<g>
					
						<linearGradient id="SVGID_00000059310324618172130220000000659535094016584594_" gradientUnits="userSpaceOnUse" x1="567.1407" y1="387.6338" x2="567.1407" y2="427.8742" gradientTransform="matrix(-0.975 -0.222 -0.222 0.975 858.2687 111.0927)">
						<stop  offset="0" style="stop-color:#84E4FD"/>
						<stop  offset="0.4724" style="stop-color:#6A8CFB"/>
						<stop  offset="0.8302" style="stop-color:#594FFA"/>
						<stop  offset="1" style="stop-color:#5238F9"/>
					</linearGradient>
					<path style="fill:url(#SVGID_00000059310324618172130220000000659535094016584594_);" d="M201.829,381.01
						c2.44-0.396,3.815,5.039,3.815,5.039c0.037-3.373-0.661-12.309,2.903-13.252c2.893-0.766,4.452,3.127,4.527,5.763
						c0.221-2.933,0.181-12.31,3.338-12.488c2.759-0.156,3.182,4.43,2.736,6.85c1.099-2.295,4.214-10.282,8.327-7.717
						c3.926,2.573-1.067,9.195-3.123,11.532c1.838-1.177,6.194-3.391,7.004-0.255c1.313,5.083-11.241,8.362-11.241,8.362
						c0,0.001,6.824,0.092,5.499,3.843c-1.875,5.308-8.994,5.93-13.646,4.672c6.705,1.641,4.038,7.43-1.392,8.211
						c-4.564,0.656-9.201-1.287-12.044-4.906C196.966,393.224,198.122,381.611,201.829,381.01z"/>
					
						<linearGradient id="SVGID_00000087385885644510698620000006184195909585591939_" gradientUnits="userSpaceOnUse" x1="553.5764" y1="410.5446" x2="586.4501" y2="410.5446" gradientTransform="matrix(-0.975 -0.222 -0.222 0.975 858.2687 111.0927)">
						<stop  offset="0" style="stop-color:#5F76FA"/>
						<stop  offset="1" style="stop-color:#2C009A"/>
					</linearGradient>
					<path style="fill:url(#SVGID_00000087385885644510698620000006184195909585591939_);" d="M201.93,388.932
						c-0.016,0.909,0.013,1.821,0.074,2.718c0.048,0.694,0.143,1.38,0.268,2.053c2.908-1.932,5.678-4.07,8.285-6.393
						c-0.266-0.911-0.506-1.841-0.677-2.772c-0.188-1.025-0.33-2.093-0.422-3.144c-0.092-1.051-0.134-2.112-0.132-3.166
						c0.002-1.053,0.038-2.103,0.156-3.141c-0.081,1.039-0.079,2.084-0.042,3.129c0.037,1.045,0.117,2.093,0.249,3.126
						c0.132,1.033,0.314,2.077,0.541,3.072c0.195,0.854,0.451,1.704,0.733,2.531c2.025-1.81,3.982-3.788,5.771-5.832
						c-0.161-1.036-0.314-2.071-0.366-3.128c-0.053-0.545-0.047-1.102-0.077-1.648c0.005-0.553-0.01-1.106,0.007-1.652
						c0.032-1.087,0.08-2.197,0.181-3.287c0.101-1.089,0.229-2.174,0.426-3.245c-0.16,1.075-0.25,2.158-0.312,3.242
						c-0.062,1.085-0.071,2.186-0.064,3.259c0.004,0.539,0.038,1.084,0.053,1.627c0.051,0.536,0.065,1.082,0.138,1.614
						c0.082,0.935,0.247,1.845,0.425,2.75c3.461-4.136,6.447-8.42,9.134-13.092c-2.573,4.762-5.456,9.141-8.82,13.386
						c0.884,0.066,1.786,0.075,2.708-0.016c1.06-0.105,2.139-0.284,3.217-0.566c1.076-0.281,2.167-0.634,3.245-1.073
						c1.078-0.439,2.155-0.951,3.211-1.562c-1.046,0.651-2.117,1.206-3.195,1.687c-1.077,0.481-2.172,0.878-3.257,1.202
						c-1.087,0.325-2.181,0.547-3.263,0.693c-1.034,0.139-2.053,0.157-3.057,0.105c-1.844,2.114-3.707,4.099-5.7,6.073
						c0.71,0.444,1.49,0.82,2.316,1.074c0.957,0.294,1.998,0.484,3.056,0.563c1.06,0.08,2.164,0.063,3.279-0.043
						c1.116-0.107,2.254-0.294,3.4-0.598c-1.148,0.348-2.294,0.579-3.423,0.728c-1.128,0.149-2.251,0.208-3.335,0.168
						c-1.082-0.04-2.155-0.192-3.153-0.457c-0.892-0.237-1.743-0.609-2.526-1.069c-2.565,2.411-5.301,4.64-8.18,6.665
						c0.647,0.436,1.324,0.841,2.044,1.19c0.901,0.436,1.844,0.827,2.829,1.141c0.983,0.314,2.006,0.581,3.057,0.779
						c1.052,0.198,2.135,0.34,3.251,0.396c-1.131-0.014-2.234-0.114-3.308-0.272c-1.074-0.158-2.122-0.388-3.133-0.667
						c-1.013-0.279-1.988-0.639-2.924-1.047c-0.792-0.346-1.539-0.76-2.257-1.211c-3.403,2.334-6.983,4.447-10.729,6.186
						c-0.213-0.481-0.32-0.722-0.533-1.203c3.735-1.614,7.317-3.601,10.73-5.81c-0.104-0.753-0.175-1.514-0.19-2.277
						c-0.018-0.92-0.004-1.847,0.054-2.767c0.058-0.919,0.134-1.839,0.236-2.749c0.102-0.91,0.218-1.817,0.368-2.713
						c-0.113,0.899-0.19,1.805-0.252,2.712C201.982,387.11,201.946,388.024,201.93,388.932z"/>
				</g>
			</g>
			<g>
				<g>
					
						<linearGradient id="SVGID_00000168835856821259768470000017749057801730212027_" gradientUnits="userSpaceOnUse" x1="591.0582" y1="395.6343" x2="591.0582" y2="428.0402" gradientTransform="matrix(0.975 -0.222 0.222 0.975 -477.4712 111.0927)">
						<stop  offset="0" style="stop-color:#84E4FD"/>
						<stop  offset="0.4724" style="stop-color:#6A8CFB"/>
						<stop  offset="0.8302" style="stop-color:#594FFA"/>
						<stop  offset="1" style="stop-color:#5238F9"/>
					</linearGradient>
					<path style="fill:url(#SVGID_00000168835856821259768470000017749057801730212027_);" d="M200.672,380.02
						c-1.965-0.318-3.073,4.058-3.073,4.058c-0.029-2.716,0.533-9.912-2.338-10.672c-2.33-0.616-3.585,2.518-3.646,4.641
						c-0.178-2.362-0.146-9.913-2.688-10.057c-2.221-0.126-2.562,3.568-2.203,5.517c-0.885-1.848-3.393-8.28-6.706-6.214
						c-3.161,2.072,0.859,7.405,2.515,9.287c-1.48-0.948-4.988-2.731-5.641-0.205c-1.057,4.094,9.052,6.734,9.052,6.734
						c0,0-5.495,0.074-4.428,3.095c1.51,4.275,7.243,4.775,10.99,3.762c-5.4,1.322-3.251,5.984,1.121,6.613
						c3.675,0.529,7.41-1.036,9.699-3.951C204.588,389.856,203.658,380.503,200.672,380.02z"/>
					
						<linearGradient id="SVGID_00000136381450793090000130000010785073009675954305_" gradientUnits="userSpaceOnUse" x1="580.1348" y1="414.0846" x2="606.6083" y2="414.0846" gradientTransform="matrix(0.975 -0.222 0.222 0.975 -477.4712 111.0927)">
						<stop  offset="0" style="stop-color:#5F76FA"/>
						<stop  offset="1" style="stop-color:#2C009A"/>
					</linearGradient>
					<path style="fill:url(#SVGID_00000136381450793090000130000010785073009675954305_);" d="M200.591,386.4
						c0.013,0.732-0.01,1.466-0.06,2.189c-0.038,0.559-0.115,1.112-0.216,1.654c-2.342-1.556-4.573-3.278-6.672-5.148
						c0.214-0.734,0.408-1.483,0.546-2.232c0.152-0.825,0.266-1.686,0.34-2.532c0.074-0.847,0.108-1.701,0.106-2.549
						c-0.002-0.848-0.031-1.694-0.126-2.529c0.065,0.837,0.063,1.679,0.034,2.52c-0.03,0.841-0.095,1.685-0.201,2.517
						c-0.106,0.832-0.253,1.673-0.436,2.474c-0.157,0.688-0.363,1.372-0.59,2.038c-1.631-1.458-3.207-3.051-4.648-4.697
						c0.13-0.834,0.253-1.668,0.295-2.519c0.043-0.439,0.038-0.887,0.062-1.327c-0.004-0.445,0.008-0.891-0.005-1.33
						c-0.026-0.875-0.064-1.769-0.146-2.647c-0.081-0.877-0.184-1.751-0.343-2.613c0.128,0.865,0.201,1.738,0.251,2.611
						c0.05,0.873,0.057,1.76,0.051,2.625c-0.003,0.434-0.031,0.873-0.043,1.31c-0.041,0.432-0.052,0.872-0.111,1.3
						c-0.066,0.753-0.199,1.486-0.342,2.215c-2.787-3.331-5.192-6.78-7.356-10.543c2.072,3.835,4.394,7.361,7.103,10.78
						c-0.712,0.053-1.439,0.06-2.181-0.013c-0.854-0.085-1.723-0.228-2.591-0.456c-0.866-0.227-1.745-0.511-2.613-0.864
						c-0.868-0.353-1.735-0.766-2.586-1.258c0.842,0.524,1.705,0.971,2.573,1.359c0.868,0.387,1.749,0.707,2.623,0.968
						c0.876,0.262,1.757,0.44,2.628,0.558c0.832,0.112,1.654,0.127,2.462,0.085c1.485,1.702,2.985,3.301,4.59,4.891
						c-0.572,0.358-1.199,0.66-1.865,0.865c-0.771,0.237-1.609,0.389-2.461,0.453c-0.853,0.064-1.743,0.051-2.641-0.035
						c-0.899-0.086-1.815-0.236-2.738-0.482c0.924,0.28,1.847,0.466,2.756,0.587c0.909,0.12,1.813,0.168,2.686,0.135
						c0.872-0.032,1.736-0.155,2.539-0.368c0.718-0.191,1.404-0.491,2.034-0.861c2.066,1.941,4.269,3.736,6.587,5.368
						c-0.521,0.351-1.066,0.677-1.646,0.958c-0.725,0.351-1.485,0.666-2.278,0.919c-0.791,0.253-1.615,0.468-2.462,0.627
						c-0.847,0.159-1.719,0.273-2.618,0.319c0.911-0.011,1.799-0.092,2.664-0.219c0.865-0.127,1.709-0.313,2.523-0.537
						c0.816-0.225,1.601-0.514,2.355-0.843c0.638-0.279,1.24-0.612,1.818-0.975c2.741,1.88,5.623,3.581,8.64,4.981
						c0.171-0.388,0.257-0.581,0.429-0.969c-3.008-1.3-5.892-2.9-8.641-4.679c0.084-0.606,0.141-1.219,0.153-1.833
						c0.015-0.741,0.003-1.488-0.044-2.228c-0.047-0.74-0.108-1.481-0.19-2.214c-0.082-0.733-0.176-1.463-0.297-2.185
						c0.091,0.724,0.153,1.453,0.203,2.184C200.549,384.932,200.577,385.668,200.591,386.4z"/>
				</g>
			</g>
			<g>
				<g>
					
						<linearGradient id="SVGID_00000103234825599491032830000005607868987877960836_" gradientUnits="userSpaceOnUse" x1="379.0872" y1="380.2041" x2="379.0872" y2="455.0277" gradientTransform="matrix(0.9947 0.1032 -0.1032 0.9947 31.3945 -82.7363)">
						<stop  offset="0" style="stop-color:#84E4FD"/>
						<stop  offset="0.4724" style="stop-color:#6A8CFB"/>
						<stop  offset="0.8302" style="stop-color:#594FFA"/>
						<stop  offset="1" style="stop-color:#5238F9"/>
					</linearGradient>
					<path style="fill:url(#SVGID_00000103234825599491032830000005607868987877960836_);" d="M389.228,376.471
						c-4.06-2.154-9.73,6.592-9.73,6.592c1.951-5.961,8.521-21.28,2.807-25.071c-4.638-3.077-9.709,2.846-11.416,7.442
						c1.364-5.297,7.038-21.784,1.585-23.987c-4.764-1.924-8.251,5.9-8.911,10.428c-0.564-4.698-1.275-20.624-10.052-18.565
						c-8.451,2.184-3.616,16.83-1.393,22.173c-2.533-3.171-8.881-9.674-12.182-4.635c-5.35,8.167,14.797,21.444,14.797,21.444
						c0,0.001-12.072-3.917-11.98,3.482c0.13,10.468,12.294,15.817,21.239,16.382c-12.789-1.117-11.551,10.672-2.457,15.291
						c7.645,3.884,16.973,3.234,24.142-1.441C390.492,400.886,395.398,379.745,389.228,376.471z"/>
					
						<linearGradient id="SVGID_00000059269058187734887340000005209042772888685490_" gradientUnits="userSpaceOnUse" x1="353.8642" y1="422.8043" x2="414.9948" y2="422.8043" gradientTransform="matrix(0.9947 0.1032 -0.1032 0.9947 31.3945 -82.7363)">
						<stop  offset="0" style="stop-color:#5F76FA"/>
						<stop  offset="1" style="stop-color:#2C009A"/>
					</linearGradient>
					<path style="fill:url(#SVGID_00000059269058187734887340000005209042772888685490_);" d="M384.315,390.362
						c-0.515,1.611-1.111,3.198-1.755,4.741c-0.498,1.193-1.077,2.345-1.699,3.456c-3.966-5.14-7.567-10.561-10.769-16.209
						c1.013-1.445,1.992-2.94,2.85-4.477c0.944-1.692,1.832-3.488,2.623-5.285c0.791-1.796,1.498-3.64,2.124-5.496
						c0.625-1.855,1.189-3.726,1.602-5.624c-0.479,1.878-1.107,3.717-1.796,5.535c-0.689,1.818-1.458,3.615-2.307,5.356
						c-0.85,1.741-1.795,3.47-2.79,5.087c-0.854,1.387-1.813,2.731-2.803,4.019c-2.484-4.398-4.749-9.051-6.678-13.719
						c0.903-1.728,1.791-3.459,2.514-5.289c0.419-0.928,0.741-1.912,1.121-2.855c0.322-0.977,0.678-1.942,0.976-2.913
						c0.593-1.933,1.172-3.917,1.646-5.896c0.473-1.978,0.896-3.965,1.19-5.969c-0.361,1.988-0.85,3.949-1.388,5.896
						c-0.538,1.947-1.182,3.892-1.836,5.777c-0.328,0.946-0.715,1.885-1.066,2.834c-0.41,0.914-0.761,1.867-1.207,2.76
						c-0.703,1.597-1.538,3.101-2.392,4.589c-3.623-9.353-6.32-18.68-8.26-28.514c1.685,9.924,4.145,19.358,7.531,28.844
						c-1.595-0.413-3.191-0.936-4.759-1.647c-1.805-0.819-3.597-1.778-5.327-2.919c-1.726-1.138-3.437-2.412-5.073-3.828
						c-1.637-1.417-3.226-2.962-4.72-4.669c1.452,1.771,3.008,3.388,4.618,4.88c1.61,1.491,3.3,2.844,5.018,4.064
						c1.721,1.222,3.514,2.267,5.332,3.171c1.737,0.863,3.522,1.504,5.32,2.012c1.984,4.825,4.078,9.433,6.408,14.102
						c-1.516,0.358-3.113,0.553-4.719,0.507c-1.862-0.054-3.808-0.343-5.718-0.835c-1.914-0.493-3.849-1.182-5.749-2.036
						c-1.902-0.854-3.794-1.864-5.63-3.085c1.814,1.299,3.693,2.391,5.592,3.328c1.898,0.937,3.839,1.712,5.773,2.289
						c1.93,0.576,3.91,0.95,5.826,1.079c1.712,0.116,3.434-0.031,5.087-0.373c3.077,5.778,6.561,11.338,10.42,16.626
						c-1.4,0.38-2.835,0.69-4.31,0.874c-1.847,0.229-3.742,0.354-5.663,0.319c-1.918-0.035-3.879-0.175-5.849-0.456
						c-1.97-0.281-3.962-0.678-5.961-1.245c2,0.652,4.002,1.134,5.988,1.497c1.985,0.363,3.969,0.585,5.916,0.698
						c1.951,0.113,3.883,0.064,5.775-0.096c1.602-0.136,3.165-0.419,4.698-0.783c4.598,6.144,9.639,12.004,15.197,17.305
						c0.663-0.72,0.994-1.08,1.657-1.8c-5.613-5.075-10.732-10.714-15.423-16.644c0.633-1.263,1.214-2.561,1.696-3.895
						c0.582-1.609,1.111-3.25,1.558-4.904c0.447-1.652,0.863-3.319,1.228-4.982c0.365-1.663,0.702-3.329,0.973-4.997
						c-0.339,1.65-0.743,3.292-1.177,4.926C385.313,387.122,384.829,388.753,384.315,390.362z"/>
				</g>
			</g>
			<g>
				<g>
					
						<linearGradient id="SVGID_00000038391410660874228650000000506542937712448675_" gradientUnits="userSpaceOnUse" x1="1245.344" y1="367.0787" x2="1245.344" y2="406.2432" gradientTransform="matrix(1 0 0 1 -1003.9055 0)">
						<stop  offset="0" style="stop-color:#4D5DEC"/>
						<stop  offset="0.327" style="stop-color:#4136EB"/>
						<stop  offset="1" style="stop-color:#420087"/>
					</linearGradient>
					<path style="fill:url(#SVGID_00000038391410660874228650000000506542937712448675_);" d="M254.313,406.243h-14.59
						c0-18.704-21.16-37.073-5.206-39.058c5.676-0.71,9.727,2.2,12.613,6.721C254.313,385.124,254.313,406.243,254.313,406.243z"/>
					<g>
						<path style="fill:#5049F9;" d="M248.732,406.243H247.8c-0.343-2.838-0.773-5.677-1.308-8.483
							c-0.813-3.922-1.818-7.797-3.149-11.568c-0.351-0.941-0.75-1.858-1.116-2.783c-0.191-0.462-0.359-0.933-0.574-1.387
							l-0.67-1.339l-0.662-1.347c-0.223-0.447-0.438-0.901-0.717-1.315l-1.571-2.559c-0.327-0.526-0.064-0.741,0.303-0.207
							l1.706,2.503c0.303,0.415,0.534,0.861,0.773,1.307l0.734,1.331l0.725,1.339c0.231,0.447,0.415,0.917,0.63,1.379
							c0.399,0.933,0.829,1.85,1.204,2.79c1.451,3.787,2.535,7.702,3.357,11.672C248.015,400.447,248.438,403.341,248.732,406.243z"
							/>
					</g>
				</g>
				<g>
					
						<linearGradient id="SVGID_00000124126056534945661230000000008000169188862115_" gradientUnits="userSpaceOnUse" x1="760.5142" y1="348.3793" x2="760.5142" y2="406.2432" gradientTransform="matrix(-1 0 0 1 1078.3199 0)">
						<stop  offset="0" style="stop-color:#4D5DEC"/>
						<stop  offset="0.327" style="stop-color:#4136EB"/>
						<stop  offset="1" style="stop-color:#420087"/>
					</linearGradient>
					<path style="fill:url(#SVGID_00000124126056534945661230000000008000169188862115_);" d="M299.088,406.243h16.68
						c0-8.942,5.888-17.755,10.292-25.268c0.141-0.238,0.281-0.482,0.422-0.721c3.793-6.554,8.722-12.637,10.182-20.259
						c0.421-2.217,0.507-4.617-0.531-6.621c-1.105-2.138-3.353-3.506-5.686-4.104C302.661,342.149,296.853,379.247,299.088,406.243z
						"/>
					<path style="fill:#5049F9;" d="M306.258,406.243h0.715c0.061-3.781,0.458-7.561,1.069-11.287
						c0.739-4.508,1.851-8.942,3.304-13.26c2.895-8.636,7.323-16.747,13.126-23.832c0.476-0.605,0.055-0.928-0.446-0.391
						c-6.346,6.712-11.19,14.921-14.121,23.741c-1.472,4.41-2.522,8.96-3.109,13.565
						C306.314,398.584,306.087,402.42,306.258,406.243z"/>
				</g>
				
					<linearGradient id="SVGID_00000136383650318016984130000001608622770387607691_" gradientUnits="userSpaceOnUse" x1="1279.108" y1="317.9445" x2="1279.108" y2="406.2432" gradientTransform="matrix(1 0 0 1 -1003.9055 0)">
					<stop  offset="0" style="stop-color:#4D5DEC"/>
					<stop  offset="0.327" style="stop-color:#4136EB"/>
					<stop  offset="1" style="stop-color:#420087"/>
				</linearGradient>
				<path style="fill:url(#SVGID_00000136383650318016984130000001608622770387607691_);" d="M270.282,406.243h-17.907
					c-2.918-26.94-2.121-94.476,36.89-87.843C319.194,323.487,271.048,362.393,270.282,406.243z"/>
				<g>
					<path style="fill:#5049F9;" d="M280.073,333.277c-2.36,2.647-4.313,5.629-6.035,8.722c-1.722,3.086-3.173,6.33-4.393,9.655
						c-1.236,3.317-2.296,6.705-3.165,10.149c-0.877,3.436-1.626,6.904-2.224,10.412c-1.236,6.992-1.985,14.08-2.456,21.183
						c-0.271,4.281-0.447,8.563-0.486,12.844h-1.22c-0.16-4.305-0.152-8.618,0-12.932c0.279-7.175,0.949-14.359,2.208-21.454
						c0.614-3.548,1.411-7.072,2.36-10.548c0.933-3.484,2.089-6.912,3.452-10.261c0.654-1.682,1.435-3.317,2.208-4.951
						c0.845-1.602,1.658-3.213,2.631-4.736c1.89-3.077,4.026-6.027,6.577-8.587C280.296,331.962,280.798,332.416,280.073,333.277z"
						/>
				</g>
				<g>
					
						<linearGradient id="SVGID_00000008860301668249222560000005245025471448956329_" gradientUnits="userSpaceOnUse" x1="1295.4036" y1="362.0938" x2="1295.4036" y2="406.2432" gradientTransform="matrix(1 0 0 1 -1003.9055 0)">
						<stop  offset="0" style="stop-color:#4D5DEC"/>
						<stop  offset="0.327" style="stop-color:#4136EB"/>
						<stop  offset="1" style="stop-color:#420087"/>
					</linearGradient>
					<path style="fill:url(#SVGID_00000008860301668249222560000005245025471448956329_);" d="M297.855,406.243H276.89
						c0,0-5.528-44.179,18.201-44.149C316.688,362.108,302.265,389.41,297.855,406.243z"/>
					<g>
						<path style="fill:#5049F9;" d="M291.607,373.003c-3.117,9.938-4.44,20.347-5.175,30.712c-0.044,0.838-0.088,1.691-0.132,2.529
							h-1.823c0.03-0.897,0.074-1.779,0.133-2.661c0.764-10.482,2.514-20.994,6.366-30.829
							C291.298,371.988,291.871,372.223,291.607,373.003z"/>
					</g>
				</g>
			</g>
			<g>
				
					<linearGradient id="SVGID_00000034775701584148347500000002720547343788594860_" gradientUnits="userSpaceOnUse" x1="169.5023" y1="425.7618" x2="169.5023" y2="364.8518">
					<stop  offset="0" style="stop-color:#F9FBFC"/>
					<stop  offset="1" style="stop-color:#BEE1F4"/>
				</linearGradient>
				<path style="fill:url(#SVGID_00000034775701584148347500000002720547343788594860_);" d="M61.464,410.05
					c9.906-1.887,17.054,5.552,17.526,6.023c0.435-1.524,4.753-15.567,18.76-20.538c8.854-3.157,16.656-0.907,19.341,0
					c-1.778-4.79-0.835-10.124,2.431-13.934c3.52-4.1,9.217-5.77,14.515-4.209c5.987-9.253,16.982-14.043,27.795-12.12
					c10.668,1.923,19.232,10.015,21.772,20.574c3.23-4.826,9.036-7.258,14.515-6.06c4.898,1.053,8.817,4.79,10.305,9.689
					c6.677-6.967,16.801-9.58,25.981-6.64c8.178,2.572,14.425,9.166,16.724,17.346c6.571-5.191,15.416-7.153,23.64-4.564
					c12.304,3.873,20.052,16.931,17.372,30.145c-13.476,0-26.952,0-40.428,0h-16.799H46.333
					C47.82,417.743,53.917,411.465,61.464,410.05z"/>
			</g>
			<g>
				
					<linearGradient id="SVGID_00000098218604353842338490000010683197133511383736_" gradientUnits="userSpaceOnUse" x1="337.1707" y1="425.7618" x2="337.1707" y2="371.5362">
					<stop  offset="0" style="stop-color:#F9FBFC"/>
					<stop  offset="1" style="stop-color:#BEE1F4"/>
				</linearGradient>
				<path style="fill:url(#SVGID_00000098218604353842338490000010683197133511383736_);" d="M240.989,411.774
					c8.819-1.68,15.183,4.943,15.603,5.362c0.388-1.357,4.232-13.859,16.701-18.284c7.882-2.811,14.828-0.807,17.218,0
					c-1.583-4.264-0.743-9.013,2.164-12.405c3.133-3.65,8.205-5.136,12.922-3.747c5.33-8.238,15.119-12.502,24.745-10.79
					c9.497,1.712,17.122,8.916,19.383,18.317c2.875-4.297,8.044-6.461,12.922-5.395c4.361,0.937,7.85,4.264,9.174,8.626
					c5.944-6.203,14.957-8.528,23.13-5.912c7.281,2.29,12.842,8.16,14.889,15.442c5.85-4.622,13.725-6.368,21.046-4.063
					c10.953,3.448,17.852,15.073,15.465,26.837c-11.997,0-23.994,0-35.991,0h-14.956H227.518
					C228.842,418.623,234.27,413.034,240.989,411.774z"/>
			</g>
			<g>
				
					<linearGradient id="SVGID_00000039111226724124439000000010485310717027689365_" gradientUnits="userSpaceOnUse" x1="309.2662" y1="224.5794" x2="309.2662" y2="145.8516" gradientTransform="matrix(-1 0 0 1 618.5324 0)">
					<stop  offset="0" style="stop-color:#FFFFFF"/>
					<stop  offset="1" style="stop-color:#C6DFF2"/>
				</linearGradient>
				<polygon style="fill:url(#SVGID_00000039111226724124439000000010485310717027689365_);" points="285.603,139.771 
					295.038,130.329 317.993,153.284 324.622,146.655 332.93,177.659 301.925,169.352 308.554,162.723 				"/>
			</g>
			<g>
				
					<linearGradient id="SVGID_00000095299353955086423460000010437267981543444911_" gradientUnits="userSpaceOnUse" x1="225.6615" y1="282.1266" x2="225.6615" y2="239.5354" gradientTransform="matrix(-1 0 0 1 618.5324 0)">
					<stop  offset="0" style="stop-color:#FFFFFF"/>
					<stop  offset="1" style="stop-color:#C6DFF2"/>
				</linearGradient>
				<polygon style="fill:url(#SVGID_00000095299353955086423460000010437267981543444911_);" points="380.069,236.246 
					385.173,231.138 397.592,243.556 401.178,239.97 405.673,256.743 388.899,252.249 392.486,248.663 				"/>
			</g>
			<g>
				<g>
					<path style="fill:#D89A50;" d="M117.655,265.982c-0.703-4.413-4.525-7.786-9.136-7.786s-8.433,3.373-9.136,7.786h-0.117v1.467
						c0,5.11,4.143,9.253,9.253,9.253c5.11,0,9.253-4.143,9.253-9.253v-1.467H117.655z"/>
					
						<ellipse transform="matrix(0.2288 -0.9735 0.9735 0.2288 -175.2386 310.7522)" style="fill:#FBBE68;" cx="108.519" cy="265.982" rx="9.253" ry="9.253"/>
					<g>
						<path style="fill:#D89A50;" d="M110.062,261.745c1.086,0.41,1.602,1.337,1.602,2.648v0.198h-1.351
							c0-0.728-0.185-1.258-0.556-1.576l-0.583,2.423c1.695,0.265,2.582,0.927,2.582,2.331v0.106c0,1.602-1.152,2.582-3.165,2.582
							c-0.212,0-0.41-0.013-0.609-0.026l-0.357,1.509h-1.099l0.424-1.761c-1.099-0.45-1.668-1.377-1.668-2.609v-0.079h1.351
							c0,0.636,0.212,1.126,0.609,1.43l0.609-2.556c-1.748-0.291-2.476-1.02-2.476-2.264v-0.106c0-1.562,1.258-2.503,3.138-2.503
							c0.172,0,0.344,0.013,0.503,0.026l0.358-1.496h1.099L110.062,261.745z M108.115,265.28l0.622-2.622
							c-0.066-0.013-0.146-0.013-0.212-0.013h-0.053c-0.967,0-1.721,0.463-1.721,1.271v0.066
							C106.751,264.658,107.095,265.081,108.115,265.28z M110.366,267.942v-0.066c0-0.755-0.45-1.152-1.456-1.351l-0.662,2.781
							c0.106,0.013,0.212,0.013,0.318,0.013h0.053C109.651,269.319,110.366,268.816,110.366,267.942z"/>
					</g>
					<g>
						<path style="fill:#D89A50;" d="M108.519,273.953c-4.395,0-7.972-3.576-7.972-7.971c0-4.396,3.576-7.971,7.972-7.971
							c4.396,0,7.971,3.576,7.971,7.971C116.49,270.377,112.914,273.953,108.519,273.953z M108.519,258.382
							c-4.191,0-7.6,3.409-7.6,7.6c0,4.191,3.409,7.6,7.6,7.6c4.191,0,7.6-3.409,7.6-7.6
							C116.119,261.791,112.709,258.382,108.519,258.382z"/>
					</g>
					<g>
						<path style="fill:#FFD39F;" d="M108.519,273.255c-4.01,0-7.273-3.263-7.273-7.273c0-4.01,3.263-7.273,7.273-7.273
							c4.01,0,7.273,3.263,7.273,7.273C115.792,269.992,112.529,273.255,108.519,273.255z M108.519,259.08
							c-3.805,0-6.901,3.096-6.901,6.901c0,3.805,3.096,6.901,6.901,6.901c3.805,0,6.901-3.096,6.901-6.901
							C115.42,262.176,112.324,259.08,108.519,259.08z"/>
					</g>
				</g>
			</g>
			<g>
				<g>
					<path style="fill:#D89A50;" d="M311.007,179.841c-0.703-4.413-4.525-7.786-9.136-7.786c-4.611,0-8.433,3.373-9.136,7.786
						h-0.117v1.467c0,5.11,4.143,9.253,9.253,9.253c5.11,0,9.253-4.143,9.253-9.253v-1.467H311.007z"/>
					
						<ellipse transform="matrix(0.7071 -0.7071 0.7071 0.7071 -38.7508 266.129)" style="fill:#FBBE68;" cx="301.871" cy="179.841" rx="9.253" ry="9.253"/>
					<g>
						<path style="fill:#D89A50;" d="M303.413,175.604c1.086,0.41,1.602,1.337,1.602,2.648v0.199h-1.351
							c0-0.728-0.185-1.258-0.556-1.576l-0.583,2.423c1.695,0.265,2.582,0.927,2.582,2.331v0.106c0,1.602-1.152,2.582-3.165,2.582
							c-0.212,0-0.411-0.013-0.609-0.027l-0.358,1.51h-1.099l0.424-1.761c-1.099-0.45-1.668-1.377-1.668-2.609v-0.079h1.351
							c0,0.636,0.212,1.126,0.609,1.43l0.609-2.556c-1.748-0.291-2.476-1.019-2.476-2.264v-0.106c0-1.562,1.258-2.503,3.138-2.503
							c0.172,0,0.344,0.013,0.503,0.026l0.358-1.496h1.099L303.413,175.604z M301.467,179.139l0.622-2.622
							c-0.066-0.013-0.146-0.013-0.212-0.013h-0.053c-0.967,0-1.721,0.464-1.721,1.271v0.066
							C300.103,178.517,300.447,178.94,301.467,179.139z M303.718,181.801v-0.066c0-0.755-0.45-1.152-1.457-1.351l-0.662,2.781
							c0.106,0.013,0.212,0.013,0.318,0.013h0.053C303.003,183.178,303.718,182.675,303.718,181.801z"/>
					</g>
					<g>
						<path style="fill:#D89A50;" d="M301.871,187.812c-4.396,0-7.972-3.576-7.972-7.971c0-4.395,3.576-7.972,7.972-7.972
							s7.971,3.576,7.971,7.972C309.842,184.236,306.266,187.812,301.871,187.812z M301.871,172.241c-4.191,0-7.6,3.409-7.6,7.6
							c0,4.191,3.409,7.6,7.6,7.6c4.19,0,7.6-3.409,7.6-7.6C309.471,175.65,306.061,172.241,301.871,172.241z"/>
					</g>
					<g>
						<path style="fill:#FFD39F;" d="M301.871,187.114c-4.01,0-7.273-3.263-7.273-7.273c0-4.01,3.263-7.273,7.273-7.273
							c4.01,0,7.273,3.263,7.273,7.273C309.144,183.851,305.881,187.114,301.871,187.114z M301.871,172.939
							c-3.805,0-6.901,3.096-6.901,6.901c0,3.805,3.096,6.901,6.901,6.901c3.806,0,6.901-3.096,6.901-6.901
							C308.772,176.035,305.676,172.939,301.871,172.939z"/>
					</g>
				</g>
			</g>
			<g>
				<g>
					
						<linearGradient id="SVGID_00000142169855642171163900000012306779111679330182_" gradientUnits="userSpaceOnUse" x1="-7401.5586" y1="-7974.8774" x2="-7362.4414" y2="-7907.124" gradientTransform="matrix(0.8473 0.3581 -0.3581 0.8473 3508.2788 9711.5928)">
						<stop  offset="0" style="stop-color:#878CF0"/>
						<stop  offset="1" style="stop-color:#90ADE5"/>
					</linearGradient>
					<path style="fill:url(#SVGID_00000142169855642171163900000012306779111679330182_);" d="M69.483,306.874
						c-1.374,3.251-2.748,6.501-4.122,9.752c-0.652,1.543-1.304,3.085-1.956,4.628c-0.058,0.138-0.116,0.274-0.174,0.411
						c-0.03,0.072-0.061,0.144-0.092,0.217l-3.814,9.023c-1.668,3.945-3.336,7.893-5.004,11.838
						c22.048,13.539,48.512,16.223,70.561,29.762c5.054-11.957,10.107-23.911,15.161-35.868
						C117.994,323.099,91.531,320.413,69.483,306.874z M135.833,337.015c-3.903,9.233-7.805,18.466-11.708,27.699
						c-0.485,1.147-0.969,2.292-1.453,3.438c-20.382-11.238-43.759-14.549-64.138-25.785c1.462-3.458,2.924-6.917,4.387-10.377
						l3.658-8.654c1.706-4.037,3.411-8.071,5.118-12.108C92.075,322.464,115.451,325.777,135.833,337.015z"/>
					<path style="fill:#A8D2EF;" d="M71.696,311.227c-1.706,4.037-3.412,8.071-5.118,12.108l-3.658,8.654
						c-1.463,3.461-2.925,6.919-4.387,10.377c20.379,11.236,43.756,14.547,64.138,25.785c0.485-1.147,0.969-2.292,1.453-3.438
						c3.903-9.233,7.805-18.466,11.708-27.699C115.451,325.777,92.075,322.464,71.696,311.227z M131.756,335.752
						c-0.555,1.438,0.327,3.273,1.967,4.211c-3.443,8.145-6.886,16.29-10.33,24.438c-1.662-0.942-3.577-0.41-4.191,1.034
						c-18.207-9.039-38.384-12.766-56.594-21.807c0.556-1.44-0.324-3.272-1.963-4.212c1.014-2.398,2.028-4.798,3.042-7.196
						l3.625-8.575c1.22-2.887,2.442-5.777,3.662-8.664c1.667,0.955,3.572,0.414,4.185-1.037
						C93.37,322.982,113.547,326.709,131.756,335.752z"/>
					
						<linearGradient id="SVGID_00000062876618024654044180000012197349382624809866_" gradientUnits="userSpaceOnUse" x1="-7397.3633" y1="-7967.6133" x2="-7366.6338" y2="-7914.3887" gradientTransform="matrix(0.8473 0.3581 -0.3581 0.8473 3508.2788 9711.5928)">
						<stop  offset="0" style="stop-color:#9FACFF"/>
						<stop  offset="1" style="stop-color:#97C7DD"/>
					</linearGradient>
					<path style="fill:url(#SVGID_00000062876618024654044180000012197349382624809866_);" d="M75.159,313.944
						c-0.613,1.451-2.518,1.992-4.185,1.037c-1.22,2.887-2.442,5.777-3.662,8.664l-3.625,8.575
						c-1.013,2.398-2.028,4.798-3.042,7.196c1.638,0.94,2.519,2.772,1.963,4.212c18.21,9.04,38.387,12.768,56.594,21.807
						c0.614-1.445,2.529-1.976,4.191-1.034c3.444-8.148,6.887-16.293,10.33-24.438c-1.639-0.938-2.521-2.773-1.967-4.211
						C113.547,326.709,93.37,322.982,75.159,313.944z M73.627,331.172c0.757-1.79,2.444-2.752,3.781-2.184
						c1.338,0.566,1.821,2.454,1.065,4.241c-0.757,1.79-2.467,2.806-3.804,2.238C73.332,334.899,72.872,332.959,73.627,331.172z
						 M120.737,348.209c-0.757,1.79-2.441,2.753-3.778,2.185c-1.34-0.569-1.821-2.454-1.064-4.243
						c0.756-1.79,2.463-2.805,3.803-2.236C121.036,344.481,121.493,346.419,120.737,348.209z M112.939,345.006
						c-2.711,6.348-12.838,6.761-19.918,4.532c-6.961-2.194-14.328-8.76-11.594-15.163c2.71-6.352,12.838-6.761,19.918-4.532
						C108.307,332.038,115.675,338.602,112.939,345.006z"/>
					
						<linearGradient id="SVGID_00000173882990662367812830000007029779960377006218_" gradientUnits="userSpaceOnUse" x1="-7388.3301" y1="-7951.9668" x2="-7375.667" y2="-7930.0332" gradientTransform="matrix(0.8473 0.3581 -0.3581 0.8473 3508.2788 9711.5928)">
						<stop  offset="0" style="stop-color:#878CF0"/>
						<stop  offset="1" style="stop-color:#90ADE5"/>
					</linearGradient>
					<path style="fill:url(#SVGID_00000173882990662367812830000007029779960377006218_);" d="M81.427,334.376
						c-2.734,6.402,4.632,12.969,11.594,15.163c7.08,2.229,17.207,1.816,19.918-4.532c2.735-6.405-4.632-12.969-11.594-15.163
						C94.266,327.615,84.137,328.024,81.427,334.376z"/>
					<path style="fill:#A8D2EF;" d="M91.873,347.157c-4.113-1.74-7.536-4.757-8.719-7.69c-0.613-1.519-0.625-2.989-0.035-4.368
						c2.106-4.936,10.814-5.66,17.674-3.5c0.563,0.177,1.136,0.389,1.703,0.628c4.113,1.738,7.534,4.756,8.717,7.686
						c0.613,1.519,0.625,2.989,0.035,4.37c-2.108,4.936-10.816,5.66-17.674,3.5C93.012,347.607,92.44,347.396,91.873,347.157
						C91.874,347.157,91.874,347.157,91.873,347.157z"/>
					
						<linearGradient id="SVGID_00000160173412591587135900000009553901059534604464_" gradientUnits="userSpaceOnUse" x1="-7359.478" y1="-7945.5918" x2="-7355.8682" y2="-7939.3394" gradientTransform="matrix(0.8473 0.3581 -0.3581 0.8473 3508.2788 9711.5928)">
						<stop  offset="0" style="stop-color:#878CF0"/>
						<stop  offset="1" style="stop-color:#90ADE5"/>
					</linearGradient>
					<path style="fill:url(#SVGID_00000160173412591587135900000009553901059534604464_);" d="M115.895,346.151
						c-0.757,1.79-0.276,3.674,1.064,4.243c1.337,0.568,3.021-0.395,3.778-2.185s0.299-3.728-1.039-4.294
						C118.358,343.346,116.652,344.361,115.895,346.151z"/>
					<path style="fill:#A8D2EF;" d="M117.679,348.701c-0.252-0.107-0.482-0.904-0.089-1.834c0.412-0.975,1.167-1.353,1.388-1.259
						c0.219,0.093,0.472,0.92,0.064,1.885c-0.207,0.49-0.533,0.89-0.894,1.098C117.957,348.701,117.778,348.743,117.679,348.701
						L117.679,348.701z"/>
					
						<linearGradient id="SVGID_00000002349386889024035470000018438305105352228767_" gradientUnits="userSpaceOnUse" x1="-7408.1289" y1="-7942.6592" x2="-7404.519" y2="-7936.4072" gradientTransform="matrix(0.8473 0.3581 -0.3581 0.8473 3508.2788 9711.5928)">
						<stop  offset="0" style="stop-color:#878CF0"/>
						<stop  offset="1" style="stop-color:#90ADE5"/>
					</linearGradient>
					<path style="fill:url(#SVGID_00000002349386889024035470000018438305105352228767_);" d="M78.473,333.229
						c0.756-1.787,0.273-3.675-1.065-4.241c-1.337-0.568-3.024,0.394-3.781,2.184c-0.756,1.787-0.295,3.727,1.042,4.295
						C76.006,336.035,77.716,335.018,78.473,333.229z"/>
					<path style="fill:#A8D2EF;" d="M75.389,333.774c-0.189-0.08-0.504-0.853-0.067-1.885c0.391-0.924,1.117-1.313,1.367-1.207
						c0.254,0.107,0.483,0.902,0.09,1.831c-0.211,0.499-0.548,0.913-0.924,1.135C75.635,333.776,75.46,333.804,75.389,333.774
						L75.389,333.774z"/>
				</g>
			</g>
			<g>
				<g>
					
						<linearGradient id="SVGID_00000031183849528657275450000008469958632122400947_" gradientUnits="userSpaceOnUse" x1="-7401.5591" y1="-7974.8779" x2="-7362.4409" y2="-7907.1235" gradientTransform="matrix(0.7124 0.3011 -0.3011 0.7124 2986.052 8098.2446)">
						<stop  offset="0" style="stop-color:#878CF0"/>
						<stop  offset="1" style="stop-color:#90ADE5"/>
					</linearGradient>
					<path style="fill:url(#SVGID_00000031183849528657275450000008469958632122400947_);" d="M94.86,190.764
						c-1.155,2.733-2.311,5.466-3.466,8.2c-0.548,1.297-1.096,2.594-1.645,3.891c-0.049,0.116-0.098,0.231-0.146,0.346
						c-0.026,0.061-0.051,0.121-0.077,0.182l-3.207,7.586c-1.402,3.317-2.805,6.637-4.207,9.954
						c18.539,11.383,40.79,13.64,59.328,25.024c4.25-10.054,8.498-20.105,12.748-30.159
						C135.649,204.407,113.399,202.148,94.86,190.764z M150.649,216.107c-3.281,7.763-6.563,15.526-9.844,23.289
						c-0.408,0.964-0.814,1.927-1.222,2.891c-17.138-9.449-36.793-12.233-53.928-21.681c1.229-2.908,2.458-5.816,3.688-8.725
						l3.076-7.277c1.435-3.394,2.868-6.786,4.303-10.18C113.856,203.873,133.511,206.658,150.649,216.107z"/>
					<path style="fill:#A8D2EF;" d="M96.721,194.425c-1.435,3.394-2.868,6.786-4.303,10.18l-3.076,7.277
						c-1.23,2.91-2.459,5.818-3.688,8.725c17.135,9.448,36.79,12.232,53.928,21.681c0.408-0.964,0.814-1.927,1.222-2.891
						c3.281-7.763,6.563-15.526,9.844-23.289C133.511,206.658,113.856,203.873,96.721,194.425z M147.22,215.046
						c-0.466,1.209,0.275,2.752,1.654,3.541c-2.895,6.849-5.79,13.697-8.686,20.548c-1.398-0.792-3.007-0.345-3.524,0.87
						c-15.309-7.6-32.274-10.734-47.585-18.335c0.467-1.211-0.273-2.751-1.65-3.542c0.852-2.016,1.705-4.034,2.558-6.05l3.048-7.21
						c1.026-2.428,2.053-4.857,3.079-7.285c1.402,0.803,3.003,0.348,3.519-0.872C114.945,204.308,131.91,207.442,147.22,215.046z"/>
					
						<linearGradient id="SVGID_00000091703462041744084990000010768641793092222873_" gradientUnits="userSpaceOnUse" x1="-7397.3633" y1="-7967.6138" x2="-7366.6338" y2="-7914.3882" gradientTransform="matrix(0.7124 0.3011 -0.3011 0.7124 2986.052 8098.2446)">
						<stop  offset="0" style="stop-color:#9FACFF"/>
						<stop  offset="1" style="stop-color:#97C7DD"/>
					</linearGradient>
					<path style="fill:url(#SVGID_00000091703462041744084990000010768641793092222873_);" d="M99.633,196.709
						c-0.516,1.22-2.117,1.675-3.519,0.872c-1.026,2.428-2.053,4.857-3.079,7.285l-3.048,7.21c-0.852,2.016-1.705,4.034-2.558,6.05
						c1.377,0.79,2.118,2.331,1.65,3.542c15.311,7.601,32.277,10.735,47.585,18.335c0.516-1.215,2.126-1.661,3.524-0.87
						c2.896-6.851,5.791-13.699,8.686-20.548c-1.378-0.788-2.12-2.332-1.654-3.541C131.91,207.442,114.945,204.308,99.633,196.709z
						 M98.345,211.194c0.636-1.505,2.055-2.314,3.179-1.836c1.125,0.476,1.531,2.063,0.896,3.566
						c-0.636,1.505-2.074,2.359-3.198,1.882C98.097,214.328,97.71,212.697,98.345,211.194z M137.955,225.52
						c-0.636,1.505-2.052,2.315-3.176,1.837c-1.127-0.479-1.531-2.063-0.895-3.568c0.636-1.505,2.071-2.358,3.197-1.88
						C138.207,222.385,138.591,224.015,137.955,225.52z M131.399,222.827c-2.28,5.337-10.795,5.685-16.748,3.81
						c-5.853-1.844-12.047-7.366-9.748-12.749c2.278-5.34,10.795-5.685,16.748-3.811
						C127.504,211.922,133.699,217.441,131.399,222.827z"/>
					
						<linearGradient id="SVGID_00000140734980378220427470000001502332541566078860_" gradientUnits="userSpaceOnUse" x1="-7388.3301" y1="-7951.9668" x2="-7375.6665" y2="-7930.0332" gradientTransform="matrix(0.7124 0.3011 -0.3011 0.7124 2986.052 8098.2446)">
						<stop  offset="0" style="stop-color:#878CF0"/>
						<stop  offset="1" style="stop-color:#90ADE5"/>
					</linearGradient>
					<path style="fill:url(#SVGID_00000140734980378220427470000001502332541566078860_);" d="M104.903,213.888
						c-2.299,5.383,3.895,10.904,9.748,12.749c5.953,1.875,14.468,1.527,16.748-3.81c2.3-5.385-3.895-10.904-9.748-12.749
						C115.698,208.203,107.182,208.548,104.903,213.888z"/>
					<path style="fill:#A8D2EF;" d="M113.687,224.635c-3.458-1.463-6.336-4-7.331-6.466c-0.515-1.277-0.525-2.513-0.03-3.673
						c1.771-4.15,9.092-4.759,14.86-2.943c0.473,0.149,0.955,0.327,1.432,0.528c3.458,1.462,6.335,3.999,7.33,6.463
						c0.515,1.277,0.525,2.513,0.029,3.674c-1.773,4.15-9.094,4.759-14.861,2.943C114.644,225.013,114.163,224.836,113.687,224.635
						C113.687,224.635,113.687,224.635,113.687,224.635z"/>
					
						<linearGradient id="SVGID_00000078730594941852716140000005379266635172300967_" gradientUnits="userSpaceOnUse" x1="-7359.4775" y1="-7945.5923" x2="-7355.8677" y2="-7939.3394" gradientTransform="matrix(0.7124 0.3011 -0.3011 0.7124 2986.052 8098.2446)">
						<stop  offset="0" style="stop-color:#878CF0"/>
						<stop  offset="1" style="stop-color:#90ADE5"/>
					</linearGradient>
					<path style="fill:url(#SVGID_00000078730594941852716140000005379266635172300967_);" d="M133.884,223.789
						c-0.636,1.505-0.232,3.089,0.895,3.568c1.124,0.478,2.54-0.332,3.176-1.837c0.636-1.505,0.251-3.135-0.874-3.61
						C135.955,221.43,134.52,222.284,133.884,223.789z"/>
					<path style="fill:#A8D2EF;" d="M135.384,225.933c-0.212-0.09-0.405-0.76-0.075-1.542c0.346-0.82,0.981-1.137,1.167-1.059
						c0.184,0.078,0.397,0.774,0.054,1.585c-0.174,0.412-0.448,0.748-0.752,0.923C135.618,225.933,135.468,225.969,135.384,225.933
						L135.384,225.933z"/>
					
						<linearGradient id="SVGID_00000172402213324620222910000006770592347424696965_" gradientUnits="userSpaceOnUse" x1="-7408.1294" y1="-7942.6587" x2="-7404.5195" y2="-7936.4067" gradientTransform="matrix(0.7124 0.3011 -0.3011 0.7124 2986.052 8098.2446)">
						<stop  offset="0" style="stop-color:#878CF0"/>
						<stop  offset="1" style="stop-color:#90ADE5"/>
					</linearGradient>
					<path style="fill:url(#SVGID_00000172402213324620222910000006770592347424696965_);" d="M102.419,212.924
						c0.635-1.503,0.229-3.09-0.896-3.566c-1.124-0.478-2.543,0.331-3.179,1.836c-0.635,1.503-0.248,3.134,0.876,3.611
						C100.345,215.283,101.783,214.429,102.419,212.924z"/>
					<path style="fill:#A8D2EF;" d="M99.826,213.382c-0.159-0.067-0.424-0.717-0.056-1.585c0.328-0.777,0.939-1.104,1.149-1.015
						c0.214,0.09,0.406,0.759,0.076,1.54c-0.177,0.42-0.46,0.767-0.777,0.954C100.033,213.384,99.885,213.407,99.826,213.382
						L99.826,213.382z"/>
				</g>
			</g>
			<g>
				<g>
					
						<linearGradient id="SVGID_00000129165832631666785070000015251440631119977359_" gradientUnits="userSpaceOnUse" x1="-7401.5581" y1="-7974.876" x2="-7362.4419" y2="-7907.125" gradientTransform="matrix(0.4436 0.1875 -0.1875 0.4436 1985.2 5190.4712)">
						<stop  offset="0" style="stop-color:#878CF0"/>
						<stop  offset="1" style="stop-color:#90ADE5"/>
					</linearGradient>
					<path style="fill:url(#SVGID_00000129165832631666785070000015251440631119977359_);" d="M184.98,266.538
						c-0.719,1.702-1.439,3.404-2.158,5.106c-0.341,0.808-0.683,1.615-1.024,2.423c-0.03,0.072-0.061,0.143-0.091,0.215
						c-0.016,0.038-0.032,0.076-0.048,0.113l-1.997,4.724c-0.873,2.065-1.747,4.132-2.62,6.198
						c11.543,7.088,25.398,8.493,36.942,15.582c2.646-6.26,5.292-12.519,7.938-18.779
						C210.378,275.033,196.524,273.626,184.98,266.538z M219.718,282.318c-2.043,4.834-4.087,9.668-6.13,14.501
						c-0.254,0.6-0.507,1.2-0.761,1.8c-10.671-5.884-22.91-7.617-33.579-13.5c0.765-1.811,1.531-3.621,2.296-5.433l1.915-4.531
						c0.893-2.113,1.786-4.226,2.679-6.339C196.809,274.7,209.047,276.435,219.718,282.318z"/>
					<path style="fill:#A8D2EF;" d="M186.139,268.817c-0.893,2.113-1.786,4.225-2.679,6.339l-1.915,4.531
						c-0.766,1.812-1.531,3.622-2.296,5.433c10.669,5.883,22.908,7.616,33.579,13.5c0.254-0.6,0.507-1.2,0.761-1.8
						c2.043-4.834,4.087-9.668,6.13-14.501C209.047,276.435,196.809,274.7,186.139,268.817z M217.583,281.657
						c-0.29,0.753,0.171,1.714,1.03,2.205c-1.803,4.264-3.605,8.529-5.408,12.794c-0.87-0.493-1.872-0.215-2.194,0.542
						c-9.532-4.732-20.096-6.684-29.63-11.417c0.291-0.754-0.17-1.713-1.027-2.205c0.531-1.255,1.062-2.512,1.592-3.767l1.898-4.49
						c0.639-1.512,1.279-3.025,1.917-4.536c0.873,0.5,1.87,0.217,2.191-0.543C197.486,274.971,208.05,276.922,217.583,281.657z"/>
					
						<linearGradient id="SVGID_00000178189111121185840880000005415663494038408845_" gradientUnits="userSpaceOnUse" x1="-7397.3628" y1="-7967.6123" x2="-7366.6343" y2="-7914.3896" gradientTransform="matrix(0.4436 0.1875 -0.1875 0.4436 1985.2 5190.4712)">
						<stop  offset="0" style="stop-color:#9FACFF"/>
						<stop  offset="1" style="stop-color:#97C7DD"/>
					</linearGradient>
					<path style="fill:url(#SVGID_00000178189111121185840880000005415663494038408845_);" d="M187.952,270.239
						c-0.321,0.76-1.318,1.043-2.191,0.543c-0.639,1.512-1.278,3.025-1.917,4.536l-1.898,4.49c-0.531,1.255-1.062,2.512-1.592,3.767
						c0.858,0.492,1.318,1.451,1.027,2.205c9.534,4.733,20.098,6.685,29.63,11.417c0.322-0.756,1.324-1.035,2.194-0.542
						c1.803-4.266,3.606-8.53,5.408-12.794c-0.858-0.491-1.32-1.452-1.03-2.205C208.05,276.922,197.486,274.971,187.952,270.239z
						 M187.15,279.259c0.396-0.937,1.279-1.441,1.979-1.143c0.701,0.296,0.953,1.284,0.558,2.22
						c-0.396,0.937-1.292,1.469-1.991,1.172C186.996,281.21,186.755,280.195,187.15,279.259z M211.814,288.179
						c-0.396,0.937-1.278,1.441-1.978,1.144c-0.702-0.298-0.953-1.284-0.557-2.221c0.396-0.937,1.289-1.469,1.991-1.171
						C211.971,286.227,212.21,287.242,211.814,288.179z M207.732,286.502c-1.42,3.323-6.721,3.54-10.428,2.373
						c-3.644-1.148-7.501-4.586-6.07-7.938c1.419-3.325,6.721-3.54,10.428-2.373C205.307,279.712,209.164,283.149,207.732,286.502z"
						/>
					
						<linearGradient id="SVGID_00000121977323636794890230000003141148204902386579_" gradientUnits="userSpaceOnUse" x1="-7388.3296" y1="-7951.9663" x2="-7375.667" y2="-7930.0337" gradientTransform="matrix(0.4436 0.1875 -0.1875 0.4436 1985.2 5190.4712)">
						<stop  offset="0" style="stop-color:#878CF0"/>
						<stop  offset="1" style="stop-color:#90ADE5"/>
					</linearGradient>
					<path style="fill:url(#SVGID_00000121977323636794890230000003141148204902386579_);" d="M191.234,280.936
						c-1.432,3.352,2.425,6.79,6.07,7.938c3.707,1.167,9.009,0.951,10.428-2.373c1.432-3.353-2.425-6.79-6.07-7.938
						C197.955,277.397,192.652,277.611,191.234,280.936z"/>
					<path style="fill:#A8D2EF;" d="M196.703,287.628c-2.153-0.911-3.945-2.491-4.565-4.026c-0.321-0.795-0.327-1.565-0.018-2.287
						c1.103-2.584,5.661-2.963,9.253-1.832c0.295,0.093,0.595,0.203,0.892,0.329c2.153,0.91,3.944,2.49,4.564,4.024
						c0.321,0.795,0.327,1.565,0.018,2.288c-1.104,2.584-5.663,2.963-9.253,1.833C197.299,287.863,196.999,287.753,196.703,287.628
						C196.703,287.628,196.703,287.628,196.703,287.628z"/>
					
						<linearGradient id="SVGID_00000058574495402521047720000005166454619657074322_" gradientUnits="userSpaceOnUse" x1="-7359.4785" y1="-7945.5928" x2="-7355.8687" y2="-7939.3398" gradientTransform="matrix(0.4436 0.1875 -0.1875 0.4436 1985.2 5190.4712)">
						<stop  offset="0" style="stop-color:#878CF0"/>
						<stop  offset="1" style="stop-color:#90ADE5"/>
					</linearGradient>
					<path style="fill:url(#SVGID_00000058574495402521047720000005166454619657074322_);" d="M209.279,287.101
						c-0.396,0.937-0.145,1.923,0.557,2.221c0.7,0.297,1.582-0.207,1.978-1.144c0.396-0.937,0.156-1.952-0.544-2.248
						C210.569,285.633,209.675,286.164,209.279,287.101z"/>
					<path style="fill:#A8D2EF;" d="M210.213,288.436c-0.132-0.056-0.252-0.473-0.046-0.96c0.216-0.51,0.611-0.708,0.727-0.659
						c0.115,0.049,0.247,0.482,0.034,0.987c-0.108,0.257-0.279,0.466-0.468,0.575C210.359,288.436,210.265,288.458,210.213,288.436
						L210.213,288.436z"/>
					
						<linearGradient id="SVGID_00000170973438130243190860000007125371481742683807_" gradientUnits="userSpaceOnUse" x1="-7408.1284" y1="-7942.6582" x2="-7404.519" y2="-7936.4063" gradientTransform="matrix(0.4436 0.1875 -0.1875 0.4436 1985.2 5190.4712)">
						<stop  offset="0" style="stop-color:#878CF0"/>
						<stop  offset="1" style="stop-color:#90ADE5"/>
					</linearGradient>
					<path style="fill:url(#SVGID_00000170973438130243190860000007125371481742683807_);" d="M189.687,280.336
						c0.395-0.936,0.143-1.924-0.558-2.22c-0.7-0.297-1.583,0.206-1.979,1.143c-0.396,0.936-0.154,1.951,0.546,2.249
						C188.395,281.805,189.291,281.273,189.687,280.336z"/>
					<path style="fill:#A8D2EF;" d="M188.072,280.621c-0.099-0.042-0.264-0.446-0.035-0.987c0.204-0.484,0.585-0.687,0.715-0.632
						c0.133,0.056,0.253,0.472,0.047,0.959c-0.11,0.261-0.287,0.478-0.484,0.594C188.201,280.623,188.109,280.637,188.072,280.621
						L188.072,280.621z"/>
				</g>
			</g>
			<g>
				<g>
					
						<linearGradient id="SVGID_00000158729989997357965300000017662361960268968601_" gradientUnits="userSpaceOnUse" x1="-7401.5581" y1="-7974.876" x2="-7362.4419" y2="-7907.125" gradientTransform="matrix(0.4436 0.1875 -0.1875 0.4436 1958.123 5037.082)">
						<stop  offset="0" style="stop-color:#878CF0"/>
						<stop  offset="1" style="stop-color:#90ADE5"/>
					</linearGradient>
					<path style="fill:url(#SVGID_00000158729989997357965300000017662361960268968601_);" d="M157.904,113.149
						c-0.719,1.702-1.439,3.404-2.158,5.106c-0.341,0.808-0.683,1.615-1.024,2.423c-0.031,0.072-0.061,0.144-0.091,0.215
						c-0.016,0.038-0.032,0.076-0.048,0.114l-1.997,4.724c-0.873,2.066-1.747,4.132-2.62,6.198
						c11.543,7.088,25.398,8.493,36.942,15.582c2.646-6.26,5.292-12.519,7.938-18.779
						C183.301,121.644,169.447,120.237,157.904,113.149z M192.641,128.929c-2.043,4.834-4.087,9.668-6.13,14.502
						c-0.254,0.6-0.507,1.2-0.761,1.8c-10.671-5.883-22.91-7.617-33.579-13.5c0.765-1.811,1.531-3.621,2.296-5.433l1.915-4.531
						c0.893-2.113,1.786-4.226,2.68-6.339C169.732,121.311,181.97,123.046,192.641,128.929z"/>
					<path style="fill:#A8D2EF;" d="M159.062,115.428c-0.893,2.113-1.786,4.226-2.68,6.339l-1.915,4.531
						c-0.766,1.812-1.531,3.622-2.296,5.433c10.669,5.883,22.908,7.616,33.579,13.5c0.254-0.601,0.507-1.2,0.761-1.8
						c2.043-4.834,4.087-9.668,6.13-14.502C181.97,123.046,169.732,121.311,159.062,115.428z M190.507,128.268
						c-0.29,0.753,0.171,1.714,1.03,2.205c-1.803,4.264-3.605,8.529-5.408,12.794c-0.87-0.493-1.872-0.215-2.194,0.542
						c-9.532-4.732-20.096-6.684-29.63-11.417c0.291-0.754-0.17-1.713-1.027-2.205c0.531-1.255,1.062-2.512,1.592-3.767l1.898-4.49
						c0.639-1.512,1.279-3.024,1.917-4.536c0.873,0.5,1.87,0.217,2.191-0.543C170.41,121.582,180.973,123.534,190.507,128.268z"/>
					
						<linearGradient id="SVGID_00000106867059335958524780000002797996457607897759_" gradientUnits="userSpaceOnUse" x1="-7397.3623" y1="-7967.6123" x2="-7366.6343" y2="-7914.3896" gradientTransform="matrix(0.4436 0.1875 -0.1875 0.4436 1958.123 5037.082)">
						<stop  offset="0" style="stop-color:#9FACFF"/>
						<stop  offset="1" style="stop-color:#97C7DD"/>
					</linearGradient>
					<path style="fill:url(#SVGID_00000106867059335958524780000002797996457607897759_);" d="M160.875,116.85
						c-0.321,0.76-1.318,1.043-2.191,0.543c-0.639,1.512-1.278,3.024-1.917,4.536l-1.898,4.49c-0.531,1.255-1.062,2.512-1.592,3.767
						c0.858,0.492,1.318,1.451,1.027,2.205c9.534,4.733,20.098,6.684,29.63,11.417c0.322-0.756,1.324-1.035,2.194-0.542
						c1.803-4.266,3.606-8.53,5.408-12.794c-0.858-0.491-1.32-1.452-1.03-2.205C180.973,123.534,170.41,121.582,160.875,116.85z
						 M160.073,125.87c0.396-0.937,1.279-1.441,1.979-1.143c0.7,0.296,0.953,1.285,0.557,2.22c-0.396,0.937-1.291,1.469-1.991,1.172
						C159.919,127.821,159.678,126.806,160.073,125.87z M184.737,134.79c-0.396,0.937-1.278,1.441-1.978,1.144
						c-0.701-0.298-0.953-1.285-0.557-2.222c0.396-0.937,1.289-1.469,1.991-1.171C184.894,132.838,185.133,133.853,184.737,134.79z
						 M180.655,133.113c-1.42,3.323-6.721,3.54-10.428,2.373c-3.645-1.148-7.501-4.586-6.07-7.938
						c1.419-3.325,6.721-3.54,10.428-2.373C178.23,126.323,182.087,129.76,180.655,133.113z"/>
					
						<linearGradient id="SVGID_00000074434030928430262400000009693979491923229119_" gradientUnits="userSpaceOnUse" x1="-7388.3296" y1="-7951.9663" x2="-7375.667" y2="-7930.0337" gradientTransform="matrix(0.4436 0.1875 -0.1875 0.4436 1958.123 5037.082)">
						<stop  offset="0" style="stop-color:#878CF0"/>
						<stop  offset="1" style="stop-color:#90ADE5"/>
					</linearGradient>
					<path style="fill:url(#SVGID_00000074434030928430262400000009693979491923229119_);" d="M164.157,127.547
						c-1.432,3.352,2.425,6.79,6.07,7.938c3.707,1.167,9.008,0.951,10.428-2.373c1.432-3.353-2.425-6.79-6.07-7.938
						C170.878,124.008,165.576,124.222,164.157,127.547z"/>
					<path style="fill:#A8D2EF;" d="M169.626,134.239c-2.153-0.911-3.945-2.491-4.565-4.026c-0.321-0.795-0.327-1.565-0.018-2.287
						c1.102-2.584,5.661-2.963,9.253-1.832c0.295,0.093,0.595,0.203,0.892,0.329c2.153,0.91,3.944,2.49,4.564,4.024
						c0.321,0.795,0.327,1.565,0.018,2.288c-1.104,2.584-5.663,2.963-9.253,1.833C170.222,134.475,169.923,134.364,169.626,134.239
						C169.626,134.239,169.626,134.239,169.626,134.239z"/>
					
						<linearGradient id="SVGID_00000172419478659797952640000009852691900496945057_" gradientUnits="userSpaceOnUse" x1="-7359.4785" y1="-7945.5928" x2="-7355.8687" y2="-7939.3403" gradientTransform="matrix(0.4436 0.1875 -0.1875 0.4436 1958.123 5037.082)">
						<stop  offset="0" style="stop-color:#878CF0"/>
						<stop  offset="1" style="stop-color:#90ADE5"/>
					</linearGradient>
					<path style="fill:url(#SVGID_00000172419478659797952640000009852691900496945057_);" d="M182.202,133.712
						c-0.396,0.937-0.144,1.924,0.557,2.222c0.7,0.297,1.582-0.207,1.978-1.144c0.396-0.937,0.157-1.952-0.544-2.248
						C183.492,132.244,182.599,132.775,182.202,133.712z"/>
					<path style="fill:#A8D2EF;" d="M183.136,135.048c-0.132-0.056-0.252-0.473-0.047-0.96c0.216-0.51,0.611-0.708,0.727-0.659
						c0.115,0.048,0.247,0.482,0.033,0.987c-0.108,0.256-0.279,0.466-0.468,0.575C183.282,135.047,183.188,135.07,183.136,135.048
						L183.136,135.048z"/>
					
						<linearGradient id="SVGID_00000083768261315335894550000001483836500418475702_" gradientUnits="userSpaceOnUse" x1="-7408.1284" y1="-7942.6582" x2="-7404.519" y2="-7936.4063" gradientTransform="matrix(0.4436 0.1875 -0.1875 0.4436 1958.123 5037.082)">
						<stop  offset="0" style="stop-color:#878CF0"/>
						<stop  offset="1" style="stop-color:#90ADE5"/>
					</linearGradient>
					<path style="fill:url(#SVGID_00000083768261315335894550000001483836500418475702_);" d="M162.61,126.947
						c0.396-0.936,0.143-1.924-0.557-2.22c-0.7-0.297-1.583,0.206-1.979,1.143c-0.396,0.936-0.154,1.951,0.546,2.249
						C161.319,128.416,162.214,127.884,162.61,126.947z"/>
					<path style="fill:#A8D2EF;" d="M160.996,127.232c-0.099-0.042-0.264-0.446-0.035-0.987c0.204-0.484,0.585-0.687,0.715-0.632
						c0.133,0.056,0.253,0.472,0.047,0.959c-0.11,0.261-0.287,0.478-0.484,0.594C161.125,127.234,161.033,127.248,160.996,127.232
						L160.996,127.232z"/>
				</g>
			</g>
			<g>
				<g>
					<path style="fill:#D89A50;" d="M201.499,224.963c-1.382-8.673-8.894-15.302-17.956-15.302c-9.062,0-16.574,6.629-17.956,15.302
						h-0.23v2.884c0,10.044,8.142,18.186,18.186,18.186c10.044,0,18.185-8.142,18.185-18.186v-2.884H201.499z"/>
					
						<ellipse transform="matrix(0.7071 -0.7071 0.7071 0.7071 -105.314 195.6748)" style="fill:#FBBE68;" cx="183.543" cy="224.963" rx="18.185" ry="18.185"/>
					<g>
						<path style="fill:#D89A50;" d="M186.575,216.635c2.134,0.807,3.149,2.629,3.149,5.205v0.39h-2.655
							c0-1.431-0.364-2.472-1.093-3.097l-1.145,4.762c3.331,0.521,5.075,1.822,5.075,4.58v0.208c0,3.149-2.264,5.075-6.22,5.075
							c-0.416,0-0.807-0.026-1.197-0.052l-0.703,2.967h-2.16l0.833-3.461c-2.16-0.885-3.279-2.706-3.279-5.127v-0.156h2.655
							c0,1.249,0.416,2.212,1.197,2.811l1.197-5.023c-3.435-0.572-4.867-2.004-4.867-4.45v-0.208c0-3.071,2.472-4.919,6.168-4.919
							c0.338,0,0.677,0.026,0.989,0.052l0.703-2.941h2.16L186.575,216.635z M182.75,223.583l1.223-5.153
							c-0.13-0.026-0.286-0.026-0.416-0.026h-0.104c-1.9,0-3.383,0.911-3.383,2.498v0.13
							C180.069,222.36,180.746,223.193,182.75,223.583z M187.174,228.814v-0.13c0-1.483-0.885-2.264-2.863-2.655l-1.301,5.465
							c0.208,0.026,0.417,0.026,0.625,0.026h0.104C185.768,231.521,187.174,230.532,187.174,228.814z"/>
					</g>
					<g>
						<path style="fill:#D89A50;" d="M183.543,240.63c-8.639,0-15.667-7.028-15.667-15.667c0-8.639,7.028-15.667,15.667-15.667
							s15.667,7.028,15.667,15.667C199.21,233.601,192.182,240.63,183.543,240.63z M183.543,210.026
							c-8.236,0-14.937,6.701-14.937,14.937c0,8.236,6.701,14.937,14.937,14.937c8.236,0,14.937-6.701,14.937-14.937
							C198.48,216.726,191.779,210.026,183.543,210.026z"/>
					</g>
					<g>
						<path style="fill:#FFD39F;" d="M183.543,239.257c-7.882,0-14.294-6.412-14.294-14.294c0-7.882,6.412-14.294,14.294-14.294
							s14.294,6.412,14.294,14.294C197.837,232.844,191.425,239.257,183.543,239.257z M183.543,211.399
							c-7.479,0-13.564,6.085-13.564,13.564c0,7.479,6.085,13.564,13.564,13.564s13.564-6.085,13.564-13.564
							C197.107,217.484,191.023,211.399,183.543,211.399z"/>
					</g>
				</g>
			</g>
			<g>
				<g>
					<path style="fill:#D89A50;" d="M247.928,314.537c-1.089-6.833-7.007-12.055-14.146-12.055c-7.139,0-13.057,5.223-14.146,12.055
						h-0.181v2.272c0,7.913,6.414,14.327,14.327,14.327s14.327-6.414,14.327-14.327v-2.272H247.928z"/>
					<circle style="fill:#FBBE68;" cx="233.782" cy="314.537" r="14.327"/>
					<g>
						<path style="fill:#D89A50;" d="M236.171,307.976c1.681,0.636,2.481,2.071,2.481,4.101v0.307h-2.091
							c0-1.128-0.287-1.948-0.861-2.44l-0.902,3.752c2.624,0.41,3.998,1.435,3.998,3.608v0.164c0,2.481-1.784,3.998-4.9,3.998
							c-0.328,0-0.635-0.021-0.943-0.041l-0.554,2.337h-1.702l0.656-2.727c-1.702-0.697-2.583-2.132-2.583-4.039v-0.123h2.091
							c0,0.984,0.328,1.743,0.943,2.214l0.943-3.957c-2.706-0.451-3.834-1.579-3.834-3.506v-0.164c0-2.419,1.948-3.875,4.859-3.875
							c0.266,0,0.533,0.021,0.779,0.041l0.554-2.317h1.702L236.171,307.976z M233.157,313.45l0.964-4.06
							c-0.103-0.021-0.226-0.021-0.328-0.021h-0.082c-1.497,0-2.665,0.718-2.665,1.968v0.102
							C231.045,312.487,231.578,313.143,233.157,313.45z M236.642,317.571v-0.103c0-1.169-0.697-1.784-2.255-2.091l-1.025,4.305
							c0.164,0.02,0.328,0.02,0.492,0.02h0.082C235.535,319.703,236.642,318.924,236.642,317.571z"/>
					</g>
					<g>
						<path style="fill:#D89A50;" d="M233.782,326.879c-6.806,0-12.343-5.537-12.343-12.343c0-6.806,5.537-12.343,12.343-12.343
							s12.343,5.537,12.343,12.343C246.125,321.342,240.588,326.879,233.782,326.879z M233.782,302.769
							c-6.489,0-11.767,5.279-11.767,11.768c0,6.488,5.279,11.767,11.767,11.767c6.488,0,11.767-5.279,11.767-11.767
							C245.55,308.048,240.271,302.769,233.782,302.769z"/>
					</g>
					<g>
						<path style="fill:#FFD39F;" d="M233.782,325.798c-6.209,0-11.261-5.052-11.261-11.261c0-6.209,5.052-11.261,11.261-11.261
							s11.261,5.052,11.261,11.261C245.043,320.746,239.992,325.798,233.782,325.798z M233.782,303.851
							c-5.892,0-10.686,4.793-10.686,10.686c0,5.892,4.794,10.686,10.686,10.686s10.686-4.794,10.686-10.686
							C244.468,308.645,239.675,303.851,233.782,303.851z"/>
					</g>
				</g>
			</g>
			<g>
				
					<linearGradient id="SVGID_00000051384195703387742650000007808544343819757981_" gradientUnits="userSpaceOnUse" x1="521.2243" y1="104.8781" x2="521.2243" y2="165.999" gradientTransform="matrix(-1 0 0 1 762.5321 0)">
					<stop  offset="0" style="stop-color:#FFDE64"/>
					<stop  offset="1" style="stop-color:#F9925D"/>
				</linearGradient>
				<polygon style="fill:url(#SVGID_00000051384195703387742650000007808544343819757981_);" points="258.218,155.747 
					224.398,146.685 249.156,121.927 				"/>
				<g>
					
						<linearGradient id="SVGID_00000041263915947764321430000006680438737648369061_" gradientUnits="userSpaceOnUse" x1="537.179" y1="104.8782" x2="537.179" y2="165.9991" gradientTransform="matrix(-1 0 0 1 762.5321 0)">
						<stop  offset="0" style="stop-color:#FFDE64"/>
						<stop  offset="1" style="stop-color:#F9925D"/>
					</linearGradient>
					<polygon style="fill:url(#SVGID_00000041263915947764321430000006680438737648369061_);" points="206.593,114.418 
						231.631,139.456 233.822,141.647 244.113,131.348 216.884,104.119 					"/>
				</g>
			</g>
			<g>
				
					<linearGradient id="SVGID_00000081636004656588595810000002340716610375618717_" gradientUnits="userSpaceOnUse" x1="577.1473" y1="264.0489" x2="577.1473" y2="386.6075" gradientTransform="matrix(-1 0 0 1 762.5321 0)">
					<stop  offset="0" style="stop-color:#68ACFF"/>
					<stop  offset="0.2291" style="stop-color:#65A7FF"/>
					<stop  offset="0.4985" style="stop-color:#5B99FF"/>
					<stop  offset="0.787" style="stop-color:#4A81FF"/>
					<stop  offset="1" style="stop-color:#3B6BFF"/>
				</linearGradient>
				<polygon style="fill:url(#SVGID_00000081636004656588595810000002340716610375618717_);" points="219.293,366.051 
					151.477,347.879 201.122,298.235 				"/>
				<g>
					
						<linearGradient id="SVGID_00000081635719356439984780000001717249344806119611_" gradientUnits="userSpaceOnUse" x1="609.1392" y1="264.0489" x2="609.1392" y2="386.6076" gradientTransform="matrix(-1 0 0 1 762.5321 0)">
						<stop  offset="0" style="stop-color:#68ACFF"/>
						<stop  offset="0.2291" style="stop-color:#65A7FF"/>
						<stop  offset="0.4985" style="stop-color:#5B99FF"/>
						<stop  offset="0.787" style="stop-color:#4A81FF"/>
						<stop  offset="1" style="stop-color:#3B6BFF"/>
					</linearGradient>
					<polygon style="fill:url(#SVGID_00000081635719356439984780000001717249344806119611_);" points="115.775,283.178 
						165.981,333.383 170.374,337.776 191.011,317.125 136.412,262.526 					"/>
				</g>
			</g>
		</g>
		<g>
			<g>
				<g id="XMLID_1_">
					<g>
						<path style="fill:#251D5E;" d="M425.032,430.422c1.261-2.78,2.408-5.231,2.408-5.231c6.693-0.373,10.118-6.679,10.118-6.679
							l5.661,6.335c0,0-6.65,5.246-12.483,9.832h-12.827C418.755,430.952,423.341,430.479,425.032,430.422z"/>
						
							<linearGradient id="SVGID_00000152234764023354486400000015211344805889050784_" gradientUnits="userSpaceOnUse" x1="361.074" y1="309.7544" x2="428.2401" y2="426.0895">
							<stop  offset="0" style="stop-color:#582C7A"/>
							<stop  offset="1" style="stop-color:#322B7A"/>
						</linearGradient>
						<path style="fill:url(#SVGID_00000152234764023354486400000015211344805889050784_);" d="M436.039,416.82l1.519,1.691
							c0,0-3.425,6.306-10.118,6.679c0,0-50.592-52.154-52.57-55.909c-1.605-3.053-10.462-29.567-13.716-39.37
							c0,0,13.759-16.883,14.819-26.572c0.229-0.846,0.416-1.677,0.53-2.494c0,0,12.211,59.779,13.4,61.929
							C391.079,364.924,436.039,416.82,436.039,416.82z"/>
						<path style="fill:#251D5E;" d="M364.594,321.04c7.008-7.567,10.075-12.942,11.38-17.7
							c-1.061,9.688-14.819,26.572-14.819,26.572c-0.745-2.264-1.204-3.64-1.204-3.64
							C361.57,324.393,363.132,322.631,364.594,321.04z"/>
						<path style="fill:#251D5E;" d="M376.633,299.986c0,0-20.796,1.333-25.052-2.264c0.33-0.559,0.616-1.06,0.86-1.505
							c2.479,0.831,6.636,1.82,12.884,2.135c6.177,0.33,9.617,0.086,11.48-0.201C376.776,298.768,376.719,299.37,376.633,299.986z"
							/>
						<path style="fill:#251D5E;" d="M360.71,238.287c-0.057,0.588-1.863,18.101-3.841,21.598c-1.878,3.339-8.241-2.838-8.986-3.569
							v-0.014c-0.014-0.158-0.043-0.301-0.072-0.444C353.544,248.176,358.933,240.752,360.71,238.287z"/>
						<path style="fill:#F4B298;" d="M349.574,216.961c0,0,2.236,2.408,1.304,2.752c-0.932,0.33-2.264-1.562-2.264-1.562
							c0.43-0.029,0.803-0.201,0.946-0.745C349.588,217.262,349.603,217.118,349.574,216.961z"/>
						
							<linearGradient id="SVGID_00000022531902632598508630000003295572349150844320_" gradientUnits="userSpaceOnUse" x1="323.8783" y1="236.7014" x2="363.9908" y2="306.1783">
							<stop  offset="0" style="stop-color:#582C7A"/>
							<stop  offset="1" style="stop-color:#322B7A"/>
						</linearGradient>
						<path style="fill:url(#SVGID_00000022531902632598508630000003295572349150844320_);" d="M337.163,245.094
							c3.941-6.32,8.112-12.842,11.294-17.442c0.459-0.674,0.903-1.304,1.319-1.878c1.505-2.107,2.694-3.597,3.397-4.185
							c1.075-0.903,2.436-1.491,3.941-1.72c4.672-0.717,10.606,1.992,12.956,8.958c1.405,4.128,2.909,17.585,4.156,31.143
							l4.586,37.65c0,0-0.43,0.287-2.006,0.53c-1.863,0.287-5.303,0.53-11.48,0.201c-6.249-0.315-10.405-1.304-12.884-2.135
							c-2.064-0.702-2.981-1.276-2.981-1.276c1.003-5.489-0.516-31.745-1.576-38.625c0.745,0.731,7.109,6.908,8.986,3.569
							c1.978-3.497,3.784-21.011,3.841-21.598c-1.777,2.465-7.166,9.889-12.899,17.571c-6.12,8.227-12.641,16.74-15.522,19.778
							c-0.143,0.143-0.272,0.272-0.401,0.401c-0.301,0.272-0.588,0.516-0.86,0.717c-1.82,1.376-3.311,1.419-5.059,0.989
							c-2.479-0.588-37.363-13.63-37.363-13.63c-0.086-0.487-0.129-1.046-0.129-1.663c0.014-1.849,0.487-4.199,1.577-6.22
							l2.393,0.645l32.218,8.642C324.665,265.517,330.627,255.557,337.163,245.094z"/>
						
							<linearGradient id="SVGID_00000065764994923841635870000012105970589560708280_" gradientUnits="userSpaceOnUse" x1="307.7455" y1="208.935" x2="330.3714" y2="248.1243">
							<stop  offset="0" style="stop-color:#582C7A"/>
							<stop  offset="1" style="stop-color:#322B7A"/>
						</linearGradient>
						<path style="fill:url(#SVGID_00000065764994923841635870000012105970589560708280_);" d="M320.279,248.52
							c-3.956,0.487-5.676-0.588-7.825-2.494c-2.178-1.935-23.204-20.48-23.204-20.48c-0.057-0.731-0.029-1.404,0.072-2.035
							c0.559-3.841,3.554-5.991,3.554-5.991l28.162,19.907l25.912-9.23l-12.598,17.628c-3.87,0.989-10.147,2.451-13.988,2.68
							C320.337,248.505,320.308,248.52,320.279,248.52z"/>
						
							<linearGradient id="SVGID_00000008852629404178917650000011497760307329643146_" gradientUnits="userSpaceOnUse" x1="336.5221" y1="207.1259" x2="345.847" y2="223.2771">
							<stop  offset="0" style="stop-color:#5B2A8D"/>
							<stop  offset="0.1693" style="stop-color:#4B2786"/>
							<stop  offset="0.4267" style="stop-color:#38247D"/>
							<stop  offset="0.6972" style="stop-color:#2E2379"/>
							<stop  offset="1" style="stop-color:#2A2277"/>
						</linearGradient>
						<path style="fill:url(#SVGID_00000008852629404178917650000011497760307329643146_);" d="M345.332,216.129
							c0,0,2.379,1.677,1.792,2.222c-0.588,0.545-3.21-1.491-3.21-1.491s-0.788,0.401-1.835,0.301
							c-1.032-0.1-2.021-1.333-2.608-1.132c-0.602,0.186-1.147,2.064-2.523,3.554c-1.39,1.476-2.064,1.992-2.064,1.992
							c-0.917-0.029-2.365-0.043-3.268-0.244c-0.903-0.215-1.777-0.616-2.393-1.304c-0.702-0.788-1.003-1.906-0.788-2.938
							c0.373,0.186,0.788,0.301,1.204,0.344c-0.559-2.193-0.129-4.644,1.161-6.521c0.172,0.315,0.358,0.631,0.545,0.932
							c0.86-1.29,1.892-2.465,3.038-3.483c0.1,0.229,0.287,0.444,0.516,0.559c1.103-1.032,2.221-2.064,3.526-2.838
							c1.319-0.788,2.694-1.161,4.228-1.132c1.333,0.014,2.494-0.616,3.87-0.33c6.048,1.29,7.825,7.854,8.8,13.157
							c0,0-0.358,0.401-1.362,0.373c-1.003-0.043-4.371-1.448-4.371-1.448l-0.072,0.014c-0.043-0.186-0.129-0.373-0.229-0.53
							c-0.559-0.86-1.533-1.663-2.608-1.691c-0.473-0.014-0.96,0.172-1.218,0.573C345.26,215.37,345.246,215.771,345.332,216.129z"
							/>
						<path style="fill:#FFC8AF;" d="M346.679,214.495c1.075,0.029,2.049,0.831,2.608,1.691c0.1,0.158,0.186,0.344,0.229,0.53
							l0.072-0.014c0,0,3.368,1.404,4.371,1.448c1.003,0.029,1.362-0.373,1.362-0.373s0.831,0.96,1.792,2.078v0.014
							c-1.505,0.229-2.866,0.817-3.941,1.72c-0.702,0.588-1.892,2.078-3.397,4.185c-0.057-0.043-0.086-0.072-0.086-0.072
							s-2.666,2.078-2.967,2.007c-0.287-0.072-3.182-0.516-6.134-1.763c-2.938-1.247-5.704-4.371-5.704-4.371
							s0.674-0.516,2.064-1.992c1.376-1.491,1.921-3.368,2.523-3.554c0.588-0.201,1.576,1.032,2.608,1.132
							c1.046,0.1,1.835-0.301,1.835-0.301s2.623,2.035,3.21,1.491c0.588-0.545-1.792-2.222-1.792-2.222
							c-0.086-0.358-0.072-0.76,0.129-1.061C345.719,214.667,346.206,214.481,346.679,214.495z M349.56,217.405
							c-0.143,0.545-0.516,0.717-0.946,0.745c0,0,1.333,1.892,2.264,1.562c0.931-0.344-1.304-2.752-1.304-2.752
							C349.603,217.118,349.588,217.262,349.56,217.405z"/>
						<path style="fill:#251D5E;" d="M348.456,227.652c-3.182,4.601-7.352,11.122-11.294,17.442
							c-0.573,0.158-1.562,0.416-2.809,0.731l12.598-17.628L348.456,227.652z"/>
						
							<linearGradient id="SVGID_00000026122549268729753580000002650716535738015400_" gradientUnits="userSpaceOnUse" x1="321.2639" y1="315.2248" x2="374.1299" y2="406.7914">
							<stop  offset="0" style="stop-color:#582C7A"/>
							<stop  offset="1" style="stop-color:#322B7A"/>
						</linearGradient>
						<path style="fill:url(#SVGID_00000026122549268729753580000002650716535738015400_);" d="M334.626,427.57l0.115,1.963
							c0,0-8.441,0.33-12.053-0.702c0,0-5.733-65.282-4.744-74.383c0.301-2.823,26.099-43.627,33.637-56.726
							c4.257,3.597,25.052,2.264,25.052,2.264c-0.029,0.287-0.072,0.573-0.129,0.86c-0.115,0.817-0.301,1.648-0.53,2.494
							c-1.304,4.758-4.371,10.133-11.38,17.7c-1.462,1.591-3.024,3.354-4.644,5.231c-11.738,13.587-26.385,33.121-26.385,33.121
							L334.626,427.57z"/>
						<path d="M331.888,276.037c-0.373,0.358-0.659,0.616-0.86,0.717C331.301,276.553,331.587,276.31,331.888,276.037z"/>
						<path style="fill:#251D5E;" d="M322.687,428.831c3.612,1.032,12.053,0.702,12.053,0.702l0.545,8.786c0,0-23.576,0-26.543,0
							c0,0-0.287-1.849,3.196-3.855C315.421,432.457,322.687,428.831,322.687,428.831z"/>
						<path style="fill:#F9FBFC;" d="M292.877,217.52c0,0-2.995,2.15-3.554,5.991c-0.229-0.215-0.444-0.401-0.645-0.573
							c-0.817-1.347,0.287-5.16,2.852-6.363L292.877,217.52z"/>
						<path style="fill:#F9FBFC;" d="M287.144,261.92c-0.416-3.612,1.462-6.077,1.462-6.077l1.448,0.387
							c-1.089,2.021-1.562,4.371-1.577,6.22C287.975,262.25,287.531,262.078,287.144,261.92z"/>
						
							<linearGradient id="SVGID_00000069376875519928636530000005190922858181937591_" gradientUnits="userSpaceOnUse" x1="201.639" y1="212.0161" x2="292.4466" y2="212.0161">
							<stop  offset="0" style="stop-color:#DF697B"/>
							<stop  offset="1" style="stop-color:#BE2773"/>
						</linearGradient>
						<path style="fill:url(#SVGID_00000069376875519928636530000005190922858181937591_);" d="M285.797,212.647v0.014
							c0.416,2.723,0.874,5.762,1.347,8.929c2.107,13.959,4.615,30.599,5.303,35.285l-2.393-0.645l-1.448-0.387l-3.196-0.86
							c0,0-3.11-2.881-4.371-3.325c-1.261-0.444-4.443-1.634-4.672-0.889c-0.215,0.731,2.823,3.11,3.038,3.483
							c0.215,0.358-4.586,1.061-5.102,1.147c-1.376-0.201-2.795-0.416-4.228-0.631c-16.066-2.408-34.798-5.231-34.798-5.231
							l10.806-10.821l-44.444-44.429l27.13-27.13l44.429,44.444l10.821-10.821c0,0,0.545,3.626,1.362,9.044
							c-0.946-0.473-1.777-0.645-1.849-0.029C283.389,211.027,285.582,212.503,285.797,212.647z"/>
						<path style="fill:#FFC8AF;" d="M288.677,222.937c-0.975-0.86-1.534-1.347-1.534-1.347c-0.473-3.167-0.932-6.206-1.347-8.929
							v-0.014c-0.215-0.143-2.408-1.619-2.264-2.852c0.072-0.616,0.903-0.444,1.849,0.029c1.003,0.487,2.164,1.319,2.651,1.806
							c0.932,0.932,2.021,3.898,2.021,3.898l1.476,1.046C288.964,217.778,287.86,221.59,288.677,222.937z"/>
						<path style="fill:#FFC8AF;" d="M288.606,255.843c0,0-1.878,2.465-1.462,6.077c-1.104-0.444-1.734-0.702-1.734-0.702
							s-8.012,1.118-10.075,0c-2.078-1.118-4.672-4.887-5.26-6.449c1.433,0.215,2.852,0.43,4.228,0.631
							c0.516-0.086,5.317-0.788,5.102-1.147c-0.215-0.373-3.253-2.752-3.038-3.483c0.229-0.745,3.411,0.444,4.672,0.889
							c1.261,0.444,4.371,3.325,4.371,3.325L288.606,255.843z"/>
					</g>
				</g>
			</g>
			
				<linearGradient id="SVGID_00000176012838360715826920000016474051879715232938_" gradientUnits="userSpaceOnUse" x1="83.0678" y1="155.7471" x2="228.7695" y2="155.7471">
				<stop  offset="0" style="stop-color:#DF697B"/>
				<stop  offset="1" style="stop-color:#BE2773"/>
			</linearGradient>
			<polygon style="fill:url(#SVGID_00000176012838360715826920000016474051879715232938_);" points="157.256,167.157 
				107.602,117.207 83.068,140.979 136.08,194.287 201.639,194.287 228.77,167.157 			"/>
		</g>
	</g>
</g>
</svg>
