<?xml version="1.0" encoding="utf-8"?>
<!-- Generator: Adobe Illustrator 27.5.0, SVG Export Plug-In . SVG Version: 6.00 Build 0)  -->
<svg version="1.1" id="Слой_2" xmlns="http://www.w3.org/2000/svg" xmlns:xlink="http://www.w3.org/1999/xlink" x="0px" y="0px"
	 viewBox="0 0 2000 2000" style="enable-background:new 0 0 2000 2000;" xml:space="preserve">
<rect style="fill:none;" width="2000" height="2000"/>
<g>
	<path style="fill:#F7AF4D;" d="M1165.455,1496.854v-41.661h22.163C1179.949,1468.519,1172.469,1482.453,1165.455,1496.854z"/>
	<path style="fill:#F7AF4D;" d="M1193.369,1395.249h-51.715v-60.786h129.988c-19.124,23.192-49.61,62.656-78.273,110.911V1395.249z"
		/>
	<path style="fill:#F7AF4D;" d="M1194.679,1632.124l-30.533,0.903v-33.771C1174.525,1610.696,1184.953,1621.987,1194.679,1632.124z"
		/>
	<path style="fill:#F7AF4D;" d="M1458.212,1551.889l3.987,16.654c0,0-4.006,1.853-3.987,3.117
		c0.537,36.612,13.604,62.349,13.604,62.349h-169.959c4.208-15.009-4.449-38.821-14.736-39.99
		c-38.763-4.255-46.618-9.305-55.502-28.569c-1.216-2.618-8.137-10.895-10.521-11.223c-16.413-2.197-41.429-24.407-55.643-45.448
		v-7.481l62.609,43.625c0,0,134.758-186.285,136.628-191.288l7.247-19.171h47.787c0.047,22.21,2.571,98.66,31.563,217.426H1458.212z
		"/>
	<path style="fill:#F5AE9E;" d="M1219.18,1553.899c-17.768-3.881-44.046-28.569-56.951-50.171l4.021-4.63l51.481,36.659
		C1217.216,1542.631,1217.777,1548.569,1219.18,1553.899z"/>
	<path style="fill:#789ED3;" d="M1120.844,1545.168c2.202-2.05,29.945-28.535,43.188-40.861
		c13.246,22.54,41.365,48.655,59.213,51.03c2.399,0.319,9.313,8.638,10.516,11.235c8.92,19.25,16.747,24.338,55.52,28.591
		c11.172,1.226,21.042,25.365,13.938,40.405l-106.359-4.546c-19.978-19.289-71.167-71.763-75.623-76.194
		c-1.593-1.584-3.313-3.5-3.056-5.667C1118.373,1547.535,1119.643,1546.285,1120.844,1545.168z"/>
	<path style="fill:#4B3584;" d="M1543.73,1530.895l-92.441,20.994c-34.836-142.519-31.469-224.159-31.469-224.159
		s-12.298-17.862-28.569-44.187l-26.559,70.091c-1.87,5.003-136.628,191.288-136.628,191.288l-64.246-44.747
		c50.92-105.955,127.229-188.203,127.229-188.203s-1.075-109.181,5.003-174.97c8.931,0.515,20.293,1.169,25.53,1.356
		c2.244,0.093,35.115,0.514,37.5,0.514c7.575,0,15.478-0.187,23.52-0.468c2.338-0.046,22.631-1.075,30.533-1.729
		c2.338-0.187,12.297-1.122,14.963-1.402c5.19-0.562,10.38-1.216,15.523-1.965c0.842-0.14,2.759-7.247,2.759-7.247l4.162-21.275
		l3.46-6.312l14.261-2.058l2.665,8.369l3.227,10.054l0.981,3.086l30.954,180.768L1543.73,1530.895z"/>
	<g>
		<g>
			<g>
				<path style="fill:#F7AF4D;" d="M1757.416,1551.328c-37.922,71.773-126.763,99.361-198.63,61.768
					c30.065-7.995,60.085-16.365,89.823-25.623c1.823-0.562,3.927-1.356,4.629-3.133c0.28-0.702,0.28-1.45,0.327-2.197
					c0.094-4.068-4.208-31.188-11.83-36.612c-8.931-6.359-23.566-2.525-34.32,0.795c-33.854,10.38-39.745,5.563-59.617-3.554
					c-2.618-1.216-5.798-0.701-8.604,0.047c-1.964,0.514-4.161,1.122-5.704,2.478c-9.305-3.366-16.085-6.313-16.085-6.313
					l26.325-8.089l-24.175-149.112c44.233-47.366,116.288-61.253,176.373-29.552
					C1767.89,1390.245,1795.43,1479.367,1757.416,1551.328z"/>
				<path style="fill:#B16516;" d="M1665.382,1532.521c-5.014,9.493-13.74,15.292-26.165,17.402
					c-11.415,1.854-23.319,0.297-35.703-4.672l-8.105,15.348l-16.584-8.759l8.104-15.347c-11.594-7.699-19.904-16.899-24.909-27.585
					c-5.014-10.689-5.113-20.594-0.292-29.717l1.174-2.22l17.854,9.43c-3.904,7.397-3.982,15.164-0.229,23.292
					c3.749,8.133,10.644,14.85,20.68,20.151c9.863,5.21,19.097,7.092,27.69,5.639c8.603-1.447,14.689-5.565,18.274-12.347
					c4.297-8.137,3.565-16.64-2.188-25.512c-3.334-5.229-9.457-11.539-18.384-18.937c-11.603-9.753-19.621-18.246-24.069-25.483
					c-7.014-11.43-7.753-22.389-2.219-32.863c4.493-8.512,11.79-13.882,21.891-16.11c10.101-2.232,21-1.05,32.713,3.558
					l8.104-15.348l16.581,8.759l-8.105,15.347c11.722,7.461,19.754,16.347,24.082,26.676c4.334,10.334,4.16,19.932-0.529,28.809
					l-17.859-9.429c3.645-6.904,3.648-13.918,0.019-21.042c-3.635-7.123-9.954-13.063-18.973-17.826
					c-8.507-4.493-16.471-6.097-23.886-4.813c-7.425,1.283-12.896,5.252-16.411,11.909c-3.517,6.657-2.986,13.484,1.589,20.475
					c3.014,4.585,8.85,10.425,17.502,17.521c11.832,9.717,20.315,18.771,25.457,27.16
					C1670.404,1509.005,1671.373,1521.184,1665.382,1532.521z"/>
			</g>
		</g>
	</g>
	<path style="fill:#5A8DBF;" d="M940.173,508.289v151.778c0,7.575-5.705,13.794-12.765,13.794h-7.856v917.306
		c0,24.314-17.861,44.047-39.885,44.047H307.672c-22.023,0-39.885-19.732-39.885-44.047V405.935
		c0-24.361,17.862-44.093,39.885-44.093h571.996c22.023,0,39.885,19.732,39.885,44.093v88.561h7.856
		C934.468,494.495,940.173,500.667,940.173,508.289z"/>
	<path style="fill:#9FC1E6;" d="M877.678,1582.688h-568.03c-8.02,0-14.521-6.501-14.521-14.521V439.201
		c0-8.02,6.501-14.521,14.521-14.521h568.03c8.02,0,14.522,6.501,14.522,14.521v1128.965
		C892.2,1576.187,885.698,1582.688,877.678,1582.688z"/>
	<rect x="501.655" y="393.222" style="fill:#2B2150;" width="167.479" height="7.014"/>
	<path style="fill:#9FC1E6;" d="M892.199,439.18v1128.981c0,8.042-6.499,14.542-14.542,14.542H309.636
		c-7.996,0-14.496-6.5-14.496-14.542V439.18c0-7.996,6.5-14.495,14.496-14.495h568.021
		C885.699,424.685,892.199,431.184,892.199,439.18z"/>
	<g>
		<path style="fill:#F7AF4D;" d="M892.199,1400.111v104.037c-12.531,33.152-36.892,61.534-69.67,78.555H686.087
			c-0.374-0.188-0.794-0.421-1.169-0.654c-15.29-8.137-29.13-18.984-40.773-32.076c-13.373-15.01-23.847-33.012-30.299-53.445
			c-24.548-77.572,18.423-160.382,96.042-184.93c32.217-10.193,65.321-8.743,94.779,1.964c-0.234,0.562-0.515,1.169-0.748,1.823
			c-1.497,3.554-3.32,8.511-5.424,14.916c-0.468,1.403-0.936,2.899-1.403,4.489c-0.141,0.327-0.234,0.701-0.328,1.122
			c-0.795,2.665-1.637,5.518-2.478,8.557c-0.094,0.188-0.14,0.421-0.187,0.608c-0.327,1.309-0.702,2.712-1.076,4.114
			c-2.478,9.352-5.003,20.434-7.481,33.433c-1.075,5.61-2.104,11.549-3.132,17.908c-1.845,11.409-3.763,22.938-4.723,34.461
			c-0.416,4.979-1.176,9.933-1.59,14.916c-1.48,17.788-3.078,35.564-3.928,53.397c-0.241,5.065-0.528,10.128-0.702,15.197
			c-0.14,4.114-0.28,8.322-0.42,12.578l10.614,0.654l42.784,2.572l45.075-174.223
			C878.919,1371.869,886.634,1385.289,892.199,1400.111z"/>
		<path style="fill:#B16516;" d="M771.048,1531.082c0.14-4.256,0.28-8.464,0.42-12.578c0.141-3.414,0.281-6.733,0.421-10.053
			c0.093-1.73,0.187-3.461,0.28-5.145c-0.702,0.281-1.403,0.515-2.151,0.749c-10.801,3.413-20.434,3.6-28.85,0.561
			c-8.463-3.039-13.933-8.557-16.459-16.506l-19.218,6.079l0.748,2.385c3.087,9.866,10.24,16.739,21.369,20.667
			c11.129,3.928,23.52,4.488,37.127,1.637l5.237,16.552l11.689-3.693L771.048,1531.082z M734.483,1388.937
			c9.726-3.087,18.422-3.414,26.044-0.982c7.622,2.385,12.625,7.341,14.962,14.775l6.921-2.197
			c1.028-6.359,2.057-12.298,3.132-17.908c-3.039-2.712-6.686-4.863-10.941-6.593c-10.381-4.162-22.351-4.723-35.911-1.59
			l-5.237-16.553l-17.861,5.658l5.237,16.552c-11.502,5.097-20.013,12.018-25.53,20.808c-5.471,8.744-6.78,17.722-3.881,26.887
			c3.601,11.315,11.877,18.469,24.969,21.508c8.276,1.918,19.966,2.151,35.022,0.749c10.474-1.076,18.657-1.123,24.642-0.141h0.047
			c0.093-1.028,0.187-2.058,0.28-3.086c0.374-3.227,0.702-6.406,1.029-9.539c0.094-0.795,0.187-1.543,0.281-2.291
			c-7.481-0.562-16.132-0.327-25.951,0.701c-11.128,1.169-19.405,1.216-24.782,0.141c-8.183-1.637-13.42-6.032-15.711-13.233
			c-2.244-7.2-1.216-13.84,3.039-20.059C718.584,1396.371,725.318,1391.835,734.483,1388.937z"/>
		<path style="fill:#F7AF4D;" d="M309.636,1582.703c-7.996,0-14.496-6.5-14.496-14.542v-86.737
			c40.961-52.369,96.416-123.535,97.585-126.621l7.014-18.517c7.622,0.421,15.337,1.543,23.005,3.227
			c10.848,2.432,21.134,5.938,30.767,10.521c1.137,0.541-0.072,21.26-0.01,23.33c0.936,30.912,5.033,61.732,11.653,91.93
			c0.978,5.858,2.617,11.605,4.115,17.347c7.719,29.588,17.624,58.484,30.112,86.41l3.694,4.769c0.608,0.889,1.262,8.09,1.963,8.885
			H309.636z"/>
		<path style="fill:#B16516;" d="M453.558,1455.707c2.198-9.772-0.187-19.077-7.061-27.914c-6.92-8.838-17.02-15.291-30.253-19.405
			l3.741-16.927l-18.282-4.067l-3.788,16.926c-12.531-1.355-23.332,0.374-32.497,5.237c-9.165,4.816-14.776,11.877-16.834,21.275
			c-2.618,11.596,1.029,21.977,10.801,31.141c6.172,5.798,16.179,11.877,29.926,18.236c10.567,4.769,18.142,9.258,22.724,13.419
			c7.902,7.014,10.848,15.01,8.837,24.034c-1.683,7.481-6.453,13.046-14.354,16.692c-7.902,3.694-17.301,4.302-28.195,1.871
			c-11.082-2.479-19.498-7.107-25.249-13.981c-5.798-6.826-7.762-14.354-5.939-22.537l-19.732-4.349l-0.514,2.432
			c-2.245,10.053,0.467,19.592,8.089,28.569c7.668,9.024,18.096,15.664,31.328,20.059l-3.787,16.927l18.329,4.068l3.741-16.927
			c13.279,1.543,25.156-0.094,35.676-4.909c11.456-5.331,18.33-13.233,20.667-23.707c2.759-12.484-1.356-23.987-12.438-34.461
			c-7.201-6.733-17.768-13.232-31.749-19.498c-10.193-4.535-17.347-8.65-21.462-12.251c-6.266-5.564-8.603-12.017-6.967-19.357
			c1.636-7.341,5.892-12.625,12.718-15.805c6.78-3.18,14.916-3.741,24.268-1.637c9.96,2.198,17.628,6.266,23.005,12.157
			c5.377,5.938,7.248,12.672,5.564,20.293L453.558,1455.707z"/>
		<path style="fill:#313B84;" d="M688.285,1581.113c0,0-11.409,3.133-28.242,8.369l-147.57,43.626c0,0-17.815-28.756-13.466-53.07
			c0.655-3.694,1.964-6.126,3.694-7.622l0.375,1.402c8.978,13.841,37.313,12.111,42.55,4.209
			c13.794-20.714,24.735-26.605,27.307-27.728c0.374-0.188,0.561-0.234,0.561-0.234s52.369,8.51,72.756-0.981
			C677.391,1534.542,688.285,1581.113,688.285,1581.113z"/>
		<path style="fill:#F5AE9E;" d="M573.494,1550.065c-0.047,0-12.11,4.302-27.868,27.962c-5.237,7.902-33.572,9.632-42.55-4.209
			l-1.45-5.471l67.8-21.088l-0.561-3.319L573.494,1550.065z"/>
		<path style="fill:#70C2B9;" d="M569.426,1547.26l-70.045,21.789c-2.993-4.277-4.273-9.475-6.154-14.275
			c-2.096-5.351-4.307-10.651-6.331-16.03c-4.009-10.654-7.676-21.437-10.995-32.325c-6.639-21.783-11.879-43.993-15.668-66.448
			c-5.171-30.639-8.005-61.808-6.635-92.89c0.121-2.728,0.269-5.456,0.521-8.176c0,0-15.477-22.163-35.022-53.632l-26.372,69.53
			c-1.169,3.086-56.624,74.252-97.585,126.621V1343.16c15.103-18.704,25.063-29.411,25.063-29.411s0.337-71.273,0.515-80.705
			c0.458-24.375,1.122-48.862,2.946-73.177c0.771-10.05,1.497-20.098,2.665-30.113c0.722-6.203,1.563-12.441,2.806-18.563
			c0.497-3.151,1.296-6.434,2.338-9.445c2.287-6.608,7.306-0.691,14.668-1.621c41.507-25.953,30.874-29.333,30.874-29.333
			c88.256,26.466,118.813,19.171,118.813,19.171l3.554,21.977l32.45,217.38L569.426,1547.26z"/>
		<path style="fill:#4B3584;" d="M704.09,1010.661c0,0,0.514-3.04,1.449-8.323c0.328-2.011,0.748-4.302,1.216-6.92
			c0.467-2.712,0.982-5.798,1.59-9.071l-91.693-47.787l-76.403-109.555l-0.607-0.842c0,0-1.918-2.853-4.536-6.172
			c-2.198-2.806-4.863-5.985-7.248-8.043l-20.574-9.632l-0.795,2.852l-4.396,15.477c0,0.14-0.046,0.234-0.093,0.374l-1.684,5.985
			l-2.478,8.791c-0.046,0.233-0.093,0.327-0.093,0.327s-1.73-1.45-4.536-3.834c-1.169-0.982-2.478-2.104-3.928-3.32
			c-0.749-0.608-1.497-1.263-2.291-1.964c-2.478-2.104-5.284-4.489-8.183-7.014c-2.665-2.292-5.471-4.723-8.276-7.201
			c-1.122-1.029-2.292-2.058-3.46-3.039c-0.233-0.234-0.468-0.468-0.748-0.702c-1.356-1.216-2.759-2.478-4.115-3.694
			c-2.712-2.385-5.33-4.77-7.715-7.014c-0.468-0.421-0.936-0.842-1.356-1.263c-1.357-1.262-2.619-2.478-3.788-3.647
			c-0.795-0.795-1.543-1.496-2.198-2.198c-1.216-1.216-2.244-2.338-3.04-3.32c-0.654-0.654-1.122-1.262-1.496-1.777
			c-0.046-0.093-0.093-0.187-0.14-0.234c-0.094-0.14-0.187-0.233-0.234-0.374c-0.655-0.936-0.748-1.497-0.28-1.637
			c-1.73,0.468-3.507,0.655-5.377,0.468c0,0-10.614,1.309-14.963,1.542c-12.017,0.702-35.957,5.19-35.957,5.19
			c-7.201,1.215-17.721,6.687-29.691,14.401c0,0.047-0.047,0.047-0.047,0.047c-14.495,9.352-31.188,22.117-46.898,34.929
			c-2.245,1.823-4.489,3.647-6.686,5.471c-1.684,1.356-3.32,2.712-4.91,4.068c-0.748,0.608-1.543,1.263-2.292,1.871v191.569
			l6.172-4.302l3.32-2.244l35.35-24.455l0.888-0.607l-41.054-80.518c0,0,15.29-9.071,31.608-18.984
			c16.459-10.006,36.472-22.351,52.697-32.872c-16.88,51.388-30.58,128.96-30.86,129.335c-1.543,3.272-2.993,6.172-4.489,8.696
			c1.777,0.842,3.647,1.684,5.377,2.525c1.496,0.701,2.899,1.402,4.068,1.964h0.047c1.263,0.701,2.244,1.216,2.712,1.543
			c4.536,3.18,7.107,8.136,10.474,12.344c0.421,0.562,0.888,1.122,1.356,1.637l0.187,0.188c1.122,1.216,2.385,2.291,3.787,3.226
			c1.636,1.076,3.507,1.871,5.284,2.759c0.701,0.327,1.402,0.702,2.104,1.122c0.514,0.328,1.028,0.655,1.496,1.029
			c1.449,1.122,2.665,3.039,1.543,4.442c-0.467,0.514-1.216,0.841-1.917,1.075c-2.852,0.981-5.892,1.355-8.884,1.169h-0.14
			c-3.647-0.188-7.248-1.169-10.287-2.946c-0.421-0.187-0.655-0.327-0.655-0.327l9.305,13.232c1.076,1.684,1.917,3.975,2.385,6.313
			c10.427,3.414,19.826,6.219,26.325,7.855c51.761,13.046,77.853,12.905,87.672,11.97c0.327,0,0.655-0.046,0.935-0.093
			c1.076-0.094,1.917-0.188,2.525-0.327c0.047,0,0.047,0,0.094,0c0.374-0.047,0.655-0.094,0.842-0.141
			c0.093-0.047,0.14-0.047,0.233-0.047c0.141-0.047,0.187-0.047,0.187-0.047l8.65-42.737c0,0,20.34-52.603,31.468-108.854
			l44.748,48.816c6.78,7.388,75.188,42.083,107.264,58.121c1.216-4.161,2.946-8.183,5.097-11.736c1.356-2.197,3.741-5.704,6.5-9.585
			c1.637-2.245,3.414-4.63,5.144-7.014c1.589-2.198,3.179-4.349,4.676-6.313H704.09z"/>
		<path style="fill:#F5AE9E;" d="M387.208,1052.276c-0.467,0.514-1.25,0.758-1.917,1.075c-8.276,3.935-19.966-2.104-19.966-2.104
			l9.305,13.232c1.076,1.684,1.917,3.975,2.385,6.313c0.842,4.255,0.234,8.838-3.554,10.614c0,0-34.741,19.966-37.64,18.656
			c-0.982-0.42-5.003-2.758-6.032-3.46c-6.64-4.629-13.841-12.063-17.722-19.872c-2.946-5.938-5.705-24.407-6.967-33.946
			c-0.234-1.59-0.374-2.899-0.468-3.881l35.35-24.455l0.888,1.496c0,0,17.488,7.762,20.106,9.586
			c6.593,4.629,9.024,12.952,15.805,17.394c2.805,1.824,6.219,2.853,8.884,4.91C387.114,1048.956,388.33,1050.873,387.208,1052.276z
			"/>
		<path style="fill:#F5AE9E;" d="M456.037,738.761c-3.18-5.658-9.165-13.793-20.013-25.343c-0.514-0.561-0.935-1.122-1.309-1.73
			l-0.047-0.047c-0.795-1.45-1.45-2.899-1.918-4.302c-0.093-0.281-0.186-0.608-0.233-0.889c-0.702-3.647,0.094-7.481,2.432-10.521
			c4.068-5.143,12.671-6.593,17.207-1.917c1.216,1.262,2.759,3.834,4.302,6.406C456.878,710.425,455.803,724.359,456.037,738.761z"
			/>
		<path style="fill:#F5AE9E;" d="M506.583,807.169c0.561,1.87-8.837,30.954-8.837,30.954s-60.833-50.827-55.783-52.229
			c8.276-2.291,13.7-22.35,15.524-27.353c0.374,2.478,0.794,4.956,1.355,7.388c4.442,19.264,26.372,25.717,45.215,27.634
			C503.309,801.184,503.496,807.169,506.583,807.169z"/>
		<path style="fill:#F5AE9E;" d="M569.379,723.471c-1.403,4.162-8.604,9.024-11.69,11.456c-11.409,9.071-19.405,3.413-32.497,2.946
			c-10.053-0.327-24.268,2.852-34.321,2.198c-8.65-0.561-16.926-5.985-20.947-13.7c-3.133-5.892-1.871-15.711-1.917-22.07
			c0-0.561-0.281-3.086-0.374-3.787c0-0.047,0-0.047,0-0.094c-1.59-16.178,8.416-23.519,16.318-28.008
			c12.25-6.874,28.195-3.413,40.867-1.076c7.575,1.356,15.384,1.496,22.959-0.14c5.143-1.076,11.783-2.525,18.189-4.629
			c0.094,0.234,0.14,0.421,0.187,0.655c1.169,4.255,2.151,8.837,2.899,13.747c0.889,5.752,1.497,11.97,1.871,18.704
			C571.343,707.9,570.828,715.896,569.379,723.471z"/>
		<path style="fill:#EE7E94;" d="M546.405,731.688c-0.924,7.87,4.726,15.024,12.596,15.949c0.774,0.091,1.514,0.137,2.267,0.06
			c3.92-7.684,6.795-16.317,8.336-25.563c-1.999-1.64-4.477-2.717-7.25-3.042C554.484,718.167,547.334,723.777,546.405,731.688z"/>
		<path style="fill:#2B2150;" d="M529.692,732.542c-2.907,0-5.788-0.596-7.836-2.402c-1.45-1.283-1.589-3.5-0.306-4.952
			c1.278-1.445,3.493-1.589,4.95-0.306c0.82,0.719,4.324,1.091,9.566-0.338l-3.208-26.306c-0.233-1.922,1.135-3.671,3.057-3.906
			c1.929-0.204,3.671,1.134,3.907,3.057l3.258,26.731c0.391,3.228-1.724,6.238-5.032,7.153
			C535.87,731.875,532.765,732.542,529.692,732.542z"/>
		<path style="fill:#2B2150;" d="M550.962,711.954c-1.886-0.035-3.774-1.392-3.487-3.809l0.609-5.187
			c0.224-1.925,1.95-3.34,3.891-3.073c1.925,0.226,3.301,1.968,3.075,3.891c0,0-0.61,5.172-0.612,5.187
			C554.193,711.041,552.578,711.983,550.962,711.954z"/>
		<path style="fill:#2B2150;" d="M507.521,708.997c-1.886-0.032-3.774-1.384-3.489-3.806l0.612-5.188
			c0.224-1.924,1.973-3.349,3.891-3.073c1.925,0.226,3.301,1.968,3.073,3.89c0,0-0.608,5.174-0.61,5.188
			C510.754,708.081,509.138,709.024,507.521,708.997z"/>
		<path style="fill:#EE7E94;" d="M481.541,727.805c-0.925,7.882,4.714,15.023,12.597,15.949c7.883,0.926,15.023-4.714,15.949-12.596
			c0.926-7.883-4.714-15.024-12.597-15.95C489.608,714.283,482.467,719.922,481.541,727.805z"/>
		<path style="fill:#2B2150;" d="M501.189,688.402c-1.745,0-3.256-1.301-3.475-3.078c-0.237-1.922,1.128-3.671,3.05-3.909
			c5.146-0.635,10.375-0.932,15.594-0.849c1.475,0.021,3.08,1.098,3.564,2.493c0.497,1.434-0.018,3.116-1.231,4.032
			c-0.989,0.753-2.375,0.927-3.537,0.477C510.612,687.563,501.333,688.402,501.189,688.402z"/>
		<path style="fill:#2B2150;" d="M558.51,687.149c-1.924,0.021-4.025-0.962-5.9-1.358c-2.122-0.448-4.192-0.657-6.356-0.685
			c-1.924-0.025-3.543-1.486-3.591-3.422c-0.045-1.936,1.486-3.544,3.422-3.591c4.704-0.13,9.283,1.096,13.32,2.164
			c1.872,0.495,2.988,2.415,2.493,4.287C561.491,686.081,560.045,687.132,558.51,687.149z"/>
		<g>
			<g>
				<path style="fill:#A49ACB;" d="M456.534,800.346c2.351,2.385,4.701,4.769,7.139,7.014H363.032
					c1.61-1.262,3.221-2.571,4.832-3.88c1.35-1.076,2.655-2.151,4.048-3.133H456.534z"/>
				<path style="fill:#A49ACB;" d="M479.548,821.995c2.86,2.151,5.629,4.442,8.035,7.014H331.207l9.261-7.014H479.548z"/>
				<path style="fill:#A49ACB;" d="M542.835,829.009h-42.924c0.888-2.291,1.683-4.629,2.431-7.014h35.069
					C539.328,824.24,541.105,826.624,542.835,829.009z"/>
				<path style="fill:#A49ACB;" d="M551.532,850.705H304.554l9.451-7.014h233.142C548.608,846.029,550.026,848.367,551.532,850.705z
					"/>
				<path style="fill:#A49ACB;" d="M565.934,872.354H293.407c-0.321-2.338-0.595-4.676-0.916-7.014h268.728
					C562.775,867.678,564.331,870.063,565.934,872.354z"/>
				<path style="fill:#A49ACB;" d="M580.873,894.003H383.708l2.858-7.014h190.696C578.777,889.327,579.39,891.618,580.873,894.003z"
					/>
				<path style="fill:#A49ACB;" d="M333.01,908.833l-11.062,7.014h-26.494c-0.047-1.59-0.093-3.227-0.187-4.863
					c-0.047-0.701-0.093-1.449-0.14-2.15H333.01z"/>
				<path style="fill:#A49ACB;" d="M595.777,915.652l-217.571,0.047l1.487-7.014h211.448
					C592.148,910.977,595.777,915.652,595.777,915.652z"/>
				<path style="fill:#A49ACB;" d="M611.92,937.348H372.181l1.545-7.014h233.513c1.182,2.197,2.5,4.302,4.045,6.266
					C611.465,936.833,611.693,937.114,611.92,937.348z"/>
				<path style="fill:#A49ACB;" d="M308.702,958.981l-13.575-0.077c0,0-0.141-4.286,0-6.624l10.052-0.223L308.702,958.981z"/>
				<path style="fill:#A49ACB;" d="M368.651,951.983h160.156c-0.221,2.385-0.486,4.676-0.883,7.014H367.15L368.651,951.983z"/>
				<path style="fill:#A49ACB;" d="M646.405,958.997H559.64c-1.603-1.823-3.206-3.647-4.808-5.471
					c-0.445-0.514-0.89-1.028-1.335-1.543h81.245C638.436,954.555,642.354,956.893,646.405,958.997z"/>
				<path style="fill:#A49ACB;" d="M295.127,980.919c0.172-0.701,0-7.208,0-7.208l21.465-0.031l2.933,7.014L295.127,980.919z"/>
				<path style="fill:#A49ACB;" d="M364.045,973.679h159.525c-0.525,2.385-1.181,4.723-1.925,7.014H362.558L364.045,973.679z"/>
				<path style="fill:#A49ACB;" d="M689.294,980.822l-110.871-0.129c-1.876-2.244-3.717-4.629-5.522-7.014h105.193L689.294,980.822z
					"/>
				<path style="fill:#A49ACB;" d="M331.44,1002.342h-37.126c0.046-2.337,0.187-4.675,0.421-7.013h33.525L331.44,1002.342z"/>
				<path style="fill:#A49ACB;" d="M359.749,995.329h158.254c-0.396,1.262-0.792,2.524-1.188,3.787
					c-0.308,1.075-0.616,2.151-0.835,3.226H358.253L359.749,995.329z"/>
				<path style="fill:#A49ACB;" d="M709.622,998.835c0,1.637-1.07,3.04-2.526,3.413c-0.256,0.047-0.514,0.094-0.771,0.094H611.5
					c-3.339-2.151-6.507-4.489-9.632-7.013h104.458c0.685,0,1.327,0.233,1.841,0.608
					C709.066,996.544,709.622,997.62,709.622,998.835z"/>
				<path style="fill:#A49ACB;" d="M354.014,1016.977l157.306,0.18c-0.228,1.309-2.533,5.806-2.761,6.834H354.177
					C354.145,1022.448,354.046,1017.773,354.014,1016.977z"/>
				<path style="fill:#A49ACB;" d="M709.622,1020.484c0,1.964-1.436,3.507-3.253,3.507h-53.015
					c-0.465-0.327-0.887-0.607-1.352-0.889c-3.591-2.291-7.35-4.255-11.152-6.125h65.519
					C708.186,1016.977,709.622,1018.567,709.622,1020.484z"/>
				<path style="fill:#A49ACB;" d="M372.766,1038.674h130.576c-0.539,2.338-1.078,4.676-1.645,7.014H375.624
					C375.652,1044.425,372.794,1040.638,372.766,1038.674z"/>
				<path style="fill:#A49ACB;" d="M498.056,1060.322c-0.435,2.338-0.869,4.676-1.222,7.014H379.67l-4.046-7.014H498.056z"/>
			</g>
		</g>
	</g>
	<path style="fill:#F7AF4D;" d="M562.365,623.174c-50.827-76.59-130.596-20.106-126.341-0.608
		c-14.355,5.798-44.42,27.681-23.052,80.799c5.377,13.326,22.163,38.388,43.532,46.337c0.421,5.518,1.169,10.988,2.338,16.226
		c5.471,23.66,37.267,27.962,57.373,28.382c28.195,0.562,48.161-24.127,50.733-50.452c0.561-5.939,1.917-14.588,2.572-20.807
		c-1.029,4.255-8.65,9.352-11.83,11.877c-11.409,9.071-19.405,3.413-32.497,2.946c-10.053-0.327-24.268,2.852-34.321,2.198
		c-8.65-0.561-16.926-5.985-20.947-13.7c-3.133-5.892-1.871-15.711-1.917-22.07c0-0.561-0.281-3.086-0.374-3.787
		c0-0.047,0-0.047,0-0.094c-1.59-16.178,8.416-23.519,16.318-28.008c12.25-6.874,28.195-3.413,40.867-1.076
		c7.575,1.356,15.384,1.496,22.959-0.14c5.284-1.122,12.157-2.619,18.704-4.816c-0.374,0.702,6.079,33.947,4.582,48.348
		c1.31-1.309,2.479-2.853,3.367-4.489c1.823-3.273,2.712-6.92,3.46-10.567c2.759-13.279,3.975-26.886,3.647-40.446
		c-0.328,0.187,2.384-2.245,3.6-3.834C592.291,646.039,595.844,618.452,562.365,623.174z M456.037,738.761
		c-3.18-5.658-9.165-13.793-20.013-25.343c-4.442-4.769-5.097-12.344-1.075-17.488c4.068-5.143,12.671-6.593,17.207-1.917
		c1.216,1.262,2.759,3.834,4.302,6.406C456.878,710.425,455.803,724.359,456.037,738.761z"/>
	<path style="fill:#2B2150;" d="M520.82,758.375c-1.895-0.008-3.787-0.254-5.614-0.771c-3.792-1.071-7.279-3.333-9.605-6.514
		c-0.698-0.955-1.309-2.05-1.313-3.233c-0.009-2.568,2.949-4.344,5.237-2.919c1.01,0.628,1.614,1.722,2.371,2.64
		c3.714,4.511,10.214,4.404,15.249,2.559c2.785-1.02,3.564-2.86,5.515-4.803c2.408-2.397,6.014,0.339,5.604,3.311
		c-0.22,1.598-1.231,2.979-2.38,4.11c-2.456,2.415-5.657,3.985-8.992,4.847C524.913,758.114,522.864,758.384,520.82,758.375z"/>
	<path style="fill:#2BB19E;" d="M1118.275,1609.309l-59.29,9.819c-7.481,1.216-15.009-1.73-20.62-7.481
		c-5.798-5.892-13.186-10.567-20.574-14.215l1.871,28.195l-17.581,2.946l-10.988-41.241c-16.424-6.968-5.972-38.572,2.15-48.441
		c6.687,9.445,26.84,20.152,34.882,22.443c30.112,8.65,34.929,0.795,27.354-9.959c17.769,17.675,35.21,24.454,47.086,26.933
		c9.586,2.058,17.207,10.146,19.592,20.48l0.654,2.992C1123.652,1605.287,1121.549,1608.748,1118.275,1609.309z"/>
	<path style="fill:#F5AE9E;" d="M1028.125,1561.334c-8.79-2.524-32.076-15.103-36.424-25.062l46.244-14.309
		c4.583,10.848,9.632,19.919,15.243,26.465C1063.708,1560.586,1060.903,1570.779,1028.125,1561.334z"/>
	<path style="fill:#2BB19E;" d="M883.501,1624.037l-0.047,3.086c0,3.647-2.852,6.5-6.172,6.266l-59.944-4.255
		c-7.575-0.514-14.167-5.189-18.329-12.063c-4.255-7.061-10.38-13.326-16.693-18.609l-4.723,27.867l-17.768-1.262l-1.122-42.644
		c0,0-2.666-2.011-2.853-2.338c-6.64-13.233,5.377-36.098,16.225-44.327c4.302,10.754,21.416,25.904,28.71,30.019
		c27.587,15.57,33.899,8.697,28.756-3.741c13.186,21.603,28.663,32.311,39.698,37.595
		C878.031,1603.838,883.595,1613.47,883.501,1624.037z"/>
	<path style="fill:#F5AE9E;" d="M828.186,1559.043c7.341,14.262,2.291,23.52-27.4,6.733c-8.417-4.77-30.019-24.268-29.738-34.694
		l50.265,3.039C822.482,1543.753,824.68,1552.217,828.186,1559.043z"/>
	<path style="fill:#313B84;" d="M1037.944,1521.964l-54.941,17.02c-52.089-138.731-46.431-211.254-46.431-211.254
		c-0.281-0.421-18.329-36.051-39.558-78.087l-15.523,64.106l-57.045,220.56l-53.398-3.227
		c4.816-165.899,36.238-223.178,36.238-223.178c-0.421,0.14,6.032-92.77-6.967-171.37c-2.712-16.365-28.242-52.556-1.964-88.98
		l0.234,0.093c0.046-0.047,0.093-0.14,0.093-0.187c5.237,9.679,55.082,21.695,78.18,25.39c48.348,7.668,67.613,3.319,74.253,0.701
		l8.323,44.561l50.125,211.255L1037.944,1521.964z"/>
	<path style="fill:#F5AE9E;" d="M1126.411,1052.978c-0.515,1.543-8.183,5.892-11.128,6.499c-4.021,0.795-19.639,0.188-19.639,0.188
		c5.471,4.909,30.673,46.15,21.648,52.883c-13.699,9.445-30.205,14.729-38.389,4.256c-13.606-13.326-31.795-37.127-35.442-53.772
		l38.342-29.972c4.77,0.514,9.352,1.309,11.269,2.104c2.712,1.122,21.042,14.215,29.225,12.905
		C1126.832,1047.319,1128.048,1048.255,1126.411,1052.978z"/>
	<path style="fill:#DC74AA;" d="M1025.273,964.323l-8.605-9.538l-13.653-60.225c12.392-17.627,19.873-52.79-26.372-115.119
		c-2.338-3.18-6.546-4.396-10.427-4.396h-5.144c0,0,17.16,59.336-52.837-2.385c0,0,0.655-1.917,1.543-5.143
		c-2.852,0.842-5.751,1.871-8.604,3.086c-7.575-0.047-20.527,0.187-31.562,4.442c-53.865,20.714-133.916,76.169-136.254,85.241
		c-10.848,42.41-29.271,150.375-29.271,150.375h50.218l20.995-125.032c2.01-1.777,52.603-25.624,80.331-37.734
		c9.165,109.695-4.162,117.738-27.213,147.429c-9.258,11.877-27.073,41.054-30.065,49.61c-3.507,9.96,53.352,23.894,78.507,27.915
		c60.645,9.632,75.561,0.327,77.104-0.795c-0.233-2.291,17.675-89.355,17.675-89.355l69.577,82.108l43.766-34.274L1025.273,964.323z
		 M876.722,833.12c-0.094,0-0.234-0.047-0.328-0.141l0.561-0.374L876.722,833.12z"/>
	<path style="fill:#F5AE9E;" d="M771.328,1034.648l-18.049,43.999c-1.636,4.021-5.564,6.266-8.744,4.956l-6.873-2.805
		c-0.748-0.328-1.449-0.748-2.104-1.263c-3.414,4.302-8.884,8.136-13.326,5.704l-33.76-12.671
		c-5.564-3.086-3.927-25.063,4.583-38.997c2.899-4.723,10.521-15.149,16.319-22.911h44.935l1.075-6.406l1.356,5.939
		c1.215,1.777,2.244,6.266,2.992,11.362c0.655,0.14,1.31,0.28,1.964,0.561l6.873,2.805
		C771.749,1026.231,772.965,1030.58,771.328,1034.648z"/>
	<path style="fill:#2B2150;" d="M949.816,902.69c-0.06,0-0.119,0-0.18-0.004c-11.957-0.918-23.69-4.69-33.93-10.909
		c-1.103-0.671-1.454-2.11-0.783-3.215c0.671-1.101,2.11-1.447,3.212-0.785c9.614,5.845,20.63,9.388,31.857,10.242
		c1.288,0.1,2.251,1.224,2.153,2.511C952.051,901.758,951.026,902.69,949.816,902.69z"/>
	<path style="fill:#9BD3D5;" d="M1542.327,705.516l3.226,9.959l-2.898,1.029c-6.125,2.198-9.539,8.884-8.369,15.758
		c-0.977,0.455-7.494-2.957-14.963,5.892l-4.442-13.747l-9.211,6.827c-13.093,9.726-31.235,7.341-40.587-5.237l-0.374-0.468
		c-9.352-12.625-6.359-30.673,6.733-40.399l33.386-24.782l80.564-122.18l93.938,126.481L1542.327,705.516z"/>
	<path style="fill:#5A8DBF;" d="M1568.465,813.808l-7.014-2.104l-23.52-7.107l-7.014-2.104l-12.672-3.834l-6.546,24.455l-1.87,7.014
		l-2.385,8.977l-7.014,26.278l-5.003,18.75l-0.374,1.402c0,0-1.259-1.398-1.263-1.402c-5.957-6.62-9.353-15.199-15.212-22.047
		c-7.061-8.252-13.875-16.724-20.189-25.564c-3.051-4.415-18.598-21.036-23.45-25.091c-4.185-3.497-8.71-7.583-14.186-8.798
		c-0.841-0.187-1.729-0.374-2.711-0.514c-2.418-0.345-4.82-0.791-7.244-1.118c-1.79-0.241-3.855-0.373-5.597-0.071
		c1.118,4.156,4.294,8.405,6.294,12.271c4.119,7.962,8.244,15.921,12.345,23.894c2.053,3.991,3.949,8.065,5.892,12.111
		c2.756,5.685,5.47,11.489,7.48,17.487c18.844,56.204,26.793,229.771,26.793,229.771l-14.215,2.011
		c0,0-42.503-191.476-53.444-220.373c-10.941-28.943-67.659-77.385-67.659-77.385s-3.507-0.468-4.349-0.094
		c-4.826,2.099-9.191,5.121-13.943,7.384c-5.45,2.596-11.115,4.71-16.59,7.252c-2.385,1.075-4.77,2.244-7.014,3.6
		c-4.792,2.895-16.459,22.584-17.488,28.523c-1.075,2.01-2.197,4.115-3.272,6.265c-5.018,10.036-9.804,20.21-14.309,30.487
		c-1.028,2.291-2.058,4.629-3.086,7.014c-3.319,7.715-6.64,15.664-9.866,23.52c-0.981,2.338-1.917,4.676-2.852,7.014
		c-1.076,2.665-2.104,5.284-3.133,7.856c-3.039,7.53-5.933,15.115-8.885,22.678c-6.796,17.767-14.863,35.643-19.872,54.005
		c-0.654,2.338-1.122,4.676-1.356,7.014c-0.841,8.229,0.982,16.412,5.004,23.52c1.449,2.525,3.133,4.863,5.05,7.014
		c3.729,4.185,8.248,7.127,13.046,9.913l7.014,4.021l23.473,13.56l5.144,2.992l25.39,14.636c0,0,7.014,4.067,7.061,4.114
		c-0.374,1.637-0.795,3.227-1.169,4.77c-0.562,2.291-6.267,24.642-7.528,30.486c-0.654,2.806-1.122,5.144-1.31,7.015
		c-0.094,0.374-0.094,0.654-0.141,0.981c0,0,28.57,1.776,37.875,2.104c2.244,0.093,35.115,0.514,37.5,0.514
		c7.575,0,15.478-0.187,23.52-0.468c2.338-0.046,22.631-1.075,30.533-1.729c2.338-0.187,12.297-1.122,14.963-1.402
		c5.19-0.562,10.38-1.216,15.523-1.965c0.842-0.14,2.759-7.247,2.759-7.247l4.162-21.275l3.46-6.312l12.374-1.411l2.063,8.813
		l1.5,9.5l8.003,11.293c1.076-0.28,3.251-1.153,4.935-1.668c0,0-4.467-36.299-5.215-38.217c0,0-3.413-79.676-3.366-80.564
		c0.374-6.967,1.122-45.87,0.935-54.006c0-1.917-0.047-3.834-0.094-5.798l1.777,0.842l10.708,4.956l12.812,5.939l0.889,0.421
		c1.964,0.935,4.021,1.636,6.125,2.151c7.995,1.917,16.459,0.608,23.473-3.6c2.244-1.309,4.349-2.946,6.266-4.863
		c0-0.047,0.748-2.432,0.748-2.432l1.45-4.629l7.247-23.52l2.197-7.014l7.248-23.52l2.197-7.014l3.18-10.334l4.068-13.139
		l2.15-7.014l0.795-2.478l6.5-21.088l1.963-6.219l2.104-6.874L1568.465,813.808z M1300.82,1027.213l-7.014-3.927l-7.014-3.929
		l-10.896-6.125l-4.161-2.338c0,0,0.842-1.684,2.385-4.676c2.479-4.909,6.733-13.326,11.83-23.519
		c0.28-0.562,0.561-1.169,0.842-1.731c0.888-1.73,1.729-3.46,2.618-5.284c1.449-2.852,2.899-5.798,4.396-8.837
		c2.338-4.769,4.77-9.679,7.153-14.635h0.047v-0.047c1.122-2.338,2.245-4.629,3.367-6.967
		C1304.795,944.357,1300.773,1023.379,1300.82,1027.213z"/>
	<path style="fill:#F5AE9E;" d="M1415.378,1108.246l-18.282,32.777c-4.068,5.33-27.213,2.618-40.82-6.593
		c-5.377-3.601-16.271-17.207-22.584-25.391c1.402-3.226,2.338-6.732,3.366-10.146c2.151-7.247,5.05-14.261,8.511-20.947
		c2.338-4.582,5.049-9.071,6.826-13.841c3.928-0.093,18.096-0.28,22.912,0.234c8.463,0.888,14.962,7.107,23.473,7.762
		c3.507,0.233,7.2-0.562,10.707,0c1.917,0.28,4.021,1.402,3.694,3.18c-0.188,0.701-0.701,1.355-1.216,1.917
		c-4.91,5.283-12.438,8.276-19.498,8.042l15.337,7.248C1413.04,1095.293,1419.352,1102.868,1415.378,1108.246z"/>
	<path style="fill:#F5AE9E;" d="M1571.785,769.294c-5.564-14.728-17.301-49.049-17.301-49.049c-1.355-3.881-5.284-6.032-8.791-4.816
		l-3.039,1.076c-6.125,2.198-9.539,8.884-8.369,15.758c-0.936,0.42-1.59,0.654-1.684,0.42c-3.367-1.402-7.435,0.047-11.176,5.331
		c-0.607-2.104-16.599,40.539-3.18,57.139c1.637,2.01,4.489,3.974,7.855,5.891c0.047,0,0.047,0.047,0.094,0.047l4.723,1.403
		l7.014,2.104l23.52,7.107l1.543,0.467C1567.39,805.859,1580.482,792.346,1571.785,769.294z"/>
	<path style="fill:#9BD3D5;" d="M1558.506,781.685c-6.453,0-12.392-4.396-14.683-10.989l-5.938-16.786
		c-2.338,4.162-5.829,6.553-7.138,8.423c0.047,0.421-0.091,5.24,0.003,7.25l3.667,13.667c2.197,6.78,13.057,12.011,19.416,10
		c3.367-1.122,7.765-5.414,9.167-8.5c0.374-0.748-2.203-2.504-2.017-3.299C1560.188,781.639,1559.347,781.685,1558.506,781.685z"/>
	<polygon style="fill:#A49ACB;" points="295.127,1024.333 318.934,1024.333 329.883,1016.977 295.127,1016.977 	"/>
	<polygon style="fill:#A49ACB;" points="295.127,894.003 357.711,894.003 368.54,886.989 295.127,886.989 	"/>
	<g>
		<path style="fill:#313B84;" d="M1006.383,645.104c-2.385,4.442-9.025,7.622-13.513,9.866c-11.69,5.892-28.85-0.42-41.896-1.355
			c-29.738-2.151-44.56,25.67-44.56,25.67c-4.255-11.97-16.505-13.653-22.538-8.557c-3.133,2.665-4.582,7.154-2.291,12.999
			c0.982,2.571,1.917,4.676,2.853,6.499c4.863,9.632,8.276,10.147,12.952,29.504c-4.396-2.993-8.65-6.313-12.578-10.006
			c-0.093,7.154-0.888,14.261-3.553,20.901c-5.751,14.121-19.826,23.94-34.929,27.541c-15.103,3.554-31.094,1.543-46.01-2.758
			c13.466-7.295,26.652-18.283,28.663-33.199c1.73-12.905-4.255-26.465-7.014-38.95c-2.431-11.082-4.348-22.351-4.629-33.713
			c-0.467-21.883,6.406-44,28.522-53.304c7.669-3.227,16.229-4.352,24.482-3.379c4.134,0.487,8.213,1.507,12.059,3.106
			c1.62,0.673,3.672,2.307,5.348,2.04c1.455-0.232,3.892-2.767,5.23-3.577c15.201-9.203,33.511-10.345,50.653-7.169
			c28.102,5.19,38.061,20.761,40.54,21.649C997.171,613.589,1014.191,630.562,1006.383,645.104z"/>
		<path style="fill:#F5AE9E;" d="M1008.253,680.781c-0.327,6.546-1.075,12.998-2.197,19.17c-1.216,6.546-2.853,12.859-4.863,18.704
			c-7.575,21.509-20.901,37.36-40.446,39.511l0.327,16.88c0,0,17.16,59.336-52.837-2.385c0,0,5.658-15.897,5.892-33.151
			c-6.78-5.985-12.859-12.999-17.582-20.34c0.281,0.187,0.562,0.374,0.842,0.561c-4.676-19.358-8.089-19.873-12.952-29.504
			c0-0.047,0-0.047,0-0.047c-0.936-1.777-1.871-3.881-2.853-6.453c-2.291-5.845-0.842-10.334,2.291-12.999
			c6.032-5.097,18.283-3.413,22.538,8.557c0,0,14.822-27.821,44.56-25.67c13.046,0.935,30.206,7.247,41.896,1.355
			c4.488-2.244,11.128-5.424,13.513-9.866c0,0,0-0.047,0.047-0.047C1008.58,655.017,1009.048,666.94,1008.253,680.781z"/>
		<path style="fill:#2B2150;" d="M967.892,735.538c-4.537,0-9.078-1.169-12.215-3.365c-0.418-0.293-0.808-0.598-1.194-0.906
			c-1.525-1.197-1.975-3.55-0.778-5.073c1.196-1.519,3.214-1.934,4.74-0.738l0.416,0.332c0.265,0.207,0.541,0.431,0.84,0.641
			c3.105,2.169,9.502,2.733,13.692,1.208c1.536-0.561,2.895-1.395,3.922-2.404c1.388-1.353,3.609-1.329,4.961,0.048
			c1.356,1.384,1.333,3.606-0.048,4.961c-1.735,1.701-3.959,3.078-6.427,3.982C973.373,735.111,970.634,735.538,967.892,735.538z"/>
		<path style="fill:#2B2150;" d="M915.697,637.222c-0.623,0-1.244-0.249-1.706-0.737c-0.883-0.943-0.835-2.422,0.107-3.306
			c5.034-4.724,11.461-7.413,19.647-8.224c1.274-0.094,2.429,0.813,2.557,2.096c0.128,1.286-0.81,2.429-2.096,2.557
			c-7.121,0.706-12.653,2.989-16.911,6.982C916.846,637.012,916.271,637.222,915.697,637.222z"/>
		<path style="fill:#2B2150;" d="M837.153,747.424c-1.247-0.037-2.416-1.023-2.413-2.345c0.002-1.288,1.05-2.331,2.338-2.331
			c0.036,0.018,0.05,0.002,0.075,0c14.52,0,23.311-12.221,27.263-19.516c0.617-1.132,2.037-1.557,3.169-0.94
			c1.135,0.614,1.557,2.032,0.941,3.169C864.081,733.667,854.096,747.424,837.153,747.424z"/>
		<path style="fill:#EE7E94;" d="M954.396,711.203c0,7.892-6.398,14.29-14.29,14.29s-14.29-6.398-14.29-14.29
			c0-7.892,6.397-14.29,14.29-14.29S954.396,703.31,954.396,711.203z"/>
		<path style="fill:#2B2150;" d="M898.195,693.811c-0.635,0-1.269-0.258-1.73-0.767c-3.119-3.431-6.265-8.5-6.265-12.082
			c0-1.293,1.046-2.338,2.338-2.338c1.292,0,2.338,1.045,2.338,2.338c0,1.863,2.265,5.875,5.05,8.94
			c0.868,0.955,0.797,2.434-0.16,3.302C899.318,693.61,898.757,693.811,898.195,693.811z"/>
		<path style="fill:#2B2150;" d="M995.723,691.206c-1.936,0-3.507-1.571-3.507-3.507v-4.432c0-1.936,1.571-3.507,3.507-3.507
			c1.936,0,3.507,1.571,3.507,3.507v4.432C999.23,689.635,997.659,691.206,995.723,691.206z"/>
		<path style="fill:#2B2150;" d="M946.645,693.747c-1.936,0-3.507-1.571-3.507-3.507v-4.082c0-1.936,1.571-3.507,3.507-3.507
			c1.936,0,3.507,1.571,3.507,3.507v4.082C950.152,692.176,948.581,693.747,946.645,693.747z"/>
		<path style="fill:#EE7E94;" d="M1003.279,698.263c-0.195,1.096-0.428,2.189-0.661,3.283c-1.359,6.523-3.122,12.745-5.243,18.502
			c-0.678,1.852-1.393,3.662-2.143,5.388c-6.051-1.472-10.446-7.494-10.163-14.47c0.322-7.914,6.494-14.037,13.763-13.742
			C1000.415,697.288,1001.909,697.635,1003.279,698.263z"/>
	</g>
	<g>
		<path style="fill:#2BB19E;" d="M849.196,1071.778v350.688c-2.338,9.024-4.676,18.096-7.014,27.12v-379.397
			C844.474,1070.75,846.811,1071.264,849.196,1071.778z"/>
		<path style="fill:#2BB19E;" d="M878.186,1076.828v233.698c-2.338,9.024-4.676,18.096-7.014,27.214V1075.8
			C873.511,1076.174,875.849,1076.548,878.186,1076.828z"/>
		<path style="fill:#2BB19E;" d="M907.176,1079.634v178.897c-2.852-6.593-5.283-12.484-7.014-16.786v-162.532
			C902.547,1079.399,904.885,1079.54,907.176,1079.634z"/>
		<path style="fill:#2BB19E;" d="M936.167,1079.493v237.673c-2.151-5.283-5.097-12.11-7.014-14.869v-222.383
			C931.538,1079.82,933.875,1079.681,936.167,1079.493z"/>
		<path style="fill:#2BB19E;" d="M965.204,1156.785v326.514c-2.432-8.183-4.723-16.412-7.014-24.642v-334.275
			C960.528,1135.136,962.866,1145.891,965.204,1156.785z"/>
		<path style="fill:#2BB19E;" d="M994.194,1279.012v257.321c-2.759,0.654-5.377,1.169-7.014,1.543v-285.797
			C989.377,1260.775,991.715,1269.753,994.194,1279.012z"/>
		<path style="fill:#2BB19E;" d="M1023.184,1447.107v79.643l-7.014,2.338v-128.645
			C1017.947,1414.003,1020.659,1431.351,1023.184,1447.107z"/>
		<path style="fill:#2BB19E;" d="M791.216,1067.71v30.768C788.924,1085.104,788.504,1076.127,791.216,1067.71z"/>
		<path style="fill:#2BB19E;" d="M791.216,1367.806v165.287c-2.385-0.187-4.77-0.327-7.014-0.468v-111.936
			c0.982-11.924,2.104-23.753,3.507-35.396C788.55,1378.42,789.813,1372.809,791.216,1367.806z"/>
		<path style="fill:#2BB19E;" d="M820.206,1064.203V1534c-1.402,0.094-3.881-0.046-7.014-0.233v-472.041
			C815.39,1062.566,817.727,1063.361,820.206,1064.203z"/>
	</g>
	<path style="fill:#2D7CBB;" d="M1408.879,800.763v7.528c0.842,1.496,1.683,3.179,2.618,4.909c0.701,1.356,1.449,2.712,2.198,4.115
		c0.701,1.356,1.449,2.806,2.197,4.255v-19.825C1413.835,801.417,1411.497,801.09,1408.879,800.763z M1439.365,1052.183v15.056
		h-23.473v-23.473h21.556c-0.515-2.291-1.029-4.629-1.59-7.014h-19.966v-23.52h14.542c-0.515-2.338-1.075-4.676-1.59-7.014h-12.952
		V982.7h7.434c-0.561-2.338-1.122-4.676-1.637-7.014h-5.798v-23.473h0.187c-2.478-10.287-4.909-20.153-7.2-29.177v22.164h-23.8
		l0.046-23.52h23.426c-0.607-2.432-1.215-4.723-1.776-7.014h-21.649l0.047-23.52h15.29c-0.748-2.619-1.449-4.957-2.104-7.014
		h-13.187l0.047-23.473h1.122c-2.431-3.413-5.144-6.873-7.995-10.333v3.319h-23.52v-23.519h5.144
		c-4.209-4.302-8.323-8.323-12.157-12.017v5.003h-23.473v-22.491c-2.151,0.936-4.442,2.151-6.827,3.601
		c-0.047,0.047-0.141,0.094-0.187,0.094v18.797h-23.52v-7.855c-2.385,1.075-4.77,2.244-7.014,3.6v4.255h-2.697
		c-1.823,1.777-3.554,4.208-5.096,7.014h7.793v23.519h-20.761c-0.889,1.73-1.777,3.554-2.713,5.377v0.094
		c-0.233,0.514-0.514,1.028-0.747,1.543h24.221v23.473h-23.52V867.44c-0.234,0.468-0.468,0.982-0.701,1.45h-3.882
		c-0.841,1.73-1.636,3.46-2.431,5.19v10.053h-4.583c-0.981,2.291-2.011,4.629-3.039,7.014h7.622v23.52h-17.488
		c-0.981,2.338-1.917,4.676-2.852,7.014h20.34v23.52h-23.473v-15.664c-2.151,5.33-4.209,10.614-6.173,15.664
		c-0.28,0.748-0.561,1.449-0.841,2.198v28.289h-10.708c-0.936,2.478-1.823,4.816-2.619,7.014h13.327v23.519h-19.265
		c-1.263,0-2.432,0.795-2.946,1.964c-0.141,0.515-0.28,1.028-0.374,1.543c0,1.917,1.543,3.507,3.32,3.507h19.265v23.52h-18.096
		c1.449,2.525,3.133,4.863,5.05,7.014h13.046v9.913l7.014,4.021v-13.935h23.473v27.494l5.144,2.992h25.39v14.636l7.014,4.067
		v-18.703h23.52v23.52h-23.52v-4.582c-0.374,1.59-0.748,3.086-1.122,4.582c-0.421,1.73-3.741,14.729-5.892,23.566v6.92h-1.637
		c-0.654,2.806-1.122,5.144-1.31,7.015h33.479v3.086c2.244,0.093,4.582,0.14,7.014,0.233v-3.319h30.486v-1.871
		c-1.637-1.309-3.46-3.086-5.378-5.144h-25.108v-23.473h10.801c0.047-1.216,1.403-5.892,1.87-7.014h-12.671v-23.52h25.811
		c1.216-2.291,2.338-4.582,3.18-7.014c-0.094,0.281-0.234,0.234-0.375,0h-28.615v-23.473h23.473v5.752
		c0.701-1.263,3.834,15.664,5.143,17.721h1.871v-23.473h23.52v16.833c0,0,5.984,8.838,6.499,4.536l0.047-21.369h23.987v52.089
		c0.187-0.654,7.014,1.917,7.014,1.917v-23.52h23.473v23.52h-28.148c0.327,0.281,0.654,0.608,0.935,0.936
		c0.795,0.889,1.59,1.823,2.011,2.945c0.374,1.076,0.421,2.104,0.188,3.133h25.016v23.473h-23.473v-20.807
		c-0.842,1.917-2.151,3.646-3.507,5.283c-0.655,0.795-12.11,22.538-12.11,22.538h15.617c0,0,25.203-2.198,26.044-2.338l3.507-3.694
		l0.936-0.982v-45.168C1444.556,1075.094,1442.171,1064.479,1439.365,1052.183z M1256.26,1036.752h-23.473v-23.52h23.473V1036.752z
		 M1256.26,1006.219h-23.473V982.7h23.473V1006.219z M1256.26,975.685h-23.473v-23.473h23.473V975.685z M1293.807,830.127h23.52
		v23.519h-23.52V830.127z M1293.807,860.66h23.52v23.473h-23.52V860.66z M1293.807,891.146h23.52v23.52h-23.52V891.146z
		 M1293.807,921.68h23.52v23.52h-23.52V921.68z M1263.273,891.146h23.52v23.52h-23.52V891.146z M1263.273,921.68h23.52v23.52h-23.52
		V921.68z M1286.793,1067.238h-23.52v-23.473h23.52V1067.238z M1286.793,1036.752h-23.52v-23.52h17.066
		c-2.291-2.712,0.047-2.385-3.507-3.227c0.141-1.309,0.515-2.571,0.936-3.787h-14.495V982.7h23.52v-7.014h-23.52v-23.473h23.52
		v23.473h7.014v-23.473h23.52v23.473h-15.29c0,2.338-0.094,4.676-0.188,7.014h15.478v23.519h-15.758c0,0.608,0.047,1.263,0.047,1.87
		c0.047,1.73,0.141,3.414,0.187,5.143h15.524v23.52h-23.52v-15.057c-2.432-0.935-4.816-2.057-7.014-3.413V1036.752z
		 M1293.807,1067.238v-23.473h23.52v23.473H1293.807z M1293.807,1128.258v-23.473h23.52v23.473H1293.807z M1347.813,1036.752
		h-23.473v-23.52h23.473V1036.752z M1347.813,1006.219h-23.473V982.7h23.473V1006.219z M1347.813,975.685h-23.473v-23.473h23.473
		V975.685z M1347.813,945.199h-23.473v-23.52h23.473V945.199z M1347.813,914.666h-23.473v-23.52h23.473V914.666z M1347.813,884.133
		h-23.473V860.66h23.473V884.133z M1347.813,853.646h-23.473v-23.519h23.473V853.646z M1378.346,1036.752h-23.52v-23.52h23.52
		V1036.752z M1378.346,1006.219h-23.52V982.7h23.52V1006.219z M1378.346,975.685h-23.52v-23.473h23.52V975.685z M1378.346,945.199
		h-23.52v-23.52h23.52V945.199z M1378.346,914.666h-23.52v-23.52h23.52V914.666z M1378.346,884.133h-23.52V860.66h23.52V884.133z
		 M1408.879,1036.752h-23.987l0.047-23.52h23.94V1036.752z M1408.879,1006.219h-23.94l0.047-23.519h23.894V1006.219z
		 M1408.879,975.685h-23.847l0.047-23.473h23.8V975.685z M1460.359,1036.752c0.188,2.385,0.328,4.723,0.515,7.014h9.024v-7.014
		H1460.359z M1462.417,1067.238c0.141,2.479,0.28,4.816,0.421,7.014h7.06v-7.014H1462.417z M1574.918,823.113h-6.453v-9.305
		l-7.014-2.104v11.409h-23.52v-18.517l-7.014-2.104v20.621H1511.7l-1.87,7.014h21.088v23.519h-23.473v-14.542l-7.014,26.278v18.75
		h-23.52v-24.314l-4.115-4.676l-0.233-0.281l-2.665-3.039v1.823h-23.519V830.08c-1.216-2.432-2.479-4.77-3.787-6.967h-25.904
		c1.216,2.291,2.385,4.629,3.646,7.014h19.031v23.519h-7.528c0,0.047,0.047,0.047,0.047,0.094c1.122,2.479,2.151,4.77,3.039,6.92
		h4.442v13.186c2.571,9.165,4.909,20.434,7.014,32.965v-15.664h23.519v23.52h-22.257c0.374,2.291,0.701,4.629,1.075,7.014h21.182
		v23.52h-18.049c0.28,2.338,0.562,4.676,0.795,7.014h17.254v23.473h-14.728l0.701,7.014h14.027v23.519h-11.924
		c0.234,2.338,0.421,4.676,0.608,7.014h15.991c-0.188-4.255-0.28-6.873-0.28-7.014c0.374-6.967,1.122-45.87,0.935-54.006
		c0-1.917-0.047-3.834-0.094-5.798l1.777,0.842l10.708,4.956h12.812v5.939l0.889,0.421c1.964,0.935,4.021,1.636,6.125,2.151v-8.51
		h23.473v4.91c2.244-1.309,4.349-2.946,6.266-4.863v-0.047h0.748V921.68h8.697l2.197-7.014h-10.895v-23.52h18.143l1.122-3.601
		v-3.413h-19.265V860.66h23.52v13.139l4.068-13.139l2.945-9.492v-21.041h6.5v-0.047l1.963-6.219v-0.047
		C1576.367,823.394,1575.666,823.113,1574.918,823.113z M1469.898,884.133h-23.519V860.66h23.519V884.133z M1500.432,945.199h-23.52
		v-23.52h23.52V945.199z M1500.432,914.666h-23.52v-23.52h23.52V914.666z M1530.918,945.199h-23.473v-23.52h23.473V945.199z
		 M1530.918,914.666h-23.473v-23.52h23.473V914.666z M1530.918,884.133h-23.473V860.66h23.473V884.133z M1561.451,853.646h-23.52
		v-23.519h23.52V853.646z"/>
	<path style="fill:#F7AF4D;" d="M1464.007,1096.463l-14.215,2.011c0,0-42.503-191.476-53.444-220.373
		c-10.941-28.943-67.659-77.385-67.659-77.385l8.463-2.619c9.258,5.611,33.245,9.305,45.028,6.873
		c13.467-2.805,14.635-4.723,20.808-7.528h0.094c0,0,28.241,51.762,34.133,69.249
		C1456.058,922.896,1464.007,1096.463,1464.007,1096.463z"/>
	<path style="fill:#C6368B;" d="M1438.196,676.338c-3.834,6.453-11.55,10.287-18.189,7.435c-4.676-1.964-7.948-6.686-10.941-11.222
		c-2.665-3.928-5.377-8.136-7.061-12.578c-10.801,3.601-23.238,3.881-33.993,4.863c-16.973,1.543-34.508,0.608-50.125-6.92
		c11.176,9.165,14.729,20.714,19.218,29.645c4.208,8.417-2.432,17.815-7.715,13.934c-5.845-4.255-11.456-5.938-16.88-3.414
		c-12.578,7.107-0.188,20.013,7.996,26.512c0,0,7.106,12.297,0.795,18.984c0,0-10.802,2.432-25.577-7.388
		c-15.991-10.708-18.844-22.07-24.034-40.493c-5.237-18.422,2.104-46.057,20.434-53.772c1.075-16.038,15.103-31.094,30.58-37.173
		c10.24-4.068,22.21-7.341,33.198-7.388c18.282-0.186,29.691,2.245,29.691,2.245s5.004-4.816,9.726-5.705
		c13.935-2.571,24.596,5.705,30.768,14.449c1.543,2.104,2.385,4.629,2.898,7.201c0.702,3.367,0.842,6.78,0.468,10.147
		c6.359,8.042,10.521,17.908,11.971,28.102C1442.545,661.563,1442.03,669.933,1438.196,676.338z"/>
	<path style="fill:#F5AE9E;" d="M1399.901,769.154c-1.824,0.701-3.694,1.309-5.564,1.73c3.227,12.671,7.435,26.559,8.697,26.559
		c-6.22,2.805-7.342,4.723-20.854,7.528c-13.7,2.852-43.953-2.665-48.302-9.819c1.403-0.234,6.827-35.069,6.968-35.397
		c-7.015-4.395-13.7-9.819-19.545-16.178c6.312-6.686-0.795-18.984-0.795-18.984c-8.184-6.5-20.574-19.405-7.996-26.512
		c5.424-2.525,11.035-0.841,16.88,3.414c5.283,3.881,11.923-5.518,7.715-13.934c-4.488-8.931-8.042-20.48-19.218-29.645
		c15.617,7.528,33.152,8.463,50.125,6.92c15.711-1.45,34.976-1.309,47.507-12.438c1.776-1.59,3.413-3.32,4.909-5.237
		c3.647,6.687,7.107,14.355,10.334,23.052C1446.426,712.389,1432.538,756.576,1399.901,769.154z"/>
	<path style="fill:#EE7E94;" d="M1417.043,708.697c1.497,7.897,9.052,13.085,16.841,11.566c0.767-0.149,1.485-0.332,2.181-0.637
		c1.418-8.635,1.549-17.867,0.224-27.282c-2.403-0.974-5.094-1.255-7.837-0.72C1420.662,693.142,1415.537,700.759,1417.043,708.697z
		"/>
	<path style="fill:#2B2150;" d="M1414.384,688.43c-1.652,0-3.123-1.171-3.442-2.854l-0.986-5.206
		c-0.361-1.904,0.891-3.738,2.794-4.098c1.872-0.354,3.74,0.888,4.101,2.792l0.986,5.206c0.361,1.904-0.891,3.737-2.794,4.098
		C1414.822,688.409,1414.604,688.43,1414.384,688.43z"/>
	<path style="fill:#2B2150;" d="M1398.653,719.241c-1.466,0-2.906-0.293-4.249-1c-1.712-0.904-2.369-3.023-1.468-4.737
		c0.901-1.715,3.032-2.366,4.737-1.468c1.186,0.635,4.706-0.276,8.889-3.192l-12.571-28.404c-0.785-1.77,0.012-3.842,1.783-4.628
		c1.769-0.781,3.843,0.014,4.628,1.783l12.567,28.299c1.384,3.112,0.374,6.772-2.397,8.703
		C1407.781,716.542,1403.105,719.241,1398.653,719.241z"/>
	<path style="fill:#2B2150;" d="M1372.044,698.891c-1.651,0-3.124-1.171-3.44-2.854l-0.987-5.205
		c-0.36-1.904,0.891-3.738,2.793-4.099c1.911-0.363,3.739,0.891,4.098,2.792l0.986,5.206c0.361,1.904-0.89,3.737-2.792,4.098
		C1372.479,698.871,1372.261,698.891,1372.044,698.891z"/>
	<path style="fill:#EE7E94;" d="M1353.979,724.826c1.501,7.908,9.041,13.086,16.842,11.565s12.909-9.166,11.408-17.074
		c-1.5-7.909-9.04-13.087-16.841-11.566S1352.479,716.917,1353.979,724.826z"/>
	<path style="fill:#2B2150;" d="M1328.701,717.268c-0.852,0-1.674-0.466-2.087-1.279c-1.194-2.347-5.699-4.114-7.183-4.548
		c-1.24-0.363-1.952-1.662-1.59-2.899c0.363-1.237,1.653-1.95,2.9-1.589c0.785,0.23,7.728,2.372,10.041,6.917
		c0.584,1.151,0.125,2.557-1.025,3.144C1329.418,717.186,1329.057,717.268,1328.701,717.268z"/>
	<path style="fill:#2B2150;" d="M1375.085,631.688c-0.45,0-0.906-0.004-1.368-0.014c-1.292-0.03-2.315-1.098-2.287-2.388
		c0.029-1.29,1.232-2.206,2.388-2.288c6.626,0.15,11.624-0.799,14.938-2.804c1.1-0.667,2.544-0.317,3.21,0.79
		c0.669,1.105,0.315,2.541-0.79,3.21C1387.343,630.514,1381.934,631.688,1375.085,631.688z"/>
	<path style="fill:#2B2150;" d="M1360.669,655.014c-0.034,0-0.066,0-0.1-0.003c-10.466-0.436-20.881-2.491-28.785-4.23
		c-1.261-0.278-2.06-1.525-1.781-2.786c0.276-1.262,1.525-2.057,2.785-1.781c7.72,1.699,17.875,3.703,27.977,4.126
		c1.29,0.052,2.293,1.144,2.237,2.434C1362.95,654.03,1361.916,655.014,1360.669,655.014z"/>
	<path style="fill:#2B2150;" d="M1371.575,654.833c-1.207,0-2.23-0.927-2.328-2.15c-0.103-1.288,0.856-2.413,2.144-2.518
		c2.039-0.162,4.073-0.409,6.101-0.747c8.244-1.377,15.978-4.406,22.358-8.763c2.795-1.901,12.53-11.829,13.361-16.822
		c0.214-1.276,1.434-2.148,2.689-1.922c1.273,0.212,2.132,1.416,1.922,2.69c-1.205,7.242-12.652,18.089-15.338,19.918
		c-6.936,4.733-15.313,8.023-24.222,9.512c-2.159,0.36-4.326,0.621-6.498,0.796C1371.701,654.831,1371.637,654.833,1371.575,654.833
		z"/>
	<path style="fill:#2B2150;" d="M1395.038,742.875c-1.823,0-3.647-0.187-5.424-0.654c0.842,1.589,1.87,2.712,3.18,3.46
		c2.571,1.496,6.171,1.403,10.706-0.187c4.257-1.492,6.577,5.118,2.34,6.639c-3.134,1.076-6.032,1.637-8.697,1.637
		c-2.899,0-5.564-0.655-7.855-2.011c-4.395-2.571-7.2-7.246-8.416-13.885c-0.601-3.277,3.491-6.656,6.358-4.398
		c4.442,3.507,12.017,2.712,17.207,0.093c3.27-1.635,4.3-3.363,4.302-3.786c0.022-4.493,6.902-4.79,7.014-0.235
		c0.094,3.881-2.853,7.622-8.183,10.287C1403.922,741.66,1399.48,742.875,1395.038,742.875z"/>
	<path style="fill:#2B2150;" d="M1360.534,686.179c-1.053,0-2.096-0.473-2.785-1.375c-1.178-1.537-0.889-3.737,0.65-4.916
		c0.843-0.646,8.416-6.335,14.827-7.276c1.949-0.271,3.698,1.046,3.979,2.961c0.28,1.916-1.046,3.699-2.962,3.979
		c-3.913,0.573-9.819,4.552-11.58,5.902C1362.029,685.943,1361.278,686.179,1360.534,686.179z"/>
	<path style="fill:#2B2150;" d="M1406.685,674.521c-1.274,0-2.498-0.692-3.123-1.899c-0.887-1.722-0.211-3.838,1.511-4.724
		c4.558-2.356,11.918-1.16,13.348-0.897c1.904,0.349,3.164,2.173,2.817,4.078c-0.343,1.902-2.133,3.173-4.078,2.822
		c-2.594-0.472-7.063-0.705-8.872,0.231C1407.772,674.396,1407.225,674.521,1406.685,674.521z"/>
	<path style="fill:#F5AE9E;" d="M1517.405,1538.983c0,0,6.78,2.946,16.085,6.313c-0.281,0.234-0.515,0.468-0.749,0.749
		c-11.362,13.793-43.905,23.753-69.249,24.688l-3.928-18.844L1517.405,1538.983z"/>
	<path style="fill:#789ED3;" d="M1458.611,1570.816c25.926,0.291,62.067-10.066,74.142-24.764c1.537-1.87,4.132-2.626,6.464-3.242
		c2.801-0.74,5.969-1.238,8.57-0.043c19.883,9.139,25.759,13.957,59.627,3.538c10.742-3.305,25.406-7.116,34.337-0.752
		c7.585,5.404,11.894,32.528,11.796,36.604c-0.018,0.736-0.04,1.492-0.319,2.185c-0.712,1.764-2.777,2.547-4.608,3.118
		c-49.62,15.496-99.942,28.399-150.236,41.294c-6.088,1.561-12.175,3.121-18.263,4.682c-2.177,0.559-4.702,1.055-6.433-0.273
		C1472.389,1632.164,1456.062,1595.402,1458.611,1570.816z"/>
	<path style="fill:#2B2150;" d="M1287.123,1621.741c-0.044,0-0.087,0-0.131-0.005l-79.144-4.365l-32.174-27.287
		c-0.986-0.832-1.107-2.307-0.272-3.293c0.834-0.986,2.313-1.101,3.295-0.273l30.978,26.27l77.573,4.283
		c1.29,0.068,2.279,1.174,2.206,2.461C1289.386,1620.778,1288.355,1621.741,1287.123,1621.741z"/>
	<path style="fill:#2B2150;" d="M1799.03,1633.155h-149.486c47.039-7.061,88.327-35.863,110.958-78.741
		c18.844-35.63,22.631-76.45,10.754-114.932c-11.876-38.529-38.062-70.091-73.691-88.888
		c-21.648-11.456-45.963-17.535-70.324-17.535c-40.072,0-77.619,15.711-105.347,42.784l-12.344-76.31l-28.896-169.64
		c0.841-0.233,1.682-0.467,2.478-0.701c1.73-0.515,2.806-2.244,2.432-4.068c-0.233-1.215-5.938-29.785-6.313-36.284
		c0,0,0.748-89.729-2.338-135.178c0,0,22.865,9.539,22.912,9.539c19.451,9.819,38.481-1.777,40.727-8.416
		c11.269-33.526,41.802-135.225,41.849-135.319c0.561-1.917-0.468-3.788-2.339-4.396l-11.314-3.413
		c5.517-7.528,14.027-21.322,6.452-41.755c-0.047-0.141-17.394-49.377-17.394-49.377c-1.543-4.349-5.564-7.248-9.773-7.388
		l-1.262-3.881c0,0,129.24-38.529,133.541-39.791c2.338-0.702,3.18-3.507,1.824-5.471c0,0-93.61-126.107-93.891-126.481
		c-1.403-1.87-4.489-1.824-5.752,0.187l-80.237,121.619l-32.918,24.455c-7.061,5.237-11.689,12.812-13.139,21.322
		c-3.273,19.264,12.204,37.079,31.562,37.079c7.201,0,14.121-2.291,19.967-6.687l5.283-3.928l2.618,7.996l-0.748,2.338
		c-5.938,18.423-13.046,39.511,0.374,56.484c-0.187,0.281-19.357,71.868-19.451,72.289c-1.169,4.395,5.564,6.219,6.779,1.823
		l13.326-49.844c0,0,45.356,12.718,45.543,12.718c1.029,0,1.964-0.655,2.244-1.683c0.375-1.263-0.373-2.525-1.589-2.899
		l-45.029-12.672l3.647-13.56l4.115,1.216l49.797,15.01l-40.539,131.064c-6.079,9.772-20.808,9.913-31.281,5.05
		c0,0-27.821-12.952-28.616-13.326c0,0-2.197-20.387-2.712-24.642c-2.618-20.153-5.19-40.119-10.754-59.711
		c-1.684-5.704-9.118-27.307-12.578-32.076c17.207,19.592,44.514,62.422,44.888,62.703c0,0.093,0.047,0.14,0.047,0.234l2.712,9.305
		c1.262,4.349,8.042,2.385,6.733-1.964l-2.712-9.305c-0.234-0.794-44.234-77.478-73.926-87.391
		c-1.496-0.982-20.48-5.331-20.947-5.19c-1.356-3.086-3.975-11.736-6.359-20.761c0.889-0.28,1.73-0.561,2.572-0.888
		c19.965-7.715,34.32-27.213,38.342-52.229c1.543-9.212,1.59-18.751,0.28-28.336c-0.421-3.227-1.028-6.406-1.777-9.585
		c1.216-1.216,2.292-2.619,3.18-4.115c4.863-8.136,4.676-18.002,3.694-24.829c-1.496-10.567-5.611-20.433-11.83-28.616
		c0.421-6.219-0.421-13.233-4.115-18.423c-4.302-6.125-13.793-16.366-28.476-16.366c-1.917,0-3.834,0.187-5.751,0.515
		c-4.114,0.748-8.136,3.694-10.193,5.377c-3.74-0.608-13.326-2.01-27.026-2.01c-12.531,0.373-24.454,3.086-36.098,7.668
		c-14.729,5.798-30.299,20.621-32.591,38.108c-18.422,9.398-26.091,37.313-20.48,57.092c2.618,7.902,4.255,16.038,8.089,23.52
		c4.021,7.855,10.1,14.027,17.395,18.89c10.801,7.201,19.778,8.276,24.221,8.276c0.795,0,1.449-0.047,2.011-0.094
		c5.05,5.331,10.661,10.053,16.646,14.075c-0.421,2.01-4.442,27.12-5.33,30.72c-13.232,3.273-39.184,20.901-43.064,23.566
		c-0.047,0.047-3.507,2.432-3.647,2.619c-12.298,11.923-29.925,46.477-52.51,102.541c-2.244,5.611-30.299,81.033-30.299,81.033
		c-7.622,19.966,0.514,42.316,19.312,53.211l65.04,37.547c-1.59,7.715-6.593,31.889-10.053,42.597
		c-0.795,2.524,0.981,3.881,3.039,4.582c0.141,0.047,4.723,0.421,12.578,0.936c-2.806,26.839-4.208,157.389-4.255,163.093
		c0,1.964,1.543,3.554,3.507,3.554c1.917,0,3.507-1.543,3.507-3.46c0-1.402,1.449-137.656,4.255-162.813
		c5.05,0.28,10.895,0.562,17.44,0.748c6.453,20.387,16.413,42.924,27.588,65.088l-12.157,119.981l-136.769,188.297l-25.529-18.189
		c58.915-116.335,119.046-173.521,119.654-174.128c1.402-1.31,1.496-3.507,0.141-4.957c-1.31-1.402-3.507-1.449-4.957-0.14
		c-0.14,0.14-3.693,3.507-9.772,10.1h-132.747c-1.917,0-3.507,1.543-3.507,3.507v60.786c0,1.917,1.59,3.507,3.507,3.507h48.208
		v49.049c-0.748,1.263-1.496,2.572-2.291,3.882h-22.116c-1.918,0-3.508,1.589-3.508,3.507v43.952
		c-0.42,0.842-0.841,1.684-1.262,2.525c0,0-43.766,42.316-44.374,42.878c-1.31,1.215-3.413,3.179-3.787,6.172
		c-0.468,4.021,2.618,7.106,4.067,8.557c0,0,42.363,42.784,44.047,44.467c0,0,0.047,30.721,0.14,31.048h-156.126l15.617-2.618
		c1.777-0.281,3.039-1.871,2.899-3.694l-1.449-21.836c5.19,2.992,10.1,6.499,14.121,10.567c5.563,5.658,12.577,8.79,19.778,8.79
		c1.31,0,2.665-0.093,3.975-0.327l59.289-9.819c2.432-0.421,4.536-1.823,5.985-3.928c1.496-2.244,2.011-5.097,1.403-7.854
		l-0.702-2.993c-2.712-11.736-11.455-20.808-22.257-23.099c-11.689-2.479-28.242-9.071-45.262-25.998
		c-0.654-0.888-1.403-1.823-2.198-2.758c-5.33-6.173-10.146-14.729-14.448-25.017l-28.429-192.551c0,0-59.243-252.074-59.29-252.354
		c0.608,1.355,3.788-4.536,3.834-5.05c0.748-6.5,7.528-43.252,15.15-81.828l65.883,77.712c0.701,0.842,1.683,1.263,2.759,1.263
		c5.938,17.675,23.519,39.511,34.835,50.64c3.74,4.769,9.024,7.153,15.43,7.153c7.902,0,17.441-3.601,27.821-10.754
		c1.403-1.075,3.133-3.133,3.319-7.154c0.515-11.409-11.97-33.619-19.731-44.841c4.816,0.046,10.567,0.046,12.999-0.468
		c2.806-0.562,12.484-5.19,13.747-8.744c0.561-1.59,1.823-5.284-0.327-7.855c-2.151-2.571-5.846-1.964-7.669-1.684
		c-5.003,0.748-18.002-7.107-22.864-10.1c-2.432-1.496-3.601-2.244-4.489-2.571c-1.263-0.515-3.413-1.029-5.938-1.497
		c-0.047-0.794-0.327-1.636-0.889-2.244c0,0-59.57-66.116-59.663-66.209c-2.946-3.227-8.323,1.262-5.19,4.723
		c0,0,43.953,48.769,43.953,48.862c-11.503,10.896-23.707,21.322-36.285,30.954l-55.408-65.321c0,0,10.006-52.51,13.934-69.249
		c2.946-1.496,7.622-4.582,12.297-9.539l11.268,49.658c-3.646,0.888-7.154,2.291-10.521,4.115c-3.928,2.104-0.56,8.37,3.413,6.172
		c3.694-2.058,12.484-4.255,12.672-4.349c1.496-0.748,2.385-2.104,2.104-3.787c-0.046-0.233-13.372-58.915-13.372-58.915
		c1.31-2.058,2.618-4.302,3.74-6.733c9.118-19.405,11.082-54.427-31.047-111.238c-2.712-3.694-7.575-5.798-13.232-5.798h-1.683
		l-0.188-10.38c17.815-3.32,31.842-17.722,40.119-41.381c1.87-5.331,3.413-11.035,4.582-17.02
		c6.266-3.554,10.474-10.287,10.474-18.002c0-6.359-2.853-12.063-7.388-15.851c0-8.884-0.654-16.693-2.011-23.473
		c2.291-5.05,2.338-10.708,0.141-16.413c-4.208-10.988-15.711-20.106-24.501-23.192c-0.421-0.281-0.982-0.889-1.73-1.637
		c-4.91-4.816-17.02-16.038-40.352-20.339c-0.187-0.047,0-75.562,0-75.562c0-9.539-7.294-17.301-16.272-17.301h-4.723v-85.053
		c0-26.232-19.452-47.553-43.392-47.553H307.298c-23.894,0-43.392,21.322-43.392,47.553v518.083c0,1.964,1.59,3.507,3.507,3.507
		c1.964,0,3.507-1.543,3.507-3.507V407.384c0-22.351,16.319-40.54,36.378-40.54h571.995c20.059,0,36.378,18.189,36.378,40.54v176.98
		c-10.754,1.497-20.387,5.237-28.756,11.315c-12.812-6.265-29.177-6.78-42.41-1.216c-20.387,8.604-31.281,28.71-30.673,56.625
		c0.234,10.053,1.684,20.667,4.723,34.368c0.795,3.601,1.824,7.294,2.852,10.895c2.572,8.978,5.237,18.283,4.068,26.839
		c-1.917,14.308-15.617,24.548-26.839,30.58c-2.665,1.449-2.244,5.658,0.702,6.453c10.848,3.133,21.135,4.723,30.533,4.723
		c6.032,0,11.83-0.655,17.254-1.917c17.301-4.114,31.609-15.477,37.36-29.645c1.917-4.816,2.946-9.819,3.46-14.916
		c1.964,1.637,4.021,3.18,6.172,4.676c4.442,6.92,10.053,13.56,16.412,19.358c-0.327,10.708-2.759,20.761-4.255,26.185
		c-0.094-0.047-2.432-0.047-2.432-0.047c-7.294-0.14-22.444-0.421-35.489,4.583c-52.51,20.199-135.46,76.309-138.405,87.672
		c-7.247,28.336-17.955,86.409-24.221,121.572l-86.69-45.169c0,0-84.118-121.478-88.607-125.359
		c-0.234-0.187-22.444-10.38-23.286-10.38c0-0.842,0.047-1.73,0.093-2.712c3.32,0.233,6.64,0.42,9.959,0.42
		c30.112,0,50.64-27.073,53.258-53.632c0.281-3.086,2.245-17.768,2.525-20.761c0.094-0.421,1.543-6.827,1.543-7.294
		c1.169-1.263,2.151-2.665,2.993-4.162c2.104-3.788,3.086-7.996,3.835-11.596c2.712-13.045,3.927-26.418,3.694-39.792
		c1.075-0.935,2.01-1.963,2.852-3.039c4.255-5.564,8.089-17.722,3.32-27.354c-2.478-5.05-8.276-11.082-21.696-11.082
		c-1.73,0-3.554,0.14-5.424,0.328c-22.023-31.983-47.974-38.763-66.023-38.763c-26.185,0-49.33,13.888-59.757,26.793
		c-3.741,4.629-5.751,9.024-5.938,12.905c-10.521,5.143-45.636,27.12-22.631,84.305c5.705,14.215,22.164,38.482,43.485,47.553
		c0.187,1.964,0.234,7.201-0.047,8.042c-1.683,5.144-6.874,20.808-12.157,22.257c-0.14,0.047-27.213,2.244-41.802,4.816
		c-5.611,0.982-10.521,1.87-13.606,2.245c-0.094,0-0.234,0-0.375,0.046c-0.14,0-0.327,0.047-0.468,0.094
		c-0.046,0-0.14,0-0.187,0.047c-19.078,3.6-58.121,33.385-89.449,59.476v9.212c20.574-17.348,45.075-36.893,64.761-49.377
		c0.093-0.047,0.187-0.094,0.281-0.187c10.333-6.5,19.311-11.035,25.623-12.251c0.094-0.046,0.187-0.046,0.234-0.046
		c0.094,0,0.141,0,0.234-0.047c3.273-0.374,8.323-1.263,14.168-2.291c5.892-1.076,12.765-2.292,19.217-3.227l49.985,59.57
		l26.418-9.398c1.45,6.733,5.05,26.886,3.04,55.596c-2.525,35.677-13.514,79.816-13.654,80.377
		c-0.607,2.899,3.788,4.068,4.536,1.123c0.094-0.468,11.222-45.029,13.794-81.173c1.87-26.138-0.795-45.075-2.525-53.959
		l18.423,11.83l10.287-34.789c7.575,9.539,10.848,23.8,11.736,39.137c2.665,71.727-40.025,185.491-40.493,186.613
		c0,0-7.949,40.913-8.323,40.96c-8.323,0.842-35.116,1.824-88.701-11.689c-6.967-1.729-15.337-4.255-24.174-7.107
		c-0.608-2.15-1.496-4.114-2.478-5.704l-3.227-4.582c1.169,0.14,2.338,0.233,3.507,0.233c2.946,0,5.845-0.468,8.603-1.402
		c2.806-0.936,5.097-3.133,4.676-6.313c-0.327-2.759-2.384-4.629-3.273-5.33c-2.805-2.151-6.219-3.134-9.118-5.051
		c-2.946-1.917-5.003-4.816-7.201-7.949c-2.384-3.319-4.816-6.779-8.51-9.352c-2.338-1.636-5.518-3.787-8.884-5.704
		c0.749-1.403,24.969-108.76,32.965-133.261c15.711-10.333,27.821-18.938,29.785-22.304c0.982-1.684,0.421-3.741-1.216-4.77
		c-1.637-1.029-3.788-0.421-4.816,1.169c-1.262,2.01-8.697,7.481-20.012,15.056c0,0-19.686,12.812-25.249,16.319
		c-10.988,6.92-68.034,41.521-68.267,41.708c-1.029,1.075-1.31,2.665-0.608,4.021l21.742,42.597l17.909,35.162l-41.194,28.476v8.511
		l6.686-4.629c1.403,10.146,4.115,27.166,7.108,33.244c3.647,7.388,10.707,15.197,17.815,20.387
		c-0.561,0.468-0.982,1.076-1.169,1.824c-7.949,28.429-7.715,78.413-7.528,126.762c0.093,29.364-1.777,85.521-1.964,85.755
		c-2.572,2.712-13.513,14.963-20.948,23.753v11.129c3.694-4.629,28.149-32.45,28.289-32.824c0.187-0.468,0.28-0.889,0.28-1.356
		c-0.233-0.233,1.45-56.998,1.356-86.503c-0.188-47.834-0.421-97.304,7.248-124.845c0-0.047,0.047-0.094,0-0.141
		c0.794,0.421,5.331,2.245,6.686,2.479c-0.982,28.803,12.298,66.163,30.019,102.588l-20.62,124.751c0,0-53.024,66.21-53.258,66.537
		v8.184l57.653-72.757l19.779-119.514c13.232,26.278,28.476,51.715,41.989,72.849l-25.063,66.117l-1.777,4.723
		c-3.413,4.956-51.247,65.742-92.582,118.064v11.362c44.467-56.297,97.865-124.144,98.988-126.622l1.777-4.723l0.093-0.233
		l6.079-16.085c6.687,0.515,13.326,1.543,19.919,2.992c9.352,2.104,18.33,5.051,26.839,8.838
		c-2.057,27.12,0.094,95.621,47.273,218.549c0.421,0.981,1.169,1.729,2.104,2.011c0.187-0.328,0.281,0.14,0,0
		c-1.216,1.776-2.104,4.114-2.665,7.106c-3.694,20.715,7.435,43.813,12.063,52.276H307.298c-20.06,0-36.378-18.189-36.378-40.539
		V940.149c0-1.917-1.543-3.507-3.507-3.507c-1.917,0-3.507,1.59-3.507,3.507v652.467c0,17.113,8.323,32.169,20.761,40.539h-83.698
		c-1.917,0-3.507,1.59-3.507,3.507s1.59,3.507,3.507,3.507H1799.03c1.964,0,3.507-1.59,3.507-3.507
		C1802.537,1634.698,1800.994,1633.155,1799.03,1633.155z M1547.751,720.058c1.449,0,2.853,1.169,3.46,2.806l17.254,49.049
		c0.234,0.608,0,1.122-0.187,1.216l-7.528,2.618c-0.701,0.281-1.449,0.375-2.244,0.375c-3.414,0-6.78-2.572-8.09-6.313
		l-12.11-34.414c-2.104-5.985,0.374-12.298,5.518-14.121C1543.823,721.273,1547.424,720.058,1547.751,720.058z M1560.983,782.901
		c-0.187,0.795-0.421,1.543-0.795,2.291c-1.402,3.086-3.927,5.331-7.294,6.453c-6.359,2.01-13.653-2.151-15.851-8.931l-3.694-11.409
		c-0.094-2.011-0.701-6.686-0.748-7.107c1.309-1.87,2.945-4.676,5.283-8.837l5.938,16.786c2.291,6.593,8.229,10.988,14.683,10.988
		C1559.347,783.135,1560.188,783.088,1560.983,782.901z M1530.591,730.11c-2.104-0.093-4.255,0.468-6.266,1.683
		c-0.936,0.561-2.993,1.964-3.18,1.964l-2.151-6.64l21.136-15.617l1.075,3.319C1534.893,717.159,1530.965,723.237,1530.591,730.11z
		 M1585.578,545.742l87.953,118.439l-133.074,39.651h-0.047l-31.281-42.176L1585.578,545.742z M1504.125,666.66l30.066,40.493
		l-7.622,5.658l-29.317-41.054L1504.125,666.66z M1503.564,729.877c-4.629,3.46-10.1,5.284-15.805,5.284
		c-15.196,0-27.072-13.887-24.642-28.896c1.122-6.733,4.816-12.719,10.381-16.88l18.096-13.419l29.317,41.007L1503.564,729.877z
		 M1561.592,809.506c0,0-33.76-10.146-33.854-10.193c-3.272-1.823-5.564-3.507-6.733-4.957c-3.834-4.769-6.687-11.596-6.732-17.627
		c-0.094-4.536,1.309-9.212,2.197-13.607c0.842-4.302,1.917-8.603,3.413-12.765c1.543-4.302,3.834-10.1,8.043-12.531
		c2.244-1.309,4.676,0.889,5.189,2.619c1.497,5.237,0.281,7.856,0.281,7.856c-1.263,2.197-8.463,11.97-7.622,18.002
		c1.169,8.51,0.982,12.297-2.385,13.513c-1.776,0.701-2.712,2.712-2.058,4.535c0.515,1.403,1.871,2.292,3.273,2.292
		c0.421,0,0.842-0.094,1.263-0.234c1.73-0.654,3.133-1.543,4.161-2.619l0.328,1.076c2.805,8.557,10.427,14.308,18.983,14.308
		c1.964,0,3.881-0.281,6.032-0.982c4.956-1.637,8.931-5.19,11.175-10.006c1.169-2.431,1.777-5.05,1.87-7.668l2.198-0.795
		c2.571,14.402-4.489,23.706-8.931,29.645C1561.639,809.413,1561.592,809.459,1561.592,809.506z M1196.876,1434.432v-37.313h24.175
		C1213.335,1408.341,1205.246,1420.732,1196.876,1434.432z M1145.161,1390.105v-53.772h122.928
		c-10.286,11.643-24.828,29.271-41.521,52.931c-0.187,0.28-0.421,0.561-0.607,0.842H1145.161z M1091.717,1039.885
		c0.607,0.233,1.823,1.029,3.507,2.058c9.679,5.938,20.573,12.157,27.634,11.035c0.094,0,0.188,0,0.234-0.047
		c-1.637,1.402-6.64,4.161-8.511,4.535c-2.618,0.515-12.905,0.374-18.797,0.141c-1.59-0.141-2.852,0.795-3.413,2.197
		c-0.561,1.356-0.187,2.899,0.936,3.928c4.582,4.115,22.911,34.555,22.396,45.59c-0.046,1.122-0.28,1.684-0.373,1.776
		c-11.83,8.09-26.84,13.7-33.947,4.63c-12.391-12.111-29.551-34.134-33.993-49.892l35.397-27.681
		C1086.76,1038.669,1090.313,1039.324,1091.717,1039.885z M1069.834,1020.481l10.006,11.082l-38.108,29.831l-7.762-9.164
		C1034.11,1051.855,1058.472,1031.234,1069.834,1020.481z M1011.76,682.464c0.094-1.824,0.187-3.647,0.233-5.377
		c1.824,2.571,2.853,5.751,2.853,9.118c0,4.395-1.776,8.37-4.629,11.269C1010.965,692.564,1011.479,687.56,1011.76,682.464z
		 M566.059,723.892c-1.263,4.255-7.154,7.248-10.568,9.726c-9.492,6.92-19.591,2.571-30.206,2.198
		c-5.003-0.141-11.035,0.514-16.833,1.169c-6.079,0.654-12.391,1.355-17.347,1.028c-7.341-0.467-14.635-5.19-18.096-11.83
		c-2.011-3.741-1.777-10.333-1.59-15.617c0.047-1.356-0.281-9.024-0.281-9.071c-1.309-13.606,6.5-20.059,14.542-24.548
		c4.302-2.432,9.539-3.601,16.038-3.601c7.575,0,15.057,1.45,22.444,2.852c8.51,1.59,16.787,1.543,24.361-0.093
		c4.068-0.889,9.118-2.011,14.261-3.461c1.871,7.996,4.208,15.524,4.957,23.8c0.327,3.741,0.421,7.528,0.327,11.269
		C567.976,713.137,567.555,718.702,566.059,723.892z M578.076,666.753c-0.093,10.614-1.169,21.182-3.179,31.562
		c-0.608-8.884-2.245-17.768-5.003-26.231c-0.187-0.561-0.467-1.87-0.467-1.964c0.093-0.374,1.823-1.076,3.881-2.058
		c1.964-0.981,4.208-2.338,4.769-2.478V666.753z M432.19,695.229c-5.05,6.406-4.488,15.898,1.309,22.023
		c4.489,4.769,8.931,9.632,12.905,14.822c1.964,2.619,5.938,8.837,6.172,9.398c0.047,1.263,0.094,2.572,0.141,4.162
		c0.093,0.047,0.14,0.094,0.187,0.187c-0.047,0-0.141-0.047-0.234-0.093c-16.225-8.089-29.832-25.904-36.425-42.223
		c-21.135-52.556,10.053-71.259,19.685-75.608c3.507-0.514,6.827-0.561,10.38-0.749c13.092-0.701,19.171,2.338,19.452,2.338
		c2.572,0,3.179-3.6,0.841-4.535c-6.64-2.525-13.934-2.478-20.293-2.478c-2.291,0-4.676-0.14-6.92,0.234
		c-0.141-2.291,1.45-5.752,4.396-9.399c9.679-12.017,31.468-24.174,54.286-24.174c23.66,0,44.748,12.719,60.926,36.752
		l-13.981,7.107c-1.917,0.935-3.788,1.917-5.705,2.759c-13.607,5.985-29.551,6.5-43.719,1.356c-2.852-1.028-4.442,3.414-1.589,4.442
		c7.014,2.479,14.401,3.741,21.742,3.741c8.744,0,17.441-1.777,25.437-5.284c5.752-2.525,11.409-5.424,16.973-8.323
		c2.385-1.169,4.957-3.507,7.341-4.301c3.133-1.122,8.463,0.186,11.55,1.169c11.222,3.507,11.596,17.908,5.283,26.185
		c-7.528,9.819-24.034,12.063-35.302,14.495c-15.337,3.32-30.019-2.899-45.309-2.899c-13.794,0-29.411,6.827-35.349,20.294
		c-2.665,5.985-2.058,11.409-1.917,17.768c0.187,7.014-0.982,14.261,0.982,21.135c2.478,8.697,9.96,15.57,18.61,18.143
		c13.186,3.927,27.26-1.497,41.007-0.748c6.873,0.374,13.7,2.338,20.574,1.777c7.154-0.561,14.074-3.928,18.937-9.258
		c-0.561,10.848-2.852,21.79-7.902,31.422c-5.096,9.632-13.186,17.908-23.285,22.023c-11.97,4.91-25.577,3.647-38.295,1.169
		c-10.614-2.057-21.883-5.47-28.335-14.121c-4.723-6.406-6.032-14.682-6.64-22.584c-0.842-11.035-0.515-22.07-0.28-33.105
		c0.187-9.866,2.244-19.592-5.144-27.213C448.555,686.719,437.473,688.542,432.19,695.229z M452.623,728.801
		c-3.507-4.629-8.089-10.006-14.027-16.319c-3.367-3.6-3.741-9.258-0.889-12.952c1.637-2.057,4.489-3.414,7.294-3.414
		c4.302,0,5.985,3.507,7.949,6.687C453.184,707.62,452.67,725.669,452.623,728.801z M471.139,846.539l-46.01-54.754
		c5.985-0.748,11.222-1.122,14.449-0.654c3.554,5.144,15.29,17.067,52.229,48.068L471.139,846.539z M495.968,833.54
		c-21.509-18.095-43.438-37.64-49.471-44.607c4.208-3.086,7.481-9.164,10.287-16.318c6.312,16.365,24.782,23.099,43.532,25.483
		c-0.374,5.845,0.141,9.819,2.058,12.064C502.374,810.675,498.914,824.235,495.968,833.54z M516.962,849.158l-15.43-9.913
		c6.125-19.077,7.996-26.231,8.417-29.224l16.226,7.575l0.046,0.047L516.962,849.158z M1004.652,1626.001l-8.557-32.169
		c5.003,1.683,11.596,4.067,18.329,7.34l1.543,22.959L1004.652,1626.001z M1061.37,1564.187c0.141-0.374,0.28-0.701,0.421-1.075
		c15.057,12.438,29.411,17.814,40.025,20.105c6.92,1.45,12.718,6.641,15.617,13.701c0,0-61.16,10.146-61.487,10.193
		c-2.712,0.467-2.432,4.629,0.374,4.629c0.141,0,62.517-10.287,62.517-10.287l0.561,2.572c0.28,1.168-0.141,3.039-1.684,3.272
		l-59.289,9.819c-0.936,0.141-1.87,0.233-2.806,0.233c-5.283,0-10.521-2.385-14.775-6.687
		c-13.935-14.168-36.986-21.695-46.852-24.875c-1.496-0.515-3.133-1.028-3.928-1.355c-6.64-8.838-2.899-27.962,3.413-38.482
		c2.712,2.759,6.078,5.471,9.679,7.901c-4.115,7.435-5.845,16.553-4.723,25.297c0.374,2.946,5.003,2.385,4.676-0.608
		c-0.982-7.621,0.421-15.617,3.975-22.116c7.902,4.862,16.038,8.557,20.106,9.726c8.837,2.525,16.038,3.834,21.509,3.834
		C1055.339,1569.984,1059.641,1568.021,1061.37,1564.187z M1050.522,1552.17c4.489,5.189,4.91,8.229,4.489,9.117
		c-0.375,0.748-2.245,1.684-6.313,1.684c-4.816,0-11.362-1.216-19.592-3.554c-8.09-2.291-25.297-11.97-31.936-19.685l38.809-12.018
		C1040.329,1537.628,1045.146,1545.951,1050.522,1552.17z M996.563,1290.697l9.538,40.633l27.962,189.605l-49.049,15.196
		c-52.697-125.968-42.924-201.202-42.784-201.95c0.094-0.701-0.047-1.355-0.327-2.01c-5.471-11.503-33.198-70.231-40.352-84.82
		l22.07-90.898l12.998-42.316c-0.328-0.981-1.122-1.776-2.151-2.104c-1.871-0.562-3.834,0.421-4.442,2.244l-13.186,40.259
		l-95.06,377.527l-47.132-2.806c0.047-0.888,0.047-1.776,0.094-2.618h-0.094c5.05-160.147,35.443-217.613,35.724-218.175
		c0.28-0.514,0.468-1.122,0.468-1.683c0-0.141,1.215-54.802,1.122-60.6c-0.328-41.241-3.039-77.665-8.183-108.76
		c-0.655-4.068-2.525-9.024-4.723-14.729c-4.208-11.082-9.305-24.502-8.978-39.044c0.14-9.398,2.525-19.311,8.931-29.317
		c14.962,11.456,66.677,21.743,77.338,23.426c8.183,1.263,15.571,2.245,22.21,2.946c9.913,1.028,18.189,1.449,25.063,1.449
		c10.894,0,18.376-1.028,23.379-2.244L996.563,1290.697z M825.054,1562.082c2.993,5.799,2.852,8.885,2.291,9.82
		c-0.421,0.701-1.871,0.841-2.665,0.841c-3.227,0-9.632-1.496-22.164-8.604c-7.668-4.302-23.192-18.844-27.073-27.821l42.831,2.572
		C819.489,1547.774,821.687,1555.583,825.054,1562.082z M953.966,1073.504c0.093-0.047,0.14-0.094,0.14-0.094
		C954.013,1073.645,953.966,1073.645,953.966,1073.504z M1004.793,682.043c-0.374,6.359-1.122,12.671-2.198,18.75
		c-0.046,0.328-0.14,0.702-0.186,1.029c-1.122,0.281-2.338,0.421-3.601,0.421c-8.837,0-15.991-7.201-15.991-16.038
		s7.154-16.038,15.991-16.038c2.244,0,4.395,0.468,6.313,1.262C1005.12,674.749,1005.026,678.349,1004.793,682.043z
		 M998.808,665.491c-11.409,0-20.667,9.305-20.667,20.714c0,0.888,0.047,1.73,0.187,2.572l-1.589,0.093l-1.496-6.873
		c-0.421-1.871-2.292-3.086-4.162-2.665c-1.917,0.421-3.086,2.291-2.665,4.162l1.263,5.845l-2.338,0.14
		c-0.094-11.362-9.305-20.527-20.714-20.527c-9.492,0-17.488,6.359-19.919,15.103l-15.477-4.442
		c4.489-6.546,17.768-22.631,39.511-21.042c3.6,0.281,7.622,0.982,11.877,1.73c5.938,1.029,12.11,2.104,18.049,2.104
		c8.557,0,16.646-3.32,23.473-8.417c0.514,3.834,0.794,7.995,0.935,12.484C1003.063,665.818,1001.006,665.491,998.808,665.491z
		 M962.664,689.665c0,8.837-7.154,16.039-16.038,16.039c-8.837,0-16.038-7.201-16.038-16.039c0-8.838,7.201-16.038,16.038-16.038
		C955.509,673.627,962.664,680.827,962.664,689.665z M922.685,499.452h4.723c5.097,0,9.258,4.629,9.258,10.287v74.439
		c-4.816-0.515-9.492-0.701-13.981-0.468V499.452z M877.984,730.765c-4.909,12.11-17.347,21.837-32.45,25.437
		c-10.661,2.525-22.771,2.291-36.191-0.655c13.606-9.025,21.556-19.779,23.099-31.422c1.356-10.006-1.496-20.013-4.302-29.691
		c-1.029-3.647-2.011-7.107-2.759-10.521c-2.899-13.232-4.302-23.379-4.536-32.964c-0.374-17.581,3.881-40.54,26.418-50.032
		c10.287-4.395,22.958-4.442,33.573-0.233c-2.338,2.104-4.489,4.349-6.453,6.78c-0.281-0.374-0.608-0.655-1.076-0.841
		c-14.635-5.424-29.364,0.841-38.529,16.412c-1.496,2.572,2.478,4.957,4.068,2.385c7.902-13.466,20.434-18.984,32.778-14.401
		c-10.24,13.84-15.524,31.562-15.01,50.873c0.515,18.142,9.305,36.004,24.642,50.733
		C881.117,718.982,880.322,725.107,877.984,730.765z M863.629,661.703c-0.702-24.595,8.884-46.291,26.325-59.523
		c10.1-7.715,22.444-11.596,36.612-11.596c5.237,0,10.754,0.514,16.458,1.589c9.398,1.73,16.646,4.723,22.257,7.856
		c5.237,2.946,9.96,6.733,14.214,10.988c0.654,0.654-4.583,5.097-5.144,5.518c-5.237,3.694-11.736,5.143-17.909,6.406
		c-1.963,0.374-7.247,0.327-6.64,3.6c0.375,2.104,2.385,1.917,3.975,1.637c10.053-1.823,23.426-4.302,29.551-14.354
		c7.481,2.759,17.02,10.38,20.387,19.17c5.564,14.496-11.082,22.397-23.052,22.397c-5.33,0-11.175-1.029-16.833-2.01
		c-4.442-0.795-8.603-1.497-12.578-1.824c-23.66-1.73-38.295,13.747-44.514,22.21c-4.115-5.658-10.053-7.808-15.009-7.808
		c-11.035,0-17.3,10.427-13.42,20.48c2.712,7.014,5.05,10.661,7.107,13.887c2.011,3.179,3.834,6.032,5.798,11.83
		C874.056,697.894,864.144,679.892,863.629,661.703z M900.849,720.666c0-0.094-6.406-19.218-9.492-24.081
		c-2.011-3.133-4.021-6.313-6.5-12.672c-1.216-3.179-1.169-5.892,0.188-7.855c1.356-1.964,3.834-3.086,6.686-3.086
		c3.975,0,9.024,2.338,11.362,8.931c0.467,1.309,1.683,2.198,3.039,2.291c0.795,0.094,1.544-0.093,2.151-0.514l17.675,5.05
		c-0.047,0.281-0.047,0.608-0.047,0.935c0,11.409,9.305,20.714,20.714,20.714c9.913,0,18.142-6.92,20.2-16.179l3.88-0.234
		l3.647,16.693c-3.133,0.281-6.312,0.046-7.107-0.561c-1.449-1.263-3.694-1.076-4.91,0.421c-1.262,1.496-1.075,3.694,0.421,4.956
		c2.198,1.824,5.705,2.338,8.884,2.338c2.525,0,4.816-0.327,6.079-0.514c1.684-0.514,3.039-1.824,3.647-3.601
		c0.608-1.589,0.514-3.319-0.233-4.816l-3.367-15.384l1.683-0.093c2.899,7.902,10.474,13.513,19.358,13.513
		c0.889,0,1.73-0.047,2.572-0.187c-0.982,4.255-2.151,8.323-3.507,12.204c-4.91,13.981-16.786,37.407-41.662,37.407
		C935.918,756.342,913.801,739.696,900.849,720.666z M957.707,796.975c-0.561,0.748-1.59,1.684-4.021,1.684
		c-5.471,0-17.067-4.489-41.381-25.671c1.31-4.208,3.928-13.747,4.863-24.922c11.923,9.211,25.67,15.29,39.043,15.29
		c0.374,0,0.748,0,1.122-0.047l0.374,14.168C959.297,782.947,960.653,793.047,957.707,796.975z M736.727,862.717
		c7.06-6.873,83.043-61.861,134.15-82.949c6.64-2.759,14.261-3.601,20.761-3.928c7.996,9.492,37.173,35.77,51.527,40.259
		c4.396,1.402,9.258,2.758,14.121,2.758c2.525,0,5.097-0.374,7.575-1.262c7.856-2.899,13.327-10.427,12.952-17.956
		c-0.046-1.309-1.216-2.385-2.431-2.244c-1.309,0.047-2.292,1.169-2.245,2.432c0.281,5.471-3.974,11.222-9.866,13.373
		c-5.938,2.151-12.765,0.328-18.657-1.543c-12.531-3.928-37.313-25.811-46.992-36.051c2.385-0.046,7.107,0.047,7.107,0.047
		l1.216,1.076c22.07,19.498,37.687,28.943,47.74,28.943c5.143,0,8.089-2.432,9.632-4.489c4.302-5.705,2.899-21.182,2.899-21.182
		c3.366,0,6.219,1.122,7.575,2.946c28.71,38.716,40.119,72.242,33.059,96.977c-5.611,19.592-20.995,27.213-22.024,27.728
		c-1.168,0.327-2.104,1.309-2.384,2.525c-4.676,19.639-31.188,154.255-31.702,161.176c-0.094,0.047-0.187,0.094-0.281,0.14
		c-3.601,1.637-15.617,5.378-46.337,2.713c-7.668-0.655-16.506-1.777-26.699-3.367c-30.627-4.909-73.691-17.487-75.749-23.285
		c2.806-7.996,20.2-36.659,29.505-48.629c1.543-1.963,3.039-3.834,4.489-5.657c20.526-25.858,31.935-40.259,23.706-141.771
		c7.435-3.18,12.672-5.284,14.121-5.564c1.917-0.28,3.227-2.057,2.946-3.975c-0.28-1.917-2.057-3.226-4.021-2.946
		c-4.769,0.749-34.976,14.495-52.557,22.631c-24.408,11.268-36.425,16.926-42.363,20.153c-0.094-0.094-15.243-10.147-15.243-10.147
		c-1.59-1.029-3.788-0.608-4.863,1.028c-1.075,1.59-0.608,3.788,0.982,4.863l13.42,8.837
		c-0.047,0.188-17.348,103.897-17.348,103.897c-9.164,0.982-18.61,0.608-27.727,0.28c-5.003-0.187-10.1-0.374-15.243-0.374
		C717.509,956.234,729.105,892.596,736.727,862.717z M710.683,994.856c5.284-0.047,10.661,0.188,15.851,0.374
		c4.77,0.187,9.632,0.374,14.495,0.374c4.208,0,8.463-0.141,12.625-0.561l-2.291,13.56h-43.111
		C708.813,1005.518,709.607,1000.748,710.683,994.856z M711.15,1015.617h43.158c0.094,0,0.234,0,0.328-0.047
		c0.327,1.076,0.654,2.479,0.982,4.115c-5.518,1.075-10.521,5.471-13.045,11.596l-13.139,32.076
		c-1.777,4.255-2.104,8.838-0.935,12.905c0.515,1.777,1.262,3.367,2.245,4.723c-2.338,2.245-5.05,3.601-6.827,2.618
		c-0.14-0.093-33.806-12.718-33.806-12.718c-1.73-1.684-2.104-9.913,0.046-19.124c0.515-2.244,1.169-4.536,2.058-6.827
		c0.982-2.759,2.292-5.518,3.834-8.089C698.712,1032.497,705.586,1023.146,711.15,1015.617z M758.236,1026.418
		c0.748,0,1.45,0.141,2.151,0.422l6.827,2.805c1.216,0.468,1.824,2.759,0.842,5.097l-18.002,44c-1.029,2.479-3.04,3.554-4.209,3.039
		l-6.827-2.806c-1.777-0.701-3.133-2.338-3.788-4.629c-0.701-2.571-0.467-5.518,0.655-8.369l13.139-32.076
		C750.848,1029.505,754.636,1026.418,758.236,1026.418z M539.875,938.419c0.748-2.899,13.934-53.398,7.247-91.974l65.088,93.376
		c0,0-7.061,8.37-7.107,8.417c-2.899,3.413,2.384,7.949,5.377,4.535l7.014-8.323l86.924,45.262
		c-2.291,13.045-3.741,21.508-3.788,21.79c-0.14,1.028,0.141,2.057,0.795,2.852c0.328,0.374,0.748,0.702,1.216,0.935
		c-4.956,6.78-10.24,14.074-12.578,17.908c-1.637,2.665-2.992,5.564-4.162,8.604c-44-22.022-97.257-49.704-102.634-55.549
		c0,0-43.485-47.553-43.485-47.6C539.828,938.606,539.828,938.513,539.875,938.419z M507.892,1049.657
		c1.87-4.956,19.405-51.2,30.159-102.4l40.072,43.766c7.06,7.715,71.914,40.68,105.627,57.56c-2.197,8.51-2.571,16.973-1.215,22.21
		c0.795,3.039,2.244,5.19,4.208,6.313c0.188,0.047,34.041,12.812,34.041,12.812c1.355,0.655,2.852,1.029,4.395,1.029
		c4.208,0,8.136-2.525,11.082-5.518c0.047,0,0.047,0.047,0.094,0.047l6.827,2.805c1.029,0.422,2.151,0.655,3.273,0.655
		c4.208,0,8.229-3.039,10.1-7.528l18.002-43.999c2.385-5.845,0.28-12.204-4.676-14.262l-6.827-2.806
		c-0.046-0.047-0.14-0.047-0.187-0.094c-0.748-4.161-1.684-7.809-2.852-9.959l-1.076-4.63l19.545-116.475
		c7.949-4.395,48.488-23.379,74.112-34.741c7.575,96.602-3.179,110.209-22.444,134.477c-1.449,1.824-2.945,3.694-4.488,5.705
		c-8.884,11.456-25.624,41.007-30.487,50.172c-7.669,14.401-12.391,26.465-12.11,38.716c0.281,14.916,5.424,28.522,9.445,39.043
		c2.057,5.377,3.787,10.006,4.349,13.42c5.19,31.375,7.902,68.36,8.089,110.35c0.046,5.798-1.123,58.495-1.169,59.57
		c-0.421,0.842-1.122,2.244-2.011,4.349c-14.963-5.004-30.908-7.622-47.413-7.622c-15.384,0-30.72,2.385-45.542,7.107
		c-38.435,12.157-69.81,38.529-88.373,74.299c-18.563,35.771-22.117,76.591-9.96,115.025c5.985,18.891,15.337,35.958,27.447,50.499
		c-5.657,1.31-13.045,1.964-22.069,1.964c-17.348,0-35.443-2.478-40.446-3.272l-3.18-4.255l-34.508-213.172l-38.295-239.356
		L507.892,1049.657z M625.255,1558.248c-0.749,1.543-1.824,2.853-2.666,3.694c-4.115,4.255-10.053,6.967-16.272,7.388
		c-5.097,0.374-31.094-3.32-43.532-5.611c5.752-5.657,9.773-7.901,11.222-8.604c4.676,0.748,23.379,3.414,41.849,3.414
		C619.176,1558.529,622.356,1558.436,625.255,1558.248z M304.446,936.128c13.326-7.902,46.431-27.728,73.317-44.935
		c-8.557,28.055-27.681,119.233-27.821,119.842c-0.702,1.543-1.45,2.992-2.198,4.396c-1.216-0.468-2.385-0.842-3.507-1.076
		C344.19,1014.121,304.446,936.128,304.446,936.128z M339.561,1099.222c-2.899-0.748-5.658-2.572-8.042-4.302
		c-5.798-4.115-12.578-10.708-16.319-18.33c-2.712-5.377-5.518-24.127-6.92-34.601c5.518-3.788,27.681-19.078,29.131-20.06
		c1.636-1.122,1.73-0.936,3.507-1.028c3.32-0.141,10.38,3.554,18.002,8.931c2.758,1.917,4.956,4.582,6.827,7.715
		c2.431,4.162,4.816,7.855,9.118,9.772c1.169,0.515,7.248,4.77,8.323,4.489c-6.546,1.823-14.121,0.187-18.844-4.209
		c-2.011-1.87-6.172-0.514-5.284,2.292c0.561,1.823,2.665,3.787,3.787,5.33l8.837,12.531c1.73,2.853,4.302,10.38-0.14,12.157
		l-30.299,19.451C340.824,1099.455,340.263,1099.408,339.561,1099.222z M449.537,1345.918c-8.276-3.506-16.926-6.312-26.044-8.369
		c-6.219-1.403-12.531-2.385-18.844-2.945l14.635-38.529c15.15,23.239,27.401,40.071,31.048,45.075
		C450.098,1342.225,449.817,1343.814,449.537,1345.918z M457.486,1341.242c0.28-1.028,0.046-2.15-0.561-2.992
		c-0.421-0.561-15.57-20.947-34.507-50.452c-1.544-2.385-48.396-85.194-48.629-85.755c-16.974-35.303-29.271-70.839-27.728-97.444
		l28.85-18.563c2.665-1.263,4.536-3.46,5.377-6.405c0.28-0.842,0.42-1.684,0.514-2.572c9.726,3.133,17.675,5.424,21.649,6.453
		c9.398,2.385,17.956,4.302,25.764,5.892c-0.187,11.362-4.349,22.396-11.643,30.673c-2.244,2.572-4.676,4.863-7.294,6.874
		c-7.294,5.657-15.805,8.978-25.016,9.726c-2.712,0.233-2.758,4.676,0.188,4.676h0.186c9.165-0.748,17.675-3.787,25.109-8.931
		l80.378,197.227c0,0,36.377,190.774,36.471,191.382c0.561,2.946,5.19,2.198,4.629-0.888l-36.611-191.804l-81.032-198.863
		c2.291-1.87,4.442-3.974,6.499-6.313c7.855-8.931,12.391-20.714,12.765-32.824c23.566,4.489,39.464,5.658,49.564,5.658
		c4.816,0,8.229-0.28,10.567-0.562l37.828,236.457l31.374,194.048l-68.734,18.376
		C443.131,1402.684,457.346,1341.851,457.486,1341.242z M495.033,1548.756l67.894-18.142l2.525,15.664l-63.966,19.919
		C499.241,1560.259,497.09,1554.414,495.033,1548.756z M562.365,1554.602c-5.284,4.441-12.111,11.596-19.639,22.911
		c-1.45,2.198-7.388,4.536-15.43,4.536c-7.388,0-16.693-2.198-20.995-8.276l-0.421-1.59L562.365,1554.602z M510.697,1623.663
		c0,0,163.14-48.208,163.42-48.301c2.852-0.842,1.543-5.331-1.355-4.489l-138.872,41.054c-1.59-3.319-3.881-6.359-6.687-9.118
		c-2.197-2.15-5.424,1.217-3.273,3.367c2.291,2.15,4.068,4.535,5.424,7.107l-20.574,6.078c-2.805-6.687-5.704-15.196-6.64-23.894
		c5.564,0.982,10.895,3.04,15.524,5.845c2.525,1.543,5.003-2.432,2.431-3.975c-5.424-3.319-11.689-5.61-18.235-6.687
		c-0.094-2.898,0.093-5.751,0.608-8.509c0.093-0.608,0.233-1.123,0.374-1.638c5.377,5.425,14.215,8.558,24.455,8.558
		c7.434,0,17.487-2.011,21.275-7.669c3.741-5.611,7.247-10.053,10.38-13.606c10.801,2.244,38.716,6.406,46.665,6.266
		c8.417-0.188,15.43-3.787,20.34-8.884c2.244-2.338,3.694-4.816,4.348-7.341c7.294-0.749,13.139-2.104,17.441-4.115
		c3.507-1.637,6.873-2.479,10.006-2.479c15.618,0,23.66,20.761,26.232,28.896c-4.629,1.31-165.759,49.144-169.827,50.313
		C513.269,1628.854,512.053,1626.516,510.697,1623.663z M529.868,1633.155c2.058-0.654,159.259-47.18,159.353-47.226
		c3.6-1.31,2.618-3.694,2.478-4.162c-0.328-1.543-9.071-37.547-33.947-37.547c-4.068,0-8.276,0.982-12.671,2.992
		c-12.344-14.354-21.93-31.328-27.915-50.265c-11.596-36.659-8.23-75.608,9.492-109.695c17.722-34.087,47.647-59.243,84.259-70.839
		c14.167-4.489,28.756-6.78,43.438-6.78c15.524,0,30.58,2.479,44.747,7.107c-7.715,20.106-22.117,67.894-28.709,157.015
		c-1.169,15.243-2.057,31.749-2.619,49.471c0,0.842,0.748,12.344,0.234,12.812c-11.549,10.193-22.35,33.012-15.29,47.086
		c0.421,0.841,0.982,1.402,2.525,2.385l1.076,41.101c0.047,1.823,1.449,3.272,3.273,3.413l17.768,1.263h0.234
		c1.683,0,3.18-1.216,3.46-2.946l3.647-21.603c4.349,4.115,8.323,8.697,11.315,13.607c3.881,6.452,9.492,10.941,15.945,12.812
		H529.868z M762.351,1589.903c4.442,2.806,10.333,6.687,16.178,11.409l-3.881,22.725l-11.409-0.795L762.351,1589.903z
		 M879.948,1628.573c0,1.496-1.028,2.759-2.244,2.759l-60.085-4.256c-6.219-0.42-11.923-4.208-15.617-10.38
		c-10.24-17.02-30.954-29.691-39.792-35.069c-1.31-0.841-2.806-1.729-3.507-2.197c-4.396-10.146,3.694-27.868,12.25-36.658
		c1.964,3.319,4.629,6.779,7.575,10.006c-5.751,6.266-9.492,14.683-10.427,23.426c-0.141,1.263,0.795,2.432,2.104,2.572h0.234
		c1.169,0,2.197-0.889,2.338-2.104c0.841-7.575,4.021-14.963,8.978-20.48c6.453,6.5,13.513,11.924,17.301,14.075
		c11.128,6.266,19.732,9.492,25.623,9.492c5.05,0,7.481-2.292,8.65-4.209c0.046-0.047,0.093-0.14,0.093-0.187
		c11.783,15.617,24.455,24.174,34.274,28.85c6.359,3.039,10.801,9.445,11.97,16.974l-62.142-4.396
		c-1.309-0.094-2.384,0.888-2.478,2.15c-0.094,1.31,0.888,2.432,2.151,2.525l62.796,4.442L879.948,1628.573z M870.737,1597.899
		c-8.043-3.834-18.236-10.521-28.102-22.117c21.883-15.804,38.856-37.032,49.564-61.206v-20.34
		c-8.931,30.299-27.728,57.232-53.866,76.076c-1.87-2.525-3.741-5.284-5.564-8.23c-0.421-1.028-0.935-2.104-1.496-3.179
		c-2.806-5.518-4.77-12.157-5.985-19.732c1.215-0.327,2.244-1.263,2.571-2.525l43.205-167.161
		c8.791,12.064,15.665,25.765,20.387,40.633c0.28,0.842,0.514,1.73,0.748,2.572v-20.34c-5.05-11.362-11.409-21.977-18.844-31.562
		l25.624-102.775c4.957,10.287,10.427,21.883,16.693,35.115c0.14,0.234,0.234,0.515,0.374,0.795v298.693
		c0,19.872-12.905,36.471-29.878,39.885c0-0.047,0.047-0.047,0.047-0.094c0.467-1.169,0.748-2.479,0.748-3.787l0.046-3.087
		C887.102,1613.517,880.743,1602.669,870.737,1597.899z M902.345,1633.155c12.391-8.37,20.714-23.426,20.714-40.539v-283.917
		c3.741,7.948,7.762,16.459,12.063,25.576c-1.169,10.053-7.434,84.493,44.654,207.514c0.561,1.356,1.871,2.151,3.227,2.151
		c0.374,0,4.302-1.169,4.302-1.169c-7.809,13.232-11.69,35.489-2.245,46.665c0.608,0.748,1.31,1.122,2.993,1.776l10.661,39.698
		c0.281,0.981,0.935,1.823,1.823,2.244H902.345z M1449.792,848.175c0.515,1.544,4.255,12.625,4.91,14.916
		c2.104,7.061,4.068,14.869,5.798,23.239c0.234,1.075,1.356,12.11,1.402,12.25c10.193,64.573,8.137,134.431,8.09,135.506
		c0,0,0,54.988,0.14,55.408c1.777,4.583,5.845,23.707,7.949,33.854c-0.515,0.141-1.028,0.28-1.543,0.421l-8.978-26.372
		c0,0-3.975-74.393-9.633-128.118l-4.815-100.53l-18.002-49.237C1435.578,820.121,1443.293,829.238,1449.792,848.175z
		 M1425.759,807.636l22.678,61.721l2.011,42.223c-2.853-17.815-6.173-33.386-9.913-44.561c-4.77-14.262-23.613-49.845-31.188-63.966
		L1425.759,807.636z M1433.895,869.264c17.066,50.967,25.249,201.763,26.465,225.609l-7.855,1.122
		c-5.798-25.904-42.597-190.587-52.883-217.707c-6.406-16.974-27.494-39.932-44.608-56.671c5.564,1.029,11.223,1.497,16.927,1.497
		c7.435,0,14.869-0.842,22.117-2.525c5.798-1.356,10.193-3.039,13.84-5.283C1416.641,831.857,1430.106,857.995,1433.895,869.264z
		 M1431.089,636.033c3.507,5.985,5.892,12.765,6.874,19.732c0.748,5.471,0.981,13.186-2.338,19.405
		c-0.468-1.589-1.029-3.179-1.59-4.723c-2.9-7.949-6.079-15.056-9.445-21.462C1427.441,645.01,1429.64,640.568,1431.089,636.033z
		 M1319.43,741.753c-2.852,0.187-11.035,0.094-21.742-7.061c-10.1-6.733-15.805-17.02-19.592-28.289
		c-3.461-10.38-5.705-20.34-3.741-31.282c2.058-11.315,7.949-23.8,19.125-28.523c1.215-0.514,2.057-1.683,2.104-2.993
		c1.075-15.523,15.104-28.897,28.383-34.18c12.391-4.863,25.202-7.435,38.528-7.107c7.435,0.234,15.01,2.151,22.351,2.151
		c1.122,0.234,2.338-0.093,3.133-0.888c3.648-3.367,7.482-5.19,12.484-5.19c10.567,0,22.912,8.65,25.109,19.312
		c2.338,11.409-2.618,24.829-12.344,33.526c-9.96,8.791-25.297,9.96-38.856,10.988c-2.291,0.188-4.488,0.374-6.687,0.561
		c-19.825,1.824-35.256-0.28-48.302-6.546c-3.646-1.73-6.826,3.273-3.74,5.845c9.118,7.528,13.092,18.282,18.329,28.476
		c1.59,3.273,0.889,6.453-0.187,8.23c-1.45,2.338-2.479,1.122-4.302-0.047c-1.964-1.262-4.021-2.384-6.267-3.086
		c-7.948-2.572-18.796,1.543-19.545,10.801c-0.654,8.51,8.323,17.207,14.121,21.883
		C1319.243,731.186,1321.814,737.873,1319.43,741.753z M1325.836,744.699c4.488-8.463-2.011-19.872-2.291-20.434
		c-0.234-0.374-0.515-0.701-0.842-0.982c-7.622-5.985-12.345-12.391-12.017-16.271c0.046-0.608,0.187-2.525,3.319-4.302
		c3.881-1.824,7.996-0.795,13.326,3.086c1.402,1.029,2.992,1.543,4.629,1.543c3.039,0,5.892-1.777,7.809-4.91
		c2.104-3.414,3.367-9.165,0.468-14.963c-0.842-1.683-1.637-3.46-2.479-5.284c-2.15-4.676-4.441-9.726-7.762-14.682
		c11.035,2.899,23.566,3.601,38.342,2.245c2.151-0.187,4.349-0.327,6.593-0.515c14.636-1.122,31.235-2.384,42.925-12.765
		c0.608-0.561,1.263-1.122,1.823-1.73c2.712,5.471,5.284,11.502,7.762,18.142c2.572,6.874,4.349,14.167,5.378,21.415
		c1.262,8.884,1.169,17.721-0.234,26.232c-3.693,22.865-16.085,39.932-33.946,46.805c-5.191,2.01-10.941,3.039-17.113,3.039
		C1361.56,770.37,1341.032,760.363,1325.836,744.699z M1397.563,797.676c-13.467,6.733-27.588,7.061-42.13,4.209
		c-1.31-0.281-18.002-4.022-17.44-5.985c0.889-3.227,4.629-26.699,5.05-29.224c12.11,6.827,25.437,10.708,38.482,10.708
		c3.554,0,6.967-0.328,10.287-0.888C1392.56,779.254,1397.563,796.928,1397.563,797.676z M1336.871,803.334
		c9.164,4.816,25.437,7.388,36.331,7.388c3.74,0,7.014-0.281,9.679-0.842c10.755-2.244,14.074-3.974,17.955-5.985
		c0.234-0.141,0.468-0.234,0.748-0.374c1.029,1.87,2.432,4.489,4.115,7.668c-3.227,2.057-7.248,3.553-12.718,4.816
		c-14.589,3.413-29.926,3.18-44.374-0.514c-5.19-4.91-9.68-9.024-12.859-11.83L1336.871,803.334z M1325.368,803.241
		c0.187,0.608,57.232,49.751,67.706,77.525c4.676,12.344,15.337,55.456,25.857,100.297l-47.179-100.811l-55.129-72.475
		C1319.71,806.046,1322.703,804.456,1325.368,803.241z M1224.65,1050.405c-15.804-9.164-22.678-27.914-16.271-44.607
		c0.047-0.141,54.38-154.863,81.172-181.095c4.957-3.413,14.074-9.398,23.006-14.588l55.034,72.382l56.578,120.777
		c10.942,47.085,20.667,90.664,21.977,96.696l-7.061,31.281c-10.474,1.496-21.79,2.712-33.76,3.601l12.858-23.099
		c1.776-2.338,2.338-5.237,1.684-8.276c-1.216-5.471-6.219-10.381-10.567-12.719l-5.471-2.571c4.067-1.59,7.809-4.021,10.707-7.107
		c0.702-0.748,1.684-1.917,2.104-3.741c0.936-3.974-3.227-6.826-6.64-7.294c-2.338-0.327-9.586,0.094-10.941,0
		c-3.741-0.28-7.201-1.87-10.801-3.601c-3.882-1.776-7.855-3.646-12.578-4.161c-3.835-0.421-13.046-0.374-18.984-0.28l0.842-1.964
		c0.701-1.684,0.047-3.554-1.543-4.442l-51.621-28.943c0.047-2.479,0.888-72.99,1.543-75.047
		c14.495-29.972,28.242-60.178,27.961-66.35c-0.093-1.917-1.776-3.367-3.6-3.32c-1.917,0.047-3.227,1.684-3.414,3.6
		c-1.216,12.672-47.507,104.178-58.027,124.752c-3.46,3.413-9.491,5.845-17.113,6.873c-1.917,0.28-3.272,2.058-2.992,3.975
		c0.233,1.73,3.648,2.992,3.928,2.992c5.985-0.841,13.887-2.759,19.592-7.48l56.624,31.795l-21.274,49.845L1224.65,1050.405z
		 M1353.704,1069.016c5.097-0.094,17.066-0.188,21.227,0.233c3.554,0.374,6.827,1.917,10.334,3.554
		c4.068,1.917,8.229,3.881,13.279,4.208c1.777,0.141,3.46,0.047,5.144-0.047c1.777-0.093,3.507-0.187,5.05,0
		c-4.208,4.068-10.24,6.406-16.178,6.22c-1.544-0.047-3.133,1.028-3.508,2.665c-0.421,1.636,0.375,3.272,1.917,3.975l15.15,7.2
		c2.853,1.543,6.219,4.957,6.873,7.949c0.327,1.356-0.094,2.104-0.701,2.992l-18.096,32.497c-2.759,2.666-22.818,1.403-36.004-7.48
		c-5.518-3.741-16.365-17.488-21.415-24.175L1353.704,1069.016z M1328.501,1110.35l-16.786-9.726l21.276-49.892l16.832,9.445
		L1328.501,1110.35z M1298.108,967.643c-0.234,10.754-0.468,25.016-0.608,45.824c0,3.46-0.047,6.687-0.093,9.258l-20.995-11.783
		C1280.808,1002.338,1289.131,985.879,1298.108,967.643z M1284.08,1134.57c3.087-11.081,6.78-28.476,8.558-36.799
		c0,0,35.724,20.621,35.816,20.667c2.058,1.216,4.442-0.093,5.19-2.197c5.564,7.201,11.269,14.683,18.188,20.62
		C1320.132,1136.955,1293.993,1135.272,1284.08,1134.57z M1323.685,1143.502c7.855,0.233,16.505,0.373,25.623,0.373
		c4.255,0,13.747-0.187,14.074-0.28c7.715,3.18,16.6,5.097,23.847,5.097c5.798,0,10.521-1.262,12.672-4.114
		c0.094-0.141,1.355-2.385,1.355-2.385c14.776-1.028,28.616-2.479,41.241-4.349c1.402-0.187,2.571-1.263,2.899-2.712l7.247-32.076
		l8.931-1.263l8.791,27.4c0.468,1.356,2.104,2.432,3.507,2.619l28.756,168.891l34.648,213.779l-33.76,7.902l-10.287-65.321
		l-1.075-7.014l-8.463-53.772l-1.122-7.014l-10.334-65.742l-61.16-163.421c-0.468-1.216-1.776-1.823-2.992-1.356
		c-1.216,0.469-1.824,1.777-1.357,2.993l60.927,162.766l10.193,64.761l1.075,7.014l8.463,53.772l1.122,7.014l10.428,66.396
		l-49.19,11.503c-7.061-28.99-12.297-54.941-16.178-77.899c-0.421-2.385-0.795-4.723-1.169-7.014
		c-3.32-20.48-5.517-38.436-7.014-53.772c-0.188-2.432-0.421-4.77-0.608-7.014c-2.759-32.638-1.964-52.322-1.496-59.01v-0.28
		c0-4.769-6.313-11.269-8.79-15.056c-6.313-9.633-12.531-19.358-18.61-29.178c-17.395-28.102-33.993-56.812-48.676-86.503
		C1338.32,1181.143,1329.997,1162.672,1323.685,1143.502z M1275.805,1510.835h-17.535c11.924-16.365,25.577-35.162,39.044-53.771
		h129.146c2.759,16.412,6.219,34.32,10.521,53.771c0,0-141.257,0-141.491,0c-4.535,0-4.535,7.015,0,7.015h143.081
		c2.759,12.25,5.892,25.063,9.352,38.435c0.374,1.59,1.823,2.665,3.367,2.665c0.28,0,5.61-1.309,5.61-1.309l2.104,10.24h-223.037
		c-0.375-0.795-0.749-1.637-1.17-2.479c-1.075-2.244-8.136-11.877-12.718-13.092c-0.421-2.058-0.701-4.162-0.842-6.406l4.816,3.366
		c1.496,1.029,3.787,0.702,4.862-0.795c5.518-7.621,13.279-18.235,22.257-30.626c0,0,22.585,0,22.632,0
		C1280.293,1517.85,1280.34,1510.835,1275.805,1510.835z M1415.939,1336.333c-0.327,9.772-0.327,27.494,1.87,52.931
		c0,0.28,0,0.561,0.047,0.842h-72.148c0.188-0.281,19.124-26.652,20.387-28.757l9.492-25.016H1415.939z M1378.252,1329.319
		l13.747-36.331c11.409,18.188,20.293,31.468,23.659,36.331H1378.252z M1418.464,1397.119c1.45,15.196,3.647,32.824,6.874,52.931
		H1302.41c15.383-21.229,30.065-41.476,38.248-52.931H1418.464z M1453.813,1551.188c-1.028-3.975-2.011-7.855-2.946-11.689
		l48.77-11.408l1.776,11.222L1453.813,1551.188z M1517.077,1544.127c1.73,0.701,5.331,2.245,10.101,4.068
		c-11.082,10.1-34.321,17.44-54.614,19.732c-0.233,0-0.515-0.047-0.748-0.047h-5.611l-2.478-11.877L1517.077,1544.127z
		 M1505.996,1538.143l-1.777-11.129l33.807-7.949l1.729,10.661L1505.996,1538.143z M1336.17,1330.067l11.549-113.997
		c13.093,25.25,27.4,49.657,39.651,69.437l-27.635,72.943c-2.852,4.769-93.797,129.941-131.578,181.89l-29.224-21.368
		L1336.17,1330.067z M1168.962,1457.063h14.635c-4.862,8.51-9.726,17.44-14.635,26.745V1457.063z M1166.81,1505.271l47.319,33.666
		c-0.047,0.654,0.047,8.275,0.421,11.175c-13.934-5.798-32.824-22.631-45.122-40.353c-1.028-1.402-1.964-2.806-2.853-4.208
		L1166.81,1505.271z M1167.652,1633.155v-23.847c6.499,6.64,12.999,17.675,19.265,23.847H1167.652z M1298.716,1632.267
		l-84.913-3.601l-17.628-0.748c-10.24-9.959-21.229-21.182-32.029-32.263c-1.169-1.169-44.654-45.543-44.654-45.729
		c0.047-0.468,3.787-3.975,6.359-6.406c0,0,30.486,29.364,30.673,29.551c2.151,2.058,5.424-1.309,3.227-3.366l-30.486-29.411
		c8.697-8.276,22.537-21.368,31.89-30.159c14.167,21.977,40.819,46.524,59.009,48.909c0.748,0.374,2.385,1.917,3.928,3.694
		c-7.434,0.981-17.722,7.014-17.861,7.107c-2.012,1.309-1.403,4.396,1.169,4.067c2.104-0.233,3.974-1.684,5.845-2.524
		c5.471-2.619,12.297-5.284,13.887-4.021c0,0,2.899,4.349,2.992,4.489c-3.646,1.215-9.023,3.693-17.02,8.463
		c-1.824,1.075-1.169,3.693,0.701,4.255c2.058,0.654,5.564-2.478,7.342-3.46c3.6-1.964,7.34-3.928,11.268-5.144
		c8.932,14.963,20.761,19.312,54.334,23.005c2.852,0.328,6.078,3.273,8.696,7.902c3.18,5.704,5.425,14.215,4.209,21.789
		c-0.234,1.169-0.515,2.385-0.889,3.507h3.601C1300.586,1632.22,1298.716,1632.22,1298.716,1632.267z M1306.01,1633.155
		c0.375-1.169,0.562-3.32,0.702-4.489c1.122-8.931-1.356-18.469-5.144-25.202c-3.834-6.827-8.837-10.895-14.074-11.456
		c-30.253-3.319-40.54-7.107-47.46-17.113h214.854c-1.402,20.994,5.471,44.046,11.176,53.771c0,0,1.964,3.554,2.197,4.489
		C1468.262,1633.155,1305.963,1633.482,1306.01,1633.155z M1476.07,1631.939c0-0.141-4.582-7.949-4.723-8.229
		c0,0,43.111-11.783,43.299-11.83c2.806-0.748,1.637-5.33-1.216-4.488l-44,12.017c-4.067-9.959-8.557-27.213-7.574-43.672
		c3.179-0.047,6.546-0.281,9.959-0.655c24.361-2.478,52.743-12.063,63.638-25.343c0.889-1.075,6.733-2.572,7.528-2.665
		c-3.227,6.593-5.657,17.301-5.657,20.434c0,1.309,1.028,2.338,2.338,2.338c1.309,0,2.338-1.029,2.338-2.338
		c0-3.554,3.133-14.776,5.704-19.452l2.759,1.263c0.748,0.374,1.543,0.701,2.244,1.075c-2.759,5.471-2.898,13.607-2.852,15.15
		c0.047,1.262,1.075,2.291,2.338,2.291c1.309,0,2.338-1.029,2.338-2.338c0-4.863,0.842-10.475,2.385-13.232
		c0.28,0.14,0.561,0.28,0.842,0.374c12.998,5.424,23.753,6.732,50.686-1.543c6.5-1.964,14.027-4.021,20.667-4.021
		c4.442,0,7.996,0.935,10.614,2.806c3.414,2.432,6.453,12.25,8.323,20.761l-109.087,29.785c-1.263,0.327-1.964,1.59-1.637,2.852
		c0.28,1.029,1.215,1.73,2.244,1.73c0.233,0,109.415-29.785,109.415-29.785c0.701,3.787,1.122,6.874,1.075,8.276
		c-0.047,0.327-0.047,0.842-0.094,0.936c-0.047,0.14-0.468,0.514-2.385,1.121c-49.563,15.478-168.33,45.917-168.33,45.917
		C1478.175,1631.752,1476.679,1632.033,1476.07,1631.939z M1501.086,1633.155c18.891-4.862,38.108-9.819,57.326-14.916
		c14.215,6.687,29.691,11.175,46.197,14.916H1501.086z M1568.792,1615.48c27.073-7.248,54.193-14.869,80.893-23.238
		c1.729-0.515,5.377-1.684,6.78-5.144c0.514-1.31,0.561-2.525,0.607-3.414c0.047-3.413-3.787-32.777-13.279-39.558
		c-3.834-2.712-8.744-4.067-14.683-4.067c-7.575,0-15.757,2.197-22.725,4.349c-12.905,3.975-21.789,5.704-28.803,5.704
		c-8.837,0-14.916-2.853-24.174-7.154l-4.162-1.917c-2.852-1.309-6.172-1.449-10.941-0.187c-1.496,0.421-3.46,0.935-5.283,2.011
		c-2.479-0.936-4.723-1.777-6.687-2.572l18.235-4.535c1.777-0.421,2.899-2.151,2.619-3.975l-23.894-147.383
		c26.698-27.961,64.012-44.327,103.943-44.327c23.192,0,46.385,5.799,67.052,16.693c33.993,17.955,58.915,48.067,70.277,84.772
		c11.315,36.706,7.669,75.655-10.286,109.602c-24.969,47.32-73.738,76.684-127.276,76.684
		C1607.041,1627.824,1587.121,1623.57,1568.792,1615.48z"/>
</g>
</svg>
