<?xml version="1.0" encoding="utf-8"?>
<!-- Generator: Adobe Illustrator 27.5.0, SVG Export Plug-In . SVG Version: 6.00 Build 0)  -->
<svg version="1.1" xmlns="http://www.w3.org/2000/svg" xmlns:xlink="http://www.w3.org/1999/xlink" x="0px" y="0px"
	 viewBox="0 0 500 500" style="enable-background:new 0 0 500 500;" xml:space="preserve">
<g id="BACKGROUND">
	<rect style="fill:none;" width="500" height="500"/>
</g>
<g id="OBJECTS_1_">
	<path style="fill:#ACDEE8;" d="M360.89,87.101c39.228,18.106,66.967,60.779,76.868,101.78
		c27.337,113.204-81.563,197.688-183.442,208.093c-24.204,2.472-48.9,1.048-72.427-5.333c-41.026-11.128-78.056-38.802-97.051-76.83
		c-29.713-59.486-7.275-145.2,62.828-163.284c15.312-3.95,31.603-3.705,46.519-8.956c22.894-8.059,39.307-27.704,57.594-43.662
		c25.04-21.85,60.258-26.709,91.797-18.109C349.632,82.451,355.403,84.568,360.89,87.101z"/>
	<polygon style="fill:#EF5B51;" points="446.706,323.767 379.182,229.834 338.204,253.557 275.621,163.952 194.065,196.198 
		109.598,78.642 59.588,124.178 175.234,248.822 271.105,207.367 327.072,286.496 373.149,256.069 438.774,329.762 428.16,340.456 
		456.016,344.329 456.017,315.15 	"/>
	<g>
		<polygon style="fill:#D64238;" points="453.681,344.004 456.016,344.329 438.69,337.667 446.599,330.277 375.859,243.359 
			329.782,273.786 273.815,194.657 177,238.258 80.986,104.695 59.588,124.178 175.234,248.822 271.105,207.367 327.072,286.496 
			373.149,256.069 438.774,329.762 428.16,340.455 		"/>
	</g>
	<g id="POLYLINE_746_">
	</g>
	<g>
		<g>
			<g>
				<circle style="fill:none;" cx="248.081" cy="96.82" r="15.84"/>
			</g>
			<g>
				<g>
					<rect x="247.654" y="71.352" style="fill:none;" width="0.854" height="25.468"/>
				</g>
				<g>
					<path style="fill:none;" d="M251.561,71.352c0,1.922-1.558,3.48-3.48,3.48c-1.922,0-3.48-1.558-3.48-3.48
						s1.558-3.48,3.48-3.48C250.003,67.872,251.561,69.43,251.561,71.352z"/>
				</g>
			</g>
			<g>
				<g>
					
						<rect x="241.287" y="73.058" transform="matrix(0.866 -0.5 0.5 0.866 -10.5125 132.3501)" style="fill:none;" width="0.855" height="25.468"/>
				</g>
				<g>
					<path style="fill:none;" d="M238.361,73.024c0.961,1.664,0.391,3.793-1.274,4.754c-1.665,0.961-3.793,0.391-4.754-1.274
						s-0.391-3.793,1.274-4.754C235.272,70.789,237.4,71.359,238.361,73.024z"/>
				</g>
			</g>
			<g>
				<g>
					
						<rect x="236.626" y="77.719" transform="matrix(0.5 -0.866 0.866 0.5 40.1917 250.5202)" style="fill:none;" width="0.855" height="25.468"/>
				</g>
				<g>
					<path style="fill:none;" d="M227.765,81.072c1.664,0.961,2.235,3.089,1.274,4.754c-0.961,1.664-3.089,2.235-4.754,1.274
						c-1.664-0.961-2.235-3.089-1.274-4.754C223.972,80.681,226.101,80.111,227.765,81.072z"/>
				</g>
			</g>
			<g>
				<g>
					<rect x="222.613" y="96.393" style="fill:none;" width="25.468" height="0.854"/>
				</g>
				<g>
					<circle style="fill:none;" cx="222.613" cy="96.82" r="3.48"/>
				</g>
			</g>
			<g>
				<g>
					
						<rect x="224.319" y="102.76" transform="matrix(0.8661 -0.4999 0.4999 0.8661 -19.8372 132.3259)" style="fill:none;" width="25.468" height="0.855"/>
				</g>
				<g>
					<path style="fill:none;" d="M224.285,106.54c1.664-0.961,3.793-0.391,4.754,1.274c0.961,1.664,0.391,3.793-1.274,4.754
						c-1.665,0.961-3.793,0.391-4.754-1.274C222.05,109.629,222.621,107.501,224.285,106.54z"/>
				</g>
			</g>
			<g>
				<g>
					
						<rect x="228.98" y="107.421" transform="matrix(0.4999 -0.8661 0.8661 0.4999 27.4734 263.2757)" style="fill:none;" width="25.468" height="0.855"/>
				</g>
				<g>
					<path style="fill:none;" d="M232.333,117.136c0.961-1.665,3.089-2.235,4.754-1.274c1.664,0.961,2.235,3.089,1.274,4.754
						c-0.961,1.664-3.089,2.235-4.754,1.274C231.943,120.929,231.372,118.8,232.333,117.136z"/>
				</g>
			</g>
			<g>
				<g>
					<rect x="247.654" y="96.82" style="fill:none;" width="0.854" height="25.468"/>
				</g>
				<g>
					<path style="fill:none;" d="M244.601,122.288c0-1.922,1.558-3.48,3.48-3.48c1.922,0,3.48,1.558,3.48,3.48
						c0,1.922-1.558,3.48-3.48,3.48C246.159,125.768,244.601,124.21,244.601,122.288z"/>
				</g>
			</g>
			<g>
				<g>
					
						<rect x="254.021" y="95.114" transform="matrix(0.866 -0.5 0.5 0.866 -19.8342 141.6738)" style="fill:none;" width="0.855" height="25.468"/>
				</g>
				<g>
					<path style="fill:none;" d="M257.802,120.616c-0.961-1.664-0.391-3.793,1.274-4.754c1.664-0.961,3.793-0.391,4.754,1.274
						c0.961,1.664,0.391,3.793-1.274,4.754C260.891,122.851,258.762,122.28,257.802,120.616z"/>
				</g>
			</g>
			<g>
				<g>
					
						<rect x="258.682" y="90.453" transform="matrix(0.5 -0.866 0.866 0.5 40.1913 275.9878)" style="fill:none;" width="0.855" height="25.468"/>
				</g>
				<g>
					<path style="fill:none;" d="M268.397,112.568c-1.664-0.961-2.235-3.089-1.274-4.754c0.961-1.665,3.089-2.235,4.754-1.274
						c1.664,0.961,2.235,3.089,1.274,4.754C272.19,112.958,270.062,113.529,268.397,112.568z"/>
				</g>
			</g>
			<g>
				<g>
					<rect x="248.081" y="96.393" style="fill:none;" width="25.468" height="0.854"/>
				</g>
				<g>
					<path style="fill:none;" d="M273.549,100.3c-1.922,0-3.48-1.558-3.48-3.48c0-1.922,1.558-3.48,3.48-3.48
						c1.922,0,3.48,1.558,3.48,3.48C277.029,98.742,275.471,100.3,273.549,100.3z"/>
				</g>
			</g>
			<g>
				<g>
					
						<rect x="246.375" y="90.026" transform="matrix(0.866 -0.5 0.5 0.866 -10.5117 141.6766)" style="fill:none;" width="25.468" height="0.855"/>
				</g>
				<g>
					<path style="fill:none;" d="M271.877,87.1c-1.664,0.961-3.793,0.391-4.754-1.274c-0.961-1.665-0.391-3.793,1.274-4.754
						c1.665-0.961,3.793-0.391,4.754,1.274C274.112,84.01,273.542,86.138,271.877,87.1z"/>
				</g>
			</g>
			<g>
				<g>
					
						<rect x="241.714" y="85.365" transform="matrix(0.4999 -0.8661 0.8661 0.4999 52.9437 263.2744)" style="fill:none;" width="25.468" height="0.855"/>
				</g>
				<g>
					<path style="fill:none;" d="M263.829,76.504c-0.961,1.664-3.089,2.235-4.754,1.274c-1.664-0.961-2.235-3.089-1.274-4.754
						c0.961-1.664,3.089-2.235,4.754-1.274C264.22,72.711,264.79,74.839,263.829,76.504z"/>
				</g>
			</g>
		</g>
	</g>
	<g>
		<g>
			<g>
				<path style="fill:none;" d="M443.831,225.017c-1.857,4.936-7.364,7.432-12.3,5.575c-4.936-1.857-7.432-7.364-5.575-12.299
					c1.857-4.936,7.364-7.432,12.299-5.575C443.192,214.574,445.688,220.081,443.831,225.017z"/>
			</g>
			<g>
				<g>
					
						<rect x="429.921" y="214.212" transform="matrix(0.3522 -0.9359 0.9359 0.3522 82.7373 548.4803)" style="fill:none;" width="15.352" height="0.515"/>
				</g>
				<g>
					<path style="fill:none;" d="M442.264,208.024c-0.408,1.084-1.618,1.633-2.702,1.225c-1.085-0.408-1.633-1.618-1.225-2.702
						c0.408-1.084,1.618-1.633,2.702-1.225C442.123,205.73,442.672,206.939,442.264,208.024z"/>
				</g>
			</g>
			<g>
				<g>
					
						<rect x="433.385" y="206.404" transform="matrix(0.9866 -0.163 0.163 0.9866 -29.0972 73.5519)" style="fill:none;" width="0.515" height="15.353"/>
				</g>
				<g>
					<path style="fill:none;" d="M434.461,206.165c0.189,1.143-0.585,2.223-1.728,2.412c-1.143,0.189-2.223-0.585-2.412-1.728
						c-0.189-1.143,0.585-2.223,1.728-2.412C433.193,204.249,434.272,205.022,434.461,206.165z"/>
				</g>
			</g>
			<g>
				<g>
					
						<rect x="429.766" y="208.045" transform="matrix(0.7729 -0.6345 0.6345 0.7729 -39.2284 321.8268)" style="fill:none;" width="0.515" height="15.352"/>
				</g>
				<g>
					<path style="fill:none;" d="M426.775,208.457c0.735,0.895,0.605,2.217-0.29,2.952c-0.896,0.735-2.217,0.605-2.952-0.29
						c-0.735-0.896-0.605-2.217,0.29-2.952C424.718,207.431,426.04,207.561,426.775,208.457z"/>
				</g>
			</g>
			<g>
				<g>
					
						<rect x="427.452" y="211.275" transform="matrix(0.3521 -0.9359 0.9359 0.3521 72.1708 542.1652)" style="fill:none;" width="0.515" height="15.352"/>
				</g>
				<g>
					<path style="fill:none;" d="M421.264,214.285c1.084,0.408,1.633,1.618,1.225,2.702c-0.408,1.085-1.618,1.633-2.702,1.225
						c-1.084-0.408-1.633-1.618-1.225-2.702C418.97,214.425,420.179,213.877,421.264,214.285z"/>
				</g>
			</g>
			<g>
				<g>
					
						<rect x="419.645" y="222.648" transform="matrix(0.9867 -0.1627 0.1627 0.9867 -30.568 72.4801)" style="fill:none;" width="15.352" height="0.515"/>
				</g>
				<g>
					<path style="fill:none;" d="M419.405,222.087c1.143-0.189,2.223,0.585,2.412,1.728c0.189,1.143-0.585,2.223-1.728,2.412
						c-1.143,0.189-2.223-0.585-2.412-1.728C417.489,223.356,418.262,222.276,419.405,222.087z"/>
				</g>
			</g>
			<g>
				<g>
					
						<rect x="421.285" y="226.267" transform="matrix(0.7729 -0.6345 0.6345 0.7729 -46.3233 323.6114)" style="fill:none;" width="15.352" height="0.515"/>
				</g>
				<g>
					<path style="fill:none;" d="M421.697,229.774c0.895-0.735,2.217-0.605,2.952,0.29c0.735,0.895,0.605,2.217-0.29,2.952
						c-0.896,0.735-2.217,0.605-2.953-0.29C420.671,231.831,420.801,230.509,421.697,229.774z"/>
				</g>
			</g>
			<g>
				<g>
					
						<rect x="424.515" y="228.581" transform="matrix(0.3522 -0.9359 0.9359 0.3522 65.8094 552.7536)" style="fill:none;" width="15.352" height="0.515"/>
				</g>
				<g>
					<path style="fill:none;" d="M427.525,235.285c0.408-1.084,1.618-1.633,2.702-1.225c1.084,0.408,1.633,1.618,1.225,2.702
						c-0.408,1.084-1.618,1.633-2.702,1.225C427.665,237.579,427.117,236.369,427.525,235.285z"/>
				</g>
			</g>
			<g>
				<g>
					
						<rect x="435.888" y="221.552" transform="matrix(0.9866 -0.163 0.163 0.9866 -31.5357 74.1711)" style="fill:none;" width="0.515" height="15.352"/>
				</g>
				<g>
					<path style="fill:none;" d="M435.327,237.143c-0.189-1.143,0.585-2.223,1.728-2.412c1.143-0.189,2.223,0.585,2.412,1.728
						c0.189,1.143-0.585,2.223-1.728,2.412C436.596,239.06,435.516,238.286,435.327,237.143z"/>
				</g>
			</g>
			<g>
				<g>
					
						<rect x="439.507" y="219.911" transform="matrix(0.7729 -0.6345 0.6345 0.7729 -44.545 330.7045)" style="fill:none;" width="0.515" height="15.352"/>
				</g>
				<g>
					<path style="fill:none;" d="M443.014,234.852c-0.735-0.895-0.605-2.217,0.291-2.952c0.895-0.735,2.217-0.605,2.952,0.29
						c0.735,0.896,0.605,2.217-0.29,2.952C445.071,235.877,443.749,235.747,443.014,234.852z"/>
				</g>
			</g>
			<g>
				<g>
					
						<rect x="441.821" y="216.681" transform="matrix(0.3521 -0.9359 0.9359 0.3521 76.4209 559.1171)" style="fill:none;" width="0.515" height="15.352"/>
				</g>
				<g>
					<path style="fill:none;" d="M448.525,229.024c-1.084-0.408-1.633-1.618-1.225-2.702c0.408-1.084,1.618-1.633,2.702-1.225
						c1.084,0.408,1.633,1.618,1.225,2.702C450.819,228.883,449.609,229.432,448.525,229.024z"/>
				</g>
			</g>
			<g>
				<g>
					
						<rect x="434.792" y="220.145" transform="matrix(0.9866 -0.163 0.163 0.9866 -30.0148 75.0916)" style="fill:none;" width="15.352" height="0.515"/>
				</g>
				<g>
					<path style="fill:none;" d="M450.383,221.221c-1.143,0.189-2.223-0.585-2.412-1.728c-0.189-1.143,0.585-2.223,1.728-2.412
						c1.143-0.189,2.223,0.585,2.412,1.728C452.3,219.952,451.526,221.032,450.383,221.221z"/>
				</g>
			</g>
			<g>
				<g>
					
						<rect x="433.151" y="216.526" transform="matrix(0.7728 -0.6346 0.6346 0.7728 -37.4283 329.0132)" style="fill:none;" width="15.353" height="0.515"/>
				</g>
				<g>
					<path style="fill:none;" d="M448.092,213.535c-0.896,0.735-2.217,0.605-2.952-0.29c-0.735-0.895-0.605-2.217,0.29-2.952
						c0.896-0.735,2.217-0.605,2.953,0.291C449.117,211.478,448.987,212.799,448.092,213.535z"/>
				</g>
			</g>
		</g>
	</g>
	<g>
		<g>
			<g>
				<path style="fill:none;" d="M89.966,215.465c-1.857,4.936-7.364,7.432-12.3,5.575c-4.936-1.857-7.432-7.364-5.575-12.299
					c1.857-4.936,7.364-7.432,12.3-5.575C89.327,205.023,91.823,210.529,89.966,215.465z"/>
			</g>
			<g>
				<g>
					
						<rect x="76.056" y="204.661" transform="matrix(0.3522 -0.9359 0.9359 0.3522 -137.5467 211.1062)" style="fill:none;" width="15.352" height="0.515"/>
				</g>
				<g>
					<path style="fill:none;" d="M88.399,198.473c-0.408,1.084-1.618,1.633-2.702,1.225c-1.084-0.408-1.633-1.618-1.225-2.702
						c0.408-1.084,1.618-1.633,2.702-1.225C88.258,196.178,88.807,197.388,88.399,198.473z"/>
				</g>
			</g>
			<g>
				<g>
					
						<rect x="79.52" y="196.853" transform="matrix(0.9866 -0.163 0.163 0.9866 -32.2744 15.741)" style="fill:none;" width="0.515" height="15.353"/>
				</g>
				<g>
					<path style="fill:none;" d="M80.596,196.614c0.189,1.143-0.585,2.223-1.728,2.412c-1.143,0.189-2.223-0.585-2.412-1.728
						c-0.189-1.143,0.585-2.223,1.728-2.412C79.328,194.697,80.407,195.471,80.596,196.614z"/>
				</g>
			</g>
			<g>
				<g>
					
						<rect x="75.901" y="198.494" transform="matrix(0.7729 -0.6345 0.6345 0.7729 -113.5193 95.1367)" style="fill:none;" width="0.515" height="15.352"/>
				</g>
				<g>
					<path style="fill:none;" d="M72.91,198.906c0.735,0.895,0.605,2.217-0.291,2.952c-0.896,0.735-2.217,0.605-2.952-0.29
						c-0.735-0.896-0.605-2.217,0.29-2.952C70.853,197.88,72.175,198.01,72.91,198.906z"/>
				</g>
			</g>
			<g>
				<g>
					
						<rect x="73.587" y="201.724" transform="matrix(0.3521 -0.9359 0.9359 0.3521 -148.1463 204.7782)" style="fill:none;" width="0.515" height="15.352"/>
				</g>
				<g>
					<path style="fill:none;" d="M67.399,204.733c1.084,0.408,1.633,1.618,1.225,2.702c-0.408,1.085-1.618,1.633-2.702,1.225
						c-1.084-0.408-1.633-1.618-1.225-2.702C65.105,204.874,66.314,204.325,67.399,204.733z"/>
				</g>
			</g>
			<g>
				<g>
					
						<rect x="65.78" y="213.097" transform="matrix(0.9866 -0.1629 0.1629 0.9866 -33.7655 14.8111)" style="fill:none;" width="15.352" height="0.515"/>
				</g>
				<g>
					<path style="fill:none;" d="M65.54,212.536c1.143-0.189,2.223,0.585,2.412,1.728c0.189,1.143-0.585,2.223-1.728,2.412
						c-1.143,0.189-2.223-0.585-2.412-1.728C63.624,213.805,64.397,212.725,65.54,212.536z"/>
				</g>
			</g>
			<g>
				<g>
					
						<rect x="67.42" y="216.716" transform="matrix(0.7729 -0.6345 0.6345 0.7729 -120.6163 96.9169)" style="fill:none;" width="15.352" height="0.515"/>
				</g>
				<g>
					<path style="fill:none;" d="M67.832,220.222c0.896-0.735,2.217-0.605,2.952,0.29c0.735,0.895,0.605,2.217-0.29,2.952
						c-0.896,0.735-2.217,0.605-2.952-0.29C66.806,222.279,66.936,220.958,67.832,220.222z"/>
				</g>
			</g>
			<g>
				<g>
					
						<rect x="70.65" y="219.03" transform="matrix(0.3522 -0.9359 0.9359 0.3522 -154.4971 215.3704)" style="fill:none;" width="15.352" height="0.515"/>
				</g>
				<g>
					<path style="fill:none;" d="M73.66,225.733c0.408-1.084,1.618-1.633,2.702-1.225c1.084,0.408,1.633,1.618,1.225,2.702
						c-0.408,1.084-1.618,1.633-2.702,1.225C73.8,228.027,73.252,226.818,73.66,225.733z"/>
				</g>
			</g>
			<g>
				<g>
					
						<rect x="82.023" y="212" transform="matrix(0.9866 -0.163 0.163 0.9866 -34.7119 16.3526)" style="fill:none;" width="0.515" height="15.352"/>
				</g>
				<g>
					<path style="fill:none;" d="M81.462,227.592c-0.189-1.143,0.585-2.223,1.728-2.412c1.143-0.189,2.223,0.585,2.412,1.728
						c0.189,1.143-0.585,2.223-1.728,2.412C82.731,229.508,81.651,228.735,81.462,227.592z"/>
				</g>
			</g>
			<g>
				<g>
					
						<rect x="85.642" y="210.36" transform="matrix(0.7729 -0.6345 0.6345 0.7729 -118.836 104.0107)" style="fill:none;" width="0.515" height="15.352"/>
				</g>
				<g>
					<path style="fill:none;" d="M89.149,225.3c-0.735-0.896-0.605-2.217,0.29-2.952c0.896-0.735,2.217-0.605,2.952,0.29
						c0.735,0.896,0.605,2.217-0.29,2.952C91.206,226.326,89.884,226.196,89.149,225.3z"/>
				</g>
			</g>
			<g>
				<g>
					
						<rect x="87.956" y="207.13" transform="matrix(0.3521 -0.9359 0.9359 0.3521 -143.8969 221.7288)" style="fill:none;" width="0.515" height="15.352"/>
				</g>
				<g>
					<path style="fill:none;" d="M94.66,219.472c-1.084-0.408-1.633-1.618-1.225-2.702c0.408-1.084,1.618-1.633,2.702-1.225
						c1.084,0.408,1.633,1.618,1.225,2.702C96.954,219.332,95.744,219.88,94.66,219.472z"/>
				</g>
			</g>
			<g>
				<g>
					
						<rect x="80.927" y="210.594" transform="matrix(0.9866 -0.163 0.163 0.9866 -33.1927 17.2678)" style="fill:none;" width="15.352" height="0.515"/>
				</g>
				<g>
					<path style="fill:none;" d="M96.518,211.67c-1.143,0.189-2.223-0.585-2.412-1.728c-0.189-1.143,0.585-2.223,1.728-2.412
						c1.143-0.189,2.223,0.585,2.412,1.728C98.435,210.401,97.661,211.481,96.518,211.67z"/>
				</g>
			</g>
			<g>
				<g>
					
						<rect x="79.286" y="206.975" transform="matrix(0.773 -0.6344 0.6344 0.773 -111.731 102.215)" style="fill:none;" width="15.353" height="0.515"/>
				</g>
				<g>
					<path style="fill:none;" d="M94.227,203.983c-0.896,0.735-2.217,0.605-2.952-0.29c-0.735-0.896-0.605-2.217,0.29-2.952
						c0.896-0.735,2.217-0.605,2.953,0.29C95.252,201.926,95.122,203.248,94.227,203.983z"/>
				</g>
			</g>
		</g>
	</g>
	<ellipse style="fill:#B6D0DE;" cx="319.046" cy="448.359" rx="85.882" ry="9.887"/>
	<g>
		<path style="fill:#40628F;" d="M359.835,141.561c1.537,1.84,3.115,3.755,3.77,6.061c1.058,3.726-0.479,7.643-1.989,11.21
			c-4.412,10.423-8.824,20.847-13.237,31.27c-2.934-4.337-5.867-8.674-8.801-13.011c-2.412-3.566-4.87-7.235-5.858-11.425
			c-1.917-8.131,2.189-14.902,5.116-22.039c2.34-5.707-4.182-5.229-6.717-7.951c-3.204-3.443-0.819-10.506,0.21-14.439
			c0.766-2.928,3.511-5.503,6.812-5.115c1.866,0.219,3.45,1.463,4.742,2.826c3.075,3.245,4.36,7.443,7.04,10.899
			C353.931,133.725,356.687,137.794,359.835,141.561z"/>
		<g>
			<g id="POLYLINE_146_">
				<path style="fill:#9C922A;" d="M305.168,111.559c2.87-1.398,5.147-3.578,8.249-4.65c3.093-1.069,6.584-1.279,9.597-0.003
					c3.013,1.277,5.411,4.215,5.503,7.486c2.257-0.117,2.924,0.365,4.272,2.228c2.705,3.736,2.453,8.774,2.086,13.373
					c-0.307,3.84-0.606,7.681-0.92,11.52c-0.133,1.631-0.171,2.133-1.611,2.934c-1.476,0.82-3.201,1.478-4.904,1.503
					c-1.79,0.026-3.485-0.395-4.465-1.922c-1.207-1.88-2.654-3.625-5.189-2.585c-2.132,0.875-3.154,3.525-5.321,4.308
					c-1.711,0.618-3.675-0.162-4.959-1.45c-1.284-1.288-2.03-3.003-2.748-4.674c-1.091-2.54-2.182-5.079-3.273-7.619
					c-1.259-2.93-1.743-7.572-5.123-8.879c-1.15-0.445-2.413-0.61-3.482-1.226s-1.909-1.925-1.436-3.063
					c1.912,0.689,3.848-0.799,5.428-2.078c0.258-0.209,0.52-0.417,0.788-0.626C300.043,114.278,302.492,112.862,305.168,111.559z"/>
			</g>
			<path style="fill:#F5906E;" d="M296.259,146.725c0.443,0.538,1.055,0.936,1.739,1.074c1.368,0.277,2.876-0.514,3.427-1.796
				c-0.115-1.161-0.531-10.097-3.537-8.357c-0.818,0.478-2.355,6.16-2.349,7.166C295.544,145.51,295.817,146.188,296.259,146.725z"
				/>
			<g id="POLYLINE_145_">
				<path style="fill:#FFB980;" d="M319.892,138.805c0.547,1.349,1.74,2.763,2.981,3.512c2.045,1.235,4.613,0.964,7,0.877
					c0.781-0.029,1.592-0.028,2.306,0.291c1.253,0.559,1.04,1.517,1.33,2.587c0.378,1.392,1.348,2.828,1.97,4.133
					c-5.216,3.014-10.432,6.027-15.647,9.041c-0.99,0.572-2.054,1.162-3.195,1.095c-1.141-0.068-2.168-0.816-1.899-1.927
					c0.48-1.977-8.436,0.509-9.454,0.227c-2.767-0.766-3.581-3.4-4.53-5.832c-3.236-8.291-6.472-17.664-4.379-26.623
					c0.218-0.933,0.319-2.83,1.483-3.043c0.655-0.119,1.309,0.164,1.915,0.44c1.878,0.857,4.65,2.258,4.198,4.753
					c-0.374,2.065-1.057,3.465,0.671,5.354c1.467,1.604,3.014,2.786,3.376,5.03c0.234,1.451-0.307,3.84,1.413,4.508
					c0.997,0.388,2.875,0.816,3.53-0.346c0.415-0.737,0.306-1.79,0.278-2.588c-0.049-1.379-0.231-2.85,0.083-4.214
					c0.3-1.306,1.697-2.689,3.008-2.995c1.153-0.269,2.012,0.926,2.517,1.79C319.593,136.151,319.367,137.511,319.892,138.805z"/>
			</g>
			<polygon style="fill:#F5906E;" points="305.285,158.64 322.053,153.016 322.053,157.962 			"/>
			<g id="POLYLINE_143_">
				<path style="fill:#FFFFFF;" d="M341.794,156.324c-0.621,0.344-1.76,0.13-2.427,0.172c-1.654,0.104-3.303,0.282-4.951,0.447
					c-3.066,0.308-6.161,0.621-9.153,1.387c-2.585,0.661-4.858,2.084-7.405,2.808c-1.108,0.314-2.738,0.444-3.618-0.482
					c-0.865-0.911,0.312-2.09,0.963-2.725c2.001-1.953,4.475-3.464,6.849-4.913c2.527-1.542,5.146-3.064,7.987-3.949
					c1.682-0.523,3.616-0.976,5.388-0.69c1.7,0.274,2.744,1.88,3.774,3.107c0.831,0.991,1.671,2.004,2.344,3.112
					c0.231,0.38,0.6,0.914,0.547,1.387C342.06,156.172,341.948,156.24,341.794,156.324z"/>
			</g>
			<g id="POLYLINE_153_">
				<path style="fill:#3C464F;" d="M340.999,429.195c-0.773,0.401-1.54,0.816-2.25,1.32c-1.985,1.407-3.058,3.747-5.232,4.922
					c-3.203,1.73-7.157,1.953-10.657,2.687c-1.63,0.342-4.609,0.663-5.159,2.646c-0.395,1.425-0.162,3.198,0.506,4.502
					c0.873,1.701,2.668,2.405,4.45,2.756c4.33,0.855,9.02,0.391,13.398,0.33c5.432-0.075,10.858,0.229,16.286,0.39
					c3.24,0.096,10.709,1.277,11.31-3.667c0.458-3.77-0.062-7.579-0.943-11.245"/>
			</g>
			<g id="POLYLINE_152_">
				<path style="fill:#345480;" d="M361.252,292.66c-0.296-4.225,1.746-9.846,0.259-13.641c-2.126-5.424-10.048-6.67-15.009-7.039
					c-5.576-0.415-11.408-0.183-16.397,2.341c-9.186,4.646-13.199,16.129-12.156,26.37c1.21,11.885,8.992,20.882,11.605,32.063
					c1.232,5.269,3.284,10.347,4.315,15.657c0.331,1.708,0.464,3.573,1.305,5.134c0.743,1.381,2.09,2.267,3.107,3.424
					c2.225,2.532,1.39,6.274,2.297,9.316c0.695,2.33,1.477,4.569,1.845,6.983c0.396,2.597,0.575,5.228,0.71,7.851
					c0.284,5.539,0.362,11.09,0.75,16.623c0.371,5.281,1.095,10.49-0.748,15.577c-0.431,1.192-0.927,2.373-1.215,3.611
					c-0.511,2.199-0.254,4.48-0.756,6.627c-0.752,3.21-2.615,6.495-3.848,9.559c6.88,1.831,13.927,3.037,21.024,3.598
					c1.527,0.121,3.227,0.158,4.391-0.836c2.603-2.223,0.299-7.914,0.782-10.937c0.302-1.894,1.067-3.669,1.212-5.589
					c0.209-2.766-0.026-5.583-0.124-8.347c-0.326-9.158,2.213-17.802,2.363-26.984c0.266-16.229-2.176-32.407-2.4-48.706
					c-0.174-12.634-1.831-24.996-2.908-37.5C361.51,296.099,361.373,294.381,361.252,292.66z"/>
			</g>
			<g id="POLYLINE_151_">
				<path style="fill:#3C464F;" d="M289.351,432.157c-6.372,3.557-17.105,4.404-20.825,6.427c-4.731,2.573-5.415,7.927,1.308,9.318
					c8.561,1.772,17.372,1.54,26.06,1.31c4.66-0.124,17.344,1.954,20.742-2.039c2.871-3.374-0.425-17.126-0.681-21.252
					c-7.341-1.02-14.682-2.04-22.02-3.048C295.146,427.29,292.94,430.153,289.351,432.157z"/>
			</g>
			<g id="POLYLINE_150_">
				<path style="fill:#40628F;" d="M341.269,301.663c3.96-8.757,7.538-17.59,9.293-26.924c-10.99-2.094-22.135-3.369-33.314-3.812
					c-4.264-0.169-8.762-0.163-12.488,1.918c-6.246,3.487-4.654,10.768-5.445,16.752c-5.279,39.918-11.387,79.919-11.026,120.293
					c0.037,4.095,0.115,8.194,0.309,12.285c0.168,3.541-0.831,6.61-1.744,10.077c9.911,2.723,20.427,1.249,29.981,4.32
					c-0.581-0.189,1.36-12.404,1.387-13.894c0.095-5.369-0.846-10.604-0.279-16.013c2.352-22.411,3.254-45.138,8.328-67.167
					C329.324,326.244,335.677,314.03,341.269,301.663z"/>
			</g>
			<polygon style="fill:#345480;" points="299.315,289.598 298.099,302.772 342.098,294.989 361.252,292.66 353.942,255.395 			"/>
			<g id="POLYLINE_149_">
				<path style="fill:#40628F;" d="M298.41,197.963c-0.821,9.651,0.111,19.288,1.303,28.865c2.227,17.901,1.752,38.324-0.926,55.89
					c-0.564,3.7-0.156,8.143,2.991,10.166c2.222,1.428,5.088,1.162,7.71,0.844c9.954-1.206,19.908-2.411,29.862-3.617
					c7.179-0.87,14.697-1.867,20.571-6.084c11.541-8.286,4.375-19.306,3.038-30.272c-1.006-8.253-1.42-16.568-2.669-24.793
					c-2.109-13.882,0.41-28.043-2.2-41.997c-1.026-5.484-1.256-12.013-3.343-17.202c-3.358-8.35-9.757-17.389-19.159-16.854
					c-8.827,0.502-17.366,4.825-23.432,11.18C303.581,173.077,299.463,185.584,298.41,197.963z"/>
			</g>
			<path style="fill:#FFB980;" d="M305.221,256.532c-1.564,1.42-3.545,1.947-4.693,3.716c-1.32,2.034-1.776,5.814-2.54,8.17
				c-0.398,1.225-0.593,2.944,0.591,3.452c1.15,0.493,2.258-0.754,2.848-1.857c0.59-1.103,1.501-2.429,2.723-2.165
				c-1.033,0.882-2.132,1.873-2.368,3.21c-1.107,6.265,6.94-1.85,7.892-2.451c2.7-1.707,5.786-2.309,7.982-4.864
				c3.62-4.211,3.636-11.925-3.41-11.925c-1.764-0.031-3.495,0.429-5.199,0.885C309.047,252.703,305.222,256.531,305.221,256.532z"
				/>
			<polygon style="fill:#345480;" points="299.833,219.199 325.589,183.468 313.935,228.35 301.821,239.174 			"/>
			<path style="fill:#FFFFFF;" d="M301.714,252.894c-3.01,4.936,3.143,10.865,7.953,9.822c3.668-0.795,8.437-4.603,9.198-8.491
				c0.759-3.882-3.779-8.014-6.311-10.569c-3.43,2.226-6.534,5.365-9.682,8.024c-0.871,0.735-1.792,1.552-2.038,2.665
				c-0.247,1.113,0.613,2.507,1.737,2.319"/>
			<g id="POLYLINE_144_">
				<path style="fill:#40628F;" d="M303.261,172.882c-7.505,13.344-19.939,25.465-22.562,41.079
					c-1.491,8.873,1.517,15.418,6.258,22.69c4.66,7.149,7.785,15.293,12.576,22.558c6.545-0.803,14.202-2.387,16.889-8.409
					c1.929-4.323,0.445-9.383-1.583-13.661c-3.402-7.179-10.37-15.17-8.71-23.415c1.37-6.807,6.932-12.825,11.017-18.152
					c7.632-9.954,19.707-24.236,5.729-34.499c-6.347-4.66-12.233,0.803-16.264,6.467
					C305.273,169.419,304.139,171.32,303.261,172.882z"/>
			</g>
		</g>
		<path style="fill:#FFFFFF;" d="M343.432,130.638c1.239-2.318,1.349-5.341,0.564-7.813c-0.909-2.859-6.192-9.892-9.015-5.528
			c-2.308,3.568-3.04,9.462-1.982,13.606c0.798,3.126,3.892,6.972,7.31,4.411C341.686,134.28,342.628,132.134,343.432,130.638z"/>
		<path style="fill:#FFB980;" d="M339.306,133.73c0.426-0.35,0.789-0.757,1.051-1.185c1.634-2.669,2.163-6.225,1.816-9.292
			c-0.313-2.767-1.388-5.405-3.033-7.645c-1.27-1.729-2.143-4.142-4.247-5.038c-0.271-0.115-0.547-0.198-0.842-0.221
			c-1.277-0.1-2.477,0.557-3.589,1.192c-1.434,0.819-2.868,1.639-4.302,2.458c-0.581,0.332-1.198,0.702-1.475,1.311
			c-0.462,1.016,0.286,2.252,1.298,2.722c1.012,0.471,2.183,0.385,3.295,0.29c-0.816-0.039-1.665-0.072-2.416,0.249
			c-0.751,0.321-1.371,1.107-1.22,1.91c0.344,1.831,4.375,1.888,5.735,2.103c-1.153-0.373-2.381-0.75-3.556-0.454
			c-1.175,0.295-2.194,1.551-1.775,2.688c0.412,1.119,1.821,1.425,3.005,1.565c1.374,0.162,2.748,0.323,4.123,0.485
			c-1.305-0.153-2.797,0.104-4.114,0.19c-1.132,0.074-3.691,0.969-1.516,2.247c0.623,0.366,1.393,0.338,2.112,0.276
			c3.451-0.299,2.72,2.483,4.518,4.362C335.634,135.47,337.844,134.931,339.306,133.73z"/>
	</g>
	<g>
		
			<ellipse transform="matrix(0.9719 -0.2356 0.2356 0.9719 -72.5516 95.1411)" style="fill:#E07E1F;" cx="361.888" cy="351.198" rx="26.492" ry="13.091"/>
		
			<rect x="334.665" y="345.084" transform="matrix(0.9719 -0.2356 0.2356 0.9719 -71.8626 94.8846)" style="fill:#E07E1F;" width="52.984" height="6.2"/>
		
			<ellipse transform="matrix(0.9719 -0.2356 0.2356 0.9719 -71.4225 94.7202)" style="fill:#D4B951;" cx="360.691" cy="346.262" rx="26.492" ry="13.091"/>
		
			<ellipse transform="matrix(0.9719 -0.2356 0.2356 0.9719 -71.4236 94.722)" style="fill:#E07E1F;" cx="360.691" cy="346.262" rx="18.971" ry="9.374"/>
		<path style="fill:#D6642B;" d="M359.277,340.427c9.051-2.194,17.354-0.794,19.946,3.077c0.066-0.579,0.042-1.151-0.094-1.711
			c-1.22-5.032-10.463-7.109-20.645-4.641c-10.182,2.468-17.448,8.548-16.228,13.58c0.136,0.559,0.376,1.08,0.7,1.564
			C343.486,347.667,350.226,342.621,359.277,340.427z"/>
	</g>
	<g>
		
			<ellipse transform="matrix(0.97 -0.2431 0.2431 0.97 -77.9582 116.6986)" style="fill:#E07E1F;" cx="433.942" cy="374.275" rx="15.398" ry="7.609"/>
		
			<rect x="418.106" y="370.725" transform="matrix(0.97 -0.2431 0.2431 0.97 -77.547 116.5406)" style="fill:#E07E1F;" width="30.796" height="3.604"/>
		
			<ellipse transform="matrix(0.97 -0.2431 0.2431 0.97 -77.2843 116.4394)" style="fill:#D4B951;" cx="433.225" cy="371.412" rx="15.398" ry="7.609"/>
		<path style="fill:#E07E1F;" d="M443.92,368.732c0.732,2.919-3.464,6.485-9.371,7.965c-5.907,1.48-11.289,0.314-12.02-2.605
			c-0.731-2.919,3.464-6.485,9.371-7.965C437.807,364.647,443.189,365.813,443.92,368.732z"/>
		<path style="fill:#D6642B;" d="M432.376,368.026c5.25-1.316,10.083-0.539,11.606,1.699c0.036-0.337,0.019-0.669-0.062-0.994
			c-0.731-2.919-6.113-4.085-12.02-2.605c-5.907,1.48-10.103,5.046-9.371,7.965c0.081,0.324,0.223,0.626,0.414,0.906
			C423.231,372.306,427.126,369.342,432.376,368.026z"/>
	</g>
	<g>
		<path style="fill:#2C9C83;" d="M236.55,322.07l-19.16,53.36l-5.19,14.45c0,0-44.97-26.14-94.42-17.83
			c-47.06,7.9-82.43-34.21-82.43-34.21l41.29-67.11c0,0,4.27,4.09,11.37,9.26c14.52,10.59,40.89,25.7,66.87,19.62
			C193.57,290.54,236.55,322.07,236.55,322.07z"/>
		<path style="fill:#248A73;" d="M236.55,322.07l-19.16,53.36c-17.63-6.56-47.17-14.32-78.18-8.39
			c-46.87,8.97-83.19-32.34-83.19-32.34l31.99-54.71c14.52,10.59,40.89,25.7,66.87,19.62C193.57,290.54,236.55,322.07,236.55,322.07
			z"/>
		<path style="fill:#43A892;" d="M58.7,318.941l48.038-62.46c0,0,35.398,41.842,74.818,36.836
			c39.42-5.006,78.896,30.818,78.896,30.818L229.2,389.051c0,0-42.013-30.66-92.06-27.531C89.517,364.496,58.7,318.941,58.7,318.941
			z"/>
		<path style="fill:#74E0A3;" d="M224.52,372.806c-15.522-8.863-45.415-22.773-80.153-22.773c-2.65,0-5.318,0.082-7.93,0.246
			c-1.251,0.078-2.519,0.118-3.767,0.118c-28.626,0-50.377-20.815-59.69-31.549l34.78-45.222
			c13.144,12.219,38.344,31.37,67.163,31.37c2.7,0,5.408-0.171,8.05-0.506c2.037-0.258,4.155-0.389,6.293-0.389
			c23.221,0,46.291,14.986,57.169,23.181L224.52,372.806z"/>
		
			<ellipse transform="matrix(0.1483 -0.9889 0.9889 0.1483 -186.0573 435.0888)" style="fill:#43A892;" cx="159.576" cy="325.566" rx="18.394" ry="22.534"/>
		<path style="fill:#43A892;" d="M121.561,282.585c-0.938,6.253-7.908,10.39-15.568,9.241c-7.66-1.149-13.11-7.149-12.172-13.402
			c0.938-6.253,7.908-10.39,15.568-9.242C117.049,270.332,122.498,276.332,121.561,282.585z"/>
		<path style="fill:#43A892;" d="M85.658,331.661c-5.004,3.865-12.899,2.028-17.633-4.102s-4.516-14.233,0.488-18.098
			c5.004-3.865,12.899-2.028,17.633,4.102C90.88,319.694,90.662,327.796,85.658,331.661z"/>
		<path style="fill:#43A892;" d="M235.723,364.654c1.49,6.145-3.405,12.605-10.933,14.43c-7.528,1.825-14.838-1.677-16.327-7.822
			c-1.49-6.145,3.405-12.605,10.933-14.43C226.924,355.008,234.234,358.51,235.723,364.654z"/>
		<path style="fill:#43A892;" d="M249.685,337.022c-5.165,3.647-12.974,1.475-17.442-4.852c-4.468-6.327-3.904-14.413,1.261-18.06
			c5.165-3.647,12.974-1.475,17.442,4.852C255.414,325.289,254.849,333.375,249.685,337.022z"/>
	</g>
</g>
</svg>
