<?xml version="1.0" encoding="UTF-8" standalone="no"?>
<!-- Created with Inkscape (http://www.inkscape.org/) -->

<svg
   version="1.1"
   id="svg2"
   width="3214.6667"
   height="2213.3867"
   viewBox="0 0 3214.6667 2213.3867"
   sodipodi:docname="vecteezy_couple-plan-family-budget-manage-finance_13717353.eps"
   xmlns:inkscape="http://www.inkscape.org/namespaces/inkscape"
   xmlns:sodipodi="http://sodipodi.sourceforge.net/DTD/sodipodi-0.dtd"
   xmlns="http://www.w3.org/2000/svg"
   xmlns:svg="http://www.w3.org/2000/svg">
  <defs
     id="defs6" />
  <sodipodi:namedview
     id="namedview4"
     pagecolor="#ffffff"
     bordercolor="#000000"
     borderopacity="0.25"
     inkscape:showpageshadow="2"
     inkscape:pageopacity="0.0"
     inkscape:pagecheckerboard="0"
     inkscape:deskcolor="#d1d1d1" />
  <g
     id="g8"
     inkscape:groupmode="layer"
     inkscape:label="ink_ext_XXXXXX"
     transform="matrix(1.3333333,0,0,-1.3333333,0,2213.3867)">
    <g
       id="g10"
       transform="scale(0.1)">
      <path
         d="M 24110,0 H 0 V 16600.4 H 24110 V 0"
         style="fill:#ffffff;fill-opacity:1;fill-rule:nonzero;stroke:none"
         id="path12" />
      <path
         d="m 22396.7,4279.6 c 0,-189.9 -4731.1,-343.7 -10567.2,-343.7 -5836.17,0 -10567.3,153.8 -10567.3,343.7 0,189.8 4731.13,343.6 10567.3,343.6 5836.1,0 10567.2,-153.8 10567.2,-343.6"
         style="fill:#eeecf1;fill-opacity:1;fill-rule:nonzero;stroke:none"
         id="path14" />
      <path
         d="M 17719.5,6258.5 H 5305.35 c -462.14,0 -836.78,374.61 -836.78,836.75 v 4887.15 c 0,462.2 374.64,836.8 836.78,836.8 H 17719.5 c 462.2,0 836.8,-374.6 836.8,-836.8 V 7095.25 c 0,-462.14 -374.6,-836.75 -836.8,-836.75"
         style="fill:#eeecf1;fill-opacity:1;fill-rule:nonzero;stroke:none"
         id="path16" />
      <path
         d="M 18744.7,6723.18 V 6413.7 c 0,-81.3 -12.8,-160.4 -37.6,-236 -125.7,-383 -549.1,-664.9 -1052.9,-664.9 H 5371.1 c -503.78,0 -928.01,281.9 -1053.74,664.9 -24.81,75.6 -37.64,154.7 -37.64,236 v 309.48 c 0,497.44 488.39,900.91 1091.38,900.91 h 12283.1 c 602.1,0 1090.5,-403.47 1090.5,-900.91"
         style="fill:#ddd7e0;fill-opacity:1;fill-rule:nonzero;stroke:none"
         id="path18" />
      <path
         d="m 5990.23,4419.5 h -46.19 c -113.43,0 -209.38,83.9 -224.53,196.3 l -161.06,1195.4 h 709.64 L 6216.58,4636.1 C 6211.26,4515 6111.5,4419.5 5990.23,4419.5"
         style="fill:#bbafc0;fill-opacity:1;fill-rule:nonzero;stroke:none"
         id="path20" />
      <path
         d="m 17038.9,4419.5 h 46.1 c 113.5,0 209.4,83.9 224.6,196.3 l 161,1195.4 H 16761 l 51.5,-1175.1 c 5.3,-121.1 105.1,-216.6 226.4,-216.6"
         style="fill:#bbafc0;fill-opacity:1;fill-rule:nonzero;stroke:none"
         id="path22" />
      <path
         d="M 10586.1,12477.6 H 8484.98 c -9.75,0 -17.67,8 -17.67,17.7 0,9.8 7.92,17.7 17.67,17.7 h 2101.12 c 9.8,0 17.7,-7.9 17.7,-17.7 0,-9.7 -7.9,-17.7 -17.7,-17.7"
         style="fill:#ffffff;fill-opacity:1;fill-rule:nonzero;stroke:none"
         id="path24" />
      <path
         d="m 18693.8,6177.7 c -125.5,-383 -548.1,-664.9 -1050.9,-664.9 H 5382.42 c -502.85,0 -926.3,281.9 -1051.8,664.9 H 18693.8"
         style="fill:#bbafc0;fill-opacity:1;fill-rule:nonzero;stroke:none"
         id="path26" />
      <path
         d="m 18305.3,7333.16 c 0,-199.06 -997.8,-417.15 -2228.8,-417.15 -1231,0 -2228.9,218.09 -2228.9,417.15 0,199.08 997.9,360.44 2228.9,360.44 1231,0 2228.8,-161.36 2228.8,-360.44"
         style="fill:#bbafc0;fill-opacity:1;fill-rule:nonzero;stroke:none"
         id="path28" />
      <path
         d="m 9198.45,6999.13 c 0,-199.06 -997.89,-360.44 -2228.86,-360.44 -1230.97,0 -2228.86,161.38 -2228.86,360.44 0,199.06 997.89,360.44 2228.86,360.44 1230.97,0 2228.86,-161.38 2228.86,-360.44"
         style="fill:#bbafc0;fill-opacity:1;fill-rule:nonzero;stroke:none"
         id="path30" />
      <path
         d="m 12352.3,3937.5 c 0,0 -420.8,-478 -325.2,-517.4 95.6,-39.4 904.5,80.7 884.1,167.3 -20.5,86.6 -462,356.7 -558.9,350.1"
         style="fill:#ffffff;fill-opacity:1;fill-rule:nonzero;stroke:none"
         id="path32" />
      <path
         d="m 12911,9296.81 c 0,0 866.2,-312.03 1601,-157.57 758.5,159.44 1097.4,637.6 1097.4,637.6 l -123.2,1612.06 c 0,0 -1037.5,-584.6 -1492.9,-873.6 -369.6,-234.6 -860.3,-545.18 -860.3,-545.18 l -222,-673.31"
         style="fill:#f7b369;fill-opacity:1;fill-rule:nonzero;stroke:none"
         id="path34" />
      <path
         d="m 13568.2,4402.3 -230.9,-1107.4 -1169.4,243.8 189.9,1043 1210.4,-179.4"
         style="fill:#f48462;fill-opacity:1;fill-rule:nonzero;stroke:none"
         id="path36" />
      <path
         d="m 13208.8,2471 c 82.5,-1 151.2,63 156.3,145.6 19.8,326.7 106.9,1056.4 43.4,1060.2 -80.9,4.8 -906.3,-155.3 -906.3,-155.3 0,0 4.2,454 -336.1,392.7 -261.1,-47.1 -576.7,-317.3 -709.4,-440.4 -42.1,-39.1 -94.2,-65 -150.7,-74.8 -243.1,-42 -913.8,-187.6 -943.3,-519.3 -36.2,-405.6 140.1,-369.4 221.1,-374.2 69.5,-4.2 2062.1,-27.9 2625,-34.5"
         style="fill:#5c69a5;fill-opacity:1;fill-rule:nonzero;stroke:none"
         id="path38" />
      <path
         d="m 15784.5,5818.1 546.6,-1216.3 -1151.6,-517.6 -538.2,1127.9 1143.2,606"
         style="fill:#f48462;fill-opacity:1;fill-rule:nonzero;stroke:none"
         id="path40" />
      <path
         d="m 16619.7,3873.5 c 70.7,42.6 95.4,133.2 56.2,206.1 -155.1,288.2 -465.2,954.5 -521.1,924.3 -71.4,-38.6 -688.9,-609.1 -688.9,-609.1 0,0 -235.4,388.2 -492.4,156.9 -197.3,-177.5 -323.4,-573.3 -371.4,-747.9 -15.2,-55.4 -45.8,-104.8 -88.8,-142.9 -184.6,-163.7 -678.1,-640.6 -528.6,-938.2 182.8,-363.7 313.6,-240.2 385,-201.7 61.2,33.1 1767.9,1061.8 2250,1352.5"
         style="fill:#5c69a5;fill-opacity:1;fill-rule:nonzero;stroke:none"
         id="path42" />
      <path
         d="m 14513.3,3641.9 c -6.4,0 -12.7,3.3 -16.3,9.3 -5.4,9 -2.4,20.6 6.6,26 l 400,238.8 c 8.9,5.4 20.6,2.5 26,-6.5 5.4,-9 2.5,-20.7 -6.5,-26 l -400,-238.9 c -3.1,-1.8 -6.4,-2.7 -9.8,-2.7"
         style="fill:#f7b369;fill-opacity:1;fill-rule:nonzero;stroke:none"
         id="path44" />
      <path
         d="m 14988.3,7742.51 1302.6,-2480.31 -1927,-927.2 -786.2,1500.5 546.5,1834.32 864.1,72.69"
         style="fill:#92b4ea;fill-opacity:1;fill-rule:nonzero;stroke:none"
         id="path46" />
      <path
         d="m 17383.2,8690.64 c 0,0 30.6,-1354.96 -369.4,-1491.52 -415.7,-141.89 -2303.4,-272.97 -2421.9,-370.2 -118.6,-97.25 -914.1,-2800.72 -914.1,-2800.72 l -2164.1,202.1 c 0,0 821,3424.17 1433.2,3904.66 593.5,465.83 2516.4,555.68 2516.4,555.68 h 1919.9"
         style="fill:#92b4ea;fill-opacity:1;fill-rule:nonzero;stroke:none"
         id="path48" />
      <path
         d="m 14084.8,5355 c -1.8,0 -3.6,0.2 -5.4,0.8 -10,2.9 -15.8,13.5 -12.8,23.5 14.1,48.2 347.6,1181.9 434.6,1285.69 87,103.8 745.4,260.57 820.1,278.11 10.4,2.39 20.4,-3.93 22.9,-14.15 2.4,-10.21 -4,-20.43 -14.2,-22.81 -199.8,-46.85 -732.9,-185.87 -799.7,-265.54 -68,-81.1 -331.5,-945.7 -427.3,-1272 -2.5,-8.3 -10,-13.6 -18.2,-13.6"
         style="fill:#f7b369;fill-opacity:1;fill-rule:nonzero;stroke:none"
         id="path50" />
      <path
         d="m 14214.2,7115.83 c -8.8,0 -20.4,-3.6 -33.8,-20.43 -15.8,-20.1 -21.2,-42.92 -16.3,-69.79 21.2,-117.2 220.6,-263.23 313.8,-325.81 -67,172.58 -180.8,402.86 -257.8,415.54 -1.8,0.28 -3.8,0.49 -5.9,0.49 z m 301.6,-482 c -3.4,0 -6.9,0.89 -9.9,2.75 -14.2,8.6 -348.5,212.81 -379.2,382.31 -6.8,37.65 1.3,71.32 24,100.02 26.7,33.8 55.8,37.01 75.6,33.88 135.3,-22.24 290.1,-445.45 307.3,-493.63 2.7,-7.54 0.4,-15.98 -5.8,-21.07 -3.5,-2.85 -7.8,-4.26 -12,-4.26"
         style="fill:#f7b369;fill-opacity:1;fill-rule:nonzero;stroke:none"
         id="path52" />
      <path
         d="m 15681.8,12381.6 c 0,0 -117.3,258.5 -95.2,371.8 22,113.3 216.3,486.5 815.5,317.1 446.8,-126.3 493.6,-733.5 401.6,-938.2 -236.8,-526.9 -715.2,-276.3 -715.2,-276.3 0,0 -764,232.5 -406.7,525.6"
         style="fill:#000000;fill-opacity:1;fill-rule:nonzero;stroke:none"
         id="path54" />
      <path
         d="m 17423.7,8616.23 c 0,0 -1.3,2282.27 -136.1,2436.67 -415.7,476.3 -1413.2,636.2 -1899,273.7 -304.1,-226.9 -259.2,-912.6 -245,-1930.7 8,-572.94 30.4,-779.67 30.4,-779.67 h 2249.7"
         style="fill:#f7b369;fill-opacity:1;fill-rule:nonzero;stroke:none"
         id="path56" />
      <path
         d="m 15754.9,11776 -0.6,-11.3 -1.9,-214.5 -2.2,-168.1 c 0,0 -16.5,-38.2 179.5,-36 262.6,3.9 353,111.7 353,111.7 l 32.3,392.6 -80.1,-10.8 -480,-63.6"
         style="fill:#f48462;fill-opacity:1;fill-rule:nonzero;stroke:none"
         id="path58" />
      <path
         d="m 15754.3,11764.7 -1.9,-214.5 c 128,8.6 362.4,51.2 466.6,246.2 8.1,15.9 13.6,30.3 15.8,42.4 l -479.5,-70.9 -1,-3.2"
         style="fill:#000000;fill-opacity:1;fill-rule:nonzero;stroke:none"
         id="path60" />
      <path
         d="m 15726.4,12793 c 0,0 -273.3,-543.9 -202.4,-861.6 70.8,-317.6 358.6,-283.7 532.4,-232.4 173.8,51.4 258.6,151.7 258.6,151.7 0,0 156.5,-62.6 271,79.9 114.6,142.4 58.1,316.1 -30.8,360 -88.9,43.9 -200.6,-16 -200.6,-16 l 93.5,157.3 c 0,0 -312.5,841.8 -721.7,361.1"
         style="fill:#f48462;fill-opacity:1;fill-rule:nonzero;stroke:none"
         id="path62" />
      <path
         d="m 16354.6,12274.6 c 0,0 -237.3,136.1 -317,315.4 -79.7,179.2 -78.9,267.2 -78.9,267.2 0,0 -41,-113.2 -130.9,-136 -90,-22.9 -145.2,-23.3 -145.2,-23.3 l -64.3,-160.7 36.3,309.9 c 0,0 246.3,117 278.5,115.5 32.2,-1.5 453.3,-15.6 475.7,-41.1 22.3,-25.5 135.4,-346.7 135.4,-346.7 l 2.1,-142.8 -191.7,-157.4"
         style="fill:#000000;fill-opacity:1;fill-rule:nonzero;stroke:none"
         id="path64" />
      <path
         d="m 15908.9,11328.6 c -118.6,0 -198.8,29.9 -205.1,32.3 -9.1,3.5 -13.7,13.7 -10.2,22.8 3.6,9.2 13.9,13.7 22.9,10.2 2.9,-1.1 290.7,-107.6 588.5,96.3 8,5.5 19.1,3.4 24.6,-4.6 5.5,-8 3.4,-19 -4.6,-24.5 -153.4,-105.1 -302.4,-132.5 -416.1,-132.5"
         style="fill:#ffffff;fill-opacity:1;fill-rule:nonzero;stroke:none"
         id="path66" />
      <path
         d="m 15143.6,9291.13 c -9.8,0 -17.7,7.93 -17.7,17.67 v 517.16 c -14.1,26.73 -85.2,172.74 -85.1,407.34 0.2,254.6 165.2,566.2 172.3,579.3 4.5,8.7 15.3,11.9 23.9,7.3 8.6,-4.6 11.8,-15.3 7.2,-24 -1.6,-3.1 -167.9,-316.9 -168,-562.7 -0.2,-244.86 81.9,-392.54 82.7,-394.01 1.5,-2.65 2.4,-5.67 2.4,-8.73 V 9308.8 c 0,-9.74 -8,-17.67 -17.7,-17.67"
         style="fill:#ffffff;fill-opacity:1;fill-rule:nonzero;stroke:none"
         id="path68" />
      <path
         d="m 16346.1,12004.6 c -4.6,0 -9.2,1.8 -12.7,5.4 -6.7,7.1 -6.5,18.2 0.5,25 l 175.9,168.2 c 7,6.7 18.2,6.5 25,-0.6 6.7,-7 6.5,-18.2 -0.6,-25 l -175.9,-168.2 c -3.4,-3.2 -7.8,-4.8 -12.2,-4.8"
         style="fill:#000000;fill-opacity:1;fill-rule:nonzero;stroke:none"
         id="path70" />
      <path
         d="m 16533.4,12044.4 c -1.9,0.1 -133.1,13.8 -133.1,13.8 -9.7,1 -16.8,9.7 -15.8,19.4 1.1,9.7 10.4,16.6 19.4,15.7 l 131.3,-13.6 c 9.7,-1 16.7,-9.7 15.7,-19.4 -0.9,-9.1 -8.6,-15.9 -17.5,-15.9"
         style="fill:#000000;fill-opacity:1;fill-rule:nonzero;stroke:none"
         id="path72" />
      <path
         d="m 16058.2,12532.5 c -0.7,0 -1.5,0.1 -2.3,0.2 l -138,18.1 c -9.7,1.3 -16.5,10.1 -15.2,19.8 1.3,9.7 9.9,16.3 19.8,15.2 l 138,-18.1 c 9.6,-1.3 16.5,-10.1 15.2,-19.8 -1.2,-8.9 -8.8,-15.4 -17.5,-15.4"
         style="fill:#000000;fill-opacity:1;fill-rule:nonzero;stroke:none"
         id="path74" />
      <path
         d="M 15741.4,12568.7 H 15638 c -9.8,0 -17.7,8 -17.7,17.7 0,9.8 7.9,17.7 17.7,17.7 h 103.4 c 9.8,0 17.7,-7.9 17.7,-17.7 0,-9.7 -7.9,-17.7 -17.7,-17.7"
         style="fill:#000000;fill-opacity:1;fill-rule:nonzero;stroke:none"
         id="path76" />
      <path
         d="m 15689.7,12121.6 c -7.2,0 -13.9,4.4 -16.6,11.6 -49.7,135.5 103.5,254.8 110,259.9 7.7,5.8 18.8,4.5 24.8,-3.3 5.9,-7.7 4.4,-18.8 -3.3,-24.8 -1.4,-1 -139.1,-108.6 -98.3,-219.7 3.3,-9.1 -1.4,-19.3 -10.5,-22.6 -2,-0.8 -4.1,-1.1 -6.1,-1.1"
         style="fill:#000000;fill-opacity:1;fill-rule:nonzero;stroke:none"
         id="path78" />
      <path
         d="m 15975,12289.8 c -1.1,0 -2.1,0.1 -3.1,0.3 -9.6,1.7 -16,10.8 -14.3,20.4 l 16.9,96.7 -44.9,41.7 c -7.2,6.7 -7.6,17.9 -0.9,25 6.5,7.2 17.8,7.6 24.9,0.9 l 52,-48.2 c 4.4,-4.1 6.4,-10.1 5.4,-16 l -18.7,-106.2 c -1.5,-8.6 -8.9,-14.6 -17.3,-14.6"
         style="fill:#000000;fill-opacity:1;fill-rule:nonzero;stroke:none"
         id="path80" />
      <path
         d="m 15645.4,12326.8 c -1.1,0 -2.1,0.1 -3.2,0.2 -9.6,1.7 -16,10.9 -14.3,20.5 l 17.1,96.7 -45,41.7 c -7.2,6.6 -7.6,17.8 -1,25 6.6,7.1 17.8,7.5 25,0.9 l 52,-48.2 c 4.4,-4.1 6.5,-10.2 5.4,-16.1 l -18.7,-106.1 c -1.5,-8.6 -8.9,-14.6 -17.3,-14.6"
         style="fill:#000000;fill-opacity:1;fill-rule:nonzero;stroke:none"
         id="path82" />
      <path
         d="m 14066.4,10444.4 c -5.3,-86.6 -4.2,-218 35.4,-254.7 7.8,-7.3 16.8,-9.7 28,-7.5 10.8,2 17.3,6.8 21,15.5 18.6,43.7 -34.3,160 -84.4,246.7 z m 55.9,-298.3 c -16.7,0 -31.9,6 -44.5,17.7 -71.2,66 -45.2,310.2 -42,337.9 0.9,7.4 6.3,13.5 13.6,15.2 7.2,1.6 14.8,-1.4 18.8,-7.7 15.6,-24.2 151.9,-239.2 115,-325.4 -8.3,-19.5 -24.4,-32.1 -46.7,-36.3 -4.8,-1 -9.6,-1.4 -14.2,-1.4"
         style="fill:#ffffff;fill-opacity:1;fill-rule:nonzero;stroke:none"
         id="path84" />
      <path
         d="m 16522,12861.3 c 0,0 214.9,678 593.8,431.2 475.7,-309.8 -83,-911.9 -421.3,-706.1 -338.3,205.8 -172.5,274.9 -172.5,274.9"
         style="fill:#000000;fill-opacity:1;fill-rule:nonzero;stroke:none"
         id="path86" />
      <path
         d="m 15827.2,11963.4 c -11.3,0 -23.2,1.1 -35.9,3.6 -9.5,1.9 -15.7,11.2 -13.8,20.8 1.9,9.6 11.1,15.9 20.8,13.8 80.2,-16.2 128,40.3 128.5,40.9 6.3,7.5 17.5,8.4 24.8,2.2 7.5,-6.3 8.5,-17.4 2.3,-24.9 -2.2,-2.6 -48.2,-56.4 -126.7,-56.4"
         style="fill:#000000;fill-opacity:1;fill-rule:nonzero;stroke:none"
         id="path88" />
      <path
         d="m 14816.4,9793.95 c 0,0 119.4,-67.88 170.1,-266.67 50.7,-198.78 -85,-167.39 -85,-167.39 l -108.7,44.16 23.6,389.9"
         style="fill:#f48462;fill-opacity:1;fill-rule:nonzero;stroke:none"
         id="path90" />
      <path
         d="m 14666.3,8750.71 c 0,0 77.6,-206.75 426.3,-268.88 370,-65.94 659.8,117.49 659.8,117.49 l -188.1,588.46 -394.3,196.48 -503.7,-633.55"
         style="fill:#f48462;fill-opacity:1;fill-rule:nonzero;stroke:none"
         id="path92" />
      <path
         d="m 14866.2,9521.27 c 0,-562.56 -456,-1018.61 -1018.6,-1018.61 -562.5,0 -1018.6,456.05 -1018.6,1018.61 0,562.53 456.1,1018.63 1018.6,1018.63 562.6,0 1018.6,-456.1 1018.6,-1018.63"
         style="fill:#fca338;fill-opacity:1;fill-rule:nonzero;stroke:none"
         id="path94" />
      <path
         d="m 14691.5,9521.27 c 0,-466.04 -377.8,-843.85 -843.9,-843.85 -466,0 -843.8,377.81 -843.8,843.85 0,466.05 377.8,843.83 843.8,843.83 466.1,0 843.9,-377.78 843.9,-843.83"
         style="fill:#ffb655;fill-opacity:1;fill-rule:nonzero;stroke:none"
         id="path96" />
      <path
         d="m 13191.8,9769.47 c -1.9,0 -3.9,0.22 -5.8,0.71 -13.1,3.18 -21.2,16.41 -18,29.54 2.7,10.96 68.5,269.78 350.4,377.58 12.6,4.8 26.8,-1.5 31.6,-14.1 4.9,-12.7 -1.4,-26.8 -14.1,-31.6 -258.2,-98.7 -319.8,-341 -320.3,-343.43 -2.7,-11.18 -12.8,-18.7 -23.8,-18.7"
         style="fill:#ffdd92;fill-opacity:1;fill-rule:nonzero;stroke:none"
         id="path98" />
      <path
         d="m 12724.7,9576.5 c 0,0 -350.3,-72.26 -226.9,-225.34 123.5,-153.06 770.7,-173.63 821.9,23.61 51.2,197.24 -595,201.73 -595,201.73"
         style="fill:#f48462;fill-opacity:1;fill-rule:nonzero;stroke:none"
         id="path100" />
      <path
         d="m 12736.9,9872.19 c 0,0 -350.3,-72.27 -226.9,-225.34 123.4,-153.07 770.7,-173.63 821.9,23.6 51.2,197.24 -595,201.74 -595,201.74"
         style="fill:#f48462;fill-opacity:1;fill-rule:nonzero;stroke:none"
         id="path102" />
      <path
         d="m 12921.8,10134.5 c -79,18.7 -161.8,19.9 -239.3,-4.5 -68.5,-21.6 -126.4,-62.1 -84.2,-138.18 84.6,-152.09 645.9,-267.62 720.2,-103.34 55.2,121.92 -240.5,209.12 -396.7,246.02"
         style="fill:#f48462;fill-opacity:1;fill-rule:nonzero;stroke:none"
         id="path104" />
      <path
         d="m 13103.6,9522.08 c -1.1,0.04 -454.9,28.15 -454.9,28.15 -9.7,0.61 -17.1,8.97 -16.5,18.72 0.6,9.71 9.2,16.86 18.7,16.54 l 453.8,-28.11 c 9.7,-0.61 17.1,-8.97 16.5,-18.72 -0.6,-9.36 -8.3,-16.58 -17.6,-16.58"
         style="fill:#000000;fill-opacity:1;fill-rule:nonzero;stroke:none"
         id="path106" />
      <path
         d="m 13152.8,9792.57 c -0.9,0 -1.7,0.06 -2.6,0.2 l -415.9,61.95 c -9.7,1.44 -16.3,10.42 -14.9,20.06 1.4,9.69 10.4,16.44 20.1,14.87 l 415.9,-61.95 c 9.6,-1.43 16.3,-10.41 14.9,-20.06 -1.3,-8.77 -8.9,-15.07 -17.5,-15.07"
         style="fill:#000000;fill-opacity:1;fill-rule:nonzero;stroke:none"
         id="path108" />
      <path
         d="m 16973.9,11300.5 c 0,0 1065.9,-496.2 887.2,-2006.05 -123.8,-1045.93 -2277.3,-858.74 -2277.3,-858.74 l -100.4,993.54 c 0,0 1115,302.52 1208.9,353.73 181.5,98.96 281.6,1517.52 281.6,1517.52"
         style="fill:#f7b369;fill-opacity:1;fill-rule:nonzero;stroke:none"
         id="path110" />
      <path
         d="m 15515.8,9378.23 c -6.7,0 -13.1,3.79 -16.1,10.23 -4.1,8.83 -0.2,19.35 8.6,23.47 6.7,3.12 680.5,313.85 1369.3,435.92 9.6,1.58 18.8,-4.68 20.5,-14.31 1.7,-9.6 -4.7,-18.77 -14.3,-20.46 -684.1,-121.27 -1353.9,-430.09 -1360.6,-433.21 -2.4,-1.12 -4.9,-1.64 -7.4,-1.64"
         style="fill:#ffffff;fill-opacity:1;fill-rule:nonzero;stroke:none"
         id="path112" />
      <path
         d="m 16708.2,10006.3 c -64,0 -153.7,-123.52 -214.4,-233.37 126.6,88.74 243,189.72 238.5,223.82 -0.2,1.05 -0.6,4.25 -9.9,7.35 -4.6,1.5 -9.3,2.2 -14.2,2.2 z m -261.9,-304.58 c -4.2,0 -8.3,1.48 -11.6,4.38 -6,5.21 -7.8,13.76 -4.3,20.89 17.3,36.3 173,353.21 303,310.61 26.5,-8.7 32.6,-26.4 33.9,-36.2 10.5,-79.36 -235.7,-247.23 -311.3,-296.78 -3,-1.94 -6.4,-2.9 -9.7,-2.9"
         style="fill:#ffffff;fill-opacity:1;fill-rule:nonzero;stroke:none"
         id="path114" />
      <path
         d="m 15170,9384.26 c 0,0 -853.2,237.99 -919.8,112.32 -49.4,-93.1 83,-175.35 83,-175.35 0,0 -235.2,10.26 -198.1,-94.37 37.1,-104.61 203.7,-165.71 203.7,-165.71 0,0 -326.5,-1.47 -129.2,-203.68 160.3,-164.17 569.3,-214.78 907.3,-162.28 338,52.49 53.1,689.07 53.1,689.07"
         style="fill:#f48462;fill-opacity:1;fill-rule:nonzero;stroke:none"
         id="path116" />
      <path
         d="m 14893.6,9213.93 c -0.9,0 -1.8,0.06 -2.7,0.2 l -564,84.8 c -9.6,1.46 -16.3,10.46 -14.8,20.1 1.4,9.67 10.6,16.32 20.1,14.84 l 564,-84.81 c 9.6,-1.46 16.3,-10.46 14.8,-20.1 -1.3,-8.75 -8.8,-15.03 -17.4,-15.03"
         style="fill:#000000;fill-opacity:1;fill-rule:nonzero;stroke:none"
         id="path118" />
      <path
         d="m 14866.3,8974.2 c -0.8,0 -1.6,0.06 -2.3,0.14 l -582,74.78 c -9.7,1.25 -16.5,10.11 -15.3,19.78 1.2,9.68 10.4,16.39 19.8,15.27 l 582,-74.77 c 9.7,-1.26 16.5,-10.11 15.3,-19.78 -1.2,-8.92 -8.8,-15.42 -17.5,-15.42"
         style="fill:#000000;fill-opacity:1;fill-rule:nonzero;stroke:none"
         id="path120" />
      <path
         d="m 12049.8,4534.1 c 0,0 374.4,-445.9 461.7,-488.4 87.3,-42.6 998.5,-354 1172.7,-526.1 174.2,-172.2 185.2,-509 135.1,-540.4 -50.2,-31.4 -3051.8,13.7 -3051.8,13.7 l -24.9,1447.6 1307.2,93.6"
         style="fill:#efa459;fill-opacity:1;fill-rule:nonzero;stroke:none"
         id="path122" />
      <path
         d="m 12431.6,4597 c 0,0 -1091.9,3018.93 -1946.2,3598.19 -694.77,471.1 -2480.16,474.33 -2480.16,474.33 L 9440.39,5998.4 10485.4,4184.9 12431.6,4597"
         style="fill:#59acc9;fill-opacity:1;fill-rule:nonzero;stroke:none"
         id="path124" />
      <path
         d="m 9313.66,12168.6 c 0,0 621.55,310.5 851.64,243.6 230.1,-66.9 101.7,-210.3 101.7,-210.3 0,0 81.6,-90.8 35.7,-181.5 -45.8,-90.6 -45.8,-90.6 -45.8,-90.6 0,0 35.7,-36.2 10.1,-164.3 -25.5,-128.1 -347.28,-547.2 -759.67,-397.8 -412.38,149.4 -193.67,800.9 -193.67,800.9"
         style="fill:#f48462;fill-opacity:1;fill-rule:nonzero;stroke:none"
         id="path126" />
      <path
         d="m 7737.96,11381.5 -376.74,300.5 -474.85,36 -437.84,-162.6 229.2,-2834.75 c 0,0 689.78,-188.14 1145.04,51.97 455.26,240.11 -84.81,2608.88 -84.81,2608.88"
         style="fill:#f7b369;fill-opacity:1;fill-rule:nonzero;stroke:none"
         id="path128" />
      <path
         d="m 5978.96,11444.6 c 213.94,198.4 562.4,253.1 767.15,268 0,0 -50.24,-1342.3 20.54,-2168.42 39.97,-466.95 64.28,-791.89 77.79,-986.41 -491.63,-12.16 -1041.14,3.18 -1041.14,3.18 0,0 -140.93,2590.25 175.66,2883.65"
         style="fill:#5c69a5;fill-opacity:1;fill-rule:nonzero;stroke:none"
         id="path130" />
      <path
         d="m 8188.25,9579.47 c -2.75,-498.48 -14.3,-902.83 -14.3,-902.83 0,0 -92.44,-64.57 -429.59,-123.55 -17.09,214.19 -111.26,943.95 -170.11,1488.91 -75.35,697 -213.03,1640 -213.03,1640 l -615.11,30.4 c 62.16,4.5 111.66,5.6 140.26,5.6 17.05,0 26.95,-0.6 26.95,-0.6 0,0 694.12,-28.3 1022.48,-203.5 0,0 8.25,-4.6 23.1,-12.5 56.1,-33.5 100.09,-72 124.3,-115.7 95.7,-171.8 110,-1086.6 105.05,-1806.23"
         style="fill:#5c69a5;fill-opacity:1;fill-rule:nonzero;stroke:none"
         id="path132" />
      <path
         d="m 6367.71,11647.9 c 0,0 -775.94,-123.9 -1235.51,-734.5 -393.98,-523.4 -520.09,-1118.88 -520.09,-1118.88 0,0 436.3,73.36 700.53,70.62 264.24,-2.75 644.28,-34.04 644.28,-34.04 l 410.79,1816.8"
         style="fill:#5c69a5;fill-opacity:1;fill-rule:nonzero;stroke:none"
         id="path134" />
      <path
         d="m 7589.25,12855.9 c 0,0 155.81,509.5 -73.19,615.7 -228.98,106.2 -377.04,-191.3 -377.04,-191.3 0,0 -518.03,-34.1 -720.73,-306.5 -202.7,-272.4 269.23,-768.4 269.23,-768.4 l 901.73,650.5"
         style="fill:#000000;fill-opacity:1;fill-rule:nonzero;stroke:none"
         id="path136" />
      <path
         d="m 6776.84,12098.2 -40.31,-475.6 c 0,0 74.18,-144 350.52,-190.2 205.85,-34.4 282.64,6.3 282.64,6.3 l -8.47,243.3 -8.59,237.4 -493.07,153.1 -82.72,25.7"
         style="fill:#f48462;fill-opacity:1;fill-rule:nonzero;stroke:none"
         id="path138" />
      <path
         d="m 6859.56,12072.5 c 0.1,-13.1 3.74,-28.9 9.93,-47.1 86.3,-246.6 372.92,-322.5 491.73,-343.4 l -8.59,237.4 -493.07,153.1"
         style="fill:#000000;fill-opacity:1;fill-rule:nonzero;stroke:none"
         id="path140" />
      <path
         d="m 7550.57,12994.5 c 0,0 199.08,-617.5 72.6,-940.5 -126.49,-323 -424.02,-240.3 -598.75,-157.8 -174.71,82.4 -247.65,201.9 -247.65,201.9 0,0 -174.99,-40.4 -272.39,128.4 -97.39,168.7 -9.56,342.4 91.23,374.1 100.79,31.8 208.69,-49.5 208.69,-49.5 l -72.8,180.9 c 0,0 466.61,835.7 819.07,262.5"
         style="fill:#f48462;fill-opacity:1;fill-rule:nonzero;stroke:none"
         id="path142" />
      <path
         d="m 6766.55,12295.7 c -4.38,0 -8.75,1.5 -12.34,4.6 l -201.22,172.2 c -7.97,6.9 -8.89,18.8 -2.07,26.8 6.83,8 18.81,8.9 26.75,2.1 l 201.23,-172.3 c 7.96,-6.8 8.89,-18.8 2.06,-26.7 -3.75,-4.4 -9.06,-6.7 -14.41,-6.7"
         style="fill:#000000;fill-opacity:1;fill-rule:nonzero;stroke:none"
         id="path144" />
      <path
         d="m 6571.45,12314.9 c -9.1,0 -17.12,6.6 -18.69,15.8 -1.73,10.4 5.21,20.2 15.55,21.9 l 144.2,24.4 c 10.4,1.7 20.12,-5.2 21.87,-15.6 1.74,-10.3 -5.21,-20.1 -15.55,-21.8 l -144.2,-24.4 c -1.08,-0.2 -2.13,-0.3 -3.18,-0.3"
         style="fill:#000000;fill-opacity:1;fill-rule:nonzero;stroke:none"
         id="path146" />
      <path
         d="m 7477.32,12314.9 c -1.48,0 -2.98,0.2 -4.45,0.6 -10.2,2.4 -16.46,12.7 -14.01,22.8 33.94,140.9 -52.95,226.5 -53.82,227.3 -7.56,7.3 -7.78,19.3 -0.53,26.9 7.26,7.6 19.31,7.8 26.83,0.5 4.24,-4.1 103.39,-101.8 64.4,-263.5 -2.09,-8.7 -9.87,-14.6 -18.42,-14.6"
         style="fill:#000000;fill-opacity:1;fill-rule:nonzero;stroke:none"
         id="path148" />
      <path
         d="m 7574.22,12532.3 c -8.98,0 -16.96,6.4 -18.64,15.5 l -20.53,111.6 c -1.88,10.3 4.93,20.2 15.24,22.1 10.25,1.8 20.18,-4.9 22.09,-15.2 l 20.53,-111.6 c 1.88,-10.3 -4.93,-20.2 -15.24,-22.1 -1.16,-0.2 -2.31,-0.3 -3.45,-0.3"
         style="fill:#000000;fill-opacity:1;fill-rule:nonzero;stroke:none"
         id="path150" />
      <path
         d="m 7272.73,12551.9 c -8.98,0 -16.96,6.4 -18.64,15.6 l -20.53,111.6 c -1.89,10.3 4.93,20.1 15.24,22.1 10.37,1.8 20.18,-5 22.09,-15.3 l 20.53,-111.6 c 1.88,-10.3 -4.93,-20.2 -15.24,-22.1 -1.16,-0.2 -2.31,-0.3 -3.45,-0.3"
         style="fill:#000000;fill-opacity:1;fill-rule:nonzero;stroke:none"
         id="path152" />
      <path
         d="m 7589.25,12855.9 c 0,0 -43.54,100 -162.12,110.8 -118.58,10.9 -194.95,-66.8 -194.95,-66.8 0,0 35.12,-204.2 -135.22,-296.7 -170.33,-92.4 -292.66,-52.1 -292.66,-52.1 l -113.49,51.6 -71.35,178.2 369.47,336.2 457.78,194.2 172.73,-185.8 -30.19,-269.6"
         style="fill:#000000;fill-opacity:1;fill-rule:nonzero;stroke:none"
         id="path154" />
      <path
         d="m 7212.75,11400.6 c -285.02,0 -477.79,182.2 -480.04,184.4 -7.54,7.3 -7.76,19.3 -0.48,26.8 7.21,7.6 19.31,7.7 26.81,0.5 2.53,-2.4 255.51,-240.9 606.16,-155.2 10.07,2.5 20.43,-3.7 22.93,-13.9 2.48,-10.2 -3.76,-20.5 -13.94,-23 -56.37,-13.7 -110.41,-19.6 -161.44,-19.6"
         style="fill:#a37b90;fill-opacity:1;fill-rule:nonzero;stroke:none"
         id="path156" />
      <path
         d="m 7139.02,13280.3 c 0,0 6.86,264.5 -279.46,171.5 -286.33,-93 -294.23,-454 -294.23,-454 l 573.69,282.5"
         style="fill:#000000;fill-opacity:1;fill-rule:nonzero;stroke:none"
         id="path158" />
      <path
         d="m 7605.73,12768.2 h -89.67 c -10.47,0 -18.97,8.5 -18.97,19 0,10.4 8.5,18.9 18.97,18.9 h 89.67 c 10.48,0 18.97,-8.5 18.97,-18.9 0,-10.5 -8.49,-19 -18.97,-19"
         style="fill:#000000;fill-opacity:1;fill-rule:nonzero;stroke:none"
         id="path160" />
      <path
         d="m 7194.23,12741 c -9.59,0 -17.83,7.3 -18.84,17 -1.1,10.4 6.46,19.8 16.87,20.9 l 146.82,15.4 c 10.94,1.2 19.78,-6.5 20.85,-16.9 1.09,-10.5 -6.46,-19.8 -16.88,-20.9 l -146.81,-15.4 c -0.67,0 -1.34,-0.1 -2.01,-0.1"
         style="fill:#000000;fill-opacity:1;fill-rule:nonzero;stroke:none"
         id="path162" />
      <path
         d="m 5963.81,9860.37 c -0.89,0 -1.78,0.06 -2.7,0.18 -10.37,1.49 -17.58,11.09 -16.11,21.46 l 32.97,231.29 c 1.48,10.3 11.09,17.5 21.46,16.1 10.37,-1.5 17.59,-11.1 16.11,-21.5 l -32.97,-231.24 c -1.35,-9.46 -9.46,-16.29 -18.76,-16.29"
         style="fill:#a37b90;fill-opacity:1;fill-rule:nonzero;stroke:none"
         id="path164" />
      <path
         d="M 9122.69,11776.9 8858.19,10661.8 8629.7,9389.58 c 0,0 730.8,-169.97 998.78,282.35 267.98,452.37 126.18,1669.27 126.18,1669.27 l -631.97,435.7"
         style="fill:#f48462;fill-opacity:1;fill-rule:nonzero;stroke:none"
         id="path166" />
      <path
         d="m 9484.99,4263.2 c 0,0 150.53,-595.7 273.7,-658.9 123.17,-63.1 652.81,-398.8 940.01,-702.7 240.8,-254.8 -1.8,-399.4 -1.8,-399.4 l -1672.36,7.5 -1432.89,1062.6 518.53,1096.2 1374.81,-405.3"
         style="fill:#f7b369;fill-opacity:1;fill-rule:nonzero;stroke:none"
         id="path168" />
      <path
         d="m 9982.6,4070.8 c 0,0 228.9,3281.07 -208.64,4058.9 -304.32,541.01 -1106.96,580.94 -1651.25,624.07 -210.52,16.69 -422.02,14.96 -632.53,-1.9 L 5824.54,8618.46 c 0,0 -364.6,-1176.92 283.17,-1518.01 C 6625.86,6827.6 7886.83,6586.3 7886.83,6586.3 L 7830.99,4294.5 9982.6,4070.8"
         style="fill:#68b6d8;fill-opacity:1;fill-rule:nonzero;stroke:none"
         id="path170" />
      <path
         d="m 6146.55,8044.82 c -7.88,0 -15.24,4.95 -17.93,12.81 -3.41,9.93 1.86,20.71 11.77,24.12 3.26,1.13 325.63,114.77 287.59,353.85 -1.64,10.35 5.41,20.06 15.77,21.72 10.21,1.81 20.04,-5.39 21.72,-15.77 43.04,-270.6 -309.22,-394.5 -312.78,-395.71 -2.03,-0.69 -4.09,-1.02 -6.14,-1.02"
         style="fill:#40507f;fill-opacity:1;fill-rule:nonzero;stroke:none"
         id="path172" />
      <path
         d="m 7958.9,11501.4 969.94,-541.7 -20.45,-1656.3 c 0,0 -719.28,-155.4 -885.18,204.18 -263.3,570.72 -64.31,1993.82 -64.31,1993.82"
         style="fill:#5c69a5;fill-opacity:1;fill-rule:nonzero;stroke:none"
         id="path174" />
      <path
         d="m 7586.19,11415.3 c 0,0 132.4,-600.8 -27.57,-873.8 -159.97,-273 -756.74,-668.1 -910.58,-1318.77 -119.13,-503.86 -168.52,-1112.52 -168.52,-1112.52 l 938.39,-152.73 c 0,0 92.7,784.38 195.31,1042.75 149.87,377.39 701.61,932.3 858.26,1317.97 156.65,385.6 45.22,945.7 45.22,945.7 l -930.51,151.4"
         style="fill:#ffffff;fill-opacity:1;fill-rule:nonzero;stroke:none"
         id="path176" />
      <path
         d="m 7381.26,8305.83 -683.57,126.99 16.84,90.67 683.58,-126.99 -16.85,-90.67"
         style="fill:#eeecf1;fill-opacity:1;fill-rule:nonzero;stroke:none"
         id="path178" />
      <path
         d="m 7738.93,9524.04 -686.23,111.7 14.81,91.03 686.24,-111.7 -14.82,-91.03"
         style="fill:#eeecf1;fill-opacity:1;fill-rule:nonzero;stroke:none"
         id="path180" />
      <path
         d="m 8501.83,10644.7 -692.56,61.2 8.12,91.9 692.57,-61.3 -8.13,-91.8"
         style="fill:#eeecf1;fill-opacity:1;fill-rule:nonzero;stroke:none"
         id="path182" />
      <path
         d="m 7605.7,9288.77 -686.23,111.7 14.81,91.02 686.24,-111.69 -14.82,-91.03"
         style="fill:#eeecf1;fill-opacity:1;fill-rule:nonzero;stroke:none"
         id="path184" />
      <path
         d="m 8508.33,10859.5 -692.56,61.3 8.12,91.8 692.57,-61.2 -8.13,-91.9"
         style="fill:#eeecf1;fill-opacity:1;fill-rule:nonzero;stroke:none"
         id="path186" />
      <path
         d="m 11454.2,12169.3 c 0,-562.6 -456,-1018.6 -1018.6,-1018.6 -562.52,0 -1018.57,456 -1018.57,1018.6 0,562.5 456.05,1018.6 1018.57,1018.6 562.6,0 1018.6,-456.1 1018.6,-1018.6"
         style="fill:#fca338;fill-opacity:1;fill-rule:nonzero;stroke:none"
         id="path188" />
      <path
         d="m 11279.5,12169.3 c 0,-466.1 -377.8,-843.9 -843.9,-843.9 -466.01,0 -843.82,377.8 -843.82,843.9 0,466 377.81,843.8 843.82,843.8 466.1,0 843.9,-377.8 843.9,-843.8"
         style="fill:#ffb655;fill-opacity:1;fill-rule:nonzero;stroke:none"
         id="path190" />
      <path
         d="m 9779.8,12424.3 c -1.4,0 -2.8,0.1 -4.2,0.5 -9.48,2.3 -15.3,11.8 -12.99,21.3 2.64,10.8 67.69,266.3 346.29,372.8 9.1,3.5 19.3,-1 22.8,-10.2 3.5,-9.1 -1.1,-19.3 -10.2,-22.8 -261.44,-100 -323.95,-345.7 -324.56,-348.1 -1.96,-8.1 -9.2,-13.5 -17.14,-13.5"
         style="fill:#fff2bb;fill-opacity:1;fill-rule:nonzero;stroke:none"
         id="path192" />
      <path
         d="m 7399.42,8593.24 -450.5,83.69 21.9,117.87 450.49,-83.68 -21.89,-117.88"
         style="fill:#eeecf1;fill-opacity:1;fill-rule:nonzero;stroke:none"
         id="path194" />
      <path
         d="m 7441.19,8844.32 -450.51,83.68 21.9,117.88 450.5,-83.69 -21.89,-117.87"
         style="fill:#eeecf1;fill-opacity:1;fill-rule:nonzero;stroke:none"
         id="path196" />
      <path
         d="m 7575.51,9087 -450.5,83.69 21.9,117.87 450.5,-83.68 -21.9,-117.88"
         style="fill:#eeecf1;fill-opacity:1;fill-rule:nonzero;stroke:none"
         id="path198" />
      <path
         d="m 7938.2,9711.19 -452.25,73.61 19.26,118.33 452.25,-73.61 -19.26,-118.33"
         style="fill:#eeecf1;fill-opacity:1;fill-rule:nonzero;stroke:none"
         id="path200" />
      <path
         d="m 8412.04,10400.1 -456.43,40.3 10.56,119.4 456.42,-40.3 -10.55,-119.4"
         style="fill:#eeecf1;fill-opacity:1;fill-rule:nonzero;stroke:none"
         id="path202" />
      <path
         d="m 4719.88,9811.23 c 0,0 -223.62,-702.45 328.64,-1014.6 552.26,-312.14 2182.23,543.42 2182.23,543.42 l -240.73,648.84 -1217.74,-123.75 c 0,0 -876.8,0.24 -1052.4,-53.91"
         style="fill:#f48462;fill-opacity:1;fill-rule:nonzero;stroke:none"
         id="path204" />
      <path
         d="m 8211.04,6921.86 c -73.19,0 -209.02,-164.91 -293.6,-290.71 83.61,13.14 272.41,52.33 331.24,144.45 19.19,30.07 22.24,62.73 9.34,99.94 -14.89,42.92 -35.12,45.23 -41.77,46 -1.7,0.21 -3.44,0.32 -5.21,0.32 z M 7878.83,6587.8 c -6.54,0 -12.66,3.4 -16.15,9 -3.81,6.19 -3.76,13.97 0.12,20.12 23.19,36.57 230.39,356.82 357.81,342.35 33.56,-3.89 58.2,-27.88 73.28,-71.29 16.72,-48.22 12.26,-92.89 -13.26,-132.85 -85.87,-134.4 -387.12,-165.93 -399.91,-167.23 -0.63,-0.1 -1.26,-0.1 -1.89,-0.1"
         style="fill:#40507f;fill-opacity:1;fill-rule:nonzero;stroke:none"
         id="path206" />
      <path
         d="m 7361.22,10302 -151.68,-159.3 432.26,-137.9 c 0,0 438.07,-155.83 488.46,-238.98 50.38,-83.16 -153.16,-117.45 -153.16,-117.45 0,0 315.86,-105.39 189.76,-206.75 -126.11,-101.36 -356.01,-48.81 -356.01,-48.81 0,0 318.5,-89.18 156.03,-197.59 -87.85,-58.62 -887.32,-3.22 -1256.49,274.9 -369.17,278.12 -13.26,463.24 -13.26,463.24 0,0 198.96,452.34 664.09,368.64"
         style="fill:#f48462;fill-opacity:1;fill-rule:nonzero;stroke:none"
         id="path208" />
      <path
         d="m 7975.39,9659.56 c -2.05,0 -4.13,0.34 -6.18,1.05 l -476.63,164.16 c -9.91,3.4 -15.18,14.2 -11.75,24.11 3.4,9.91 14.24,15.22 24.11,11.75 l 476.64,-164.16 c 9.9,-3.4 15.17,-14.2 11.75,-24.11 -2.7,-7.86 -10.05,-12.8 -17.94,-12.8"
         style="fill:#000000;fill-opacity:1;fill-rule:nonzero;stroke:none"
         id="path210" />
      <path
         d="m 7850.32,9376.65 c -1.8,0 -3.62,0.26 -5.45,0.81 l -418.6,125.64 c -10.02,3.01 -15.74,13.59 -12.72,23.62 3.02,10.03 13.59,15.73 23.63,12.73 l 418.59,-125.64 c 10.04,-3.02 15.75,-13.6 12.73,-23.62 -2.47,-8.24 -10.01,-13.54 -18.18,-13.54"
         style="fill:#000000;fill-opacity:1;fill-rule:nonzero;stroke:none"
         id="path212" />
      <path
         d="m 7318.88,12199.1 c 5.12,-22.6 18.13,-55.7 50.8,-62.1 29.5,-5.8 55.1,23.4 69.47,44.8 z m 58.9,-98.2 c -4.82,0 -9.79,0.4 -14.91,1.4 -77.71,15.3 -82.38,112.9 -82.54,117 -0.2,5.2 1.93,10.3 5.84,13.8 3.87,3.5 9.05,5.2 14.32,4.4 l 169.64,-24.5 c 5.53,-0.7 10.35,-4.1 13,-9 2.68,-4.9 2.87,-10.8 0.51,-15.9 -1.76,-3.8 -41.25,-87.2 -105.86,-87.2"
         style="fill:#000000;fill-opacity:1;fill-rule:nonzero;stroke:none"
         id="path214" />
      <path
         d="m 11771.8,3372.5 c -0.3,0 -466.1,7.5 -466.1,7.5 -10.5,0.2 -18.8,8.8 -18.7,19.3 0.2,10.4 8.7,18.7 19,18.7 0.3,0 466.2,-7.5 466.2,-7.5 10.4,-0.2 18.8,-8.8 18.6,-19.3 -0.2,-10.3 -8.6,-18.7 -19,-18.7"
         style="fill:#f7b369;fill-opacity:1;fill-rule:nonzero;stroke:none"
         id="path216" />
      <path
         d="m 9122.69,11776.9 c 0,0 65.72,316.6 75.76,428.5 12.47,139 298.64,336.5 381.65,276.4 83,-60.1 -117.86,-342.5 -117.86,-342.5 0,0 192.97,-660.4 -69.52,-728 -262.49,-67.7 -270.03,365.6 -270.03,365.6"
         style="fill:#f48462;fill-opacity:1;fill-rule:nonzero;stroke:none"
         id="path218" />
      <path
         d="m 9535.53,11579.2 c -1.78,0 -3.61,0.3 -5.43,0.8 -10.03,3 -15.74,13.6 -12.75,23.6 56.93,190.8 -62.59,492.6 -63.81,495.6 -3.91,9.8 0.82,20.8 10.54,24.7 9.83,3.9 20.77,-0.8 24.68,-10.5 5.17,-12.9 125.62,-317.3 64.95,-520.6 -2.46,-8.2 -9.99,-13.6 -18.18,-13.6"
         style="fill:#000000;fill-opacity:1;fill-rule:nonzero;stroke:none"
         id="path220" />
      <path
         d="m 19397.9,8098.7 c 0,-607.27 -492.3,-1099.57 -1099.6,-1099.57 -607.2,0 -1099.5,492.3 -1099.5,1099.57 0,607.27 492.3,1099.57 1099.5,1099.57 607.3,0 1099.6,-492.3 1099.6,-1099.57"
         style="fill:#eeecf1;fill-opacity:1;fill-rule:nonzero;stroke:none"
         id="path222" />
      <path
         d="m 18786.5,8098.7 c 0,-269.6 -218.6,-488.16 -488.2,-488.16 -269.6,0 -488.1,218.56 -488.1,488.16 0,269.6 218.5,488.16 488.1,488.16 269.6,0 488.2,-218.56 488.2,-488.16"
         style="fill:#ddd7e0;fill-opacity:1;fill-rule:nonzero;stroke:none"
         id="path224" />
      <path
         d="m 5861.37,8026.24 c 0,-607.29 -492.3,-1099.57 -1099.57,-1099.57 -607.28,0 -1099.57,492.28 -1099.57,1099.57 0,607.27 492.29,1099.56 1099.57,1099.56 607.27,0 1099.57,-492.29 1099.57,-1099.56"
         style="fill:#eeecf1;fill-opacity:1;fill-rule:nonzero;stroke:none"
         id="path226" />
      <path
         d="m 5249.95,8026.24 c 0,-269.61 -218.55,-488.16 -488.15,-488.16 -269.61,0 -488.16,218.55 -488.16,488.16 0,269.59 218.55,488.15 488.16,488.15 269.6,0 488.15,-218.56 488.15,-488.15"
         style="fill:#ddd7e0;fill-opacity:1;fill-rule:nonzero;stroke:none"
         id="path228" />
      <path
         d="m 22011.6,8742.04 c -284.4,-572.43 -753.6,-917.92 -1048,-771.66 -294.5,146.27 -302.6,728.89 -18.3,1301.32 284.4,572.44 753.6,917.9 1048,771.7 294.5,-146.3 302.6,-728.92 18.3,-1301.36"
         style="fill:#90a38d;fill-opacity:1;fill-rule:nonzero;stroke:none"
         id="path230" />
      <path
         d="m 18973.9,8783.22 c 557,-313.54 877.8,-799.97 716.5,-1086.45 -161.3,-286.51 -743.6,-264.56 -1300.5,48.98 -557,313.55 -877.8,799.98 -716.5,1086.47 161.3,286.5 743.5,264.56 1300.5,-49"
         style="fill:#90a38d;fill-opacity:1;fill-rule:nonzero;stroke:none"
         id="path232" />
      <path
         d="m 18857.4,6469.5 c -468.6,70.7 -819,323.39 -782.6,564.4 36.3,241.02 445.7,379.09 914.2,308.39 468.6,-70.7 819,-323.39 782.6,-564.41 -36.3,-240.98 -445.7,-379.08 -914.2,-308.38"
         style="fill:#90a38d;fill-opacity:1;fill-rule:nonzero;stroke:none"
         id="path234" />
      <path
         d="m 21561.8,8120.14 c 510.4,384.71 1084.6,483.76 1282.5,221.21 197.9,-262.54 -55.5,-787.26 -565.9,-1171.98 -510.4,-384.7 -1084.6,-483.75 -1282.5,-221.21 -197.9,262.54 55.5,787.25 565.9,1171.98"
         style="fill:#90a38d;fill-opacity:1;fill-rule:nonzero;stroke:none"
         id="path236" />
      <path
         d="m 20302.6,6036.7 c -8.1,0 -15.6,5.3 -18.1,13.4 -336.4,1088.47 -1498.1,924.94 -1509.9,923.28 -10.2,-1.18 -20,5.58 -21.6,15.93 -1.6,10.33 5.6,20.02 15.9,21.6 12.1,1.78 1205.6,170.42 1551.9,-949.61 3.1,-10 -2.6,-20.6 -12.6,-23.7 -1.8,-0.6 -3.7,-0.9 -5.6,-0.9"
         style="fill:#507849;fill-opacity:1;fill-rule:nonzero;stroke:none"
         id="path238" />
      <path
         d="m 20399.6,6118.5 c -8.7,0 -16.5,5.9 -18.5,14.7 -310.4,1331.17 -1471.6,2086.79 -1483.3,2094.28 -8.8,5.63 -11.4,17.35 -5.7,26.18 5.6,8.9 17.3,11.39 26.1,5.78 11.9,-7.56 1185.9,-771.03 1499.8,-2117.64 2.4,-10.2 -3.9,-20.4 -14.2,-22.8 -1.4,-0.3 -2.8,-0.5 -4.2,-0.5"
         style="fill:#507849;fill-opacity:1;fill-rule:nonzero;stroke:none"
         id="path240" />
      <path
         d="m 20320.9,5582.2 c -9.4,0 -17.5,7 -18.7,16.6 -166.7,1304.99 1195.9,3650.48 1209.6,3674.01 5.4,9.1 17,12.06 26,6.79 9.1,-5.29 12.1,-16.92 6.8,-25.96 -13.7,-23.42 -1369.8,-2357.84 -1204.8,-3650.04 1.3,-10.4 -6,-19.9 -16.5,-21.2 -0.8,-0.2 -1.6,-0.2 -2.4,-0.2"
         style="fill:#507849;fill-opacity:1;fill-rule:nonzero;stroke:none"
         id="path242" />
      <path
         d="m 20457.9,6214.4 c -0.9,0 -1.7,0.1 -2.6,0.2 -10.4,1.4 -17.7,10.9 -16.3,21.3 1.3,9.7 147.6,979.11 1714,1698.15 9.5,4.47 20.8,0.21 25.2,-9.31 4.3,-9.53 0.2,-20.8 -9.4,-25.13 -1545.6,-709.57 -1690.9,-1659.21 -1692.2,-1668.71 -1.3,-9.5 -9.4,-16.5 -18.7,-16.5"
         style="fill:#507849;fill-opacity:1;fill-rule:nonzero;stroke:none"
         id="path244" />
      <path
         d="m 21214.3,4192.7 h -1317.7 c -71.4,0 -131.2,50.9 -138.3,117.7 L 19556.8,6230 c -8.1,76.7 56.1,143.2 138.2,143.2 h 1720.9 c 82.1,0 146.3,-66.5 138.3,-143.2 l -201.6,-1919.6 c -7,-66.8 -66.8,-117.7 -138.3,-117.7"
         style="fill:#bbafc0;fill-opacity:1;fill-rule:nonzero;stroke:none"
         id="path246" />
      <path
         d="M 20922.7,4192.7 H 19605 c -71.5,0 -131.3,50.9 -138.3,117.7 L 19265.1,6230 c -8,76.7 56.2,143.2 138.3,143.2 h 1720.8 c 82.2,0 146.4,-66.5 138.3,-143.2 l -201.6,-1919.6 c -7,-66.8 -66.8,-117.7 -138.2,-117.7"
         style="fill:#ddd7e0;fill-opacity:1;fill-rule:nonzero;stroke:none"
         id="path248" />
      <path
         d="m 4718.84,14261.9 c 0,-509.3 -412.91,-922.2 -922.26,-922.2 -509.35,0 -922.27,412.9 -922.27,922.2 0,509.4 412.92,922.3 922.27,922.3 509.35,0 922.26,-412.9 922.26,-922.3"
         style="fill:#ddd7e0;fill-opacity:1;fill-rule:nonzero;stroke:none"
         id="path250" />
      <path
         d="m 4519.99,14261.9 c 0,-399.5 -323.88,-723.4 -723.41,-723.4 -399.53,0 -723.41,323.9 -723.41,723.4 0,399.6 323.88,723.4 723.41,723.4 399.53,0 723.41,-323.8 723.41,-723.4"
         style="fill:#ffffff;fill-opacity:1;fill-rule:nonzero;stroke:none"
         id="path252" />
      <path
         d="m 3768.38,14186.6 c -3.62,0 -7.27,0.7 -10.73,2.1 -8.82,3.4 -15.38,11 -17.62,20.2 l -87.33,359.7 c -3.81,15.7 5.82,31.5 21.46,35.3 15.72,3.9 31.43,-5.9 35.24,-21.5 l 77.59,-319.6 484.27,316.6 c 13.48,8.8 31.58,5 40.39,-8.5 8.81,-13.5 5.02,-31.5 -8.45,-40.4 l -518.84,-339.1 c -4.83,-3.2 -10.38,-4.8 -15.98,-4.8"
         style="fill:#a89fb3;fill-opacity:1;fill-rule:nonzero;stroke:none"
         id="path254" />
      <path
         d="m 16579.1,15125.1 c 0,-215.4 -174.6,-389.9 -389.9,-389.9 -215.4,0 -389.9,174.5 -389.9,389.9 0,215.3 174.5,389.9 389.9,389.9 215.3,0 389.9,-174.6 389.9,-389.9"
         style="fill:#90a38d;fill-opacity:1;fill-rule:nonzero;stroke:none"
         id="path256" />
      <path
         d="m 16524.5,14082.3 -559.9,7 c -30.3,0.4 -55.5,22.3 -58.1,50.7 l -75.5,816.6 c -3,32.7 24.6,60.6 59.5,60.2 l 731.1,-9.1 c 34.9,-0.5 61.8,-29.1 58,-61.6 l -95.8,-814.5 c -3.3,-28.3 -29,-49.7 -59.3,-49.3"
         style="fill:#ddd7e0;fill-opacity:1;fill-rule:nonzero;stroke:none"
         id="path258" />
      <path
         d="m 16400.5,14083.9 -559.8,6.9 c -30.3,0.4 -55.5,22.3 -58.1,50.7 l -75.5,816.7 c -3,32.6 24.6,60.5 59.5,60.1 l 731.1,-9.1 c 34.9,-0.4 61.8,-29 58,-61.6 l -95.8,-814.5 c -3.3,-28.3 -29,-49.6 -59.4,-49.2"
         style="fill:#eeecf1;fill-opacity:1;fill-rule:nonzero;stroke:none"
         id="path260" />
      <path
         d="m 19452.8,14107.1 h -1536.1 c -79.7,0 -144.4,64.7 -144.4,144.5 v 20.7 c 0,79.8 64.7,144.4 144.4,144.4 h 1536.1 c 28.3,0 51.4,-23 51.4,-51.4 v -206.8 c 0,-28.3 -23.1,-51.4 -51.4,-51.4"
         style="fill:#ddd7e0;fill-opacity:1;fill-rule:nonzero;stroke:none"
         id="path262" />
      <path
         d="m 19686.6,14103.9 h -1536.1 c -79.7,0 -144.4,64.6 -144.4,144.4 v 20.7 c 0,79.8 64.7,144.4 144.4,144.4 h 1536.1 c 28.4,0 51.4,-23 51.4,-51.3 v -206.8 c 0,-28.4 -23,-51.4 -51.4,-51.4"
         style="fill:#bbafc0;fill-opacity:1;fill-rule:nonzero;stroke:none"
         id="path264" />
      <path
         d="m 19738,14163.7 h -1563.1 c -54.3,0 -98.3,44 -98.3,98.2 0,54.3 44,98.3 98.3,98.3 H 19738 v -196.5"
         style="fill:#eeecf1;fill-opacity:1;fill-rule:nonzero;stroke:none"
         id="path266" />
      <path
         d="m 17698.9,14411 h 1727.9 c 85.5,0 154.8,69.3 154.8,154.8 0,85.5 -69.3,154.8 -154.8,154.8 h -1727.9 c -2.2,0 -4,-1.8 -4,-4.1 v -301.4 c 0,-2.3 1.8,-4.1 4,-4.1"
         style="fill:#ddd7e0;fill-opacity:1;fill-rule:nonzero;stroke:none"
         id="path268" />
      <path
         d="M 17658.2,14411 H 18994 c 85.4,0 154.8,69.3 154.8,154.8 0,85.5 -69.4,154.8 -154.8,154.8 h -1335.8 c -26.8,0 -48.5,-21.7 -48.5,-48.5 v -212.6 c 0,-26.8 21.7,-48.5 48.5,-48.5"
         style="fill:#bbafc0;fill-opacity:1;fill-rule:nonzero;stroke:none"
         id="path270" />
      <path
         d="m 17609.7,14470.8 h 1378.1 c 54.3,0 98.3,44 98.3,98.3 0,54.3 -44,98.3 -98.3,98.3 h -1378.1 v -196.6"
         style="fill:#eeecf1;fill-opacity:1;fill-rule:nonzero;stroke:none"
         id="path272" />
      <path
         d="M 17840.4,14718.1 H 19229 c 85.5,0 154.8,69.3 154.8,154.8 0,85.5 -69.3,154.8 -154.8,154.8 h -1388.6 c -9.7,0 -17.7,-7.9 -17.7,-17.6 v -274.3 c 0,-9.7 8,-17.7 17.7,-17.7"
         style="fill:#ddd7e0;fill-opacity:1;fill-rule:nonzero;stroke:none"
         id="path274" />
      <path
         d="m 17796.3,14718.1 h 1074.6 c 85.5,0 154.8,69.3 154.8,154.8 0,85.5 -69.3,154.8 -154.8,154.8 h -1074.6 c -24.3,0 -44,-19.7 -44,-44 v -221.5 c 0,-24.3 19.7,-44.1 44,-44.1"
         style="fill:#bbafc0;fill-opacity:1;fill-rule:nonzero;stroke:none"
         id="path276" />
      <path
         d="m 17752.3,14777.9 h 1123.3 c 54.2,0 98.2,44 98.2,98.3 0,54.3 -44,98.3 -98.2,98.3 h -1123.3 v -196.6"
         style="fill:#eeecf1;fill-opacity:1;fill-rule:nonzero;stroke:none"
         id="path278" />
      <path
         d="m 21571.5,13862 h -6261 c -74.5,0 -135,60.4 -135,134.9 0,74.5 60.5,135 135,135 h 6261 c 74.5,0 134.9,-60.5 134.9,-135 0,-74.5 -60.4,-134.9 -134.9,-134.9"
         style="fill:#bbafc0;fill-opacity:1;fill-rule:nonzero;stroke:none"
         id="path280" />
      <path
         d="M 4279.57,7590.98 H 1493.62 c -153.47,0 -277.89,124.41 -277.89,277.88 0,153.47 124.42,277.89 277.89,277.89 h 2785.95 c 153.47,0 277.88,-124.42 277.88,-277.89 0,-153.47 -124.41,-277.88 -277.88,-277.88"
         style="fill:#ddd7e0;fill-opacity:1;fill-rule:nonzero;stroke:none"
         id="path282" />
      <path
         d="m 1855.14,4191.8 c -83.56,0 -151.3,67.7 -151.3,151.3 v 3338 c 0,83.56 67.74,151.3 151.3,151.3 83.55,0 151.29,-67.74 151.29,-151.3 v -3338 c 0,-83.6 -67.74,-151.3 -151.29,-151.3"
         style="fill:#ddd7e0;fill-opacity:1;fill-rule:nonzero;stroke:none"
         id="path284" />
      <path
         d="m 3947.88,4191.8 c -83.56,0 -151.3,67.7 -151.3,151.3 v 3338 c 0,83.56 67.74,151.3 151.3,151.3 83.55,0 151.29,-67.74 151.29,-151.3 v -3338 c 0,-83.6 -67.74,-151.3 -151.29,-151.3"
         style="fill:#ddd7e0;fill-opacity:1;fill-rule:nonzero;stroke:none"
         id="path286" />
      <path
         d="m 3774.7,8146.75 h -703.32 v 919.6 h 703.32 v -919.6"
         style="fill:#bbafc0;fill-opacity:1;fill-rule:nonzero;stroke:none"
         id="path288" />
      <path
         d="m 3774.7,9066.35 c 0,-22.32 -157.45,-40.42 -351.66,-40.42 -194.22,0 -351.66,18.1 -351.66,40.42 0,22.32 157.44,40.41 351.66,40.41 194.21,0 351.66,-18.09 351.66,-40.41"
         style="fill:#ddd7e0;fill-opacity:1;fill-rule:nonzero;stroke:none"
         id="path290" />
      <path
         d="m 3774.73,8835.12 c -110.67,0 -200.75,-124.48 -200.75,-277.44 0,-152.98 90.08,-277.46 200.75,-277.46 110.66,0 200.69,124.48 200.69,277.46 0,152.96 -90.03,277.44 -200.69,277.44 z m 0,-617.05 c -144.96,0 -262.91,152.33 -262.91,339.61 0,187.26 117.95,339.59 262.91,339.59 144.96,0 262.84,-152.33 262.84,-339.59 0,-187.28 -117.88,-339.61 -262.84,-339.61"
         style="fill:#bbafc0;fill-opacity:1;fill-rule:nonzero;stroke:none"
         id="path292" />
      <path
         d="m 16041.1,1420.3 c 0,-140 -1845.4,-253.5 -4121.9,-253.5 -2276.45,0 -4121.89,113.5 -4121.89,253.5 0,140 1845.44,253.5 4121.89,253.5 2276.5,0 4121.9,-113.5 4121.9,-253.5"
         style="fill:#eeecf1;fill-opacity:1;fill-rule:nonzero;stroke:none"
         id="path294" />
      <path
         d="m 11893,3454.8 h -436.3 c -10.5,0 -19,8.5 -19,19 0,10.5 8.5,19 19,19 h 436.3 c 10.5,0 19,-8.5 19,-19 0,-10.5 -8.5,-19 -19,-19"
         style="fill:#f7b369;fill-opacity:1;fill-rule:nonzero;stroke:none"
         id="path296" />
      <path
         d="m 8334.37,5456.4 c -67.98,0 -136.45,-39 -189.59,-110 -70.97,-94 -105.51,-251.4 -87.87,-396.2 74.23,1.4 151.97,25.9 231.48,73.1 147.91,88.2 224.41,196.4 209.84,296.8 -9.18,63.2 -56.39,114.5 -120.31,130.8 -14.38,3.7 -28.96,5.5 -43.55,5.5 z M 8507.33,4521 c -116.96,0 -216.06,27.4 -296.04,82.2 -123.45,84.4 -170.18,212.1 -187.2,309.8 -312.66,18.7 -478.07,391.2 -485.09,407.3 -4.17,9.7 0.23,20.8 9.85,25 9.61,4.3 20.77,-0.2 24.97,-9.8 1.6,-3.7 160.16,-360.3 444.76,-384 -17.09,152.4 20.36,317.7 95.89,417.7 74,98.8 176.05,143.1 272.81,118.5 78.83,-20.1 137.11,-83.7 148.5,-162.2 16.88,-116.3 -66.2,-238.4 -227.97,-334.8 -83.53,-49.6 -165.83,-75.8 -245.06,-78.3 16.76,-89.3 60.27,-202.9 169.96,-277.9 116.34,-79.6 278.73,-96.3 482.59,-49.9 16.74,3.8 34,8 51.27,12.7 10.11,2.9 20.56,-3.1 23.32,-13.2 2.78,-10.1 -3.16,-20.6 -13.27,-23.3 -17.87,-4.9 -35.71,-9.3 -52.95,-13.2 -77.71,-17.7 -149.92,-26.6 -216.34,-26.6"
         style="fill:#000000;fill-opacity:1;fill-rule:nonzero;stroke:none"
         id="path298" />
      <path
         d="m 14539.9,4487.4 c -96.4,586.4 -225.4,1087.1 -304.4,1119.1 -30.6,12.6 -62.9,24.3 -96.4,35.1 -163.4,54.7 -340,90.7 -340,90.7 0,0 -477.2,475.3 -510,435 -32.2,-40.4 6,-419.5 6,-419.5 0,0 -548.5,488 -592.9,474.7 -44.5,-13.7 -99.2,-471 -99.2,-471 0,0 -759,67.4 -1566.5,45.9 -347.5,-10.9 -703.4,-38.9 -1011.2,-95.8 -1025.28,-189.5 -1203.09,-420.1 -1257.82,-559.8 -22.44,-57.6 -49.37,-283.4 -47.91,-575.7 1.83,-420.4 62.16,-977.8 277.86,-1362.2 364.58,-650.7 878.21,-895.1 878.21,-895.1 0,0 -32.02,-173.8 -57.31,-348.3 -25.31,-174.4 -43.41,-350 -14.44,-352.4 57.41,-4.7 267.01,93.1 267.01,93.1 0,0 147.4,-315.2 190.4,-318.7 26.3,-2.2 112,190.7 174.4,341.3 39.6,95.1 69.9,172.8 69.9,172.8 0,0 212.7,-87.3 531.2,-145 l -2,-7.1 c 54.3,-10.1 111.3,-18.8 170.6,-26.1 428.3,-52.6 593.6,19.2 593.6,19.2 0,0 -17.9,-83.9 -33.9,-182.5 -22.3,-133.5 -41.7,-293.3 -9.4,-304.5 55.7,-19 255,107.6 255,107.6 0,0 238.3,-237.9 281.2,-241.7 17.6,-1.6 42.4,124.9 64.6,275.1 32.2,216 60.3,479.2 60.3,479.2 l 149.5,58.6 c 0,0 76.9,-142.8 159,-280.9 75.6,-128.1 155.7,-252.4 183.1,-254.9 57.4,-5.1 145.3,333.6 145.3,333.6 0,0 266.1,-95.5 326.8,-57.7 35.3,21.9 -50.9,178 -130.6,307 -59.2,96 -115.1,177 -115.1,177 l 215.9,153.8 c 0,0 596.5,-53 982.6,122.7 100.4,45.3 185.5,106.5 243.2,187.3 79.8,112.3 101.4,396.9 86.8,748.3 -14.3,343.6 -62.1,750.1 -123.4,1121.8"
         style="fill:#a06b89;fill-opacity:1;fill-rule:nonzero;stroke:none"
         id="path300" />
      <path
         d="m 10435.6,1705.9 c -2.1,0 -4.2,0.4 -6.3,1.2 L 9811.94,1944 c -9.13,3.5 -13.66,13.7 -10.18,22.8 3.53,9.1 13.84,13.7 22.82,10.2 L 10442,1740.1 c 9.1,-3.5 13.6,-13.7 10.1,-22.8 -2.7,-7.1 -9.4,-11.4 -16.5,-11.4"
         style="fill:#ffffff;fill-opacity:1;fill-rule:nonzero;stroke:none"
         id="path302" />
      <path
         d="m 15326.8,4096.5 c 48.8,-887.5 -389.1,-1633.2 -978.2,-1665.6 -589.1,-32.4 -1106.2,660.7 -1155,1548.2 -48.8,887.5 389.2,1633.2 978.2,1665.6 589.1,32.4 1106.2,-660.8 1155,-1548.2"
         style="fill:#f7b369;fill-opacity:1;fill-rule:nonzero;stroke:none"
         id="path304" />
      <path
         d="m 14901,4073 c 24.4,-443 -37.9,-806.7 -139,-812.3 -101.1,-5.5 -202.8,349.1 -227.1,792.2 -24.4,443.1 37.8,806.7 138.9,812.3 101.1,5.6 202.8,-349.1 227.2,-792.2"
         style="fill:#000000;fill-opacity:1;fill-rule:nonzero;stroke:none"
         id="path306" />
      <path
         d="m 14273.9,4008.9 c 75.5,-437.2 55.9,-805.7 -43.9,-822.9 -99.8,-17.3 -241.9,323.2 -317.4,760.5 -75.6,437.2 -55.9,805.7 43.9,822.9 99.7,17.2 241.8,-323.2 317.4,-760.5"
         style="fill:#000000;fill-opacity:1;fill-rule:nonzero;stroke:none"
         id="path308" />
      <path
         d="m 12723.3,4285.7 c -8.6,0 -16.4,5.9 -18.5,14.6 l -78.8,331.8 c -2.3,10.2 3.9,20.4 14.1,22.9 10.3,2.2 20.4,-4 22.9,-14.2 l 78.8,-331.8 c 2.4,-10.1 -3.9,-20.4 -14.1,-22.8 -1.5,-0.3 -3,-0.5 -4.4,-0.5"
         style="fill:#000000;fill-opacity:1;fill-rule:nonzero;stroke:none"
         id="path310" />
      <path
         d="m 12358.4,2737.4 c -2.4,0 -4.9,0.4 -7.2,1.4 -9.7,4.1 -14.3,15.2 -10.3,24.8 l 151.6,365.5 c 4,9.7 15.3,14.3 24.8,10.3 9.7,-4.1 14.3,-15.2 10.2,-24.8 l -151.6,-365.5 c -3,-7.3 -10.1,-11.7 -17.5,-11.7"
         style="fill:#000000;fill-opacity:1;fill-rule:nonzero;stroke:none"
         id="path312" />
      <path
         d="m 13350.8,2288.4 c -1,0 -2,0.1 -3,0.2 -7,1.1 -699.9,115.6 -931,642.9 -4.2,9.6 0.2,20.8 9.8,25 9.6,4.2 20.8,-0.2 25,-9.8 222.8,-508.4 895.3,-619.5 902.1,-620.6 10.3,-1.6 17.4,-11.3 15.8,-21.7 -1.5,-9.3 -9.6,-16 -18.7,-16"
         style="fill:#000000;fill-opacity:1;fill-rule:nonzero;stroke:none"
         id="path314" />
      <path
         d="m 11900,5515.9 c 0.4,-5.8 0,-11.6 -0.4,-17 -5,-54.8 -49.4,-99.6 -105.8,-102.1 l -201.3,-11.2 -266.5,-14.6 -460.6,-25.7 c -0.4,-0.8 -487.7,-30.7 -487.7,-30.7 l -266,-16.6 -82.1,-5 c -62.3,-3.7 -116.25,44 -119.98,106.3 -0.42,5.8 0,10.8 0.41,16.2 2.49,31.1 17.85,58.9 40.67,78 17.85,14.9 40.26,24.5 65.2,25.7 l 124.1,7.5 801.3,48.9 c 0.4,0.9 595.2,33.2 595.2,33.2 l 202.9,11.3 41.5,2 c 62.3,4.2 115.8,-44 119.1,-106.2"
         style="fill:#000000;fill-opacity:1;fill-rule:nonzero;stroke:none"
         id="path316" />
      <path
         d="m 12356.3,1373.9 c -1.5,0 -3.1,0.2 -4.7,0.6 l -591.6,163.4 c -9.4,2.6 -15,12.3 -12.4,21.7 2.6,9.4 12.2,15 21.8,12.3 l 591.6,-163.4 c 9.4,-2.5 14.9,-12.3 12.3,-21.7 -2.1,-7.8 -9.2,-12.9 -17,-12.9"
         style="fill:#ffffff;fill-opacity:1;fill-rule:nonzero;stroke:none"
         id="path318" />
      <path
         d="m 12725,1630.8 c -5.8,0 -11.6,3 -14.9,8.3 -5.2,8.3 -2.7,19.2 5.6,24.4 l 524.7,328.1 c 8.3,5 19.2,2.6 24.3,-5.6 5.2,-8.3 2.7,-19.2 -5.6,-24.4 l -524.7,-328.1 c -2.9,-1.8 -6.1,-2.7 -9.4,-2.7"
         style="fill:#ffffff;fill-opacity:1;fill-rule:nonzero;stroke:none"
         id="path320" />
      <path
         d="m 11829.5,6038.8 c 0,-149.4 -32,-290.9 -90.1,-418.7 -38.2,-85.1 -87.6,-164 -146.9,-234.5 l -266.5,-14.6 -460.6,-25.7 c -0.4,-0.8 -487.7,-30.7 -487.7,-30.7 l -266,-16.6 c -61.8,58.1 -115.76,123.7 -161,195.5 -100.43,157.7 -158.53,344.8 -158.53,545.3 0,562.34 456.13,1018.44 1018.43,1018.44 562.8,0 1018.9,-456.1 1018.9,-1018.44"
         style="fill:#fca338;fill-opacity:1;fill-rule:nonzero;stroke:none"
         id="path322" />
      <path
         d="m 11654.7,6038.8 c 0,-156.9 -43.1,-303.8 -118.2,-430 -54,-92.1 -125.8,-173 -210.5,-237.8 l -460.6,-25.7 c -0.4,-0.8 -487.7,-30.7 -487.7,-30.7 -92.1,54.8 -173,127.4 -237.7,212.1 -108.4,141.9 -173.11,319.5 -173.11,512.1 0,466.1 377.71,843.72 843.71,843.72 466.1,0 844.1,-377.62 844.1,-843.72"
         style="fill:#ffb655;fill-opacity:1;fill-rule:nonzero;stroke:none"
         id="path324" />
      <path
         d="m 10154.9,6286.9 c -1.9,0 -3.9,0.3 -5.8,0.7 -13.1,3.2 -21.2,16.5 -18,29.6 2.7,11 68.6,269.7 350.5,377.55 12.5,4.78 26.7,-1.51 31.6,-14.12 4.8,-12.63 -1.5,-26.78 -14.1,-31.61 -258.2,-98.72 -319.9,-340.92 -320.4,-343.42 -2.8,-11.2 -12.8,-18.7 -23.8,-18.7"
         style="fill:#ffdd92;fill-opacity:1;fill-rule:nonzero;stroke:none"
         id="path326" />
    </g>
  </g>
</svg>
