<?xml version="1.0" encoding="utf-8"?>
<!-- Generator: Adobe Illustrator 27.5.0, SVG Export Plug-In . SVG Version: 6.00 Build 0)  -->
<svg version="1.1" xmlns="http://www.w3.org/2000/svg" xmlns:xlink="http://www.w3.org/1999/xlink" x="0px" y="0px"
	 viewBox="0 0 500 500" style="enable-background:new 0 0 500 500;" xml:space="preserve">
<g id="Background_complete">
	<path style="fill:#E6E6E6;" d="M337.667,223.667c0,0,26.585-13.551,35.702-9.697c9.117,3.854,25.657,36.185,33.054,41.53
		C415,261.697,427.31,276.351,437,294.263c9.656,17.85,11.004,53.552,11.004,53.552h-66.337L337.667,223.667z"/>
	<path style="fill:#E0E0E0;" d="M194.229,266.044c0,0-30.92-17.964-44.244-25.558c-13.324-7.594-47.673,37.841-67.829,41.678
		C62,286,55.534,348.895,55.534,348.895H181.5L194.229,266.044z"/>
	<path style="fill:#E6E6E6;" d="M238.5,261c0,0-19.526-16.333-29.763-19.417c-10.237-3.083-47.772,32.71-62.754,32.558
		c-14.983-0.152-52.338,16.42-52.338,16.42l-29.688,58.334h130.882L238.5,261z"/>
	<g>
		<g>
			<g>
				<g>
					<path style="fill:#F0F0F0;" d="M444.708,349.145H263.962c-3.232,0-5.862-2.63-5.862-5.862V80.009
						c0-3.232,2.63-5.862,5.862-5.862h180.746c3.232,0,5.862,2.629,5.862,5.862v263.273
						C450.57,346.515,447.94,349.145,444.708,349.145z M263.962,74.397c-3.095,0-5.612,2.518-5.612,5.612v263.273
						c0,3.095,2.518,5.612,5.612,5.612h180.746c3.095,0,5.612-2.518,5.612-5.612V80.009c0-3.094-2.518-5.612-5.612-5.612H263.962z"
						/>
				</g>
			</g>
			<g>
				<g>
					<path style="fill:#F0F0F0;" d="M236.28,349.145H55.534c-3.232,0-5.862-2.63-5.862-5.862V80.009
						c0-3.232,2.629-5.862,5.862-5.862H236.28c3.232,0,5.862,2.629,5.862,5.862v263.273
						C242.143,346.515,239.513,349.145,236.28,349.145z M55.534,74.397c-3.094,0-5.612,2.518-5.612,5.612v263.273
						c0,3.095,2.518,5.612,5.612,5.612H236.28c3.095,0,5.612-2.518,6.345-6.168V79.454c-0.732-2.539-3.25-5.056-6.345-5.056H55.534z
						"/>
				</g>
			</g>
		</g>
		<g>
			<g>
				<rect x="0" y="410.214" style="fill:#F0F0F0;" width="500" height="0.25"/>
			</g>
		</g>
	</g>
	<path style="fill:#F5F5F5;" d="M435.574,186.71c-1.681-3.921-5.922-11.249-14.683-13.248c-8.017-1.829-14.072,8.301-19.043,9.047
		c-4.971,0.746-4.418-1.493-14.359-5.225c-8.501-3.191-14.201,5.109-16.216,9.426H435.574z"/>
	<path style="fill:#F5F5F5;" d="M137.372,146.355c0,0,0-8.924-8.765-9.298c-4.188-0.179-9.307,3.252-12.539-2.173
		c-3.753-6.299-10.32-10.052-16.229-7.614c-6.53,2.693-10.232,13.016-16.607,12.171c-6.374-0.845-18.547-5.089-24.833,6.914H137.372
		z"/>
	<path style="fill:#F5F5F5;" d="M360.143,106.773c0,0,0-8.924-8.765-9.298c-4.188-0.179-9.307,3.252-12.539-2.173
		c-3.753-6.299-10.32-10.052-16.229-7.614c-6.53,2.694-10.232,13.016-16.607,12.171c-6.374-0.845-18.547-5.089-24.833,6.914H360.143
		z"/>
	
		<ellipse transform="matrix(0.9219 -0.3873 0.3873 0.9219 -24.1227 86.546)" style="fill:#FAFAFA;" cx="202.658" cy="103.121" rx="19.747" ry="19.747"/>
	<path style="fill:#F0F0F0;" d="M297.868,248.277c0,0-19.46-20.405-26.67-21.6c-7.21-1.195-41.181,29.1-46.007,32.1
		c-4.826,3-19.298,4.501-24.826,5.5c-5.528,0.999-21.286,7.386-21.786,9.25c-0.5,1.864-16.232,18.945-16.232,18.945
		s-63.3,37.121-74.89,56.463h242.564L297.868,248.277z"/>
</g>
<g id="Background_simple" style="display:none;">
	<g style="display:inline;">
		<path style="fill:#407BFF;" d="M244.477,343.86c-36.705,6.492-100.991-12.46-120.805-47.147
			c-13.565-23.748-17.228-44.838-4.693-71.89c32.163-69.413,123.002-17.276,154.55-102.157
			c36.598-98.466,126.565-86.54,142.613-1.962C432.486,206.847,370.542,321.565,244.477,343.86z"/>
		<path style="opacity:0.9;fill:#FFFFFF;" d="M244.477,343.86c-36.705,6.492-100.991-12.46-120.805-47.147
			c-13.565-23.748-17.228-44.838-4.693-71.89c32.163-69.413,123.002-17.276,154.55-102.157
			c36.598-98.466,126.565-86.54,142.613-1.962C432.486,206.847,370.542,321.565,244.477,343.86z"/>
	</g>
</g>
<g id="Shadow">
	<path style="fill:#F0F0F0;" d="M445.996,447.067c0,3.763-88.72,6.813-198.162,6.813s-198.162-3.05-198.162-6.813
		c0-3.763,88.72-6.813,198.162-6.813S445.996,443.304,445.996,447.067z"/>
</g>
<g id="Flags">
	<g>
		<g>
			<g>
				<polygon style="fill:#263238;" points="301.216,207.972 301.216,144.241 300.52,144.219 300.568,207.95 				"/>
			</g>
			<path style="fill:#407BFF;" d="M301.216,144.335c0,0-4.859-2.454-9.49,0.291c-4.631,2.745-10.806-0.61-10.806-0.61
				c1.119,2.699,3.426,6.014,5.943,6.696c-1.61,2.144-3.435,3.838-5.943,5.073c0,0,5.712,2.933,9.726,0
				c4.014-2.933,10.571,0.585,10.571,0.585V144.335z"/>
		</g>
		<g>
			<g>
				<polygon style="fill:#263238;" points="265.859,244.261 265.859,166.024 265.005,165.998 265.064,244.234 				"/>
			</g>
			<path style="fill:#407BFF;" d="M265.859,166.141c0,0-5.965-3.013-11.65,0.357c-5.685,3.37-13.266-0.749-13.266-0.749
				c1.374,3.314,4.206,7.383,7.296,8.22c-1.976,2.632-4.217,4.711-7.296,6.227c0,0,7.012,3.601,11.939,0
				c4.927-3.601,12.977,0.719,12.977,0.719V166.141z"/>
		</g>
		<g>
			<g>
				<polygon style="fill:#263238;" points="225.409,291.385 225.409,198.132 224.39,198.1 224.461,291.353 				"/>
			</g>
			<path style="fill:#407BFF;" d="M225.409,198.27c0,0-7.11-3.591-13.886,0.425c-6.777,4.017-15.812-0.893-15.812-0.893
				c1.637,3.949,5.013,8.8,8.697,9.798c-2.355,3.137-5.026,5.615-8.697,7.422c0,0,8.358,4.292,14.231,0
				c5.873-4.292,15.467,0.857,15.467,0.857V198.27z"/>
		</g>
		<g>
			<g>
				<polygon style="fill:#263238;" points="330.607,179.976 330.607,121.969 329.973,121.949 330.017,179.956 				"/>
			</g>
			<path style="fill:#407BFF;" d="M330.607,122.055c0,0-4.422-2.234-8.638,0.265c-4.215,2.499-9.836-0.555-9.836-0.555
				c1.018,2.457,3.118,5.474,5.41,6.095c-1.465,1.951-3.126,3.493-5.41,4.617c0,0,5.199,2.67,8.852,0
				c3.653-2.67,9.621,0.533,9.621,0.533V122.055z"/>
		</g>
	</g>
</g>
<g id="Mountain">
	<g>
		<path style="fill:#263238;" d="M455.902,410.21h-294.99c0,0,0-0.012,0.01-0.023c0.02-0.012,0.02-0.012,0.02-0.035
			c0.04-0.186,0.24-0.932,0.58-2.155c0.06-0.21,0.12-0.431,0.18-0.664c0.05-0.175,0.1-0.349,0.14-0.524
			c0.08-0.315,0.18-0.664,0.29-1.013c0.01-0.035,0.01-0.047,0.01-0.058c0.62-2.271,1.48-5.288,2.55-8.934
			c0.13-0.454,0.27-0.909,0.41-1.386c0.14-0.489,0.29-0.967,0.42-1.468c0.32-1.037,0.65-2.143,0.98-3.285
			c0.23-0.699,0.44-1.421,0.66-2.167c0.26-0.815,0.52-1.677,0.79-2.551c0.18-0.571,0.35-1.165,0.53-1.736
			c0.16-0.489,0.31-0.99,0.45-1.479c0.26-0.792,0.51-1.596,0.77-2.435c0.16-0.501,0.33-1.013,0.49-1.526
			c0.2-0.617,0.39-1.246,0.6-1.887c0.98-3.087,2.03-6.301,3.14-9.586c0.03-0.07,0.06-0.151,0.08-0.233
			c0.44-1.27,0.87-2.563,1.32-3.867c0.02-0.07,0.04-0.14,0.07-0.21c0.29-0.85,0.59-1.712,0.89-2.574c0.33-0.92,0.64-1.84,0.97-2.784
			c0.3-0.85,0.6-1.677,0.91-2.516c0.37-1.037,0.74-2.073,1.12-3.133c0.63-1.701,1.26-3.413,1.9-5.125
			c0.62-1.607,1.25-3.238,1.87-4.857c0.28-0.71,0.56-1.409,0.83-2.097c0.83-2.097,1.67-4.193,2.53-6.267
			c0.29-0.676,0.57-1.363,0.86-2.039c1.15-2.737,2.33-5.428,3.52-8.037c0.84-1.852,1.69-3.658,2.55-5.428
			c1.57-3.25,3.17-6.36,4.79-9.272c6.83-12.324,13.99-21.223,20.88-22.923c5.09-1.246,10.57-5.148,16.23-10.646
			c1.93-1.864,3.88-3.925,5.84-6.127h0.01c14.2-15.911,29.16-39.359,41.93-54.839l18.21-13.186c0.3-0.151,1.26-1.165,2.61-2.702
			c4.51-5.09,13.35-15.888,16.22-19.51c2.55-2.551,7.89-3.658,14.16-4.286c8,6.989,26.55,32.859,41.34,59.824
			c1.98,3.623,16.37,19.569,18.66,23.075c0.89,1.363,1.74,2.749,2.57,4.158c11.62,19.86,17.51,44.158,32.01,59.254
			c1.66,1.736,4.01,2.167,5.79,3.751c1.39,1.223,2.69,2.633,3.9,4.193c3.46,4.45,6.24,10.157,8.45,16.482
			C456.372,372.214,455.902,410.21,455.902,410.21z"/>
		<path style="opacity:0.1;fill:#FFFFFF;" d="M230.616,290.28c0,0,29.373,27.277,38.353,31.937
			c8.98,4.659,41.173-22.908,41.173-22.908s7.188-5.047,1.665-7.377c-5.523-2.33-25.652,9.288-38.69,10.92
			c-9.305,1.165-20.833-8.202-22.833-8.59C248.283,293.873,230.616,290.28,230.616,290.28z"/>
		<path style="opacity:0.1;fill:#FFFFFF;" d="M347.152,219.229c0,0-17,0.722-29,1.235c-12,0.513-30.49-2.015-35.12-6.138
			l18.21-13.186c0.3-0.151,1.26-1.165,2.61-2.702c4.84,5.405,13.34,14.607,15.8,15.352
			C323.152,214.861,347.152,219.229,347.152,219.229z"/>
		<path style="opacity:0.2;" d="M438.502,328.895c-15.53,3.017-30.63,7.746-49.3,6.185c-31.27-2.621-67.1-0.839-65.08-7.699
			c2.03-6.872,7.57-28.177,30.27-27.955c12.86,0.128,31.66-21.095,42.41-37.728c11.62,19.86,17.51,44.158,32.01,59.254
			c1.66,1.736,4.01,2.167,5.79,3.751C435.992,325.925,437.292,327.334,438.502,328.895z"/>
		<path style="opacity:0.2;" d="M455.898,410.209H160.926c0,0,0-0.013,0-0.026c0.011-0.013,0.011-0.013,0.011-0.026
			c0.053-0.183,0.255-0.939,0.584-2.164c0.064-0.209,0.117-0.43,0.181-0.665c0.053-0.169,0.096-0.339,0.138-0.522
			c0.096-0.326,0.191-0.665,0.287-1.017c0.011-0.026,0.011-0.039,0.011-0.052c0.638-2.256,1.498-5.293,2.55-8.931
			c0.138-0.456,0.276-0.913,0.414-1.395c0.138-0.482,0.287-0.965,0.425-1.46c0.319-1.043,0.648-2.151,0.977-3.285
			c0.223-0.704,0.436-1.421,0.659-2.164c0.255-0.821,0.52-1.682,0.786-2.555c0.181-0.574,0.351-1.16,0.531-1.734
			c0.159-0.495,0.308-0.991,0.457-1.486c0.255-0.782,0.51-1.591,0.765-2.425c0.159-0.508,0.329-1.017,0.489-1.525
			c0.202-0.626,0.393-1.252,0.606-1.891c0.988-3.077,2.04-6.284,3.134-9.582c0.032-0.078,0.064-0.156,0.085-0.235
			c0.436-1.278,0.871-2.568,1.317-3.872c0.021-0.065,0.042-0.143,0.074-0.209c0.287-0.847,0.584-1.708,0.882-2.568
			c0.329-0.926,0.648-1.851,0.977-2.79c0.298-0.834,0.595-1.669,0.903-2.516c0.372-1.03,0.744-2.073,1.126-3.129
			c0.627-1.708,1.264-3.416,1.902-5.124c0.616-1.617,1.243-3.246,1.87-4.863c0.276-0.704,0.552-1.408,0.829-2.099
			c0.829-2.099,1.668-4.185,2.528-6.258c0.287-0.678,0.574-1.369,0.86-2.047c1.147-2.738,2.327-5.424,3.516-8.031
			c0.839-1.851,1.689-3.664,2.55-5.437c1.572-3.246,3.176-6.349,4.791-9.27c10.634-0.039,24.795,2.647,37.225,14.015
			c14.512,13.272,23.68,40.885,56.974,37.404c33.294-3.494,60.171,3.898,95.186,17.731c26.984,10.664,52.947-13.376,59.428-32.633
			C456.376,372.219,455.898,410.209,455.898,410.209z"/>
	</g>
	<g>
		<g>
			<path style="fill:#263238;" d="M243.734,387.838c0,0,16.773-18.87,19.566-18.87c2.793,0,24.379,0.651,34.535,0
				c10.156-0.651,21.329,11.062,30.267,18.87c8.938,7.808,32.959,14.966,32.959,14.966l3.911,7.158H243.734V387.838z"/>
			<path style="opacity:0.2;" d="M364.974,409.962H243.739v-22.124c0,0,16.77-18.87,19.563-18.87c0.581,0,1.955,0.026,3.866,0.065
				c0.67,12.064,10.301,21.083,20.837,18.857c0.089-0.013,0.167-0.039,0.257-0.052c4.123-0.872,18.156,1.627,22.625,10.086
				c4.469,8.459,25.809,7.509,25.809,7.509s19.508,1.041,27.719,3.501L364.974,409.962z"/>
		</g>
		<path style="fill:#263238;" d="M266.093,409.97H72.8c0,0,0.292-1.037,0.829-2.843c0.123-0.393,0.245-0.822,0.384-1.305
			c0.552-1.877,1.289-4.327,2.149-7.116c0.43-1.395,0.89-2.879,1.381-4.434c0.246-0.769,0.507-1.573,0.752-2.378
			c0.384-1.198,0.783-2.431,1.197-3.701c0.138-0.411,0.276-0.84,0.414-1.251c1.949-5.918,4.129-12.193,6.293-17.736
			c0.614-1.591,1.243-3.129,1.857-4.577c0.46-1.091,0.921-2.128,1.366-3.111c0.46-0.983,0.906-1.913,1.335-2.789
			c0.292-0.572,0.583-1.108,0.86-1.627c1.289-2.306,2.487-3.951,3.53-4.666c16.347-11.031,29.516-24.637,38.91-31.109
			c11.113-7.652,24.129-10.352,36.332-10.709c9.547,0.232,18.496,0.983,24.635,1.949c0.537,0.089,1.059,0.179,1.581,0.268
			c0.414,0.072,0.829,0.179,1.243,0.304c0.798,0.232,1.581,0.572,2.364,0.983c0.23,0.125,0.476,0.25,0.706,0.393
			c1.182,0.697,2.349,1.573,3.5,2.592c0.645,0.59,1.305,1.216,1.949,1.877c0.031,0.053,0.061,0.071,0.092,0.107
			c0.461,0.483,0.906,0.965,1.351,1.484c1.796,2.038,3.53,4.38,5.219,6.883c0.844,1.251,1.673,2.539,2.502,3.844
			c0.384,0.608,0.752,1.216,1.136,1.824c0.43,0.715,0.875,1.448,1.305,2.163c0.415,0.697,0.829,1.377,1.228,2.074
			c0.215,0.358,0.43,0.733,0.66,1.108c0.998,1.698,1.965,3.379,2.916,5.024c0.046,0.089,0.092,0.179,0.154,0.25
			c0.322,0.59,0.66,1.162,0.998,1.734c0.061,0.089,0.123,0.197,0.184,0.304c0.583,1.001,1.167,1.984,1.75,2.932
			c0.384,0.644,0.752,1.251,1.136,1.841c0.936,1.484,1.857,2.879,2.747,4.13c0.353,0.483,0.706,0.966,1.059,1.413
			c0.031,0.054,0.077,0.107,0.123,0.161c0.292,0.393,0.599,0.751,0.906,1.108c0.031,0.036,0.061,0.072,0.092,0.107
			c0.307,0.358,0.614,0.679,0.921,0.983c0.184,0.179,0.353,0.358,0.537,0.501c0.476,0.429,0.936,0.787,1.397,1.091
			c0.154,0.107,0.307,0.197,0.46,0.268c0.169,0.089,0.338,0.161,0.507,0.232c0.123,0.054,0.246,0.089,0.368,0.125
			c0.184,0.072,0.368,0.107,0.553,0.125c1.504,0.215,3.239,1.073,5.096,2.342c0.368,0.268,0.737,0.536,1.121,0.822
			c0.384,0.286,0.752,0.59,1.151,0.912c0.384,0.322,0.767,0.661,1.151,1.001c0.399,0.34,0.798,0.697,1.182,1.073
			c0.599,0.554,1.197,1.144,1.781,1.734c0.2,0.197,0.399,0.393,0.599,0.608c0.998,1.019,1.995,2.092,2.962,3.182
			c0.2,0.232,0.399,0.447,0.583,0.679c6.999,7.974,13.17,17.128,13.799,18.594C267.214,394.344,266.093,409.97,266.093,409.97z"/>
		<path style="opacity:0.1;fill:#FFFFFF;" d="M266.093,409.97H72.8c0,0,0.292-1.037,0.829-2.843
			c0.123-0.393,0.245-0.822,0.384-1.305c0.552-1.877,1.289-4.327,2.149-7.116c0.43-1.395,0.89-2.879,1.381-4.434
			c0.246-0.769,0.507-1.573,0.752-2.378c0.384-1.198,0.783-2.431,1.197-3.701c0.138-0.411,0.276-0.84,0.414-1.251
			c1.949-5.918,4.129-12.193,6.293-17.736c0.614-1.591,1.243-3.129,1.857-4.577c0.46-1.091,0.921-2.128,1.366-3.111
			c0.46-0.983,0.906-1.913,1.335-2.789c0.292-0.572,0.583-1.108,0.86-1.627c1.289-2.306,2.487-3.951,3.53-4.666
			c16.347-11.031,29.516-24.637,38.91-31.109c11.113-7.652,24.129-10.352,36.332-10.709c9.547,0.232,18.496,0.983,24.635,1.949
			c0.537,0.089,1.059,0.179,1.581,0.268c0.414,0.072,0.829,0.179,1.243,0.304c0.798,0.232,1.581,0.572,2.364,0.983
			c0.23,0.125,0.476,0.25,0.706,0.393c1.182,0.697,2.349,1.573,3.5,2.592c0.645,0.59,1.305,1.216,1.949,1.877
			c0.031,0.053,0.061,0.071,0.092,0.107c0.461,0.483,0.906,0.965,1.351,1.484c1.796,2.038,3.53,4.38,5.219,6.883
			c0.844,1.251,1.673,2.539,2.502,3.844c0.384,0.608,0.752,1.216,1.136,1.824c0.43,0.715,0.875,1.448,1.305,2.163
			c0.415,0.697,0.829,1.377,1.228,2.074c0.215,0.358,0.43,0.733,0.66,1.108c0.998,1.698,1.965,3.379,2.916,5.024
			c0.046,0.089,0.092,0.179,0.154,0.25c0.322,0.59,0.66,1.162,0.998,1.734c0.061,0.089,0.123,0.197,0.184,0.304
			c0.583,1.001,1.167,1.984,1.75,2.932c0.384,0.644,0.752,1.251,1.136,1.841c0.936,1.484,1.857,2.879,2.747,4.13
			c0.353,0.483,0.706,0.966,1.059,1.413c0.031,0.054,0.077,0.107,0.123,0.161c0.292,0.393,0.599,0.751,0.906,1.108
			c0.031,0.036,0.061,0.072,0.092,0.107c0.307,0.358,0.614,0.679,0.921,0.983c0.184,0.179,0.353,0.358,0.537,0.501
			c0.476,0.429,0.936,0.787,1.397,1.091c0.154,0.107,0.307,0.197,0.46,0.268c0.169,0.089,0.338,0.161,0.507,0.232
			c0.123,0.054,0.246,0.089,0.368,0.125c0.184,0.072,0.368,0.107,0.553,0.125c1.504,0.215,3.239,1.073,5.096,2.342
			c0.368,0.268,0.737,0.536,1.121,0.822c0.384,0.286,0.752,0.59,1.151,0.912c0.384,0.322,0.767,0.661,1.151,1.001
			c0.399,0.34,0.798,0.697,1.182,1.073c0.599,0.554,1.197,1.144,1.781,1.734c0.2,0.197,0.399,0.393,0.599,0.608
			c0.998,1.019,1.995,2.092,2.962,3.182c0.2,0.232,0.399,0.447,0.583,0.679c6.999,7.974,13.17,17.128,13.799,18.594
			C267.214,394.344,266.093,409.97,266.093,409.97z"/>
		<path style="opacity:0.2;" d="M235.248,360.314c-4.391-0.286-9.542-0.403-14.58-0.052c-12.849,0.898-22.904-0.026-27.004-0.221
			c-4.089-0.182,0.402-9.852,7.743-13.691c4.871-2.551,11.932-7.236,16.569-11.062C224.578,346.324,230.388,357.776,235.248,360.314
			z"/>
		<path style="opacity:0.2;" d="M257.716,409.962H90.406c8.547-7.028,28.647-22.657,38.948-22.996
			c13.296-0.429,26.49,13.886,42.043,7.379c15.564-6.507,37.378-15.667,47.924-15.292
			C239.164,379.761,253.851,395.933,257.716,409.962z"/>
	</g>
	<g>
		<path style="opacity:0.5;fill:#FFFFFF;" d="M432.796,388.207c0,0-23.355-32.787-29.194-36.38
			c-5.839-3.593-27.846,2.246-42.668,2.246c-14.822,0-23.355,20.933-32.338,24.702c-8.983,3.769-39.524,31.44-39.524,31.44H440.88
			L432.796,388.207z"/>
		<path style="fill:#263238;" d="M432.796,388.207c0,0-23.355-32.787-29.194-36.38c-5.839-3.593-27.846,2.246-42.668,2.246
			c-14.822,0-23.355,20.933-32.338,24.702c-8.983,3.769-39.524,31.44-39.524,31.44H440.88L432.796,388.207z"/>
		<path style="opacity:0.1;fill:#FFFFFF;" d="M432.796,388.207c0,0-23.355-32.787-29.194-36.38
			c-5.839-3.593-27.846,2.246-42.668,2.246c-14.822,0-23.355,20.933-32.338,24.702c-8.983,3.769-39.524,31.44-39.524,31.44H440.88
			L432.796,388.207z"/>
		<path style="opacity:0.2;" d="M440.88,410.214H289.068c0,0,0.984-0.889,2.641-2.371c7.707-1.011,25.062-3.53,29.751-6.387
			c6.077-3.705,35.356-7.411,50.177-5.053c14.822,2.358,14.148-20.548,21.559-26.611c4.527-3.705,7.384-12.396,8.906-18.581
			c0.579,0.148,1.078,0.364,1.496,0.62c5.848,3.584,29.198,36.38,29.198,36.38L440.88,410.214z"/>
	</g>
</g>
<g id="Speech_bubble">
	<g>
		<path style="fill:#407BFF;" d="M183.666,136.242v16.434c0,3.212-2.6,5.819-5.812,5.819h-18.882c-0.987,0-1.923-0.252-2.737-0.684
			l-4.616,2.744l2.261-5.077c-0.461-0.828-0.72-1.786-0.72-2.801v-16.434c0-3.212,2.6-5.812,5.812-5.812h18.882
			C181.066,130.43,183.666,133.03,183.666,136.242z"/>
		<path style="opacity:0.7;fill:#FFFFFF;" d="M183.666,136.242v16.434c0,3.212-2.6,5.819-5.812,5.819h-18.882
			c-0.987,0-1.923-0.252-2.737-0.684l-4.616,2.744l2.261-5.077c-0.461-0.828-0.72-1.786-0.72-2.801v-16.434
			c0-3.212,2.6-5.812,5.812-5.812h18.882C181.066,130.43,183.666,133.03,183.666,136.242z"/>
		<g>
			<path style="fill:#407BFF;" d="M175.875,139.879l-10.99,10.99c-0.036,0.043-0.072,0.079-0.115,0.115
				c-0.137,0.151-0.31,0.266-0.497,0.331c-0.094,0.043-0.187,0.065-0.281,0.086s-0.187,0.029-0.281,0.029
				c-0.187,0-0.382-0.043-0.562-0.115c-0.094-0.036-0.18-0.079-0.266-0.137c-0.087-0.058-0.166-0.122-0.238-0.194l-3.226-3.226
				c-0.31-0.31-0.447-0.684-0.447-1.051c0-0.778,0.605-1.52,1.512-1.52c0.396,0,0.785,0.158,1.066,0.439l2.16,2.16l10.032-10.039
				c0.295-0.288,0.684-0.439,1.066-0.439c0.382,0,0.771,0.151,1.066,0.439C176.458,138.338,176.458,139.296,175.875,139.879z"/>
		</g>
	</g>
</g>
<g id="Character">
	<g>
		<g>
			<g>
				<g>
					<g>
						<g>
							<polygon style="fill:#FF8B7B;" points="133.122,427.027 133.083,441.542 138.944,442.025 141.851,428.443 							"/>
						</g>
					</g>
				</g>
				<g>
					<g>
						<g>
							<path style="fill:#263238;" d="M137.245,440.653c0,0,1.853-3.534,2.939-3.153c1.087,0.381,1.518,4.674,1.518,4.674
								s5.903,1.992,7.553,2.1c1.65,0.108,2.984,1.048,3.187,4.272l-20.175-0.055c0,0,0.156-7.279,0.196-8.527
								c0.04-1.248,1.812,0.317,1.812,0.317L137.245,440.653z"/>
						</g>
					</g>
					<g>
						<g>
							<g>
								<path style="fill:#FFFFFF;" d="M132.507,442.732c1.409,0.865,2.066,2.578,1.085,4.257c-0.109,0.186,0.146,0.35,0.256,0.162
									c1.075-1.839,0.42-3.736-1.143-4.695C132.538,442.354,132.34,442.63,132.507,442.732L132.507,442.732z"/>
							</g>
						</g>
					</g>
					<g>
						<g>
							<g>
								<path style="fill:#FFFFFF;" d="M132.464,447.334c5.275,0.069,10.55,0.139,15.826,0.208c1.226,0.016,2.453,0.032,3.679,0.048
									c0.206,0.003,0.248-0.317,0.042-0.32c-5.275-0.069-10.55-0.139-15.826-0.208c-1.227-0.016-2.453-0.032-3.679-0.048
									C132.3,447.012,132.258,447.332,132.464,447.334L132.464,447.334z"/>
							</g>
						</g>
					</g>
					<g>
						<g>
							<g>
								<path style="fill:#FFFFFF;" d="M140.826,443.441c0.832-0.985,2.038-1.259,2.945-0.513c0.15,0.123,0.346-0.154,0.198-0.276
									c-1.038-0.855-2.455-0.491-3.398,0.627C140.428,443.447,140.685,443.608,140.826,443.441L140.826,443.441z"/>
							</g>
						</g>
					</g>
					<g>
						<g>
							<g>
								<path style="fill:#FFFFFF;" d="M142.495,443.97c0.831-0.985,2.038-1.259,2.945-0.513c0.15,0.123,0.346-0.154,0.198-0.276
									c-1.038-0.855-2.455-0.491-3.398,0.626C142.098,443.976,142.355,444.137,142.495,443.97L142.495,443.97z"/>
							</g>
						</g>
					</g>
					<g>
						<g>
							<g>
								<path style="fill:#FFFFFF;" d="M144.222,444.5c0.831-0.985,2.038-1.259,2.945-0.513c0.15,0.123,0.346-0.154,0.198-0.276
									c-1.038-0.855-2.455-0.491-3.398,0.626C143.825,444.505,144.081,444.666,144.222,444.5L144.222,444.5z"/>
							</g>
						</g>
					</g>
				</g>
			</g>
			<path style="fill:#407BFF;" d="M122.688,281.644c0.292,2.579,0.32,10.54,0.877,14.788c1.052,8.096,2.445,18.593,3.656,29.116
				c1.408,12.186,2.583,24.4,2.701,32.909c0.302,21.85,2.647,74.567,2.647,74.567l9.463-0.457c0,0,8.952-52.961,9.962-75.176
				c0.85-18.418-2.351-65.605-3.194-77.007L122.688,281.644z"/>
			<path style="opacity:0.2;" d="M123.565,296.432c1.052,8.096,2.445,18.593,3.656,29.116c3.991-14.011-1.338-34.631-1.338-34.631
				L123.565,296.432z"/>
			<polygon style="fill:#263238;" points="131.772,435.423 142.878,434.887 143.521,431.305 131.305,431.746 			"/>
		</g>
		<g>
			<g>
				<g>
					<g>
						<g>
							<g>
								<polygon style="fill:#FF8B7B;" points="83.115,424.862 81.594,439.296 87.376,440.375 91.654,427.161 								"/>
							</g>
						</g>
					</g>
					<g>
						<g>
							<path style="fill:#263238;" d="M85.825,438.837c0,0,2.204-3.326,3.246-2.836c1.042,0.49,1.033,4.805,1.033,4.805
								s5.669,2.584,7.299,2.861c1.631,0.277,2.862,1.347,2.734,4.576l-20.064-2.114c0,0,0.898-7.225,1.066-8.463
								c0.167-1.237,1.77,0.5,1.77,0.5L85.825,438.837z"/>
						</g>
					</g>
					<g>
						<g>
							<g>
								<path style="fill:#FFFFFF;" d="M80.899,440.422c1.313,1.004,1.792,2.775,0.644,4.346c-0.127,0.174,0.109,0.363,0.238,0.188
									c1.257-1.719,0.799-3.674-0.657-4.788C80.969,440.048,80.744,440.303,80.899,440.422L80.899,440.422z"/>
							</g>
						</g>
					</g>
					<g>
						<g>
							<g>
								<path style="fill:#FFFFFF;" d="M80.387,444.995c5.241,0.608,10.481,1.215,15.722,1.823c1.218,0.141,2.437,0.283,3.655,0.424
									c0.205,0.024,0.279-0.29,0.074-0.314c-5.24-0.608-10.481-1.215-15.722-1.823c-1.218-0.141-2.437-0.283-3.655-0.424
									C80.257,444.657,80.182,444.971,80.387,444.995L80.387,444.995z"/>
							</g>
						</g>
					</g>
					<g>
						<g>
							<g>
								<path style="fill:#FFFFFF;" d="M89.102,441.976c0.928-0.895,2.156-1.045,2.982-0.209c0.136,0.138,0.36-0.118,0.225-0.254
									c-0.945-0.956-2.392-0.739-3.444,0.276C88.706,441.941,88.946,442.127,89.102,441.976L89.102,441.976z"/>
							</g>
						</g>
					</g>
					<g>
						<g>
							<g>
								<path style="fill:#FFFFFF;" d="M90.709,442.673c0.928-0.895,2.156-1.045,2.981-0.209c0.136,0.138,0.36-0.118,0.225-0.255
									c-0.945-0.956-2.392-0.739-3.444,0.276C90.313,442.638,90.552,442.824,90.709,442.673L90.709,442.673z"/>
							</g>
						</g>
					</g>
					<g>
						<g>
							<g>
								<path style="fill:#FFFFFF;" d="M92.373,443.376c0.928-0.895,2.156-1.044,2.982-0.209c0.136,0.138,0.36-0.118,0.225-0.255
									c-0.945-0.956-2.392-0.739-3.444,0.276C91.977,443.341,92.216,443.527,92.373,443.376L92.373,443.376z"/>
							</g>
						</g>
					</g>
				</g>
			</g>
			<path style="fill:#407BFF;" d="M113.446,361.167c-4.813,21.706-22.237,68.993-22.237,68.993l-9.403-1.173
				c0,0,9.522-47.862,11.851-69.583c1.241-11.572,4.385-64.626,5.182-77.877l31.434,1.307
				C129.15,294.206,117.44,343.161,113.446,361.167L113.446,361.167z"/>
			<polygon style="fill:#263238;" points="80.948,429.222 91.981,430.599 93.23,427.181 80.93,425.544 			"/>
		</g>
		<path style="fill:#FFFFFF;" d="M97.015,281.615c-0.056,1.387,2.897,4.339,4.277,4.331l48.625-1.501
			c1.464-0.004,3.126-1.09,3.014-2.548c-1.332-17.2-8.207-76.261-9.74-79.935c-1.891-4.509-11.208-5.715-15.265-5.887
			c-5.842-0.253-12.552,0.246-19.145,0.883c-3.105,0.301-5.93,0.713-8.269,1.119c-3.558,0.615-2.87,4.086-2.743,7.69
			c0.2,5.641-0.037,13.213,0.603,19.706c0.032,0.325,0.064,0.641,0.096,0.957c0.217,2.24,0.424,4.454,0.538,6.64
			c0.029,0.434,0.059,0.876,0.072,1.31C99.938,256.696,97.573,267.762,97.015,281.615z"/>
		<path style="fill:#263238;" d="M116.627,286.28c-6.474,0.713-23.681,1.143-23.812-1.567c-0.218-4.524,4.452-36.108,4.735-42.395
			c0.042-0.96,0.067-2.261,0.089-3.815c0.027-2.884,0.012-6.636-0.026-10.66c-0.127-12.541-0.471-27.769-0.471-27.769
			s0.214-3.46,15.361-3.458c0,0,4.65,18.186,5.567,34.344C118.977,247.118,118.824,286.037,116.627,286.28z"/>
		<path style="fill:#263238;" d="M127.926,196.074c0,0,7.512,17.295,8.067,44.019s1.162,46.167,1.162,46.167
			s15.998,0.222,17.276-2.231c0.697-1.337-2.278-24.52-3.986-38.11c-1.944-15.47-5.584-40.855-6.64-43.879
			C141.982,196.82,127.926,196.074,127.926,196.074z"/>
		<path style="opacity:0.2;" d="M105.236,216.716l-7.596,21.787c0.027-2.884,0.012-6.636-0.026-10.66L105.236,216.716z"/>
		<g>
			<g>
				<g>
					<g>
						<g>
							<path style="fill:#263238;" d="M115.103,176.169c0,0-4.007-1.98-3.806-3.8c0.202-1.821,1.248-1.292,1.248-1.292
								s-2.372-4.232-0.244-5.059c2.127-0.827,2.307-0.111,2.307-0.111s-0.951-3.491,0.675-4.615c1.269-0.876,1.89,0.724,1.89,0.724
								s2.355-4.575,5.121-4.214c2.123,0.278,1.751,2.505,1.751,2.505s5.534-2.44,8.396-0.912c2.862,1.528,0.147,3.035,0.147,3.035
								s7.619-0.476,7.936,1.591c0.317,2.067-2.421,3.068-2.421,3.068s3.432,1.356,2.398,3.941
								c-1.034,2.585-3.066,1.017-3.066,1.017s2.658,4.039,0.52,4.775c-2.138,0.736-4.847-3.625-4.847-3.625L115.103,176.169z"/>
							<path style="fill:#263238;" d="M126.863,162.7c-3.615-0.704-7.405,0.022-10.382,2.189c-1.944,1.415-3.524,3.373-3.1,5.889
								c0.989,5.872,4.109,15.474,4.109,15.474l18.469-12.533c0,0,2.664-3.606-1.974-8.018
								C132.492,164.282,129.535,163.221,126.863,162.7z"/>
							<g>
								<path style="fill:#FF8B7B;" d="M126.862,199.495c-0.14-0.525-0.252-1.073-0.319-1.639c-0.081-0.671-0.101-1.364-0.055-2.062
									l0.761-3.445c0.011-0.027,0.015-0.045,0.026-0.072l-0.002-0.008l-5.818-5.783l-4.005-3.99
									c0.431,4.378-0.651,9.802-2.017,14.458C115.785,198.983,125.634,203.985,126.862,199.495z"/>
							</g>
							<path style="fill:#FFFFFF;" d="M124.226,201.306c-2.451-1.282-5.161-4.742-7.842-7.957c0,0-2.434,0.527-2.992,3.657
								l2.708,7.763L124.226,201.306z"/>
							<path style="fill:#FFFFFF;" d="M126.488,195.793c-0.2,2.074-1.001,3.891-2.262,5.512l4.769,3.275l1.043-5.529
								C130.038,199.051,128.468,196.9,126.488,195.793z"/>
							<g style="opacity:0.2;">
								<path d="M127.249,192.348l-0.761,3.445c-2.142-0.874-4.427-2.852-5.022-5.07c-0.418-1.601,0.247-3.141,0.895-3.25
									L127.249,192.348z"/>
							</g>
							<g>
								<path style="fill:#FF8B7B;" d="M135.465,184.862c-0.168,0.749-0.361,1.489-0.569,2.218
									c-1.86,6.444-9.679,7.341-14.749,2.857c-0.008-0.009-0.007-0.017-0.016-0.018c-0.449-0.398-0.879-0.837-1.281-1.324
									c-3.267-3.951-2.617-7.117-2.439-14.252c0.176-7.127,7.598-11.88,14.198-8.504
									C136.699,168.954,137.162,177.37,135.465,184.862z"/>
							</g>
							<g>
								<path style="fill:#263238;" d="M128.039,177.173c-0.048,0.56,0.209,1.039,0.574,1.071c0.366,0.032,0.702-0.396,0.75-0.956
									c0.048-0.559-0.209-1.039-0.574-1.071C128.424,176.186,128.088,176.614,128.039,177.173"/>
							</g>
							<g>
								<path style="fill:#263238;" d="M131.021,186.029c0.118-0.006,0.187-0.015,0.191-0.016c0.116-0.017,0.196-0.125,0.18-0.241
									c-0.017-0.116-0.124-0.194-0.241-0.18c-0.114,0.017-2.895,0.383-3.467-2.765c-0.021-0.116-0.134-0.195-0.247-0.172
									c-0.116,0.021-0.192,0.132-0.172,0.247C127.819,185.958,130.307,186.063,131.021,186.029z"/>
							</g>
							<path style="fill:#263238;" d="M116.36,175.01c0,0,2.151,0.011,2.32,1.844c0.169,1.834-0.01,2.084-0.01,2.084l0.267,0.005
								c1.15,0.022,2.008-1.024,1.796-2.155c-0.281-1.497-0.374-3.208,0.667-3.203c1.851,0.008-1.036-3.909,1.473-4.753
								c2.685-0.903,9.705-1.563,12.643,2.615c0,0-0.912-4.208-4.397-6.346c-3.485-2.138-10.32-2.324-12.929,1.142
								C115.579,169.709,116.36,175.01,116.36,175.01z"/>
							<g>
								<path style="fill:#FF8B7B;" d="M112.956,178.813c0.363,1.889,1.565,3.433,2.887,4.299c1.989,1.301,3.699-0.305,3.745-2.557
									c0.042-2.027-0.944-5.147-3.229-5.544C114.109,174.619,112.54,176.653,112.956,178.813"/>
							</g>
							<g>
								<path style="fill:#263238;" d="M133.822,177.56c-0.049,0.56,0.209,1.039,0.574,1.071c0.366,0.032,0.702-0.396,0.75-0.956
									c0.049-0.56-0.209-1.039-0.574-1.071C134.206,176.573,133.87,177.001,133.822,177.56"/>
							</g>
						</g>
						<g>
							<path style="fill:#263238;" d="M135.852,176.194c-0.098-0.016-0.184-0.082-0.22-0.181c-0.165-0.443-0.417-0.743-0.75-0.89
								c-0.547-0.242-1.158-0.01-1.164-0.007c-0.141,0.058-0.31-0.011-0.367-0.158c-0.058-0.145,0.012-0.31,0.158-0.368
								c0.033-0.013,0.834-0.327,1.604,0.015c0.478,0.211,0.831,0.619,1.051,1.211c0.055,0.147-0.02,0.31-0.167,0.364
								C135.948,176.198,135.898,176.202,135.852,176.194z"/>
						</g>
						<g>
							<path style="fill:#263238;" d="M126.566,175.751c-0.042,0.003-0.085-0.003-0.126-0.019c-0.145-0.056-0.218-0.219-0.162-0.365
								c0.013-0.034,0.328-0.833,1.102-1.165c0.48-0.206,1.019-0.188,1.602,0.054c0.145,0.06,0.214,0.225,0.154,0.37
								c-0.06,0.145-0.226,0.213-0.37,0.153c-0.435-0.18-0.825-0.201-1.159-0.059c-0.553,0.235-0.799,0.845-0.801,0.851
								C126.766,175.676,126.671,175.742,126.566,175.751z"/>
						</g>
						<g>
							<path style="fill:#FF5652;" d="M131.199,178.163c0,0,1.781,3.697,1.958,4.649c0.121,0.65-1.962,0.735-1.962,0.735
								L131.199,178.163z"/>
						</g>
					</g>
				</g>
				<g>
					<g>
						<path d="M126.833,195.1c-0.002-0.006-0.004-0.011-0.004-0.013c0.001-0.002,0.005,0.003,0.01,0.012L126.833,195.1z"/>
					</g>
				</g>
			</g>
		</g>
		<path style="fill:#263238;" d="M116.384,193.349c0,0-5.354-0.874-6.299,3.587l0.703,14.558l3.234,3.66l-2.288,2.521l0.836,18.705
			l5.731,1.664c-0.141-5.215,0.261-14.591-1.708-28.348C115.349,201.008,116.384,193.349,116.384,193.349z"/>
		<path style="opacity:0.2;fill:#FFFFFF;" d="M116.384,193.349c0,0-5.354-0.874-6.299,3.587l0.703,14.558l3.234,3.66l-2.288,2.521
			l0.836,18.705l5.731,1.664c-0.141-5.215,0.261-14.591-1.708-28.348C115.349,201.008,116.384,193.349,116.384,193.349z"/>
		<path style="fill:#263238;" d="M126.488,195.793c0,0,2.608,2.405,4.128,8.115c1.52,5.71,5.234,30.833,5.317,34.045l5.375-4.457
			l-3.231-19.928l-3.404-1.889l2.602-3.785c0,0-2.995-9.081-4.757-11.346c-1.762-2.265-5.603-2.684-5.603-2.684L126.488,195.793z"/>
		<path style="opacity:0.2;fill:#FFFFFF;" d="M126.488,195.793c0,0,2.608,2.405,4.128,8.115c1.52,5.71,5.234,30.833,5.317,34.045
			l5.375-4.457l-3.231-19.928l-3.404-1.889l2.602-3.785c0,0-2.995-9.081-4.757-11.346c-1.762-2.265-5.603-2.684-5.603-2.684
			L126.488,195.793z"/>
		<g>
			<path style="fill:#263238;" d="M95.168,202.116c-2.946,5.754-5.697,11.612-8.377,17.493c-1.353,2.934-2.649,5.896-3.977,8.831
				l-1.94,4.406l-0.964,2.151l-0.484,1.046l-0.23,0.492c-0.075,0.17-0.101,0.249-0.151,0.378l-0.128,0.349l-0.089,0.279
				c-0.063,0.196-0.111,0.366-0.149,0.515l-0.116,0.456c-0.265,1.136-0.396,2.031-0.525,2.937c-0.124,0.896-0.223,1.757-0.313,2.609
				c-0.179,1.702-0.32,3.364-0.422,5.023c-0.211,3.312-0.375,6.586-0.458,9.861c-0.188,6.548-0.22,13.058,0.017,19.614
				c0.073,2.026,1.775,3.608,3.8,3.535c1.735-0.063,3.145-1.32,3.468-2.952l0.004-0.023c1.258-6.352,2.368-12.74,3.487-19.074
				c0.576-3.165,1.114-6.327,1.714-9.438c0.307-1.552,0.598-3.099,0.917-4.595c0.16-0.747,0.325-1.482,0.499-2.177
				c0.17-0.684,0.362-1.376,0.524-1.802c0.021-0.062,0.037-0.091,0.053-0.127c0.018-0.045,0.031-0.068,0.036-0.062l0.009-0.008
				l-0.016,0.067l-0.035,0.098c-0.029,0.074-0.062,0.147-0.098,0.219c-0.068,0.128,0.014-0.019,0.03-0.044l0.088-0.152l0.175-0.305
				l0.345-0.606l1.215-2.188l2.353-4.304c1.521-2.879,3.051-5.74,4.522-8.632c2.965-5.772,5.835-11.578,8.496-17.495
				c1.669-3.711,0.013-8.073-3.698-9.742c-3.591-1.615-7.791-0.117-9.572,3.345L95.168,202.116z"/>
			<g>
				<g>
					<path style="fill:#263238;" d="M69.553,297.134l-0.289-5.982c-0.01-0.207,0.151-0.384,0.358-0.394l3.246-0.157l-0.047-0.966
						l-3.246,0.157c-0.74,0.036-1.313,0.667-1.277,1.406l0.289,5.982L69.553,297.134z"/>
				</g>
				<g>
					<path style="fill:#263238;" d="M91.719,290.067l0.289,5.983l0.966-0.047l-0.289-5.983c-0.036-0.74-0.666-1.313-1.406-1.277
						l-3.246,0.157l0.047,0.966l3.246-0.157C91.532,289.699,91.709,289.86,91.719,290.067z"/>
				</g>
				<g>
					<g>
						<path style="fill:#263238;" d="M105.828,297.919l1.457,30.182c0.068,1.4-1.017,2.595-2.417,2.663l-43.559,2.103
							c-1.401,0.068-2.595-1.017-2.663-2.417l-1.457-30.182c-0.068-1.401,1.018-2.586,2.418-2.653l43.559-2.103
							C104.566,295.443,105.76,296.518,105.828,297.919z"/>
					</g>
					<g style="opacity:0.5;">
						<path style="fill:#FFFFFF;" d="M105.828,297.919l1.457,30.182c0.068,1.4-1.017,2.595-2.417,2.663l-43.559,2.103
							c-1.401,0.068-2.595-1.017-2.663-2.417l-1.457-30.182c-0.068-1.401,1.018-2.586,2.418-2.653l43.559-2.103
							C104.566,295.443,105.76,296.518,105.828,297.919z"/>
					</g>
					<g>
						
							<rect x="98.23" y="295.723" transform="matrix(0.9988 -0.0482 0.0482 0.9988 -14.9982 5.1489)" style="fill:#263238;" width="1.934" height="35.294"/>
						
							<rect x="64.311" y="297.361" transform="matrix(0.9988 -0.0482 0.0482 0.9988 -15.1158 3.5146)" style="fill:#263238;" width="1.934" height="35.294"/>
					</g>
				</g>
				<path style="fill:#FF8B7B;" d="M83.529,280.444c0,0,3.454,6.876,3.181,8.485c-0.273,1.609-2.516-1.228-2.516-1.228
					L83.529,280.444z"/>
				
					<rect x="71.494" y="288.147" transform="matrix(0.9988 -0.0482 0.0482 0.9988 -13.8812 4.2088)" style="fill:#263238;" width="17.566" height="3.223"/>
				
					<rect x="71.494" y="288.147" transform="matrix(0.9988 -0.0482 0.0482 0.9988 -13.8812 4.2088)" style="opacity:0.3;fill:#FFFFFF;" width="17.566" height="3.223"/>
				<path style="fill:#FF8B7B;" d="M77.084,279.687l-2.087,7.273c-0.388,2.076,6.364,4.746,8.834,2.856
					c1.948-1.49-0.198-9.715-0.198-9.715C81.452,278.887,79.45,278.744,77.084,279.687z"/>
				<path style="fill:#FF8B7B;" d="M74.997,286.96c-0.394,2.311,0.115,6.769,3.785,7.055c1.644,0.128,2.417-0.062,2.417-0.062
					s1.251,0.47,2.281,0.082c1.802-0.678,0.899-5.259,0.899-5.259L74.997,286.96z"/>
			</g>
		</g>
		<g>
			<path style="fill:#263238;" d="M180.286,196.613c-0.007,0.274-0.015,0.528-0.061,0.824c-0.046,0.316-0.111,0.634-0.198,0.942
				c-0.096,0.329-0.195,0.577-0.295,0.815c-0.11,0.238-0.23,0.477-0.361,0.707c-0.225,0.365-0.472,0.712-0.712,0.997
				c-0.212,0.233-0.443,0.488-0.656,0.68c-0.184,0.171-0.379,0.332-0.574,0.494l-0.509,0.369c-1.286,0.863-2.21,1.242-3.123,1.63
				c-0.904,0.368-1.741,0.662-2.57,0.925c-1.636,0.525-3.206,0.955-4.78,1.315c-3.116,0.728-6.178,1.322-9.245,1.814
				c-3.067,0.492-6.117,0.913-9.17,1.263c-0.383,0.039-0.756,0.087-1.129,0.115c-0.534,0.066-1.068,0.122-1.593,0.168l-0.041,0.002
				c-2.138,0.215-4.287,0.389-6.45,0.514l-1.732-12.572c5.834-0.687,12.544-0.839,18.376-1.556c2.91-0.384,5.821-0.747,8.614-1.237
				c0.843-0.162,1.678-0.304,2.49-0.465c-1.861-1.815-3.963-3.588-6.045-5.362c-2.27-1.897-4.581-3.791-6.921-5.664
				c-2.302-1.926-4.701-3.765-7.012-5.67l2.771-4.521c5.587,2.608,10.993,5.447,16.287,8.677c2.672,1.614,5.257,3.323,7.896,5.293
				c1.306,1.021,2.602,2.053,4.001,3.536c0.353,0.388,0.707,0.797,1.098,1.335c0.381,0.549,0.805,1.137,1.224,2.261
				C180.068,194.84,180.273,195.519,180.286,196.613z"/>
			<path style="opacity:0.2;" d="M146.903,209.502c-0.534,0.066-1.068,0.122-1.593,0.168l-0.041,0.002l-1.052-6.262L146.903,209.502
				z"/>
			<path style="fill:#FF8B7B;" d="M134.12,172.531c0.625,0.359,1.952,0.785,3.28,1.149c1.849,0.514,3.703,0.923,3.703,0.923
				s3.509,3.799,6.119,2.972c0.143-0.047,0.273-0.098,0.394-0.159c1.925-0.949,1.649-3.711,1.573-4.272
				c-0.01-0.066-0.016-0.104-0.016-0.104c-1.175-0.243-2.521-0.48-3.895-0.685c-3.472-0.528-7.116-0.875-8.614-0.706
				C133.62,171.991,132.625,171.675,134.12,172.531z"/>
		</g>
		<polygon style="fill:#407BFF;" points="121.424,202.5 125.26,209.439 126.841,203.102 124.226,201.306 		"/>
		<polygon style="fill:#407BFF;" points="123.907,206.991 124.275,250.689 129.186,260.332 132.5,250.039 125.895,206.895 		"/>
	</g>
</g>
</svg>
